<?xml version="1.0" encoding="utf-8"?>
<!-- Generator: Adobe Illustrator 16.0.3, SVG Export Plug-In . SVG Version: 6.00 Build 0)  -->
<!DOCTYPE svg PUBLIC "-//W3C//DTD SVG 1.1//EN" "http://www.w3.org/Graphics/SVG/1.1/DTD/svg11.dtd">
<svg version="1.1" id="Layer_1" xmlns="http://www.w3.org/2000/svg" xmlns:xlink="http://www.w3.org/1999/xlink" x="0px" y="0px"
	 width="45px" height="45px" viewBox="0 0 45 45" style="enable-background:new 0 0 45 45;" xml:space="preserve">
<g>
	<path style="fill:#BB2025;stroke:#BB2025;stroke-miterlimit:10;" d="M22.5,0.5c-12.1,0-22,9.9-22,22s9.9,22,22,22
		c12.1,0,22-9.9,22-22S34.6,0.5,22.5,0.5L22.5,0.5z M22.5,42.8c-11.2,0-20.3-9.1-20.3-20.3c0-11.2,9.1-20.3,20.3-20.3
		c11.2,0,20.3,9.1,20.3,20.3C42.8,33.7,33.7,42.8,22.5,42.8L22.5,42.8z M22.5,42.8"/>
	<path style="fill:#BB2025;stroke:#BB2025;stroke-miterlimit:10;" d="M30.7,14.3c-0.3-0.3-0.9-0.3-1.2,0l-7,7l-7-7
		c-0.3-0.3-0.9-0.3-1.2,0c-0.3,0.3-0.3,0.9,0,1.2l7,7l-7,7c-0.3,0.3-0.3,0.9,0,1.2c0.2,0.2,0.4,0.2,0.6,0.2c0.2,0,0.4-0.1,0.6-0.2
		l7-7l7,7c0.2,0.2,0.4,0.2,0.6,0.2c0.2,0,0.4-0.1,0.6-0.2c0.3-0.3,0.3-0.9,0-1.2l-7-7l7-7C31.1,15.2,31.1,14.6,30.7,14.3L30.7,14.3z
		 M30.7,14.3"/>
</g>
</svg>
