<svg xmlns="http://www.w3.org/2000/svg" xmlns:xlink="http://www.w3.org/1999/xlink" preserveAspectRatio="xMidYMid" width="25" height="25" viewBox="0 0 25 25">
  <defs>
    <style>

      .cls-2 {
        fill: #ffffff;
        opacity: 0.8;
      }
    </style>
  </defs>
  <path d="M1.796,24.708 C1.796,24.708 12.522,13.595 12.522,13.595 C12.522,13.595 12.523,13.595 12.523,13.595 C12.523,13.595 12.523,13.595 12.523,13.595 C12.523,13.595 23.647,24.311 23.647,24.311 C23.965,24.617 24.471,24.608 24.778,24.290 C25.085,23.972 25.076,23.467 24.758,23.161 C24.758,23.161 13.633,12.445 13.633,12.445 C13.633,12.445 13.633,12.445 13.633,12.445 C13.633,12.445 13.633,12.444 13.633,12.444 C13.633,12.444 24.360,1.332 24.360,1.332 C24.667,1.014 24.657,0.508 24.339,0.202 C24.021,-0.105 23.515,-0.095 23.208,0.222 C23.208,0.222 12.482,11.335 12.482,11.335 C12.482,11.335 12.481,11.336 12.481,11.336 C12.481,11.336 12.481,11.335 12.481,11.335 C12.481,11.335 1.357,0.620 1.357,0.620 C1.198,0.466 0.991,0.392 0.787,0.396 C0.582,0.400 0.379,0.481 0.226,0.640 C-0.081,0.958 -0.072,1.463 0.246,1.770 C0.246,1.770 11.371,12.485 11.371,12.485 C11.371,12.485 11.371,12.486 11.371,12.486 C11.371,12.486 11.371,12.486 11.371,12.486 C11.371,12.486 0.644,23.599 0.644,23.599 C0.491,23.758 0.416,23.964 0.420,24.168 C0.424,24.372 0.506,24.576 0.665,24.729 C0.983,25.035 1.489,25.026 1.796,24.708 Z" id="path-1" class="cls-2" fill-rule="evenodd"/>
</svg>
