<?xml version="1.0" encoding="utf-8"?>
<!-- Generator: Adobe Illustrator 19.1.0, SVG Export Plug-In . SVG Version: 6.00 Build 0)  -->
<svg version="1.1" id="Layer_1" xmlns="http://www.w3.org/2000/svg" xmlns:xlink="http://www.w3.org/1999/xlink" x="0px" y="0px"
	 viewBox="0 0 36 36" style="enable-background:new 0 0 36 36;" xml:space="preserve">
<style type="text/css">
	.st0{display:none;}
	.st1{display:inline;}
	.st2{fill:#010202;}
	.st3{fill:#FFFFFF;}
</style>
<g class="st0">
	<g class="st1">
		<path class="st2" d="M4.3,23.5c-0.1,0-0.2,0-0.2-0.1C3.9,23.3,3.9,23,4,22.9l9.8-13.4c0.1-0.1,0.2-0.2,0.3-0.2s0.2,0.1,0.3,0.2
			L24.2,23c0.1,0.2,0.1,0.4-0.1,0.5s-0.4,0.1-0.5-0.1l-9.5-13l-9.5,13C4.5,23.5,4.4,23.5,4.3,23.5z"/>
	</g>
</g>
<g class="st0">
	<g class="st1">
		<path class="st2" d="M30.1,23.6c-0.1,0-0.2-0.1-0.3-0.2l-6.3-8.6l-2.6,3.7c-0.1,0.2-0.4,0.2-0.5,0.1c-0.2-0.1-0.2-0.4-0.1-0.5
			l2.9-4.1c0.1-0.1,0.2-0.2,0.3-0.2l0,0c0.1,0,0.2,0.1,0.3,0.2l6.6,9c0.1,0.2,0.1,0.4-0.1,0.5C30.3,23.6,30.2,23.6,30.1,23.6z"/>
	</g>
</g>
<g class="st0">
	<g class="st1">
		<path class="st2" d="M20.6,13c-1.8,0-3.2-1.4-3.2-3.2s1.4-3.2,3.2-3.2c1.8,0,3.2,1.4,3.2,3.2C23.8,11.5,22.4,13,20.6,13z
			 M20.6,7.2c-1.4,0-2.6,1.2-2.6,2.6s1.2,2.6,2.6,2.6s2.6-1.2,2.6-2.6S22.1,7.2,20.6,7.2z"/>
	</g>
</g>
<g class="st0">
	<g class="st1">
		<path class="st2" d="M3.9,23.2c0-0.1,0-0.2,0.1-0.3c0.1-0.1,0.2-0.2,0.3-0.1l25.8,0.1c0.2,0,0.4,0.2,0.4,0.4
			c0,0.2-0.2,0.4-0.4,0.4L4.3,23.5L3.9,23.2z"/>
	</g>
</g>
<g>
	<g>
		<path class="st3" d="M28.3,7.9c-0.1,0-0.2,0-0.3-0.1c-0.2-0.2-0.2-0.4,0-0.6l6.7-6.6c0.2-0.2,0.4-0.2,0.6,0c0.2,0.2,0.2,0.4,0,0.6
			l-6.7,6.6C28.5,7.9,28.4,7.9,28.3,7.9z"/>
	</g>
</g>
<g>
	<g>
		<path class="st3" d="M1,7.5L1,7.5c0.3,0,0.4-0.2,0.4-0.4V1.2h5.8c0.2,0,0.4-0.1,0.4-0.4c0-0.2-0.1-0.4-0.4-0.4H1
			c-0.1,0-0.2,0-0.3,0.1S0.6,0.8,0.6,0.9v6.3C0.6,7.3,0.8,7.5,1,7.5z"/>
	</g>
</g>
<g>
	<g>
		<path class="st3" d="M35.5,7.2V0.9c0-0.1,0-0.2-0.1-0.3s-0.2-0.1-0.3-0.1h-6.2c-0.3,0-0.4,0.2-0.4,0.4c0,0.3,0.2,0.4,0.4,0.4h5.8
			v5.9c0,0.2,0.1,0.4,0.4,0.4l0,0C35.2,7.6,35.5,7.4,35.5,7.2z"/>
	</g>
</g>
<g>
	<g>
		<path class="st3" d="M0.6,28.4v6.3c0,0.1,0,0.2,0.1,0.3s0.2,0.1,0.3,0.1h6.2c0.3,0,0.4-0.2,0.4-0.4c0-0.3-0.2-0.4-0.4-0.4H1.4
			v-5.9C1.4,28.2,1.2,28,1,28l0,0C0.8,28,0.6,28.2,0.6,28.4z"/>
	</g>
</g>
<g>
	<g>
		<path class="st3" d="M35,28L35,28c-0.3,0-0.4,0.2-0.4,0.4v5.9h-5.8c-0.2,0-0.4,0.1-0.4,0.4c0,0.2,0.1,0.4,0.4,0.4H35
			c0.1,0,0.2,0,0.3-0.1s0.1-0.2,0.1-0.3v-6.3C35.5,28.2,35.2,28,35,28z"/>
	</g>
</g>
<g>
	<g>
		<path class="st3" d="M7.6,7.9c0.1,0,0.2,0,0.3-0.1C8,7.6,8,7.4,7.9,7.2L1.4,0.6C1.2,0.4,1,0.4,0.8,0.6C0.6,0.7,0.6,1,0.8,1.1
			l6.5,6.6C7.4,7.8,7.5,7.9,7.6,7.9z"/>
	</g>
</g>
<path class="st3" d="M28.3,27.5c-0.1,0-0.2,0-0.3,0.1c-0.2,0.2-0.2,0.4,0,0.6l6.6,6.6c0.2,0.2,0.4,0.2,0.6,0c0.2-0.2,0.2-0.4,0-0.6
	l-6.6-6.6C28.5,27.6,28.4,27.5,28.3,27.5z"/>
<g>
	<g>
		<path class="st3" d="M1,35c-0.1,0-0.2,0-0.3-0.1c-0.2-0.2-0.2-0.4,0-0.6L7,27.9c0.2-0.2,0.4-0.2,0.6,0s0.2,0.4,0,0.6l-6.3,6.4
			C1.2,34.9,1.1,35,1,35z"/>
	</g>
</g>
<g>
	<path class="st3" d="M19.1,20.1l-6.7-6.7l-4.2,4.2v8.9h18.9v-5.9l-4.2-4.2L19.1,20.1z M26.2,25.5H9.1v-7.6l3.3-3.3l6.7,6.7l3.8-3.8
		l3.3,3.3C26.2,20.8,26.2,25.5,26.2,25.5z"/>
	<path class="st3" d="M24.4,7.6c-1.5,0-2.7,1.2-2.7,2.7s1.2,2.7,2.7,2.7s2.7-1.2,2.7-2.7S25.9,7.6,24.4,7.6z M24.4,12.1
		c-1,0-1.8-0.8-1.8-1.8s0.8-1.8,1.8-1.8s1.8,0.8,1.8,1.8S25.4,12.1,24.4,12.1z"/>
</g>
</svg>
