<?xml version="1.0" encoding="utf-8"?>
<!-- Generator: Adobe Illustrator 19.1.0, SVG Export Plug-In . SVG Version: 6.00 Build 0)  -->
<svg version="1.1" id="Layer_1" xmlns="http://www.w3.org/2000/svg" xmlns:xlink="http://www.w3.org/1999/xlink" x="0px" y="0px"
	 viewBox="0 0 36 36" style="enable-background:new 0 0 36 36;" xml:space="preserve">
<style type="text/css">
	.st0{fill:#FFFFFF;}
</style>
<g>
	<g>
		<path class="st0" d="M28.3,7.9c-0.1,0-0.2,0-0.3-0.1c-0.2-0.2-0.2-0.4,0-0.6l6.7-6.6c0.2-0.2,0.4-0.2,0.6,0c0.2,0.2,0.2,0.4,0,0.6
			l-6.7,6.6C28.5,7.9,28.4,7.9,28.3,7.9z"/>
	</g>
</g>
<g>
	<g>
		<path class="st0" d="M1,7.5L1,7.5c0.3,0,0.4-0.2,0.4-0.4V1.2h5.8c0.2,0,0.4-0.1,0.4-0.4c0-0.2-0.1-0.4-0.4-0.4H1
			c-0.1,0-0.2,0-0.3,0.1S0.6,0.8,0.6,0.9v6.3C0.6,7.3,0.8,7.5,1,7.5z"/>
	</g>
</g>
<g>
	<g>
		<path class="st0" d="M35.5,7.2V0.9c0-0.1,0-0.2-0.1-0.3s-0.2-0.1-0.3-0.1h-6.2c-0.3,0-0.4,0.2-0.4,0.4c0,0.3,0.2,0.4,0.4,0.4h5.8
			v5.9c0,0.2,0.1,0.4,0.4,0.4l0,0C35.2,7.6,35.5,7.4,35.5,7.2z"/>
	</g>
</g>
<g>
	<g>
		<path class="st0" d="M0.6,28.4v6.3c0,0.1,0,0.2,0.1,0.3s0.2,0.1,0.3,0.1h6.2c0.3,0,0.4-0.2,0.4-0.4c0-0.3-0.2-0.4-0.4-0.4H1.4
			v-5.9C1.4,28.2,1.2,28,1,28l0,0C0.8,28,0.6,28.2,0.6,28.4z"/>
	</g>
</g>
<g>
	<g>
		<path class="st0" d="M35,28L35,28c-0.3,0-0.4,0.2-0.4,0.4v5.9h-5.8c-0.2,0-0.4,0.1-0.4,0.4c0,0.2,0.1,0.4,0.4,0.4H35
			c0.1,0,0.2,0,0.3-0.1s0.1-0.2,0.1-0.3v-6.3C35.5,28.2,35.2,28,35,28z"/>
	</g>
</g>
<g>
	<g>
		<path class="st0" d="M7.6,7.9c0.1,0,0.2,0,0.3-0.1C8,7.6,8,7.4,7.9,7.2L1.4,0.6C1.2,0.4,1,0.4,0.8,0.6C0.6,0.7,0.6,1,0.8,1.1
			l6.5,6.6C7.4,7.8,7.5,7.9,7.6,7.9z"/>
	</g>
</g>
<path class="st0" d="M28.3,27.5c-0.1,0-0.2,0-0.3,0.1c-0.2,0.2-0.2,0.4,0,0.6l6.6,6.6c0.2,0.2,0.4,0.2,0.6,0c0.2-0.2,0.2-0.4,0-0.6
	l-6.6-6.6C28.5,27.6,28.4,27.5,28.3,27.5z"/>
<g>
	<g>
		<path class="st0" d="M1,35c-0.1,0-0.2,0-0.3-0.1c-0.2-0.2-0.2-0.4,0-0.6L7,27.9c0.2-0.2,0.4-0.2,0.6,0s0.2,0.4,0,0.6l-6.3,6.4
			C1.2,34.9,1.1,35,1,35z"/>
	</g>
</g>
<g>
	<g>
		<g>
			<path class="st0" d="M17.7,33.3c-0.1,0-0.3,0-0.3-0.1C17,32.8,8,23.8,8,16.3c0-5.4,4.4-9.7,9.7-9.7c5.4,0,9.7,4.4,9.7,9.7
				c0,7.7-9,16.5-9.4,16.9C18,33.3,17.9,33.3,17.7,33.3z M17.7,7.6c-4.8,0-8.7,3.9-8.7,8.7c0,6.3,7.1,14.1,8.7,15.8
				c1.7-1.7,8.7-9.4,8.7-15.8C26.5,11.5,22.6,7.6,17.7,7.6z"/>
		</g>
	</g>
	<g>
		<g>
			<path class="st0" d="M17.7,20.9c-2.7,0-4.8-2.2-4.8-4.8c0-2.7,2.2-4.8,4.8-4.8c2.7,0,4.8,2.2,4.8,4.8
				C22.6,18.7,20.4,20.9,17.7,20.9z M17.7,12.2c-2.1,0-3.8,1.7-3.8,3.8s1.7,3.8,3.8,3.8s3.8-1.7,3.8-3.8S19.9,12.2,17.7,12.2z"/>
		</g>
	</g>
</g>
</svg>
