<?xml version="1.0" encoding="utf-8"?>
<!-- Generator: Adobe Illustrator 16.0.3, SVG Export Plug-In . SVG Version: 6.00 Build 0)  -->
<!DOCTYPE svg PUBLIC "-//W3C//DTD SVG 1.1//EN" "http://www.w3.org/Graphics/SVG/1.1/DTD/svg11.dtd">
<svg version="1.1" id="Layer_1" xmlns="http://www.w3.org/2000/svg" xmlns:xlink="http://www.w3.org/1999/xlink" x="0px" y="0px"
	 width="44px" height="44px" viewBox="0 0 44 44" style="enable-background:new 0 0 44 44;" xml:space="preserve">
<g>
	<path style="fill:#FFFFFF;" d="M37.6,6.4C33.4,2.3,27.9,0,22,0C16.1,0,10.6,2.3,6.4,6.4C2.3,10.6,0,16.1,0,22s2.3,11.4,6.4,15.6
		C10.6,41.7,16.1,44,22,44c5.9,0,11.4-2.3,15.6-6.4C41.7,33.4,44,27.9,44,22S41.7,10.6,37.6,6.4L37.6,6.4z M22,41.3
		C11.4,41.3,2.7,32.6,2.7,22C2.7,11.4,11.4,2.7,22,2.7c10.6,0,19.3,8.7,19.3,19.3C41.3,32.6,32.6,41.3,22,41.3L22,41.3z M22,41.3"/>
	<path style="fill:#FFFFFF;" d="M17.5,12.3l9.7,9.7l-9.7,9.7l1.9,1.9L31,22L19.5,10.4L17.5,12.3z M17.5,12.3"/>
</g>
</svg>
