<?xml version="1.0" encoding="utf-8"?>
<!-- Generator: Adobe Illustrator 16.0.3, SVG Export Plug-In . SVG Version: 6.00 Build 0)  -->
<!DOCTYPE svg PUBLIC "-//W3C//DTD SVG 1.1//EN" "http://www.w3.org/Graphics/SVG/1.1/DTD/svg11.dtd">
<svg version="1.1" id="Layer_1" xmlns="http://www.w3.org/2000/svg" xmlns:xlink="http://www.w3.org/1999/xlink" x="0px" y="0px"
	 width="44px" height="44px" viewBox="0 0 44 44" style="enable-background:new 0 0 44 44;" xml:space="preserve">
<g>
	<path style="fill:#FFFFFF;" d="M6.4,37.6C10.6,41.7,16.1,44,22,44c5.9,0,11.4-2.3,15.6-6.4C41.7,33.4,44,27.9,44,22
		s-2.3-11.4-6.4-15.6C33.4,2.3,27.9,0,22,0C16.1,0,10.6,2.3,6.4,6.4C2.3,10.6,0,16.1,0,22S2.3,33.4,6.4,37.6L6.4,37.6z M22,2.7
		c10.6,0,19.3,8.7,19.3,19.3c0,10.6-8.7,19.3-19.3,19.3C11.4,41.3,2.7,32.6,2.7,22C2.7,11.4,11.4,2.7,22,2.7L22,2.7z M22,2.7"/>
	<path style="fill:#FFFFFF;" d="M26.5,31.7L16.8,22l9.7-9.7l-1.9-1.9L13,22l11.6,11.6L26.5,31.7z M26.5,31.7"/>
</g>
</svg>
