<?xml version="1.0" encoding="utf-8"?>
<!-- Generator: Adobe Illustrator 16.0.3, SVG Export Plug-In . SVG Version: 6.00 Build 0)  -->
<!DOCTYPE svg PUBLIC "-//W3C//DTD SVG 1.1//EN" "http://www.w3.org/Graphics/SVG/1.1/DTD/svg11.dtd">
<svg version="1.1" id="Layer_1" xmlns="http://www.w3.org/2000/svg" xmlns:xlink="http://www.w3.org/1999/xlink" x="0px" y="0px"
	 width="38.6px" height="48.1px" viewBox="0 0 38.6 48.1" style="enable-background:new 0 0 38.6 48.1;" xml:space="preserve">
<g>
	<circle style="fill:#FFFFFF;" cx="19.4" cy="18.6" r="15.2"/>
	<path style="fill:#BB2025;" d="M19.4,48.1c-1.2-2.9-3.3-5.1-5.3-7.3c-2.7-3-5.5-6-8.2-9c-2.2-2.5-4-5.3-5-8.5
		c-1.9-6-0.6-11.5,3.4-16.3c7.6-9,21.4-9.4,29.4-0.8c5,5.4,6.8,13,2.4,20.8c-2.2,3.8-5,7-7.9,10.2c-2.3,2.6-4.6,5.2-6.9,7.9
		C20.5,46,20,47,19.4,48.1z M32.9,18.6c0-7.6-6.1-13.6-13.7-13.6C11.8,4.9,5.7,11,5.7,18.5c0,7.5,6,13.6,13.6,13.7
		C26.7,32.3,32.9,26.1,32.9,18.6z"/>
</g>
</svg>
