<svg xmlns="http://www.w3.org/2000/svg" xmlns:xlink="http://www.w3.org/1999/xlink" preserveAspectRatio="xMidYMid" width="17" height="17" viewBox="0 0 17 17">
  <defs>
    <style>

      .cls-2 {
        fill: #ffffff;
        opacity: 0.8;
      }
    </style>
  </defs>
  <path d="M16.617,8.107 C16.617,8.107 8.905,8.107 8.905,8.107 C8.905,8.107 8.905,8.107 8.905,8.107 C8.905,8.107 8.905,8.107 8.905,8.107 C8.905,8.107 8.905,0.395 8.905,0.395 C8.905,0.174 8.726,-0.004 8.506,-0.004 C8.285,-0.004 8.107,0.174 8.107,0.395 C8.107,0.395 8.107,8.107 8.107,8.107 C8.107,8.107 8.107,8.107 8.107,8.107 C8.107,8.107 8.106,8.107 8.106,8.107 C8.106,8.107 0.395,8.107 0.395,8.107 C0.174,8.107 -0.005,8.286 -0.005,8.506 C-0.005,8.727 0.174,8.905 0.395,8.905 C0.395,8.905 8.106,8.905 8.106,8.905 C8.106,8.905 8.107,8.905 8.107,8.905 C8.107,8.905 8.107,8.906 8.107,8.906 C8.107,8.906 8.107,16.617 8.107,16.617 C8.107,16.728 8.151,16.828 8.224,16.900 C8.296,16.972 8.396,17.017 8.506,17.017 C8.726,17.017 8.905,16.838 8.905,16.617 C8.905,16.617 8.905,8.906 8.905,8.906 C8.905,8.906 8.905,8.905 8.905,8.905 C8.905,8.905 8.905,8.905 8.905,8.905 C8.905,8.905 16.617,8.905 16.617,8.905 C16.727,8.905 16.827,8.861 16.899,8.788 C16.972,8.716 17.016,8.616 17.016,8.506 C17.016,8.286 16.838,8.107 16.617,8.107 Z" id="path-1" class="cls-2" fill-rule="evenodd"/>
</svg>
