<svg xmlns="http://www.w3.org/2000/svg" xmlns:xlink="http://www.w3.org/1999/xlink" preserveAspectRatio="xMidYMid" width="17" height="1" viewBox="0 0 17 1">
  <defs>
    <style>

      .cls-2 {
        fill: #ffffff;
        opacity: 0.8;
      }
    </style>
  </defs>
  <path d="M16.617,0.013 C16.617,0.013 8.905,0.013 8.905,0.013 C8.905,0.013 8.905,0.013 8.905,0.013 C8.905,0.013 8.905,0.013 8.905,0.013 C8.905,0.013 8.107,0.013 8.107,0.013 C8.107,0.013 8.107,0.013 8.107,0.013 C8.107,0.013 8.106,0.013 8.106,0.013 C8.106,0.013 0.395,0.013 0.395,0.013 C0.174,0.013 -0.005,0.192 -0.005,0.413 C-0.005,0.633 0.174,0.812 0.395,0.812 C0.395,0.812 8.106,0.812 8.106,0.812 C8.106,0.812 8.107,0.812 8.107,0.812 C8.107,0.812 8.107,0.812 8.107,0.812 C8.107,0.812 8.905,0.812 8.905,0.812 C8.905,0.812 8.905,0.812 8.905,0.812 C8.905,0.812 8.905,0.812 8.905,0.812 C8.905,0.812 16.617,0.812 16.617,0.812 C16.727,0.812 16.827,0.767 16.899,0.695 C16.972,0.622 17.016,0.523 17.016,0.412 C17.016,0.192 16.838,0.013 16.617,0.013 Z" id="path-1" class="cls-2" fill-rule="evenodd"/>
</svg>
