<?xml version="1.0" standalone="no"?>
<!DOCTYPE svg PUBLIC "-//W3C//DTD SVG 1.1//EN" "http://www.w3.org/Graphics/SVG/1.1/DTD/svg11.dtd" >
<svg>
<metadata>
Created by FontForge 20090622 at Tue Apr  5 15:06:06 2016
 By deploy user
Copyright (C)2015 Commercial Type.
</metadata>
<defs>
<font id="AustinNewsText-Roman" horiz-adv-x="460" >
  <font-face 
    font-family="Austin News Text Roman"
    font-weight="400"
    font-stretch="normal"
    units-per-em="1000"
    panose-1="0 0 0 0 0 0 0 0 0 0"
    ascent="807"
    descent="-193"
    x-height="505"
    cap-height="698"
    bbox="-135 -276 1238 1067"
    underline-thickness="46"
    underline-position="-75"
    unicode-range="U+0020-U+FB04"
  />
<missing-glyph horiz-adv-x="500" 
 />
    <glyph glyph-name="f_b" unicode="fb" horiz-adv-x="930" 
d="M653 -9q-43 0 -82.5 21.5t-59.5 55.5h-16l-49 -69h-28q3 53 3 103v504q-6 4 -10 10q-11 17 -16 46q-3 24 -10 36q-14 22 -69 22q-56 0 -82 -32q-26 -31 -26 -83v-100h162v-42h-162v-325q0 -39 4 -53q8 -31 32 -43q16 -6 42 -8v-34h-256v34q21 2 38 8q28 14 35 43
q3 14 3 53v325h-78v42h78v56q0 41 11 72t23 45.5t32 31.5q28 23 69 36t77 13q30 0 51 -3h149q7 0 7 -7q0 -13 -1.5 -56t-1.5 -78v-175h9q53 78 152 78q40 0 76.5 -14t67.5 -44t49.5 -83t18.5 -123q0 -66 -21.5 -118t-57.5 -83t-77.5 -46.5t-85.5 -15.5zM663 471
q-59 0 -95 -33q-46 -42 -46 -111v-132q0 -87 31 -122q36 -42 96 -42q67 0 103 59t36 164q0 217 -125 217z" />
    <glyph glyph-name="f_f_b" unicode="ffb" horiz-adv-x="1250" 
d="M1215 254q0 -66 -21.5 -118t-57.5 -83t-77.5 -46.5t-85.5 -15.5q-43 0 -82.5 21.5t-59.5 55.5h-16l-49 -69h-28q3 53 3 103v503q-6 5 -11 11q-11 17 -16 46q-3 24 -10 36q-14 22 -69 22q-56 0 -82 -32q-26 -31 -26 -83v-100h162v-42h-162v-325q0 -39 4 -53q8 -31 32 -43
q16 -6 42 -8v-34h-256v34q21 2 38 8q28 14 35 43q3 14 3 53v325h-217v-325q0 -39 4 -53q8 -31 32 -43q16 -6 42 -8v-34h-256v34q21 2 38 8q28 14 35 43q3 14 3 53v325h-78v42h78v56q0 109 59 159q46 39 107 39t94 -20q46 -27 46 -77q0 -23 -12.5 -37t-34.5 -14q-27 0 -42 21
q-10 14 -17 42q-5 20 -10 30q-10 16 -33 16q-29 0 -41 -22q-14 -27 -14 -93v-100h217v56q0 41 11 72t23 45.5t32 31.5q28 23 69 36t77 13q30 0 51 -3h150q7 0 7 -7q0 -13 -1.5 -56t-1.5 -78v-175h9q53 78 152 78q40 0 76.5 -14t67.5 -44t49.5 -83t18.5 -123zM983 471
q-59 0 -95 -33q-46 -42 -46 -111v-132q0 -87 31 -122q36 -42 96 -42q67 0 103 59t36 164q0 217 -125 217z" />
    <glyph glyph-name="f_f_h" unicode="ffh" horiz-adv-x="1260" 
d="M286 0h-256v34q21 2 38 8q28 14 35 43q3 14 3 53v325h-78v42h78v56q0 109 59 159q46 39 107 39t94 -20q46 -27 46 -77q0 -23 -12.5 -37t-34.5 -14q-27 0 -42 21q-10 14 -17 42q-5 20 -10 30q-10 16 -33 16q-29 0 -41 -22q-14 -27 -14 -93v-100h217v56q0 41 11 72t23 45.5
t32 31.5q28 23 69 36t77 13q30 0 51 -3h147q7 0 7 -8v-321h11q34 42 58 57q47 32 110 32q58 0 93 -25q49 -35 49 -107v-246q0 -39 3 -53q7 -30 35 -43q17 -6 37 -8v-34h-249v34q18 1 38 8q24 12 32 43q3 14 3 53v236q0 45 -21 66q-18 17 -59 17q-75 0 -111 -51
q-29 -38 -29 -102v-166q0 -39 4 -53q8 -31 32 -43q18 -7 36 -8v-34h-249v34q21 2 38 8q28 14 35 43q3 14 3 53v467q-6 5 -11 11q-11 17 -16 46q-3 24 -10 36q-14 22 -69 22q-56 0 -82 -32q-26 -31 -26 -83v-100h162v-42h-162v-325q0 -39 4 -53q8 -31 32 -43q16 -6 42 -8v-34
h-256v34q21 2 38 8q28 14 35 43q3 14 3 53v325h-217v-325q0 -39 4 -53q8 -31 32 -43q16 -6 42 -8v-34z" />
    <glyph glyph-name="f_f_j" unicode="ffj" horiz-adv-x="914" 
d="M672 -205q-59 0 -89 21q-43 28 -43 77q0 26 15.5 41t37.5 15q24 0 37.5 -13.5t13.5 -36.5q0 -7 -2 -23q-2 -14 -2 -18q0 -30 37 -30q33 0 48 22q19 27 19 104v408q0 36 -5 54q-5 21 -21 33q-19 14 -56 14h-135v-325q0 -39 4 -53q8 -31 32 -43q16 -6 42 -8v-34h-256v34
q21 2 38 8q28 14 35 43q3 14 3 53v325h-217v-325q0 -39 4 -53q8 -31 32 -43q16 -6 42 -8v-34h-256v34q21 2 38 8q28 14 35 43q3 14 3 53v325h-78v42h78v56q0 109 59 159q46 39 107 39t94 -20q46 -27 46 -77q0 -23 -12.5 -37t-34.5 -14q-27 0 -42 21q-10 14 -17 42
q-5 20 -10 30q-10 16 -33 16q-29 0 -41 -22q-14 -27 -14 -93v-100h217v56q0 93 66 149q58 49 136 49q71 0 115 -22q29 -15 42 -33.5t13 -47.5q0 -24 -13 -39t-37 -15q-34 0 -49 21q-10 18 -15 44q-5 34 -7 37q-9 16 -51 16q-46 0 -74 -28q-24 -24 -24 -85v-102h315q7 0 7 -8
q-3 -84 -3 -113v-349q0 -148 -79 -209q-40 -31 -95 -31z" />
    <glyph glyph-name="f_f_k" unicode="ffk" horiz-adv-x="1223" 
d="M286 0h-256v34q21 2 38 8q28 14 35 43q3 14 3 53v325h-78v42h78v56q0 109 59 159q46 39 107 39t94 -20q46 -27 46 -77q0 -23 -12.5 -37t-34.5 -14q-27 0 -42 21q-10 14 -17 42q-5 20 -10 30q-10 16 -33 16q-29 0 -41 -22q-14 -27 -14 -93v-100h217v56q0 41 11 72t23 45.5
t32 31.5q28 23 69 36t77 13q30 0 51 -3h150q7 0 7 -8q0 -10 -1 -54t-1 -69v-353l98 79q24 19 34 28.5t19.5 23t9.5 26.5q0 22 -24 33q-12 5 -44 9v34h261v-34q-37 -12 -66 -29q-25 -14 -108 -75l-86 -64q58 -4 104 -33t57 -73q18 -81 45 -125q19 -32 75 -38v-34h-165
q-9 12 -45 148q-8 26 -14.5 43.5t-18.5 36.5t-29.5 31t-41.5 17l-61 -50v-88q0 -39 4 -53q8 -31 32 -43q18 -7 35 -8v-34h-243v34q15 1 33 8q28 14 35 43q3 14 3 53v466q-8 4 -12 12q-11 17 -16 46q-3 24 -10 36q-14 22 -69 22q-56 0 -82 -32q-26 -31 -26 -83v-100h162v-42
h-162v-325q0 -39 4 -53q8 -31 32 -43q16 -6 42 -8v-34h-256v34q21 2 38 8q28 14 35 43q3 14 3 53v325h-217v-325q0 -39 4 -53q8 -31 32 -43q16 -6 42 -8v-34z" />
    <glyph glyph-name="f_h" unicode="fh" horiz-adv-x="940" 
d="M286 34v-34h-256v34q21 2 38 8q28 14 35 43q3 14 3 53v325h-78v42h78v56q0 41 11 72t23 45.5t32 31.5q28 23 69 36t77 13q30 0 51 -3h147q7 0 7 -8v-321h11q34 42 58 57q47 32 110 32q58 0 93 -25q49 -35 49 -107v-246q0 -39 3 -53q7 -30 35 -43q17 -6 37 -8v-34h-249v34
q18 1 38 8q24 12 32 43q3 14 3 53v236q0 45 -21 66q-18 17 -59 17q-75 0 -111 -51q-29 -38 -29 -102v-166q0 -39 4 -53q8 -31 32 -43q18 -7 36 -8v-34h-249v34q21 2 38 8q28 14 35 43q3 14 3 53v467q-6 5 -11 11q-11 17 -16 46q-3 24 -10 36q-14 22 -69 22q-56 0 -82 -32
q-26 -31 -26 -83v-100h162v-42h-162v-325q0 -39 4 -53q8 -31 32 -43q16 -6 42 -8z" />
    <glyph glyph-name="f_j" unicode="fj" horiz-adv-x="595" 
d="M425 -46v408q0 36 -5 54q-5 21 -21 33q-19 14 -56 14h-135v-325q0 -39 4 -53q8 -31 32 -43q16 -6 42 -8v-34h-256v34q21 2 38 8q28 14 35 43q3 14 3 53v325h-78v42h78v56q0 93 66 149q58 49 136 49q71 0 115 -22q29 -15 42 -33.5t13 -47.5q0 -24 -13 -39t-37 -15
q-34 0 -49 21q-10 18 -15 44q-5 34 -7 37q-9 16 -51 16q-46 0 -74 -28q-24 -24 -24 -85v-102h315q7 0 7 -8q-3 -84 -3 -113v-349q0 -148 -79 -209q-40 -31 -95 -31q-59 0 -89 21q-43 28 -43 77q0 26 15.5 41t37.5 15q24 0 37.5 -13.5t13.5 -36.5q0 -7 -2 -23q-2 -14 -2 -18
q0 -30 37 -30q33 0 48 22q19 27 19 104z" />
    <glyph glyph-name="f_k" unicode="fk" horiz-adv-x="903" 
d="M286 34v-34h-256v34q21 2 38 8q28 14 35 43q3 14 3 53v325h-78v42h78v56q0 41 11 72t23 45.5t32 31.5q28 23 69 36t77 13q30 0 51 -3h149q7 0 7 -8q0 -10 -1 -54t-1 -69v-353l98 79q24 19 34 28.5t19.5 23t9.5 26.5q0 22 -24 33q-12 5 -44 9v34h261v-34q-37 -12 -66 -29
q-25 -14 -108 -75l-86 -64q58 -4 104 -33t57 -73q18 -81 45 -125q19 -32 75 -38v-34h-165q-9 12 -45 148q-8 26 -14.5 43.5t-18.5 36.5t-29.5 31t-41.5 17l-61 -50v-88q0 -39 4 -53q8 -31 32 -43q18 -7 35 -8v-34h-243v34q15 1 33 8q28 14 35 43q3 14 3 53v467q-6 5 -11 11
q-11 17 -16 46q-3 24 -10 36q-14 22 -69 22q-56 0 -82 -32q-26 -31 -26 -83v-100h162v-42h-162v-325q0 -39 4 -53q8 -31 32 -43q16 -6 42 -8z" />
    <glyph glyph-name="f_f" unicode="ff" horiz-adv-x="683" 
d="M286 0h-256v34q21 2 38 8q28 14 35 43q3 14 3 53v325h-78v42h78v56q0 109 59 159q46 39 107 39t94 -20q46 -27 46 -77q0 -23 -12.5 -37t-34.5 -14q-27 0 -42 21q-10 14 -17 42q-5 20 -10 30q-10 16 -33 16q-29 0 -41 -22q-14 -27 -14 -93v-100h215v56q0 108 61 159
q46 39 112 39q58 0 91 -20q46 -27 46 -77q0 -23 -12.5 -37t-34.5 -14q-27 0 -42 21q-10 14 -17 42q-5 20 -10 30q-10 16 -33 16q-34 0 -47 -25q-12 -22 -12 -90v-100h129v-42h-129v-325q0 -39 4 -53q8 -31 32 -43q16 -6 42 -8v-34h-256v34q21 2 38 8q28 14 35 43q3 14 3 53
v325h-215v-325q0 -39 4 -53q8 -31 32 -43q16 -6 42 -8v-34z" />
    <glyph glyph-name="f_i" unicode="fi" horiz-adv-x="621" 
d="M286 0h-256v34q21 2 38 8q28 14 35 43q3 14 3 53v325h-78v42h78v56q0 93 66 149q58 49 136 49q71 0 115 -22q29 -15 42 -33.5t13 -47.5q0 -24 -13 -39t-37 -15q-34 0 -49 21q-10 18 -15 44q-5 34 -7 37q-9 16 -51 16q-46 0 -74 -28q-24 -24 -24 -85v-102h312q7 0 7 -8
q-3 -84 -3 -113v-246q0 -39 4 -53q7 -30 35 -43q18 -7 36 -8v-34h-251v34q18 1 36 8q28 14 35 43q3 14 3 53v224q0 36 -5 54q-5 21 -21 33q-19 14 -56 14h-132v-325q0 -39 4 -53q8 -31 32 -43q16 -6 42 -8v-34z" />
    <glyph glyph-name="f_l" unicode="fl" horiz-adv-x="623" 
d="M286 34v-34h-256v34q21 2 38 8q28 14 35 43q3 14 3 53v325h-78v42h78v56q0 41 11 72t23 45.5t32 31.5q28 23 69 36t77 13q30 0 51 -3h149q7 0 7 -8q0 -10 -1 -54t-1 -69v-487q0 -39 4 -53q8 -31 32 -43q18 -7 35 -8v-34h-243v34q15 1 33 8q28 14 35 43q3 14 3 53v467
q-6 5 -11 11q-11 17 -16 46q-3 24 -10 36q-14 22 -69 22q-56 0 -82 -32q-26 -31 -26 -83v-100h162v-42h-162v-325q0 -39 4 -53q8 -31 32 -43q16 -6 42 -8z" />
    <glyph glyph-name="f_f_i" unicode="ffi" horiz-adv-x="939" 
d="M286 0h-256v34q21 2 38 8q28 14 35 43q3 14 3 53v325h-78v42h78v56q0 109 59 159q46 39 107 39t94 -20q46 -27 46 -77q0 -23 -12.5 -37t-34.5 -14q-27 0 -42 21q-10 14 -17 42q-5 20 -10 30q-10 16 -33 16q-29 0 -41 -22q-14 -27 -14 -93v-100h216v56q0 93 66 149
q58 49 136 49q71 0 115 -22q29 -15 42 -33.5t13 -47.5q0 -24 -13 -39t-37 -15q-34 0 -49 21q-10 18 -15 44q-5 34 -7 37q-9 16 -51 16q-46 0 -74 -28q-24 -24 -24 -85v-102h312q7 0 7 -8q-3 -84 -3 -113v-246q0 -39 4 -53q7 -30 35 -43q18 -7 36 -8v-34h-251v34q18 1 36 8
q28 14 35 43q3 14 3 53v224q0 36 -5 54q-5 21 -21 33q-19 14 -56 14h-132v-325q0 -39 4 -53q8 -31 32 -43q16 -6 42 -8v-34h-256v34q21 2 38 8q28 14 35 43q3 14 3 53v325h-216v-325q0 -39 4 -53q8 -31 32 -43q16 -6 42 -8v-34z" />
    <glyph glyph-name="f_f_l" unicode="ffl" horiz-adv-x="939" 
d="M286 0h-256v34q21 2 38 8q28 14 35 43q3 14 3 53v325h-78v42h78v56q0 109 59 159q46 39 107 39t94 -20q46 -27 46 -77q0 -23 -12.5 -37t-34.5 -14q-27 0 -42 21q-10 14 -17 42q-5 20 -10 30q-10 16 -33 16q-29 0 -41 -22q-14 -27 -14 -93v-100h217v56q0 41 11 72t23 45.5
t32 31.5q28 23 69 36t77 13q30 0 51 -3h149q7 0 7 -8q0 -10 -1 -54t-1 -69v-487q0 -39 4 -53q8 -31 32 -43q18 -7 35 -8v-34h-243v34q15 1 33 8q28 14 35 43q3 14 3 53v467q-6 5 -11 11q-11 17 -16 46q-3 24 -10 36q-14 22 -69 22q-56 0 -82 -32q-26 -31 -26 -83v-100h162
v-42h-162v-325q0 -39 4 -53q8 -31 32 -43q16 -6 42 -8v-34h-256v34q21 2 38 8q28 14 35 43q3 14 3 53v325h-217v-325q0 -39 4 -53q8 -31 32 -43q16 -6 42 -8v-34z" />
    <glyph glyph-name=".notdef" horiz-adv-x="500" 
 />
    <glyph glyph-name=".null" horiz-adv-x="0" 
 />
    <glyph glyph-name="nonmarkingreturn" horiz-adv-x="333" 
 />
    <glyph glyph-name="space" unicode=" " horiz-adv-x="220" 
 />
    <glyph glyph-name="exclam" unicode="!" horiz-adv-x="266" 
d="M134 711q24 0 41 -17.5t17 -54.5q0 -46 -13 -181l-26 -272h-40q-1 13 -25 272q-13 135 -13 181q0 36 17 54t42 18zM201 56q0 -30 -19 -49.5t-48 -19.5q-31 0 -50 19.5t-19 49.5q0 28 19 47.5t50 19.5q28 0 47.5 -20t19.5 -47z" />
    <glyph glyph-name="quotedbl" unicode="&#x22;" horiz-adv-x="356" 
d="M210 668q0 26 13.5 39t34.5 13t34.5 -13t13.5 -39q0 -22 -11 -86l-10 -68t-9 -60h-36q-2 12 -9 60l-10 68q-11 64 -11 86zM98 720q21 0 34.5 -13t13.5 -39q0 -22 -11 -86l-10 -68t-9 -60h-36q-2 12 -9 60l-10 68q-11 64 -11 86q0 26 13.5 39t34.5 13z" />
    <glyph glyph-name="numbersign" unicode="#" horiz-adv-x="618" 
d="M380 261l28 161h-164l-28 -161h164zM335 0l38 222h-164l-38 -222h-44l38 222h-140v39h147l28 161h-139v39h146l37 216h44l-37 -216h164l37 216h44l-37 -216h135v-39h-142l-28 -161h133v-39h-140l-38 -222h-44z" />
    <glyph glyph-name="dollar" unicode="$" horiz-adv-x="503" 
d="M133 549q0 -50 26.5 -80.5t79.5 -57.5v243q-49 -4 -77.5 -34t-28.5 -71zM396 137q0 57 -25 85t-90 59v-256q56 7 85.5 37t29.5 75zM281 -109h-42v96q-86 3 -145 46.5t-59 93.5q0 27 15 44t36 17q56 0 56 -60q0 -7 -4.5 -23t-4.5 -21q0 -25 30.5 -42t75.5 -19v277
q-31 14 -51 24t-48.5 29.5t-44.5 40t-28.5 52t-12.5 67.5q0 73 53.5 122.5t131.5 54.5v96h42v-96q86 -6 132 -44.5t46 -84.5q0 -26 -15 -40.5t-33 -14.5q-55 0 -55 62q0 2 1.5 11t1.5 12q0 26 -22.5 42t-55.5 20v-264q100 -50 131 -76q61 -50 61 -129q0 -75 -51.5 -130.5
t-140.5 -64.5v-98z" />
    <glyph glyph-name="percent" unicode="%" horiz-adv-x="771" 
d="M605 675l-406 -691l-33 20l407 691zM351 510q0 -77 -43.5 -129t-109.5 -52q-64 0 -107 52t-43 129t43 129t107 52q66 0 109.5 -52t43.5 -129zM198 658q-74 0 -74 -148q0 -149 74 -149q76 0 76 149q0 76 -18 112t-58 36zM420 169q0 77 43.5 129t109.5 52q64 0 107 -52
t43 -129t-43 -129t-107 -52q-66 0 -109.5 52t-43.5 129zM573 21q74 0 74 148q0 149 -74 149q-76 0 -76 -149q0 -76 18 -112t58 -36z" />
    <glyph glyph-name="ampersand" unicode="&#x26;" horiz-adv-x="710" 
d="M566 -13q-66 0 -95 53q-7 13 -20 30q-34 -38 -89.5 -60.5t-117.5 -22.5q-98 0 -156 52t-58 130q0 39 16 74t47.5 64t55 46t61.5 40l-32 46q-42 60 -42 118q0 68 42.5 111t113.5 43t110.5 -32t39.5 -89q0 -79 -124 -170l62 -81l109 -146q23 37 36 85q11 44 11 78
q0 36 -27 53q-15 8 -40 10v34h216v-34q-24 -3 -40 -11q-18 -11 -37 -38q-16 -26 -37 -96q-20 -66 -53 -119l33 -48q33 -50 72 -50q41 0 68 27l19 -26q-12 -25 -54 -48t-90 -23zM295 51q77 0 130 55q-76 109 -122 165q-19 23 -68 88q-32 -24 -42.5 -33t-26.5 -28.5
t-20.5 -42.5t-4.5 -57q0 -76 44.5 -111.5t109.5 -35.5zM215 598q0 -39 48 -105q1 -2 30 -40q36 27 54 56t18 79q0 82 -72 82q-35 0 -56.5 -18.5t-21.5 -53.5z" />
    <glyph glyph-name="quotesingle" unicode="'" horiz-adv-x="196" 
d="M98 720q21 0 34.5 -13t13.5 -39q0 -22 -11 -86l-10 -68t-9 -60h-36q-2 12 -9 60l-10 68q-11 64 -11 86q0 26 13.5 39t34.5 13z" />
    <glyph glyph-name="parenleft" unicode="(" horiz-adv-x="284" 
d="M272 -92l-37 -29q-84 108 -129.5 206.5t-45.5 228.5t45.5 228.5t129.5 206.5l37 -29q-64 -91 -97.5 -186t-33.5 -220t33.5 -220t97.5 -186z" />
    <glyph glyph-name="parenright" unicode=")" horiz-adv-x="284" 
d="M12 -92q64 91 97.5 186t33.5 220t-33.5 220t-97.5 186l37 29q84 -108 129.5 -206.5t45.5 -228.5t-45.5 -228.5t-129.5 -206.5z" />
    <glyph glyph-name="asterisk" unicode="*" horiz-adv-x="418" 
d="M335 347q-27 -17 -48 11q-8 10 -34 59.5t-44 76.5q-18 -28 -44 -76.5t-34 -59.5q-21 -28 -48 -11q-27 20 -6 51q5 7 43 45t59 65q-28 6 -76 14t-60 11q-16 6 -22.5 18t-2.5 25q5 14 17 20.5t29 0.5q11 -4 56 -26t72 -33q-2 28 -9 76t-7 61q0 18 9.5 27.5t23.5 9.5
t23.5 -9.5t9.5 -27.5q0 -13 -7 -61t-9 -76q27 11 72 33t56 26q17 6 29 -0.5t17 -20.5q4 -13 -2.5 -25t-22.5 -18q-12 -3 -60 -11t-76 -14q21 -27 59 -65t43 -45q21 -31 -6 -51z" />
    <glyph glyph-name="plus" unicode="+" horiz-adv-x="469" 
d="M429 283h-173v-173h-42v173h-174v42h174v174h42v-174h173v-42z" />
    <glyph glyph-name="comma" unicode="," horiz-adv-x="278" 
d="M218 40q0 -69 -45 -121.5t-115 -76.5l-13 30q103 44 103 93q0 20 -18 26q-56 20 -56 70q0 27 20.5 44.5t46.5 17.5q33 0 55 -21.5t22 -61.5z" />
    <glyph glyph-name="hyphen" unicode="-" horiz-adv-x="353" 
d="M293 273h-233v80h233v-80z" />
    <glyph glyph-name="period" unicode="." horiz-adv-x="256" 
d="M129 -13q-31 0 -50 19.5t-19 49.5q0 28 19 47.5t50 19.5q28 0 47.5 -20t19.5 -47q0 -30 -19 -49.5t-48 -19.5z" />
    <glyph glyph-name="slash" unicode="/" horiz-adv-x="420" 
d="M406 747l-367 -932l-53 21l367 932z" />
    <glyph glyph-name="zero" unicode="0" horiz-adv-x="656" 
d="M51 338q0 149 76.5 251t200.5 102t200.5 -102t76.5 -251q0 -148 -76.5 -249.5t-200.5 -101.5t-200.5 101.5t-76.5 249.5zM486 338q0 313 -158 313t-158 -313q0 -311 158 -311t158 311z" />
    <glyph glyph-name="one" unicode="1" horiz-adv-x="364" 
d="M331 0h-287v34q38 5 56 15q14 8 19.5 14t9.5 20q6 21 6 74v343q0 44 -3 70q-3 24 -25 35q-28 12 -77 21v34q83 4 146 16q49 9 58 9q8 0 8 -8q0 -6 -1 -55t-1 -64v-401q0 -53 6 -74q8 -22 29 -34q17 -9 56 -15v-34z" />
    <glyph glyph-name="two" unicode="2" horiz-adv-x="536" 
d="M228 651q-41 0 -66 -15t-25 -40q0 -8 15 -37q10 -17 10 -36q0 -23 -18 -38.5t-44 -15.5q-27 0 -45.5 19t-18.5 48q0 66 55.5 110.5t154.5 44.5q106 0 166.5 -51t60.5 -138q0 -29 -8 -58t-18.5 -52.5t-30 -50t-34.5 -44t-40 -40.5t-38 -34l-37 -30.5t-29 -24.5
q-21 -19 -92 -73v-5h161q71 0 114 43q32 32 47 70h40l-55 -203h-436l-7 17l78 69q7 7 41 37.5t47 43l43.5 44t44.5 50.5t36 52t32.5 60t18.5 62t8 70q0 80 -33 113t-98 33z" />
    <glyph glyph-name="three" unicode="3" horiz-adv-x="537" 
d="M257 691q94 0 147 -35t53 -103q0 -72 -84 -127q-22 -14 -91 -50v-3q106 15 164.5 -34.5t58.5 -124.5q0 -89 -72 -158t-209 -69q-88 0 -150.5 48t-62.5 101q0 28 14.5 43t37.5 15q26 0 39 -17t13 -44q0 -29 4 -45q4 -21 29 -41q31 -21 76 -21q87 0 127 48.5t40 146.5
q0 62 -28.5 91.5t-91.5 29.5q-32 0 -70 -20l-44 -26l-19 32l74 43q82 48 109.5 82.5t27.5 99.5q0 52 -21 75t-80 23q-43 0 -69 -11t-26 -29q0 -11 6 -29q7 -16 7 -33q0 -26 -14.5 -40t-37.5 -14q-24 0 -40 17.5t-16 45.5q0 52 52 92.5t147 40.5z" />
    <glyph glyph-name="four" unicode="4" horiz-adv-x="592" 
d="M67 260h228v280h-14zM492 35v-35h-287v35q35 5 55 15q21 12 28 34q7 24 7 74v64h-281v31l329 423h57q3 0 3 -4q0 -6 -1 -28t-1 -38v-346h24q56 0 75 25q17 23 24 73h37v-233h-37q-7 50 -24 73q-18 24 -75 24h-24v-64q0 -54 7 -74q7 -22 28 -34q20 -10 56 -15z" />
    <glyph glyph-name="five" unicode="5" horiz-adv-x="550" 
d="M224 25q80 0 123.5 47t43.5 142q0 90 -30 127t-101 37q-48 0 -85 -28t-53 -63l-44 10l83 380h37q76 -30 146 -30q57 0 90 28.5t44 62.5l28 -9q-21 -89 -67 -131t-134 -42q-50 0 -120 18l-44 -199l8 -2q46 46 136 46q106 0 162.5 -57t56.5 -147q0 -104 -76 -166t-206 -62
q-92 0 -151 46.5t-59 99.5q0 29 15.5 45t37.5 16q51 0 51 -61q0 -38 3 -51q5 -23 31 -38q33 -19 74 -19z" />
    <glyph glyph-name="six" unicode="6" horiz-adv-x="585" 
d="M554 562q0 -28 -15.5 -45.5t-39.5 -17.5t-39.5 14t-15.5 40q0 16 6 34q6 20 6 28q0 14 -24 24.5t-63 10.5q-86 0 -143 -87t-64 -223h10q19 42 60.5 64.5t96.5 22.5q96 0 153.5 -57.5t57.5 -157.5q0 -98 -70 -161.5t-170 -63.5q-117 0 -184 83.5t-67 212.5q0 95 29.5 175
t76.5 129.5t103 76.5t111 27q95 0 140 -37t45 -92zM297 380q-134 0 -134 -181q0 -102 36 -137t99 -35q66 0 99.5 39t33.5 143q0 102 -33.5 136.5t-100.5 34.5z" />
    <glyph glyph-name="seven" unicode="7" horiz-adv-x="494" 
d="M496 660l-103 -183t-64.5 -128.5t-52.5 -136t-25 -130.5q-7 -55 -19.5 -75t-40.5 -20q-26 0 -39 15.5t-13 39.5q0 13 2 27t6.5 30t8.5 28t13 31.5t13 29t16 31.5l15.5 28.5l16.5 30.5t15 27q28 50 84 142.5l80 134.5v4h-200q-44 0 -61.5 -3t-36.5 -14q-29 -17 -53 -77
h-32l42 222h27q12 -37 68 -37h333v-17z" />
    <glyph glyph-name="eight" unicode="8" horiz-adv-x="562" 
d="M285 -13q-101 0 -168.5 46t-67.5 123q0 60 40 103.5t102 66.5q-125 58 -125 181q0 84 61.5 134t156.5 50q101 0 157 -39.5t56 -118.5q0 -106 -125 -164q154 -63 154 -181q0 -86 -64.5 -143.5t-176.5 -57.5zM156 542q0 -58 38 -90t137 -68q91 47 91 147q0 65 -34 92
t-104 27q-63 0 -95.5 -28.5t-32.5 -79.5zM285 27q70 0 108 22.5t38 84.5q0 35 -7 56.5t-34.5 42.5t-57.5 34.5t-100 41.5q-106 -42 -106 -147q0 -135 159 -135z" />
    <glyph glyph-name="nine" unicode="9" horiz-adv-x="590" 
d="M295 281q133 0 133 188q0 103 -36.5 142t-97.5 39q-63 0 -96 -43t-33 -148q0 -103 33 -140.5t97 -37.5zM53 111q0 28 15.5 45.5t39.5 17.5t39 -14t15 -40q0 -16 -6 -34q-7 -20 -7 -29q0 -30 85 -30q191 0 198 290h-10q-17 -39 -58 -62.5t-94 -23.5q-96 0 -155 62t-59 163
q0 102 66 168.5t171 66.5q122 0 187 -86.5t65 -219.5q0 -102 -26.5 -180.5t-71 -125t-98.5 -69.5t-115 -23q-94 0 -137.5 36t-43.5 88z" />
    <glyph glyph-name="colon" unicode=":" horiz-adv-x="256" 
d="M129 379q-31 0 -50 19.5t-19 49.5q0 28 19 47.5t50 19.5q28 0 47.5 -20t19.5 -47q0 -30 -19 -49.5t-48 -19.5zM129 -13q-31 0 -50 19.5t-19 49.5q0 28 19 47.5t50 19.5q28 0 47.5 -20t19.5 -47q0 -30 -19 -49.5t-48 -19.5z" />
    <glyph glyph-name="semicolon" unicode=";" horiz-adv-x="278" 
d="M143 379q-31 0 -50 19.5t-19 49.5q0 28 19 47.5t50 19.5q28 0 47.5 -20t19.5 -47q0 -30 -19 -49.5t-48 -19.5zM218 40q0 -69 -45 -121.5t-115 -76.5l-13 30q103 44 103 93q0 20 -18 26q-56 20 -56 70q0 27 20.5 44.5t46.5 17.5q33 0 55 -21.5t22 -61.5z" />
    <glyph glyph-name="less" unicode="&#x3c;" horiz-adv-x="469" 
d="M380 133l-319 152v38l319 152v-46l-270 -125l270 -125v-46z" />
    <glyph glyph-name="equal" unicode="=" horiz-adv-x="469" 
d="M419 383h-369v42h369v-42zM419 183h-369v42h369v-42z" />
    <glyph glyph-name="greater" unicode="&#x3e;" horiz-adv-x="469" 
d="M408 285l-319 -152v47l271 124l-271 124v47l319 -152v-38z" />
    <glyph glyph-name="question" unicode="?" horiz-adv-x="447" 
d="M414 507q0 -49 -22.5 -88.5t-57 -61.5t-72 -33.5t-71.5 -11.5h-51v-126h-36v163h63q68 0 106.5 57t38.5 146q0 56 -35.5 89t-85.5 33q-40 0 -50 -48q-10 -56 -59 -56q-54 0 -54 53q0 33 44 60.5t113 27.5q78 0 134 -33q95 -58 95 -171zM193 56q0 -30 -19 -49.5t-48 -19.5
q-31 0 -50 19.5t-19 49.5q0 28 19 47.5t50 19.5q28 0 47.5 -20t19.5 -47z" />
    <glyph glyph-name="at" unicode="@" horiz-adv-x="869" 
d="M844 312q0 -127 -75 -216t-176 -89q-48 0 -73 23t-25 64q0 18 6 44h-7q-33 -56 -58 -81q-50 -50 -109 -50q-42 0 -73.5 32.5t-31.5 104.5q0 65 35 138t97.5 126t130.5 53q31 0 52.5 -19t23.5 -50h9q3 6 11.5 27.5t14.5 33.5h83l-59 -189q-44 -129 -44 -173q0 -48 40 -48
q75 0 134 78t59 191q0 138 -82.5 215.5t-231.5 77.5q-102 0 -192.5 -50t-148.5 -144.5t-58 -210.5q0 -164 91 -255.5t261 -91.5q91 0 176.5 26t139.5 65l16 -26q-54 -41 -142 -68t-188 -27q-186 0 -299 99.5t-113 267.5q0 127 66.5 230.5t170.5 158.5t219 55
q165 0 257.5 -86.5t92.5 -235.5zM535 358q0 69 -50 69q-56 0 -104 -76q-34 -55 -48.5 -121t-14.5 -115q0 -67 40 -67q34 0 70 43q23 29 53 82q18 31 29 69q25 72 25 116z" />
    <glyph glyph-name="A" unicode="A" horiz-adv-x="691" 
d="M295 525l-90 -247h193l-92 247h-11zM238 36v-36h-242v36q28 3 48 14q21 12 36 40t40 95l198 517h43l195 -521q19 -52 40 -84q21 -31 53 -48q25 -10 37 -13v-36h-317v36q33 4 48 10q14 6 19.5 9.5t11 13t5.5 25.5q0 32 -24 99l-17 45h-222l-22 -61q-15 -40 -15 -76
q0 -41 33 -55q20 -8 52 -10z" />
    <glyph glyph-name="B" unicode="B" horiz-adv-x="666" 
d="M35 0v36q24 2 38 7q33 10 49 40q15 31 15 110v313q0 78 -15 110q-15 28 -49 40q-15 5 -38 6v36h315q47 0 88 -7.5t78.5 -24t59 -49t21.5 -77.5q0 -51 -24 -81.5t-68 -54.5q-28 -16 -79 -26v-7q92 -9 150.5 -51t58.5 -124q0 -87 -68.5 -141.5t-165.5 -54.5h-366zM250 390
h105q76 0 105 38q29 40 29 112q0 67 -35.5 94.5t-101.5 27.5h-74q-18 0 -23 -6q-5 -7 -5 -19v-247zM351 36h22q78 0 115 40q32 35 32 120q0 83 -39 123q-33 33 -126 33h-105v-198q0 -76 22 -98q19 -20 79 -20z" />
    <glyph glyph-name="C" unicode="C" horiz-adv-x="679" 
d="M371 670q-56 0 -99 -25q-114 -68 -114 -296q0 -120 26 -178.5t76 -92.5q29 -20 57 -27.5t75 -7.5q157 0 224 131l30 -17q-84 -171 -284 -171q-146 0 -235.5 101.5t-89.5 261.5q0 155 100 258.5t234 103.5q124 0 188 -58h8l34 46h22v-239h-38q-22 92 -67 146
q-29 35 -58 49.5t-89 14.5z" />
    <glyph glyph-name="D" unicode="D" horiz-adv-x="748" 
d="M35 698h313q116 0 190 -42q78 -43 126.5 -121t48.5 -185q0 -215 -169 -309q-75 -41 -169 -41h-340v36q24 2 38 7q33 10 49 40q15 31 15 110v312q0 79 -15 111q-15 28 -49 40q-15 5 -38 6v36zM598 348q0 184 -94 266q-55 48 -160 48h-66q-15 0 -22 -7q-6 -6 -6 -25v-476
q0 -76 22 -98q19 -20 79 -20h14q87 0 143 53q90 88 90 259z" />
    <glyph glyph-name="E" unicode="E" horiz-adv-x="644" 
d="M607 196l-31 -196h-541v36q24 2 38 7q33 10 49 40q15 31 15 110v312q0 79 -15 111q-15 28 -49 40q-15 5 -38 6v36h522l31 -173h-34q-16 30 -24 42.5t-21 28.5t-30 29q-44 37 -120 37h-49q-35 0 -49 -18q-12 -15 -12 -58v-207h46q65 0 93 27q13 12 20.5 27.5t9.5 25.5
t5 32h33v-261h-33q-7 62 -37 88q-25 24 -91 24h-46v-188q0 -76 22 -98q19 -20 79 -20h18q50 0 77 12t54 36q11 10 20 20.5t14.5 17.5t13 19.5t10 17t9.5 19.5t9 18h32z" />
    <glyph glyph-name="F" unicode="F" horiz-adv-x="605" 
d="M359 36v-36h-324v36q24 2 38 7q33 10 49 40q15 31 15 110v312q0 79 -15 111q-15 28 -49 40q-15 5 -38 6v36h521l29 -191h-32q-47 86 -86 116q-46 39 -117 39h-39q-36 0 -49 -16q-12 -15 -12 -58v-204h31q67 0 94 26q13 12 20.5 28t9 25l5.5 32h33v-261h-33q-9 63 -37 88
t-92 25h-31v-154q0 -79 15 -110q16 -30 49 -40q12 -5 45 -7z" />
    <glyph glyph-name="G" unicode="G" horiz-adv-x="760" 
d="M519 177q0 54 -17 87q-5 11 -13 18t-14.5 10t-20.5 8q-15 4 -39 6v35h315v-35q-25 -2 -38 -6q-34 -12 -49 -40q-15 -29 -15 -137v-86q-23 -15 -80 -29q-107 -22 -172 -22q-156 0 -246 100.5t-90 262.5q0 155 98 258.5t231 103.5t197 -58h7l31 46h22v-239h-34
q-25 103 -66 147q-33 34 -64 48.5t-94 14.5q-49 0 -93 -25q-109 -63 -109 -296q0 -128 22.5 -192t73.5 -95q55 -34 115 -34q85 0 118 29q24 19 24 88v32z" />
    <glyph glyph-name="H" unicode="H" horiz-adv-x="811" 
d="M349 36v-36h-314v36q24 2 38 7q33 10 49 40q15 31 15 110v312q0 79 -15 111q-16 30 -49 40q-15 5 -38 6v36h314v-36q-22 -1 -35 -6q-34 -13 -49 -40q-15 -32 -15 -111v-132h311v132q0 79 -15 111q-15 28 -49 40q-13 5 -35 6v36h314v-36q-26 -2 -38 -6q-34 -12 -49 -40
q-15 -32 -15 -111v-312q0 -79 15 -110q16 -29 49 -40q17 -6 38 -7v-36h-314v36q18 1 35 7q33 10 49 40q15 31 15 110v140h-311v-140q0 -79 15 -110q16 -30 49 -40q17 -6 35 -7z" />
    <glyph glyph-name="I" unicode="I" horiz-adv-x="387" 
d="M250 505v-312q0 -79 15 -110q15 -27 49 -40q14 -5 38 -7v-36h-317v36q23 1 38 7q34 12 49 40q15 31 15 110v312q0 79 -15 111q-17 31 -49 40q-15 5 -38 6v36h317v-36q-23 -1 -38 -6q-33 -10 -49 -40q-15 -32 -15 -111z" />
    <glyph glyph-name="J" unicode="J" horiz-adv-x="437" 
d="M215 505q0 81 -15 110q-14 29 -48 41q-15 4 -39 6v36h315v-36q-25 -2 -38 -6q-34 -12 -49 -41t-15 -110v-293q0 -104 -61 -172q-53 -55 -133 -55q-71 0 -109 34q-31 27 -31 66q0 27 17 43t42 16q31 0 46 -23q11 -19 16 -45q3 -21 13 -33q12 -15 30 -15q32 0 47 32
q12 27 12 114v331z" />
    <glyph glyph-name="K" unicode="K" horiz-adv-x="712" 
d="M349 36v-36h-319v36q24 2 38 7q33 10 49 40q15 31 15 110v312q0 79 -15 111q-15 28 -49 40q-15 5 -38 6v36h319v-36q-25 -2 -40 -6q-34 -12 -49 -40q-15 -32 -15 -111v-137l156 153l8 8q35 35 49 53t14 36q0 12 -5 19.5t-9.5 10t-15.5 7.5q-13 5 -40 7v36h273v-36
q-39 -5 -84 -32q-47 -28 -115 -96l-127 -120v-8q104 0 153 -49q67 -68 77 -170q5 -43 14.5 -71t18 -38t22.5 -21q23 -16 64 -21v-36h-182q-18 17 -35.5 67t-21.5 102q-9 100 -32 143q-18 33 -36 46.5t-53 13.5q-27 0 -61 -30q-19 -17 -32 -34v-115q0 -79 15 -110
q16 -30 49 -40q13 -5 40 -7z" />
    <glyph glyph-name="L" unicode="L" horiz-adv-x="622" 
d="M35 0v36q24 2 38 7q33 10 49 40q15 31 15 110v312q0 79 -15 111q-15 28 -49 40q-15 5 -38 6v36h315v-36q-23 -1 -38 -6q-34 -12 -49 -40q-15 -32 -15 -111v-351q0 -76 22 -98q19 -20 75 -20h7q50 0 77.5 12t53.5 37q55 51 91 129h33l-36 -214h-536z" />
    <glyph glyph-name="M" unicode="M" horiz-adv-x="937" 
d="M902 698v-36q-25 -2 -38 -6q-33 -10 -49 -40q-15 -30 -15 -110v-314q0 -80 15 -110q16 -30 49 -40q13 -4 38 -6v-36h-321v36q29 2 43 6q33 11 48 40q15 30 15 110v401h-10l-210 -597h-51l-213 597h-11v-423q0 -69 19 -94q16 -25 43 -32q19 -6 44 -8v-36h-266v36
q24 2 40 6q25 7 47 31q24 27 24 97v336q0 80 -15 110t-49 40q-11 4 -47 6v36h259l182 -522h10l182 522h237z" />
    <glyph glyph-name="N" unicode="N" horiz-adv-x="773" 
d="M654 -8h-51l-396 579h-10v-401q0 -67 19 -94q16 -23 44 -32q19 -6 43 -8v-36h-265v36q24 2 40 6q26 7 46 31q25 28 25 97v291q0 94 -21 138q-15 32 -59 54q-15 7 -40 9v36h228l340 -504h9v333q0 73 -23 99q-19 21 -48 29q-13 5 -45 7v36h270v-36q-18 -2 -43 -9
q-27 -7 -43 -32q-20 -26 -20 -94v-535z" />
    <glyph glyph-name="O" unicode="O" horiz-adv-x="746" 
d="M373 711q140 0 238 -103t98 -259q0 -157 -98 -260t-238 -103t-238 103t-98 260q0 156 98 259t238 103zM373 27q58 0 104 29q110 71 110 293q0 221 -110 292q-46 29 -104 29t-104 -29q-109 -71 -109 -292q0 -222 109 -293q46 -29 104 -29z" />
    <glyph glyph-name="P" unicode="P" horiz-adv-x="610" 
d="M354 36v-36h-318v36q24 2 38 7q33 10 49 40q15 31 15 110v313q0 78 -15 111q-16 30 -49 40q-11 3 -39 5v36h314q111 0 177 -48t66 -134q0 -56 -24.5 -98t-64.5 -64q-78 -42 -193 -42h-60v-119q0 -79 15 -110q16 -30 49 -40q13 -5 40 -7zM250 633v-283h60q104 0 144 54
q26 35 26 108q0 150 -147 150h-54q-17 0 -23 -7q-6 -8 -6 -22z" />
    <glyph glyph-name="Q" unicode="Q" horiz-adv-x="742" 
d="M600 -138q-65 0 -105.5 31.5t-65.5 97.5q-30 -5 -56 -5q-140 0 -238 103t-98 260q0 156 98 259t238 103t238 -103t98 -259q0 -105 -47 -189t-126 -130q22 -70 41 -96.5t61 -26.5q40 0 76 30l18 -27q-52 -48 -132 -48zM346 206q59 0 103.5 -33t66.5 -84q71 78 71 260
q0 221 -110 292q-46 29 -104 29t-104 -29q-109 -71 -109 -292q0 -140 41 -219q48 76 145 76zM373 27q24 0 43 4q-21 68 -42.5 94.5t-63.5 26.5q-25 0 -48.5 -15.5t-36.5 -41.5q18 -21 44 -39q46 -29 104 -29z" />
    <glyph glyph-name="R" unicode="R" horiz-adv-x="717" 
d="M348 662h-73q-18 0 -21 -5q-4 -4 -4 -21v-268h73q59 0 86 9.5t45 33.5q29 40 29 107q0 144 -135 144zM352 36v-36h-317v36q24 2 38 7q33 10 49 40q15 31 15 110v312q0 79 -15 111q-15 28 -49 40q-15 5 -38 6v36h328q104 0 169 -49.5t65 -130.5q0 -82 -77 -132
q-33 -22 -101 -36v-8q54 -7 86 -29q19 -12 30.5 -23t24 -34.5t19.5 -57.5q20 -112 60 -141q27 -18 66 -21v-36h-181q-38 45 -52 149q-10 67 -18 94t-29 53q-27 34 -105 34h-70v-137q0 -79 15 -110q16 -30 49 -40q14 -5 38 -7z" />
    <glyph glyph-name="S" unicode="S" horiz-adv-x="546" 
d="M513 193q0 -95 -67.5 -151t-161.5 -56q-52 0 -98 20t-76 48h-10l-28 -49h-25l-10 231h34q32 -87 90.5 -149.5t122.5 -62.5q67 0 103 33t36 87q0 20 -3.5 36t-14 30t-17.5 22.5t-28.5 21l-30 17.5t-39 19.5l-40.5 19.5l-58.5 29.5t-49.5 31t-45.5 41t-26.5 50t-12 66.5
q0 80 57 131.5t143 51.5q55 0 83 -11.5t59 -38.5h9l22 42h31l17 -203h-34q-35 91 -80 133q-42 40 -107 40q-47 0 -77.5 -27t-30.5 -74q0 -19 3.5 -35t14 -29.5l17.5 -22.5t25.5 -20.5t26.5 -15.5l32.5 -16l30.5 -15q102 -51 128 -70q85 -59 85 -155z" />
    <glyph glyph-name="T" unicode="T" horiz-adv-x="670" 
d="M392 193q0 -81 15 -110t48 -40q13 -5 38 -7v-36h-316v36q26 2 38 7q33 10 49 40q15 29 15 110v467h-29q-73 0 -127 -39q-33 -25 -48.5 -46t-33.5 -57h-34l31 180h594l31 -180h-32q-17 35 -34 57.5t-49 45.5q-54 39 -128 39h-28v-467z" />
    <glyph glyph-name="U" unicode="U" horiz-adv-x="752" 
d="M638 234q0 -105 -38 -162q-56 -85 -214 -85q-90 0 -161.5 32.5t-96.5 97.5q-19 49 -19 146v242q0 81 -15 110q-14 29 -48 41q-15 4 -39 6v36h318v-36q-25 -2 -38 -6q-34 -12 -49 -41q-16 -31 -16 -109v-282q0 -53 14 -96q30 -99 159 -99t169 67q27 45 27 132v299
q0 72 -24 99q-19 21 -47 30q-15 4 -45 6v36h269v-36q-26 -3 -43 -8q-28 -9 -44 -32q-19 -25 -19 -95v-293z" />
    <glyph glyph-name="V" unicode="V" horiz-adv-x="696" 
d="M270 505l119 -335h9l126 348q17 48 17 79q0 41 -33 55q-15 6 -52 10v36h240v-36q-36 -5 -50 -14q-23 -14 -37 -41q-18 -34 -40 -94l-193 -518h-42l-195 521q-18 51 -40 85q-23 32 -53 48q-10 4 -41 13v36h332v-36q-40 -4 -55 -9q-38 -11 -38 -49q0 -28 26 -99z" />
    <glyph glyph-name="W" unicode="W" horiz-adv-x="1044" 
d="M699 -5l-164 483h-6l-169 -483h-41l-175 513q-23 67 -43 95q-20 30 -51 46q-26 11 -44 13v36h325v-36q-33 -2 -55 -9q-37 -11 -37 -44q0 -26 25 -103l108 -332h7l131 375q-14 40 -30 63q-22 32 -49 41q-17 6 -40 9v36h320v-36q-37 -3 -54 -8q-12 -4 -19 -7.5t-12.5 -13
t-5.5 -24.5q0 -31 24 -103l108 -332h7l113 344q18 54 18 83q0 37 -33 51q-15 6 -52 10v36h240v-36q-36 -5 -51 -14q-17 -11 -36 -41q-15 -25 -40 -94l-178 -518h-41z" />
    <glyph glyph-name="X" unicode="X" horiz-adv-x="701" 
d="M258 0h-264v36q17 2 44 15q25 12 52 38q19 17 72 86l127 167l-114 165q-7 9 -22 31.5l-19.5 29.5t-16.5 23t-17 21l-15.5 16t-17.5 14t-17.5 9t-21 8t-23.5 3v36h334v-36q-88 -7 -88 -41q0 -22 25 -59l100 -146h6l84 109q41 51 41 83t-34 46q-9 4 -47 8v36h260v-36
q-13 -1 -43 -15q-26 -11 -49 -33q-16 -14 -75 -91l-114 -148l126 -184l13 -19q25 -37 38 -54.5t33.5 -39t40.5 -30.5t45 -12v-36h-336v36q84 10 84 48q0 27 -35 77l-96 139h-4l-101 -133q-37 -49 -37 -77q0 -32 34 -45q13 -5 48 -9v-36z" />
    <glyph glyph-name="Y" unicode="Y" horiz-adv-x="646" 
d="M262 298l-156 257q-33 59 -56.5 79.5t-57.5 27.5v36h307v-36q-37 -3 -54 -8q-22 -8 -28.5 -23.5t0.5 -36.5t26 -52l112 -185h6l98 167q33 54 33 92q0 29 -27 39q-11 4 -43 7v36h230v-36q-49 -6 -76.5 -35.5t-72.5 -110.5l-128 -219v-104q0 -81 14 -110q15 -27 49 -40
q14 -6 38 -7v-36h-316v36q21 1 38 7q33 11 49 40q15 29 15 110v105z" />
    <glyph glyph-name="Z" unicode="Z" horiz-adv-x="624" 
d="M581 698v-27l-404 -635h87q70 0 107 7t72 25q13 7 25.5 16l21.5 16t19.5 19.5l15 18t14 21t11.5 18.5t12 21l9 17h37l-59 -215h-512v27l411 635h-109q-55 0 -87 -8t-60 -29q-61 -44 -96 -120h-36l40 193h481z" />
    <glyph glyph-name="bracketleft" unicode="[" horiz-adv-x="345" 
d="M335 -120h-235v870h235v-36h-151v-798h151v-36z" />
    <glyph glyph-name="backslash" unicode="\" horiz-adv-x="420" 
d="M14 747l53 21l367 -932l-53 -21z" />
    <glyph glyph-name="bracketright" unicode="]" horiz-adv-x="345" 
d="M245 750v-870h-235v36h151v798h-151v36h235z" />
    <glyph glyph-name="asciicircum" unicode="^" 
d="M230 659l-95 -203h-50l121 251h48l121 -251h-50z" />
    <glyph glyph-name="underscore" unicode="_" horiz-adv-x="295" 
d="M300 -167h-305v46h305v-46z" />
    <glyph glyph-name="grave" unicode="`" 
d="M328 596l-18 -28l-162 72q-58 26 -58 61q0 22 11.5 35t31.5 13t36.5 -10t43.5 -35z" />
    <glyph glyph-name="a" unicode="a" horiz-adv-x="500" 
d="M492 14q-10 -7 -38 -15.5t-55 -8.5q-37 0 -57 13q-23 16 -29 63h-11q-14 -28 -46.5 -52t-86.5 -24q-65 0 -102 33.5t-37 96.5q0 55 38 90q25 22 50.5 33t76.5 26q85 24 104 55v89q0 36 -14 51.5t-47 15.5q-32 0 -54 -13q-22 -16 -28 -54q-7 -49 -50 -49q-20 0 -33 12.5
t-13 33.5q0 31 23 54q21 22 62.5 38t91.5 16q81 0 122.5 -24.5t41.5 -82.5v-276q0 -61 10 -79q9 -19 35 -19q23 0 37 7zM299 282q-12 -13 -72 -39q-58 -27 -72 -44q-28 -34 -28 -75q0 -44 22 -63t54 -19q35 0 60.5 18.5t35.5 50.5v171z" />
    <glyph glyph-name="b" unicode="b" horiz-adv-x="594" 
d="M182 756q7 0 7 -7q0 -13 -1.5 -56t-1.5 -78v-175h9q53 78 152 78q40 0 76.5 -14t67.5 -44t49.5 -83t18.5 -123q0 -66 -21.5 -118t-57.5 -83t-77.5 -46.5t-85.5 -15.5q-43 0 -82.5 21.5t-59.5 55.5h-16l-49 -69h-28q3 52 3 103v525q0 42 -4 55q-7 20 -21 29q-19 11 -54 12
v33h176zM327 471q-59 0 -95 -33q-46 -42 -46 -111v-132q0 -87 31 -122q36 -42 96 -42q67 0 103 59t36 164q0 217 -125 217z" />
    <glyph glyph-name="c" unicode="c" horiz-adv-x="508" 
d="M284 480q-46 0 -76 -24q-67 -51 -67 -201q0 -140 70 -195q33 -25 76 -25q124 0 165 112l35 -13q-20 -67 -74.5 -105.5t-136.5 -38.5q-83 0 -149 50q-93 71 -93 215q0 118 73 190.5t177 72.5q110 0 165 -57q23 -26 23 -53q0 -54 -48 -54q-26 0 -39 15.5t-22 47.5
q-10 35 -27 49t-52 14z" />
    <glyph glyph-name="d" unicode="d" horiz-adv-x="593" 
d="M405 182v160q0 67 -31 101t-85 34q-65 0 -106.5 -55t-41.5 -168q0 -115 41 -168t102 -53q54 0 87.5 42.5t33.5 106.5zM582 0h-150q-10 0 -13 6q-2 5 -2 22v55h-11q-17 -43 -56.5 -68t-94.5 -25q-91 0 -156 71.5t-65 192.5q0 129 72.5 196.5t169.5 67.5q77 0 120 -53h9
v163q0 38 -6 53q-4 17 -24 29q-20 11 -54 13v33h182q7 0 7 -7q-4 -116 -4 -134v-479q0 -38 4 -52q8 -30 34 -42q14 -6 38 -8v-34z" />
    <glyph glyph-name="e" unicode="e" horiz-adv-x="523" 
d="M489 139q-25 -68 -79 -108.5t-131 -40.5q-96 0 -160 57q-85 75 -85 207q0 113 73 188.5t170 75.5q103 0 156 -59t53 -130q0 -34 -4 -58h-337v-17q0 -127 51 -181q37 -39 100 -39q114 0 163 119zM203 452q-47 -47 -56 -144h202q18 0 26 11.5t8 40.5q0 62 -25 90
q-25 29 -80 29q-45 0 -75 -27z" />
    <glyph glyph-name="f" unicode="f" horiz-adv-x="346" 
d="M286 0h-256v34q21 2 38 8q28 14 35 43q3 14 3 53v325h-78v42h78v56q0 108 61 159q46 39 112 39q58 0 91 -20q46 -27 46 -77q0 -23 -12.5 -37t-34.5 -14q-27 0 -42 21q-10 14 -17 42q-5 20 -10 30q-10 16 -33 16q-28 0 -45 -26q-14 -22 -14 -89v-100h129v-42h-129v-325
q0 -39 4 -53q8 -31 32 -43q16 -6 42 -8v-34z" />
    <glyph glyph-name="g" unicode="g" horiz-adv-x="567" 
d="M150 350q0 -130 96 -130q45 0 76.5 31t31.5 99t-29.5 99.5t-74.5 31.5q-43 0 -71.5 -31.5t-28.5 -99.5zM520 -21q0 -86 -86.5 -134.5t-198.5 -48.5q-225 0 -225 116q0 78 135 99v10q-37 6 -62 31.5t-25 60.5q0 68 86 88v7q-93 46 -93 142q0 77 60 122.5t141 45.5
q112 0 163 -68h11q7 31 33.5 49.5t59.5 18.5q31 0 46.5 -16.5t15.5 -42.5q0 -21 -12 -32t-30 -11q-23 0 -37 21q-4 6 -5 8t-4 6.5t-5 5.5t-6 2.5t-8 1.5q-10 0 -20 -15t-10 -34q0 -6 3 -17.5t4 -18.5q2 -16 2 -26q0 -79 -62 -124t-143 -45q-10 0 -29 1.5t-25 1.5
q-69 0 -69 -41q0 -42 60 -42q11 0 85 3t92 3q38 0 63.5 -4.5t48.5 -17t34.5 -39t11.5 -67.5zM450 -50q0 25 -12 38.5t-28.5 16.5t-47.5 4q-75 2 -140 -5q-26 -3 -43 -6t-41.5 -12t-37.5 -27t-13 -44q0 -44 41 -62t119 -18q54 0 98 10.5t74.5 37.5t30.5 67z" />
    <glyph glyph-name="h" unicode="h" horiz-adv-x="624" 
d="M278 34v-34h-249v34q21 2 38 8q28 14 35 43q3 14 3 53v488q0 43 -3 54q-7 20 -22 28q-16 10 -55 14v34h174q7 0 7 -8v-319h11q34 42 58 57q47 32 110 32q58 0 93 -25q49 -35 49 -107v-248q0 -39 3 -53q7 -30 35 -43q17 -6 37 -8v-34h-249v34q18 1 38 8q24 12 32 43
q3 14 3 53v238q0 45 -21 66q-18 17 -59 17q-75 0 -111 -51q-29 -38 -29 -102v-168q0 -39 4 -53q8 -31 32 -43q18 -7 36 -8z" />
    <glyph glyph-name="i" unicode="i" horiz-adv-x="302" 
d="M159 608q-28 0 -46 17.5t-18 45.5t18 45.5t46 17.5t46 -17.5t18 -45.5t-18 -45.5t-46 -17.5zM204 384v-246q0 -39 4 -53q7 -30 35 -43q17 -6 37 -8v-34h-251v34q18 1 36 8q28 14 35 43q3 14 3 53v232q0 43 -3 54q-6 19 -22 28q-20 12 -53 19v34h175q7 0 7 -8
q-3 -84 -3 -113z" />
    <glyph glyph-name="j" unicode="j" horiz-adv-x="285" 
d="M156 608q-28 0 -46 17.5t-18 45.5t18 45.5t46 17.5t46 -17.5t18 -45.5t-18 -45.5t-46 -17.5zM105 -45v415q0 43 -3 54q-6 19 -22 28q-19 11 -55 19v34h177q7 0 7 -7q0 -12 -1 -48.5t-1 -64.5v-349q0 -148 -79 -209q-40 -31 -95 -31q-59 0 -89 21q-43 28 -43 77
q0 26 15.5 41t37.5 15q24 0 37.5 -13.5t13.5 -36.5q0 -7 -2 -23q-2 -14 -2 -18q0 -30 37 -30q33 0 48 22q19 27 19 104z" />
    <glyph glyph-name="k" unicode="k" horiz-adv-x="586" 
d="M277 34v-34h-243v34q15 1 33 8q28 14 35 43q3 14 3 53v488q0 43 -3 54q-7 20 -22 28q-16 10 -55 14v34h176q7 0 7 -8q0 -10 -1 -54t-1 -69v-353l98 79q24 19 34 28.5t19.5 23t9.5 26.5q0 22 -24 33q-12 5 -44 9v34h261v-34q-37 -12 -66 -29q-25 -14 -108 -75l-86 -64
q58 -4 104 -33t57 -73q18 -81 45 -125q19 -32 75 -38v-34h-165q-9 12 -45 148q-8 26 -14.5 43.5t-18.5 36.5t-29.5 31t-41.5 17l-61 -50v-88q0 -39 4 -53q8 -31 32 -43q18 -7 35 -8z" />
    <glyph glyph-name="l" unicode="l" horiz-adv-x="303" 
d="M203 625v-487q0 -39 4 -53q8 -31 32 -43q18 -7 35 -8v-34h-243v34q15 1 33 8q28 14 35 43q3 14 3 53v488q0 43 -3 54q-7 20 -22 28q-16 10 -55 14v34h176q7 0 7 -8q0 -10 -1 -54t-1 -69z" />
    <glyph glyph-name="m" unicode="m" horiz-adv-x="911" 
d="M278 34v-34h-249v34q21 2 38 8q28 14 35 43q3 14 3 53v232q0 43 -3 54q-6 19 -22 28q-17 10 -55 20v33h174q7 0 7 -8l-4 -76h10q25 39 53 62q43 35 104 35q63 0 94 -27q31 -25 40 -68h8q23 39 58 63q44 32 104 32q62 0 94 -27q46 -38 46 -106v-247q0 -39 4 -53
q7 -30 34 -43q20 -7 38 -8v-34h-249v34q18 1 36 8q25 12 33 43q3 14 3 53v242q0 44 -20 63q-17 16 -52 16q-62 0 -102 -56q-28 -37 -28 -102v-163q0 -39 3 -53q7 -29 35 -43q18 -7 34 -8v-34h-245v34q18 1 36 8q24 12 32 43q4 14 4 53v242q0 43 -20 63q-19 16 -53 16
q-61 0 -101 -56q-29 -38 -29 -102v-163q0 -39 4 -53q8 -31 32 -43q18 -7 36 -8z" />
    <glyph glyph-name="n" unicode="n" horiz-adv-x="624" 
d="M527 138q0 -39 3 -53q7 -30 35 -43q17 -6 37 -8v-34h-249v34q18 1 38 8q24 12 32 43q3 14 3 53v238q0 44 -22 66q-18 17 -58 17q-75 0 -111 -51q-29 -38 -29 -102v-168q0 -39 4 -53q8 -31 32 -43q18 -7 36 -8v-34h-249v34q21 2 38 8q28 14 35 43q3 14 3 53v232
q0 43 -3 54q-6 19 -22 28q-19 11 -55 19v34h170q7 0 7 -8l-2 -74h12q26 40 63 63q47 32 110 32q58 0 93 -25q49 -35 49 -107v-248z" />
    <glyph glyph-name="o" unicode="o" horiz-adv-x="566" 
d="M34 255q0 118 72.5 190.5t176.5 72.5t176.5 -72.5t72.5 -190.5q0 -119 -73 -192t-176 -73t-176 73t-73 192zM144 255q0 -150 66 -202q32 -24 73 -24q40 0 72 24q67 53 67 202q0 150 -67 201q-29 23 -72 23q-44 0 -73 -23q-66 -51 -66 -201z" />
    <glyph glyph-name="p" unicode="p" horiz-adv-x="601" 
d="M462 253q0 218 -125 218q-52 0 -90 -34q-17 -16 -32 -52.5t-15 -76.5v-115q0 -89 31 -123q37 -42 91 -42q68 0 104 60t36 165zM97 -58v429q0 40 -4 53q-6 19 -21 29q-20 11 -55 18v34h173q7 0 7 -7l-2 -68h10q53 88 152 88q87 0 149.5 -64.5t62.5 -200.5
q0 -129 -72 -196.5t-167 -67.5q-73 0 -123 42h-7v-89q0 -38 3 -52q7 -29 35 -43q18 -7 45 -8v-32h-266v32q23 2 42 8q27 13 34 43q4 14 4 52z" />
    <glyph glyph-name="q" unicode="q" horiz-adv-x="601" 
d="M432 448h8l46 66h39q-8 -104 -8 -156v-416q0 -38 4 -52q7 -30 34 -43q20 -7 37 -8v-32h-257v32q32 2 45 8q25 9 33 43q3 14 3 52v124h-9q-18 -35 -58 -56t-94 -21q-90 0 -155.5 72t-65.5 193q0 66 23 118.5t60.5 83t80.5 46.5t88 16q93 0 146 -70zM404 181v169
q0 60 -30 92q-32 35 -85 35q-65 0 -107 -55.5t-42 -167.5q0 -115 41.5 -166t103.5 -51q50 0 83 36q36 41 36 108z" />
    <glyph glyph-name="r" unicode="r" horiz-adv-x="436" 
d="M206 408q24 52 59 80q38 30 86 30q38 0 62 -21q18 -18 18 -50q0 -55 -51 -55q-38 0 -53 42q-7 20 -30 20q-25 0 -56.5 -40t-36.5 -89q-3 -27 -3 -71v-116q0 -39 4 -53q9 -34 32 -43q18 -6 46 -8v-34h-259v34q21 2 38 8q28 14 35 43q3 14 3 53v232q0 43 -3 54
q-6 19 -22 28q-19 11 -55 19v34h173q7 0 7 -8l-5 -89h11z" />
    <glyph glyph-name="s" unicode="s" horiz-adv-x="436" 
d="M409 147q0 -77 -50 -117t-125 -40q-39 0 -76.5 19t-59.5 47h-12l-17 -54h-29l-6 191h36q24 -75 67.5 -120t99.5 -45q90 0 90 71q0 43 -26.5 65t-100.5 53l-24 10t-24 10.5l-21 10t-21 11.5t-17.5 12.5t-16.5 15t-12 17.5t-10.5 21.5t-5 24.5t-2.5 30q0 59 45.5 98.5
t121.5 39.5q42 0 70.5 -15.5t40.5 -35.5h10l13 42h26l8 -152h-35q-27 70 -55 96q-32 27 -78 27q-39 0 -61.5 -19t-22.5 -50q0 -36 23.5 -56.5t93.5 -46.5q39 -15 63 -27t49.5 -31.5t38 -44.5t12.5 -58z" />
    <glyph glyph-name="t" unicode="t" horiz-adv-x="358" 
d="M340 73l18 -24q-46 -59 -131 -59q-68 0 -103 32q-29 25 -29 87v355h-87v28q59 12 94 51.5t65 138.5h29v-177h132v-41h-132v-355q0 -68 65 -68q45 0 79 32z" />
    <glyph glyph-name="u" unicode="u" horiz-adv-x="621" 
d="M516 137q0 -38 4 -52q8 -33 35 -43q15 -6 42 -8v-34h-165q-9 0 -9 11l-1 70h-10q-23 -41 -51 -62q-41 -31 -106 -31q-87 0 -129 50q-31 37 -31 108v227q0 43 -3 54q-6 19 -22 28q-20 13 -55 16v34h178q7 0 7 -7q-4 -116 -4 -120v-225q0 -59 24 -84q26 -29 72 -29
q42 0 75 26q39 33 45 89q3 30 3 80v138q0 43 -3 54q-6 18 -22 28q-22 13 -57 16v34h180q7 0 7 -7q-4 -116 -4 -120v-241z" />
    <glyph glyph-name="v" unicode="v" horiz-adv-x="563" 
d="M562 471q-24 -2 -37 -10q-17 -11 -28 -29q-11 -15 -43 -89l-148 -347h-50l-137 328q-10 25 -42 93q-15 32 -30 42q-16 12 -43 12v34h257v-34q-39 -2 -49 -8q-20 -11 -20 -36q0 -17 26 -85l92 -219h9l89 213q24 65 24 88q0 26 -23 39q-16 8 -47 8v34h200v-34z" />
    <glyph glyph-name="w" unicode="w" horiz-adv-x="841" 
d="M551 -4l-124 325h-4l-127 -325h-48l-129 319q-34 86 -40 98q-8 17 -11.5 22.5t-8.5 12.5t-12 11q-12 9 -43 12v34h252v-34q-30 -3 -40 -8q-22 -12 -22 -38q0 -24 22 -83l79 -219h10l98 241l-20 49q-16 35 -33 46q-12 9 -40 12v34h248v-34q-27 -1 -39 -8q-22 -12 -22 -38
q0 -20 22 -83l80 -219h10l82 213q22 69 22 88q0 26 -23 39q-13 6 -40 8v34h190v-34q-21 -2 -36 -12q-16 -10 -27 -27q-20 -27 -42 -89l-136 -347h-48z" />
    <glyph glyph-name="x" unicode="x" horiz-adv-x="522" 
d="M213 0h-204v34q19 4 44 20q9 6 18 13t15 12.5t15.5 16.5l14.5 17l18 22t19 24l67 84l-96 129q-9 12 -24 34t-23.5 32t-16.5 15q-22 14 -50 18v34h249v-34q-26 -3 -37 -6q-22 -7 -22 -24t21 -45l62 -84h9l36 50q35 48 35 72q0 19 -18 28q-12 6 -39 9v34h199v-33
q-29 -6 -48 -18l-11.5 -8t-11 -9l-9.5 -8.5t-10 -11t-8.5 -11l-10 -13.5l-10 -13.5t-11.5 -17t-12 -18.5l-53 -69l101 -137q56 -77 70 -86q24 -15 50 -18v-34h-248v34q24 2 36 6q23 8 23 26q0 14 -21 43l-73 97h-8l-51 -65q-36 -47 -36 -67q0 -19 21 -29q18 -8 39 -11v-34z
" />
    <glyph glyph-name="y" unicode="y" horiz-adv-x="551" 
d="M274 -50q-26 -59 -54 -97q-42 -55 -116 -55q-36 0 -59.5 19t-23.5 48q0 23 14 38.5t32 15.5q31 0 55 -29q10 -11 16 -15q8 -6 23 -6q36 0 68 84q12 31 12 54q0 15 -11 43l-113 265l-25 61t-15 37q-17 36 -32 46q-14 9 -41 12v34h254v-34q-35 -3 -48 -8q-21 -13 -21 -38
q0 -21 25 -84l86 -211h11l88 205q24 55 24 88q0 27 -23 40q-9 5 -43 8v34h193v-34q-21 -2 -36 -11q-17 -11 -28 -28q-14 -20 -43 -89z" />
    <glyph glyph-name="z" unicode="z" horiz-adv-x="493" 
d="M460 172l-19 -172h-411v17l301 449v5h-122q-39 0 -69 -30q-29 -28 -61 -92h-35l35 156h372v-21l-294 -446v-4h112q38 0 57 9t39 31q41 47 62 98h33z" />
    <glyph glyph-name="braceleft" unicode="{" horiz-adv-x="372" 
d="M362 -121q-206 8 -206 158q0 20 6.5 73.5t6.5 64.5q0 82 -69 110q-27 10 -60 13v33q33 3 60 13q69 28 69 110q0 12 -6.5 65t-6.5 73q0 150 206 158v-37q-29 -4 -43.5 -7t-34.5 -13t-29 -30.5t-9 -52.5q0 -16 4 -64t4 -67q0 -131 -154 -162v-5q154 -31 154 -162
q0 -19 -4 -67t-4 -64q0 -32 9 -52.5t29 -30.5t34.5 -13t43.5 -7v-37z" />
    <glyph glyph-name="bar" unicode="|" horiz-adv-x="226" 
d="M141 -179h-56v945h56v-945z" />
    <glyph glyph-name="braceright" unicode="}" horiz-adv-x="372" 
d="M10 -121v37q29 4 43.5 7t34.5 13t29 30.5t9 52.5q0 16 -4 64t-4 67q0 131 154 162v5q-154 31 -154 162q0 19 4 67t4 64q0 32 -9 52.5t-29 30.5t-34.5 13t-43.5 7v37q206 -8 206 -158q0 -20 -6.5 -73t-6.5 -65q0 -82 69 -110q27 -10 60 -13v-33q-33 -3 -60 -13
q-69 -28 -69 -110q0 -11 6.5 -64.5t6.5 -73.5q0 -150 -206 -158z" />
    <glyph glyph-name="asciitilde" unicode="~" horiz-adv-x="426" 
d="M396 386q-14 -47 -47 -80t-72 -33q-30 0 -75 15t-71 15q-42 0 -64 -53l-37 13q14 47 47 80t72 33q29 0 72 -15t67 -15q49 0 71 53z" />
    <glyph glyph-name="uni00A0" unicode="&#xa0;" horiz-adv-x="220" 
 />
    <glyph glyph-name="exclamdown" unicode="&#xa1;" horiz-adv-x="266" 
d="M132 -205q-24 0 -41 17.5t-17 54.5q0 46 13 181l26 272h40q1 -13 25 -272q13 -135 13 -181q0 -36 -17 -54t-42 -18zM201 450q0 -28 -19 -47.5t-50 -19.5q-28 0 -47.5 20t-19.5 47q0 30 19 49.5t48 19.5q31 0 50 -19.5t19 -49.5z" />
    <glyph glyph-name="cent" unicode="&#xa2;" horiz-adv-x="508" 
d="M211 60q26 -19 61 -24v443q-40 -4 -64 -23q-67 -51 -67 -201q0 -140 70 -195zM487 134q-38 -124 -172 -142v-88h-43v86q-81 1 -145 50q-93 71 -93 215q0 115 69 186.5t169 76.5v95h43v-96q87 -7 134 -56q23 -26 23 -53q0 -54 -48 -54q-26 0 -39 15.5t-22 47.5
q-15 50 -48 59v-440q101 12 137 111z" />
    <glyph glyph-name="sterling" unicode="&#xa3;" horiz-adv-x="694" 
d="M467 -28q-65 0 -199 81q-29 -31 -70.5 -48.5t-81.5 -17.5q-49 0 -77.5 22.5t-28.5 61.5q0 40 32.5 65.5t82.5 25.5q37 0 103 -22q5 28 12 116h-113v39h116l3 35q15 160 97 260.5t179 100.5q72 0 109.5 -33t37.5 -85q0 -58 -39.5 -92t-94.5 -34q-77 0 -103 64l34 22
q22 -48 69 -48q29 0 48.5 21t19.5 67q0 38 -23 58t-61 20q-75 0 -109 -70q-35 -72 -59 -264l-3 -22h185v-39h-191q-16 -94 -37 -143q121 -48 173 -48q58 0 80 20t34 68l38 -7q-30 -174 -163 -174zM116 27q34 0 57 13t40 46q-58 31 -98 31q-26 0 -40.5 -12.5t-14.5 -33.5
t15.5 -32.5t40.5 -11.5z" />
    <glyph glyph-name="currency" unicode="&#xa4;" horiz-adv-x="500" 
 />
    <glyph glyph-name="yen" unicode="&#xa5;" horiz-adv-x="598" 
d="M437 33v-33h-287v33q38 5 56 15q14 8 19.5 14t9.5 20q6 21 6 74v46h-174v39h174v69h-174v39h150l-117 191q-31 57 -54 76.5t-56 27.5v33h288v-33q-31 -2 -48 -8t-24.5 -15t-5.5 -23.5t8.5 -30t19.5 -39.5l96 -164h5l90 146q34 58 34 89q0 17 -6 24.5t-21 13.5
q-12 4 -42 7v33h224v-33q-42 -6 -71 -38t-74 -104l-93 -153h150v-39h-174v-69h174v-39h-174v-46q0 -53 6 -74q8 -22 29 -34q17 -9 56 -15z" />
    <glyph glyph-name="brokenbar" unicode="&#xa6;" horiz-adv-x="226" 
d="M141 361h-56v405h56v-405zM141 -179h-56v405h56v-405z" />
    <glyph glyph-name="section" unicode="&#xa7;" horiz-adv-x="543" 
d="M285 174l28.5 -21l30.5 -22.5t25 -20.5t25 -25q21 14 36.5 40t15.5 50q0 52 -29.5 85t-125.5 102q-17 12 -26 19q-76 54 -104 91q-56 -26 -56 -94q0 -51 29 -83.5t120 -98.5zM260 -204q-83 0 -125.5 33.5t-42.5 77.5q0 20 12 34.5t33 14.5q35 0 47 -33q2 -7 3.5 -22.5
t5.5 -24.5q18 -41 67 -41q40 0 70.5 27t30.5 70q0 17 -4 32.5t-15.5 31l-19 25.5t-26.5 25.5l-25.5 20.5t-29.5 20.5t-25 17.5l-35.5 25l-34 24l-28.5 21t-26.5 22l-20.5 22t-18.5 25t-12 26t-8.5 31t-2 35q0 55 32 97.5t80 66.5q-22 39 -22 90q0 75 50 122t120 47
q84 0 126 -29.5t42 -71.5q0 -20 -12 -34.5t-33 -14.5q-35 0 -47 33q-2 7 -4 23t-5 24q-11 31 -67 31q-40 0 -66.5 -24.5t-26.5 -67.5q0 -29 12 -55.5t36.5 -50.5t41.5 -37.5t47 -34.5q6 -4 32 -22.5l31.5 -22.5l26.5 -19.5t26 -21t20.5 -20t19.5 -22.5t13 -22.5t11.5 -26.5
l5.5 -27.5t3 -32.5q0 -47 -31 -90.5t-77 -65.5q23 -39 23 -87q0 -75 -54 -124.5t-124 -49.5z" />
    <glyph glyph-name="dieresis" unicode="&#xa8;" 
d="M139 611q-22 0 -37.5 15t-15.5 39t15.5 39t37.5 15t37.5 -15t15.5 -39t-15.5 -39t-37.5 -15zM322 611q-22 0 -37.5 15t-15.5 39t15.5 39t37.5 15t37.5 -15t15.5 -39t-15.5 -39t-37.5 -15z" />
    <glyph glyph-name="copyright" unicode="&#xa9;" horiz-adv-x="982" 
d="M491 721q181 0 311 -130t130 -310q0 -181 -129.5 -309.5t-311.5 -128.5t-311.5 129.5t-129.5 310.5q0 118 59.5 219t161 160t220.5 59zM491 680q-165 0 -277.5 -115t-112.5 -282q0 -169 112.5 -284t277.5 -115t277.5 115t112.5 282q0 169 -112.5 284t-277.5 115zM719 210
q-18 -54 -41.5 -92.5t-71.5 -67.5t-114 -29q-103 0 -171 56q-89 73 -89 206q0 115 81 189.5t191 74.5q88 0 144 -51h9l22 38h26v-205h-36q-20 82 -50 124q-22 30 -47 44t-68 14q-46 0 -79 -22q-85 -56 -86 -206q0 -111 52 -168q44 -47 115 -47q68 0 109 39t67 116z" />
    <glyph glyph-name="ordfeminine" unicode="&#xaa;" horiz-adv-x="373" 
d="M121 326q-36 0 -61 23.5t-25 70.5q0 30 20 56q26 30 81 48q67 23 93 52v43q0 31 -11 44t-40 13q-27 0 -37 -9q-11 -11 -17 -41q-7 -36 -41 -36t-34 33q0 20 15 38q14 18 47.5 29.5t65.5 11.5q126 0 126 -80v-195q0 -52 9 -61q6 -7 19 -7q11 0 22 4l5 -21q-21 -16 -63 -16
q-25 0 -39 9q-22 15 -22 49h-8q-35 -58 -105 -58zM230 539q-26 -19 -77 -43q-19 -9 -33 -27q-12 -17 -12 -46q0 -56 50 -56q30 0 51 22.5t21 59.5v90z" />
    <glyph glyph-name="guillemotleft" unicode="&#xab;" horiz-adv-x="453" 
d="M224 260l172 149l27 -26l-106 -137l106 -136l-27 -26l-172 149v27zM36 260l172 149l27 -26l-106 -137l106 -136l-27 -26l-172 149v27z" />
    <glyph glyph-name="registered" unicode="&#xae;" horiz-adv-x="625" 
d="M585 440q0 -111 -80.5 -191.5t-192.5 -80.5t-192 80.5t-80 191.5t80 191t192 80t192.5 -80t80.5 -191zM82 440q0 -96 67.5 -165t162.5 -69q96 0 163.5 69t67.5 165q0 95 -67.5 164t-163.5 69q-95 0 -162.5 -69t-67.5 -164zM353 522q0 31 -9 41.5t-31 10.5h-42v-106h27
q55 0 55 54zM476 302h-96q-20 20 -25 63q-5 42 -21 63q-15 16 -44 16h-19v-65q0 -25 3 -36q4 -14 12 -17q7 -3 24 -3v-21h-136v21q16 0 23 3q8 3 12 17q2 7 2 35v143q0 30 -2 37q-3 13 -12 16q-10 4 -23 4v22h150q44 0 67.5 -19.5t23.5 -54.5q0 -55 -77 -69v-6q36 -3 51 -15
t23 -53q3 -18 8.5 -29t9.5 -13.5t13 -7.5q13 -8 33 -10v-21z" />
    <glyph glyph-name="macron" unicode="&#xaf;" 
d="M356 606h-254v53h254v-53z" />
    <glyph glyph-name="degree" unicode="&#xb0;" horiz-adv-x="296" 
d="M266 577q0 -51 -33 -84t-85 -33t-85 33t-33 84q0 50 33.5 83t84.5 33t84.5 -33t33.5 -83zM220 577q0 36 -19.5 57.5t-52.5 21.5t-52.5 -21.5t-19.5 -57.5t19.5 -58t52.5 -22t52.5 22t19.5 58z" />
    <glyph glyph-name="acute" unicode="&#xb4;" 
d="M122 596l115 108q27 25 43.5 35t36.5 10t31.5 -13t11.5 -35q0 -35 -58 -61l-162 -72z" />
    <glyph glyph-name="mu" unicode="&#xb5;" horiz-adv-x="500" 
 />
    <glyph glyph-name="paragraph" unicode="&#xb6;" horiz-adv-x="614" 
d="M604 662h-92v-772h-42v772h-96v-772h-43v347h-40q-115 0 -178 68.5t-63 159.5t70 162t186 71h298v-36z" />
    <glyph glyph-name="periodcentered" unicode="&#xb7;" horiz-adv-x="256" 
d="M60 278q0 28 19 47.5t50 19.5q28 0 47.5 -20t19.5 -47q0 -30 -19 -49.5t-48 -19.5q-31 0 -50 19.5t-19 49.5z" />
    <glyph glyph-name="cedilla" unicode="&#xb8;" 
d="M326 -117q0 -86 -137 -86q-53 0 -92 27l18 30q35 -24 73 -24q63 0 63 50q0 46 -42 46q-24 0 -41 -14l-32 19l29 80h41l-23 -63q21 12 50 12q93 0 93 -77z" />
    <glyph glyph-name="ordmasculine" unicode="&#xba;" horiz-adv-x="426" 
d="M391 515q0 -90 -52 -139t-126 -49t-126 49t-52 139q0 89 52 138t126 49t126 -49t52 -138zM310 514q0 117 -52 148q-22 13 -45 13t-45 -13q-52 -31 -52 -148q0 -115 52 -146q22 -13 45 -13t45 13q52 31 52 146z" />
    <glyph glyph-name="guillemotright" unicode="&#xbb;" horiz-adv-x="453" 
d="M417 260v-27l-172 -149l-27 26l106 136l-106 137l27 26zM229 260v-27l-172 -149l-27 26l106 136l-106 137l27 26z" />
    <glyph glyph-name="onequarter" unicode="&#xbc;" horiz-adv-x="797" 
d="M258 283h-223v27q29 3 39 8q21 10 26 32q4 15 4 44v198q0 41 -4 55q-5 19 -20 25q-9 3 -56 6v28q67 4 111 18q42 12 46 12q10 0 10 -11q0 -1 -1 -49t-1 -80v-202q0 -29 4 -44q7 -23 26 -32q9 -5 39 -8v-27zM660 704l-500 -735l-35 22l501 737zM440 175h135v159h-6z
M729 27v-27h-223v27q29 3 39 8q21 10 26 32q4 15 4 44v33h-181v26l230 278h33q4 0 4 -5t-0.5 -28t-0.5 -36v-204h8q42 0 60 20q13 14 20 50h29v-171h-29q-6 36 -20 50q-18 20 -60 20h-8v-33q0 -29 4 -44q7 -23 26 -32q9 -5 39 -8z" />
    <glyph glyph-name="onehalf" unicode="&#xbd;" horiz-adv-x="855" 
d="M806 0h-316l-6 37l79 50q42 30 65 49.5t49 49.5t37.5 64.5t11.5 78.5q0 48 -19.5 70t-63.5 22q-31 0 -52 -11.5t-21 -27.5q0 -10 11 -32q6 -12 6 -29q0 -20 -13 -32.5t-35 -12.5q-24 0 -38.5 16.5t-14.5 42.5q0 52 48 86t126 34q70 0 114 -35.5t44 -88.5
q0 -60 -29.5 -101t-84.5 -81q-67 -48 -103 -70v-7h108q33 0 47.5 6t28.5 21q11 13 27 39h28q-14 -49 -34 -138zM258 283h-223v27q29 3 39 8q21 10 26 32q4 15 4 44v198q0 41 -4 55q-5 19 -20 25q-9 3 -56 6v28q67 4 111 18q42 12 46 12q10 0 10 -11q0 -1 -1 -49t-1 -80v-202
q0 -29 4 -44q7 -23 26 -32q9 -5 39 -8v-27zM660 704l-500 -735l-35 22l501 737z" />
    <glyph glyph-name="threequarters" unicode="&#xbe;" horiz-adv-x="847" 
d="M710 704l-500 -735l-35 22l501 737zM196 706q-31 0 -49 -9t-18 -22q0 -4 10 -29q5 -10 5 -26q0 -18 -11.5 -29t-31.5 -12q-22 1 -34.5 15.5t-12.5 38.5q0 42 41.5 73.5t102.5 31.5q63 0 106.5 -22.5t43.5 -71.5q0 -19 -7 -34.5t-25 -29.5t-31 -22t-43 -24v-5
q54 0 90.5 -25.5t36.5 -75.5q0 -64 -56 -109.5t-141 -45.5q-67 0 -105 28.5t-38 68.5q0 22 13 35.5t33 13.5q24 0 36 -17q9 -14 9 -31q0 -5 -2.5 -15.5t-2.5 -15.5q0 -35 57 -35q105 0 105 123q0 75 -56 75q-27 0 -52 -16l-26 -17l-16 25l63 42q41 27 57 48t16 59
q0 30 -18.5 46t-48.5 16zM490 175h135v159h-6zM779 27v-27h-223v27q29 3 39 8q21 10 26 32q4 15 4 44v33h-181v26l230 278h33q4 0 4 -5t-0.5 -28t-0.5 -36v-204h8q42 0 60 20q13 14 20 50h29v-171h-29q-6 36 -20 50q-18 20 -60 20h-8v-33q0 -29 4 -44q7 -23 26 -32
q9 -5 39 -8z" />
    <glyph glyph-name="questiondown" unicode="&#xbf;" horiz-adv-x="447" 
d="M254 451q0 30 19 49.5t48 19.5q31 0 50 -19.5t19 -49.5q0 -28 -19 -47.5t-50 -19.5q-28 0 -47.5 20t-19.5 47zM33 0q0 49 22.5 88.5t57 61.5t72 33.5t71.5 11.5h51v126h36v-163h-63q-68 0 -106.5 -57t-38.5 -146q0 -56 35.5 -89t85.5 -33q40 0 50 48q10 56 59 56
q54 0 54 -53q0 -33 -44 -60.5t-113 -27.5q-78 0 -134 33q-95 58 -95 171z" />
    <glyph glyph-name="Agrave" unicode="&#xc0;" horiz-adv-x="691" 
d="M454 787l-10 -32q-124 23 -175 34q-21 5 -33.5 9.5t-26 18t-13.5 32.5q0 21 13 34.5t33 13.5q15 0 29.5 -4.5t22.5 -9l33 -19.5zM295 525l-90 -247h193l-92 247h-11zM238 36v-36h-242v36q28 3 48 14q21 12 36 40t40 95l198 517h43l195 -521q19 -52 40 -84q21 -31 53 -48
q25 -10 37 -13v-36h-317v36q33 4 48 10q14 6 19.5 9.5t11 13t5.5 25.5q0 32 -24 99l-17 45h-222l-22 -61q-15 -40 -15 -76q0 -41 33 -55q20 -8 52 -10z" />
    <glyph glyph-name="Aacute" unicode="&#xc1;" horiz-adv-x="691" 
d="M224 787l127 77q48 29 67 32q9 1 18 1q20 0 33 -13.5t13 -34.5q0 -19 -13.5 -32.5t-26 -18t-33.5 -9.5q-51 -11 -175 -34zM295 525l-90 -247h193l-92 247h-11zM238 36v-36h-242v36q28 3 48 14q21 12 36 40t40 95l198 517h43l195 -521q19 -52 40 -84q21 -31 53 -48
q25 -10 37 -13v-36h-317v36q33 4 48 10q14 6 19.5 9.5t11 13t5.5 25.5q0 32 -24 99l-17 45h-222l-22 -61q-15 -40 -15 -76q0 -41 33 -55q20 -8 52 -10z" />
    <glyph glyph-name="Acircumflex" unicode="&#xc2;" horiz-adv-x="691" 
d="M295 525l-90 -247h193l-92 247h-11zM238 36v-36h-242v36q28 3 48 14q21 12 36 40t40 95l198 517h43l195 -521q19 -52 40 -84q21 -31 53 -48q25 -10 37 -13v-36h-317v36q33 4 48 10q14 6 19.5 9.5t11 13t5.5 25.5q0 32 -24 99l-17 45h-222l-22 -61q-15 -40 -15 -76
q0 -41 33 -55q20 -8 52 -10zM477 783l-19 -28l-122 63l-122 -63l-19 28l115 105h52z" />
    <glyph glyph-name="Atilde" unicode="&#xc3;" horiz-adv-x="691" 
d="M295 525l-90 -247h193l-92 247h-11zM238 36v-36h-242v36q28 3 48 14q21 12 36 40t40 95l198 517h43l195 -521q19 -52 40 -84q21 -31 53 -48q25 -10 37 -13v-36h-317v36q33 4 48 10q14 6 19.5 9.5t11 13t5.5 25.5q0 32 -24 99l-17 45h-222l-22 -61q-15 -40 -15 -76
q0 -41 33 -55q20 -8 52 -10zM503 863q-13 -43 -41 -71t-61 -28q-27 0 -64.5 14.5t-55.5 14.5q-16 0 -31 -12.5t-23 -32.5l-30 11q14 42 38.5 72t55.5 30q25 0 64 -14.5t60 -14.5q41 0 58 42z" />
    <glyph glyph-name="Adieresis" unicode="&#xc4;" horiz-adv-x="691" 
d="M295 525l-90 -247h193l-92 247h-11zM238 36v-36h-242v36q28 3 48 14q21 12 36 40t40 95l198 517h43l195 -521q19 -52 40 -84q21 -31 53 -48q25 -10 37 -13v-36h-317v36q33 4 48 10q14 6 19.5 9.5t11 13t5.5 25.5q0 32 -24 99l-17 45h-222l-22 -61q-15 -40 -15 -76
q0 -41 33 -55q20 -8 52 -10zM244 750q-24 0 -39.5 15t-15.5 41q0 25 15.5 40.5t39.5 15.5t39.5 -15.5t15.5 -40.5q0 -26 -15.5 -41t-39.5 -15zM445 750q-24 0 -39.5 15t-15.5 41q0 25 15.5 40.5t39.5 15.5t39.5 -15.5t15.5 -40.5q0 -26 -15.5 -41t-39.5 -15z" />
    <glyph glyph-name="Aring" unicode="&#xc5;" horiz-adv-x="691" 
d="M295 525l-90 -247h193l-92 247h-11zM238 36v-36h-242v36q28 3 48 14q21 12 36 40t40 95l198 517h43l195 -521q19 -52 40 -84q21 -31 53 -48q25 -10 37 -13v-36h-317v36q33 4 48 10q14 6 19.5 9.5t11 13t5.5 25.5q0 32 -24 99l-17 45h-222l-22 -61q-15 -40 -15 -76
q0 -41 33 -55q20 -8 52 -10zM426 830q0 -41 -26.5 -65t-63.5 -24t-63.5 24t-26.5 65t26.5 65.5t63.5 24.5t63.5 -24t26.5 -66zM279 830q0 -28 16 -44.5t41 -16.5t41 16.5t16 44.5q0 29 -16 45.5t-41 16.5t-41 -16.5t-16 -45.5z" />
    <glyph glyph-name="AE" unicode="&#xc6;" horiz-adv-x="924" 
d="M437 619h-8l-186 -321h194v321zM227 36v-36h-250v36q20 2 48 18q16 11 38 37q31 39 63 94l269 461q-6 4 -22 10q-15 5 -38 6v36h502l31 -173h-34q-16 30 -24 42.5t-21 28.5t-30 29q-44 37 -120 37h-29q-35 0 -49 -18q-12 -15 -12 -58v-207h46q65 0 93 27q13 12 20.5 27.5
t9.5 25.5t5 32h33v-261h-33q-7 62 -37 88q-25 24 -91 24h-46v-188q0 -76 22 -98q19 -20 79 -20h18q57 0 111 48q11 10 20 20.5t14.5 17.5t13 19.5t10 17t9.5 19.5t9 18h32l-31 -196h-521v36q24 2 38 7q33 10 49 40q15 31 15 110v65h-217l-46 -79q-29 -52 -29 -84
q0 -37 31 -49q18 -8 51 -10z" />
    <glyph glyph-name="Ccedilla" unicode="&#xc7;" horiz-adv-x="679" 
d="M505 -137q0 -86 -137 -86q-53 0 -92 27l18 30q35 -24 73 -24q63 0 63 50q0 46 -42 46q-24 0 -41 -14l-32 19l27 76q-138 7 -221.5 107t-83.5 255t100 258.5t234 103.5q124 0 188 -58h8l34 46h22v-239h-38q-22 92 -67 146q-29 35 -58 49.5t-89 14.5q-56 0 -99 -25
q-114 -68 -114 -296q0 -120 26 -178.5t76 -92.5q29 -20 57 -27.5t75 -7.5q157 0 224 131l30 -17q-80 -162 -263 -170l-21 -59q21 12 50 12q93 0 93 -77z" />
    <glyph glyph-name="Egrave" unicode="&#xc8;" horiz-adv-x="644" 
d="M446 787l-10 -32q-124 23 -175 34q-21 5 -33.5 9.5t-26 18t-13.5 32.5q0 21 13 34.5t33 13.5q15 0 29.5 -4.5t22.5 -9l33 -19.5zM607 196l-31 -196h-541v36q24 2 38 7q33 10 49 40q15 31 15 110v312q0 79 -15 111q-15 28 -49 40q-15 5 -38 6v36h522l31 -173h-34
q-16 30 -24 42.5t-21 28.5t-30 29q-44 37 -120 37h-49q-35 0 -49 -18q-12 -15 -12 -58v-207h46q65 0 93 27q13 12 20.5 27.5t9.5 25.5t5 32h33v-261h-33q-7 62 -37 88q-25 24 -91 24h-46v-188q0 -76 22 -98q19 -20 79 -20h18q50 0 77 12t54 36q11 10 20 20.5t14.5 17.5
t13 19.5t10 17t9.5 19.5t9 18h32z" />
    <glyph glyph-name="Eacute" unicode="&#xc9;" horiz-adv-x="644" 
d="M607 196l-31 -196h-541v36q24 2 38 7q33 10 49 40q15 31 15 110v312q0 79 -15 111q-15 28 -49 40q-15 5 -38 6v36h522l31 -173h-34q-16 30 -24 42.5t-21 28.5t-30 29q-44 37 -120 37h-49q-35 0 -49 -18q-12 -15 -12 -58v-207h46q65 0 93 27q13 12 20.5 27.5t9.5 25.5
t5 32h33v-261h-33q-7 62 -37 88q-25 24 -91 24h-46v-188q0 -76 22 -98q19 -20 79 -20h18q50 0 77 12t54 36q11 10 20 20.5t14.5 17.5t13 19.5t10 17t9.5 19.5t9 18h32zM237 787l127 77q48 29 67 32q9 1 18 1q20 0 33 -13.5t13 -34.5q0 -19 -13.5 -32.5t-26 -18t-33.5 -9.5
q-51 -11 -175 -34z" />
    <glyph glyph-name="Ecircumflex" unicode="&#xca;" horiz-adv-x="644" 
d="M607 196l-31 -196h-541v36q24 2 38 7q33 10 49 40q15 31 15 110v312q0 79 -15 111q-15 28 -49 40q-15 5 -38 6v36h522l31 -173h-34q-16 30 -24 42.5t-21 28.5t-30 29q-44 37 -120 37h-49q-35 0 -49 -18q-12 -15 -12 -58v-207h46q65 0 93 27q13 12 20.5 27.5t9.5 25.5
t5 32h33v-261h-33q-7 62 -37 88q-25 24 -91 24h-46v-188q0 -76 22 -98q19 -20 79 -20h18q50 0 77 12t54 36q11 10 20 20.5t14.5 17.5t13 19.5t10 17t9.5 19.5t9 18h32zM469 783l-19 -28l-122 63l-122 -63l-19 28l115 105h52z" />
    <glyph glyph-name="Edieresis" unicode="&#xcb;" horiz-adv-x="644" 
d="M607 196l-31 -196h-541v36q24 2 38 7q33 10 49 40q15 31 15 110v312q0 79 -15 111q-15 28 -49 40q-15 5 -38 6v36h522l31 -173h-34q-16 30 -24 42.5t-21 28.5t-30 29q-44 37 -120 37h-49q-35 0 -49 -18q-12 -15 -12 -58v-207h46q65 0 93 27q13 12 20.5 27.5t9.5 25.5
t5 32h33v-261h-33q-7 62 -37 88q-25 24 -91 24h-46v-188q0 -76 22 -98q19 -20 79 -20h18q50 0 77 12t54 36q11 10 20 20.5t14.5 17.5t13 19.5t10 17t9.5 19.5t9 18h32zM218 750q-24 0 -39.5 15t-15.5 41q0 25 15.5 40.5t39.5 15.5t39.5 -15.5t15.5 -40.5q0 -26 -15.5 -41
t-39.5 -15zM419 750q-24 0 -39.5 15t-15.5 41q0 25 15.5 40.5t39.5 15.5t39.5 -15.5t15.5 -40.5q0 -26 -15.5 -41t-39.5 -15z" />
    <glyph glyph-name="Igrave" unicode="&#xcc;" horiz-adv-x="387" 
d="M250 505v-312q0 -79 15 -110q15 -27 49 -40q14 -5 38 -7v-36h-317v36q23 1 38 7q34 12 49 40q15 31 15 110v312q0 79 -15 111q-17 31 -49 40q-15 5 -38 6v36h317v-36q-23 -1 -38 -6q-33 -10 -49 -40q-15 -32 -15 -111zM324 787l-10 -32q-124 23 -175 34q-21 5 -33.5 9.5
t-26 18t-13.5 32.5q0 21 13 34.5t33 13.5q15 0 29.5 -4.5t22.5 -9l33 -19.5z" />
    <glyph glyph-name="Iacute" unicode="&#xcd;" horiz-adv-x="387" 
d="M250 505v-312q0 -79 15 -110q15 -27 49 -40q14 -5 38 -7v-36h-317v36q23 1 38 7q34 12 49 40q15 31 15 110v312q0 79 -15 111q-17 31 -49 40q-15 5 -38 6v36h317v-36q-23 -1 -38 -6q-33 -10 -49 -40q-15 -32 -15 -111zM78 787l127 77q48 29 67 32q9 1 18 1q20 0 33 -13.5
t13 -34.5q0 -19 -13.5 -32.5t-26 -18t-33.5 -9.5q-51 -11 -175 -34z" />
    <glyph glyph-name="Icircumflex" unicode="&#xce;" horiz-adv-x="387" 
d="M250 505v-312q0 -79 15 -110q15 -27 49 -40q14 -5 38 -7v-36h-317v36q23 1 38 7q34 12 49 40q15 31 15 110v312q0 79 -15 111q-17 31 -49 40q-15 5 -38 6v36h317v-36q-23 -1 -38 -6q-33 -10 -49 -40q-15 -32 -15 -111zM334 783l-19 -28l-122 63l-122 -63l-19 28l115 105
h52z" />
    <glyph glyph-name="Idieresis" unicode="&#xcf;" horiz-adv-x="387" 
d="M93 750q-24 0 -39.5 15t-15.5 41q0 25 15.5 40.5t39.5 15.5t39.5 -15.5t15.5 -40.5q0 -26 -15.5 -41t-39.5 -15zM294 750q-24 0 -39.5 15t-15.5 41q0 25 15.5 40.5t39.5 15.5t39.5 -15.5t15.5 -40.5q0 -26 -15.5 -41t-39.5 -15zM250 505v-312q0 -79 15 -110
q15 -27 49 -40q14 -5 38 -7v-36h-317v36q23 1 38 7q34 12 49 40q15 31 15 110v312q0 79 -15 111q-17 31 -49 40q-15 5 -38 6v36h317v-36q-23 -1 -38 -6q-33 -10 -49 -40q-15 -32 -15 -111z" />
    <glyph glyph-name="Eth" unicode="&#xd0;" horiz-adv-x="748" 
d="M36 335v40h101v130q0 79 -15 111q-15 28 -49 40q-15 5 -38 6v36h313q116 0 190 -42q78 -43 126.5 -121t48.5 -185q0 -215 -169 -309q-75 -41 -169 -41h-340v36q24 2 38 7q33 10 49 40q15 31 15 110v142h-101zM598 348q0 184 -94 266q-55 48 -160 48h-66q-15 0 -22 -7
q-6 -6 -6 -25v-255h159v-40h-159v-181q0 -76 22 -98q19 -20 79 -20h14q87 0 143 53q90 88 90 259z" />
    <glyph glyph-name="Ntilde" unicode="&#xd1;" horiz-adv-x="773" 
d="M654 -8h-51l-396 579h-10v-401q0 -67 19 -94q16 -23 44 -32q19 -6 43 -8v-36h-265v36q24 2 40 6q26 7 46 31q25 28 25 97v291q0 94 -21 138q-15 32 -59 54q-15 7 -40 9v36h228l340 -504h9v333q0 73 -23 99q-19 21 -48 29q-13 5 -45 7v36h270v-36q-18 -2 -43 -9
q-27 -7 -43 -32q-20 -26 -20 -94v-535zM582 863q-13 -43 -41 -71t-61 -28q-27 0 -64.5 14.5t-55.5 14.5q-16 0 -31 -12.5t-23 -32.5l-30 11q14 42 38.5 72t55.5 30q25 0 64 -14.5t60 -14.5q41 0 58 42z" />
    <glyph glyph-name="Ograve" unicode="&#xd2;" horiz-adv-x="746" 
d="M373 711q140 0 238 -103t98 -259q0 -157 -98 -260t-238 -103t-238 103t-98 260q0 156 98 259t238 103zM373 27q58 0 104 29q110 71 110 293q0 221 -110 292q-46 29 -104 29t-104 -29q-109 -71 -109 -292q0 -222 109 -293q46 -29 104 -29zM503 787l-10 -32
q-124 23 -175 34q-21 5 -33.5 9.5t-26 18t-13.5 32.5q0 21 13 34.5t33 13.5q15 0 29.5 -4.5t22.5 -9l33 -19.5z" />
    <glyph glyph-name="Oacute" unicode="&#xd3;" horiz-adv-x="746" 
d="M373 711q140 0 238 -103t98 -259q0 -157 -98 -260t-238 -103t-238 103t-98 260q0 156 98 259t238 103zM373 27q58 0 104 29q110 71 110 293q0 221 -110 292q-46 29 -104 29t-104 -29q-109 -71 -109 -292q0 -222 109 -293q46 -29 104 -29zM252 787l127 77q48 29 67 32
q9 1 18 1q20 0 33 -13.5t13 -34.5q0 -19 -13.5 -32.5t-26 -18t-33.5 -9.5q-51 -11 -175 -34z" />
    <glyph glyph-name="Ocircumflex" unicode="&#xd4;" horiz-adv-x="746" 
d="M373 711q140 0 238 -103t98 -259q0 -157 -98 -260t-238 -103t-238 103t-98 260q0 156 98 259t238 103zM373 27q58 0 104 29q110 71 110 293q0 221 -110 292q-46 29 -104 29t-104 -29q-109 -71 -109 -292q0 -222 109 -293q46 -29 104 -29zM511 783l-19 -28l-122 63
l-122 -63l-19 28l115 105h52z" />
    <glyph glyph-name="Otilde" unicode="&#xd5;" horiz-adv-x="746" 
d="M373 711q140 0 238 -103t98 -259q0 -157 -98 -260t-238 -103t-238 103t-98 260q0 156 98 259t238 103zM373 27q58 0 104 29q110 71 110 293q0 221 -110 292q-46 29 -104 29t-104 -29q-109 -71 -109 -292q0 -222 109 -293q46 -29 104 -29zM527 863q-13 -43 -41 -71
t-61 -28q-27 0 -64.5 14.5t-55.5 14.5q-16 0 -31 -12.5t-23 -32.5l-30 11q14 42 38.5 72t55.5 30q25 0 64 -14.5t60 -14.5q41 0 58 42z" />
    <glyph glyph-name="Odieresis" unicode="&#xd6;" horiz-adv-x="746" 
d="M373 711q140 0 238 -103t98 -259q0 -157 -98 -260t-238 -103t-238 103t-98 260q0 156 98 259t238 103zM373 27q58 0 104 29q110 71 110 293q0 221 -110 292q-46 29 -104 29t-104 -29q-109 -71 -109 -292q0 -222 109 -293q46 -29 104 -29zM267 750q-24 0 -39.5 15
t-15.5 41q0 25 15.5 40.5t39.5 15.5t39.5 -15.5t15.5 -40.5q0 -26 -15.5 -41t-39.5 -15zM468 750q-24 0 -39.5 15t-15.5 41q0 25 15.5 40.5t39.5 15.5t39.5 -15.5t15.5 -40.5q0 -26 -15.5 -41t-39.5 -15z" />
    <glyph glyph-name="multiply" unicode="&#xd7;" horiz-adv-x="469" 
d="M379 131l-144 144l-144 -144l-30 29l145 145l-145 144l30 29l144 -144l144 144l29 -30l-143 -143l143 -144z" />
    <glyph glyph-name="Oslash" unicode="&#xd8;" horiz-adv-x="746" 
d="M160 349q0 -151 47 -228l300 497q-10 9 -30 23q-46 29 -104 29t-104 -29q-109 -71 -109 -292zM373 27q58 0 104 29q110 71 110 293q0 157 -53 236l-301 -499q18 -18 36 -30q46 -29 104 -29zM373 -14q-92 0 -171 48l-56 -93l-36 19l59 98q-62 49 -97 124.5t-35 166.5
q0 156 98 259t238 103q88 0 163 -44l57 94l35 -20l-58 -96q65 -49 102 -126t37 -170q0 -157 -98 -260t-238 -103z" />
    <glyph glyph-name="Ugrave" unicode="&#xd9;" horiz-adv-x="752" 
d="M638 234q0 -105 -38 -162q-56 -85 -214 -85q-90 0 -161.5 32.5t-96.5 97.5q-19 49 -19 146v242q0 81 -15 110q-14 29 -48 41q-15 4 -39 6v36h318v-36q-25 -2 -38 -6q-34 -12 -49 -41q-16 -31 -16 -109v-282q0 -53 14 -96q30 -99 159 -99t169 67q27 45 27 132v299
q0 72 -24 99q-19 21 -47 30q-15 4 -45 6v36h269v-36q-26 -3 -43 -8q-28 -9 -44 -32q-19 -25 -19 -95v-293zM521 787l-10 -32q-124 23 -175 34q-21 5 -33.5 9.5t-26 18t-13.5 32.5q0 21 13 34.5t33 13.5q15 0 29.5 -4.5t22.5 -9l33 -19.5z" />
    <glyph glyph-name="Uacute" unicode="&#xda;" horiz-adv-x="752" 
d="M638 234q0 -105 -38 -162q-56 -85 -214 -85q-90 0 -161.5 32.5t-96.5 97.5q-19 49 -19 146v242q0 81 -15 110q-14 29 -48 41q-15 4 -39 6v36h318v-36q-25 -2 -38 -6q-34 -12 -49 -41q-16 -31 -16 -109v-282q0 -53 14 -96q30 -99 159 -99t169 67q27 45 27 132v299
q0 72 -24 99q-19 21 -47 30q-15 4 -45 6v36h269v-36q-26 -3 -43 -8q-28 -9 -44 -32q-19 -25 -19 -95v-293zM292 787l127 77q48 29 67 32q9 1 18 1q20 0 33 -13.5t13 -34.5q0 -19 -13.5 -32.5t-26 -18t-33.5 -9.5q-51 -11 -175 -34z" />
    <glyph glyph-name="Ucircumflex" unicode="&#xdb;" horiz-adv-x="752" 
d="M638 234q0 -105 -38 -162q-56 -85 -214 -85q-90 0 -161.5 32.5t-96.5 97.5q-19 49 -19 146v242q0 81 -15 110q-14 29 -48 41q-15 4 -39 6v36h318v-36q-25 -2 -38 -6q-34 -12 -49 -41q-16 -31 -16 -109v-282q0 -53 14 -96q30 -99 159 -99t169 67q27 45 27 132v299
q0 72 -24 99q-19 21 -47 30q-15 4 -45 6v36h269v-36q-26 -3 -43 -8q-28 -9 -44 -32q-19 -25 -19 -95v-293zM542 783l-19 -28l-122 63l-122 -63l-19 28l115 105h52z" />
    <glyph glyph-name="Udieresis" unicode="&#xdc;" horiz-adv-x="752" 
d="M638 234q0 -105 -38 -162q-56 -85 -214 -85q-90 0 -161.5 32.5t-96.5 97.5q-19 49 -19 146v242q0 81 -15 110q-14 29 -48 41q-15 4 -39 6v36h318v-36q-25 -2 -38 -6q-34 -12 -49 -41q-16 -31 -16 -109v-282q0 -53 14 -96q30 -99 159 -99t169 67q27 45 27 132v299
q0 72 -24 99q-19 21 -47 30q-15 4 -45 6v36h269v-36q-26 -3 -43 -8q-28 -9 -44 -32q-19 -25 -19 -95v-293zM303 750q-24 0 -39.5 15t-15.5 41q0 25 15.5 40.5t39.5 15.5t39.5 -15.5t15.5 -40.5q0 -26 -15.5 -41t-39.5 -15zM504 750q-24 0 -39.5 15t-15.5 41q0 25 15.5 40.5
t39.5 15.5t39.5 -15.5t15.5 -40.5q0 -26 -15.5 -41t-39.5 -15z" />
    <glyph glyph-name="Yacute" unicode="&#xdd;" horiz-adv-x="646" 
d="M262 298l-156 257q-33 59 -56.5 79.5t-57.5 27.5v36h307v-36q-37 -3 -54 -8q-22 -8 -28.5 -23.5t0.5 -36.5t26 -52l112 -185h6l98 167q33 54 33 92q0 29 -27 39q-11 4 -43 7v36h230v-36q-49 -6 -76.5 -35.5t-72.5 -110.5l-128 -219v-104q0 -81 14 -110q15 -27 49 -40
q14 -6 38 -7v-36h-316v36q21 1 38 7q33 11 49 40q15 29 15 110v105zM228 787l127 77q48 29 67 32q9 1 18 1q20 0 33 -13.5t13 -34.5q0 -19 -13.5 -32.5t-26 -18t-33.5 -9.5q-51 -11 -175 -34z" />
    <glyph glyph-name="Thorn" unicode="&#xde;" horiz-adv-x="599" 
d="M352 36v-36h-317v36q23 1 38 7q34 12 49 40q15 31 15 110v312q0 79 -15 111q-17 31 -49 40q-15 5 -38 6v36h317v-36q-23 -1 -38 -6q-33 -10 -49 -40q-13 -28 -14 -71h77q114 0 182.5 -42t68.5 -126q0 -57 -19 -91.5t-59 -59.5q-61 -39 -188 -39h-63q0 -74 15 -104
q15 -27 49 -40q14 -5 38 -7zM250 479v-253h69q92 0 125 45q26 36 26 101q0 71 -34 103.5t-113 32.5h-44q-17 0 -23 -7q-6 -8 -6 -22z" />
    <glyph glyph-name="germandbls" unicode="&#xdf;" horiz-adv-x="653" 
d="M638 142q0 -70 -44 -111t-114 -41t-109 59h-9l-16 -47h-28l-6 181h33q43 -155 135 -155q74 0 74 76q0 7 -1.5 13t-3 11t-6.5 11t-8 10t-11 9.5t-12.5 9t-15 10l-16.5 10l-19.5 11.5l-20.5 12q-64 38 -98 72t-34 85q0 21 5.5 39t18 34t20.5 25t27.5 25.5t24.5 21.5
q46 41 46 105q0 102 -111 102q-54 0 -92.5 -33.5t-38.5 -111.5v-437q0 -39 4 -53q8 -31 32 -43q16 -6 42 -8v-34h-256v34q21 2 38 8q28 14 35 43q3 14 3 53v325h-78v42h78v46q0 106 79 162q65 46 154 46q93 0 146 -35t53 -91q0 -23 -6 -42t-19.5 -35t-23.5 -26t-29.5 -25
t-25.5 -21q-17 -15 -24.5 -23t-14.5 -21t-7 -27q0 -33 14.5 -49t71.5 -51l13 -8l43 -25t44.5 -27.5t30.5 -26.5t26 -38t7 -46z" />
    <glyph glyph-name="agrave" unicode="&#xe0;" horiz-adv-x="500" 
d="M492 14q-10 -7 -38 -15.5t-55 -8.5q-37 0 -57 13q-23 16 -29 63h-11q-14 -28 -46.5 -52t-86.5 -24q-65 0 -102 33.5t-37 96.5q0 55 38 90q25 22 50.5 33t76.5 26q85 24 104 55v89q0 36 -14 51.5t-47 15.5q-32 0 -54 -13q-22 -16 -28 -54q-7 -49 -50 -49q-20 0 -33 12.5
t-13 33.5q0 31 23 54q21 22 62.5 38t91.5 16q81 0 122.5 -24.5t41.5 -82.5v-276q0 -61 10 -79q9 -19 35 -19q23 0 37 7zM299 282q-12 -13 -72 -39q-58 -27 -72 -44q-28 -34 -28 -75q0 -44 22 -63t54 -19q35 0 60.5 18.5t35.5 50.5v171zM349 596l-18 -28l-162 72
q-58 26 -58 61q0 22 11.5 35t31.5 13t36.5 -10t43.5 -35z" />
    <glyph glyph-name="aacute" unicode="&#xe1;" horiz-adv-x="500" 
d="M492 14q-10 -7 -38 -15.5t-55 -8.5q-37 0 -57 13q-23 16 -29 63h-11q-14 -28 -46.5 -52t-86.5 -24q-65 0 -102 33.5t-37 96.5q0 55 38 90q25 22 50.5 33t76.5 26q85 24 104 55v89q0 36 -14 51.5t-47 15.5q-32 0 -54 -13q-22 -16 -28 -54q-7 -49 -50 -49q-20 0 -33 12.5
t-13 33.5q0 31 23 54q21 22 62.5 38t91.5 16q81 0 122.5 -24.5t41.5 -82.5v-276q0 -61 10 -79q9 -19 35 -19q23 0 37 7zM299 282q-12 -13 -72 -39q-58 -27 -72 -44q-28 -34 -28 -75q0 -44 22 -63t54 -19q35 0 60.5 18.5t35.5 50.5v171zM118 596l115 108q27 25 43.5 35
t36.5 10t31.5 -13t11.5 -35q0 -35 -58 -61l-162 -72z" />
    <glyph glyph-name="acircumflex" unicode="&#xe2;" horiz-adv-x="500" 
d="M492 14q-10 -7 -38 -15.5t-55 -8.5q-37 0 -57 13q-23 16 -29 63h-11q-14 -28 -46.5 -52t-86.5 -24q-65 0 -102 33.5t-37 96.5q0 55 38 90q25 22 50.5 33t76.5 26q85 24 104 55v89q0 36 -14 51.5t-47 15.5q-32 0 -54 -13q-22 -16 -28 -54q-7 -49 -50 -49q-20 0 -33 12.5
t-13 33.5q0 31 23 54q21 22 62.5 38t91.5 16q81 0 122.5 -24.5t41.5 -82.5v-276q0 -61 10 -79q9 -19 35 -19q23 0 37 7zM299 282q-12 -13 -72 -39q-58 -27 -72 -44q-28 -34 -28 -75q0 -44 22 -63t54 -19q35 0 60.5 18.5t35.5 50.5v171zM373 585l-27 -25l-112 87l-112 -87
l-27 25l115 132h48z" />
    <glyph glyph-name="atilde" unicode="&#xe3;" horiz-adv-x="500" 
d="M492 14q-10 -7 -38 -15.5t-55 -8.5q-37 0 -57 13q-23 16 -29 63h-11q-14 -28 -46.5 -52t-86.5 -24q-65 0 -102 33.5t-37 96.5q0 55 38 90q25 22 50.5 33t76.5 26q85 24 104 55v89q0 36 -14 51.5t-47 15.5q-32 0 -54 -13q-22 -16 -28 -54q-7 -49 -50 -49q-20 0 -33 12.5
t-13 33.5q0 31 23 54q21 22 62.5 38t91.5 16q81 0 122.5 -24.5t41.5 -82.5v-276q0 -61 10 -79q9 -19 35 -19q23 0 37 7zM299 282q-12 -13 -72 -39q-58 -27 -72 -44q-28 -34 -28 -75q0 -44 22 -63t54 -19q35 0 60.5 18.5t35.5 50.5v171zM390 703q-13 -43 -41 -71t-61 -28
q-27 0 -64.5 14.5t-55.5 14.5q-16 0 -31 -12.5t-23 -32.5l-30 11q14 42 38.5 72t55.5 30q25 0 64 -14.5t60 -14.5q41 0 58 42z" />
    <glyph glyph-name="adieresis" unicode="&#xe4;" horiz-adv-x="500" 
d="M492 14q-10 -7 -38 -15.5t-55 -8.5q-37 0 -57 13q-23 16 -29 63h-11q-14 -28 -46.5 -52t-86.5 -24q-65 0 -102 33.5t-37 96.5q0 55 38 90q25 22 50.5 33t76.5 26q85 24 104 55v89q0 36 -14 51.5t-47 15.5q-32 0 -54 -13q-22 -16 -28 -54q-7 -49 -50 -49q-20 0 -33 12.5
t-13 33.5q0 31 23 54q21 22 62.5 38t91.5 16q81 0 122.5 -24.5t41.5 -82.5v-276q0 -61 10 -79q9 -19 35 -19q23 0 37 7zM299 282q-12 -13 -72 -39q-58 -27 -72 -44q-28 -34 -28 -75q0 -44 22 -63t54 -19q35 0 60.5 18.5t35.5 50.5v171zM142 591q-22 0 -37.5 15t-15.5 39
t15.5 39t37.5 15t37.5 -15t15.5 -39t-15.5 -39t-37.5 -15zM325 591q-22 0 -37.5 15t-15.5 39t15.5 39t37.5 15t37.5 -15t15.5 -39t-15.5 -39t-37.5 -15z" />
    <glyph glyph-name="aring" unicode="&#xe5;" horiz-adv-x="500" 
d="M492 14q-10 -7 -38 -15.5t-55 -8.5q-37 0 -57 13q-23 16 -29 63h-11q-14 -28 -46.5 -52t-86.5 -24q-65 0 -102 33.5t-37 96.5q0 55 38 90q25 22 50.5 33t76.5 26q85 24 104 55v89q0 36 -14 51.5t-47 15.5q-32 0 -54 -13q-22 -16 -28 -54q-7 -49 -50 -49q-20 0 -33 12.5
t-13 33.5q0 31 23 54q21 22 62.5 38t91.5 16q81 0 122.5 -24.5t41.5 -82.5v-276q0 -61 10 -79q9 -19 35 -19q23 0 37 7zM299 282q-12 -13 -72 -39q-58 -27 -72 -44q-28 -34 -28 -75q0 -44 22 -63t54 -19q35 0 60.5 18.5t35.5 50.5v171zM323 655q0 -41 -26.5 -65t-63.5 -24
t-63.5 24t-26.5 65t26.5 65.5t63.5 24.5t63.5 -24t26.5 -66zM176 655q0 -28 16 -44.5t41 -16.5t41 16.5t16 44.5q0 29 -16 45.5t-41 16.5t-41 -16.5t-16 -45.5z" />
    <glyph glyph-name="ae" unicode="&#xe6;" horiz-adv-x="768" 
d="M524 -10q-90 0 -155 63q-20 19 -40 53h-6q-17 -60 -60 -87t-98 -27q-58 0 -96.5 34.5t-38.5 95.5q0 56 37 89q25 22 50.5 33t76.5 26q84 23 104 55v92q0 65 -58 65q-37 0 -57 -14q-23 -15 -28 -55q-7 -46 -52 -46q-19 0 -31.5 13t-12.5 33q0 31 21 52q21 22 65.5 37.5
t92.5 15.5q85 0 131 -60h8q21 25 64.5 42.5t82.5 17.5q53 0 94 -18t64 -47t34.5 -61t11.5 -64q0 -40 -3 -58h-326q0 -143 51 -195q38 -41 93 -41q65 0 102 32.5t59 86.5l30 -14q-25 -68 -79 -108.5t-131 -40.5zM628 359q0 67 -27 98q-26 28 -76 28q-46 0 -74 -27
q-41 -38 -50 -151h188q22 0 30.5 11t8.5 41zM299 280q-8 -9 -76 -39q-57 -25 -72 -44q-23 -30 -23 -70q0 -44 20.5 -64t51.5 -20q32 0 60.5 24t38.5 57v156z" />
    <glyph glyph-name="ccedilla" unicode="&#xe7;" horiz-adv-x="508" 
d="M426 -117q0 -86 -137 -86q-53 0 -92 27l18 30q35 -24 73 -24q63 0 63 50q0 46 -42 46q-24 0 -41 -14l-32 19l21 60q-73 4 -130 49q-93 71 -93 215q0 118 73 190.5t177 72.5q110 0 165 -57q23 -26 23 -53q0 -54 -48 -54q-26 0 -39 15.5t-22 47.5q-10 35 -27 49t-52 14
q-46 0 -76 -24q-67 -51 -67 -201q0 -140 70 -195q33 -25 76 -25q124 0 165 112l35 -13q-18 -61 -67 -99t-122 -44l-15 -43q21 12 50 12q93 0 93 -77z" />
    <glyph glyph-name="egrave" unicode="&#xe8;" horiz-adv-x="523" 
d="M489 139q-25 -68 -79 -108.5t-131 -40.5q-96 0 -160 57q-85 75 -85 207q0 113 73 188.5t170 75.5q103 0 156 -59t53 -130q0 -34 -4 -58h-337v-17q0 -127 51 -181q37 -39 100 -39q114 0 163 119zM203 452q-47 -47 -56 -144h202q18 0 26 11.5t8 40.5q0 62 -25 90
q-25 29 -80 29q-45 0 -75 -27zM380 596l-18 -28l-162 72q-58 26 -58 61q0 22 11.5 35t31.5 13t36.5 -10t43.5 -35z" />
    <glyph glyph-name="eacute" unicode="&#xe9;" horiz-adv-x="523" 
d="M489 139q-25 -68 -79 -108.5t-131 -40.5q-96 0 -160 57q-85 75 -85 207q0 113 73 188.5t170 75.5q103 0 156 -59t53 -130q0 -34 -4 -58h-337v-17q0 -127 51 -181q37 -39 100 -39q114 0 163 119zM203 452q-47 -47 -56 -144h202q18 0 26 11.5t8 40.5q0 62 -25 90
q-25 29 -80 29q-45 0 -75 -27zM159 596l115 108q27 25 43.5 35t36.5 10t31.5 -13t11.5 -35q0 -35 -58 -61l-162 -72z" />
    <glyph glyph-name="ecircumflex" unicode="&#xea;" horiz-adv-x="523" 
d="M489 139q-25 -68 -79 -108.5t-131 -40.5q-96 0 -160 57q-85 75 -85 207q0 113 73 188.5t170 75.5q103 0 156 -59t53 -130q0 -34 -4 -58h-337v-17q0 -127 51 -181q37 -39 100 -39q114 0 163 119zM203 452q-47 -47 -56 -144h202q18 0 26 11.5t8 40.5q0 62 -25 90
q-25 29 -80 29q-45 0 -75 -27zM410 585l-27 -25l-112 87l-112 -87l-27 25l115 132h48z" />
    <glyph glyph-name="edieresis" unicode="&#xeb;" horiz-adv-x="523" 
d="M489 139q-25 -68 -79 -108.5t-131 -40.5q-96 0 -160 57q-85 75 -85 207q0 113 73 188.5t170 75.5q103 0 156 -59t53 -130q0 -34 -4 -58h-337v-17q0 -127 51 -181q37 -39 100 -39q114 0 163 119zM203 452q-47 -47 -56 -144h202q18 0 26 11.5t8 40.5q0 62 -25 90
q-25 29 -80 29q-45 0 -75 -27zM182 591q-22 0 -37.5 15t-15.5 39t15.5 39t37.5 15t37.5 -15t15.5 -39t-15.5 -39t-37.5 -15zM365 591q-22 0 -37.5 15t-15.5 39t15.5 39t37.5 15t37.5 -15t15.5 -39t-15.5 -39t-37.5 -15z" />
    <glyph glyph-name="igrave" unicode="&#xec;" horiz-adv-x="302" 
d="M204 384v-246q0 -39 4 -53q7 -30 35 -43q17 -6 37 -8v-34h-251v34q18 1 36 8q28 14 35 43q3 14 3 53v232q0 43 -3 54q-6 19 -22 28q-20 12 -53 19v34h175q7 0 7 -8q-3 -84 -3 -113zM250 596l-18 -28l-162 72q-58 26 -58 61q0 22 11.5 35t31.5 13t36.5 -10t43.5 -35z" />
    <glyph glyph-name="iacute" unicode="&#xed;" horiz-adv-x="302" 
d="M204 384v-246q0 -39 4 -53q7 -30 35 -43q17 -6 37 -8v-34h-251v34q18 1 36 8q28 14 35 43q3 14 3 53v232q0 43 -3 54q-6 19 -22 28q-20 12 -53 19v34h175q7 0 7 -8q-3 -84 -3 -113zM11 596l115 108q27 25 43.5 35t36.5 10t31.5 -13t11.5 -35q0 -35 -58 -61l-162 -72z" />
    <glyph glyph-name="icircumflex" unicode="&#xee;" horiz-adv-x="302" 
d="M204 384v-246q0 -39 4 -53q7 -30 35 -43q17 -6 37 -8v-34h-251v34q18 1 36 8q28 14 35 43q3 14 3 53v232q0 43 -3 54q-6 19 -22 28q-20 12 -53 19v34h175q7 0 7 -8q-3 -84 -3 -113zM264 585l-27 -25l-112 87l-112 -87l-27 25l115 132h48z" />
    <glyph glyph-name="idieresis" unicode="&#xef;" horiz-adv-x="302" 
d="M204 384v-246q0 -39 4 -53q7 -30 35 -43q17 -6 37 -8v-34h-251v34q18 1 36 8q28 14 35 43q3 14 3 53v232q0 43 -3 54q-6 19 -22 28q-20 12 -53 19v34h175q7 0 7 -8q-3 -84 -3 -113zM28 591q-22 0 -37.5 15t-15.5 39t15.5 39t37.5 15t37.5 -15t15.5 -39t-15.5 -39
t-37.5 -15zM211 591q-22 0 -37.5 15t-15.5 39t15.5 39t37.5 15t37.5 -15t15.5 -39t-15.5 -39t-37.5 -15z" />
    <glyph glyph-name="eth" unicode="&#xf0;" horiz-adv-x="552" 
d="M274 -10q-108 0 -177 72.5t-69 192.5q0 118 72.5 190.5t173.5 72.5q74 0 111 -36h4q-32 82 -85 140l-132 -66l-20 35l121 60q-51 43 -130 79l20 35q90 -39 160 -89l147 73l19 -35l-132 -66q167 -142 167 -362q0 -145 -69 -220.5t-181 -75.5zM415 263q4 115 -51 180
q-31 36 -90 36q-51 0 -83 -33q-53 -54 -53 -191q0 -129 52 -190q31 -36 84 -36q55 0 85 35q53 64 56 199z" />
    <glyph glyph-name="ntilde" unicode="&#xf1;" horiz-adv-x="624" 
d="M527 138q0 -39 3 -53q7 -30 35 -43q17 -6 37 -8v-34h-249v34q18 1 38 8q24 12 32 43q3 14 3 53v238q0 44 -22 66q-18 17 -58 17q-75 0 -111 -51q-29 -38 -29 -102v-168q0 -39 4 -53q8 -31 32 -43q18 -7 36 -8v-34h-249v34q21 2 38 8q28 14 35 43q3 14 3 53v232
q0 43 -3 54q-6 19 -22 28q-19 11 -55 19v34h170q7 0 7 -8l-2 -74h12q26 40 63 63q47 32 110 32q58 0 93 -25q49 -35 49 -107v-248zM465 703q-13 -43 -41 -71t-61 -28q-27 0 -64.5 14.5t-55.5 14.5q-16 0 -31 -12.5t-23 -32.5l-30 11q14 42 38.5 72t55.5 30q25 0 64 -14.5
t60 -14.5q41 0 58 42z" />
    <glyph glyph-name="ograve" unicode="&#xf2;" horiz-adv-x="566" 
d="M34 255q0 118 72.5 190.5t176.5 72.5t176.5 -72.5t72.5 -190.5q0 -119 -73 -192t-176 -73t-176 73t-73 192zM144 255q0 -150 66 -202q32 -24 73 -24q40 0 72 24q67 53 67 202q0 150 -67 201q-29 23 -72 23q-44 0 -73 -23q-66 -51 -66 -201zM392 596l-18 -28l-162 72
q-58 26 -58 61q0 22 11.5 35t31.5 13t36.5 -10t43.5 -35z" />
    <glyph glyph-name="oacute" unicode="&#xf3;" horiz-adv-x="566" 
d="M34 255q0 118 72.5 190.5t176.5 72.5t176.5 -72.5t72.5 -190.5q0 -119 -73 -192t-176 -73t-176 73t-73 192zM144 255q0 -150 66 -202q32 -24 73 -24q40 0 72 24q67 53 67 202q0 150 -67 201q-29 23 -72 23q-44 0 -73 -23q-66 -51 -66 -201zM151 596l115 108
q27 25 43.5 35t36.5 10t31.5 -13t11.5 -35q0 -35 -58 -61l-162 -72z" />
    <glyph glyph-name="ocircumflex" unicode="&#xf4;" horiz-adv-x="566" 
d="M34 255q0 118 72.5 190.5t176.5 72.5t176.5 -72.5t72.5 -190.5q0 -119 -73 -192t-176 -73t-176 73t-73 192zM144 255q0 -150 66 -202q32 -24 73 -24q40 0 72 24q67 53 67 202q0 150 -67 201q-29 23 -72 23q-44 0 -73 -23q-66 -51 -66 -201zM421 585l-27 -25l-112 87
l-112 -87l-27 25l115 132h48z" />
    <glyph glyph-name="otilde" unicode="&#xf5;" horiz-adv-x="566" 
d="M34 255q0 118 72.5 190.5t176.5 72.5t176.5 -72.5t72.5 -190.5q0 -119 -73 -192t-176 -73t-176 73t-73 192zM144 255q0 -150 66 -202q32 -24 73 -24q40 0 72 24q67 53 67 202q0 150 -67 201q-29 23 -72 23q-44 0 -73 -23q-66 -51 -66 -201zM434 703q-13 -43 -41 -71
t-61 -28q-27 0 -64.5 14.5t-55.5 14.5q-16 0 -31 -12.5t-23 -32.5l-30 11q14 42 38.5 72t55.5 30q25 0 64 -14.5t60 -14.5q41 0 58 42z" />
    <glyph glyph-name="odieresis" unicode="&#xf6;" horiz-adv-x="566" 
d="M34 255q0 118 72.5 190.5t176.5 72.5t176.5 -72.5t72.5 -190.5q0 -119 -73 -192t-176 -73t-176 73t-73 192zM144 255q0 -150 66 -202q32 -24 73 -24q40 0 72 24q67 53 67 202q0 150 -67 201q-29 23 -72 23q-44 0 -73 -23q-66 -51 -66 -201zM188 591q-22 0 -37.5 15
t-15.5 39t15.5 39t37.5 15t37.5 -15t15.5 -39t-15.5 -39t-37.5 -15zM371 591q-22 0 -37.5 15t-15.5 39t15.5 39t37.5 15t37.5 -15t15.5 -39t-15.5 -39t-37.5 -15z" />
    <glyph glyph-name="divide" unicode="&#xf7;" horiz-adv-x="469" 
d="M288 438q0 -22 -15.5 -37.5t-37.5 -15.5t-37.5 15.5t-15.5 37.5t15 37.5t38 15.5t38 -15.5t15 -37.5zM429 283h-389v42h389v-42zM288 170q0 -22 -15.5 -37.5t-37.5 -15.5t-37.5 15.5t-15.5 37.5t15 37.5t38 15.5t38 -15.5t15 -37.5z" />
    <glyph glyph-name="oslash" unicode="&#xf8;" horiz-adv-x="566" 
d="M283 -10q-54 0 -105 23l-46 -87l-36 17l48 89q-110 75 -110 223q0 118 72.5 190.5t176.5 72.5q59 0 109 -24l44 82l35 -18l-45 -84q106 -74 106 -219q0 -119 -73 -192t-176 -73zM144 255q0 -106 32 -162l190 353q-3 4 -11 10q-29 23 -72 23q-44 0 -73 -23
q-66 -51 -66 -201zM283 29q40 0 72 24q67 53 67 202q0 102 -30 156l-189 -352l7 -6q32 -24 73 -24z" />
    <glyph glyph-name="ugrave" unicode="&#xf9;" horiz-adv-x="621" 
d="M516 137q0 -38 4 -52q8 -33 35 -43q15 -6 42 -8v-34h-165q-9 0 -9 11l-1 70h-10q-23 -41 -51 -62q-41 -31 -106 -31q-87 0 -129 50q-31 37 -31 108v227q0 43 -3 54q-6 19 -22 28q-20 13 -55 16v34h178q7 0 7 -7q-4 -116 -4 -120v-225q0 -59 24 -84q26 -29 72 -29
q42 0 75 26q39 33 45 89q3 30 3 80v138q0 43 -3 54q-6 18 -22 28q-22 13 -57 16v34h180q7 0 7 -7q-4 -116 -4 -120v-241zM380 596l-18 -28l-162 72q-58 26 -58 61q0 22 11.5 35t31.5 13t36.5 -10t43.5 -35z" />
    <glyph glyph-name="uacute" unicode="&#xfa;" horiz-adv-x="621" 
d="M516 137q0 -38 4 -52q8 -33 35 -43q15 -6 42 -8v-34h-165q-9 0 -9 11l-1 70h-10q-23 -41 -51 -62q-41 -31 -106 -31q-87 0 -129 50q-31 37 -31 108v227q0 43 -3 54q-6 19 -22 28q-20 13 -55 16v34h178q7 0 7 -7q-4 -116 -4 -120v-225q0 -59 24 -84q26 -29 72 -29
q42 0 75 26q39 33 45 89q3 30 3 80v138q0 43 -3 54q-6 18 -22 28q-22 13 -57 16v34h180q7 0 7 -7q-4 -116 -4 -120v-241zM179 596l115 108q27 25 43.5 35t36.5 10t31.5 -13t11.5 -35q0 -35 -58 -61l-162 -72z" />
    <glyph glyph-name="ucircumflex" unicode="&#xfb;" horiz-adv-x="621" 
d="M516 137q0 -38 4 -52q8 -33 35 -43q15 -6 42 -8v-34h-165q-9 0 -9 11l-1 70h-10q-23 -41 -51 -62q-41 -31 -106 -31q-87 0 -129 50q-31 37 -31 108v227q0 43 -3 54q-6 19 -22 28q-20 13 -55 16v34h178q7 0 7 -7q-4 -116 -4 -120v-225q0 -59 24 -84q26 -29 72 -29
q42 0 75 26q39 33 45 89q3 30 3 80v138q0 43 -3 54q-6 18 -22 28q-22 13 -57 16v34h180q7 0 7 -7q-4 -116 -4 -120v-241zM414 585l-27 -25l-112 87l-112 -87l-27 25l115 132h48z" />
    <glyph glyph-name="udieresis" unicode="&#xfc;" horiz-adv-x="621" 
d="M516 137q0 -38 4 -52q8 -33 35 -43q15 -6 42 -8v-34h-165q-9 0 -9 11l-1 70h-10q-23 -41 -51 -62q-41 -31 -106 -31q-87 0 -129 50q-31 37 -31 108v227q0 43 -3 54q-6 19 -22 28q-20 13 -55 16v34h178q7 0 7 -7q-4 -116 -4 -120v-225q0 -59 24 -84q26 -29 72 -29
q42 0 75 26q39 33 45 89q3 30 3 80v138q0 43 -3 54q-6 18 -22 28q-22 13 -57 16v34h180q7 0 7 -7q-4 -116 -4 -120v-241zM183 591q-22 0 -37.5 15t-15.5 39t15.5 39t37.5 15t37.5 -15t15.5 -39t-15.5 -39t-37.5 -15zM366 591q-22 0 -37.5 15t-15.5 39t15.5 39t37.5 15
t37.5 -15t15.5 -39t-15.5 -39t-37.5 -15z" />
    <glyph glyph-name="yacute" unicode="&#xfd;" horiz-adv-x="551" 
d="M274 -50q-26 -59 -54 -97q-42 -55 -116 -55q-36 0 -59.5 19t-23.5 48q0 23 14 38.5t32 15.5q31 0 55 -29q10 -11 16 -15q8 -6 23 -6q36 0 68 84q12 31 12 54q0 15 -11 43l-113 265l-25 61t-15 37q-17 36 -32 46q-14 9 -41 12v34h254v-34q-35 -3 -48 -8q-21 -13 -21 -38
q0 -21 25 -84l86 -211h11l88 205q24 55 24 88q0 27 -23 40q-9 5 -43 8v34h193v-34q-21 -2 -36 -11q-17 -11 -28 -28q-14 -20 -43 -89zM196 596l115 108q27 25 43.5 35t36.5 10t31.5 -13t11.5 -35q0 -35 -58 -61l-162 -72z" />
    <glyph glyph-name="thorn" unicode="&#xfe;" horiz-adv-x="589" 
d="M450 253q0 217 -125 217q-53 0 -90 -33q-17 -16 -32 -52.5t-15 -76.5v-115q0 -89 31 -123q37 -42 91 -42q68 0 104 60t36 165zM271 -161v-32h-266v32q23 2 42 8q27 13 34 43q4 14 4 52v680q0 40 -4 53q-6 19 -21 29q-20 11 -55 18v34h175q7 0 7 -7v-309h10q46 77 148 77
q40 0 76.5 -14t67.5 -44t49.5 -83t18.5 -123q0 -129 -72 -196.5t-167 -67.5q-74 0 -121 42h-9v-89q0 -38 3 -52q7 -29 35 -43q18 -7 45 -8z" />
    <glyph glyph-name="ydieresis" unicode="&#xff;" horiz-adv-x="551" 
d="M274 -50q-26 -59 -54 -97q-42 -55 -116 -55q-36 0 -59.5 19t-23.5 48q0 23 14 38.5t32 15.5q31 0 55 -29q10 -11 16 -15q8 -6 23 -6q36 0 68 84q12 31 12 54q0 15 -11 43l-113 265l-25 61t-15 37q-17 36 -32 46q-14 9 -41 12v34h254v-34q-35 -3 -48 -8q-21 -13 -21 -38
q0 -21 25 -84l86 -211h11l88 205q24 55 24 88q0 27 -23 40q-9 5 -43 8v34h193v-34q-21 -2 -36 -11q-17 -11 -28 -28q-14 -20 -43 -89zM200 591q-22 0 -37.5 15t-15.5 39t15.5 39t37.5 15t37.5 -15t15.5 -39t-15.5 -39t-37.5 -15zM383 591q-22 0 -37.5 15t-15.5 39t15.5 39
t37.5 15t37.5 -15t15.5 -39t-15.5 -39t-37.5 -15z" />
    <glyph glyph-name="Amacron" unicode="&#x100;" horiz-adv-x="691" 
d="M295 525l-90 -247h193l-92 247h-11zM238 36v-36h-242v36q28 3 48 14q21 12 36 40t40 95l198 517h43l195 -521q19 -52 40 -84q21 -31 53 -48q25 -10 37 -13v-36h-317v36q33 4 48 10q14 6 19.5 9.5t11 13t5.5 25.5q0 32 -24 99l-17 45h-222l-22 -61q-15 -40 -15 -76
q0 -41 33 -55q20 -8 52 -10zM473 776h-254v57h254v-57z" />
    <glyph glyph-name="amacron" unicode="&#x101;" horiz-adv-x="500" 
d="M492 14q-10 -7 -38 -15.5t-55 -8.5q-37 0 -57 13q-23 16 -29 63h-11q-14 -28 -46.5 -52t-86.5 -24q-65 0 -102 33.5t-37 96.5q0 55 38 90q25 22 50.5 33t76.5 26q85 24 104 55v89q0 36 -14 51.5t-47 15.5q-32 0 -54 -13q-22 -16 -28 -54q-7 -49 -50 -49q-20 0 -33 12.5
t-13 33.5q0 31 23 54q21 22 62.5 38t91.5 16q81 0 122.5 -24.5t41.5 -82.5v-276q0 -61 10 -79q9 -19 35 -19q23 0 37 7zM299 282q-12 -13 -72 -39q-58 -27 -72 -44q-28 -34 -28 -75q0 -44 22 -63t54 -19q35 0 60.5 18.5t35.5 50.5v171zM361 606h-254v53h254v-53z" />
    <glyph glyph-name="Abreve" unicode="&#x102;" horiz-adv-x="691" 
d="M295 525l-90 -247h193l-92 247h-11zM238 36v-36h-242v36q28 3 48 14q21 12 36 40t40 95l198 517h43l195 -521q19 -52 40 -84q21 -31 53 -48q25 -10 37 -13v-36h-317v36q33 4 48 10q14 6 19.5 9.5t11 13t5.5 25.5q0 32 -24 99l-17 45h-222l-22 -61q-15 -40 -15 -76
q0 -41 33 -55q20 -8 52 -10zM336 757q-55 0 -91.5 35.5t-42.5 94.5l30 8q22 -68 103 -68q84 0 105 68l30 -8q-6 -59 -42.5 -94.5t-91.5 -35.5z" />
    <glyph glyph-name="abreve" unicode="&#x103;" horiz-adv-x="500" 
d="M492 14q-10 -7 -38 -15.5t-55 -8.5q-37 0 -57 13q-23 16 -29 63h-11q-14 -28 -46.5 -52t-86.5 -24q-65 0 -102 33.5t-37 96.5q0 55 38 90q25 22 50.5 33t76.5 26q85 24 104 55v89q0 36 -14 51.5t-47 15.5q-32 0 -54 -13q-22 -16 -28 -54q-7 -49 -50 -49q-20 0 -33 12.5
t-13 33.5q0 31 23 54q21 22 62.5 38t91.5 16q81 0 122.5 -24.5t41.5 -82.5v-276q0 -61 10 -79q9 -19 35 -19q23 0 37 7zM299 282q-12 -13 -72 -39q-58 -27 -72 -44q-28 -34 -28 -75q0 -44 22 -63t54 -19q35 0 60.5 18.5t35.5 50.5v171zM233 581q-54 0 -86 35t-38 95l30 8
q13 -40 36 -54.5t57 -14.5q36 0 59 14.5t36 54.5l30 -8q-6 -60 -38 -95t-86 -35z" />
    <glyph glyph-name="Aogonek" unicode="&#x104;" horiz-adv-x="691" 
d="M474 73l-62 165h-222l-22 -61q-15 -40 -15 -76q0 -41 33 -55q20 -8 52 -10v-36h-242v36q28 3 48 14q21 12 36 40t40 95l198 517h43l195 -521q19 -52 40 -84q21 -31 53 -48q25 -10 37 -13v-36h-111q-44 0 -70 -19q-37 -27 -37 -89q0 -61 96 -69v-38q-81 -5 -132 20t-51 75
q0 48 57 89q43 29 43 70q0 16 -7 34zM295 525l-90 -247h192l-91 247h-11z" />
    <glyph glyph-name="aogonek" unicode="&#x105;" horiz-adv-x="500" 
d="M474 -215q-81 -5 -132 20t-51 75q0 63 91 105v8q-29 5 -40 13q-24 16 -29 60h-11q-14 -28 -46.5 -52t-86.5 -24q-65 0 -102 33.5t-37 96.5q0 55 38 90q25 22 50.5 33t76.5 26q85 24 104 55v89q0 36 -14 51.5t-47 15.5q-32 0 -54 -13q-22 -16 -28 -54q-7 -49 -50 -49
q-20 0 -33 12.5t-13 33.5q0 31 23 54q21 22 62.5 38t91.5 16q81 0 122.5 -24.5t41.5 -82.5v-276q0 -61 10 -79q9 -19 35 -19q23 0 37 7l9 -30l-32 -16q-82 -42 -82 -111q0 -28 26.5 -44.5t69.5 -19.5v-38zM299 282q-12 -13 -72 -39q-58 -27 -72 -44q-28 -34 -28 -75
q0 -44 22 -63t54 -19q35 0 60.5 18.5t35.5 50.5v171z" />
    <glyph glyph-name="Cacute" unicode="&#x106;" horiz-adv-x="679" 
d="M371 670q-56 0 -99 -25q-114 -68 -114 -296q0 -120 26 -178.5t76 -92.5q29 -20 57 -27.5t75 -7.5q157 0 224 131l30 -17q-84 -171 -284 -171q-146 0 -235.5 101.5t-89.5 261.5q0 155 100 258.5t234 103.5q124 0 188 -58h8l34 46h22v-239h-38q-22 92 -67 146
q-29 35 -58 49.5t-89 14.5zM270 787l127 77q48 29 67 32q9 1 18 1q20 0 33 -13.5t13 -34.5q0 -19 -13.5 -32.5t-26 -18t-33.5 -9.5q-51 -11 -175 -34z" />
    <glyph glyph-name="cacute" unicode="&#x107;" horiz-adv-x="508" 
d="M284 480q-46 0 -76 -24q-67 -51 -67 -201q0 -140 70 -195q33 -25 76 -25q124 0 165 112l35 -13q-20 -67 -74.5 -105.5t-136.5 -38.5q-83 0 -149 50q-93 71 -93 215q0 118 73 190.5t177 72.5q110 0 165 -57q23 -26 23 -53q0 -54 -48 -54q-26 0 -39 15.5t-22 47.5
q-10 35 -27 49t-52 14zM173 596l115 108q27 25 43.5 35t36.5 10t31.5 -13t11.5 -35q0 -35 -58 -61l-162 -72z" />
    <glyph glyph-name="Ccircumflex" unicode="&#x108;" horiz-adv-x="679" 
d="M371 670q-56 0 -99 -25q-114 -68 -114 -296q0 -120 26 -178.5t76 -92.5q29 -20 57 -27.5t75 -7.5q157 0 224 131l30 -17q-84 -171 -284 -171q-146 0 -235.5 101.5t-89.5 261.5q0 155 100 258.5t234 103.5q124 0 188 -58h8l34 46h22v-239h-38q-22 92 -67 146
q-29 35 -58 49.5t-89 14.5zM512 783l-19 -28l-122 63l-122 -63l-19 28l115 105h52z" />
    <glyph glyph-name="ccircumflex" unicode="&#x109;" horiz-adv-x="508" 
d="M284 480q-46 0 -76 -24q-67 -51 -67 -201q0 -140 70 -195q33 -25 76 -25q124 0 165 112l35 -13q-20 -67 -74.5 -105.5t-136.5 -38.5q-83 0 -149 50q-93 71 -93 215q0 118 73 190.5t177 72.5q110 0 165 -57q23 -26 23 -53q0 -54 -48 -54q-26 0 -39 15.5t-22 47.5
q-10 35 -27 49t-52 14zM418 585l-27 -25l-112 87l-112 -87l-27 25l115 132h48z" />
    <glyph glyph-name="Cdotaccent" unicode="&#x10a;" horiz-adv-x="679" 
d="M371 670q-56 0 -99 -25q-114 -68 -114 -296q0 -120 26 -178.5t76 -92.5q29 -20 57 -27.5t75 -7.5q157 0 224 131l30 -17q-84 -171 -284 -171q-146 0 -235.5 101.5t-89.5 261.5q0 155 100 258.5t234 103.5q124 0 188 -58h8l34 46h22v-239h-38q-22 92 -67 146
q-29 35 -58 49.5t-89 14.5zM371 758q-28 0 -46 17.5t-18 45.5t18 45.5t46 17.5t46 -17.5t18 -45.5t-18 -45.5t-46 -17.5z" />
    <glyph glyph-name="cdotaccent" unicode="&#x10b;" horiz-adv-x="508" 
d="M284 480q-46 0 -76 -24q-67 -51 -67 -201q0 -140 70 -195q33 -25 76 -25q124 0 165 112l35 -13q-20 -67 -74.5 -105.5t-136.5 -38.5q-83 0 -149 50q-93 71 -93 215q0 118 73 190.5t177 72.5q110 0 165 -57q23 -26 23 -53q0 -54 -48 -54q-26 0 -39 15.5t-22 47.5
q-10 35 -27 49t-52 14zM287 588q-28 0 -46 17.5t-18 45.5t18 45.5t46 17.5t46 -17.5t18 -45.5t-18 -45.5t-46 -17.5z" />
    <glyph glyph-name="Ccaron" unicode="&#x10c;" horiz-adv-x="679" 
d="M371 670q-56 0 -99 -25q-114 -68 -114 -296q0 -120 26 -178.5t76 -92.5q29 -20 57 -27.5t75 -7.5q157 0 224 131l30 -17q-84 -171 -284 -171q-146 0 -235.5 101.5t-89.5 261.5q0 155 100 258.5t234 103.5q124 0 188 -58h8l34 46h22v-239h-38q-22 92 -67 146
q-29 35 -58 49.5t-89 14.5zM512 860l-115 -105h-52l-115 105l19 28l122 -63l122 63z" />
    <glyph glyph-name="ccaron" unicode="&#x10d;" horiz-adv-x="508" 
d="M284 480q-46 0 -76 -24q-67 -51 -67 -201q0 -140 70 -195q33 -25 76 -25q124 0 165 112l35 -13q-20 -67 -74.5 -105.5t-136.5 -38.5q-83 0 -149 50q-93 71 -93 215q0 118 73 190.5t177 72.5q110 0 165 -57q23 -26 23 -53q0 -54 -48 -54q-26 0 -39 15.5t-22 47.5
q-10 35 -27 49t-52 14zM424 692l-115 -132h-48l-115 132l27 25l112 -87l112 87z" />
    <glyph glyph-name="Dcaron" unicode="&#x10e;" horiz-adv-x="748" 
d="M35 698h313q116 0 190 -42q78 -43 126.5 -121t48.5 -185q0 -215 -169 -309q-75 -41 -169 -41h-340v36q24 2 38 7q33 10 49 40q15 31 15 110v312q0 79 -15 111q-15 28 -49 40q-15 5 -38 6v36zM598 348q0 184 -94 266q-55 48 -160 48h-66q-15 0 -22 -7q-6 -6 -6 -25v-476
q0 -76 22 -98q19 -20 79 -20h14q87 0 143 53q90 88 90 259zM477 860l-115 -105h-52l-115 105l19 28l122 -63l122 63z" />
    <glyph glyph-name="dcaron" unicode="&#x10f;" horiz-adv-x="593" 
d="M405 182v160q0 67 -31 101t-85 34q-65 0 -106.5 -55t-41.5 -168q0 -115 41 -168t102 -53q54 0 87.5 42.5t33.5 106.5zM582 0h-150q-10 0 -13 6q-2 5 -2 22v55h-11q-17 -43 -56.5 -68t-94.5 -25q-91 0 -156 71.5t-65 192.5q0 129 72.5 196.5t169.5 67.5q77 0 120 -53h9
v163q0 38 -6 53q-4 17 -24 29q-20 11 -54 13v33h182q7 0 7 -7q-4 -116 -4 -134v-479q0 -38 4 -52q8 -30 34 -42q14 -6 38 -8v-34zM571 556l24 200h86q-42 -128 -68 -200h-42z" />
    <glyph glyph-name="Dcroat" unicode="&#x110;" horiz-adv-x="748" 
d="M36 335v40h101v130q0 79 -15 111q-15 28 -49 40q-15 5 -38 6v36h313q116 0 190 -42q78 -43 126.5 -121t48.5 -185q0 -215 -169 -309q-75 -41 -169 -41h-340v36q24 2 38 7q33 10 49 40q15 31 15 110v142h-101zM598 348q0 184 -94 266q-55 48 -160 48h-66q-15 0 -22 -7
q-6 -6 -6 -25v-255h159v-40h-159v-181q0 -76 22 -98q19 -20 79 -20h14q87 0 143 53q90 88 90 259z" />
    <glyph glyph-name="dcroat" unicode="&#x111;" horiz-adv-x="593" 
d="M275 598v39h130q-2 32 -6 44q-4 17 -24 29q-20 11 -54 13v33h182q7 0 7 -7q-4 -104 -4 -112h86v-39h-86v-462q0 -38 4 -52q8 -30 34 -42q14 -6 38 -8v-34h-150q-10 0 -13 6q-2 5 -2 22v55h-11q-17 -43 -56.5 -68t-94.5 -25q-91 0 -156 71.5t-65 192.5q0 129 72.5 196.5
t169.5 67.5q77 0 120 -53h9v133h-130zM405 182v160q0 67 -31 101t-85 34q-65 0 -106.5 -55t-41.5 -168q0 -115 41 -168t102 -53q54 0 87.5 42.5t33.5 106.5z" />
    <glyph glyph-name="Emacron" unicode="&#x112;" horiz-adv-x="644" 
d="M607 196l-31 -196h-541v36q24 2 38 7q33 10 49 40q15 31 15 110v312q0 79 -15 111q-15 28 -49 40q-15 5 -38 6v36h522l31 -173h-34q-16 30 -24 42.5t-21 28.5t-30 29q-44 37 -120 37h-49q-35 0 -49 -18q-12 -15 -12 -58v-207h46q65 0 93 27q13 12 20.5 27.5t9.5 25.5
t5 32h33v-261h-33q-7 62 -37 88q-25 24 -91 24h-46v-188q0 -76 22 -98q19 -20 79 -20h18q50 0 77 12t54 36q11 10 20 20.5t14.5 17.5t13 19.5t10 17t9.5 19.5t9 18h32zM455 776h-254v57h254v-57z" />
    <glyph glyph-name="emacron" unicode="&#x113;" horiz-adv-x="523" 
d="M489 139q-25 -68 -79 -108.5t-131 -40.5q-96 0 -160 57q-85 75 -85 207q0 113 73 188.5t170 75.5q103 0 156 -59t53 -130q0 -34 -4 -58h-337v-17q0 -127 51 -181q37 -39 100 -39q114 0 163 119zM203 452q-47 -47 -56 -144h202q18 0 26 11.5t8 40.5q0 62 -25 90
q-25 29 -80 29q-45 0 -75 -27zM400 606h-254v53h254v-53z" />
    <glyph glyph-name="Ebreve" unicode="&#x114;" horiz-adv-x="644" 
d="M607 196l-31 -196h-541v36q24 2 38 7q33 10 49 40q15 31 15 110v312q0 79 -15 111q-15 28 -49 40q-15 5 -38 6v36h522l31 -173h-34q-16 30 -24 42.5t-21 28.5t-30 29q-44 37 -120 37h-49q-35 0 -49 -18q-12 -15 -12 -58v-207h46q65 0 93 27q13 12 20.5 27.5t9.5 25.5
t5 32h33v-261h-33q-7 62 -37 88q-25 24 -91 24h-46v-188q0 -76 22 -98q19 -20 79 -20h18q50 0 77 12t54 36q11 10 20 20.5t14.5 17.5t13 19.5t10 17t9.5 19.5t9 18h32zM328 757q-55 0 -91.5 35.5t-42.5 94.5l30 8q22 -68 103 -68q84 0 105 68l30 -8q-6 -59 -42.5 -94.5
t-91.5 -35.5z" />
    <glyph glyph-name="ebreve" unicode="&#x115;" horiz-adv-x="523" 
d="M489 139q-25 -68 -79 -108.5t-131 -40.5q-96 0 -160 57q-85 75 -85 207q0 113 73 188.5t170 75.5q103 0 156 -59t53 -130q0 -34 -4 -58h-337v-17q0 -127 51 -181q37 -39 100 -39q114 0 163 119zM203 452q-47 -47 -56 -144h202q18 0 26 11.5t8 40.5q0 62 -25 90
q-25 29 -80 29q-45 0 -75 -27zM278 581q-54 0 -86 35t-38 95l30 8q13 -40 36 -54.5t57 -14.5q36 0 59 14.5t36 54.5l30 -8q-6 -60 -38 -95t-86 -35z" />
    <glyph glyph-name="Edotaccent" unicode="&#x116;" horiz-adv-x="644" 
d="M607 196l-31 -196h-541v36q24 2 38 7q33 10 49 40q15 31 15 110v312q0 79 -15 111q-15 28 -49 40q-15 5 -38 6v36h522l31 -173h-34q-16 30 -24 42.5t-21 28.5t-30 29q-44 37 -120 37h-49q-35 0 -49 -18q-12 -15 -12 -58v-207h46q65 0 93 27q13 12 20.5 27.5t9.5 25.5
t5 32h33v-261h-33q-7 62 -37 88q-25 24 -91 24h-46v-188q0 -76 22 -98q19 -20 79 -20h18q50 0 77 12t54 36q11 10 20 20.5t14.5 17.5t13 19.5t10 17t9.5 19.5t9 18h32zM328 758q-28 0 -46 17.5t-18 45.5t18 45.5t46 17.5t46 -17.5t18 -45.5t-18 -45.5t-46 -17.5z" />
    <glyph glyph-name="edotaccent" unicode="&#x117;" horiz-adv-x="523" 
d="M489 139q-25 -68 -79 -108.5t-131 -40.5q-96 0 -160 57q-85 75 -85 207q0 113 73 188.5t170 75.5q103 0 156 -59t53 -130q0 -34 -4 -58h-337v-17q0 -127 51 -181q37 -39 100 -39q114 0 163 119zM203 452q-47 -47 -56 -144h202q18 0 26 11.5t8 40.5q0 62 -25 90
q-25 29 -80 29q-45 0 -75 -27zM274 588q-28 0 -46 17.5t-18 45.5t18 45.5t46 17.5t46 -17.5t18 -45.5t-18 -45.5t-46 -17.5z" />
    <glyph glyph-name="Eogonek" unicode="&#x118;" horiz-adv-x="644" 
d="M468 0h-433v36q24 2 38 7q33 10 49 40q15 31 15 110v312q0 79 -15 111q-15 28 -49 40q-15 5 -38 6v36h522l31 -173h-34q-16 30 -24 42.5t-21 28.5t-30 29q-44 37 -120 37h-49q-35 0 -49 -18q-12 -15 -12 -58v-207h46q65 0 93 27q13 12 20.5 27.5t9.5 25.5t5 32h33v-261
h-33q-7 62 -37 88q-25 24 -91 24h-46v-188q0 -76 22 -98q19 -20 79 -20h18q50 0 77 12t54 36q11 10 20 20.5t14.5 17.5t13 19.5t10 17t9.5 19.5t9 18h32l-31 -196h-68q-70 -49 -70 -113q0 -28 26.5 -44.5t69.5 -19.5v-38q-81 -5 -132 20t-51 75q0 73 117 120z" />
    <glyph glyph-name="eogonek" unicode="&#x119;" horiz-adv-x="523" 
d="M414 -215q-81 -5 -132 20t-51 75q0 17 9.5 34t30 34.5t32 26l34.5 24.5q-31 -9 -58 -9q-96 0 -160 57q-85 75 -85 207q0 113 73 188.5t170 75.5q103 0 156 -59t53 -130q0 -34 -4 -58h-337v-17q0 -127 51 -181q37 -39 100 -39q114 0 163 119l30 -14q-26 -71 -85 -116
q-42 -31 -64 -59.5t-22 -70.5q0 -63 96 -70v-38zM203 452q-47 -47 -56 -144h202q18 0 26 11.5t8 40.5q0 62 -25 90q-25 29 -80 29q-45 0 -75 -27z" />
    <glyph glyph-name="Ecaron" unicode="&#x11a;" horiz-adv-x="644" 
d="M607 196l-31 -196h-541v36q24 2 38 7q33 10 49 40q15 31 15 110v312q0 79 -15 111q-15 28 -49 40q-15 5 -38 6v36h522l31 -173h-34q-16 30 -24 42.5t-21 28.5t-30 29q-44 37 -120 37h-49q-35 0 -49 -18q-12 -15 -12 -58v-207h46q65 0 93 27q13 12 20.5 27.5t9.5 25.5
t5 32h33v-261h-33q-7 62 -37 88q-25 24 -91 24h-46v-188q0 -76 22 -98q19 -20 79 -20h18q50 0 77 12t54 36q11 10 20 20.5t14.5 17.5t13 19.5t10 17t9.5 19.5t9 18h32zM469 860l-115 -105h-52l-115 105l19 28l122 -63l122 63z" />
    <glyph glyph-name="ecaron" unicode="&#x11b;" horiz-adv-x="523" 
d="M489 139q-25 -68 -79 -108.5t-131 -40.5q-96 0 -160 57q-85 75 -85 207q0 113 73 188.5t170 75.5q103 0 156 -59t53 -130q0 -34 -4 -58h-337v-17q0 -127 51 -181q37 -39 100 -39q114 0 163 119zM203 452q-47 -47 -56 -144h202q18 0 26 11.5t8 40.5q0 62 -25 90
q-25 29 -80 29q-45 0 -75 -27zM418 692l-115 -132h-48l-115 132l27 25l112 -87l112 87z" />
    <glyph glyph-name="Gcircumflex" unicode="&#x11c;" horiz-adv-x="760" 
d="M519 177q0 54 -17 87q-5 11 -13 18t-14.5 10t-20.5 8q-15 4 -39 6v35h315v-35q-25 -2 -38 -6q-34 -12 -49 -40q-15 -29 -15 -137v-86q-23 -15 -80 -29q-107 -22 -172 -22q-156 0 -246 100.5t-90 262.5q0 155 98 258.5t231 103.5t197 -58h7l31 46h22v-239h-34
q-25 103 -66 147q-33 34 -64 48.5t-94 14.5q-49 0 -93 -25q-109 -63 -109 -296q0 -128 22.5 -192t73.5 -95q55 -34 115 -34q85 0 118 29q24 19 24 88v32zM539 783l-19 -28l-122 63l-122 -63l-19 28l115 105h52z" />
    <glyph glyph-name="gcircumflex" unicode="&#x11d;" horiz-adv-x="567" 
d="M150 350q0 -130 96 -130q45 0 76.5 31t31.5 99t-29.5 99.5t-74.5 31.5q-43 0 -71.5 -31.5t-28.5 -99.5zM520 -21q0 -86 -86.5 -134.5t-198.5 -48.5q-225 0 -225 116q0 78 135 99v10q-37 6 -62 31.5t-25 60.5q0 68 86 88v7q-93 46 -93 142q0 77 60 122.5t141 45.5
q112 0 163 -68h11q7 31 33.5 49.5t59.5 18.5q31 0 46.5 -16.5t15.5 -42.5q0 -21 -12 -32t-30 -11q-23 0 -37 21q-4 6 -5 8t-4 6.5t-5 5.5t-6 2.5t-8 1.5q-10 0 -20 -15t-10 -34q0 -6 3 -17.5t4 -18.5q2 -16 2 -26q0 -79 -62 -124t-143 -45q-10 0 -29 1.5t-25 1.5
q-69 0 -69 -41q0 -42 60 -42q11 0 85 3t92 3q38 0 63.5 -4.5t48.5 -17t34.5 -39t11.5 -67.5zM450 -50q0 25 -12 38.5t-28.5 16.5t-47.5 4q-75 2 -140 -5q-26 -3 -43 -6t-41.5 -12t-37.5 -27t-13 -44q0 -44 41 -62t119 -18q54 0 98 10.5t74.5 37.5t30.5 67zM401 585l-27 -25
l-112 87l-112 -87l-27 25l115 132h48z" />
    <glyph glyph-name="Gbreve" unicode="&#x11e;" horiz-adv-x="760" 
d="M519 177q0 54 -17 87q-5 11 -13 18t-14.5 10t-20.5 8q-15 4 -39 6v35h315v-35q-25 -2 -38 -6q-34 -12 -49 -40q-15 -29 -15 -137v-86q-23 -15 -80 -29q-107 -22 -172 -22q-156 0 -246 100.5t-90 262.5q0 155 98 258.5t231 103.5t197 -58h7l31 46h22v-239h-34
q-25 103 -66 147q-33 34 -64 48.5t-94 14.5q-49 0 -93 -25q-109 -63 -109 -296q0 -128 22.5 -192t73.5 -95q55 -34 115 -34q85 0 118 29q24 19 24 88v32zM398 757q-55 0 -91.5 35.5t-42.5 94.5l30 8q22 -68 103 -68q84 0 105 68l30 -8q-6 -59 -42.5 -94.5t-91.5 -35.5z" />
    <glyph glyph-name="gbreve" unicode="&#x11f;" horiz-adv-x="567" 
d="M150 350q0 -130 96 -130q45 0 76.5 31t31.5 99t-29.5 99.5t-74.5 31.5q-43 0 -71.5 -31.5t-28.5 -99.5zM520 -21q0 -86 -86.5 -134.5t-198.5 -48.5q-225 0 -225 116q0 78 135 99v10q-37 6 -62 31.5t-25 60.5q0 68 86 88v7q-93 46 -93 142q0 77 60 122.5t141 45.5
q112 0 163 -68h11q7 31 33.5 49.5t59.5 18.5q31 0 46.5 -16.5t15.5 -42.5q0 -21 -12 -32t-30 -11q-23 0 -37 21q-4 6 -5 8t-4 6.5t-5 5.5t-6 2.5t-8 1.5q-10 0 -20 -15t-10 -34q0 -6 3 -17.5t4 -18.5q2 -16 2 -26q0 -79 -62 -124t-143 -45q-10 0 -29 1.5t-25 1.5
q-69 0 -69 -41q0 -42 60 -42q11 0 85 3t92 3q38 0 63.5 -4.5t48.5 -17t34.5 -39t11.5 -67.5zM450 -50q0 25 -12 38.5t-28.5 16.5t-47.5 4q-75 2 -140 -5q-26 -3 -43 -6t-41.5 -12t-37.5 -27t-13 -44q0 -44 41 -62t119 -18q54 0 98 10.5t74.5 37.5t30.5 67zM254 581
q-54 0 -86 35t-38 95l30 8q13 -40 36 -54.5t57 -14.5q36 0 59 14.5t36 54.5l30 -8q-6 -60 -38 -95t-86 -35z" />
    <glyph glyph-name="Gdotaccent" unicode="&#x120;" horiz-adv-x="760" 
d="M519 177q0 54 -17 87q-5 11 -13 18t-14.5 10t-20.5 8q-15 4 -39 6v35h315v-35q-25 -2 -38 -6q-34 -12 -49 -40q-15 -29 -15 -137v-86q-23 -15 -80 -29q-107 -22 -172 -22q-156 0 -246 100.5t-90 262.5q0 155 98 258.5t231 103.5t197 -58h7l31 46h22v-239h-34
q-25 103 -66 147q-33 34 -64 48.5t-94 14.5q-49 0 -93 -25q-109 -63 -109 -296q0 -128 22.5 -192t73.5 -95q55 -34 115 -34q85 0 118 29q24 19 24 88v32zM398 758q-28 0 -46 17.5t-18 45.5t18 45.5t46 17.5t46 -17.5t18 -45.5t-18 -45.5t-46 -17.5z" />
    <glyph glyph-name="gdotaccent" unicode="&#x121;" horiz-adv-x="567" 
d="M150 350q0 -130 96 -130q45 0 76.5 31t31.5 99t-29.5 99.5t-74.5 31.5q-43 0 -71.5 -31.5t-28.5 -99.5zM520 -21q0 -86 -86.5 -134.5t-198.5 -48.5q-225 0 -225 116q0 78 135 99v10q-37 6 -62 31.5t-25 60.5q0 68 86 88v7q-93 46 -93 142q0 77 60 122.5t141 45.5
q112 0 163 -68h11q7 31 33.5 49.5t59.5 18.5q31 0 46.5 -16.5t15.5 -42.5q0 -21 -12 -32t-30 -11q-23 0 -37 21q-4 6 -5 8t-4 6.5t-5 5.5t-6 2.5t-8 1.5q-10 0 -20 -15t-10 -34q0 -6 3 -17.5t4 -18.5q2 -16 2 -26q0 -79 -62 -124t-143 -45q-10 0 -29 1.5t-25 1.5
q-69 0 -69 -41q0 -42 60 -42q11 0 85 3t92 3q38 0 63.5 -4.5t48.5 -17t34.5 -39t11.5 -67.5zM450 -50q0 25 -12 38.5t-28.5 16.5t-47.5 4q-75 2 -140 -5q-26 -3 -43 -6t-41.5 -12t-37.5 -27t-13 -44q0 -44 41 -62t119 -18q54 0 98 10.5t74.5 37.5t30.5 67zM254 588
q-28 0 -46 17.5t-18 45.5t18 45.5t46 17.5t46 -17.5t18 -45.5t-18 -45.5t-46 -17.5z" />
    <glyph glyph-name="uni0122" unicode="&#x122;" horiz-adv-x="760" 
d="M519 177q0 54 -17 87q-5 11 -13 18t-14.5 10t-20.5 8q-15 4 -39 6v35h315v-35q-25 -2 -38 -6q-34 -12 -49 -40q-15 -29 -15 -137v-86q-23 -15 -80 -29q-107 -22 -172 -22q-156 0 -246 100.5t-90 262.5q0 155 98 258.5t231 103.5t197 -58h7l31 46h22v-239h-34
q-25 103 -66 147q-33 34 -64 48.5t-94 14.5q-49 0 -93 -25q-109 -63 -109 -296q0 -128 22.5 -192t73.5 -95q55 -34 115 -34q85 0 118 29q24 19 24 88v32zM442 -127q0 -48 -39 -87t-95 -62l-13 30q82 34 82 67q0 8 -10 11q-45 16 -45 57q0 21 15 37.5t40 16.5
q30 0 47.5 -18.5t17.5 -51.5z" />
    <glyph glyph-name="uni0123" unicode="&#x123;" horiz-adv-x="567" 
d="M150 350q0 -130 96 -130q45 0 76.5 31t31.5 99t-29.5 99.5t-74.5 31.5q-43 0 -71.5 -31.5t-28.5 -99.5zM520 -21q0 -86 -86.5 -134.5t-198.5 -48.5q-225 0 -225 116q0 78 135 99v10q-37 6 -62 31.5t-25 60.5q0 68 86 88v7q-93 46 -93 142q0 77 60 122.5t141 45.5
q112 0 163 -68h11q7 31 33.5 49.5t59.5 18.5q31 0 46.5 -16.5t15.5 -42.5q0 -21 -12 -32t-30 -11q-23 0 -37 21q-4 6 -5 8t-4 6.5t-5 5.5t-6 2.5t-8 1.5q-10 0 -20 -15t-10 -34q0 -6 3 -17.5t4 -18.5q2 -16 2 -26q0 -79 -62 -124t-143 -45q-10 0 -29 1.5t-25 1.5
q-69 0 -69 -41q0 -42 60 -42q11 0 85 3t92 3q38 0 63.5 -4.5t48.5 -17t34.5 -39t11.5 -67.5zM450 -50q0 25 -12 38.5t-28.5 16.5t-47.5 4q-75 2 -140 -5q-26 -3 -43 -6t-41.5 -12t-37.5 -27t-13 -44q0 -44 41 -62t119 -18q54 0 98 10.5t74.5 37.5t30.5 67zM197 616
q0 91 114 135l12 -30q-70 -29 -70 -60q0 -8 10 -11q25 -9 37 -19.5t12 -29.5q0 -26 -14.5 -40.5t-39.5 -14.5q-28 0 -44.5 18.5t-16.5 51.5z" />
    <glyph glyph-name="Hcircumflex" unicode="&#x124;" horiz-adv-x="811" 
d="M349 36v-36h-314v36q24 2 38 7q33 10 49 40q15 31 15 110v312q0 79 -15 111q-16 30 -49 40q-15 5 -38 6v36h314v-36q-22 -1 -35 -6q-34 -13 -49 -40q-15 -32 -15 -111v-132h311v132q0 79 -15 111q-15 28 -49 40q-13 5 -35 6v36h314v-36q-26 -2 -38 -6q-34 -12 -49 -40
q-15 -32 -15 -111v-312q0 -79 15 -110q16 -29 49 -40q17 -6 38 -7v-36h-314v36q18 1 35 7q33 10 49 40q15 31 15 110v140h-311v-140q0 -79 15 -110q16 -30 49 -40q17 -6 35 -7zM546 783l-19 -28l-122 63l-122 -63l-19 28l115 105h52z" />
    <glyph glyph-name="hcircumflex" unicode="&#x125;" horiz-adv-x="624" 
d="M278 34v-34h-249v34q21 2 38 8q28 14 35 43q3 14 3 53v488q0 43 -3 54q-7 20 -22 28q-16 10 -55 14v34h174q7 0 7 -8v-319h11q34 42 58 57q47 32 110 32q58 0 93 -25q49 -35 49 -107v-248q0 -39 3 -53q7 -30 35 -43q17 -6 37 -8v-34h-249v34q18 1 38 8q24 12 32 43
q3 14 3 53v238q0 45 -21 66q-18 17 -59 17q-75 0 -111 -51q-29 -38 -29 -102v-168q0 -39 4 -53q8 -31 32 -43q18 -7 36 -8zM442 813l-19 -28l-122 63l-122 -63l-19 28l115 105h52z" />
    <glyph glyph-name="Hbar" unicode="&#x126;" horiz-adv-x="821" 
d="M30 473v40h112q-1 72 -15 103q-16 30 -49 40q-15 5 -38 6v36h314v-36q-22 -1 -35 -6q-34 -13 -49 -40q-15 -31 -15 -103h311q-1 72 -15 103q-15 28 -49 40q-13 5 -35 6v36h314v-36q-26 -2 -38 -6q-34 -12 -49 -40q-15 -31 -15 -103h112v-40h-112v-280q0 -79 15 -110
q16 -29 49 -40q17 -6 38 -7v-36h-314v36q18 1 35 7q33 10 49 40q15 31 15 110v140h-311v-140q0 -79 15 -110q16 -30 49 -40q17 -6 35 -7v-36h-314v36q24 2 38 7q33 10 49 40q15 31 15 110v280h-112zM255 373h311v100h-311v-100z" />
    <glyph glyph-name="hbar" unicode="&#x127;" horiz-adv-x="624" 
d="M15 599v38h90q0 29 -3 43q-7 20 -22 28q-16 10 -55 14v34h174q7 0 7 -8v-111h126v-38h-126v-170h11q34 42 58 57q47 32 110 32q58 0 93 -25q49 -35 49 -107v-248q0 -39 3 -53q7 -30 35 -43q17 -6 37 -8v-34h-249v34q18 1 38 8q24 12 32 43q3 14 3 53v238q0 45 -21 66
q-18 17 -59 17q-75 0 -111 -51q-29 -38 -29 -102v-168q0 -39 4 -53q8 -31 32 -43q18 -7 36 -8v-34h-249v34q21 2 38 8q28 14 35 43q3 14 3 53v461h-90z" />
    <glyph glyph-name="Itilde" unicode="&#x128;" horiz-adv-x="387" 
d="M250 505v-312q0 -79 15 -110q15 -27 49 -40q14 -5 38 -7v-36h-317v36q23 1 38 7q34 12 49 40q15 31 15 110v312q0 79 -15 111q-17 31 -49 40q-15 5 -38 6v36h317v-36q-23 -1 -38 -6q-33 -10 -49 -40q-15 -32 -15 -111zM353 863q-13 -43 -41 -71t-61 -28q-27 0 -64.5 14.5
t-55.5 14.5q-16 0 -31 -12.5t-23 -32.5l-30 11q14 42 38.5 72t55.5 30q25 0 64 -14.5t60 -14.5q41 0 58 42z" />
    <glyph glyph-name="itilde" unicode="&#x129;" horiz-adv-x="302" 
d="M204 384v-246q0 -39 4 -53q7 -30 35 -43q17 -6 37 -8v-34h-251v34q18 1 36 8q28 14 35 43q3 14 3 53v232q0 43 -3 54q-6 19 -22 28q-20 12 -53 19v34h175q7 0 7 -8q-3 -84 -3 -113zM272 703q-13 -43 -41 -71t-61 -28q-27 0 -64.5 14.5t-55.5 14.5q-16 0 -31 -12.5
t-23 -32.5l-30 11q14 42 38.5 72t55.5 30q25 0 64 -14.5t60 -14.5q41 0 58 42z" />
    <glyph glyph-name="Imacron" unicode="&#x12a;" horiz-adv-x="387" 
d="M250 505v-312q0 -79 15 -110q15 -27 49 -40q14 -5 38 -7v-36h-317v36q23 1 38 7q34 12 49 40q15 31 15 110v312q0 79 -15 111q-17 31 -49 40q-15 5 -38 6v36h317v-36q-23 -1 -38 -6q-33 -10 -49 -40q-15 -32 -15 -111zM322 776h-254v57h254v-57z" />
    <glyph glyph-name="imacron" unicode="&#x12b;" horiz-adv-x="302" 
d="M241 606h-254v53h254v-53zM204 384v-246q0 -39 4 -53q7 -30 35 -43q17 -6 37 -8v-34h-251v34q18 1 36 8q28 14 35 43q3 14 3 53v232q0 43 -3 54q-6 19 -22 28q-20 12 -53 19v34h175q7 0 7 -8q-3 -84 -3 -113z" />
    <glyph glyph-name="Ibreve" unicode="&#x12c;" horiz-adv-x="387" 
d="M250 505v-312q0 -79 15 -110q15 -27 49 -40q14 -5 38 -7v-36h-317v36q23 1 38 7q34 12 49 40q15 31 15 110v312q0 79 -15 111q-17 31 -49 40q-15 5 -38 6v36h317v-36q-23 -1 -38 -6q-33 -10 -49 -40q-15 -32 -15 -111zM194 757q-55 0 -91.5 35.5t-42.5 94.5l30 8
q22 -68 103 -68q84 0 105 68l30 -8q-6 -59 -42.5 -94.5t-91.5 -35.5z" />
    <glyph glyph-name="ibreve" unicode="&#x12d;" horiz-adv-x="302" 
d="M204 384v-246q0 -39 4 -53q7 -30 35 -43q17 -6 37 -8v-34h-251v34q18 1 36 8q28 14 35 43q3 14 3 53v232q0 43 -3 54q-6 19 -22 28q-20 12 -53 19v34h175q7 0 7 -8q-3 -84 -3 -113zM117 581q-54 0 -86 35t-38 95l30 8q13 -40 36 -54.5t57 -14.5q36 0 59 14.5t36 54.5
l30 -8q-6 -60 -38 -95t-86 -35z" />
    <glyph glyph-name="Iogonek" unicode="&#x12e;" horiz-adv-x="387" 
d="M218 0h-183v36q23 1 38 7q34 12 49 40q15 31 15 110v312q0 79 -15 111q-17 31 -49 40q-15 5 -38 6v36h317v-36q-23 -1 -38 -6q-33 -10 -49 -40q-15 -32 -15 -111v-312q0 -79 15 -110q15 -27 49 -40q14 -5 38 -7v-36h-94q-70 -49 -70 -113q0 -28 26.5 -44.5t69.5 -19.5
v-38q-81 -5 -132 20t-51 75q0 73 117 120z" />
    <glyph glyph-name="iogonek" unicode="&#x12f;" horiz-adv-x="302" 
d="M159 608q-28 0 -46 17.5t-18 45.5t18 45.5t46 17.5t46 -17.5t18 -45.5t-18 -45.5t-46 -17.5zM188 0h-159v34q18 1 36 8q28 14 35 43q3 14 3 53v232q0 43 -3 54q-6 19 -22 28q-20 12 -53 19v34h175q7 0 7 -8q-3 -84 -3 -113v-246q0 -39 4 -53q7 -30 35 -43q17 -6 37 -8
v-34h-52q-70 -49 -70 -113q0 -28 26.5 -44.5t69.5 -19.5v-38q-81 -5 -132 20t-51 75q0 73 117 120z" />
    <glyph glyph-name="Idotaccent" unicode="&#x130;" horiz-adv-x="387" 
d="M250 505v-312q0 -79 15 -110q15 -27 49 -40q14 -5 38 -7v-36h-317v36q23 1 38 7q34 12 49 40q15 31 15 110v312q0 79 -15 111q-17 31 -49 40q-15 5 -38 6v36h317v-36q-23 -1 -38 -6q-33 -10 -49 -40q-15 -32 -15 -111zM194 758q-28 0 -46 17.5t-18 45.5t18 45.5t46 17.5
t46 -17.5t18 -45.5t-18 -45.5t-46 -17.5z" />
    <glyph glyph-name="dotlessi" unicode="&#x131;" horiz-adv-x="302" 
d="M204 384v-246q0 -39 4 -53q7 -30 35 -43q17 -6 37 -8v-34h-251v34q18 1 36 8q28 14 35 43q3 14 3 53v232q0 43 -3 54q-6 19 -22 28q-20 12 -53 19v34h175q7 0 7 -8q-3 -84 -3 -113z" />
    <glyph glyph-name="IJ" unicode="&#x132;" horiz-adv-x="837" 
d="M615 505q0 81 -15 110q-14 29 -48 41q-15 4 -39 6v36h315v-36q-25 -2 -38 -6q-34 -12 -49 -41t-15 -110v-293q0 -104 -61 -172q-53 -55 -133 -55q-71 0 -109 34q-31 27 -31 66q0 27 17 43t42 16q31 0 46 -23q11 -19 16 -45q3 -21 13 -33q12 -15 30 -15q32 0 47 32
q12 27 12 114v331zM250 505v-312q0 -79 15 -110q15 -27 49 -40q14 -5 38 -7v-36h-317v36q23 1 38 7q34 12 49 40q15 31 15 110v312q0 79 -15 111q-17 31 -49 40q-15 5 -38 6v36h317v-36q-23 -1 -38 -6q-33 -10 -49 -40q-15 -32 -15 -111z" />
    <glyph glyph-name="ij" unicode="&#x133;" horiz-adv-x="565" 
d="M436 608q-28 0 -46 17.5t-18 45.5t18 45.5t46 17.5t46 -17.5t18 -45.5t-18 -45.5t-46 -17.5zM385 -45v415q0 43 -3 54q-6 18 -22 28q-19 11 -55 19v34h177q7 0 7 -7q0 -12 -1 -48.5t-1 -64.5v-349q0 -148 -79 -209q-40 -31 -95 -31q-59 0 -89 21q-43 28 -43 77
q0 26 15.5 41t37.5 15q24 0 37.5 -13.5t13.5 -36.5q0 -7 -2 -23q-2 -14 -2 -18q0 -30 37 -30q33 0 48 22q19 27 19 104zM159 608q-28 0 -46 17.5t-18 45.5t18 45.5t46 17.5t46 -17.5t18 -45.5t-18 -45.5t-46 -17.5zM204 384v-246q0 -39 4 -53q7 -30 35 -43q17 -6 37 -8v-34
h-251v34q18 1 36 8q28 14 35 43q3 14 3 53v232q0 43 -3 54q-6 19 -22 28q-20 12 -53 19v34h175q7 0 7 -8q-3 -84 -3 -113z" />
    <glyph glyph-name="Jcircumflex" unicode="&#x134;" horiz-adv-x="437" 
d="M215 505q0 81 -15 110q-14 29 -48 41q-15 4 -39 6v36h315v-36q-25 -2 -38 -6q-34 -12 -49 -41t-15 -110v-293q0 -104 -61 -172q-53 -55 -133 -55q-71 0 -109 34q-31 27 -31 66q0 27 17 43t42 16q31 0 46 -23q11 -19 16 -45q3 -21 13 -33q12 -15 30 -15q32 0 47 32
q12 27 12 114v331zM412 783l-19 -28l-122 63l-122 -63l-19 28l115 105h52z" />
    <glyph glyph-name="jcircumflex" unicode="&#x135;" horiz-adv-x="285" 
d="M105 -45v415q0 43 -3 54q-6 19 -22 28q-19 11 -55 19v34h177q7 0 7 -7q0 -12 -1 -48.5t-1 -64.5v-349q0 -148 -79 -209q-40 -31 -95 -31q-59 0 -89 21q-43 28 -43 77q0 26 15.5 41t37.5 15q24 0 37.5 -13.5t13.5 -36.5q0 -7 -2 -23q-2 -14 -2 -18q0 -30 37 -30
q33 0 48 22q19 27 19 104zM266 585l-27 -25l-112 87l-112 -87l-27 25l115 132h48z" />
    <glyph glyph-name="uni0136" unicode="&#x136;" horiz-adv-x="712" 
d="M349 36v-36h-319v36q24 2 38 7q33 10 49 40q15 31 15 110v312q0 79 -15 111q-15 28 -49 40q-15 5 -38 6v36h319v-36q-25 -2 -40 -6q-34 -12 -49 -40q-15 -32 -15 -111v-137l156 153l8 8q35 35 49 53t14 36q0 12 -5 19.5t-9.5 10t-15.5 7.5q-13 5 -40 7v36h273v-36
q-39 -5 -84 -32q-47 -28 -115 -96l-127 -120v-8q104 0 153 -49q67 -68 77 -170q5 -43 14.5 -71t18 -38t22.5 -21q23 -16 64 -21v-36h-182q-18 17 -35.5 67t-21.5 102q-9 100 -32 143q-18 33 -36 46.5t-53 13.5q-27 0 -61 -30q-19 -17 -32 -34v-115q0 -79 15 -110
q16 -30 49 -40q13 -5 40 -7zM483 -117q0 -48 -39 -87t-95 -62l-13 30q82 34 82 67q0 8 -10 11q-45 16 -45 57q0 21 15 37.5t40 16.5q30 0 47.5 -18.5t17.5 -51.5z" />
    <glyph glyph-name="uni0137" unicode="&#x137;" horiz-adv-x="586" 
d="M277 34v-34h-243v34q15 1 33 8q28 14 35 43q3 14 3 53v488q0 43 -3 54q-7 20 -22 28q-16 10 -55 14v34h176q7 0 7 -8q0 -10 -1 -54t-1 -69v-353l98 79q24 19 34 28.5t19.5 23t9.5 26.5q0 22 -24 33q-12 5 -44 9v34h261v-34q-37 -12 -66 -29q-25 -14 -108 -75l-86 -64
q58 -4 104 -33t57 -73q18 -81 45 -125q19 -32 75 -38v-34h-165q-9 12 -45 148q-8 26 -14.5 43.5t-18.5 36.5t-29.5 31t-41.5 17l-61 -50v-88q0 -39 4 -53q8 -31 32 -43q18 -7 35 -8zM400 -97q0 -48 -39 -87t-95 -62l-13 30q82 34 82 67q0 8 -10 11q-45 16 -45 57
q0 21 15 37.5t40 16.5q30 0 47.5 -18.5t17.5 -51.5z" />
    <glyph glyph-name="Lacute" unicode="&#x139;" horiz-adv-x="622" 
d="M84 787l127 77q48 29 67 32q9 1 18 1q20 0 33 -13.5t13 -34.5q0 -19 -13.5 -32.5t-26 -18t-33.5 -9.5q-51 -11 -175 -34zM35 0v36q24 2 38 7q33 10 49 40q15 31 15 110v312q0 79 -15 111q-15 28 -49 40q-15 5 -38 6v36h315v-36q-23 -1 -38 -6q-34 -12 -49 -40
q-15 -32 -15 -111v-351q0 -76 22 -98q19 -20 75 -20h7q50 0 77.5 12t53.5 37q55 51 91 129h33l-36 -214h-536z" />
    <glyph glyph-name="lacute" unicode="&#x13a;" horiz-adv-x="303" 
d="M203 625v-487q0 -39 4 -53q8 -31 32 -43q18 -7 35 -8v-34h-243v34q15 1 33 8q28 14 35 43q3 14 3 53v488q0 43 -3 54q-7 20 -22 28q-16 10 -55 14v34h176q7 0 7 -8q0 -10 -1 -54t-1 -69zM-5 817l127 77q48 29 67 32q9 1 18 1q20 0 33 -13.5t13 -34.5q0 -19 -13.5 -32.5
t-26 -18t-33.5 -9.5q-51 -11 -175 -34z" />
    <glyph glyph-name="uni013B" unicode="&#x13b;" horiz-adv-x="622" 
d="M35 0v36q24 2 38 7q33 10 49 40q15 31 15 110v312q0 79 -15 111q-15 28 -49 40q-15 5 -38 6v36h315v-36q-23 -1 -38 -6q-34 -12 -49 -40q-15 -32 -15 -111v-351q0 -76 22 -98q19 -20 75 -20h7q50 0 77.5 12t53.5 37q55 51 91 129h33l-36 -214h-536zM389 -117
q0 -48 -39 -87t-95 -62l-13 30q82 34 82 67q0 8 -10 11q-45 16 -45 57q0 21 15 37.5t40 16.5q30 0 47.5 -18.5t17.5 -51.5z" />
    <glyph glyph-name="uni013C" unicode="&#x13c;" horiz-adv-x="303" 
d="M203 625v-487q0 -39 4 -53q8 -31 32 -43q18 -7 35 -8v-34h-243v34q15 1 33 8q28 14 35 43q3 14 3 53v488q0 43 -3 54q-7 20 -22 28q-16 10 -55 14v34h176q7 0 7 -8q0 -10 -1 -54t-1 -69zM216 -97q0 -48 -39 -87t-95 -62l-13 30q82 34 82 67q0 8 -10 11q-45 16 -45 57
q0 21 15 37.5t40 16.5q30 0 47.5 -18.5t17.5 -51.5z" />
    <glyph glyph-name="Lcaron" unicode="&#x13d;" horiz-adv-x="622" 
d="M35 0v36q24 2 38 7q33 10 49 40q15 31 15 110v312q0 79 -15 111q-15 28 -49 40q-15 5 -38 6v36h315v-36q-23 -1 -38 -6q-34 -12 -49 -40q-15 -32 -15 -111v-351q0 -76 22 -98q19 -20 75 -20h7q50 0 77.5 12t53.5 37q55 51 91 129h33l-36 -214h-536zM427 518l24 200h86
q-42 -128 -68 -200h-42z" />
    <glyph glyph-name="lcaron" unicode="&#x13e;" horiz-adv-x="303" 
d="M203 625v-487q0 -39 4 -53q8 -31 32 -43q18 -7 35 -8v-34h-243v34q15 1 33 8q28 14 35 43q3 14 3 53v488q0 43 -3 54q-7 20 -22 28q-16 10 -55 14v34h176q7 0 7 -8q0 -10 -1 -54t-1 -69zM268 556l24 200h86q-42 -128 -68 -200h-42z" />
    <glyph glyph-name="Ldot" unicode="&#x13f;" horiz-adv-x="622" 
d="M534 362q0 -25 -16.5 -41t-41.5 -16t-41 16t-16 41t16 40.5t41 15.5t41.5 -15.5t16.5 -40.5zM35 0v36q24 2 38 7q33 10 49 40q15 31 15 110v312q0 79 -15 111q-15 28 -49 40q-15 5 -38 6v36h315v-36q-23 -1 -38 -6q-34 -12 -49 -40q-15 -32 -15 -111v-351q0 -76 22 -98
q19 -20 75 -20h7q50 0 77.5 12t53.5 37q55 51 91 129h33l-36 -214h-536z" />
    <glyph glyph-name="ldot" unicode="&#x140;" horiz-adv-x="377" 
d="M203 625v-487q0 -39 4 -53q8 -31 32 -43q18 -7 35 -8v-34h-243v34q15 1 33 8q28 14 35 43q3 14 3 53v488q0 43 -3 54q-7 20 -22 28q-16 10 -55 14v34h176q7 0 7 -8q0 -10 -1 -54t-1 -69zM337 288q-25 0 -41.5 16t-16.5 41t16.5 41t41.5 16t41.5 -16t16.5 -41t-16.5 -41
t-41.5 -16z" />
    <glyph glyph-name="Lslash" unicode="&#x141;" horiz-adv-x="622" 
d="M29 233v42l108 45v185q0 79 -15 111q-15 28 -49 40q-15 5 -38 6v36h315v-36q-23 -1 -38 -6q-34 -12 -49 -40q-15 -32 -15 -111v-138l189 79v-42l-189 -79v-171q0 -76 22 -98q19 -20 75 -20h7q50 0 77.5 12t53.5 37q55 51 91 129h33l-36 -214h-536v36q24 2 38 7
q33 10 49 40q15 31 15 110v85z" />
    <glyph glyph-name="lslash" unicode="&#x142;" horiz-adv-x="301" 
d="M203 625v-229l80 54v-51l-80 -54v-207q0 -39 4 -53q8 -31 32 -43q18 -7 35 -8v-34h-243v34q15 1 33 8q28 14 35 43q3 14 3 53v139l-84 -56v51l84 56v298q0 43 -3 54q-7 20 -22 28q-16 10 -55 14v34h176q7 0 7 -8q0 -10 -1 -54t-1 -69z" />
    <glyph glyph-name="Nacute" unicode="&#x143;" horiz-adv-x="773" 
d="M654 -8h-51l-396 579h-10v-401q0 -67 19 -94q16 -23 44 -32q19 -6 43 -8v-36h-265v36q24 2 40 6q26 7 46 31q25 28 25 97v291q0 94 -21 138q-15 32 -59 54q-15 7 -40 9v36h228l340 -504h9v333q0 73 -23 99q-19 21 -48 29q-13 5 -45 7v36h270v-36q-18 -2 -43 -9
q-27 -7 -43 -32q-20 -26 -20 -94v-535zM315 787l127 77q48 29 67 32q9 1 18 1q20 0 33 -13.5t13 -34.5q0 -19 -13.5 -32.5t-26 -18t-33.5 -9.5q-51 -11 -175 -34z" />
    <glyph glyph-name="nacute" unicode="&#x144;" horiz-adv-x="624" 
d="M527 138q0 -39 3 -53q7 -30 35 -43q17 -6 37 -8v-34h-249v34q18 1 38 8q24 12 32 43q3 14 3 53v238q0 44 -22 66q-18 17 -58 17q-75 0 -111 -51q-29 -38 -29 -102v-168q0 -39 4 -53q8 -31 32 -43q18 -7 36 -8v-34h-249v34q21 2 38 8q28 14 35 43q3 14 3 53v232
q0 43 -3 54q-6 19 -22 28q-19 11 -55 19v34h170q7 0 7 -8l-2 -74h12q26 40 63 63q47 32 110 32q58 0 93 -25q49 -35 49 -107v-248zM213 596l115 108q27 25 43.5 35t36.5 10t31.5 -13t11.5 -35q0 -35 -58 -61l-162 -72z" />
    <glyph glyph-name="uni0145" unicode="&#x145;" horiz-adv-x="773" 
d="M654 -8h-51l-396 579h-10v-401q0 -67 19 -94q16 -23 44 -32q19 -6 43 -8v-36h-265v36q24 2 40 6q26 7 46 31q25 28 25 97v291q0 94 -21 138q-15 32 -59 54q-15 7 -40 9v36h228l340 -504h9v333q0 73 -23 99q-19 21 -48 29q-13 5 -45 7v36h270v-36q-18 -2 -43 -9
q-27 -7 -43 -32q-20 -26 -20 -94v-535zM446 -117q0 -48 -39 -87t-95 -62l-13 30q82 34 82 67q0 8 -10 11q-45 16 -45 57q0 21 15 37.5t40 16.5q30 0 47.5 -18.5t17.5 -51.5z" />
    <glyph glyph-name="uni0146" unicode="&#x146;" horiz-adv-x="624" 
d="M527 138q0 -39 3 -53q7 -30 35 -43q17 -6 37 -8v-34h-249v34q18 1 38 8q24 12 32 43q3 14 3 53v238q0 44 -22 66q-18 17 -58 17q-75 0 -111 -51q-29 -38 -29 -102v-168q0 -39 4 -53q8 -31 32 -43q18 -7 36 -8v-34h-249v34q21 2 38 8q28 14 35 43q3 14 3 53v232
q0 43 -3 54q-6 19 -22 28q-19 11 -55 19v34h170q7 0 7 -8l-2 -74h12q26 40 63 63q47 32 110 32q58 0 93 -25q49 -35 49 -107v-248zM382 -97q0 -48 -39 -87t-95 -62l-13 30q82 34 82 67q0 8 -10 11q-45 16 -45 57q0 21 15 37.5t40 16.5q30 0 47.5 -18.5t17.5 -51.5z" />
    <glyph glyph-name="Ncaron" unicode="&#x147;" horiz-adv-x="773" 
d="M654 -8h-51l-396 579h-10v-401q0 -67 19 -94q16 -23 44 -32q19 -6 43 -8v-36h-265v36q24 2 40 6q26 7 46 31q25 28 25 97v291q0 94 -21 138q-15 32 -59 54q-15 7 -40 9v36h228l340 -504h9v333q0 73 -23 99q-19 21 -48 29q-13 5 -45 7v36h270v-36q-18 -2 -43 -9
q-27 -7 -43 -32q-20 -26 -20 -94v-535zM547 860l-115 -105h-52l-115 105l19 28l122 -63l122 63z" />
    <glyph glyph-name="ncaron" unicode="&#x148;" horiz-adv-x="624" 
d="M527 138q0 -39 3 -53q7 -30 35 -43q17 -6 37 -8v-34h-249v34q18 1 38 8q24 12 32 43q3 14 3 53v238q0 44 -22 66q-18 17 -58 17q-75 0 -111 -51q-29 -38 -29 -102v-168q0 -39 4 -53q8 -31 32 -43q18 -7 36 -8v-34h-249v34q21 2 38 8q28 14 35 43q3 14 3 53v232
q0 43 -3 54q-6 19 -22 28q-19 11 -55 19v34h170q7 0 7 -8l-2 -74h12q26 40 63 63q47 32 110 32q58 0 93 -25q49 -35 49 -107v-248zM448 692l-115 -132h-48l-115 132l27 25l112 -87l112 87z" />
    <glyph glyph-name="napostrophe" unicode="&#x149;" horiz-adv-x="705" 
d="M608 138q0 -39 3 -53q7 -30 35 -43q17 -6 37 -8v-34h-249v34q18 1 38 8q24 12 32 43q3 14 3 53v238q0 44 -22 66q-18 17 -58 17q-75 0 -111 -51q-29 -38 -29 -102v-168q0 -39 4 -53q8 -31 32 -43q18 -7 36 -8v-34h-249v34q21 2 38 8q28 14 35 43q3 14 3 53v232
q0 43 -3 54q-6 19 -22 28q-19 11 -55 19v34h170q7 0 7 -8l-2 -74h12q26 40 63 63q47 32 110 32q58 0 93 -25q49 -35 49 -107v-248zM120 669q0 -71 -41.5 -114.5t-115.5 -69.5l-13 30q54 21 76 40.5t22 42.5q0 20 -18 26q-52 18 -52 66q0 27 19.5 44.5t45.5 17.5
q33 0 55 -21.5t22 -61.5z" />
    <glyph glyph-name="Eng" unicode="&#x14a;" horiz-adv-x="773" 
d="M460 -201q-71 0 -109 34q-31 27 -31 66q0 27 17 43t42 16q31 0 46 -23q11 -19 16 -45q4 -24 12 -34q11 -14 31 -14q50 0 76 25q46 44 46 122v9l-399 573h-10v-401q0 -67 19 -94q16 -23 44 -32q19 -6 43 -8v-36h-265v36q24 2 40 6q26 7 46 31q25 28 25 97v291
q0 94 -21 138q-15 32 -59 54q-15 7 -40 9v36h228l340 -494h9v323q0 73 -23 99q-19 21 -48 29q-13 5 -45 7v36h270v-36q-18 -2 -43 -9q-27 -7 -43 -32q-20 -26 -20 -94v-542q0 -87 -54 -139q-48 -47 -140 -47z" />
    <glyph glyph-name="eng" unicode="&#x14b;" horiz-adv-x="592" 
d="M426 -45v419q0 44 -22 66q-18 17 -58 17q-75 0 -111 -51q-29 -38 -29 -102v-166q0 -39 4 -53q8 -31 32 -43q18 -7 36 -8v-34h-249v34q21 2 38 8q28 14 35 43q3 14 3 53v232q0 43 -3 54q-6 19 -22 28q-19 11 -55 19v34h170q7 0 7 -8l-2 -76h12q26 40 63 63q47 32 110 32
q58 0 93 -25q49 -35 49 -107v-348q0 -148 -79 -209q-40 -31 -95 -31q-59 0 -89 21q-43 28 -43 77q0 26 15.5 41t37.5 15q24 0 37.5 -13.5t13.5 -36.5q0 -7 -2 -23q-2 -14 -2 -18q0 -30 37 -30q33 0 48 22q20 29 20 104z" />
    <glyph glyph-name="Omacron" unicode="&#x14c;" horiz-adv-x="746" 
d="M373 711q140 0 238 -103t98 -259q0 -157 -98 -260t-238 -103t-238 103t-98 260q0 156 98 259t238 103zM373 27q58 0 104 29q110 71 110 293q0 221 -110 292q-46 29 -104 29t-104 -29q-109 -71 -109 -292q0 -222 109 -293q46 -29 104 -29zM497 776h-254v57h254v-57z" />
    <glyph glyph-name="omacron" unicode="&#x14d;" horiz-adv-x="566" 
d="M34 255q0 118 72.5 190.5t176.5 72.5t176.5 -72.5t72.5 -190.5q0 -119 -73 -192t-176 -73t-176 73t-73 192zM144 255q0 -150 66 -202q32 -24 73 -24q40 0 72 24q67 53 67 202q0 150 -67 201q-29 23 -72 23q-44 0 -73 -23q-66 -51 -66 -201zM409 606h-254v53h254v-53z" />
    <glyph glyph-name="Obreve" unicode="&#x14e;" horiz-adv-x="746" 
d="M373 711q140 0 238 -103t98 -259q0 -157 -98 -260t-238 -103t-238 103t-98 260q0 156 98 259t238 103zM373 27q58 0 104 29q110 71 110 293q0 221 -110 292q-46 29 -104 29t-104 -29q-109 -71 -109 -292q0 -222 109 -293q46 -29 104 -29zM370 757q-55 0 -91.5 35.5
t-42.5 94.5l30 8q22 -68 103 -68q84 0 105 68l30 -8q-6 -59 -42.5 -94.5t-91.5 -35.5z" />
    <glyph glyph-name="obreve" unicode="&#x14f;" horiz-adv-x="566" 
d="M34 255q0 118 72.5 190.5t176.5 72.5t176.5 -72.5t72.5 -190.5q0 -119 -73 -192t-176 -73t-176 73t-73 192zM144 255q0 -150 66 -202q32 -24 73 -24q40 0 72 24q67 53 67 202q0 150 -67 201q-29 23 -72 23q-44 0 -73 -23q-66 -51 -66 -201zM282 581q-54 0 -86 35t-38 95
l30 8q13 -40 36 -54.5t57 -14.5q36 0 59 14.5t36 54.5l30 -8q-6 -60 -38 -95t-86 -35z" />
    <glyph glyph-name="Ohungarumlaut" unicode="&#x150;" horiz-adv-x="746" 
d="M373 711q140 0 238 -103t98 -259q0 -157 -98 -260t-238 -103t-238 103t-98 260q0 156 98 259t238 103zM373 27q58 0 104 29q110 71 110 293q0 221 -110 292q-46 29 -104 29t-104 -29q-109 -71 -109 -292q0 -222 109 -293q46 -29 104 -29zM388 941q15 0 25 -10t10 -24
q0 -27 -33 -63l-96 -96h-38l76 150q22 43 56 43zM568 941q15 0 25 -10t10 -24q0 -27 -33 -63l-96 -96h-38l76 150q22 43 56 43z" />
    <glyph glyph-name="ohungarumlaut" unicode="&#x151;" horiz-adv-x="566" 
d="M34 255q0 118 72.5 190.5t176.5 72.5t176.5 -72.5t72.5 -190.5q0 -119 -73 -192t-176 -73t-176 73t-73 192zM144 255q0 -150 66 -202q32 -24 73 -24q40 0 72 24q67 53 67 202q0 150 -67 201q-29 23 -72 23q-44 0 -73 -23q-66 -51 -66 -201zM292 759q15 0 24.5 -10
t9.5 -24q0 -29 -31 -63l-106 -112l-26 16l74 150q21 43 55 43zM465 759q15 0 24.5 -10t9.5 -24q0 -29 -31 -63l-106 -112l-26 16l74 150q22 43 55 43z" />
    <glyph glyph-name="OE" unicode="&#x152;" horiz-adv-x="1022" 
d="M366 661q-66 0 -112 -31q-50 -35 -72 -100.5t-22 -180.5q0 -125 21 -185.5t72 -96.5q43 -30 113 -30q64 0 95 26t43 89.5t12 196.5q0 137 -12.5 201t-42.5 87.5t-95 23.5zM985 196l-33 -196h-585q-145 0 -237.5 96t-92.5 253q0 158 92.5 253.5t237.5 95.5h568l31 -173
h-34q-32 59 -83 100q-40 36 -116 36h-47q-35 0 -48 -16q-11 -16 -11 -58v-207h49q65 0 91 26q28 27 35 85h32v-261h-32q-7 61 -37 88q-26 25 -89 25h-49v-188q0 -77 21 -98q19 -20 78 -20h13q35 0 61 7.5t38 15.5t34 26q40 33 82 110h31z" />
    <glyph glyph-name="oe" unicode="&#x153;" horiz-adv-x="881" 
d="M847 139q-25 -68 -79 -108.5t-131 -40.5q-94 0 -157 67q-17 19 -23 29h-8q-61 -96 -176 -96q-102 0 -170.5 72.5t-68.5 192.5q0 119 68.5 191t170.5 72q121 0 180 -98h8q30 46 75.5 72t98.5 26t93.5 -18t62.5 -47t32.5 -60t10.5 -64q0 -34 -4 -58h-317v-17q0 -44 1.5 -70
t11 -58.5t28.5 -52.5q37 -39 100 -39q114 0 163 119zM561 452q-40 -40 -46 -144h182q18 0 26 11.5t8 40.5q0 8 0.5 24t0 22t-1.5 15.5t-4.5 16t-9.5 12.5q-25 29 -80 29q-45 0 -75 -27zM144 255q0 -158 56 -202q32 -24 73 -24q40 0 72 24q57 45 57 202t-57 201
q-29 23 -72 23q-44 0 -73 -23q-31 -24 -43.5 -71.5t-12.5 -129.5z" />
    <glyph glyph-name="Racute" unicode="&#x154;" horiz-adv-x="717" 
d="M348 662h-73q-18 0 -21 -5q-4 -4 -4 -21v-268h73q59 0 86 9.5t45 33.5q29 40 29 107q0 144 -135 144zM352 36v-36h-317v36q24 2 38 7q33 10 49 40q15 31 15 110v312q0 79 -15 111q-15 28 -49 40q-15 5 -38 6v36h328q104 0 169 -49.5t65 -130.5q0 -82 -77 -132
q-33 -22 -101 -36v-8q54 -7 86 -29q19 -12 30.5 -23t24 -34.5t19.5 -57.5q20 -112 60 -141q27 -18 66 -21v-36h-181q-38 45 -52 149q-10 67 -18 94t-29 53q-27 34 -105 34h-70v-137q0 -79 15 -110q16 -30 49 -40q14 -5 38 -7zM195 787l127 77q48 29 67 32q9 1 18 1
q20 0 33 -13.5t13 -34.5q0 -19 -13.5 -32.5t-26 -18t-33.5 -9.5q-51 -11 -175 -34z" />
    <glyph glyph-name="racute" unicode="&#x155;" horiz-adv-x="436" 
d="M206 408q24 52 59 80q38 30 86 30q38 0 62 -21q18 -18 18 -50q0 -55 -51 -55q-38 0 -53 42q-7 20 -30 20q-25 0 -56.5 -40t-36.5 -89q-3 -27 -3 -71v-116q0 -39 4 -53q9 -34 32 -43q18 -6 46 -8v-34h-259v34q21 2 38 8q28 14 35 43q3 14 3 53v232q0 43 -3 54
q-6 19 -22 28q-19 11 -55 19v34h173q7 0 7 -8l-5 -89h11zM139 596l115 108q27 25 43.5 35t36.5 10t31.5 -13t11.5 -35q0 -35 -58 -61l-162 -72z" />
    <glyph glyph-name="uni0156" unicode="&#x156;" horiz-adv-x="717" 
d="M348 662h-73q-18 0 -21 -5q-4 -4 -4 -21v-268h73q59 0 86 9.5t45 33.5q29 40 29 107q0 144 -135 144zM352 36v-36h-317v36q24 2 38 7q33 10 49 40q15 31 15 110v312q0 79 -15 111q-15 28 -49 40q-15 5 -38 6v36h328q104 0 169 -49.5t65 -130.5q0 -82 -77 -132
q-33 -22 -101 -36v-8q54 -7 86 -29q19 -12 30.5 -23t24 -34.5t19.5 -57.5q20 -112 60 -141q27 -18 66 -21v-36h-181q-38 45 -52 149q-10 67 -18 94t-29 53q-27 34 -105 34h-70v-137q0 -79 15 -110q16 -30 49 -40q14 -5 38 -7zM488 -117q0 -48 -39 -87t-95 -62l-13 30
q82 34 82 67q0 8 -10 11q-45 16 -45 57q0 21 15 37.5t40 16.5q30 0 47.5 -18.5t17.5 -51.5z" />
    <glyph glyph-name="uni0157" unicode="&#x157;" horiz-adv-x="436" 
d="M206 408q24 52 59 80q38 30 86 30q38 0 62 -21q18 -18 18 -50q0 -55 -51 -55q-38 0 -53 42q-7 20 -30 20q-25 0 -56.5 -40t-36.5 -89q-3 -27 -3 -71v-116q0 -39 4 -53q9 -34 32 -43q18 -6 46 -8v-34h-259v34q21 2 38 8q28 14 35 43q3 14 3 53v232q0 43 -3 54
q-6 19 -22 28q-19 11 -55 19v34h173q7 0 7 -8l-5 -89h11zM211 -97q0 -48 -39 -87t-95 -62l-13 30q82 34 82 67q0 8 -10 11q-45 16 -45 57q0 21 15 37.5t40 16.5q30 0 47.5 -18.5t17.5 -51.5z" />
    <glyph glyph-name="Rcaron" unicode="&#x158;" horiz-adv-x="717" 
d="M348 662h-73q-18 0 -21 -5q-4 -4 -4 -21v-268h73q59 0 86 9.5t45 33.5q29 40 29 107q0 144 -135 144zM352 36v-36h-317v36q24 2 38 7q33 10 49 40q15 31 15 110v312q0 79 -15 111q-15 28 -49 40q-15 5 -38 6v36h328q104 0 169 -49.5t65 -130.5q0 -82 -77 -132
q-33 -22 -101 -36v-8q54 -7 86 -29q19 -12 30.5 -23t24 -34.5t19.5 -57.5q20 -112 60 -141q27 -18 66 -21v-36h-181q-38 45 -52 149q-10 67 -18 94t-29 53q-27 34 -105 34h-70v-137q0 -79 15 -110q16 -30 49 -40q14 -5 38 -7zM459 860l-115 -105h-52l-115 105l19 28l122 -63
l122 63z" />
    <glyph glyph-name="rcaron" unicode="&#x159;" horiz-adv-x="436" 
d="M206 408q24 52 59 80q38 30 86 30q38 0 62 -21q18 -18 18 -50q0 -55 -51 -55q-38 0 -53 42q-7 20 -30 20q-25 0 -56.5 -40t-36.5 -89q-3 -27 -3 -71v-116q0 -39 4 -53q9 -34 32 -43q18 -6 46 -8v-34h-259v34q21 2 38 8q28 14 35 43q3 14 3 53v232q0 43 -3 54
q-6 19 -22 28q-19 11 -55 19v34h173q7 0 7 -8l-5 -89h11zM374 692l-115 -132h-48l-115 132l27 25l112 -87l112 87z" />
    <glyph glyph-name="Sacute" unicode="&#x15a;" horiz-adv-x="546" 
d="M513 193q0 -95 -67.5 -151t-161.5 -56q-52 0 -98 20t-76 48h-10l-28 -49h-25l-10 231h34q32 -87 90.5 -149.5t122.5 -62.5q67 0 103 33t36 87q0 20 -3.5 36t-14 30t-17.5 22.5t-28.5 21l-30 17.5t-39 19.5l-40.5 19.5l-58.5 29.5t-49.5 31t-45.5 41t-26.5 50t-12 66.5
q0 80 57 131.5t143 51.5q55 0 83 -11.5t59 -38.5h9l22 42h31l17 -203h-34q-35 91 -80 133q-42 40 -107 40q-47 0 -77.5 -27t-30.5 -74q0 -19 3.5 -35t14 -29.5l17.5 -22.5t25.5 -20.5t26.5 -15.5l32.5 -16l30.5 -15q102 -51 128 -70q85 -59 85 -155zM140 787l127 77
q48 29 67 32q9 1 18 1q20 0 33 -13.5t13 -34.5q0 -19 -13.5 -32.5t-26 -18t-33.5 -9.5q-51 -11 -175 -34z" />
    <glyph glyph-name="sacute" unicode="&#x15b;" horiz-adv-x="436" 
d="M409 147q0 -77 -50 -117t-125 -40q-39 0 -76.5 19t-59.5 47h-12l-17 -54h-29l-6 191h36q24 -75 67.5 -120t99.5 -45q90 0 90 71q0 43 -26.5 65t-100.5 53l-24 10t-24 10.5l-21 10t-21 11.5t-17.5 12.5t-16.5 15t-12 17.5t-10.5 21.5t-5 24.5t-2.5 30q0 59 45.5 98.5
t121.5 39.5q42 0 70.5 -15.5t40.5 -35.5h10l13 42h26l8 -152h-35q-27 70 -55 96q-32 27 -78 27q-39 0 -61.5 -19t-22.5 -50q0 -36 23.5 -56.5t93.5 -46.5q39 -15 63 -27t49.5 -31.5t38 -44.5t12.5 -58zM94 596l115 108q27 25 43.5 35t36.5 10t31.5 -13t11.5 -35
q0 -35 -58 -61l-162 -72z" />
    <glyph glyph-name="Scircumflex" unicode="&#x15c;" horiz-adv-x="546" 
d="M513 193q0 -95 -67.5 -151t-161.5 -56q-52 0 -98 20t-76 48h-10l-28 -49h-25l-10 231h34q32 -87 90.5 -149.5t122.5 -62.5q67 0 103 33t36 87q0 20 -3.5 36t-14 30t-17.5 22.5t-28.5 21l-30 17.5t-39 19.5l-40.5 19.5l-58.5 29.5t-49.5 31t-45.5 41t-26.5 50t-12 66.5
q0 80 57 131.5t143 51.5q55 0 83 -11.5t59 -38.5h9l22 42h31l17 -203h-34q-35 91 -80 133q-42 40 -107 40q-47 0 -77.5 -27t-30.5 -74q0 -19 3.5 -35t14 -29.5l17.5 -22.5t25.5 -20.5t26.5 -15.5l32.5 -16l30.5 -15q102 -51 128 -70q85 -59 85 -155zM402 783l-19 -28
l-122 63l-122 -63l-19 28l115 105h52z" />
    <glyph glyph-name="scircumflex" unicode="&#x15d;" horiz-adv-x="436" 
d="M409 147q0 -77 -50 -117t-125 -40q-39 0 -76.5 19t-59.5 47h-12l-17 -54h-29l-6 191h36q24 -75 67.5 -120t99.5 -45q90 0 90 71q0 43 -26.5 65t-100.5 53l-24 10t-24 10.5l-21 10t-21 11.5t-17.5 12.5t-16.5 15t-12 17.5t-10.5 21.5t-5 24.5t-2.5 30q0 59 45.5 98.5
t121.5 39.5q42 0 70.5 -15.5t40.5 -35.5h10l13 42h26l8 -152h-35q-27 70 -55 96q-32 27 -78 27q-39 0 -61.5 -19t-22.5 -50q0 -36 23.5 -56.5t93.5 -46.5q39 -15 63 -27t49.5 -31.5t38 -44.5t12.5 -58zM359 585l-27 -25l-112 87l-112 -87l-27 25l115 132h48z" />
    <glyph glyph-name="uni015E" unicode="&#x15e;" horiz-adv-x="546" 
d="M513 193q0 -88 -58.5 -143t-144.5 -63l-21 -59q21 12 50 12q93 0 93 -77q0 -86 -137 -86q-53 0 -92 27l18 30q35 -24 73 -24q63 0 63 50q0 46 -42 46q-24 0 -41 -14l-32 19l27 76q-96 6 -159 67h-10l-28 -49h-25l-10 231h34q32 -87 90.5 -149.5t122.5 -62.5q67 0 103 33
t36 87q0 20 -3.5 36t-14 30t-17.5 22.5t-28.5 21l-30 17.5t-39 19.5l-40.5 19.5l-58.5 29.5t-49.5 31t-45.5 41t-26.5 50t-12 66.5q0 80 57 131.5t143 51.5q55 0 83 -11.5t59 -38.5h9l22 42h31l17 -203h-34q-35 91 -80 133q-42 40 -107 40q-47 0 -77.5 -27t-30.5 -74
q0 -19 3.5 -35t14 -29.5l17.5 -22.5t25.5 -20.5t26.5 -15.5l32.5 -16l30.5 -15q102 -51 128 -70q85 -59 85 -155z" />
    <glyph glyph-name="uni015F" unicode="&#x15f;" horiz-adv-x="436" 
d="M293 -117q0 -86 -137 -86q-53 0 -92 27l18 30q35 -24 73 -24q63 0 63 50q0 46 -42 46q-24 0 -41 -14l-32 19l29 80h21q-35 19 -55 45h-12l-17 -54h-29l-6 191h36q24 -75 67.5 -120t99.5 -45q90 0 90 71q0 43 -26.5 65t-100.5 53l-24 10t-24 10.5l-21 10t-21 11.5
t-17.5 12.5t-16.5 15t-12 17.5t-10.5 21.5t-5 24.5t-2.5 30q0 59 45.5 98.5t121.5 39.5q42 0 70.5 -15.5t40.5 -35.5h10l13 42h26l8 -152h-35q-27 70 -55 96q-32 27 -78 27q-39 0 -61.5 -19t-22.5 -50q0 -36 23.5 -56.5t93.5 -46.5q39 -15 63 -27t49.5 -31.5t38 -44.5
t12.5 -58q0 -77 -50 -117t-125 -40q-32 0 -64 13l-20 -55q21 12 50 12q93 0 93 -77z" />
    <glyph glyph-name="Scaron" unicode="&#x160;" horiz-adv-x="546" 
d="M513 193q0 -95 -67.5 -151t-161.5 -56q-52 0 -98 20t-76 48h-10l-28 -49h-25l-10 231h34q32 -87 90.5 -149.5t122.5 -62.5q67 0 103 33t36 87q0 20 -3.5 36t-14 30t-17.5 22.5t-28.5 21l-30 17.5t-39 19.5l-40.5 19.5l-58.5 29.5t-49.5 31t-45.5 41t-26.5 50t-12 66.5
q0 80 57 131.5t143 51.5q55 0 83 -11.5t59 -38.5h9l22 42h31l17 -203h-34q-35 91 -80 133q-42 40 -107 40q-47 0 -77.5 -27t-30.5 -74q0 -19 3.5 -35t14 -29.5l17.5 -22.5t25.5 -20.5t26.5 -15.5l32.5 -16l30.5 -15q102 -51 128 -70q85 -59 85 -155zM402 860l-115 -105h-52
l-115 105l19 28l122 -63l122 63z" />
    <glyph glyph-name="scaron" unicode="&#x161;" horiz-adv-x="436" 
d="M409 147q0 -77 -50 -117t-125 -40q-39 0 -76.5 19t-59.5 47h-12l-17 -54h-29l-6 191h36q24 -75 67.5 -120t99.5 -45q90 0 90 71q0 43 -26.5 65t-100.5 53l-24 10t-24 10.5l-21 10t-21 11.5t-17.5 12.5t-16.5 15t-12 17.5t-10.5 21.5t-5 24.5t-2.5 30q0 59 45.5 98.5
t121.5 39.5q42 0 70.5 -15.5t40.5 -35.5h10l13 42h26l8 -152h-35q-27 70 -55 96q-32 27 -78 27q-39 0 -61.5 -19t-22.5 -50q0 -36 23.5 -56.5t93.5 -46.5q39 -15 63 -27t49.5 -31.5t38 -44.5t12.5 -58zM351 692l-115 -132h-48l-115 132l27 25l112 -87l112 87z" />
    <glyph glyph-name="Tcommaaccent" unicode="&#x162;" horiz-adv-x="670" 
d="M392 193q0 -81 15 -110t48 -40q13 -5 38 -7v-36h-316v36q26 2 38 7q33 10 49 40q15 29 15 110v467h-29q-73 0 -127 -39q-33 -25 -48.5 -46t-33.5 -57h-34l31 180h594l31 -180h-32q-17 35 -34 57.5t-49 45.5q-54 39 -128 39h-28v-467zM402 -117q0 -48 -39 -87t-95 -62
l-13 30q82 34 82 67q0 8 -10 11q-45 16 -45 57q0 21 15 37.5t40 16.5q30 0 47.5 -18.5t17.5 -51.5z" />
    <glyph glyph-name="tcommaaccent" unicode="&#x163;" horiz-adv-x="358" 
d="M340 73l18 -24q-46 -59 -131 -59q-68 0 -103 32q-29 25 -29 87v355h-87v28q59 12 94 51.5t65 138.5h29v-177h132v-41h-132v-355q0 -68 65 -68q45 0 79 32zM278 -97q0 -48 -39 -87t-95 -62l-13 30q82 34 82 67q0 8 -10 11q-45 16 -45 57q0 21 15 37.5t40 16.5
q30 0 47.5 -18.5t17.5 -51.5z" />
    <glyph glyph-name="Tcaron" unicode="&#x164;" horiz-adv-x="670" 
d="M392 193q0 -81 15 -110t48 -40q13 -5 38 -7v-36h-316v36q26 2 38 7q33 10 49 40q15 29 15 110v467h-29q-73 0 -127 -39q-33 -25 -48.5 -46t-33.5 -57h-34l31 180h594l31 -180h-32q-17 35 -34 57.5t-49 45.5q-54 39 -128 39h-28v-467zM476 860l-115 -105h-52l-115 105
l19 28l122 -63l122 63z" />
    <glyph glyph-name="tcaron" unicode="&#x165;" horiz-adv-x="358" 
d="M340 73l18 -24q-46 -59 -131 -59q-68 0 -103 32q-29 25 -29 87v355h-87v28q59 12 94 51.5t65 138.5h29v-177h132v-41h-132v-355q0 -68 65 -68q45 0 79 32zM240 544l24 200h86q-42 -128 -68 -200h-42z" />
    <glyph glyph-name="Tbar" unicode="&#x166;" horiz-adv-x="670" 
d="M392 193q0 -81 15 -110t48 -40q13 -5 38 -7v-36h-316v36q26 2 38 7q33 10 49 40q15 29 15 110v205h-160v40h160v222h-29q-73 0 -127 -39q-33 -25 -48.5 -46t-33.5 -57h-34l31 180h594l31 -180h-32q-17 35 -34 57.5t-49 45.5q-54 39 -128 39h-28v-222h160v-40h-160v-205z
" />
    <glyph glyph-name="tbar" unicode="&#x167;" horiz-adv-x="358" 
d="M10 319v38h85v107h-87v28q59 12 94 51.5t65 138.5h29v-177h132v-41h-132v-107h131v-38h-131v-210q0 -68 65 -68q45 0 79 32l18 -24q-46 -59 -131 -59q-68 0 -103 32q-29 25 -29 87v210h-85z" />
    <glyph glyph-name="Utilde" unicode="&#x168;" horiz-adv-x="752" 
d="M638 234q0 -105 -38 -162q-56 -85 -214 -85q-90 0 -161.5 32.5t-96.5 97.5q-19 49 -19 146v242q0 81 -15 110q-14 29 -48 41q-15 4 -39 6v36h318v-36q-25 -2 -38 -6q-34 -12 -49 -41q-16 -31 -16 -109v-282q0 -53 14 -96q30 -99 159 -99t169 67q27 45 27 132v299
q0 72 -24 99q-19 21 -47 30q-15 4 -45 6v36h269v-36q-26 -3 -43 -8q-28 -9 -44 -32q-19 -25 -19 -95v-293zM560 863q-13 -43 -41 -71t-61 -28q-27 0 -64.5 14.5t-55.5 14.5q-16 0 -31 -12.5t-23 -32.5l-30 11q14 42 38.5 72t55.5 30q25 0 64 -14.5t60 -14.5q41 0 58 42z" />
    <glyph glyph-name="utilde" unicode="&#x169;" horiz-adv-x="621" 
d="M516 137q0 -38 4 -52q8 -33 35 -43q15 -6 42 -8v-34h-165q-9 0 -9 11l-1 70h-10q-23 -41 -51 -62q-41 -31 -106 -31q-87 0 -129 50q-31 37 -31 108v227q0 43 -3 54q-6 19 -22 28q-20 13 -55 16v34h178q7 0 7 -7q-4 -116 -4 -120v-225q0 -59 24 -84q26 -29 72 -29
q42 0 75 26q39 33 45 89q3 30 3 80v138q0 43 -3 54q-6 18 -22 28q-22 13 -57 16v34h180q7 0 7 -7q-4 -116 -4 -120v-241zM421 703q-13 -43 -41 -71t-61 -28q-27 0 -64.5 14.5t-55.5 14.5q-16 0 -31 -12.5t-23 -32.5l-30 11q14 42 38.5 72t55.5 30q25 0 64 -14.5t60 -14.5
q41 0 58 42z" />
    <glyph glyph-name="Umacron" unicode="&#x16a;" horiz-adv-x="752" 
d="M638 234q0 -105 -38 -162q-56 -85 -214 -85q-90 0 -161.5 32.5t-96.5 97.5q-19 49 -19 146v242q0 81 -15 110q-14 29 -48 41q-15 4 -39 6v36h318v-36q-25 -2 -38 -6q-34 -12 -49 -41q-16 -31 -16 -109v-282q0 -53 14 -96q30 -99 159 -99t169 67q27 45 27 132v299
q0 72 -24 99q-19 21 -47 30q-15 4 -45 6v36h269v-36q-26 -3 -43 -8q-28 -9 -44 -32q-19 -25 -19 -95v-293zM527 776h-254v57h254v-57z" />
    <glyph glyph-name="umacron" unicode="&#x16b;" horiz-adv-x="621" 
d="M516 137q0 -38 4 -52q8 -33 35 -43q15 -6 42 -8v-34h-165q-9 0 -9 11l-1 70h-10q-23 -41 -51 -62q-41 -31 -106 -31q-87 0 -129 50q-31 37 -31 108v227q0 43 -3 54q-6 19 -22 28q-20 13 -55 16v34h178q7 0 7 -7q-4 -116 -4 -120v-225q0 -59 24 -84q26 -29 72 -29
q42 0 75 26q39 33 45 89q3 30 3 80v138q0 43 -3 54q-6 18 -22 28q-22 13 -57 16v34h180q7 0 7 -7q-4 -116 -4 -120v-241zM400 606h-254v53h254v-53z" />
    <glyph glyph-name="Ubreve" unicode="&#x16c;" horiz-adv-x="752" 
d="M638 234q0 -105 -38 -162q-56 -85 -214 -85q-90 0 -161.5 32.5t-96.5 97.5q-19 49 -19 146v242q0 81 -15 110q-14 29 -48 41q-15 4 -39 6v36h318v-36q-25 -2 -38 -6q-34 -12 -49 -41q-16 -31 -16 -109v-282q0 -53 14 -96q30 -99 159 -99t169 67q27 45 27 132v299
q0 72 -24 99q-19 21 -47 30q-15 4 -45 6v36h269v-36q-26 -3 -43 -8q-28 -9 -44 -32q-19 -25 -19 -95v-293zM397 757q-55 0 -91.5 35.5t-42.5 94.5l30 8q22 -68 103 -68q84 0 105 68l30 -8q-6 -59 -42.5 -94.5t-91.5 -35.5z" />
    <glyph glyph-name="ubreve" unicode="&#x16d;" horiz-adv-x="621" 
d="M516 137q0 -38 4 -52q8 -33 35 -43q15 -6 42 -8v-34h-165q-9 0 -9 11l-1 70h-10q-23 -41 -51 -62q-41 -31 -106 -31q-87 0 -129 50q-31 37 -31 108v227q0 43 -3 54q-6 19 -22 28q-20 13 -55 16v34h178q7 0 7 -7q-4 -116 -4 -120v-225q0 -59 24 -84q26 -29 72 -29
q42 0 75 26q39 33 45 89q3 30 3 80v138q0 43 -3 54q-6 18 -22 28q-22 13 -57 16v34h180q7 0 7 -7q-4 -116 -4 -120v-241zM274 581q-54 0 -86 35t-38 95l30 8q13 -40 36 -54.5t57 -14.5q36 0 59 14.5t36 54.5l30 -8q-6 -60 -38 -95t-86 -35z" />
    <glyph glyph-name="Uring" unicode="&#x16e;" horiz-adv-x="752" 
d="M638 234q0 -105 -38 -162q-56 -85 -214 -85q-90 0 -161.5 32.5t-96.5 97.5q-19 49 -19 146v242q0 81 -15 110q-14 29 -48 41q-15 4 -39 6v36h318v-36q-25 -2 -38 -6q-34 -12 -49 -41q-16 -31 -16 -109v-282q0 -53 14 -96q30 -99 159 -99t169 67q27 45 27 132v299
q0 72 -24 99q-19 21 -47 30q-15 4 -45 6v36h269v-36q-26 -3 -43 -8q-28 -9 -44 -32q-19 -25 -19 -95v-293zM493 820q0 -41 -26.5 -65t-63.5 -24t-63.5 24t-26.5 65t26.5 65.5t63.5 24.5t63.5 -24t26.5 -66zM346 820q0 -28 16 -44.5t41 -16.5t41 16.5t16 44.5q0 29 -16 45.5
t-41 16.5t-41 -16.5t-16 -45.5z" />
    <glyph glyph-name="uring" unicode="&#x16f;" horiz-adv-x="621" 
d="M516 137q0 -38 4 -52q8 -33 35 -43q15 -6 42 -8v-34h-165q-9 0 -9 11l-1 70h-10q-23 -41 -51 -62q-41 -31 -106 -31q-87 0 -129 50q-31 37 -31 108v227q0 43 -3 54q-6 19 -22 28q-20 13 -55 16v34h178q7 0 7 -7q-4 -116 -4 -120v-225q0 -59 24 -84q26 -29 72 -29
q42 0 75 26q39 33 45 89q3 30 3 80v138q0 43 -3 54q-6 18 -22 28q-22 13 -57 16v34h180q7 0 7 -7q-4 -116 -4 -120v-241zM364 651q0 -41 -26.5 -65t-63.5 -24t-63.5 24t-26.5 65t26.5 65.5t63.5 24.5t63.5 -24t26.5 -66zM217 651q0 -28 16 -44.5t41 -16.5t41 16.5t16 44.5
q0 29 -16 45.5t-41 16.5t-41 -16.5t-16 -45.5z" />
    <glyph glyph-name="Uhungarumlaut" unicode="&#x170;" horiz-adv-x="752" 
d="M638 234q0 -105 -38 -162q-56 -85 -214 -85q-90 0 -161.5 32.5t-96.5 97.5q-19 49 -19 146v242q0 81 -15 110q-14 29 -48 41q-15 4 -39 6v36h318v-36q-25 -2 -38 -6q-34 -12 -49 -41q-16 -31 -16 -109v-282q0 -53 14 -96q30 -99 159 -99t169 67q27 45 27 132v299
q0 72 -24 99q-19 21 -47 30q-15 4 -45 6v36h269v-36q-26 -3 -43 -8q-28 -9 -44 -32q-19 -25 -19 -95v-293zM591 941q15 0 25 -10t10 -24q0 -27 -33 -63l-96 -96h-38l76 150q21 43 56 43zM411 941q15 0 25 -10t10 -24q0 -27 -33 -63l-96 -96h-38l76 150q21 43 56 43z" />
    <glyph glyph-name="uhungarumlaut" unicode="&#x171;" horiz-adv-x="621" 
d="M516 137q0 -38 4 -52q8 -33 35 -43q15 -6 42 -8v-34h-165q-9 0 -9 11l-1 70h-10q-23 -41 -51 -62q-41 -31 -106 -31q-87 0 -129 50q-31 37 -31 108v227q0 43 -3 54q-6 19 -22 28q-20 13 -55 16v34h178q7 0 7 -7q-4 -116 -4 -120v-225q0 -59 24 -84q26 -29 72 -29
q42 0 75 26q39 33 45 89q3 30 3 80v138q0 43 -3 54q-6 18 -22 28q-22 13 -57 16v34h180q7 0 7 -7q-4 -116 -4 -120v-241zM473 759q15 0 24.5 -10t9.5 -24q0 -29 -31 -63l-106 -112l-26 16l74 150q22 43 55 43zM300 759q15 0 24.5 -10t9.5 -24q0 -29 -31 -63l-106 -112
l-26 16l74 150q21 43 55 43z" />
    <glyph glyph-name="Uogonek" unicode="&#x172;" horiz-adv-x="752" 
d="M464 -215q-81 -5 -132 20t-51 75q0 71 107 109h-21q-83 1 -150 35t-89 93q-19 49 -19 146v242q0 81 -15 110q-14 29 -48 41q-15 4 -39 6v36h318v-36q-25 -2 -38 -6q-34 -12 -49 -41q-16 -31 -16 -109v-282q0 -53 14 -96q30 -99 159 -99t169 67q27 45 27 132v299
q0 72 -24 99q-19 21 -47 30q-15 4 -45 6v36h269v-36q-26 -3 -43 -8q-28 -9 -44 -32q-19 -25 -19 -95v-293q0 -105 -38 -162q-14 -22 -39.5 -37.5t-48 -23t-77.5 -23.5q-31 -9 -49 -38t-18 -63q0 -28 26.5 -44.5t69.5 -19.5v-38z" />
    <glyph glyph-name="uogonek" unicode="&#x173;" horiz-adv-x="621" 
d="M528 0q-49 0 -84.5 -32.5t-35.5 -80.5q0 -28 26.5 -44.5t69.5 -19.5v-38q-81 -5 -132 20t-51 75q0 34 29 63t72 45v93h-10q-23 -41 -51 -62q-41 -31 -106 -31q-87 0 -129 50q-31 37 -31 108v227q0 43 -3 54q-6 19 -22 28q-20 13 -55 16v34h178q7 0 7 -7q-4 -116 -4 -120
v-225q0 -59 24 -84q26 -29 72 -29q42 0 75 26q39 33 45 89q3 30 3 80v138q0 43 -3 54q-6 18 -22 28q-22 13 -57 16v34h180q7 0 7 -7q-4 -116 -4 -120v-241q0 -38 4 -52q8 -33 35 -43q15 -6 42 -8v-34h-69z" />
    <glyph glyph-name="Wcircumflex" unicode="&#x174;" horiz-adv-x="1044" 
d="M699 -5l-164 483h-6l-169 -483h-41l-175 513q-23 67 -43 95q-20 30 -51 46q-26 11 -44 13v36h325v-36q-33 -2 -55 -9q-37 -11 -37 -44q0 -26 25 -103l108 -332h7l131 375q-14 40 -30 63q-22 32 -49 41q-17 6 -40 9v36h320v-36q-37 -3 -54 -8q-12 -4 -19 -7.5t-12.5 -13
t-5.5 -24.5q0 -31 24 -103l108 -332h7l113 344q18 54 18 83q0 37 -33 51q-15 6 -52 10v36h240v-36q-36 -5 -51 -14q-17 -11 -36 -41q-15 -25 -40 -94l-178 -518h-41zM691 783l-19 -28l-122 63l-122 -63l-19 28l115 105h52z" />
    <glyph glyph-name="wcircumflex" unicode="&#x175;" horiz-adv-x="841" 
d="M551 -4l-124 325h-4l-127 -325h-48l-129 319q-34 86 -40 98q-8 17 -11.5 22.5t-8.5 12.5t-12 11q-12 9 -43 12v34h252v-34q-30 -3 -40 -8q-22 -12 -22 -38q0 -24 22 -83l79 -219h10l98 241l-20 49q-16 35 -33 46q-12 9 -40 12v34h248v-34q-27 -1 -39 -8q-22 -12 -22 -38
q0 -20 22 -83l80 -219h10l82 213q22 69 22 88q0 26 -23 39q-13 6 -40 8v34h190v-34q-21 -2 -36 -12q-16 -10 -27 -27q-20 -27 -42 -89l-136 -347h-48zM575 585l-27 -25l-112 87l-112 -87l-27 25l115 132h48z" />
    <glyph glyph-name="Ycircumflex" unicode="&#x176;" horiz-adv-x="646" 
d="M262 298l-156 257q-33 59 -56.5 79.5t-57.5 27.5v36h307v-36q-37 -3 -54 -8q-22 -8 -28.5 -23.5t0.5 -36.5t26 -52l112 -185h6l98 167q33 54 33 92q0 29 -27 39q-11 4 -43 7v36h230v-36q-49 -6 -76.5 -35.5t-72.5 -110.5l-128 -219v-104q0 -81 14 -110q15 -27 49 -40
q14 -6 38 -7v-36h-316v36q21 1 38 7q33 11 49 40q15 29 15 110v105zM490 783l-19 -28l-122 63l-122 -63l-19 28l115 105h52z" />
    <glyph glyph-name="ycircumflex" unicode="&#x177;" horiz-adv-x="551" 
d="M274 -50q-26 -59 -54 -97q-42 -55 -116 -55q-36 0 -59.5 19t-23.5 48q0 23 14 38.5t32 15.5q31 0 55 -29q10 -11 16 -15q8 -6 23 -6q36 0 68 84q12 31 12 54q0 15 -11 43l-113 265l-25 61t-15 37q-17 36 -32 46q-14 9 -41 12v34h254v-34q-35 -3 -48 -8q-21 -13 -21 -38
q0 -21 25 -84l86 -211h11l88 205q24 55 24 88q0 27 -23 40q-9 5 -43 8v34h193v-34q-21 -2 -36 -11q-17 -11 -28 -28q-14 -20 -43 -89zM441 585l-27 -25l-112 87l-112 -87l-27 25l115 132h48z" />
    <glyph glyph-name="Ydieresis" unicode="&#x178;" horiz-adv-x="646" 
d="M262 298l-156 257q-33 59 -56.5 79.5t-57.5 27.5v36h307v-36q-37 -3 -54 -8q-22 -8 -28.5 -23.5t0.5 -36.5t26 -52l112 -185h6l98 167q33 54 33 92q0 29 -27 39q-11 4 -43 7v36h230v-36q-49 -6 -76.5 -35.5t-72.5 -110.5l-128 -219v-104q0 -81 14 -110q15 -27 49 -40
q14 -6 38 -7v-36h-316v36q21 1 38 7q33 11 49 40q15 29 15 110v105zM254 750q-24 0 -39.5 15t-15.5 41q0 25 15.5 40.5t39.5 15.5t39.5 -15.5t15.5 -40.5q0 -26 -15.5 -41t-39.5 -15zM455 750q-24 0 -39.5 15t-15.5 41q0 25 15.5 40.5t39.5 15.5t39.5 -15.5t15.5 -40.5
q0 -26 -15.5 -41t-39.5 -15z" />
    <glyph glyph-name="Zacute" unicode="&#x179;" horiz-adv-x="624" 
d="M581 698v-27l-404 -635h87q70 0 107 7t72 25q13 7 25.5 16l21.5 16t19.5 19.5l15 18t14 21t11.5 18.5t12 21l9 17h37l-59 -215h-512v27l411 635h-109q-55 0 -87 -8t-60 -29q-61 -44 -96 -120h-36l40 193h481zM243 787l127 77q48 29 67 32q9 1 18 1q20 0 33 -13.5
t13 -34.5q0 -19 -13.5 -32.5t-26 -18t-33.5 -9.5q-51 -11 -175 -34z" />
    <glyph glyph-name="zacute" unicode="&#x17a;" horiz-adv-x="493" 
d="M460 172l-19 -172h-411v17l301 449v5h-122q-39 0 -69 -30q-29 -28 -61 -92h-35l35 156h372v-21l-294 -446v-4h112q38 0 57 9t39 31q41 47 62 98h33zM155 596l115 108q27 25 43.5 35t36.5 10t31.5 -13t11.5 -35q0 -35 -58 -61l-162 -72z" />
    <glyph glyph-name="Zdotaccent" unicode="&#x17b;" horiz-adv-x="624" 
d="M581 698v-27l-404 -635h87q70 0 107 7t72 25q13 7 25.5 16l21.5 16t19.5 19.5l15 18t14 21t11.5 18.5t12 21l9 17h37l-59 -215h-512v27l411 635h-109q-55 0 -87 -8t-60 -29q-61 -44 -96 -120h-36l40 193h481zM334 758q-28 0 -46 17.5t-18 45.5t18 45.5t46 17.5t46 -17.5
t18 -45.5t-18 -45.5t-46 -17.5z" />
    <glyph glyph-name="zdotaccent" unicode="&#x17c;" horiz-adv-x="493" 
d="M460 172l-19 -172h-411v17l301 449v5h-122q-39 0 -69 -30q-29 -28 -61 -92h-35l35 156h372v-21l-294 -446v-4h112q38 0 57 9t39 31q41 47 62 98h33zM254 588q-28 0 -46 17.5t-18 45.5t18 45.5t46 17.5t46 -17.5t18 -45.5t-18 -45.5t-46 -17.5z" />
    <glyph glyph-name="Zcaron" unicode="&#x17d;" horiz-adv-x="624" 
d="M581 698v-27l-404 -635h87q70 0 107 7t72 25q13 7 25.5 16l21.5 16t19.5 19.5l15 18t14 21t11.5 18.5t12 21l9 17h37l-59 -215h-512v27l411 635h-109q-55 0 -87 -8t-60 -29q-61 -44 -96 -120h-36l40 193h481zM466 870l-115 -105h-52l-115 105l19 28l122 -63l122 63z" />
    <glyph glyph-name="zcaron" unicode="&#x17e;" horiz-adv-x="493" 
d="M460 172l-19 -172h-411v17l301 449v5h-122q-39 0 -69 -30q-29 -28 -61 -92h-35l35 156h372v-21l-294 -446v-4h112q38 0 57 9t39 31q41 47 62 98h33zM408 692l-115 -132h-48l-115 132l27 25l112 -87l112 87z" />
    <glyph glyph-name="uni0192" unicode="&#x192;" horiz-adv-x="493" 
d="M-8 -182q-55 0 -91 24t-36 63q0 27 15 40t34 13q44 0 48 -42q2 -39 3 -44q5 -23 27 -23q24 0 39 13t25 49q31 107 66.5 281.5t44.5 211.5h-94l10 42h95q66 245 208 245q51 0 85.5 -20.5t34.5 -62.5q0 -25 -14 -39.5t-39 -14.5q-23 0 -36.5 13.5t-12.5 35.5q0 5 2 15.5
t1 15.5q-3 21 -23 21q-27 0 -44 -28q-26 -39 -60 -181h112l-10 -42h-111q-50 -240 -88 -376q-57 -210 -191 -210z" />
    <glyph glyph-name="Aringacute" unicode="&#x1fa;" horiz-adv-x="691" 
d="M295 525l-90 -247h193l-92 247h-11zM238 36v-36h-242v36q28 3 48 14q21 12 36 40t40 95l198 517h43l195 -521q19 -52 40 -84q21 -31 53 -48q25 -10 37 -13v-36h-317v36q33 4 48 10q14 6 19.5 9.5t11 13t5.5 25.5q0 32 -24 99l-17 45h-222l-22 -61q-15 -40 -15 -76
q0 -41 33 -55q20 -8 52 -10zM429 825q0 -41 -26.5 -65t-63.5 -24t-63.5 24t-26.5 65t26.5 65.5t63.5 24.5t63.5 -24t26.5 -66zM282 825q0 -28 16 -44.5t41 -16.5t41 16.5t16 44.5q0 29 -16 45.5t-41 16.5t-41 -16.5t-16 -45.5zM211 957l127 77q48 29 67 32q9 1 18 1
q20 0 33 -13.5t13 -34.5q0 -19 -13.5 -32.5t-26 -18t-33.5 -9.5q-51 -11 -175 -34z" />
    <glyph glyph-name="aringacute" unicode="&#x1fb;" horiz-adv-x="500" 
d="M323 635q0 -41 -26.5 -65t-63.5 -24t-63.5 24t-26.5 65t26.5 65.5t63.5 24.5t63.5 -24t26.5 -66zM176 635q0 -28 16 -44.5t41 -16.5t41 16.5t16 44.5q0 29 -16 45.5t-41 16.5t-41 -16.5t-16 -45.5zM492 14q-10 -7 -38 -15.5t-55 -8.5q-37 0 -57 13q-23 16 -29 63h-11
q-14 -28 -46.5 -52t-86.5 -24q-65 0 -102 33.5t-37 96.5q0 55 38 90q25 22 50.5 33t76.5 26q85 24 104 55v89q0 36 -14 51.5t-47 15.5q-32 0 -54 -13q-22 -16 -28 -54q-7 -49 -50 -49q-20 0 -33 12.5t-13 33.5q0 31 23 54q21 22 62.5 38t91.5 16q81 0 122.5 -24.5
t41.5 -82.5v-276q0 -61 10 -79q9 -19 35 -19q23 0 37 7zM299 282q-12 -13 -72 -39q-58 -27 -72 -44q-28 -34 -28 -75q0 -44 22 -63t54 -19q35 0 60.5 18.5t35.5 50.5v171zM114 777l127 77q48 29 67 32q9 1 18 1q20 0 33 -13.5t13 -34.5q0 -19 -13.5 -32.5t-26 -18
t-33.5 -9.5q-51 -11 -175 -34z" />
    <glyph glyph-name="AEacute" unicode="&#x1fc;" horiz-adv-x="924" 
d="M437 619h-8l-186 -321h194v321zM227 36v-36h-250v36q20 2 48 18q16 11 38 37q31 39 63 94l269 461q-6 4 -22 10q-15 5 -38 6v36h502l31 -173h-34q-16 30 -24 42.5t-21 28.5t-30 29q-44 37 -120 37h-29q-35 0 -49 -18q-12 -15 -12 -58v-207h46q65 0 93 27q13 12 20.5 27.5
t9.5 25.5t5 32h33v-261h-33q-7 62 -37 88q-25 24 -91 24h-46v-188q0 -76 22 -98q19 -20 79 -20h18q57 0 111 48q11 10 20 20.5t14.5 17.5t13 19.5t10 17t9.5 19.5t9 18h32l-31 -196h-521v36q24 2 38 7q33 10 49 40q15 31 15 110v65h-217l-46 -79q-29 -52 -29 -84
q0 -37 31 -49q18 -8 51 -10zM497 787l127 77q48 29 67 32q9 1 18 1q20 0 33 -13.5t13 -34.5q0 -19 -13.5 -32.5t-26 -18t-33.5 -9.5q-51 -11 -175 -34z" />
    <glyph glyph-name="aeacute" unicode="&#x1fd;" horiz-adv-x="768" 
d="M524 -10q-90 0 -155 63q-20 19 -40 53h-6q-17 -60 -60 -87t-98 -27q-58 0 -96.5 34.5t-38.5 95.5q0 56 37 89q25 22 50.5 33t76.5 26q84 23 104 55v92q0 65 -58 65q-37 0 -57 -14q-23 -15 -28 -55q-7 -46 -52 -46q-19 0 -31.5 13t-12.5 33q0 31 21 52q21 22 65.5 37.5
t92.5 15.5q85 0 131 -60h8q21 25 64.5 42.5t82.5 17.5q53 0 94 -18t64 -47t34.5 -61t11.5 -64q0 -40 -3 -58h-326q0 -143 51 -195q38 -41 93 -41q65 0 102 32.5t59 86.5l30 -14q-25 -68 -79 -108.5t-131 -40.5zM628 359q0 67 -27 98q-26 28 -76 28q-46 0 -74 -27
q-41 -38 -50 -151h188q22 0 30.5 11t8.5 41zM299 280q-8 -9 -76 -39q-57 -25 -72 -44q-23 -30 -23 -70q0 -44 20.5 -64t51.5 -20q32 0 60.5 24t38.5 57v156zM301 596l115 108q27 25 43.5 35t36.5 10t31.5 -13t11.5 -35q0 -35 -58 -61l-162 -72z" />
    <glyph glyph-name="Oslashacute" unicode="&#x1fe;" horiz-adv-x="746" 
d="M160 349q0 -151 47 -228l300 497q-10 9 -30 23q-46 29 -104 29t-104 -29q-109 -71 -109 -292zM373 27q58 0 104 29q110 71 110 293q0 157 -53 236l-301 -499q18 -18 36 -30q46 -29 104 -29zM373 -14q-92 0 -171 48l-56 -93l-36 19l59 98q-62 49 -97 124.5t-35 166.5
q0 156 98 259t238 103q88 0 163 -44l57 94l35 -20l-58 -96q65 -49 102 -126t37 -170q0 -157 -98 -260t-238 -103zM269 787l127 77q48 29 67 32q9 1 18 1q20 0 33 -13.5t13 -34.5q0 -19 -13.5 -32.5t-26 -18t-33.5 -9.5q-51 -11 -175 -34z" />
    <glyph glyph-name="oslashacute" unicode="&#x1ff;" horiz-adv-x="566" 
d="M283 -10q-54 0 -105 23l-46 -87l-36 17l48 89q-110 75 -110 223q0 118 72.5 190.5t176.5 72.5q59 0 109 -24l44 82l35 -18l-45 -84q106 -74 106 -219q0 -119 -73 -192t-176 -73zM144 255q0 -106 32 -162l190 353q-3 4 -11 10q-29 23 -72 23q-44 0 -73 -23
q-66 -51 -66 -201zM283 29q40 0 72 24q67 53 67 202q0 102 -30 156l-189 -352l7 -6q32 -24 73 -24zM151 596l115 108q27 25 43.5 35t36.5 10t31.5 -13t11.5 -35q0 -35 -58 -61l-162 -72z" />
    <glyph glyph-name="uni0218" unicode="&#x218;" horiz-adv-x="546" 
d="M513 193q0 -95 -67.5 -151t-161.5 -56q-52 0 -98 20t-76 48h-10l-28 -49h-25l-10 231h34q32 -87 90.5 -149.5t122.5 -62.5q67 0 103 33t36 87q0 20 -3.5 36t-14 30t-17.5 22.5t-28.5 21l-30 17.5t-39 19.5l-40.5 19.5l-58.5 29.5t-49.5 31t-45.5 41t-26.5 50t-12 66.5
q0 80 57 131.5t143 51.5q55 0 83 -11.5t59 -38.5h9l22 42h31l17 -203h-34q-35 91 -80 133q-42 40 -107 40q-47 0 -77.5 -27t-30.5 -74q0 -19 3.5 -35t14 -29.5l17.5 -22.5t25.5 -20.5t26.5 -15.5l32.5 -16l30.5 -15q102 -51 128 -70q85 -59 85 -155zM351 -117q0 -48 -39 -87
t-95 -62l-13 30q82 34 82 67q0 8 -10 11q-45 16 -45 57q0 21 15 37.5t40 16.5q30 0 47.5 -18.5t17.5 -51.5z" />
    <glyph glyph-name="uni0219" unicode="&#x219;" horiz-adv-x="436" 
d="M409 147q0 -77 -50 -117t-125 -40q-39 0 -76.5 19t-59.5 47h-12l-17 -54h-29l-6 191h36q24 -75 67.5 -120t99.5 -45q90 0 90 71q0 43 -26.5 65t-100.5 53l-24 10t-24 10.5l-21 10t-21 11.5t-17.5 12.5t-16.5 15t-12 17.5t-10.5 21.5t-5 24.5t-2.5 30q0 59 45.5 98.5
t121.5 39.5q42 0 70.5 -15.5t40.5 -35.5h10l13 42h26l8 -152h-35q-27 70 -55 96q-32 27 -78 27q-39 0 -61.5 -19t-22.5 -50q0 -36 23.5 -56.5t93.5 -46.5q39 -15 63 -27t49.5 -31.5t38 -44.5t12.5 -58zM298 -97q0 -48 -39 -87t-95 -62l-13 30q82 34 82 67q0 8 -10 11
q-45 16 -45 57q0 21 15 37.5t40 16.5q30 0 47.5 -18.5t17.5 -51.5z" />
    <glyph glyph-name="uni021A" unicode="&#x21a;" horiz-adv-x="670" 
d="M392 193q0 -81 15 -110t48 -40q13 -5 38 -7v-36h-316v36q26 2 38 7q33 10 49 40q15 29 15 110v467h-29q-73 0 -127 -39q-33 -25 -48.5 -46t-33.5 -57h-34l31 180h594l31 -180h-32q-17 35 -34 57.5t-49 45.5q-54 39 -128 39h-28v-467zM402 -117q0 -48 -39 -87t-95 -62
l-13 30q82 34 82 67q0 8 -10 11q-45 16 -45 57q0 21 15 37.5t40 16.5q30 0 47.5 -18.5t17.5 -51.5z" />
    <glyph glyph-name="uni021B" unicode="&#x21b;" horiz-adv-x="358" 
d="M340 73l18 -24q-46 -59 -131 -59q-68 0 -103 32q-29 25 -29 87v355h-87v28q59 12 94 51.5t65 138.5h29v-177h132v-41h-132v-355q0 -68 65 -68q45 0 79 32zM278 -97q0 -48 -39 -87t-95 -62l-13 30q82 34 82 67q0 8 -10 11q-45 16 -45 57q0 21 15 37.5t40 16.5
q30 0 47.5 -18.5t17.5 -51.5z" />
    <glyph glyph-name="uni0237" unicode="&#x237;" horiz-adv-x="285" 
d="M105 -45v415q0 43 -3 54q-6 19 -22 28q-19 11 -55 19v34h177q7 0 7 -7q0 -12 -1 -48.5t-1 -64.5v-349q0 -148 -79 -209q-40 -31 -95 -31q-59 0 -89 21q-43 28 -43 77q0 26 15.5 41t37.5 15q24 0 37.5 -13.5t13.5 -36.5q0 -7 -2 -23q-2 -14 -2 -18q0 -30 37 -30
q33 0 48 22q19 27 19 104z" />
    <glyph glyph-name="circumflex" unicode="&#x2c6;" 
d="M369 596l-27 -25l-112 87l-112 -87l-27 25l115 132h48z" />
    <glyph glyph-name="caron" unicode="&#x2c7;" 
d="M369 703l-115 -132h-48l-115 132l27 25l112 -87l112 87z" />
    <glyph glyph-name="breve" unicode="&#x2d8;" 
d="M230 581q-54 0 -86 35t-38 95l30 8q13 -40 36 -54.5t57 -14.5q36 0 59 14.5t36 54.5l30 -8q-6 -60 -38 -95t-86 -35z" />
    <glyph glyph-name="dotaccent" unicode="&#x2d9;" 
d="M230 608q-28 0 -46 17.5t-18 45.5t18 45.5t46 17.5t46 -17.5t18 -45.5t-18 -45.5t-46 -17.5z" />
    <glyph glyph-name="ring" unicode="&#x2da;" 
d="M320 655q0 -41 -26.5 -65t-63.5 -24t-63.5 24t-26.5 65t26.5 65.5t63.5 24.5t63.5 -24t26.5 -66zM173 655q0 -28 16 -44.5t41 -16.5t41 16.5t16 44.5q0 29 -16 45.5t-41 16.5t-41 -16.5t-16 -45.5z" />
    <glyph glyph-name="ogonek" unicode="&#x2db;" 
d="M314 -215q-81 -5 -132 20t-51 75q0 73 117 120h40q-70 -49 -70 -113q0 -28 26.5 -44.5t69.5 -19.5v-38z" />
    <glyph glyph-name="tilde" unicode="&#x2dc;" 
d="M377 703q-13 -43 -41 -71t-61 -28q-27 0 -64.5 14.5t-55.5 14.5q-16 0 -31 -12.5t-23 -32.5l-30 11q14 42 38.5 72t55.5 30q25 0 64 -14.5t60 -14.5q41 0 58 42z" />
    <glyph glyph-name="hungarumlaut" unicode="&#x2dd;" 
d="M210 759q15 0 24.5 -10t9.5 -24q0 -29 -31 -63l-106 -112l-26 16l74 150q21 43 55 43zM383 759q15 0 24.5 -10t9.5 -24q0 -29 -31 -63l-106 -112l-26 16l74 150q22 43 55 43z" />
    <glyph glyph-name="Wgrave" unicode="&#x1e80;" horiz-adv-x="1044" 
d="M699 -5l-164 483h-6l-169 -483h-41l-175 513q-23 67 -43 95q-20 30 -51 46q-26 11 -44 13v36h325v-36q-33 -2 -55 -9q-37 -11 -37 -44q0 -26 25 -103l108 -332h7l131 375q-14 40 -30 63q-22 32 -49 41q-17 6 -40 9v36h320v-36q-37 -3 -54 -8q-12 -4 -19 -7.5t-12.5 -13
t-5.5 -24.5q0 -31 24 -103l108 -332h7l113 344q18 54 18 83q0 37 -33 51q-15 6 -52 10v36h240v-36q-36 -5 -51 -14q-17 -11 -36 -41q-15 -25 -40 -94l-178 -518h-41zM668 787l-10 -32q-124 23 -175 34q-21 5 -33.5 9.5t-26 18t-13.5 32.5q0 21 13 34.5t33 13.5
q15 0 29.5 -4.5t22.5 -9l33 -19.5z" />
    <glyph glyph-name="wgrave" unicode="&#x1e81;" horiz-adv-x="841" 
d="M551 -4l-124 325h-4l-127 -325h-48l-129 319q-34 86 -40 98q-8 17 -11.5 22.5t-8.5 12.5t-12 11q-12 9 -43 12v34h252v-34q-30 -3 -40 -8q-22 -12 -22 -38q0 -24 22 -83l79 -219h10l98 241l-20 49q-16 35 -33 46q-12 9 -40 12v34h248v-34q-27 -1 -39 -8q-22 -12 -22 -38
q0 -20 22 -83l80 -219h10l82 213q22 69 22 88q0 26 -23 39q-13 6 -40 8v34h190v-34q-21 -2 -36 -12q-16 -10 -27 -27q-20 -27 -42 -89l-136 -347h-48zM552 596l-18 -28l-162 72q-58 26 -58 61q0 22 11.5 35t31.5 13t36.5 -10t43.5 -35z" />
    <glyph glyph-name="Wacute" unicode="&#x1e82;" horiz-adv-x="1044" 
d="M699 -5l-164 483h-6l-169 -483h-41l-175 513q-23 67 -43 95q-20 30 -51 46q-26 11 -44 13v36h325v-36q-33 -2 -55 -9q-37 -11 -37 -44q0 -26 25 -103l108 -332h7l131 375q-14 40 -30 63q-22 32 -49 41q-17 6 -40 9v36h320v-36q-37 -3 -54 -8q-12 -4 -19 -7.5t-12.5 -13
t-5.5 -24.5q0 -31 24 -103l108 -332h7l113 344q18 54 18 83q0 37 -33 51q-15 6 -52 10v36h240v-36q-36 -5 -51 -14q-17 -11 -36 -41q-15 -25 -40 -94l-178 -518h-41zM429 797l127 77q48 29 67 32q9 1 18 1q20 0 33 -13.5t13 -34.5q0 -19 -13.5 -32.5t-26 -18t-33.5 -9.5
q-51 -11 -175 -34z" />
    <glyph glyph-name="wacute" unicode="&#x1e83;" horiz-adv-x="841" 
d="M551 -4l-124 325h-4l-127 -325h-48l-129 319q-34 86 -40 98q-8 17 -11.5 22.5t-8.5 12.5t-12 11q-12 9 -43 12v34h252v-34q-30 -3 -40 -8q-22 -12 -22 -38q0 -24 22 -83l79 -219h10l98 241l-20 49q-16 35 -33 46q-12 9 -40 12v34h248v-34q-27 -1 -39 -8q-22 -12 -22 -38
q0 -20 22 -83l80 -219h10l82 213q22 69 22 88q0 26 -23 39q-13 6 -40 8v34h190v-34q-21 -2 -36 -12q-16 -10 -27 -27q-20 -27 -42 -89l-136 -347h-48zM291 596l115 108q27 25 43.5 35t36.5 10t31.5 -13t11.5 -35q0 -35 -58 -61l-162 -72z" />
    <glyph glyph-name="Wdieresis" unicode="&#x1e84;" horiz-adv-x="1044" 
d="M699 -5l-164 483h-6l-169 -483h-41l-175 513q-23 67 -43 95q-20 30 -51 46q-26 11 -44 13v36h325v-36q-33 -2 -55 -9q-37 -11 -37 -44q0 -26 25 -103l108 -332h7l131 375q-14 40 -30 63q-22 32 -49 41q-17 6 -40 9v36h320v-36q-37 -3 -54 -8q-12 -4 -19 -7.5t-12.5 -13
t-5.5 -24.5q0 -31 24 -103l108 -332h7l113 344q18 54 18 83q0 37 -33 51q-15 6 -52 10v36h240v-36q-36 -5 -51 -14q-17 -11 -36 -41q-15 -25 -40 -94l-178 -518h-41zM450 750q-24 0 -39.5 15t-15.5 41q0 25 15.5 40.5t39.5 15.5t39.5 -15.5t15.5 -40.5q0 -26 -15.5 -41
t-39.5 -15zM651 750q-24 0 -39.5 15t-15.5 41q0 25 15.5 40.5t39.5 15.5t39.5 -15.5t15.5 -40.5q0 -26 -15.5 -41t-39.5 -15z" />
    <glyph glyph-name="wdieresis" unicode="&#x1e85;" horiz-adv-x="841" 
d="M551 -4l-124 325h-4l-127 -325h-48l-129 319q-34 86 -40 98q-8 17 -11.5 22.5t-8.5 12.5t-12 11q-12 9 -43 12v34h252v-34q-30 -3 -40 -8q-22 -12 -22 -38q0 -24 22 -83l79 -219h10l98 241l-20 49q-16 35 -33 46q-12 9 -40 12v34h248v-34q-27 -1 -39 -8q-22 -12 -22 -38
q0 -20 22 -83l80 -219h10l82 213q22 69 22 88q0 26 -23 39q-13 6 -40 8v34h190v-34q-21 -2 -36 -12q-16 -10 -27 -27q-20 -27 -42 -89l-136 -347h-48zM335 591q-22 0 -37.5 15t-15.5 39t15.5 39t37.5 15t37.5 -15t15.5 -39t-15.5 -39t-37.5 -15zM518 591q-22 0 -37.5 15
t-15.5 39t15.5 39t37.5 15t37.5 -15t15.5 -39t-15.5 -39t-37.5 -15z" />
    <glyph glyph-name="Ygrave" unicode="&#x1ef2;" horiz-adv-x="646" 
d="M262 298l-156 257q-33 59 -56.5 79.5t-57.5 27.5v36h307v-36q-37 -3 -54 -8q-22 -8 -28.5 -23.5t0.5 -36.5t26 -52l112 -185h6l98 167q33 54 33 92q0 29 -27 39q-11 4 -43 7v36h230v-36q-49 -6 -76.5 -35.5t-72.5 -110.5l-128 -219v-104q0 -81 14 -110q15 -27 49 -40
q14 -6 38 -7v-36h-316v36q21 1 38 7q33 11 49 40q15 29 15 110v105zM437 787l-10 -32q-124 23 -175 34q-21 5 -33.5 9.5t-26 18t-13.5 32.5q0 21 13 34.5t33 13.5q15 0 29.5 -4.5t22.5 -9l33 -19.5z" />
    <glyph glyph-name="ygrave" unicode="&#x1ef3;" horiz-adv-x="551" 
d="M274 -50q-26 -59 -54 -97q-42 -55 -116 -55q-36 0 -59.5 19t-23.5 48q0 23 14 38.5t32 15.5q31 0 55 -29q10 -11 16 -15q8 -6 23 -6q36 0 68 84q12 31 12 54q0 15 -11 43l-113 265l-25 61t-15 37q-17 36 -32 46q-14 9 -41 12v34h254v-34q-35 -3 -48 -8q-21 -13 -21 -38
q0 -21 25 -84l86 -211h11l88 205q24 55 24 88q0 27 -23 40q-9 5 -43 8v34h193v-34q-21 -2 -36 -11q-17 -11 -28 -28q-14 -20 -43 -89zM407 596l-18 -28l-162 72q-58 26 -58 61q0 22 11.5 35t31.5 13t36.5 -10t43.5 -35z" />
    <glyph glyph-name="uni2009" unicode="&#x2009;" horiz-adv-x="80" 
 />
    <glyph glyph-name="endash" unicode="&#x2013;" horiz-adv-x="500" 
d="M470 290h-440v56h440v-56z" />
    <glyph glyph-name="emdash" unicode="&#x2014;" horiz-adv-x="960" 
d="M930 290h-900v56h900v-56z" />
    <glyph glyph-name="quoteleft" unicode="&#x2018;" horiz-adv-x="255" 
d="M55 527q0 71 41.5 114.5t115.5 69.5l13 -30q-54 -21 -76 -40.5t-22 -42.5q0 -20 18 -26q52 -18 52 -66q0 -27 -19.5 -44.5t-45.5 -17.5q-33 0 -55 21.5t-22 61.5z" />
    <glyph glyph-name="quoteright" unicode="&#x2019;" horiz-adv-x="255" 
d="M200 628q0 -71 -41.5 -114.5t-115.5 -69.5l-13 30q54 21 76 40.5t22 42.5q0 20 -18 26q-52 18 -52 66q0 27 19.5 44.5t45.5 17.5q33 0 55 -21.5t22 -61.5z" />
    <glyph glyph-name="quotesinglbase" unicode="&#x201a;" horiz-adv-x="265" 
d="M210 14q0 -71 -41.5 -114.5t-115.5 -69.5l-13 30q54 21 76 40.5t22 42.5q0 20 -18 26q-52 18 -52 66q0 27 19.5 44.5t45.5 17.5q33 0 55 -21.5t22 -61.5z" />
    <glyph glyph-name="quotedblleft" unicode="&#x201c;" horiz-adv-x="455" 
d="M255 527q0 71 41.5 114.5t115.5 69.5l13 -30q-54 -21 -76 -40.5t-22 -42.5q0 -20 18 -26q52 -18 52 -66q0 -27 -19.5 -44.5t-45.5 -17.5q-33 0 -55 21.5t-22 61.5zM55 527q0 71 41.5 114.5t115.5 69.5l13 -30q-54 -21 -76 -40.5t-22 -42.5q0 -20 18 -26q52 -18 52 -66
q0 -27 -19.5 -44.5t-45.5 -17.5q-33 0 -55 21.5t-22 61.5z" />
    <glyph glyph-name="quotedblright" unicode="&#x201d;" horiz-adv-x="455" 
d="M400 628q0 -71 -41.5 -114.5t-115.5 -69.5l-13 30q54 21 76 40.5t22 42.5q0 20 -18 26q-52 18 -52 66q0 27 19.5 44.5t45.5 17.5q33 0 55 -21.5t22 -61.5zM200 628q0 -71 -41.5 -114.5t-115.5 -69.5l-13 30q54 21 76 40.5t22 42.5q0 20 -18 26q-52 18 -52 66
q0 27 19.5 44.5t45.5 17.5q33 0 55 -21.5t22 -61.5z" />
    <glyph glyph-name="quotedblbase" unicode="&#x201e;" horiz-adv-x="453" 
d="M398 14q0 -71 -41.5 -114.5t-115.5 -69.5l-13 30q54 21 76 40.5t22 42.5q0 20 -18 26q-52 18 -52 66q0 27 19.5 44.5t45.5 17.5q33 0 55 -21.5t22 -61.5zM210 14q0 -71 -41.5 -114.5t-115.5 -69.5l-13 30q54 21 76 40.5t22 42.5q0 20 -18 26q-52 18 -52 66
q0 27 19.5 44.5t45.5 17.5q33 0 55 -21.5t22 -61.5z" />
    <glyph glyph-name="dagger" unicode="&#x2020;" horiz-adv-x="510" 
d="M277 -162h-44l-36 544l28 66q-62 -18 -107 -18q-37 0 -65 23t-28 68q0 21 13 35.5t36 14.5q21 0 33 -11t12 -32q0 -11 -8 -25q-11 -19 -11 -22q0 -12 22 -12q37 0 100 19q0 34 -13 82t-13 84q0 25 17.5 42t41.5 17t41.5 -17t17.5 -42q0 -36 -13 -84t-13 -82
q63 -19 100 -19q22 0 22 12q0 3 -11 22q-8 14 -8 25q0 21 12 32t33 11q23 0 36 -14.5t13 -35.5q0 -45 -28 -68t-65 -23q-45 0 -107 18l28 -66z" />
    <glyph glyph-name="daggerdbl" unicode="&#x2021;" horiz-adv-x="520" 
d="M282 298h-44l-36 104l28 46q-62 -18 -107 -18q-37 0 -65 23t-28 68q0 21 13 35.5t36 14.5q21 0 33 -11t12 -32q0 -11 -8 -25q-11 -19 -11 -22q0 -12 22 -12q37 0 100 19q0 34 -13 82t-13 84q0 25 17.5 42t41.5 17t41.5 -17t17.5 -42q0 -36 -13 -84t-13 -82
q63 -19 100 -19q22 0 22 12q0 3 -11 22q-8 14 -8 25q0 21 12 32t33 11q23 0 36 -14.5t13 -35.5q0 -45 -28 -68t-65 -23q-45 0 -107 18l28 -46zM282 253l36 -104l-28 -46q62 18 107 18q37 0 65 -23t28 -68q0 -21 -13 -35.5t-36 -14.5q-21 0 -33 11t-12 32q0 11 8 25
q11 19 11 22q0 12 -22 12q-37 0 -100 -19q0 -34 13 -81.5t13 -84.5q0 -25 -17.5 -42t-41.5 -17t-41.5 17t-17.5 42q0 37 13 84.5t13 81.5q-63 19 -100 19q-22 0 -22 -12q0 -3 11 -22q8 -14 8 -25q0 -21 -12 -32t-33 -11q-23 0 -36 14.5t-13 35.5q0 45 28 68t65 23
q45 0 107 -18l-28 46l36 104h44z" />
    <glyph glyph-name="bullet" unicode="&#x2022;" horiz-adv-x="432" 
d="M216 439q47 0 81.5 -33.5t34.5 -80.5t-34.5 -80.5t-81.5 -33.5t-81.5 33.5t-34.5 80.5t34.5 80.5t81.5 33.5z" />
    <glyph glyph-name="ellipsis" unicode="&#x2026;" horiz-adv-x="906" 
d="M154 -13q-31 0 -50 19.5t-19 49.5q0 28 19 47.5t50 19.5q28 0 47.5 -20t19.5 -47q0 -30 -19 -49.5t-48 -19.5zM454 -13q-31 0 -50 19.5t-19 49.5q0 28 19 47.5t50 19.5q28 0 47.5 -20t19.5 -47q0 -30 -19 -49.5t-48 -19.5zM754 -13q-31 0 -50 19.5t-19 49.5q0 28 19 47.5
t50 19.5q28 0 47.5 -20t19.5 -47q0 -30 -19 -49.5t-48 -19.5z" />
    <glyph glyph-name="perthousand" unicode="&#x2030;" horiz-adv-x="1132" 
d="M609 675l-407 -691l-32 20l406 691zM355 510q0 -77 -43.5 -129t-109.5 -52q-64 0 -107 52t-43 129t43 129t107 52q66 0 109.5 -52t43.5 -129zM202 663q-76 0 -76 -153t76 -153q78 0 78 153t-78 153zM937 350q64 0 107 -52t43 -129t-43 -129t-107 -52q-66 0 -109.5 52
t-43.5 129t43.5 129t109.5 52zM577 350q64 0 107 -52t43 -129t-43 -129t-107 -52q-66 0 -109.5 52t-43.5 129t43.5 129t109.5 52zM1013 169q0 153 -76 153q-78 0 -78 -153t78 -153q76 0 76 153zM653 169q0 153 -76 153q-78 0 -78 -153t78 -153q76 0 76 153z" />
    <glyph glyph-name="guilsinglleft" unicode="&#x2039;" horiz-adv-x="265" 
d="M36 260l172 149l27 -26l-106 -137l106 -136l-27 -26l-172 149v27z" />
    <glyph glyph-name="guilsinglright" unicode="&#x203a;" horiz-adv-x="265" 
d="M229 260v-27l-172 -149l-27 26l106 136l-106 137l27 26z" />
    <glyph glyph-name="fraction" unicode="&#x2044;" horiz-adv-x="295" 
d="M415 704l-500 -735l-35 22l501 737z" />
    <glyph glyph-name="Euro" unicode="&#x20ac;" horiz-adv-x="596" 
d="M586 222q-19 -113 -72.5 -174t-158.5 -61q-94 0 -163 71t-89 193h-83v39h78q-2 32 -2 49t2 47h-78v39h84q22 120 98.5 193t179.5 73q98 0 149 -44t51 -111q0 -30 -17.5 -48.5t-45.5 -18.5q-27 0 -43 17t-16 41q0 18 8 39q11 29 11 41q0 48 -97 48q-61 0 -106 -57
t-58 -173h176v-39h-179q-1 -15 -1 -47q0 -33 1 -49h127v-39h-123q10 -98 48 -158t110 -60q65 0 105.5 40.5t63.5 155.5z" />
    <glyph glyph-name="trademark" unicode="&#x2122;" horiz-adv-x="779" 
d="M322 756l15 -103h-27l-4 11q-4 12 -7 18.5t-9 16t-14 16.5q-21 18 -42 16h-22v-166q0 -41 5 -55q4 -10 19 -15q8 -3 23 -4v-27h-157v27q16 1 24 4q14 5 18 15q5 14 5 55v166h-21q-24 0 -42 -16q-8 -7 -14.5 -16.5t-9 -16t-6 -17.5t-4.5 -12h-27l14 103h283zM754 464h-157
v28q16 1 24 4q15 5 19 15q5 14 5 55v144h-7l-76 -249h-48l-76 251h-7v-140q0 -46 5 -61q4 -11 18 -15q8 -3 25 -4v-28h-123v28q16 1 25 4q12 4 17 15q5 15 5 61v74q0 46 -5 59q-5 11 -17 18q-10 4 -23 6v27h135l59 -208h7l60 208h135v-27q-16 -1 -24 -4q-14 -5 -18 -16
q-5 -13 -5 -54v-89q0 -41 5 -55q4 -10 18 -15q8 -3 24 -4v-28z" />
    <glyph glyph-name="onethird" unicode="&#x2153;" horiz-adv-x="851" 
d="M258 283h-223v27q29 3 39 8q21 10 26 32q4 15 4 44v198q0 41 -4 55q-5 19 -20 25q-9 3 -56 6v28q67 4 111 18q42 12 46 12q10 0 10 -11q0 -1 -1 -49t-1 -80v-202q0 -29 4 -44q7 -23 26 -32q9 -5 39 -8v-27zM660 704l-500 -735l-35 22l501 737zM648 423q-31 0 -49 -9
t-18 -22q0 -4 10 -29q5 -10 5 -26q0 -18 -11.5 -29t-31.5 -12q-22 1 -34.5 15.5t-12.5 38.5q0 42 41.5 73.5t102.5 31.5q63 0 106.5 -22.5t43.5 -71.5q0 -19 -7 -34.5t-25 -29.5t-31 -22t-43 -24v-5q54 0 90.5 -25.5t36.5 -75.5q0 -64 -56 -109.5t-141 -45.5
q-67 0 -105 28.5t-38 68.5q0 22 13 35.5t33 13.5q24 0 36 -17q9 -14 9 -31q0 -5 -2.5 -15.5t-2.5 -15.5q0 -35 57 -35q105 0 105 123q0 75 -56 75q-27 0 -52 -16l-26 -17l-16 25l63 42q41 27 57 48t16 59q0 30 -18.5 46t-48.5 16z" />
    <glyph glyph-name="twothirds" unicode="&#x2154;" horiz-adv-x="939" 
d="M342 283h-316l-6 37l79 50q42 30 65 49.5t49 49.5t37.5 64.5t11.5 78.5q0 48 -19.5 70t-63.5 22q-31 0 -52 -11.5t-21 -27.5q0 -10 11 -32q6 -12 6 -29q0 -20 -13 -32.5t-35 -12.5q-24 0 -38.5 16.5t-14.5 42.5q0 52 48 86t126 34q70 0 114 -35.5t44 -88.5
q0 -60 -29.5 -101t-84.5 -81q-67 -48 -103 -70v-7h108q33 0 47.5 6t28.5 21q11 13 27 39h28q-14 -49 -34 -138zM736 423q-31 0 -49 -9t-18 -22q0 -4 10 -29q5 -10 5 -26q0 -18 -11.5 -29t-31.5 -12q-22 1 -34.5 15.5t-12.5 38.5q0 42 41.5 73.5t102.5 31.5q63 0 106.5 -22.5
t43.5 -71.5q0 -19 -7 -34.5t-25 -29.5t-31 -22t-43 -24v-5q54 0 90.5 -25.5t36.5 -75.5q0 -64 -56 -109.5t-141 -45.5q-67 0 -105 28.5t-38 68.5q0 22 13 35.5t33 13.5q24 0 36 -17q9 -14 9 -31q0 -5 -2.5 -15.5t-2.5 -15.5q0 -35 57 -35q105 0 105 123q0 75 -56 75
q-27 0 -52 -16l-26 -17l-16 25l63 42q41 27 57 48t16 59q0 30 -18.5 46t-48.5 16zM748 704l-500 -735l-35 22l501 737z" />
    <glyph glyph-name="oneeighth" unicode="&#x215b;" horiz-adv-x="853" 
d="M258 283h-223v27q29 3 39 8q21 10 26 32q4 15 4 44v198q0 41 -4 55q-5 19 -20 25q-9 3 -56 6v28q67 4 111 18q42 12 46 12q10 0 10 -11q0 -1 -1 -49t-1 -80v-202q0 -29 4 -44q7 -23 26 -32q9 -5 39 -8v-27zM660 704l-500 -735l-35 22l501 737zM653 -10q-76 0 -121 27.5
t-45 85.5q0 32 27.5 59.5t67.5 43.5q-83 38 -83 123q0 55 46.5 90.5t112.5 35.5q68 0 108.5 -27t40.5 -78q0 -34 -23 -56.5t-64 -41.5q53 -20 81 -48.5t28 -77.5q0 -62 -46 -99t-130 -37zM570 360q0 -38 19 -53t82 -37q10 -4 16 -6q30 14 44.5 32.5t14.5 51.5
q0 42 -21.5 58.5t-66.5 16.5q-38 0 -63 -15t-25 -48zM653 22q104 0 104 68q0 37 -31 56.5t-106 44.5q-37 -14 -53.5 -32t-16.5 -52q0 -85 103 -85z" />
    <glyph glyph-name="threeeighths" unicode="&#x215c;" horiz-adv-x="903" 
d="M710 704l-500 -735l-35 22l501 737zM703 -10q-76 0 -121 27.5t-45 85.5q0 32 27.5 59.5t67.5 43.5q-83 38 -83 123q0 55 46.5 90.5t112.5 35.5q68 0 108.5 -27t40.5 -78q0 -34 -23 -56.5t-64 -41.5q53 -20 81 -48.5t28 -77.5q0 -62 -46 -99t-130 -37zM620 360
q0 -38 19 -53t82 -37q10 -4 16 -6q30 14 44.5 32.5t14.5 51.5q0 42 -21.5 58.5t-66.5 16.5q-38 0 -63 -15t-25 -48zM196 706q-31 0 -49 -9t-18 -22q0 -4 10 -29q5 -10 5 -26q0 -18 -11.5 -29t-31.5 -12q-22 1 -34.5 15.5t-12.5 38.5q0 42 41.5 73.5t102.5 31.5
q63 0 106.5 -22.5t43.5 -71.5q0 -19 -7 -34.5t-25 -29.5t-31 -22t-43 -24v-5q54 0 90.5 -25.5t36.5 -75.5q0 -64 -56 -109.5t-141 -45.5q-67 0 -105 28.5t-38 68.5q0 22 13 35.5t33 13.5q24 0 36 -17q9 -14 9 -31q0 -5 -2.5 -15.5t-2.5 -15.5q0 -35 57 -35q105 0 105 123
q0 75 -56 75q-27 0 -52 -16l-26 -17l-16 25l63 42q41 27 57 48t16 59q0 30 -18.5 46t-48.5 16zM703 22q104 0 104 68q0 37 -31 56.5t-106 44.5q-37 -14 -53.5 -32t-16.5 -52q0 -85 103 -85z" />
    <glyph glyph-name="fiveeighths" unicode="&#x215d;" horiz-adv-x="904" 
d="M711 704l-500 -735l-35 22l501 737zM704 -10q-76 0 -121 27.5t-45 85.5q0 32 27.5 59.5t67.5 43.5q-83 38 -83 123q0 55 46.5 90.5t112.5 35.5q68 0 108.5 -27t40.5 -78q0 -34 -23 -56.5t-64 -41.5q53 -20 81 -48.5t28 -77.5q0 -62 -46 -99t-130 -37zM621 360
q0 -38 19 -53t82 -37q10 -4 16 -6q30 14 44.5 32.5t14.5 51.5q0 42 -21.5 58.5t-66.5 16.5q-38 0 -63 -15t-25 -48zM162 305q116 0 116 129q0 45 -21 71.5t-60 26.5q-70 0 -100 -62l-35 7l55 254h32q36 -14 98 -14q35 0 57.5 19t29.5 43l28 -8q-15 -64 -58 -98t-91 -34
q-40 0 -79 6l-24 -110l5 -1q34 36 106 36q67 0 108 -35t41 -101q0 -72 -55 -116.5t-154 -44.5q-66 0 -108.5 27t-42.5 70q0 22 13 37t33 15q19 0 32 -10q15 -12 15 -40q0 -8 -5 -20.5t-5 -16.5q0 -30 69 -30zM704 22q104 0 104 68q0 37 -31 56.5t-106 44.5
q-37 -14 -53.5 -32t-16.5 -52q0 -85 103 -85z" />
    <glyph glyph-name="seveneighths" unicode="&#x215e;" horiz-adv-x="853" 
d="M350 703q-96 -140 -121 -220q-7 -26 -11.5 -48.5t-5.5 -35.5t-2 -35t-2 -34q-1 -28 -15 -42.5t-35 -14.5q-22 0 -35.5 16t-13.5 41q0 30 20 75.5t42 81.5q65 104 110 160v5h-166q-28 0 -39 -10q-21 -18 -29 -48h-32l38 163h20q12 -30 49 -30h228v-24zM660 704l-500 -735
l-35 22l501 737zM653 -10q-76 0 -121 27.5t-45 85.5q0 32 27.5 59.5t67.5 43.5q-83 38 -83 123q0 55 46.5 90.5t112.5 35.5q68 0 108.5 -27t40.5 -78q0 -34 -23 -56.5t-64 -41.5q53 -20 81 -48.5t28 -77.5q0 -62 -46 -99t-130 -37zM570 360q0 -38 19 -53t82 -37q10 -4 16 -6
q30 14 44.5 32.5t14.5 51.5q0 42 -21.5 58.5t-66.5 16.5q-38 0 -63 -15t-25 -48zM653 22q104 0 104 68q0 37 -31 56.5t-106 44.5q-37 -14 -53.5 -32t-16.5 -52q0 -85 103 -85z" />
    <glyph glyph-name="minus" unicode="&#x2212;" horiz-adv-x="469" 
d="M429 283h-389v42h389v-42z" />
    <glyph glyph-name="uni24C5" unicode="&#x24c5;" horiz-adv-x="982" 
d="M491 721q181 0 311 -130t130 -310q0 -181 -129.5 -309.5t-311.5 -128.5t-311.5 129.5t-129.5 310.5q0 118 59.5 219t161 160t220.5 59zM491 680q-165 0 -277.5 -115t-112.5 -282q0 -169 112.5 -284t277.5 -115t277.5 115t112.5 282q0 169 -112.5 284t-277.5 115zM503 67
v-35h-249v35q31 3 43 8q24 11 30 37q4 17 4 51v249q0 25 -4 42q-6 26 -30 37q-12 5 -43 8v36h269q81 0 131.5 -38t50.5 -102q0 -71 -62 -114q-50 -32 -139 -32h-81v-85q0 -35 4 -52q5 -16 10.5 -23t19.5 -14q11 -5 46 -8zM423 447v-156h81q53 0 80 27q27 30 27 77
q0 54 -25.5 76.5t-84.5 22.5h-36q-22 0 -30 -8q-12 -12 -12 -39z" />
    <glyph glyph-name="zero.tab" unicode="&#xe44f;" horiz-adv-x="594" 
d="M60 338q0 145 64 249t173 104q74 0 129 -50.5t81.5 -129.5t26.5 -173q0 -145 -63.5 -248t-173.5 -103t-173.5 103t-63.5 248zM415 338q0 178 -23 247.5t-95 69.5q-66 0 -92 -73t-26 -244q0 -170 26 -242.5t92 -72.5t92 72t26 243z" />
    <glyph glyph-name="one.tab" unicode="&#xe450;" horiz-adv-x="594" 
d="M495 0h-347v33q47 5 71 15q26 12 39 38q11 22 11 70v335q0 56 -6 76q-9 29 -39 43q-26 13 -90 17v33q125 7 176 16q49 9 58 9q8 0 8 -8q0 -6 -1 -55t-1 -64v-402q0 -42 16 -74q9 -18 31 -31q24 -13 74 -18v-33z" />
    <glyph glyph-name="two.tab" unicode="&#xe451;" horiz-adv-x="594" 
d="M248 654q-40 0 -65.5 -16t-25.5 -42q0 -8 15 -37q10 -17 10 -36q0 -23 -17.5 -37.5t-44.5 -14.5t-45.5 18t-18.5 47q0 66 55.5 110.5t154.5 44.5q106 0 166.5 -51t60.5 -138q0 -33 -9 -64.5t-27.5 -61t-35.5 -53t-45 -50l-44 -41t-44.5 -37l-34.5 -27.5q-21 -19 -92 -73
v-5h201q71 0 114 43q32 32 47 70h35l-55 -203h-466l-7 17l78 69q7 7 41 37.5t47 43l43.5 44t44.5 50.5t36 52t32.5 60t18.5 62t8 70q0 81 -33 115t-98 34z" />
    <glyph glyph-name="three.tab" unicode="&#xe452;" horiz-adv-x="594" 
d="M287 691q95 0 152.5 -35.5t57.5 -102.5q0 -22 -9.5 -42t-20.5 -33t-36.5 -30.5t-38 -24.5t-47 -24.5t-43.5 -22.5v-3q109 15 176 -36t67 -133q0 -101 -72 -159t-209 -58q-99 0 -166 46.5t-67 99.5q0 29 14.5 43.5t37.5 14.5q26 0 39 -17t13 -44q0 -29 4 -45q4 -21 29 -41
q31 -21 96 -21q87 0 127 43.5t40 144.5q0 64 -32 97.5t-108 33.5q-32 0 -70 -20l-44 -26l-16 27l74 43q88 51 121 87.5t33 99.5q0 52 -26 78t-85 26q-44 0 -74.5 -11t-30.5 -29q0 -10 7 -31q6 -18 6 -31q0 -26 -14.5 -40t-37.5 -14q-24 0 -40 17.5t-16 45.5q0 50 56 88.5
t153 38.5z" />
    <glyph glyph-name="four.tab" unicode="&#xe453;" horiz-adv-x="594" 
d="M75 260h228v280h-14zM500 34v-34h-287v34q35 5 55 15q21 12 28 34q7 25 7 74v65h-281v31l329 423h57q3 0 3 -4q0 -6 -1 -28t-1 -38v-346h24q56 0 75 25q17 23 24 73h35v-234h-35q-7 51 -24 74q-18 24 -75 24h-24v-65q0 -54 7 -74q7 -22 28 -34q20 -10 56 -15z" />
    <glyph glyph-name="five.tab" unicode="&#xe454;" horiz-adv-x="594" 
d="M254 22q81 0 129 49t48 143q0 88 -34.5 126t-106.5 38q-52 0 -94 -25t-59 -66l-35 10l83 380h28q76 -30 171 -30q57 0 92 29t46 62l24 -9q-21 -89 -67 -131t-134 -42q-75 0 -145 18l-45 -203l8 -2q19 19 60 32.5t92 13.5q113 0 171 -55t58 -145q0 -104 -77.5 -166
t-214.5 -62q-93 0 -156.5 45.5t-63.5 97.5q0 29 15.5 45t37.5 16q51 0 51 -61q0 -38 3 -51q5 -23 31 -38q33 -19 84 -19z" />
    <glyph glyph-name="six.tab" unicode="&#xe455;" horiz-adv-x="594" 
d="M554 567q0 -28 -15.5 -45.5t-39.5 -17.5t-39.5 14t-15.5 40q0 16 6 34q6 20 6 28q0 14 -24 24.5t-63 10.5q-85 0 -142.5 -89t-64.5 -226h10q19 42 60.5 64.5t96.5 22.5q96 0 153.5 -57.5t57.5 -157.5q0 -98 -70 -161.5t-170 -63.5q-117 0 -184 83.5t-67 212.5
q0 95 29.5 175t76.5 129.5t103 76.5t111 27q96 0 140.5 -35t44.5 -89zM297 384q-134 0 -134 -185q0 -103 36.5 -139.5t98.5 -36.5q65 0 99 41t34 145q0 102 -34 138.5t-100 36.5z" />
    <glyph glyph-name="seven.tab" unicode="&#xe456;" horiz-adv-x="624" 
d="M586 660q-68 -97 -106.5 -157t-80.5 -136t-65 -144.5t-33 -140.5q-7 -55 -19.5 -75t-40.5 -20q-26 0 -39 15.5t-13 39.5q0 90 95 244q63 104 219 298v2h-244q-44 0 -61.5 -3t-36.5 -14q-29 -17 -53 -77h-32l42 222h27q12 -37 68 -37h373v-17z" />
    <glyph glyph-name="eight.tab" unicode="&#xe457;" horiz-adv-x="594" 
d="M299 -13q-109 0 -177.5 41.5t-68.5 122.5q0 60 41 104.5t112 72.5q-130 64 -130 177q0 83 67 134.5t161 51.5q103 0 163 -40t60 -118q0 -88 -137 -162q160 -70 160 -183q0 -87 -66 -144t-185 -57zM162 539q0 -28 13 -50t42 -40.5t54.5 -30t70.5 -28.5q104 49 104 141
q0 123 -142 123q-65 0 -103.5 -29.5t-38.5 -85.5zM299 23q160 0 160 114q0 16 -2.5 29t-10.5 25.5l-13.5 21t-21.5 19l-24 16t-30.5 16l-32 15t-38.5 16t-40 16.5q-108 -49 -108 -154q0 -74 40.5 -104t120.5 -30z" />
    <glyph glyph-name="nine.tab" unicode="&#xe458;" horiz-adv-x="594" 
d="M306 294q134 0 134 185q0 103 -36.5 139.5t-98.5 36.5q-65 0 -99 -41t-34 -145q0 -102 34 -138.5t100 -36.5zM49 111q0 28 15.5 45.5t39.5 17.5t39.5 -14t15.5 -40q0 -16 -6 -34q-6 -20 -6 -28q0 -14 24 -24.5t63 -10.5q85 0 142.5 89t64.5 226h-10q-19 -42 -60.5 -64.5
t-96.5 -22.5q-96 0 -153.5 57.5t-57.5 157.5q0 98 70 161.5t170 63.5q117 0 184 -83.5t67 -212.5q0 -95 -29.5 -175t-76.5 -129.5t-103 -76.5t-111 -27q-96 0 -140.5 35t-44.5 89z" />
    <glyph glyph-name="cent.tab" unicode="&#xe459;" horiz-adv-x="594" 
d="M259 60q26 -19 61 -24v443q-40 -4 -64 -23q-67 -51 -67 -201q0 -140 70 -195zM535 134q-38 -124 -172 -142v-88h-43v86q-81 1 -145 50q-93 71 -93 215q0 115 69 186.5t169 76.5v95h43v-96q87 -7 134 -56q23 -26 23 -53q0 -54 -48 -54q-26 0 -39 15.5t-22 47.5
q-15 50 -48 59v-440q101 12 137 111z" />
    <glyph glyph-name="dollar.tab" unicode="&#xe45a;" horiz-adv-x="594" 
d="M183 549q0 -50 26.5 -80.5t79.5 -57.5v243q-49 -4 -77.5 -34t-28.5 -71zM446 137q0 57 -25 85t-90 59v-256q56 7 85.5 37t29.5 75zM331 -109h-42v96q-86 3 -145 46.5t-59 93.5q0 27 15 44t36 17q56 0 56 -60q0 -7 -4.5 -23t-4.5 -21q0 -25 30.5 -42t75.5 -19v277
q-31 14 -51 24t-48.5 29.5t-44.5 40t-28.5 52t-12.5 67.5q0 73 53.5 122.5t131.5 54.5v96h42v-96q86 -6 132 -44.5t46 -84.5q0 -26 -15 -40.5t-33 -14.5q-55 0 -55 62q0 2 1.5 11t1.5 12q0 26 -22.5 42t-55.5 20v-264q100 -50 131 -76q61 -50 61 -129q0 -75 -51.5 -130.5
t-140.5 -64.5v-98z" />
    <glyph glyph-name="Euro.tab" unicode="&#xe45b;" horiz-adv-x="594" 
d="M576 219q-19 -115 -68 -173.5t-153 -58.5q-93 0 -158.5 70.5t-84.5 194.5h-82v39h78q-2 30 -2 48q0 15 2 45h-78v39h82q19 123 90 195.5t176 72.5q97 0 145.5 -44t48.5 -111q0 -30 -17.5 -48.5t-45.5 -18.5q-27 0 -43 17t-16 41q0 18 8 39q11 29 11 41q0 21 -24.5 34.5
t-66.5 13.5q-133 0 -151 -232h177v-39h-179q-1 -14 -1 -45q0 -32 1 -48h127v-39h-125q20 -219 150 -219q63 0 101 41t58 152z" />
    <glyph glyph-name="K.alt" unicode="&#xe48a;" horiz-adv-x="726" 
d="M352 36v-36h-317v36q23 1 38 7q34 12 49 40q15 31 15 110v312q0 79 -15 111q-17 31 -49 40q-15 5 -38 6v36h317v-36q-23 -1 -38 -6q-33 -10 -49 -40q-15 -32 -15 -111v-148l159 164l30.5 32t20 23t16.5 24t4 18q0 12 -5 19.5t-9.5 10t-15.5 7.5q-13 5 -40 7v36h273v-36
q-39 -5 -84 -32q-47 -28 -115 -96l-109 -110l214 -288q39 -53 76 -77q27 -19 68 -23v-36h-319v36q40 2 56 9t16 23t-65 105l-126 170l-45 -45v-105q0 -79 15 -110q15 -27 49 -40q14 -5 38 -7z" />
    <glyph glyph-name="k.alt" unicode="&#xe4ca;" horiz-adv-x="601" 
d="M277 34v-34h-243v34q15 1 33 8q28 14 35 43q3 14 3 53v488q0 43 -3 54q-7 20 -22 28q-16 10 -55 14v34h176q7 0 7 -8q0 -10 -1 -54t-1 -69v-363l88 78q67 58 67 89q0 22 -24 33q-12 5 -44 9v34h262v-34q-45 -6 -94 -40q-20 -15 -109 -91l-23 -20l154 -225
q21 -30 42.5 -42.5t63.5 -18.5v-34h-168l-169 254l-46 -39v-88q0 -28 4 -42q8 -31 32 -43q18 -7 35 -8z" />
    <glyph glyph-name="at.sc" unicode="&#xf60b;" horiz-adv-x="678" 
d="M452 118q-65 0 -65 60q0 15 5 35h-7q-18 -39 -39 -59q-36 -36 -83 -36q-37 0 -62.5 27t-25.5 81q0 76 59 150.5t137 74.5q23 0 41 -13t20 -39h9q3 6 9.5 21.5t11.5 24.5h62l-46 -143q-31 -96 -31 -115q0 -36 28 -36q60 0 99.5 61.5t39.5 127.5q0 99 -66 146t-168 47
q-71 0 -127 -25t-90 -66t-52 -90.5t-18 -102.5q0 -117 66.5 -173t186.5 -56q140 0 230 67l14 -26q-97 -71 -244 -71q-140 0 -225.5 68.5t-85.5 190.5q0 126 97.5 219.5t247.5 93.5q69 0 128 -22.5t99.5 -74.5t40.5 -125q0 -91 -56.5 -156.5t-139.5 -65.5zM247 209
q0 -56 38 -56q47 0 84 74q16 26 30 66q15 45 15 73q0 60 -46 60q-44 0 -74 -51q-47 -75 -47 -166z" />
    <glyph glyph-name="braceleft.sc" unicode="&#xf60c;" horiz-adv-x="294" 
d="M20 292q26 3 48 13q23 10 32.5 16t17 19t7.5 35q0 10 -5.5 46t-5.5 51q0 60 49 89.5t124 31.5v-36q-40 -6 -62 -22.5t-22 -52.5q0 -12 3 -38t3 -41q0 -96 -139 -125v-4q139 -27 139 -125q0 -15 -3 -40.5t-3 -38.5q0 -63 84 -76v-35q-75 3 -124 32t-49 89q0 16 5.5 52.5
t5.5 45.5q0 21 -7 34t-16.5 19t-33.5 17q-16 7 -48 13v31z" />
    <glyph glyph-name="braceright.sc" unicode="&#xf60d;" horiz-adv-x="294" 
d="M274 292v-31q-32 -6 -48 -13q-24 -11 -33.5 -17t-16.5 -19t-7 -34q0 -9 5.5 -45.5t5.5 -52.5q0 -60 -49 -89t-124 -32v35q84 13 84 76q0 13 -3 38.5t-3 40.5q0 98 139 125v4q-139 29 -139 125q0 15 3 41t3 38q0 36 -22 52.5t-62 22.5v36q75 -2 124 -31.5t49 -89.5
q0 -15 -5.5 -51t-5.5 -46q0 -31 12 -43.5t45 -26.5q22 -10 48 -13z" />
    <glyph glyph-name="bracketleft.sc" unicode="&#xf60e;" horiz-adv-x="295" 
d="M265 0h-185v554h185v-36h-101v-482h101v-36z" />
    <glyph glyph-name="bracketright.sc" unicode="&#xf60f;" horiz-adv-x="295" 
d="M215 554v-554h-185v36h101v482h-101v36h185z" />
    <glyph glyph-name="plus.sc" unicode="&#xf615;" horiz-adv-x="419" 
d="M384 273h-153v-153h-42v153h-154v42h154v154h42v-154h153v-42z" />
    <glyph glyph-name="minus.sc" unicode="&#xf616;" horiz-adv-x="419" 
d="M35 315h349v-42h-349v42z" />
    <glyph glyph-name="equal.sc" unicode="&#xf617;" horiz-adv-x="419" 
d="M369 353h-319v42h319v-42zM369 193h-319v42h319v-42z" />
    <glyph glyph-name="parenleft.sc" unicode="&#xf618;" horiz-adv-x="243" 
d="M141 274q0 -159 72 -263l-35 -28q-128 132 -128 291t128 291l35 -28q-72 -104 -72 -263z" />
    <glyph glyph-name="parenright.sc" unicode="&#xf619;" horiz-adv-x="243" 
d="M193 274q0 -151 -132 -287l-31 27q72 104 72 260t-72 260l31 27q132 -136 132 -287z" />
    <glyph glyph-name="quotedblleft.sc" unicode="&#xf61c;" horiz-adv-x="455" 
d="M255 397q0 71 41.5 114.5t115.5 69.5l13 -30q-54 -21 -76 -40.5t-22 -42.5q0 -20 18 -26q52 -18 52 -66q0 -27 -19.5 -44.5t-45.5 -17.5q-33 0 -55 21.5t-22 61.5zM55 397q0 71 41.5 114.5t115.5 69.5l13 -30q-54 -21 -76 -40.5t-22 -42.5q0 -20 18 -26q52 -18 52 -66
q0 -27 -19.5 -44.5t-45.5 -17.5q-33 0 -55 21.5t-22 61.5z" />
    <glyph glyph-name="quotedblright.sc" unicode="&#xf61d;" horiz-adv-x="455" 
d="M400 498q0 -71 -41.5 -114.5t-115.5 -69.5l-13 30q54 21 76 40.5t22 42.5q0 20 -18 26q-52 18 -52 66q0 27 19.5 44.5t45.5 17.5q33 0 55 -21.5t22 -61.5zM200 498q0 -71 -41.5 -114.5t-115.5 -69.5l-13 30q54 21 76 40.5t22 42.5q0 20 -18 26q-52 18 -52 66
q0 27 19.5 44.5t45.5 17.5q33 0 55 -21.5t22 -61.5z" />
    <glyph glyph-name="quoteleft.sc" unicode="&#xf61f;" horiz-adv-x="255" 
d="M55 397q0 71 41.5 114.5t115.5 69.5l13 -30q-54 -21 -76 -40.5t-22 -42.5q0 -20 18 -26q52 -18 52 -66q0 -27 -19.5 -44.5t-45.5 -17.5q-33 0 -55 21.5t-22 61.5z" />
    <glyph glyph-name="quoteright.sc" unicode="&#xf620;" horiz-adv-x="255" 
d="M200 498q0 -71 -41.5 -114.5t-115.5 -69.5l-13 30q54 21 76 40.5t22 42.5q0 20 -18 26q-52 18 -52 66q0 27 19.5 44.5t45.5 17.5q33 0 55 -21.5t22 -61.5z" />
    <glyph glyph-name="AEacute.sc" unicode="&#xf624;" horiz-adv-x="825" 
d="M205 34v-34h-220v34q22 3 44 15q25 15 43 33q22 23 44 58l222 372q-12 3 -57 8v34h465l30 -153h-36q-28 51 -74 90q-36 29 -85 29h-50q-24 0 -36 -15q-13 -13 -13 -43v-156h48q53 0 74 20q11 10 17 22.5t7.5 20.5t3.5 26h36v-214h-36q-5 45 -29 69q-21 20 -73 20h-48
v-141q0 -56 18 -75q16 -19 62 -19h34q58 0 101 41q45 41 73 92h35l-36 -168h-474v34q35 3 47 9q25 11 31 39q5 17 5 55v83h-166l-43 -74q-26 -41 -26 -67q0 -27 24 -38q12 -5 38 -7zM437 646l115 108q27 25 43.5 35t36.5 10t31.5 -13t11.5 -35q0 -35 -58 -61l-162 -72z
M378 495h-5l-140 -239h145v239z" />
    <glyph glyph-name="Oslashacute.sc" unicode="&#xf627;" horiz-adv-x="617" 
d="M308 -10q-66 0 -122 29l-54 -93l-35 19l55 95q-54 39 -85.5 100t-31.5 136q0 123 80.5 204.5t192.5 81.5q68 0 127 -31l53 92l34 -19l-54 -94q52 -39 83 -100t31 -134q0 -123 -80.5 -204.5t-193.5 -81.5zM148 276q0 -121 36 -180l225 390q-6 6 -18 14q-34 23 -83 23
q-48 0 -82 -23q-78 -49 -78 -224zM308 29q49 0 83 23q79 49 79 224q0 120 -35 177l-224 -390q10 -8 15 -11q34 -23 82 -23zM218 646l115 108q27 25 43.5 35t36.5 10t31.5 -13t11.5 -35q0 -35 -58 -61l-162 -72z" />
    <glyph glyph-name="Ccircumflex.sc" unicode="&#xf628;" horiz-adv-x="558" 
d="M314 526q-48 0 -81 -22q-41 -27 -65 -77.5t-24 -151.5q0 -113 47 -176q47 -65 139 -65q115 0 174 122l34 -19q-34 -75 -89 -111.5t-142 -36.5q-123 0 -197.5 79.5t-74.5 206.5q0 122 84.5 204.5t194.5 82.5q99 0 150 -47h9l22 38h26v-205h-37q-22 78 -53 121
q-42 57 -117 57zM453 626l-27 -25l-112 87l-112 -87l-27 25l115 132h48z" />
    <glyph glyph-name="Cdotaccent.sc" unicode="&#xf629;" horiz-adv-x="558" 
d="M314 526q-48 0 -81 -22q-41 -27 -65 -77.5t-24 -151.5q0 -113 47 -176q47 -65 139 -65q115 0 174 122l34 -19q-34 -75 -89 -111.5t-142 -36.5q-123 0 -197.5 79.5t-74.5 206.5q0 122 84.5 204.5t194.5 82.5q99 0 150 -47h9l22 38h26v-205h-37q-22 78 -53 121
q-42 57 -117 57zM317 604q-28 0 -46 17.5t-18 45.5t18 45.5t46 17.5t46 -17.5t18 -45.5t-18 -45.5t-46 -17.5z" />
    <glyph glyph-name="Ebreve.sc" unicode="&#xf62a;" horiz-adv-x="560" 
d="M540 168l-36 -168h-474v34q35 3 47 9q25 11 31 39q5 18 5 55v279q0 38 -5 56q-6 28 -31 39q-12 6 -47 9v34h451l30 -153h-36q-28 51 -74 90q-36 29 -85 29h-50q-28 0 -40 -19q-9 -15 -9 -39v-156h48q53 0 74 20q11 10 17 22.5t7.5 20.5t3.5 26h36v-214h-36q-5 45 -29 69
q-21 20 -73 20h-48v-141q0 -56 18 -75q16 -19 62 -19h34q58 0 101 41q45 41 73 92h35zM278 611q-54 0 -86 35t-38 95l30 8q13 -40 36 -54.5t57 -14.5q36 0 59 14.5t36 54.5l30 -8q-6 -60 -38 -95t-86 -35z" />
    <glyph glyph-name="Eng.sc" unicode="&#xf62b;" horiz-adv-x="661" 
d="M416 -214q-77 0 -121 42q-25 25 -25 61q0 28 17.5 46.5t44.5 18.5q28 0 43 -16.5t15 -38.5q0 -9 -7 -30q-8 -16 -8 -25t11.5 -15t29.5 -6q89 0 89 114v46l-335 466h-7v-308q0 -51 18 -74q13 -19 35 -26q17 -6 35 -7v-34h-219v34q18 0 33 5q21 6 37 24t16 78v260
q0 45 -5 62q-7 30 -34 45q-14 9 -52 12v34h195l278 -389h5v248q0 51 -18 74q-13 19 -35 26q-17 6 -35 7v34h219v-34q-18 0 -33 -5q-21 -6 -37 -24t-16 -78v-474q0 -78 -38.5 -115.5t-95.5 -37.5z" />
    <glyph glyph-name="Gcircumflex.sc" unicode="&#xf62c;" horiz-adv-x="610" 
d="M429 123q0 36 -4 55q-5 18 -11 25.5t-21 14.5q-13 5 -44 9v34h257v-34q-35 -5 -47 -9q-15 -7 -21 -15t-10 -25q-5 -17 -5 -55v-93q-17 -10 -74 -24q-75 -17 -142 -17q-123 0 -197.5 80t-74.5 207q0 122 84.5 204t194.5 82q99 0 150 -47h7l24 38h26v-193h-35
q-27 76 -55 110q-23 27 -48.5 40t-68.5 13q-47 0 -82 -22q-43 -28 -65.5 -76.5t-22.5 -148.5q0 -155 69 -213q39 -35 107 -35q65 0 90 19q19 15 19 68v8zM456 626l-27 -25l-112 87l-112 -87l-27 25l115 132h48z" />
    <glyph glyph-name="Gdotaccent.sc" unicode="&#xf62d;" horiz-adv-x="610" 
d="M429 123q0 36 -4 55q-5 18 -11 25.5t-21 14.5q-13 5 -44 9v34h257v-34q-35 -5 -47 -9q-15 -7 -21 -15t-10 -25q-5 -17 -5 -55v-93q-17 -10 -74 -24q-75 -17 -142 -17q-123 0 -197.5 80t-74.5 207q0 122 84.5 204t194.5 82q99 0 150 -47h7l24 38h26v-193h-35
q-27 76 -55 110q-23 27 -48.5 40t-68.5 13q-47 0 -82 -22q-43 -28 -65.5 -76.5t-22.5 -148.5q0 -155 69 -213q39 -35 107 -35q65 0 90 19q19 15 19 68v8zM317 604q-28 0 -46 17.5t-18 45.5t18 45.5t46 17.5t46 -17.5t18 -45.5t-18 -45.5t-46 -17.5z" />
    <glyph glyph-name="Hbar.sc" unicode="&#xf62e;" horiz-adv-x="684" 
d="M297 34v-34h-267v34q30 3 47 9q15 7 21 15t11 25q4 19 4 55v238h-93v36h93v3q0 37 -4 56q-5 17 -11 25t-21 15q-17 6 -47 9v34h267v-34q-26 -2 -44 -9q-15 -7 -21 -15t-11 -25q-4 -19 -4 -56v-3h250v3q0 39 -5 56q-4 17 -10 25t-21 15q-18 7 -45 9v34h268v-34
q-30 -3 -47 -9q-15 -7 -21 -14.5t-11 -25.5q-5 -23 -5 -56v-3h95v-36h-95v-237q0 -33 5 -56q5 -18 11 -25.5t21 -14.5q17 -6 47 -9v-34h-268v34q27 2 45 9q15 7 21 15t10 25q5 18 5 55v128h-250v-127q0 -37 4 -56q5 -17 11 -25t21 -15q18 -7 44 -9zM217 302h250v74h-250v-74
z" />
    <glyph glyph-name="Hcircumflex.sc" unicode="&#xf62f;" horiz-adv-x="684" 
d="M297 34v-34h-267v34q30 3 47 9q15 7 21 15t11 25q4 19 4 55v277q0 37 -4 56q-5 17 -11 25t-21 15q-17 6 -47 9v34h267v-34q-26 -2 -44 -9q-15 -7 -21 -15t-11 -25q-4 -19 -4 -56v-113h250v113q0 39 -5 56q-4 17 -10 25t-21 15q-18 7 -45 9v34h268v-34q-30 -3 -47 -9
q-15 -7 -21 -14.5t-11 -25.5q-5 -23 -5 -56v-276q0 -33 5 -56q5 -18 11 -25.5t21 -14.5q17 -6 47 -9v-34h-268v34q27 2 45 9q15 7 21 15t10 25q5 18 5 55v128h-250v-127q0 -37 4 -56q5 -17 11 -25t21 -15q18 -7 44 -9zM480 626l-27 -25l-112 87l-112 -87l-27 25l115 132h48z
" />
    <glyph glyph-name="Ibreve.sc" unicode="&#xf630;" horiz-adv-x="331" 
d="M217 416v-278q0 -33 5 -56q5 -17 11 -24.5t21 -14.5q12 -6 47 -9v-34h-271v34q35 3 47 9q25 11 31 39q5 18 5 55v279q0 38 -5 56q-6 28 -31 39q-12 6 -47 9v34h271v-34q-35 -3 -47 -9q-15 -7 -21 -14.5t-11 -24.5q-5 -23 -5 -56zM165 611q-54 0 -86 35t-38 95l30 8
q13 -40 36 -54.5t57 -14.5q36 0 59 14.5t36 54.5l30 -8q-6 -60 -38 -95t-86 -35z" />
    <glyph glyph-name="IJ.sc" unicode="&#xf631;" horiz-adv-x="734" 
d="M217 416v-278q0 -33 5 -56q5 -17 11 -24.5t21 -14.5q12 -6 47 -9v-34h-271v34q35 3 47 9q25 11 31 39q5 18 5 55v279q0 38 -5 56q-6 28 -31 39q-12 6 -47 9v34h271v-34q-35 -3 -47 -9q-15 -7 -21 -14.5t-11 -24.5q-5 -23 -5 -56zM625 178q0 -93 -55 -146
q-46 -46 -122 -46q-25 0 -56.5 8.5t-47.5 23.5q-26 26 -26 59q0 26 14.5 38t36.5 12q37 0 49 -35q2 -4 9 -25q3 -11 9 -22q12 -22 39 -22q24 0 36 26q9 20 9 88v277q0 40 -5 57q-6 28 -31 39q-11 6 -48 9v35h274v-35q-34 -3 -48 -9q-15 -7 -21 -14.5t-11 -24.5
q-5 -23 -5 -57v-236z" />
    <glyph glyph-name="Itilde.sc" unicode="&#xf632;" horiz-adv-x="331" 
d="M217 416v-278q0 -33 5 -56q5 -17 11 -24.5t21 -14.5q12 -6 47 -9v-34h-271v34q35 3 47 9q25 11 31 39q5 18 5 55v279q0 38 -5 56q-6 28 -31 39q-12 6 -47 9v34h271v-34q-35 -3 -47 -9q-15 -7 -21 -14.5t-11 -24.5q-5 -23 -5 -56zM318 733q-13 -43 -41 -71t-61 -28
q-27 0 -64.5 14.5t-55.5 14.5q-16 0 -31 -12.5t-23 -32.5l-30 11q14 42 38.5 72t55.5 30q25 0 64 -14.5t60 -14.5q41 0 58 42z" />
    <glyph glyph-name="Jcircumflex.sc" unicode="&#xf633;" horiz-adv-x="424" 
d="M315 178q0 -93 -55 -146q-46 -46 -122 -46q-25 0 -56.5 8.5t-47.5 23.5q-26 26 -26 59q0 26 14.5 38t36.5 12q37 0 49 -35q2 -4 9 -25q3 -11 9 -22q12 -22 39 -22q24 0 36 26q9 20 9 88v277q0 40 -5 57q-6 28 -31 39q-11 6 -48 9v35h274v-35q-34 -3 -48 -9
q-15 -7 -21 -14.5t-11 -24.5q-5 -23 -5 -57v-236zM401 626l-27 -25l-112 87l-112 -87l-27 25l115 132h48z" />
    <glyph glyph-name="Ldot.sc" unicode="&#xf634;" horiz-adv-x="514" 
d="M30 0v34q35 3 47 9q25 11 31 39q5 18 5 56v279q0 37 -5 55q-6 28 -31 39q-12 6 -47 9v34h273v-34q-38 -3 -49 -9q-15 -7 -21 -14.5t-11 -24.5q-5 -23 -5 -56v-322q0 -30 12 -45q12 -14 38 -14h32q60 0 97 30q10 8 21 22.5t17 24.5t18.5 33t15.5 29h36l-37 -174h-437z
M395 330q-28 0 -46 17.5t-18 45.5t18 45.5t46 17.5t46 -17.5t18 -45.5t-18 -45.5t-46 -17.5z" />
    <glyph glyph-name="Obreve.sc" unicode="&#xf635;" horiz-adv-x="617" 
d="M35 276q0 123 80.5 204.5t192.5 81.5q113 0 193.5 -81.5t80.5 -204.5t-80.5 -204.5t-193.5 -81.5q-112 0 -192.5 81.5t-80.5 204.5zM470 276q0 175 -79 224q-34 23 -83 23q-48 0 -82 -23q-78 -49 -78 -224t78 -224q34 -23 82 -23q49 0 83 23q79 49 79 224zM306 611
q-54 0 -86 35t-38 95l30 8q13 -40 36 -54.5t57 -14.5q36 0 59 14.5t36 54.5l30 -8q-6 -60 -38 -95t-86 -35z" />
    <glyph glyph-name="Scircumflex.sc" unicode="&#xf636;" horiz-adv-x="459" 
d="M431 156q0 -76 -52.5 -121t-134.5 -45t-133 49h-10l-21 -34h-32l-8 185h34q25 -74 69.5 -117.5t100.5 -43.5q104 0 104 82q0 47 -29 70.5t-107 54.5t-119.5 70t-41.5 108q0 66 51 107t121 41q30 0 51 -5.5t27.5 -9.5t25.5 -17h10l15 25h37l13 -167h-35q-48 135 -144 135
q-40 0 -65 -20.5t-25 -59.5q0 -10 1.5 -18t3.5 -14.5t7 -13.5l8 -11t12 -10l13.5 -9t17 -9l18 -8.5l21.5 -9.5l23 -10q4 -2 26.5 -12l27 -12t23.5 -11.5t24 -13.5t19.5 -14t18.5 -16.5t13 -18t12 -22t6 -25t3 -29.5zM365 626l-27 -25l-112 87l-112 -87l-27 25l115 132h48z
" />
    <glyph glyph-name="Tbar.sc" unicode="&#xf637;" horiz-adv-x="581" 
d="M238 137v179h-128v36h128v161h-15q-38 0 -61 -6t-46 -24q-35 -28 -67 -101h-39l26 172h508l27 -172h-40q-32 74 -66 101q-37 30 -107 30h-16v-161h129v-36h-129v-178q0 -33 5 -56q5 -17 11 -24.5t21 -14.5q12 -6 47 -9v-34h-271v34q35 3 47 9q25 11 31 39q5 18 5 55z" />
    <glyph glyph-name="Ubreve.sc" unicode="&#xf638;" horiz-adv-x="641" 
d="M499 200v213q0 51 -18 74q-13 19 -35 26q-17 6 -35 7v34h219v-34q-18 0 -33 -5q-21 -6 -37 -24t-16 -78v-215q0 -101 -47 -152q-51 -57 -163 -57q-172 0 -217 101q-20 48 -20 123v203q0 38 -5 56q-6 28 -31 39q-12 6 -47 9v34h271v-34q-35 -3 -47 -9q-15 -7 -21 -14.5
t-11 -24.5q-5 -23 -5 -56v-233q0 -45 11 -77q23 -78 130 -78q86 0 123 46q34 39 34 126zM346 611q-54 0 -86 35t-38 95l30 8q13 -40 36 -54.5t57 -14.5q36 0 59 14.5t36 54.5l30 -8q-6 -60 -38 -95t-86 -35z" />
    <glyph glyph-name="Utilde.sc" unicode="&#xf639;" horiz-adv-x="641" 
d="M499 200v213q0 51 -18 74q-13 19 -35 26q-17 6 -35 7v34h219v-34q-18 0 -33 -5q-21 -6 -37 -24t-16 -78v-215q0 -101 -47 -152q-51 -57 -163 -57q-172 0 -217 101q-20 48 -20 123v203q0 38 -5 56q-6 28 -31 39q-12 6 -47 9v34h271v-34q-35 -3 -47 -9q-15 -7 -21 -14.5
t-11 -24.5q-5 -23 -5 -56v-233q0 -45 11 -77q23 -78 130 -78q86 0 123 46q34 39 34 126zM503 733q-13 -43 -41 -71t-61 -28q-27 0 -64.5 14.5t-55.5 14.5q-16 0 -31 -12.5t-23 -32.5l-30 11q14 42 38.5 72t55.5 30q25 0 64 -14.5t60 -14.5q41 0 58 42z" />
    <glyph glyph-name="Wacute.sc" unicode="&#xf63a;" horiz-adv-x="835" 
d="M272 -3h-35l-129 410q-13 42 -27 66q-14 25 -39 37q-15 8 -41 10v34h264v-34q-25 -1 -34 -5q-25 -9 -25 -36q0 -24 16 -77l68 -226h6l110 284q-3 9 -8 18q-10 20 -32 32q-15 8 -41 10v34h262v-34q-24 -2 -36 -6q-26 -10 -26 -36q0 -24 14 -76l65 -226h6l81 232
q14 41 14 67q0 27 -23 38q-12 5 -37 7v34h198v-34q-30 -2 -47 -14q-14 -11 -29 -35q-17 -26 -31 -67l-147 -407h-35l-124 395h-6zM345 646l115 108q27 25 43.5 35t36.5 10t31.5 -13t11.5 -35q0 -35 -58 -61l-162 -72z" />
    <glyph glyph-name="Wcircumflex.sc" unicode="&#xf63b;" horiz-adv-x="835" 
d="M272 -3h-35l-129 410q-13 42 -27 66q-14 25 -39 37q-15 8 -41 10v34h264v-34q-25 -1 -34 -5q-25 -9 -25 -36q0 -24 16 -77l68 -226h6l110 284q-3 9 -8 18q-10 20 -32 32q-15 8 -41 10v34h262v-34q-24 -2 -36 -6q-26 -10 -26 -36q0 -24 14 -76l65 -226h6l81 232
q14 41 14 67q0 27 -23 38q-12 5 -37 7v34h198v-34q-30 -2 -47 -14q-14 -11 -29 -35q-17 -26 -31 -67l-147 -407h-35l-124 395h-6zM592 626l-27 -25l-112 87l-112 -87l-27 25l115 132h48z" />
    <glyph glyph-name="Wdieresis.sc" unicode="&#xf63c;" horiz-adv-x="835" 
d="M272 -3h-35l-129 410q-13 42 -27 66q-14 25 -39 37q-15 8 -41 10v34h264v-34q-25 -1 -34 -5q-25 -9 -25 -36q0 -24 16 -77l68 -226h6l110 284q-3 9 -8 18q-10 20 -32 32q-15 8 -41 10v34h262v-34q-24 -2 -36 -6q-26 -10 -26 -36q0 -24 14 -76l65 -226h6l81 232
q14 41 14 67q0 27 -23 38q-12 5 -37 7v34h198v-34q-30 -2 -47 -14q-14 -11 -29 -35q-17 -26 -31 -67l-147 -407h-35l-124 395h-6zM360 621q-22 0 -37.5 15t-15.5 39t15.5 39t37.5 15t37.5 -15t15.5 -39t-15.5 -39t-37.5 -15zM543 621q-22 0 -37.5 15t-15.5 39t15.5 39
t37.5 15t37.5 -15t15.5 -39t-15.5 -39t-37.5 -15z" />
    <glyph glyph-name="Wgrave.sc" unicode="&#xf63d;" horiz-adv-x="835" 
d="M272 -3h-35l-129 410q-13 42 -27 66q-14 25 -39 37q-15 8 -41 10v34h264v-34q-25 -1 -34 -5q-25 -9 -25 -36q0 -24 16 -77l68 -226h6l110 284q-3 9 -8 18q-10 20 -32 32q-15 8 -41 10v34h262v-34q-24 -2 -36 -6q-26 -10 -26 -36q0 -24 14 -76l65 -226h6l81 232
q14 41 14 67q0 27 -23 38q-12 5 -37 7v34h198v-34q-30 -2 -47 -14q-14 -11 -29 -35q-17 -26 -31 -67l-147 -407h-35l-124 395h-6zM566 646l-18 -28l-162 72q-58 26 -58 61q0 22 11.5 35t31.5 13t36.5 -10t43.5 -35z" />
    <glyph glyph-name="Ycircumflex.sc" unicode="&#xf63e;" horiz-adv-x="536" 
d="M217 219l-125 218q-44 72 -107 84v33h261v-33q-23 -1 -38 -8q-29 -15 5 -78l86 -157h5l78 134q27 47 27 73q0 18 -15 26t-42 10v33h196v-33q-17 -2 -30.5 -8.5t-22.5 -12t-23 -24.5t-20 -29l-26 -42l-105 -186v-81q0 -33 5 -56q5 -17 11 -24.5t21 -14.5q12 -6 47 -9v-34
h-271v34q35 3 47 9q25 11 31 39q5 18 5 55v82zM442 626l-27 -25l-112 87l-112 -87l-27 25l115 132h48z" />
    <glyph glyph-name="Ygrave.sc" unicode="&#xf63f;" horiz-adv-x="536" 
d="M217 219l-125 218q-44 72 -107 84v33h261v-33q-23 -1 -38 -8q-29 -15 5 -78l86 -157h5l78 134q27 47 27 73q0 18 -15 26t-42 10v33h196v-33q-17 -2 -30.5 -8.5t-22.5 -12t-23 -24.5t-20 -29l-26 -42l-105 -186v-81q0 -33 5 -56q5 -17 11 -24.5t21 -14.5q12 -6 47 -9v-34
h-271v34q35 3 47 9q25 11 31 39q5 18 5 55v82zM398 646l-18 -28l-162 72q-58 26 -58 61q0 22 11.5 35t31.5 13t36.5 -10t43.5 -35z" />
    <glyph glyph-name="Abreve.sc" unicode="&#xf640;" horiz-adv-x="559" 
d="M239 404l-71 -188h148l-71 188h-6zM186 34v-34h-196v34q27 2 44 14q13 10 30 35q18 30 33 67l164 407h35l158 -410q16 -43 37 -71q16 -20 35 -33q12 -7 38 -9v-34h-266v34q22 1 36 5t19.5 11.5t5.5 26.5q0 26 -19 75l-11 28h-174l-13 -34q-19 -50 -19 -67q0 -25 27 -38
q12 -5 36 -7zM278 611q-54 0 -86 35t-38 95l30 8q13 -40 36 -54.5t57 -14.5q36 0 59 14.5t36 54.5l30 -8q-6 -60 -38 -95t-86 -35z" />
    <glyph glyph-name="Amacron.sc" unicode="&#xf641;" horiz-adv-x="559" 
d="M402 626h-254v53h254v-53zM239 404l-71 -188h148l-71 188h-6zM186 34v-34h-196v34q27 2 44 14q13 10 30 35q18 30 33 67l164 407h35l158 -410q16 -43 37 -71q16 -20 35 -33q12 -7 38 -9v-34h-266v34q22 1 36 5t19.5 11.5t5.5 26.5q0 26 -19 75l-11 28h-174l-13 -34
q-19 -50 -19 -67q0 -25 27 -38q12 -5 36 -7z" />
    <glyph glyph-name="Aogonek.sc" unicode="&#xf642;" horiz-adv-x="559" 
d="M323 -4q63 34 41 91l-35 93h-174l-13 -34q-19 -50 -19 -67q0 -25 27 -38q12 -5 36 -7v-34h-196v34q27 2 44 14q18 13 39 51l24 51l164 407h35l158 -410q15 -40 33 -65q18 -27 39 -39q12 -7 38 -9v-34h-127q-57 0 -86 -23q-43 -32 -43 -78q0 -69 96 -76v-38
q-81 -5 -132 20t-51 75q0 37 22.5 61t79.5 55zM239 404l-71 -189h148l-71 189h-6z" />
    <glyph glyph-name="Cacute.sc" unicode="&#xf643;" horiz-adv-x="558" 
d="M314 526q-48 0 -81 -22q-41 -27 -65 -77.5t-24 -151.5q0 -113 47 -176q47 -65 139 -65q115 0 174 122l34 -19q-34 -75 -89 -111.5t-142 -36.5q-123 0 -197.5 79.5t-74.5 206.5q0 122 84.5 204.5t194.5 82.5q99 0 150 -47h9l22 38h26v-205h-37q-22 78 -53 121
q-42 57 -117 57zM188 646l115 108q27 25 43.5 35t36.5 10t31.5 -13t11.5 -35q0 -35 -58 -61l-162 -72z" />
    <glyph glyph-name="Ccaron.sc" unicode="&#xf644;" horiz-adv-x="558" 
d="M314 526q-48 0 -81 -22q-41 -27 -65 -77.5t-24 -151.5q0 -113 47 -176q47 -65 139 -65q115 0 174 122l34 -19q-34 -75 -89 -111.5t-142 -36.5q-123 0 -197.5 79.5t-74.5 206.5q0 122 84.5 204.5t194.5 82.5q99 0 150 -47h9l22 38h26v-205h-37q-22 78 -53 121
q-42 57 -117 57zM453 733l-115 -132h-48l-115 132l27 25l112 -87l112 87z" />
    <glyph glyph-name="Dcaron.sc" unicode="&#xf645;" horiz-adv-x="637" 
d="M27 0v34q35 3 47 9q25 11 31 39q5 18 5 55v279q0 38 -5 56q-6 28 -31 39q-12 6 -47 9v34h270q131 0 207 -56q98 -71 98 -220q0 -80 -38 -141t-99 -97q-69 -40 -143 -40h-295zM295 34h15q72 0 122 47q33 33 47 76t14 121q0 143 -70 205q-42 36 -130 36h-56q-13 0 -17 -7
q-6 -6 -6 -18v-366q0 -60 17 -77q16 -17 64 -17zM456 733l-115 -132h-48l-115 132l27 25l112 -87l112 87z" />
    <glyph glyph-name="Dcroat.sc" unicode="&#xf646;" horiz-adv-x="637" 
d="M27 0v34q35 3 47 9q25 11 31 39q5 18 5 55v123h-82v36h82v120q0 38 -5 56q-6 28 -31 39q-12 6 -47 9v34h270q131 0 207 -56q98 -71 98 -220q0 -80 -38 -141t-99 -97q-69 -40 -143 -40h-295zM295 34h15q72 0 122 47q33 33 47 76t14 121q0 143 -70 205q-42 36 -130 36h-56
q-13 0 -17 -7q-6 -6 -6 -18v-198h136v-36h-136v-132q0 -60 17 -77q16 -17 64 -17z" />
    <glyph glyph-name="Ecaron.sc" unicode="&#xf647;" horiz-adv-x="560" 
d="M540 168l-36 -168h-474v34q35 3 47 9q25 11 31 39q5 18 5 55v279q0 38 -5 56q-6 28 -31 39q-12 6 -47 9v34h451l30 -153h-36q-28 51 -74 90q-36 29 -85 29h-50q-28 0 -40 -19q-9 -15 -9 -39v-156h48q53 0 74 20q11 10 17 22.5t7.5 20.5t3.5 26h36v-214h-36q-5 45 -29 69
q-21 20 -73 20h-48v-141q0 -56 18 -75q16 -19 62 -19h34q58 0 101 41q45 41 73 92h35zM428 733l-115 -132h-48l-115 132l27 25l112 -87l112 87z" />
    <glyph glyph-name="Edotaccent.sc" unicode="&#xf648;" horiz-adv-x="560" 
d="M540 168l-36 -168h-474v34q35 3 47 9q25 11 31 39q5 18 5 55v279q0 38 -5 56q-6 28 -31 39q-12 6 -47 9v34h451l30 -153h-36q-28 51 -74 90q-36 29 -85 29h-50q-28 0 -40 -19q-9 -15 -9 -39v-156h48q53 0 74 20q11 10 17 22.5t7.5 20.5t3.5 26h36v-214h-36q-5 45 -29 69
q-21 20 -73 20h-48v-141q0 -56 18 -75q16 -19 62 -19h34q58 0 101 41q45 41 73 92h35zM288 604q-28 0 -46 17.5t-18 45.5t18 45.5t46 17.5t46 -17.5t18 -45.5t-18 -45.5t-46 -17.5z" />
    <glyph glyph-name="Emacron.sc" unicode="&#xf649;" horiz-adv-x="560" 
d="M540 168l-36 -168h-474v34q35 3 47 9q25 11 31 39q5 18 5 55v279q0 38 -5 56q-6 28 -31 39q-12 6 -47 9v34h451l30 -153h-36q-28 51 -74 90q-36 29 -85 29h-50q-28 0 -40 -19q-9 -15 -9 -39v-156h48q53 0 74 20q11 10 17 22.5t7.5 20.5t3.5 26h36v-214h-36q-5 45 -29 69
q-21 20 -73 20h-48v-141q0 -56 18 -75q16 -19 62 -19h34q58 0 101 41q45 41 73 92h35zM404 626h-254v53h254v-53z" />
    <glyph glyph-name="Eogonek.sc" unicode="&#xf64a;" horiz-adv-x="560" 
d="M398 0h-368v34q35 3 47 9q25 11 31 39q5 18 5 55v279q0 38 -5 56q-6 28 -31 39q-12 6 -47 9v34h451l30 -153h-36q-28 51 -74 90q-36 29 -85 29h-50q-22 0 -34 -12q-15 -15 -15 -46v-156h48q53 0 74 20q11 10 17 22.5t7.5 20.5t3.5 26h36v-214h-36q-5 45 -29 69
q-21 20 -73 20h-48v-141q0 -54 17 -74t63 -20h34q58 0 101 41q45 41 73 92h35l-36 -168h-66q-70 -49 -70 -113q0 -28 26.5 -44.5t69.5 -19.5v-38q-81 -5 -132 20t-51 75q0 73 117 120z" />
    <glyph glyph-name="Gbreve.sc" unicode="&#xf64b;" horiz-adv-x="610" 
d="M429 123q0 36 -4 55q-5 18 -11 25.5t-21 14.5q-13 5 -44 9v34h257v-34q-35 -5 -47 -9q-15 -7 -21 -15t-10 -25q-5 -17 -5 -55v-93q-17 -10 -74 -24q-75 -17 -142 -17q-123 0 -197.5 80t-74.5 207q0 122 84.5 204t194.5 82q99 0 150 -47h7l24 38h26v-193h-35
q-27 76 -55 110q-23 27 -48.5 40t-68.5 13q-47 0 -82 -22q-43 -28 -65.5 -76.5t-22.5 -148.5q0 -155 69 -213q39 -35 107 -35q65 0 90 19q19 15 19 68v8zM316 611q-54 0 -86 35t-38 95l30 8q13 -40 36 -54.5t57 -14.5q36 0 59 14.5t36 54.5l30 -8q-6 -60 -38 -95t-86 -35z
" />
    <glyph glyph-name="Gcommaaccent.sc" unicode="&#xf64c;" horiz-adv-x="610" 
d="M429 123q0 36 -4 55q-5 18 -11 25.5t-21 14.5q-13 5 -44 9v34h257v-34q-35 -5 -47 -9q-15 -7 -21 -15t-10 -25q-5 -17 -5 -55v-93q-17 -10 -74 -24q-75 -17 -142 -17q-123 0 -197.5 80t-74.5 207q0 122 84.5 204t194.5 82q99 0 150 -47h7l24 38h26v-193h-35
q-27 76 -55 110q-23 27 -48.5 40t-68.5 13q-47 0 -82 -22q-43 -28 -65.5 -76.5t-22.5 -148.5q0 -155 69 -213q39 -35 107 -35q65 0 90 19q19 15 19 68v8zM376 -117q0 -48 -39 -87t-95 -62l-13 30q82 34 82 67q0 8 -10 11q-45 16 -45 57q0 21 15 37.5t40 16.5
q30 0 47.5 -18.5t17.5 -51.5z" />
    <glyph glyph-name="Imacron.sc" unicode="&#xf64d;" horiz-adv-x="331" 
d="M217 416v-278q0 -33 5 -56q5 -17 11 -24.5t21 -14.5q12 -6 47 -9v-34h-271v34q35 3 47 9q25 11 31 39q5 18 5 55v279q0 38 -5 56q-6 28 -31 39q-12 6 -47 9v34h271v-34q-35 -3 -47 -9q-15 -7 -21 -14.5t-11 -24.5q-5 -23 -5 -56zM293 626h-254v53h254v-53z" />
    <glyph glyph-name="Iogonek.sc" unicode="&#xf64e;" horiz-adv-x="331" 
d="M198 0h-168v34q35 3 47 9q25 11 31 39q5 18 5 55v279q0 38 -5 56q-6 28 -31 39q-12 6 -47 9v34h271v-34q-35 -3 -47 -9q-15 -7 -21 -14.5t-11 -24.5q-5 -23 -5 -56v-278q0 -33 5 -56q5 -17 11 -24.5t21 -14.5q12 -6 47 -9v-34h-63q-70 -49 -70 -113q0 -28 26.5 -44.5
t69.5 -19.5v-38q-81 -5 -132 20t-51 75q0 73 117 120z" />
    <glyph glyph-name="Kcommaaccent.sc" unicode="&#xf64f;" horiz-adv-x="610" 
d="M426 -97q0 -48 -39 -87t-95 -62l-13 30q82 34 82 67q0 8 -10 11q-45 16 -45 57q0 21 15 37.5t40 16.5q30 0 47.5 -18.5t17.5 -51.5zM301 34v-34h-271v34q35 3 47 9q25 11 31 39q5 18 5 55v279q0 38 -5 56q-6 28 -31 39q-12 6 -47 9v34h271v-34q-35 -3 -47 -9
q-15 -7 -21 -14.5t-11 -24.5q-5 -23 -5 -56v-125l113 112q55 58 55 82q0 19 -17 28q-10 5 -36 7v34h232v-34q-37 -3 -72 -24q-28 -16 -92 -77l-100 -97v-6q92 2 133 -39q48 -48 62 -121q13 -77 46 -103q25 -16 59 -19v-34h-166q-15 13 -28.5 50.5t-17.5 79.5q-5 82 -20 110
q-21 40 -73 40q-31 0 -59 -22q-6 -4 -19 -17v-103q0 -33 5 -56q5 -17 11 -24.5t21 -14.5q12 -6 47 -9z" />
    </font>
</defs>
</svg>
