<?xml version="1.0" standalone="no"?>
<!DOCTYPE svg PUBLIC "-//W3C//DTD SVG 1.1//EN" "http://www.w3.org/Graphics/SVG/1.1/DTD/svg11.dtd" >
<svg>
<metadata>
Created by FontForge 20090622 at Tue Apr  5 15:06:30 2016
 By deploy user
Copyright (C)2015 Commercial Type.
</metadata>
<defs>
<font id="AustinNewsText-Bold" horiz-adv-x="460" >
  <font-face 
    font-family="Austin News Text Bold"
    font-weight="700"
    font-stretch="normal"
    units-per-em="1000"
    panose-1="0 0 0 0 0 0 0 0 0 0"
    ascent="807"
    descent="-193"
    x-height="511"
    cap-height="698"
    bbox="-130 -296 1378 1114"
    underline-thickness="46"
    underline-position="-75"
    unicode-range="U+0020-U+FB04"
  />
<missing-glyph horiz-adv-x="500" 
 />
    <glyph glyph-name="f_b" unicode="fb" horiz-adv-x="1016" 
d="M709 -13q-39 0 -86.5 23t-72.5 60h-12l-61 -70h-40q7 58 7 127v453q-8 3 -17 8q-23 13 -31 34q-6 13 -13 39t-12 36q-12 24 -43 24q-32 0 -48 -18q-16 -19 -16 -52v-140h131v-52h-131v-314q0 -48 9 -67q8 -21 29 -32q18 -8 44 -10v-36h-328v36q23 2 35 10q17 9 27 32
q7 18 7 67v314h-68v52h68v53q0 95 75 151q61 44 166 44q36 0 64 -3h222q10 0 10 -10q-3 -66 -3 -87v-197h10q44 63 136 63q40 0 76 -14t68.5 -43.5t52 -84t19.5 -126.5q0 -128 -80 -199t-194 -71zM712 464q-42 0 -66 -33q-25 -35 -25 -93v-174q0 -63 18 -98q17 -36 67 -36
q51 0 71.5 52t20.5 174q0 115 -21.5 161.5t-64.5 46.5z" />
    <glyph glyph-name="f_f_b" unicode="ffb" horiz-adv-x="1375" 
d="M1068 -13q-39 0 -86.5 23t-72.5 60h-12l-62 -70h-39q7 58 7 127v453q-9 2 -23 10q-17 12 -26 32q-6 13 -13 38t-11 35q-12 26 -43 26q-33 0 -50 -20q-14 -20 -14 -50v-140h131v-52h-131v-314q0 -47 8 -67q9 -20 29 -32q19 -8 44 -10v-36h-327v36q23 2 35 10q18 10 26 32
q8 20 8 67v314h-182v-314q0 -48 9 -67q8 -21 29 -32q18 -8 44 -10v-36h-328v36q23 2 35 10q17 9 27 32q7 18 7 67v314h-68v52h68v53q0 99 73 154q58 41 134 41q81 0 127 -22q46 -24 53 -71q18 29 46 49q61 44 167 44q35 0 64 -3h222q9 0 9 -10q0 -11 -1.5 -39t-1.5 -48v-197
h11q44 63 136 63q40 0 76 -14t68.5 -43.5t52 -84t19.5 -126.5q0 -128 -80 -199t-194 -71zM446 511v53q0 10 2 28q-17 -11 -42 -11q-43 0 -66 33q-11 20 -17 47l-4.5 21l-3.5 17q-4 22 -23 22q-14 0 -21 -10q-7 -11 -7 -38v-162h182zM1070 464q-41 0 -65 -33q-25 -35 -25 -93
v-174q0 -63 18 -98q17 -36 67 -36t71 52t21 174q0 115 -22 161.5t-65 46.5z" />
    <glyph glyph-name="f_f_h" unicode="ffh" horiz-adv-x="1392" 
d="M446 511v53q0 10 2 28q-17 -11 -42 -11q-43 0 -66 33q-11 20 -17 47l-4.5 21l-3.5 17q-4 22 -23 22q-14 0 -21 -10q-7 -9 -7 -38v-162h182zM346 0h-328v36q23 2 35 10q17 9 27 32q7 18 7 67v314h-68v52h68v53q0 99 73 154q58 41 134 41q81 0 127 -22q46 -24 53 -71
q18 29 46 49q61 44 167 44q35 0 64 -3h218q10 0 10 -10v-303h11q32 34 49 46q47 35 110 35q77 0 118 -41q40 -39 40 -106v-231q0 -52 7 -68q9 -22 28 -32q13 -8 34 -10v-36h-302v36q14 1 29 7q18 9 24 41q4 20 4 62v228q0 37 -17 56q-13 12 -42 12q-43 0 -70 -40
q-23 -34 -23 -87v-169q0 -48 3 -62q4 -30 25 -41q15 -6 28 -7v-36h-302v36q23 2 35 10q18 10 28 32q6 18 6 68v434q-10 3 -20 9q-16 11 -28 33q-5 13 -12 36.5t-10 32.5q-13 30 -45 30t-48 -19q-16 -17 -16 -51v-140h131v-52h-131v-314q0 -47 8 -67q9 -20 29 -32
q19 -8 44 -10v-36h-327v36q23 2 35 10q18 10 26 32q8 20 8 67v314h-182v-314q0 -48 9 -67q8 -21 29 -32q18 -8 44 -10v-36z" />
    <glyph glyph-name="f_f_j" unicode="ffj" horiz-adv-x="1035" 
d="M445 511v46q0 21 4 36q-17 -12 -43 -12q-43 0 -66 33q-11 20 -17 47l-4.5 21l-3.5 17q-4 22 -23 22q-15 0 -21 -11q-7 -10 -7 -37v-162h181zM736 -204q-69 0 -107 25q-43 30 -43 78q0 33 20.5 52.5t55.5 19.5q36 0 56.5 -17t20.5 -45q0 -14 -7 -35q-8 -14 -8 -23
q0 -18 25 -18q28 0 42 32q13 25 13 82v403q0 52 -7 68q-9 21 -23 30q-16 11 -44 11h-108v-314q0 -47 8 -67q9 -20 29 -32q20 -8 45 -10v-36h-328v36q18 2 35 10q18 11 27 32q7 18 7 67v314h-181v-314q0 -48 9 -67q8 -21 29 -32q18 -8 44 -10v-36h-328v36q23 2 35 10
q17 9 27 32q7 18 7 67v314h-68v52h68v53q0 99 73 154q58 41 134 41q81 0 127 -22q51 -26 55 -81q20 30 52 52q74 51 172 51q104 0 164 -29q65 -33 65 -96q0 -34 -20 -57t-57 -23q-50 0 -74 37q-10 17 -19 53q-2 8 -4 24t-4 21q-5 18 -16 25t-36 7q-35 0 -55 -20
q-22 -24 -22 -79v-111h353q8 0 8 -10q-3 -63 -3 -82v-365q0 -132 -94 -208q-65 -50 -150 -50z" />
    <glyph glyph-name="f_f_k" unicode="ffk" horiz-adv-x="1382" 
d="M446 511v53q0 10 2 28q-17 -11 -42 -11q-43 0 -66 33q-11 20 -17 47l-4.5 21l-3.5 17q-4 22 -23 22q-15 0 -21 -11q-7 -10 -7 -37v-162h182zM346 0h-328v36q23 2 35 10q17 9 27 32q7 18 7 67v314h-68v52h68v53q0 99 73 154q58 41 134 41q81 0 127 -22q46 -24 53 -71
q18 29 46 49q61 44 167 44q35 0 64 -3h222q9 0 9 -11q-3 -60 -3 -84v-396l105 90q59 51 59 76q0 24 -23 35q-9 4 -44 9v36h255v-36q-36 -9 -68 -28q-25 -14 -88 -67l-76 -63q143 -15 163 -110q20 -94 56 -143q16 -23 58 -28v-36h-224q-36 32 -60 170q-13 80 -52 97l-61 -51
v-71q0 -51 8 -67q7 -20 27 -33q15 -9 34 -10v-35h-313v35q18 2 33 10q21 15 28 33q7 20 7 67v435q-12 3 -21 9q-18 12 -28 33q-6 13 -12.5 37t-9.5 32q-13 30 -45 30q-33 0 -49 -19q-15 -18 -15 -51v-140h131v-52h-131v-314q0 -47 8 -67q9 -20 29 -32q19 -8 44 -10v-36h-327
v36q23 2 35 10q18 10 26 32q8 20 8 67v314h-182v-314q0 -48 9 -67q8 -21 29 -32q18 -8 44 -10v-36z" />
    <glyph glyph-name="f_h" unicode="fh" horiz-adv-x="1033" 
d="M346 36v-36h-328v36q23 2 35 10q17 9 27 32q7 18 7 67v314h-68v52h68v53q0 95 75 151q61 44 166 44q36 0 64 -3h218q10 0 10 -10v-303h12q28 32 48 46q47 35 111 35q77 0 118 -41q40 -40 40 -106v-231q0 -54 6 -68q11 -23 29 -32q13 -8 34 -10v-36h-302v36q11 1 29 7
q11 6 15.5 14.5t7.5 26.5q4 20 4 62v228q0 38 -16 56q-13 12 -42 12q-44 0 -71 -40q-23 -34 -23 -87v-169q0 -41 3 -62q6 -31 26 -41q16 -6 27 -7v-36h-302v36q23 2 35 10q18 10 28 32q7 21 7 68v434q-13 3 -20 8q-19 13 -28 34q-6 12 -12.5 36t-10.5 33q-13 30 -45 30
q-34 0 -49 -20q-15 -19 -15 -50v-140h131v-52h-131v-314q0 -48 9 -67q8 -21 29 -32q18 -8 44 -10z" />
    <glyph glyph-name="f_j" unicode="fj" horiz-adv-x="677" 
d="M446 -53v403q0 52 -7 68q-9 21 -23 30q-16 11 -44 11h-108v-314q0 -48 9 -67q8 -21 29 -32q18 -8 44 -10v-36h-328v36q20 2 35 10q18 11 27 32q7 18 7 67v314h-68v52h68v39q0 53 26 94.5t57 63.5q74 51 172 51q104 0 164 -29q65 -33 65 -96q0 -34 -20 -57t-57 -23
q-50 0 -74 37q-10 17 -19 53q-2 9 -4 24.5t-3 20.5q-5 18 -16.5 25t-36.5 7q-35 0 -54 -20q-23 -23 -23 -79v-111h353q9 0 9 -10q-3 -63 -3 -82v-365q0 -80 -26.5 -127t-68.5 -81q-65 -50 -150 -50q-69 0 -107 25q-43 30 -43 78q0 33 20.5 52.5t55.5 19.5q36 0 56.5 -17
t20.5 -45q0 -18 -7 -35q-7 -13 -7 -23q0 -18 24 -18q27 0 43 32q12 25 12 82z" />
    <glyph glyph-name="f_k" unicode="fk" horiz-adv-x="1024" 
d="M346 36v-36h-328v36q23 2 35 10q17 9 27 32q7 18 7 67v314h-68v52h68v53q0 95 75 151q61 44 166 44q36 0 64 -3h223q9 0 9 -11q-3 -60 -3 -84v-396l105 90q59 51 59 76q0 24 -23 35q-9 4 -44 9v36h255v-36q-36 -9 -68 -28q-25 -14 -88 -67l-76 -63q143 -15 163 -110
q20 -94 56 -143q16 -23 58 -28v-36h-224q-36 32 -60 170q-13 80 -52 97l-61 -51v-71q0 -51 8 -67q7 -20 27 -33q15 -9 34 -10v-35h-314v35q19 2 34 10q21 15 28 33q6 17 6 67v435q-11 3 -22 10q-15 9 -26 32q-5 12 -11.5 35t-10.5 31q-13 33 -46 33t-48 -20q-16 -17 -16 -50
v-140h131v-52h-131v-314q0 -48 9 -67q8 -21 29 -32q18 -8 44 -10z" />
    <glyph glyph-name="f_f" unicode="ff" horiz-adv-x="739" 
d="M445 511v53q0 11 2 27q-18 -10 -41 -10q-43 0 -66 33q-11 20 -17 47l-4.5 21l-3.5 17q-4 22 -23 22q-15 0 -21 -10q-7 -11 -7 -38v-162h181zM346 0h-328v36q23 2 35 10q17 9 27 32q7 18 7 67v314h-68v52h68v53q0 99 73 154q58 41 134 41q81 0 127 -22q42 -22 53 -67
q16 26 44 48q60 41 136 41q80 0 126 -22q55 -29 55 -88q0 -30 -18.5 -49t-51.5 -19q-43 0 -66 33q-11 20 -17 47q-1 6 -2.5 13.5t-2.5 13l-2 11.5q-6 22 -24 22q-15 0 -21 -9q-8 -11 -8 -39v-162h123v-52h-123v-314q0 -48 9 -67q8 -21 29 -32q18 -8 44 -10v-36h-328v36
q23 2 35 10q17 9 27 32q7 18 7 67v314h-181v-314q0 -48 9 -67q8 -21 29 -32q18 -8 44 -10v-36z" />
    <glyph glyph-name="f_i" unicode="fi" horiz-adv-x="708" 
d="M346 0h-328v36q20 2 35 10q18 11 27 32q7 18 7 67v314h-68v52h68v39q0 53 26 94.5t57 63.5q74 51 172 51q104 0 164 -29q65 -33 65 -96q0 -34 -20 -57t-57 -23q-50 0 -74 37q-10 17 -19 53q-2 9 -4 24.5t-3 20.5q-5 18 -16.5 25t-36.5 7q-35 0 -54 -20q-23 -23 -23 -79
v-111h352q9 0 9 -10q-3 -63 -3 -82v-273q0 -48 8 -68q10 -23 28 -32q13 -8 34 -10v-36h-316v36q23 2 35 10q19 11 27 32q7 18 7 68v204q0 52 -7 68q-7 21 -23 30q-15 11 -44 11h-107v-314q0 -48 9 -67q8 -21 29 -32q18 -8 44 -10v-36z" />
    <glyph glyph-name="f_l" unicode="fl" horiz-adv-x="710" 
d="M346 36v-36h-328v36q23 2 35 10q17 9 27 32q7 18 7 67v314h-68v52h68v53q0 95 75 151q61 44 166 44q36 0 64 -3h224q8 0 8 -11q0 -8 -1 -36t-1 -48v-515q0 -48 8 -68q10 -23 27 -32q15 -9 33 -10v-36h-313v36q19 2 34 10q18 9 27 32q7 18 7 68v433q-8 2 -22 10
q-17 11 -27 33q-5 12 -11.5 35.5t-10.5 32.5q-13 31 -46 31q-34 0 -50 -21q-14 -20 -14 -49v-140h131v-52h-131v-314q0 -48 9 -67q8 -21 29 -32q18 -8 44 -10z" />
    <glyph glyph-name="f_f_i" unicode="ffi" horiz-adv-x="1065" 
d="M445 511v39q0 21 5 44q-18 -13 -44 -13q-43 0 -66 33q-11 20 -17 47l-4.5 21l-3.5 17q-4 22 -23 22q-16 0 -22 -11q-6 -12 -6 -37v-162h181zM346 0h-328v36q23 2 35 10q17 9 27 32q7 18 7 67v314h-68v52h68v53q0 99 73 154q58 41 134 41q81 0 127 -22q55 -29 55 -84
q21 33 51 55q75 51 173 51q104 0 164 -29q65 -34 65 -96q0 -34 -20 -57t-57 -23q-52 0 -74 37q-13 22 -19 53q-2 8 -4 24t-4 21q-5 18 -16 25t-36 7q-35 0 -55 -20q-22 -22 -22 -79v-111h352q8 0 8 -10q-3 -63 -3 -82v-273q0 -46 9 -68q8 -22 27 -32q13 -8 34 -10v-36h-315
v36q24 2 34 10q20 11 28 32q7 21 7 68v204q0 52 -7 68q-9 21 -23 30q-16 11 -44 11h-107v-314q0 -47 8 -67q9 -20 29 -32q19 -8 44 -10v-36h-327v36q18 2 35 10q18 12 26 32t8 67v314h-181v-314q0 -48 9 -67q8 -21 29 -32q18 -8 44 -10v-36z" />
    <glyph glyph-name="f_f_l" unicode="ffl" horiz-adv-x="1065" 
d="M346 0h-328v36q23 2 35 10q17 9 27 32q7 18 7 67v314h-68v52h68v53q0 99 73 154q58 41 134 41q81 0 127 -22q46 -24 53 -71q18 29 46 49q61 44 167 44q35 0 64 -3h223q9 0 9 -11l-3 -84v-515q0 -49 9 -68q8 -23 26 -32q15 -8 34 -10v-36h-313v36q20 2 33 10q19 9 28 32
q7 21 7 68v434q-10 1 -20 8q-20 14 -30 34q-6 13 -13 38.5t-11 35.5q-12 25 -43 25q-30 0 -47 -17q-17 -19 -17 -53v-140h131v-52h-131v-314q0 -47 8 -67q9 -20 29 -32q19 -8 44 -10v-36h-327v36q23 2 35 10q18 10 26 32q8 20 8 67v314h-182v-314q0 -48 9 -67q8 -21 29 -32
q18 -8 44 -10v-36zM446 511v53q0 10 2 28q-17 -11 -42 -11q-43 0 -66 33q-11 20 -17 47l-4.5 21l-3.5 17q-4 22 -23 22q-16 0 -21 -11q-7 -12 -7 -37v-162h182z" />
    <glyph glyph-name=".notdef" horiz-adv-x="500" 
 />
    <glyph glyph-name=".null" horiz-adv-x="0" 
 />
    <glyph glyph-name="nonmarkingreturn" horiz-adv-x="333" 
 />
    <glyph glyph-name="space" unicode=" " horiz-adv-x="220" 
 />
    <glyph glyph-name="exclam" unicode="!" horiz-adv-x="312" 
d="M156 713q50 0 78.5 -28t28.5 -73q0 -18 -3.5 -39.5t-7.5 -37.5l-14 -54t-16 -64l-46 -208h-40l-46 208q-6 26 -16 64l-14 54t-7.5 37.5t-3.5 39.5q0 44 28.5 72.5t78.5 28.5zM244 73q0 -36 -24.5 -61.5t-63.5 -25.5t-63 25t-24 62t24 62t63 25t63.5 -25.5t24.5 -61.5z
" />
    <glyph glyph-name="quotedbl" unicode="&#x22;" horiz-adv-x="456" 
d="M126 716q36 0 57 -22t21 -57q0 -22 -22 -106q-8 -33 -34 -126h-45l-35 126q-21 88 -21 106q0 35 21.5 57t57.5 22zM252 637q0 35 21.5 57t57.5 22t57 -22t21 -57q0 -14 -22 -106q-8 -33 -34 -126h-45l-35 126q-21 88 -21 106z" />
    <glyph glyph-name="numbersign" unicode="#" horiz-adv-x="628" 
d="M385 257l32 178h-161l-32 -178h161zM339 0l39 215h-161l-39 -215h-44l39 215h-144v42h151l32 178h-143v40h150l37 203h44l-37 -203h161l37 203h44l-37 -203h138v-40h-145l-32 -178h137v-42h-144l-39 -215h-44z" />
    <glyph glyph-name="dollar" unicode="$" horiz-adv-x="549" 
d="M306 -113h-51v100q-97 4 -158.5 47t-61.5 103q0 32 18.5 53t48.5 21q71 0 71 -79q0 -10 -3.5 -25.5t-3.5 -18.5q0 -53 89 -60v223l-14 6q-45 20 -74.5 37.5t-60 45t-45 65t-14.5 86.5q0 84 63 140t154 61v83h51v-84q85 -7 139 -46.5t54 -92.5q0 -34 -17.5 -51t-45.5 -17
q-34 0 -52 20.5t-18 56.5q0 4 1 16.5t1 15.5q0 49 -62 56v-213q4 -1 12 -5q53 -25 83.5 -43t59.5 -44.5t41 -61.5t12 -83q0 -86 -62 -144.5t-155 -67.5v-100zM398 114q0 44 -18 65.5t-74 47.5v-198q43 6 67.5 28t24.5 57zM170 568q0 -38 23 -62t71 -46v190q-43 -4 -68.5 -26
t-25.5 -56z" />
    <glyph glyph-name="percent" unicode="%" horiz-adv-x="822" 
d="M639 668l-415 -683l-41 25l415 683zM374 506q0 -84 -49 -134.5t-121 -50.5t-120.5 50.5t-48.5 134.5t48.5 135t120.5 51t121 -51t49 -135zM204 659q-27 0 -39 -31t-12 -122t12 -122.5t39 -31.5t39 31.5t12 122.5t-12 122t-39 31zM448 170q0 84 48.5 135t121.5 51
q72 0 120.5 -51t48.5 -135q0 -83 -48.5 -134t-120.5 -51t-121 51t-49 134zM618 17q27 0 39 31t12 122t-12 122.5t-39 31.5t-39.5 -31.5t-12.5 -122.5q0 -90 12.5 -121.5t39.5 -31.5z" />
    <glyph glyph-name="ampersand" unicode="&#x26;" horiz-adv-x="794" 
d="M583 -15q-84 0 -141 66q-81 -66 -197 -66q-104 0 -159.5 50t-55.5 135q0 35 17 66.5t48.5 58.5t59.5 45t67 39q-3 5 -13 20t-13 21q-33 58 -33 121q0 79 63.5 125.5t155.5 46.5q155 0 155 -115q0 -77 -137 -164q43 -59 52 -73l105 -153q19 42 29 74q11 38 11 73
q0 34 -28 53q-13 8 -45 12v39h235v-39q-29 -4 -46 -13q-23 -15 -41 -40q-7 -12 -35 -89q-23 -64 -48 -116l31 -45q31 -43 79 -43q16 0 35 8t28 17l20 -28q-19 -31 -75 -58.5t-124 -27.5zM335 59q48 0 82 25l-1 2q-85 123 -116 172l-54 83q-28 -27 -41 -54.5t-13 -71.5
q0 -76 41 -116t102 -40zM314 605q0 -48 62 -139q73 61 73 135q0 73 -66 73q-30 0 -49.5 -17.5t-19.5 -51.5z" />
    <glyph glyph-name="quotesingle" unicode="'" horiz-adv-x="251" 
d="M126 716q36 0 57 -22t21 -57q0 -22 -22 -106q-8 -33 -34 -126h-45l-35 126q-21 88 -21 106q0 35 21.5 57t57.5 22z" />
    <glyph glyph-name="parenleft" unicode="(" horiz-adv-x="365" 
d="M349 -91l-24 -29q-51 32 -94.5 71t-83.5 92.5t-63 123.5t-23 148t23 147.5t63 123t83.5 92.5t94.5 71l24 -30q-66 -75 -96.5 -171.5t-30.5 -232.5q0 -137 30.5 -234t96.5 -172z" />
    <glyph glyph-name="parenright" unicode=")" horiz-adv-x="365" 
d="M16 -91q66 75 96.5 172t30.5 234q0 136 -30.5 232.5t-96.5 171.5l25 30q51 -32 94 -71t83 -92.5t63 -123t23 -147.5t-23 -148t-63 -123.5t-83 -92.5t-94 -71z" />
    <glyph glyph-name="asterisk" unicode="*" horiz-adv-x="482" 
d="M379 290q-19 -13 -39 -9t-34 23q-8 11 -30.5 66t-34.5 75q-12 -20 -34.5 -75t-29.5 -66q-14 -19 -34.5 -23t-39.5 9q-19 15 -21.5 35.5t11.5 39.5q8 11 53.5 49t60.5 54q-24 5 -81 9t-69 7q-23 8 -32.5 26t-2.5 41q7 22 25.5 31t41.5 1q13 -4 62.5 -35t68.5 -40
q-3 22 -17 79.5t-14 71.5q0 24 14.5 39t38.5 15q23 0 37 -15.5t14 -38.5q-1 -15 -15 -72t-16 -79q19 9 68.5 40t62.5 35q23 8 41.5 -1t26.5 -31q7 -23 -3 -41t-33 -26q-12 -3 -69 -7t-80 -9q16 -17 61 -55t53 -48q14 -19 11 -39.5t-22 -35.5z" />
    <glyph glyph-name="plus" unicode="+" horiz-adv-x="477" 
d="M440 278h-175v-175h-52v175h-176v51h176v177h52v-177h175v-51z" />
    <glyph glyph-name="comma" unicode="," horiz-adv-x="288" 
d="M236 64q0 -79 -54 -139t-136 -84l-12 34q47 17 80.5 46t33.5 52q0 21 -19 24q-82 15 -82 89q0 39 27 62.5t61 23.5q44 0 72.5 -29t28.5 -79z" />
    <glyph glyph-name="hyphen" unicode="-" horiz-adv-x="360" 
d="M293 266h-226v102h226v-102z" />
    <glyph glyph-name="period" unicode="." horiz-adv-x="299" 
d="M150 -14q-42 0 -68 27t-26 66t26 66t68 27t67.5 -27t25.5 -66t-25.5 -66t-67.5 -27z" />
    <glyph glyph-name="slash" unicode="/" horiz-adv-x="397" 
d="M401 746l-371 -931l-56 22l370 931z" />
    <glyph glyph-name="zero" unicode="0" horiz-adv-x="687" 
d="M38 339q0 161 89 257t217 96q127 0 215.5 -96t88.5 -257t-88.5 -257t-215.5 -96q-128 0 -217 96t-89 257zM459 339q0 174 -26 242.5t-89 68.5q-64 0 -90 -68.5t-26 -242.5t26 -242.5t90 -68.5q63 0 89 68.5t26 242.5z" />
    <glyph glyph-name="one" unicode="1" horiz-adv-x="404" 
d="M388 0h-359v39q30 4 40 9q35 12 44 42q8 20 8 63v354q0 18 -3 69q-2 29 -24 38q-19 9 -68 13v40q59 2 168 10q67 8 95 8q11 0 11 -11q0 -6 -1 -41t-1 -50v-430q0 -45 6 -63q10 -30 43 -42q11 -5 41 -9v-39z" />
    <glyph glyph-name="two" unicode="2" horiz-adv-x="608" 
d="M255 648q-35 0 -58 -16t-23 -40q0 -9 23 -51q11 -20 11 -42q0 -29 -22 -49.5t-60 -20.5t-60.5 25t-22.5 61q0 79 72 128t177 49q122 0 189 -47.5t67 -129.5q0 -34 -12 -66.5t-27 -54t-45.5 -49t-48 -40l-55.5 -38.5q-9 -6 -13 -9l-166 -111v-7h191q46 0 68.5 10.5
t46.5 34.5q28 29 52 75h43l-72 -260h-485l-11 28l80 77l51 51l48.5 51t53 60.5l42.5 58.5t39 66t21.5 63t10.5 69q0 67 -26 95.5t-79 28.5z" />
    <glyph glyph-name="three" unicode="3" horiz-adv-x="587" 
d="M284 692q226 0 226 -138q0 -60 -58 -103t-163 -83l2 -8q116 14 192.5 -27t76.5 -129q0 -91 -94 -155t-237 -64q-96 0 -154.5 46t-58.5 108q0 40 21 64.5t59 24.5q72 0 72 -76q0 -30 -18 -58q-8 -26 -5 -37q3 -13 29 -21t57 -8q148 0 148 194q0 59 -23.5 83t-76.5 24
q-28 0 -70 -21l-39 -22l-19 35l67 40q64 37 94.5 79t30.5 106q0 56 -19 78t-68 22q-32 0 -58 -11.5t-26 -29.5q0 -4 2 -8.5t6 -12l7 -13.5q13 -26 13 -52q0 -27 -19.5 -46.5t-54.5 -19.5t-55.5 23.5t-20.5 57.5q0 70 66.5 114t167.5 44z" />
    <glyph glyph-name="four" unicode="4" horiz-adv-x="638" 
d="M66 250h216v288h-7zM544 39v-39h-350v39q20 3 38 9q33 13 43 42q7 18 7 64v52h-267v46l308 425h130q5 0 5 -6t-1 -51t-1 -65v-305h22q49 0 70 24q21 22 27 80h41v-251h-41q-7 57 -27 79q-21 24 -70 24h-22v-52q0 -43 7 -64q10 -29 43 -42q18 -6 38 -9z" />
    <glyph glyph-name="five" unicode="5" horiz-adv-x="557" 
d="M208 28q65 0 100.5 48.5t35.5 141.5q0 85 -26 119t-82 34q-36 0 -65.5 -22t-41.5 -53l-41 8l86 372h32q40 -16 67.5 -22.5t72.5 -6.5q103 0 139 72l31 -8q-19 -103 -73.5 -155.5t-153.5 -52.5q-52 0 -109 10l-33 -136l3 -1q48 42 142 42q117 0 177 -52.5t60 -147.5
q0 -112 -88.5 -172t-219.5 -60q-96 0 -154 43t-58 104q0 38 20.5 61.5t52.5 23.5q38 0 54.5 -22.5t16.5 -54.5q0 -12 -9 -50q-4 -20 1 -37q6 -26 63 -26z" />
    <glyph glyph-name="six" unicode="6" horiz-adv-x="623" 
d="M588 564q0 -36 -18.5 -57t-53.5 -21q-34 0 -52 18.5t-18 49.5q0 19 5 34q6 22 6 35q0 12 -14 19t-35 7q-75 0 -123 -76.5t-57 -187.5h10q16 24 49 39t73 15q101 0 163.5 -55.5t62.5 -161.5t-77 -171t-193 -65q-129 0 -203.5 83.5t-74.5 211.5q0 79 23.5 148t62 116t87 81
t99 50t97.5 16q94 0 137.5 -36.5t43.5 -91.5zM316 384q-89 0 -89 -177q0 -59 7 -96.5t20.5 -54.5t27 -22.5t34.5 -5.5t35 6t28 23.5t20.5 55.5t6.5 97q0 47 -5 80t-12.5 51t-20.5 28t-24 12.5t-28 2.5z" />
    <glyph glyph-name="seven" unicode="7" horiz-adv-x="524" 
d="M525 657q-124 -238 -152 -305q-45 -111 -58 -250q-10 -117 -93 -117q-40 0 -64 23t-24 65q0 14 3.5 29.5t11 33t14 31t18.5 33.5t18.5 30l20.5 30.5t18 25.5q25 36 90 120.5t91 123.5v4h-209q-56 0 -83 -13q-40 -19 -61 -72h-39l45 264h39q19 -37 66 -37h348v-19z" />
    <glyph glyph-name="eight" unicode="8" horiz-adv-x="581" 
d="M286 -14q-111 0 -180.5 42.5t-69.5 122.5q0 52 40 90t95 60q-118 60 -118 184q0 95 73.5 151t176.5 56q222 0 222 -153q0 -80 -111 -136q140 -61 140 -184q0 -105 -71.5 -169t-196.5 -64zM193 564q0 -43 37.5 -72.5t139.5 -70.5q61 44 61 118q0 60 -31.5 85t-96.5 25
q-49 0 -79.5 -22t-30.5 -63zM286 28q135 0 135 92q0 54 -28.5 76.5t-142.5 69.5l-40 17q-75 -43 -75 -131q0 -71 40 -97.5t111 -26.5z" />
    <glyph glyph-name="nine" unicode="9" horiz-adv-x="616" 
d="M301 291q89 0 89 177q0 59 -7 97t-20.5 55.5t-27.5 23t-34 5.5q-28 0 -45.5 -11t-30.5 -53t-13 -119q0 -56 6.5 -92.5t20 -53.5t28 -23t34.5 -6zM40 112q0 35 19.5 56.5t52.5 21.5q34 0 52 -19.5t18 -48.5q0 -14 -6 -34q-5 -19 -5 -32q0 -28 56 -28q76 0 117 73.5
t45 186.5h-10q-15 -24 -47.5 -39t-72.5 -15q-100 0 -159.5 56.5t-59.5 163.5t72 172.5t188 65.5q132 0 205.5 -84.5t73.5 -212.5q0 -101 -29.5 -181t-79 -129t-111.5 -74t-132 -25q-94 0 -140.5 36.5t-46.5 89.5z" />
    <glyph glyph-name="colon" unicode=":" horiz-adv-x="299" 
d="M150 339q-42 0 -68 27t-26 66q0 38 26 65t68 27q41 0 67 -27t26 -65q0 -39 -25.5 -66t-67.5 -27zM150 -14q-42 0 -68 27t-26 66t26 66t68 27t67.5 -27t25.5 -66t-25.5 -66t-67.5 -27z" />
    <glyph glyph-name="semicolon" unicode=";" horiz-adv-x="307" 
d="M159 339q-42 0 -67.5 27t-25.5 66q0 38 26 65t67 27q42 0 68 -27t26 -65q0 -39 -26 -66t-68 -27zM255 64q0 -79 -54 -139t-136 -84l-13 34q47 17 81 46t34 52q0 21 -19 24q-82 15 -82 89q0 39 26.5 62.5t61.5 23.5q44 0 72.5 -29t28.5 -79z" />
    <glyph glyph-name="less" unicode="&#x3c;" horiz-adv-x="477" 
d="M398 114l-341 167v46l341 167v-60l-278 -130l278 -129v-61z" />
    <glyph glyph-name="equal" unicode="=" horiz-adv-x="477" 
d="M435 368h-392v50h392v-50zM435 182h-392v49h392v-49z" />
    <glyph glyph-name="greater" unicode="&#x3e;" horiz-adv-x="477" 
d="M420 281l-341 -167v61l278 129l-278 130v60l341 -167v-46z" />
    <glyph glyph-name="question" unicode="?" horiz-adv-x="493" 
d="M463 507q0 -90 -81.5 -144.5t-173.5 -54.5h-45v-96h-46v138h46q117 0 117 218q0 51 -17.5 80.5t-47.5 29.5q-28 0 -43 -59q-10 -44 -27.5 -68t-56.5 -24q-31 0 -50 20t-19 52q0 48 58 81t136 33q85 0 132 -23q53 -24 85.5 -70.5t32.5 -112.5zM234 73q0 -37 -24 -62
t-63 -25t-63.5 25.5t-24.5 61.5t24.5 61.5t63.5 25.5t63 -25t24 -62z" />
    <glyph glyph-name="at" unicode="@" horiz-adv-x="923" 
d="M903 324q0 -129 -82 -224.5t-211 -95.5q-45 0 -70.5 23t-25.5 61q0 25 6 43h-10q-26 -46 -49 -72q-52 -55 -117 -55q-51 0 -88.5 32.5t-37.5 101.5q0 77 43 154t115.5 127.5t149.5 50.5q31 0 49 -14.5t20 -35.5h12l23 40h138l-64 -201q-44 -126 -44 -173q0 -28 24 -28
q71 0 126.5 82.5t55.5 183.5q0 127 -85.5 201t-245.5 74q-180 0 -300 -118t-120 -300q0 -160 98 -242t257 -82q95 0 183 27.5t145 68.5l16 -31q-59 -42 -150 -70.5t-194 -28.5q-93 0 -172.5 22t-140 64.5t-95 111.5t-34.5 157q0 111 47 201t122 144t162 82t175 28
q180 0 274.5 -85t94.5 -224zM568 385q0 46 -28 46q-36 0 -72 -58q-34 -55 -61.5 -143.5t-27.5 -127.5q0 -40 28 -40q23 0 49 37t52 91q23 50 39 98q21 66 21 97z" />
    <glyph glyph-name="A" unicode="A" horiz-adv-x="737" 
d="M286 485l-81 -235h172l-81 235h-10zM237 40v-40h-238v40q27 3 46 14q23 13 41 40q15 21 41 95l188 513h113l180 -517q22 -64 46 -97q15 -24 44 -38q21 -9 34 -10v-40h-385v40q27 2 40 7q19 6 28 15.5t9 30.5q0 20 -25 93l-7 19h-203l-8 -24q-20 -56 -20 -79t8.5 -34.5
t26.5 -19.5q14 -6 41 -8z" />
    <glyph glyph-name="B" unicode="B" horiz-adv-x="730" 
d="M24 0v40q27 2 39 6q20 7 31.5 17.5t17.5 33.5q10 32 10 92v320q0 60 -10 92q-11 40 -49 51q-12 4 -39 6v40h360q273 0 273 -159q0 -55 -29.5 -86t-87.5 -53q-27 -12 -79 -20v-10q236 -22 236 -175q0 -65 -37 -110.5t-91.5 -65t-120.5 -19.5h-424zM308 394h58q62 0 87 28
q29 32 29 119q0 62 -25 87.5t-77 25.5h-48q-15 0 -19 -5q-5 -5 -5 -14v-241zM388 44h14q47 0 72 28q18 21 24 47t6 76q0 87 -28 119q-31 35 -105 35h-63v-197q0 -63 17 -84q18 -24 63 -24z" />
    <glyph glyph-name="C" unicode="C" horiz-adv-x="698" 
d="M396 669q-44 0 -76 -23q-93 -61 -93 -297q0 -86 15.5 -146t32 -83t40.5 -43q40 -34 107 -34q64 0 116.5 43.5t82.5 131.5l39 -12q-29 -101 -97 -161t-173 -60q-168 0 -263.5 101t-95.5 263q0 161 102.5 262.5t254.5 101.5q137 0 193 -77h6l27 59h33v-243h-40
q-22 87 -66 142q-30 39 -63 57t-82 18z" />
    <glyph glyph-name="D" unicode="D" horiz-adv-x="791" 
d="M24 698h355q119 0 205 -43q169 -86 169 -306q0 -213 -163 -303q-84 -46 -188 -46h-378v40q27 2 39 6q20 7 31.5 17.5t17.5 33.5q10 32 10 92v320q0 60 -10 92q-11 40 -49 51q-12 4 -39 6v40zM563 349q0 188 -69 263q-39 42 -116 42h-46q-15 0 -19 -5q-5 -4 -5 -16v-486
q0 -61 16 -81q16 -22 61 -22h11q62 0 105 48q62 73 62 257z" />
    <glyph glyph-name="E" unicode="E" horiz-adv-x="695" 
d="M669 248l-46 -248h-599v40q27 2 39 6q20 7 31.5 17.5t17.5 33.5q10 32 10 92v320q0 60 -10 92q-11 40 -49 51q-12 4 -39 6v40h588l37 -219h-39q-36 86 -85 131q-27 25 -59 34.5t-91 9.5h-35q-19 0 -26 -8t-7 -24v-240h26q73 0 95 28q28 34 34 93h40v-286h-40
q-7 59 -35 94q-21 27 -94 27h-26v-194q0 -57 17 -78q16 -22 60 -22h16q36 0 62.5 12.5t57.5 38.5q58 49 110 153h39z" />
    <glyph glyph-name="F" unicode="F" horiz-adv-x="653" 
d="M408 40v-40h-384v40q27 2 39 6q20 7 31.5 17.5t17.5 33.5q10 32 10 92v320q0 60 -10 92q-11 40 -49 51q-12 4 -39 6v40h578l32 -239h-38q-37 91 -91 142q-29 29 -57.5 41t-84.5 12h-24q-20 0 -26 -7q-7 -8 -7 -26v-230h17q41 0 58 6t30 22q28 36 34 93h40v-286h-40
q-6 56 -35 93q-12 16 -29 22t-58 6h-17v-158q0 -63 9 -92q13 -39 50 -51q11 -4 43 -6z" />
    <glyph glyph-name="G" unicode="G" horiz-adv-x="766" 
d="M493 172q0 55 -10 76q-7 17 -15 24t-27 14q-12 5 -38 5v40h351v-40q-23 -2 -35 -5q-19 -5 -28.5 -13t-17.5 -25q-9 -18 -9 -90v-112l-22 -9t-36.5 -14t-42.5 -13q-95 -25 -165 -25q-159 0 -263.5 101.5t-104.5 262.5q0 160 111 262t265 102q73 0 119.5 -24.5t68.5 -53.5
h7l23 49h33v-252h-38q-22 109 -69 169q-30 38 -61 53t-84 15q-49 0 -87 -29q-41 -33 -65.5 -95t-24.5 -197q0 -138 23 -205.5t66 -92.5q35 -21 80 -21q59 0 82 29q14 21 14 74v40z" />
    <glyph glyph-name="H" unicode="H" horiz-adv-x="848" 
d="M397 40v-40h-373v40q27 2 39 6q20 7 31.5 17.5t17.5 33.5q10 32 10 92v320q0 60 -10 92q-11 40 -49 51q-14 4 -39 6v40h373v-40q-26 -2 -38 -7q-30 -13 -42 -48q-9 -29 -9 -88v-136h232v136q0 59 -9 88q-12 35 -43 48q-11 5 -37 7v40h373v-40q-26 -2 -39 -6
q-38 -11 -50 -51q-9 -29 -9 -92v-320q0 -63 9 -92q7 -23 18.5 -33.5t31.5 -17.5q13 -4 39 -6v-40h-373v40q23 2 37 7q17 7 26.5 18t16.5 30q9 29 9 88v151h-232v-151q0 -59 9 -88q13 -35 42 -48q16 -5 38 -7z" />
    <glyph glyph-name="I" unicode="I" horiz-adv-x="429" 
d="M308 509v-320q0 -63 9 -92q12 -38 49 -51q14 -4 39 -6v-40h-381v40q27 2 39 6q20 7 31.5 17.5t17.5 33.5q10 32 10 92v320q0 60 -10 92q-11 40 -49 51q-12 4 -39 6v40h381v-40q-25 -2 -39 -6q-37 -11 -49 -51q-9 -29 -9 -92z" />
    <glyph glyph-name="J" unicode="J" horiz-adv-x="547" 
d="M254 509q0 63 -9 92q-7 23 -18.5 33.5t-31.5 17.5q-13 4 -39 6v40h381v-40q-27 -2 -39 -6q-20 -7 -31.5 -17.5t-17.5 -33.5q-10 -27 -10 -92v-264q0 -142 -73 -206q-62 -55 -179 -55q-36 0 -75 13t-61 33q-52 45 -52 102q0 46 26.5 72.5t65.5 26.5q76 0 81 -76
q2 -27 -4 -49q-12 -41 -10 -51q3 -26 35 -26q36 0 51 35q10 25 10 108v337z" />
    <glyph glyph-name="K" unicode="K" horiz-adv-x="787" 
d="M404 40v-40h-381v40q27 2 38 6q38 12 50 51q10 32 10 92v320q0 60 -10 92q-7 24 -18.5 34.5t-31.5 16.5q-11 4 -38 6v40h381v-40q-27 -2 -39 -6q-37 -11 -50 -51q-9 -29 -9 -92v-154l163 164l38 41t18.5 25.5t8.5 28.5q0 27 -26 37q-13 5 -40 7v40h264v-40
q-38 -5 -83 -31q-31 -19 -99 -92l-127 -125v-7q64 -4 102 -18.5t67 -41.5q57 -54 73 -159q7 -44 16.5 -70t16.5 -34t22 -19q23 -17 56 -21v-40h-259q-15 16 -29.5 57t-18.5 90l-4 47.5t-5 49.5t-7.5 35.5t-14.5 36.5q-18 34 -59 34q-28 0 -53 -27q-3 -2 -20 -19v-115
q0 -63 9 -92q13 -38 50 -51q12 -4 39 -6z" />
    <glyph glyph-name="L" unicode="L" horiz-adv-x="673" 
d="M24 0v40q27 2 39 6q20 7 31.5 17.5t17.5 33.5q10 32 10 92v320q0 60 -10 92q-11 40 -49 51q-12 4 -39 6v40h381v-40q-26 -2 -39 -6q-19 -6 -30.5 -16.5t-19.5 -34.5q-9 -29 -9 -91v-366q0 -59 17 -78q16 -22 60 -22h20q38 0 62 11.5t51 38.5q63 63 104 158h40l-39 -252
h-598z" />
    <glyph glyph-name="M" unicode="M" horiz-adv-x="959" 
d="M936 698v-39q-31 -4 -39 -7q-20 -6 -31.5 -16.5t-18.5 -34.5q-10 -27 -10 -92v-320q0 -65 10 -92q7 -24 18.5 -34.5t31.5 -16.5q11 -4 39 -6v-40h-383v40q28 2 40 6q38 11 50 51q9 29 9 92v377h-10l-186 -569h-71l-200 561h-10v-375q0 -78 14 -103q16 -24 44 -33
q12 -4 38 -7v-40h-248v40q21 1 38 7q29 10 42 33q15 26 15 103v326q0 70 -7 92q-13 42 -51 52q-3 1 -37 6v39h320l141 -421h6l139 421h307z" />
    <glyph glyph-name="N" unicode="N" horiz-adv-x="786" 
d="M676 -4h-107l-368 541h-8v-354q0 -78 15 -103q13 -22 43 -33q12 -4 38 -7v-40h-248v40q21 1 38 7q27 9 42 33q16 28 16 103v251q0 113 -23 159q-22 41 -59 58q-13 5 -34 8v39h304l288 -427h8v244q0 77 -16 104q-13 23 -42 32q-14 5 -39 8v39h249v-39q-30 -6 -37 -8
q-28 -8 -44 -34q-16 -25 -16 -102v-519z" />
    <glyph glyph-name="O" unicode="O" horiz-adv-x="756" 
d="M378 713q153 0 251 -101t98 -264q0 -162 -98 -262.5t-251 -100.5q-152 0 -250 101t-98 262q0 163 98 264t250 101zM378 29q43 0 71 20q39 26 59.5 92.5t20.5 207.5q0 140 -20.5 206.5t-59.5 93.5q-28 20 -71 20t-72 -20q-38 -27 -59 -94t-21 -206q0 -140 21 -207t59 -93
q29 -20 72 -20z" />
    <glyph glyph-name="P" unicode="P" horiz-adv-x="684" 
d="M406 40v-40h-382v40q26 2 39 6q20 7 31.5 17.5t18.5 33.5q9 29 9 92v320q0 63 -9 92q-12 41 -50 52q-12 3 -39 5v40h376q264 0 264 -195q0 -50 -24.5 -94.5t-61.5 -65.5q-84 -49 -231 -49h-39v-105q0 -63 9 -92q12 -38 49 -51q14 -4 40 -6zM308 630v-290h37q81 0 110 44
q23 36 23 121q0 75 -25.5 112t-81.5 37h-30q-22 0 -28 -6q-5 -7 -5 -18z" />
    <glyph glyph-name="Q" unicode="Q" horiz-adv-x="755" 
d="M582 -151q-77 0 -117.5 34.5t-61.5 102.5q-8 -1 -25 -1q-152 0 -250 101t-98 262q0 163 98 264t250 101q153 0 251 -101t98 -264q0 -106 -43.5 -187.5t-120.5 -127.5q21 -62 41.5 -90.5t49.5 -28.5q38 0 64 25l24 -32q-22 -23 -64.5 -40.5t-95.5 -17.5zM358 216
q92 0 155 -73q16 69 16 206q0 140 -20.5 207t-59.5 94q-27 19 -71 19t-72 -19q-38 -27 -59 -94.5t-21 -206.5q0 -119 10 -179q44 46 122 46zM378 28q9 0 14 1q-18 70 -34.5 96.5t-49.5 26.5q-38 0 -62 -31q15 -48 51 -73q28 -20 81 -20z" />
    <glyph glyph-name="R" unicode="R" horiz-adv-x="764" 
d="M367 654h-43q-12 0 -16 -4q-5 -7 -5 -15v-267h48q66 0 88 37q22 38 22 115q0 71 -23 102.5t-71 31.5zM400 40v-40h-376v40q22 2 35 5q38 10 50 52q9 29 9 80v344q0 51 -9 80q-11 42 -50 52q-13 3 -35 5v40h386q114 0 184 -43t70 -135q0 -96 -101 -141q-42 -17 -92 -25
v-13q62 -7 104 -30q69 -37 81 -117q16 -104 52 -138q16 -13 53 -16v-40h-248q-36 42 -43 129q-1 12 -4 40.5t-4.5 39.5t-4.5 29.5t-8 30.5t-13 22q-14 20 -33 26t-51 6h-49v-146q0 -55 8 -80q12 -42 50 -52q12 -3 39 -5z" />
    <glyph glyph-name="S" unicode="S" horiz-adv-x="606" 
d="M574 216q0 -109 -75 -170t-189 -61q-55 0 -105.5 21t-76.5 52h-9l-37 -55h-36l-5 255h40q28 -95 89 -162.5t140 -67.5q112 0 112 91q0 44 -32.5 70.5t-123.5 64.5l-44 18.5t-41.5 20.5t-42 26.5t-35 32t-29.5 40.5t-17.5 50t-7.5 63q0 93 74 150.5t181 57.5q99 0 147 -59
h7l30 43h36l13 -230h-38q-19 67 -64 134q-46 70 -130 70q-52 0 -77 -23t-25 -60q0 -50 27.5 -73.5t97.5 -53.5l15 -6q106 -46 142 -71q89 -63 89 -168z" />
    <glyph glyph-name="T" unicode="T" horiz-adv-x="730" 
d="M458 177q0 -58 7 -80q15 -43 51 -52q13 -3 35 -5v-40h-373v40q22 2 36 5q37 10 50 52q8 22 8 80v476h-15q-34 0 -59.5 -12t-55.5 -45q-38 -40 -82 -136h-38l21 238h644l21 -238h-38q-43 88 -85 136q-48 57 -112 57h-15v-476z" />
    <glyph glyph-name="U" unicode="U" horiz-adv-x="780" 
d="M671 241q0 -103 -35 -162q-53 -94 -240 -94q-202 0 -261 113q-29 56 -29 163v260q0 58 -8 80q-13 42 -50 52q-12 3 -35 5v40h372v-40q-22 -2 -35 -5q-37 -10 -51 -52q-8 -25 -8 -80v-298q0 -69 19 -108q21 -42 53.5 -59t83.5 -17q108 0 144 67q25 45 25 129v280
q0 75 -16 104q-12 22 -42 32q-16 5 -39 7v40h249v-40q-27 -3 -39 -7q-28 -10 -43 -33q-15 -25 -15 -103v-274z" />
    <glyph glyph-name="V" unicode="V" horiz-adv-x="736" 
d="M340 512l98 -295h12l101 299q21 61 21 84q0 39 -35 51q-16 6 -49 8v39h248v-39q-33 -4 -49 -14q-27 -17 -42 -40q-16 -24 -41 -96l-179 -513h-117l-176 524q-23 66 -42 91q-23 29 -48 38q-20 7 -37 10v39h395v-39q-29 -2 -46 -7q-37 -11 -37 -47q0 -18 23 -93z" />
    <glyph glyph-name="W" unicode="W" horiz-adv-x="1128" 
d="M715 -4l-143 463h-9l-150 -463h-116l-163 522q-22 68 -43 94q-22 27 -45 38q-17 7 -38 9v39h379v-39q-18 -1 -37 -7q-31 -9 -31 -43q0 -18 20 -96l88 -280h10l104 321q-15 42 -27 62q-16 27 -42 36q-17 5 -35 7v39h377v-39q-25 -2 -43 -7q-34 -9 -34 -43q0 -29 20 -96
l86 -280h11l90 283q18 59 18 87q0 37 -32 48q-16 6 -47 8v39h243v-39q-26 -3 -48 -14q-23 -11 -40 -36q-15 -20 -41 -100l-167 -513h-115z" />
    <glyph glyph-name="X" unicode="X" horiz-adv-x="751" 
d="M270 0h-247v40q21 2 42 12q23 13 47 38q29 31 66 83l109 149l-131 215q-23 37 -31.5 49t-26 31.5t-35.5 27.5t-45 13v40h405v-40q-40 -4 -57.5 -15t-17.5 -35q0 -19 34 -77l53 -87h10l67 91q32 44 32 75q0 30 -31 41q-6 3 -36 7v40h243v-40q-21 -2 -40 -13
q-26 -15 -46 -35q-13 -14 -66 -85l-99 -136l132 -216q20 -33 26.5 -43t22.5 -31.5t27 -29t28.5 -16.5t38.5 -13v-40h-395v40q35 4 50 15.5t15 36.5q0 22 -37 82l-56 92h-9l-77 -104q-33 -47 -33 -74q0 -28 31 -41q7 -3 37 -7v-40z" />
    <glyph glyph-name="Y" unicode="Y" horiz-adv-x="683" 
d="M249 291l-144 274q-27 51 -49 69t-63 24v40h370v-40q-28 -2 -41 -7q-51 -20 -8 -104l94 -184h9l87 164q29 52 29 88q0 26 -28 36q-12 4 -40 7v40h226v-40q-44 -7 -71 -35t-58 -89l-128 -243v-102q0 -63 9 -92q7 -23 18.5 -33.5t31.5 -17.5q13 -4 38 -6v-40h-381v40
q26 2 39 6q20 7 31.5 17.5t18.5 33.5q10 27 10 92v102z" />
    <glyph glyph-name="Z" unicode="Z" horiz-adv-x="670" 
d="M633 698v-26l-372 -628h63q58 0 93 10t66 37q67 56 122 161h42l-54 -252h-563v28l394 626h-80q-88 0 -137 -36q-28 -19 -58 -58t-52 -84h-40l31 222h545z" />
    <glyph glyph-name="bracketleft" unicode="[" horiz-adv-x="387" 
d="M377 -120h-284v870h284v-40h-129v-790h129v-40z" />
    <glyph glyph-name="backslash" unicode="\" horiz-adv-x="397" 
d="M-4 746l57 22l370 -931l-56 -22z" />
    <glyph glyph-name="bracketright" unicode="]" horiz-adv-x="387" 
d="M294 750v-870h-284v40h129v790h-129v40h284z" />
    <glyph glyph-name="asciicircum" unicode="^" horiz-adv-x="417" 
d="M208 650l-98 -194h-62l134 251h53l134 -251h-62z" />
    <glyph glyph-name="underscore" unicode="_" horiz-adv-x="310" 
d="M315 -180h-320v60h320v-60z" />
    <glyph glyph-name="grave" unicode="`" 
d="M332 596l-18 -32q-155 53 -174 61q-60 25 -60 72q0 27 16.5 42t40.5 15q16 0 33 -8.5t26.5 -16.5t31.5 -29z" />
    <glyph glyph-name="a" unicode="a" horiz-adv-x="569" 
d="M556 19q-47 -32 -119 -32q-59 0 -83 20q-26 22 -31 59h-11q-14 -32 -52 -55.5t-89 -23.5q-60 0 -102.5 33t-42.5 96q0 60 38 95q34 34 127 59q56 14 80 25.5t32 27.5l2 97q0 34 -11.5 49t-37.5 15t-47 -24q-5 -9 -20 -60q-13 -59 -73 -59q-31 0 -49.5 16.5t-18.5 42.5
q0 29 21 56q58 69 193 69q107 0 163 -28.5t56 -97.5l-2 -262q0 -67 10 -81q9 -12 29 -12q14 0 26 7zM303 278q-7 -7 -43 -27q-36 -21 -44 -33q-24 -31 -24 -78q0 -79 52 -79q43 0 59 37v180z" />
    <glyph glyph-name="b" unicode="b" horiz-adv-x="640" 
d="M244 756q9 0 9 -10q0 -11 -1.5 -39t-1.5 -48v-197h11q44 63 135 63q40 0 76.5 -14t69 -43.5t52 -84t19.5 -126.5q0 -128 -80 -199t-194 -71q-39 0 -86.5 23t-73.5 60h-11l-62 -70h-39q7 58 7 127v481q0 54 -8 73q-6 17 -24 28q-13 8 -38 11v36h240zM341 464
q-42 0 -65 -33q-25 -35 -25 -93v-174q0 -63 18 -98q17 -36 66 -36q51 0 71.5 52t20.5 174q0 115 -21.5 161.5t-64.5 46.5z" />
    <glyph glyph-name="c" unicode="c" horiz-adv-x="531" 
d="M309 485q-37 0 -56 -26q-40 -51 -41 -203q0 -144 52 -187q30 -24 69 -24q46 0 77 18.5t44.5 41t27.5 59.5l33 -12q-47 -165 -223 -165q-99 0 -161 49q-104 81 -104 220q0 67 26 120.5t68 84.5t90 47.5t98 16.5q118 0 168 -48q30 -31 30 -73q0 -66 -64 -66q-35 0 -52.5 22
t-27.5 67q-6 32 -19.5 45t-34.5 13z" />
    <glyph glyph-name="d" unicode="d" horiz-adv-x="645" 
d="M383 142v220q0 58 -19 86q-18 28 -58 28q-44 0 -69.5 -57.5t-25.5 -162.5q0 -212 92 -212q34 0 57 30.5t23 67.5zM631 0h-223q-9 0 -10 7q-1 10 -1 24v35h-11q-17 -37 -55 -58t-90 -21q-90 0 -152 71.5t-62 197.5q0 122 73.5 195.5t171.5 73.5q74 0 104 -41h7v135
q0 44 -9 61q-9 20 -26 29q-14 9 -43 11v36h250q10 0 10 -10q-5 -105 -5 -110v-492q0 -43 8 -67q10 -22 28 -31q17 -9 35 -11v-35z" />
    <glyph glyph-name="e" unicode="e" horiz-adv-x="553" 
d="M527 143q-46 -156 -227 -156q-97 0 -170 51q-103 71 -103 219q0 66 23.5 119t62.5 84.5t85 48t95 16.5q110 0 171.5 -60.5t61.5 -148.5q0 -40 -4 -56h-308q2 -150 48 -194q31 -28 80 -28q111 0 153 117zM248 462q-32 -35 -34 -162h119q31 0 31 37q0 95 -21 126
q-15 20 -47 20q-30 0 -48 -21z" />
    <glyph glyph-name="f" unicode="f" horiz-adv-x="376" 
d="M346 0h-328v36q23 2 35 10q17 9 27 32q7 18 7 67v314h-68v52h68v53q0 99 73 154q60 41 136 41q80 0 126 -22q55 -29 55 -88q0 -30 -18.5 -49t-51.5 -19q-43 0 -66 33q-11 20 -17 47l-4.5 21l-3.5 17q-4 22 -23 22q-14 0 -21 -10q-8 -11 -8 -38v-162h123v-52h-123v-314
q0 -48 9 -67q8 -21 29 -32q18 -8 44 -10v-36z" />
    <glyph glyph-name="g" unicode="g" horiz-adv-x="618" 
d="M199 354q0 -130 66 -130q71 0 71 130q0 131 -70 131q-67 0 -67 -131zM571 -15q0 -94 -93.5 -141.5t-238.5 -47.5q-109 0 -168.5 25.5t-59.5 74.5q0 65 133 81v11q-53 9 -79 38t-26 71q0 41 29 69.5t71 37.5v11q-94 41 -94 139q0 86 64.5 128.5t158.5 42.5q113 0 170 -63
h10q28 67 111 67q36 0 56.5 -17t20.5 -50q0 -31 -15 -46.5t-39 -15.5q-30 0 -55 36q-14 25 -28 25q-8 0 -14 -8.5t-6 -22.5q0 -13 8 -43q4 -22 4 -33q0 -85 -65 -127t-159 -42q-23 0 -51 1.5t-33 1.5q-20 0 -35 -9.5t-15 -25.5q0 -34 57 -34q12 0 92 3.5t107 3.5
q97 0 139.5 -30.5t42.5 -110.5zM474 -78q0 31 -19 40t-74 9q-102 0 -163 -7q-103 -10 -103 -71q0 -29 35.5 -43.5t92.5 -14.5q105 0 168 22t63 65z" />
    <glyph glyph-name="h" unicode="h" horiz-adv-x="679" 
d="M321 36v-36h-302v36q23 2 35 10q18 10 28 32q7 21 7 68v466q0 48 -7 68q-7 15 -24 28q-19 11 -40 12v36h237q10 0 10 -10v-303h12q30 34 48 47q49 35 111 35q75 0 117 -42q40 -37 40 -105v-232q0 -52 7 -68q9 -22 29 -32q13 -8 34 -10v-36h-303v36q13 1 30 7
q11 6 15.5 14.5t7.5 26.5q4 20 4 62v229q0 37 -16 55q-14 13 -42 13q-43 0 -71 -40q-23 -34 -23 -87v-170q0 -41 3 -62q6 -31 26 -41q16 -6 27 -7z" />
    <glyph glyph-name="i" unicode="i" horiz-adv-x="351" 
d="M178 571q-42 0 -69.5 27.5t-27.5 67.5t28 68t69 28t69 -28t28 -68t-27.5 -67.5t-69.5 -27.5zM265 419v-273q0 -48 8 -68q8 -22 28 -32q13 -8 34 -10v-36h-316v36q23 2 35 10q19 11 27 32q7 18 7 68v220q0 50 -7 68q-7 19 -24 28q-18 10 -39 13v36h241q9 0 9 -10
q-3 -63 -3 -82z" />
    <glyph glyph-name="j" unicode="j" horiz-adv-x="325" 
d="M178 571q-43 0 -70.5 27.5t-27.5 67.5t28 68t70 28q41 0 68.5 -28t27.5 -68t-27.5 -67.5t-68.5 -27.5zM88 -52v418q0 49 -8 68q-6 15 -23 28q-20 10 -39 13v36h241q8 0 8 -10q0 -8 -1 -34.5t-1 -47.5v-365q0 -80 -26.5 -127t-68.5 -81q-65 -50 -150 -50q-69 0 -107 25
q-43 30 -43 78q0 33 20.5 52.5t55.5 19.5q36 0 56.5 -17t20.5 -45q0 -14 -7 -35q-8 -14 -8 -22q0 -19 25 -19q27 0 43 32q12 25 12 83z" />
    <glyph glyph-name="k" unicode="k" horiz-adv-x="668" 
d="M334 35v-35h-313v35q18 2 33 10q21 15 28 33q7 20 7 67v467q0 48 -7 68q-6 15 -24 28q-16 10 -40 12v36h241q9 0 9 -11q-3 -60 -3 -84v-396l105 90q59 51 59 76q0 24 -22 35q-10 4 -44 9v36h254v-36q-36 -9 -68 -28q-25 -14 -88 -67l-76 -63q143 -15 163 -110
q20 -94 56 -143q16 -23 58 -28v-36h-224q-36 32 -60 170q-13 80 -52 97l-61 -51v-71q0 -49 9 -67q6 -19 26 -33q15 -8 34 -10z" />
    <glyph glyph-name="l" unicode="l" horiz-adv-x="352" 
d="M264 661v-515q0 -46 9 -68q9 -23 27 -32q13 -8 33 -10v-36h-313v36q19 2 34 10q18 9 27 32q7 21 7 68v466q0 48 -7 68q-6 15 -24 28q-16 10 -39 12v36h241q8 0 8 -11z" />
    <glyph glyph-name="m" unicode="m" horiz-adv-x="998" 
d="M321 36v-36h-302v36q24 2 35 10q18 10 28 32q7 21 7 68v220q0 49 -7 68q-8 18 -24 28q-23 11 -40 13v36h231q10 0 10 -10l-3 -73h11q21 35 56 60q46 35 109 35q76 0 115 -42q23 -22 32 -52h10q21 35 59 62q50 32 107 32q78 0 117 -42q40 -39 40 -105v-230q0 -51 8 -68
q8 -22 27 -32q15 -8 35 -10v-36h-302v36q14 1 27 7q21 12 25 41q4 19 4 62v230q0 37 -16 55q-15 12 -40 12q-41 0 -69 -39q-22 -30 -22 -78v-180q0 -41 3 -62q6 -31 25 -41q15 -6 29 -7v-36h-290v36q14 1 29 7q18 11 24 41q4 19 4 62v230q0 36 -17 55q-13 12 -40 12
q-40 0 -68 -39q-23 -34 -23 -78v-180q0 -41 3 -62q7 -31 26 -41q11 -5 27 -7z" />
    <glyph glyph-name="n" unicode="n" horiz-adv-x="679" 
d="M593 146q0 -52 7 -68q9 -23 29 -32q17 -9 34 -10v-36h-303v36q13 1 30 7q11 6 15.5 14.5t7.5 26.5q4 20 4 62v229q0 36 -17 55q-14 13 -41 13q-43 0 -71 -40q-23 -34 -23 -87v-170q0 -41 3 -62q5 -29 26 -41q11 -5 27 -7v-36h-302v36q22 2 35 10q20 10 28 32q7 21 7 68
v220q0 48 -7 68q-9 19 -24 28q-18 10 -40 13v36h229q10 0 10 -10q0 -6 -1 -32t-1 -40h12q24 37 58 60q55 36 111 36q75 0 117 -42q40 -37 40 -105v-232z" />
    <glyph glyph-name="o" unicode="o" horiz-adv-x="604" 
d="M27 256q0 122 80 195.5t195 73.5t195.5 -73.5t80.5 -195.5t-80.5 -195.5t-195.5 -73.5t-195 73.5t-80 195.5zM213 256q0 -99 9.5 -144.5t31.5 -65.5q20 -18 48 -18q30 0 48 18q22 21 31.5 66.5t9.5 143.5q0 99 -9.5 144t-31.5 66q-17 17 -48 17t-48 -17
q-22 -21 -31.5 -66t-9.5 -144z" />
    <glyph glyph-name="p" unicode="p" horiz-adv-x="652" 
d="M440 255q0 115 -22 163t-64 48q-38 0 -64 -41q-26 -36 -26 -99v-148q0 -68 22 -107q25 -39 64 -39q48 0 69 51t21 172zM87 -54v416q0 52 -7 72q-11 20 -24 28q-18 10 -40 13v36h235q9 0 9 -10l-1 -47h9q46 71 141 71q39 0 76 -15t69.5 -45.5t52 -84.5t19.5 -124
q0 -129 -73.5 -199t-185.5 -70q-60 0 -96 36h-6v-77q0 -48 8 -68q10 -23 28 -32q12 -8 42 -10v-36h-327v36q21 2 36 10q18 9 28 32q7 21 7 68z" />
    <glyph glyph-name="q" unicode="q" horiz-adv-x="642" 
d="M454 428h13l74 94h38q-10 -68 -10 -144v-432q0 -48 8 -68q10 -22 28 -32q17 -9 34 -10v-36h-321v36q30 2 46 10q18 8 27 32q8 20 8 68v111h-8q-45 -70 -144 -70q-100 0 -160 71t-60 200q0 120 77 193.5t178 73.5q61 0 106.5 -29t65.5 -68zM390 145v215q0 60 -19 88
t-56 28q-45 0 -71 -54t-26 -164q0 -209 92 -209q35 0 59 32q21 27 21 64z" />
    <glyph glyph-name="r" unicode="r" horiz-adv-x="503" 
d="M265 408q22 53 58 84q39 31 86 31q46 0 70 -23q27 -27 27 -75q0 -38 -23 -59t-54 -21q-32 0 -49 13.5t-28 43.5q-10 24 -27 24q-16 0 -34.5 -29.5t-23.5 -78.5q-3 -27 -3 -83v-90q0 -47 8 -67q10 -25 27 -32q16 -8 41 -10v-36h-322v36q20 2 35 10q18 10 28 32q6 18 6 67
v226q0 39 -2 55q-3 22 -20 34q-17 11 -46 15v36h229q10 0 10 -10l-4 -93h11z" />
    <glyph glyph-name="s" unicode="s" horiz-adv-x="486" 
d="M458 167q0 -81 -56.5 -130.5t-156.5 -49.5q-85 0 -140 59h-11l-24 -43h-31l-6 190h33q69 -169 180 -169q77 0 77 60q0 32 -26 50t-98 43q-31 11 -49 18.5t-42.5 23t-37.5 33t-22.5 45.5t-9.5 64q0 73 57 118.5t143 45.5q45 0 78.5 -15t49.5 -36h8l15 37h31l5 -155h-33
q-32 67 -67 98q-38 33 -87 33q-68 0 -68 -55q0 -30 23.5 -47t89.5 -40q44 -16 69 -27.5t53 -32t40.5 -49.5t12.5 -69z" />
    <glyph glyph-name="t" unicode="t" horiz-adv-x="413" 
d="M381 89l26 -32q-57 -70 -170 -70q-77 0 -119 30q-41 29 -41 108v335h-68v42q78 17 126 63t73 126h46v-180h127v-51h-127v-334q0 -34 12 -50.5t44 -16.5q44 0 71 30z" />
    <glyph glyph-name="u" unicode="u" horiz-adv-x="677" 
d="M585 145q0 -45 9 -67q9 -23 27 -32q22 -9 36 -10v-36h-225q-11 0 -11 11v70h-10q-19 -39 -49 -61q-42 -32 -105 -32q-85 0 -125 37q-47 47 -47 128v214q0 48 -8 68q-9 21 -23 29q-13 7 -40 11v36h240q10 0 10 -11q-2 -42 -2 -82v-273q0 -50 13 -67q15 -23 47 -23
q35 0 61 38q16 22 22 56q4 24 4 57v161q0 51 -8 68q-9 22 -24 29q-13 7 -40 11v36h241q10 0 10 -11q-3 -32 -3 -82v-273z" />
    <glyph glyph-name="v" unicode="v" horiz-adv-x="593" 
d="M588 475q-15 -1 -32 -11q-15 -8 -28 -28q-10 -14 -36 -83l-137 -356h-117l-140 361q-18 47 -31 68q-16 28 -30 37q-15 10 -35 12v36h340v-36q-32 -1 -45 -9q-21 -13 -21 -35q0 -13 17 -70l68 -201h11l74 198q17 48 17 73q0 23 -18 34q-15 8 -41 10v36h184v-36z" />
    <glyph glyph-name="w" unicode="w" horiz-adv-x="897" 
d="M567 -3l-104 324h-7l-117 -324h-109l-129 359q-18 51 -29 69q-17 28 -32 38q-14 10 -35 12v36h323v-36q-24 -2 -33 -9q-15 -12 -15 -35q0 -25 15 -70l55 -179h10l73 203l-16 41q-15 32 -27 40q-14 7 -28 9v36h310v-36q-21 -1 -35 -9q-17 -10 -17 -37q0 -22 13 -68
l50 -180h10l64 177q15 44 15 74q0 23 -18 34q-14 8 -32 9v36h174v-36q-17 -2 -33 -12q-15 -7 -27 -26q-9 -14 -34 -84l-125 -356h-110z" />
    <glyph glyph-name="x" unicode="x" horiz-adv-x="588" 
d="M217 0h-204v36q24 4 41 15q7 4 14 9t14 12t12 11.5t13.5 15l12.5 15.5l15 19t15 20l60 78l-101 152q-44 67 -60 78q-19 11 -36 14v36h312v-36q-22 -4 -29 -6q-17 -9 -17 -25q0 -14 22 -48l43 -66h8l29 40q34 47 34 68q0 20 -18 28q-9 6 -33 9v36h196v-36q-23 -3 -45 -15
q-13 -8 -25.5 -20.5t-19.5 -21t-23.5 -31.5l-25.5 -35l-49 -64l105 -160q42 -64 63 -78q19 -12 40 -14v-36h-322v36q18 1 32 6q21 8 21 25q0 10 -27 52l-46 69h-7l-36 -48q-32 -45 -32 -64q0 -22 22 -31q12 -6 32 -9v-36z" />
    <glyph glyph-name="y" unicode="y" horiz-adv-x="571" 
d="M326 -23q-22 -57 -38 -83t-39 -49q-48 -48 -121 -48q-47 0 -76.5 22.5t-29.5 64.5q0 26 18.5 46.5t48.5 20.5q49 0 70 -51q11 -21 13 -24q8 -11 23 -11q25 0 48 47q15 32 15 52q0 14 -7 31l-149 361l-30 69q-16 29 -31 38q-15 10 -35 12v36h329v-36q-23 -2 -38 -8
q-21 -10 -21 -36q0 -24 17 -71l62 -168h10l64 166q19 49 19 73t-19 36q-13 6 -35 8v36h179v-36q-15 -1 -34 -11q-17 -11 -28 -27q-12 -17 -37 -84z" />
    <glyph glyph-name="z" unicode="z" horiz-adv-x="537" 
d="M515 203l-30 -203h-465v24l273 444v4h-62q-47 0 -95 -44q-42 -44 -67 -109h-36l31 192h436v-28l-268 -443v-5h68q61 0 112 58q39 46 68 110h35z" />
    <glyph glyph-name="braceleft" unicode="{" horiz-adv-x="420" 
d="M406 -120q-127 3 -197 47.5t-70 132.5q0 22 10 74t10 63q0 34 -11 52.5t-34 31.5q-25 13 -74 15v37q49 2 74 15q23 13 34 31.5t11 52.5q0 11 -10 63t-10 74q0 88 70 132.5t197 47.5v-40q-56 -6 -83.5 -28.5t-27.5 -84.5q0 -18 6 -67t6 -63q0 -126 -178 -148v-7
q178 -22 178 -148q0 -14 -6 -63t-6 -67q0 -62 27.5 -84.5t83.5 -28.5v-40z" />
    <glyph glyph-name="bar" unicode="|" horiz-adv-x="226" 
d="M145 -179h-64v945h64v-945z" />
    <glyph glyph-name="braceright" unicode="}" horiz-adv-x="420" 
d="M14 -120v40q56 6 83.5 28.5t27.5 84.5q0 18 -6 67t-6 63q0 126 178 148v7q-178 22 -178 148q0 14 6 63t6 67q0 62 -27.5 84.5t-83.5 28.5v40q127 -3 197 -47.5t70 -132.5q0 -22 -10 -74t-10 -63q0 -34 11 -52.5t34 -31.5t74 -15v-37q-51 -2 -74 -15t-34 -31.5t-11 -52.5
q0 -11 10 -63t10 -74q0 -88 -70 -132.5t-197 -47.5z" />
    <glyph glyph-name="asciitilde" unicode="~" horiz-adv-x="438" 
d="M400 387q-32 -151 -119 -151q-25 0 -64 11t-67 11q-54 0 -72 -57l-41 10q34 152 122 152q29 0 68 -11t58 -11q57 0 75 57z" />
    <glyph glyph-name="uni00A0" unicode="&#xa0;" horiz-adv-x="220" 
 />
    <glyph glyph-name="exclamdown" unicode="&#xa1;" horiz-adv-x="312" 
d="M243 438q0 -36 -24.5 -61t-63.5 -25t-63 25t-24 61q0 37 24 62t63 25q40 0 64 -25t24 -62zM155 -202q-49 0 -77.5 28.5t-28.5 72.5q0 18 3.5 39.5t7.5 37.5l14 54t16 64l45 208h40l46 -208q6 -24 17 -63.5t14.5 -54.5t7 -37t3.5 -40q0 -44 -29 -72.5t-79 -28.5z" />
    <glyph glyph-name="cent" unicode="&#xa2;" horiz-adv-x="543" 
d="M527 152q-42 -146 -189 -163v-84h-43v82q-98 2 -158 49q-105 80 -105 220q0 62 23.5 113t62.5 83t84 50t93 22v96h43v-95q105 -4 151 -48q30 -31 30 -73q0 -66 -64 -66q-35 0 -52.5 22t-27.5 67q-9 47 -37 56v-438h7q46 0 77 18.5t44.5 41t27.5 59.5zM269 69
q11 -8 26 -15v428q-25 -6 -37 -23q-40 -51 -41 -203q0 -142 52 -187z" />
    <glyph glyph-name="sterling" unicode="&#xa3;" horiz-adv-x="726" 
d="M488 -27q-89 0 -187 66q-63 -56 -156 -56q-65 0 -99.5 26.5t-34.5 75.5t47.5 81.5t120.5 32.5q28 0 85 -12q-31 72 -39 103h-108v45h101q-3 26 -3 56q2 72 29.5 131t70.5 95t93 55.5t102 19.5q84 0 132.5 -34.5t48.5 -97.5q0 -59 -41.5 -91t-98.5 -32q-77 0 -105 67
l31 17q19 -39 56 -39q63 0 63 86q0 82 -89 82q-40 0 -66.5 -24t-30.5 -72q-4 -38 0.5 -114t4.5 -105h152v-45h-155q-7 -62 -31 -128q91 -19 131 -19q69 0 100.5 18.5t48.5 63.5l34 -6q-14 -124 -60.5 -185t-146.5 -61zM145 25q80 0 112 49q-78 68 -136 68q-60 0 -60 -57
q0 -60 84 -60z" />
    <glyph glyph-name="currency" unicode="&#xa4;" horiz-adv-x="500" 
 />
    <glyph glyph-name="yen" unicode="&#xa5;" horiz-adv-x="673" 
d="M509 39v-39h-350v39q20 1 38 8q34 15 43 42q8 21 8 64v33h-162v45h162v60h-162v44h145l-122 225q-21 42 -41.5 57.5t-55.5 21.5v39h346v-39q-23 -1 -44 -7q-17 -6 -21.5 -20t0.5 -33t19 -48l85 -156h6l77 136q31 54 31 86q0 24 -27 35q-11 4 -41 7v39h226v-39
q-40 -7 -69 -33.5t-65 -93.5l-97 -177h146v-44h-163v-60h163v-45h-163v-33q0 -42 7 -64q9 -26 43 -42q20 -7 38 -8z" />
    <glyph glyph-name="brokenbar" unicode="&#xa6;" horiz-adv-x="207" 
d="M145 361h-64v405h64v-405zM145 -179h-64v405h64v-405z" />
    <glyph glyph-name="section" unicode="&#xa7;" horiz-adv-x="572" 
d="M301 205q71 -38 100 -65q29 27 29 62q0 44 -31 72.5t-129 85.5q-62 35 -91 59q-33 -17 -33 -70q0 -13 3 -24.5t12 -22.5t16 -18.5t24.5 -19l27 -17.5t35 -20.5zM259 -205q-91 0 -140 32t-49 80q0 28 16 44.5t44 16.5q45 0 62 -50q3 -10 6.5 -27.5t5.5 -24.5
q15 -32 55 -32q37 0 59 19.5t22 53.5q0 22 -7 40t-26 34t-29 23.5t-40.5 23.5t-37.5 20q-64 38 -96.5 64.5t-53.5 65.5t-21 92q0 64 36.5 108.5t87.5 66.5q-50 53 -50 129q0 82 57.5 133.5t144.5 51.5q88 0 138 -31t50 -79q0 -29 -15 -45t-42 -16q-46 0 -65 50
q-3 10 -6.5 27.5t-5.5 24.5q-13 29 -54 29q-32 0 -52 -17.5t-20 -49.5q0 -20 7 -36.5t25 -31.5t29 -22.5t40 -23.5t37 -21q50 -29 77 -47.5t53 -45t36.5 -56.5t10.5 -70q0 -51 -35.5 -106t-84.5 -79q42 -52 42 -120q0 -83 -62 -140.5t-149 -57.5z" />
    <glyph glyph-name="dieresis" unicode="&#xa8;" 
d="M126 591q-31 0 -51 19.5t-20 51.5q0 31 20.5 51t50.5 20t50 -20t20 -51q0 -32 -20 -51.5t-50 -19.5zM335 591q-31 0 -51 19.5t-20 51.5q0 31 20.5 51t50.5 20t50.5 -20t20.5 -51q0 -32 -20.5 -51.5t-50.5 -19.5z" />
    <glyph glyph-name="copyright" unicode="&#xa9;" horiz-adv-x="973" 
d="M487 723q183 0 311.5 -125.5t128.5 -314.5t-128.5 -314t-311.5 -125q-184 0 -312.5 125.5t-128.5 314.5t128.5 314t312.5 125zM487 685q-168 0 -280.5 -114t-112.5 -287q0 -174 112.5 -288t280.5 -114q167 0 279.5 114t112.5 287q0 174 -112.5 288t-279.5 114zM720 208
q-19 -78 -74.5 -133.5t-149.5 -55.5q-126 0 -197 71q-80 77 -80 197q0 116 85 189t204 73q56 0 87.5 -14t56.5 -42h9l18 36h29v-206h-38q-18 81 -47 128q-41 58 -103 58q-42 0 -70 -36q-43 -57 -43 -180q0 -121 42 -175q33 -41 85 -41q101 0 149 143z" />
    <glyph glyph-name="ordfeminine" unicode="&#xaa;" horiz-adv-x="440" 
d="M137 373q-43 0 -72.5 24t-29.5 71q0 35 27 64q26 27 89 44q69 18 85 43v51q0 26 -8.5 37t-29.5 11q-17 0 -25 -13q-4 -7 -12 -44q-12 -48 -56 -48q-26 0 -39.5 14t-13.5 35q0 22 14 39q36 48 136 48q81 0 125.5 -20.5t44.5 -72.5v-197q0 -25 8 -35q7 -7 17 -7q9 0 22 5
l8 -29q-33 -20 -97 -20q-39 0 -58 14q-18 12 -24 42h-8q-27 -56 -103 -56zM236 577q-16 -13 -37 -23q-15 -11 -21 -21q-9 -17 -9 -49q0 -54 30 -54q31 0 37 38v109z" />
    <glyph glyph-name="guillemotleft" unicode="&#xab;" horiz-adv-x="444" 
d="M220 289l172 134l30 -28l-98 -127l99 -127l-31 -27l-172 134v41zM24 289l173 134l30 -28l-99 -127l100 -127l-31 -27l-173 134v41z" />
    <glyph glyph-name="registered" unicode="&#xae;" horiz-adv-x="608" 
d="M575 439q0 -116 -77 -193.5t-194 -77.5t-194 77t-77 194t76.5 194t194.5 77q117 0 194 -77t77 -194zM78 439q0 -101 61.5 -165.5t164.5 -64.5q102 0 164 64.5t62 165.5q0 102 -62 166t-164 64q-103 0 -164.5 -64t-61.5 -166zM336 523q0 44 -35 44h-25v-98h21
q21 0 30 12.5t9 41.5zM476 306h-119q-12 18 -18 72q-5 34 -13 49q-10 14 -35 14h-15v-55q0 -28 2 -36q4 -13 12 -16q10 -4 23 -4v-24h-160v24q12 0 22 4q9 4 13 16q2 8 2 35v130q0 28 -2 36q-3 11 -13 16q-10 4 -22 4v25h166q106 0 106 -71q0 -58 -78 -67v-5q39 -4 54.5 -18
t23.5 -50q6 -27 10 -34.5t14 -13.5q10 -5 27 -7v-24z" />
    <glyph glyph-name="macron" unicode="&#xaf;" 
d="M363 606h-266v70h266v-70z" />
    <glyph glyph-name="degree" unicode="&#xb0;" horiz-adv-x="330" 
d="M293 565q0 -55 -36.5 -91t-91.5 -36t-91.5 36t-36.5 91t36.5 91t91.5 36q56 0 92 -36t36 -91zM242 565q0 38 -20 61t-57 23q-36 0 -56.5 -23t-20.5 -61t20.5 -60.5t56.5 -22.5q37 0 57 22.5t20 60.5z" />
    <glyph glyph-name="acute" unicode="&#xb4;" horiz-adv-x="415" 
d="M88 596l104 104q22 21 31.5 29t26.5 16.5t33 8.5q24 0 41 -15.5t17 -41.5q0 -47 -61 -72q-17 -7 -174 -61z" />
    <glyph glyph-name="mu" unicode="&#xb5;" horiz-adv-x="500" 
 />
    <glyph glyph-name="paragraph" unicode="&#xb6;" horiz-adv-x="627" 
d="M610 658h-85v-768h-46v768h-102v-768h-46v325h-27q-131 0 -200 69.5t-69 173.5q0 103 70.5 171.5t201.5 68.5h303v-40z" />
    <glyph glyph-name="periodcentered" unicode="&#xb7;" horiz-adv-x="322" 
d="M71 277q0 39 26 66t68 27t67.5 -27t25.5 -66t-25.5 -66t-67.5 -27t-68 27t-26 66z" />
    <glyph glyph-name="cedilla" unicode="&#xb8;" 
d="M336 -121q0 -43 -38 -64.5t-96 -21.5q-64 0 -108 25l15 32q34 -19 66 -19q60 0 60 45q0 41 -36 41q-21 0 -34 -9l-36 19l33 78h43l-26 -58q24 10 55 10q45 0 73.5 -20t28.5 -58z" />
    <glyph glyph-name="ordmasculine" unicode="&#xba;" horiz-adv-x="482" 
d="M440 561q0 -86 -57.5 -137t-141.5 -51q-83 0 -141 51t-58 137t58 137t141 51q84 0 141.5 -51t57.5 -137zM297 561q0 120 -26 145q-11 12 -30 12q-18 0 -30 -12q-25 -25 -25 -145q0 -119 25 -144q13 -13 30 -13q19 0 30 13q26 25 26 144z" />
    <glyph glyph-name="guillemotright" unicode="&#xbb;" horiz-adv-x="444" 
d="M420 289v-41l-173 -134l-30 27l99 127l-99 127l30 28zM225 289v-41l-173 -134l-31 27l99 127l-98 127l30 28z" />
    <glyph glyph-name="onequarter" unicode="&#xbc;" horiz-adv-x="924" 
d="M715 700l-483 -731l-44 29l482 730zM313 263h-288v32q26 2 39 8q20 11 26 33q4 17 4 54v183q0 35 -2 47q-4 18 -22 27q-18 7 -47 9v32q72 4 130 17l30.5 8.5l33 9t16.5 3.5q14 0 14 -14q0 -3 -1 -36.5t-1 -48.5v-237q0 -37 4 -54q8 -23 26 -33q13 -6 38 -8v-32zM520 179
h121v156h-6zM858 32v-32h-286v32q26 2 39 8q20 11 26 33q4 17 4 54v13h-168v40l204 272h100q14 0 14 -16v-257h12q32 0 46 17q15 18 17 52h34v-177h-33q-4 34 -17 52q-11 17 -47 17h-12v-13q0 -37 4 -54q8 -23 26 -33q13 -6 37 -8z" />
    <glyph glyph-name="onehalf" unicode="&#xbd;" horiz-adv-x="945" 
d="M881 0h-333l-7 40l97 87q39 37 53 51.5t33.5 42t25 54t5.5 64.5q0 79 -65 79q-23 0 -34 -8.5t-11 -19.5q0 -4 10 -27q10 -19 10 -40q0 -23 -16 -37.5t-44 -14.5t-45.5 18.5t-17.5 46.5q0 40 31 69t72.5 41.5t84.5 12.5q83 0 130.5 -32t47.5 -89q0 -41 -20.5 -71
t-65.5 -63q-49 -38 -146 -91v-7h105q49 0 76 24q22 21 30 45h35zM313 263h-288v32q26 2 39 8q20 11 26 33q4 17 4 54v183q0 35 -2 47q-4 18 -22 27q-18 7 -47 9v32q72 4 130 17l30.5 8.5l33 9t16.5 3.5q14 0 14 -14q0 -3 -1 -36.5t-1 -48.5v-237q0 -37 4 -54q8 -23 26 -33
q13 -6 38 -8v-32zM715 700l-483 -731l-44 29l482 730z" />
    <glyph glyph-name="threequarters" unicode="&#xbe;" horiz-adv-x="967" 
d="M758 700l-483 -731l-45 29l483 730zM187 687q-47 0 -47 -22q0 -2 9 -26q8 -16 8 -38t-14 -35t-40 -13t-41.5 16.5t-15.5 43.5q0 52 51.5 82t113.5 30q85 0 128 -25t43 -70q0 -78 -152 -115v-6q77 3 123.5 -23t46.5 -86q0 -65 -57 -104.5t-169 -39.5q-63 0 -106.5 28.5
t-43.5 81.5q0 25 15.5 42.5t41.5 17.5q24 0 37.5 -13t14.5 -33q2 -18 -5 -35q0 -2 -4 -10.5t-4 -14.5q0 -28 45 -28t65.5 26.5t20.5 84.5q0 39 -12.5 57.5t-45.5 18.5q-25 0 -48 -14l-13 -8l-18 32l36 21q60 33 81.5 54.5t21.5 61.5q0 61 -66 61zM562 179h122v156h-6z
M901 32v-32h-286v32q26 2 39 8q20 12 25 33q5 16 5 54v13h-168v40l204 272h99q15 0 15 -16q0 -4 -0.5 -25t-0.5 -32v-200h13q32 0 46 17q13 17 17 52h34v-177h-34q-4 34 -17 52q-11 17 -46 17h-13v-13q0 -37 4 -54q7 -22 26 -33q15 -7 38 -8z" />
    <glyph glyph-name="questiondown" unicode="&#xbf;" horiz-adv-x="493" 
d="M259 438q0 37 24 62t63 25q40 0 64 -25t24 -62q0 -36 -24.5 -61t-63.5 -25t-63 25t-24 61zM31 4q0 62 41.5 109t98 69t114.5 22h45v95h46v-137h-45q-118 0 -118 -219q0 -50 17.5 -79.5t47.5 -29.5t43 58q10 44 27.5 68t56.5 24q32 0 50.5 -20t18.5 -52q0 -48 -58 -81
t-135 -33q-82 0 -133 24q-117 54 -117 182z" />
    <glyph glyph-name="Agrave" unicode="&#xc0;" horiz-adv-x="737" 
d="M286 485l-81 -235h172l-81 235h-10zM237 40v-40h-238v40q27 3 46 14q23 13 41 40q15 21 41 95l188 513h113l180 -517q22 -64 46 -97q15 -24 44 -38q21 -9 34 -10v-40h-385v40q27 2 40 7q19 6 28 15.5t9 30.5q0 20 -25 93l-7 19h-203l-8 -24q-20 -56 -20 -79t8.5 -34.5
t26.5 -19.5q14 -6 41 -8zM484 788l-12 -33q-144 20 -187 28q-72 14 -72 67q0 28 18 45.5t44 17.5q16 0 32.5 -6.5t25.5 -12.5l35 -23z" />
    <glyph glyph-name="Aacute" unicode="&#xc1;" horiz-adv-x="737" 
d="M286 485l-81 -235h172l-81 235h-10zM237 40v-40h-238v40q27 3 46 14q23 13 41 40q15 21 41 95l188 513h113l180 -517q22 -64 46 -97q15 -24 44 -38q21 -9 34 -10v-40h-385v40q27 2 40 7q19 6 28 15.5t9 30.5q0 20 -25 93l-7 19h-203l-8 -24q-20 -56 -20 -79t8.5 -34.5
t26.5 -19.5q14 -6 41 -8zM258 788l115 83q52 35 75 40q9 2 19 2q26 0 44 -17.5t18 -45.5q0 -53 -73 -67q-47 -9 -187 -28z" />
    <glyph glyph-name="Acircumflex" unicode="&#xc2;" horiz-adv-x="737" 
d="M286 485l-81 -235h172l-81 235h-10zM237 40v-40h-238v40q27 3 46 14q23 13 41 40q15 21 41 95l188 513h113l180 -517q22 -64 46 -97q15 -24 44 -38q21 -9 34 -10v-40h-385v40q27 2 40 7q19 6 28 15.5t9 30.5q0 20 -25 93l-7 19h-203l-8 -24q-20 -56 -20 -79t8.5 -34.5
t26.5 -19.5q14 -6 41 -8zM523 783l-22 -30l-133 57l-132 -57l-21 30l111 112h85z" />
    <glyph glyph-name="Atilde" unicode="&#xc3;" horiz-adv-x="737" 
d="M286 485l-81 -235h172l-81 235h-10zM237 40v-40h-238v40q27 3 46 14q23 13 41 40q15 21 41 95l188 513h113l180 -517q22 -64 46 -97q15 -24 44 -38q21 -9 34 -10v-40h-385v40q27 2 40 7q19 6 28 15.5t9 30.5q0 20 -25 93l-7 19h-203l-8 -24q-20 -56 -20 -79t8.5 -34.5
t26.5 -19.5q14 -6 41 -8zM549 891q-30 -137 -115 -137q-20 0 -69 11.5t-68 11.5q-46 0 -61 -39l-36 10q13 54 40.5 93t71.5 39q24 0 72 -11t67 -11q28 0 42 8.5t21 32.5z" />
    <glyph glyph-name="Adieresis" unicode="&#xc4;" horiz-adv-x="737" 
d="M286 485l-81 -235h172l-81 235h-10zM237 40v-40h-238v40q27 3 46 14q23 13 41 40q15 21 41 95l188 513h113l180 -517q22 -64 46 -97q15 -24 44 -38q21 -9 34 -10v-40h-385v40q27 2 40 7q19 6 28 15.5t9 30.5q0 20 -25 93l-7 19h-203l-8 -24q-20 -56 -20 -79t8.5 -34.5
t26.5 -19.5q14 -6 41 -8zM266 750q-31 0 -52 20.5t-21 52.5q0 33 21 53.5t52 20.5t52 -20.5t21 -53.5q0 -32 -21 -52.5t-52 -20.5zM482 750q-31 0 -52 20.5t-21 52.5q0 33 21 53.5t52 20.5t52 -20.5t21 -53.5q0 -32 -21 -52.5t-52 -20.5z" />
    <glyph glyph-name="Aring" unicode="&#xc5;" horiz-adv-x="737" 
d="M286 485l-81 -235h172l-81 235h-10zM237 40v-40h-238v40q27 3 46 14q23 13 41 40q15 21 41 95l188 513h113l180 -517q22 -64 46 -97q15 -24 44 -38q21 -9 34 -10v-40h-385v40q27 2 40 7q19 6 28 15.5t9 30.5q0 20 -25 93l-7 19h-203l-8 -24q-20 -56 -20 -79t8.5 -34.5
t26.5 -19.5q14 -6 41 -8zM470 833q0 -40 -28 -67t-69 -27q-40 0 -68 27t-28 67q0 41 28 68t68 27q41 0 69 -27t28 -68zM319 833q0 -26 15 -42.5t39 -16.5q25 0 40 16.5t15 42.5q0 27 -15 43.5t-40 16.5q-24 0 -39 -16.5t-15 -43.5z" />
    <glyph glyph-name="AE" unicode="&#xc6;" horiz-adv-x="1005" 
d="M214 40v-40h-247v40q28 3 48 15q24 13 45 39q28 37 62 95l268 459l-13 4q-11 4 -38 6v40h582l38 -219h-39q-36 86 -85 131q-27 24 -59.5 34t-90.5 10h-30q-19 0 -26 -8t-7 -24v-240h26q73 0 95 28q28 34 34 93h40v-286h-40q-7 59 -35 94q-21 27 -94 27h-26v-194
q0 -59 17 -78q17 -22 60 -22h16q54 0 115 51q56 47 109 153h40l-46 -248h-594v40q27 2 38 6q38 12 50 51q10 32 10 92v71h-218l-48 -84q-31 -55 -31 -82q0 -35 35 -47q14 -5 39 -7zM437 626h-9l-183 -321h192v321z" />
    <glyph glyph-name="Ccedilla" unicode="&#xc7;" horiz-adv-x="698" 
d="M486 -126q0 -43 -38 -64.5t-96 -21.5q-64 0 -108 25l15 32q34 -19 66 -19q60 0 60 45q0 41 -36 41q-21 0 -34 -9l-36 19l29 70q-131 24 -204 120t-73 237q0 161 102.5 262.5t254.5 101.5q137 0 193 -77h6l27 59h33v-243h-40q-22 87 -66 142q-30 39 -63 57t-82 18
q-44 0 -76 -23q-93 -61 -93 -297q0 -86 15.5 -146t32 -83t40.5 -43q40 -34 107 -34q64 0 116.5 43.5t82.5 131.5l39 -12q-29 -101 -97 -161t-173 -60q-15 0 -41 2l-20 -45q24 10 55 10q45 0 73.5 -20t28.5 -58z" />
    <glyph glyph-name="Egrave" unicode="&#xc8;" horiz-adv-x="695" 
d="M669 248l-46 -248h-599v40q27 2 39 6q20 7 31.5 17.5t17.5 33.5q10 32 10 92v320q0 60 -10 92q-11 40 -49 51q-12 4 -39 6v40h588l37 -219h-39q-36 86 -85 131q-27 25 -59 34.5t-91 9.5h-35q-19 0 -26 -8t-7 -24v-240h26q73 0 95 28q28 34 34 93h40v-286h-40
q-7 59 -35 94q-21 27 -94 27h-26v-194q0 -57 17 -78q16 -22 60 -22h16q36 0 62.5 12.5t57.5 38.5q58 49 110 153h39zM491 788l-12 -33q-144 20 -187 28q-72 14 -72 67q0 28 18 45.5t44 17.5q16 0 32.5 -6.5t25.5 -12.5l35 -23z" />
    <glyph glyph-name="Eacute" unicode="&#xc9;" horiz-adv-x="695" 
d="M669 248l-46 -248h-599v40q27 2 39 6q20 7 31.5 17.5t17.5 33.5q10 32 10 92v320q0 60 -10 92q-11 40 -49 51q-12 4 -39 6v40h588l37 -219h-39q-36 86 -85 131q-27 25 -59 34.5t-91 9.5h-35q-19 0 -26 -8t-7 -24v-240h26q73 0 95 28q28 34 34 93h40v-286h-40
q-7 59 -35 94q-21 27 -94 27h-26v-194q0 -57 17 -78q16 -22 60 -22h16q36 0 62.5 12.5t57.5 38.5q58 49 110 153h39zM249 788l115 83q52 35 75 40q9 2 19 2q26 0 44 -17.5t18 -45.5q0 -53 -73 -67q-47 -9 -187 -28z" />
    <glyph glyph-name="Ecircumflex" unicode="&#xca;" horiz-adv-x="695" 
d="M669 248l-46 -248h-599v40q27 2 39 6q20 7 31.5 17.5t17.5 33.5q10 32 10 92v320q0 60 -10 92q-11 40 -49 51q-12 4 -39 6v40h588l37 -219h-39q-36 86 -85 131q-27 25 -59 34.5t-91 9.5h-35q-19 0 -26 -8t-7 -24v-240h26q73 0 95 28q28 34 34 93h40v-286h-40
q-7 59 -35 94q-21 27 -94 27h-26v-194q0 -57 17 -78q16 -22 60 -22h16q36 0 62.5 12.5t57.5 38.5q58 49 110 153h39zM501 783l-22 -30l-133 57l-132 -57l-21 30l111 112h85z" />
    <glyph glyph-name="Edieresis" unicode="&#xcb;" horiz-adv-x="695" 
d="M669 248l-46 -248h-599v40q27 2 39 6q20 7 31.5 17.5t17.5 33.5q10 32 10 92v320q0 60 -10 92q-11 40 -49 51q-12 4 -39 6v40h588l37 -219h-39q-36 86 -85 131q-27 25 -59 34.5t-91 9.5h-35q-19 0 -26 -8t-7 -24v-240h26q73 0 95 28q28 34 34 93h40v-286h-40
q-7 59 -35 94q-21 27 -94 27h-26v-194q0 -57 17 -78q16 -22 60 -22h16q36 0 62.5 12.5t57.5 38.5q58 49 110 153h39zM235 750q-31 0 -52 20.5t-21 52.5q0 33 21 53.5t52 20.5t52 -20.5t21 -53.5q0 -32 -21 -52.5t-52 -20.5zM451 750q-31 0 -52 20.5t-21 52.5q0 33 21 53.5
t52 20.5t52 -20.5t21 -53.5q0 -32 -21 -52.5t-52 -20.5z" />
    <glyph glyph-name="Igrave" unicode="&#xcc;" horiz-adv-x="429" 
d="M308 509v-320q0 -63 9 -92q12 -38 49 -51q14 -4 39 -6v-40h-381v40q27 2 39 6q20 7 31.5 17.5t17.5 33.5q10 32 10 92v320q0 60 -10 92q-11 40 -49 51q-12 4 -39 6v40h381v-40q-25 -2 -39 -6q-37 -11 -49 -51q-9 -29 -9 -92zM351 788l-12 -33q-144 20 -187 28
q-72 14 -72 67q0 28 18 45.5t44 17.5q16 0 32.5 -6.5t25.5 -12.5l35 -23z" />
    <glyph glyph-name="Iacute" unicode="&#xcd;" horiz-adv-x="429" 
d="M308 509v-320q0 -63 9 -92q12 -38 49 -51q14 -4 39 -6v-40h-381v40q27 2 39 6q20 7 31.5 17.5t17.5 33.5q10 32 10 92v320q0 60 -10 92q-11 40 -49 51q-12 4 -39 6v40h381v-40q-25 -2 -39 -6q-37 -11 -49 -51q-9 -29 -9 -92zM93 788l115 83q52 35 75 40q9 2 19 2
q26 0 44 -17.5t18 -45.5q0 -53 -73 -67q-47 -9 -187 -28z" />
    <glyph glyph-name="Icircumflex" unicode="&#xce;" horiz-adv-x="429" 
d="M308 509v-320q0 -63 9 -92q12 -38 49 -51q14 -4 39 -6v-40h-381v40q27 2 39 6q20 7 31.5 17.5t17.5 33.5q10 32 10 92v320q0 60 -10 92q-11 40 -49 51q-12 4 -39 6v40h381v-40q-25 -2 -39 -6q-37 -11 -49 -51q-9 -29 -9 -92zM374 783l-22 -30l-133 57l-132 -57l-21 30
l111 112h85z" />
    <glyph glyph-name="Idieresis" unicode="&#xcf;" horiz-adv-x="429" 
d="M308 509v-320q0 -63 9 -92q12 -38 49 -51q14 -4 39 -6v-40h-381v40q27 2 39 6q20 7 31.5 17.5t17.5 33.5q10 32 10 92v320q0 60 -10 92q-11 40 -49 51q-12 4 -39 6v40h381v-40q-25 -2 -39 -6q-37 -11 -49 -51q-9 -29 -9 -92zM108 750q-31 0 -52 20.5t-21 52.5
q0 33 21 53.5t52 20.5t52 -20.5t21 -53.5q0 -32 -21 -52.5t-52 -20.5zM324 750q-31 0 -52 20.5t-21 52.5q0 33 21 53.5t52 20.5t52 -20.5t21 -53.5q0 -32 -21 -52.5t-52 -20.5z" />
    <glyph glyph-name="Eth" unicode="&#xd0;" horiz-adv-x="791" 
d="M23 327v45h99v137q0 60 -10 92q-11 40 -49 51q-12 4 -39 6v40h355q119 0 205 -43q169 -86 169 -306q0 -213 -163 -303q-84 -46 -188 -46h-378v40q27 2 39 6q20 7 31.5 17.5t17.5 33.5q10 32 10 92v138h-99zM563 349q0 188 -69 263q-39 42 -116 42h-46q-15 0 -19 -5
q-5 -4 -5 -16v-261h140v-45h-140v-180q0 -61 16 -81q16 -22 61 -22h11q62 0 105 48q62 73 62 257z" />
    <glyph glyph-name="Ntilde" unicode="&#xd1;" horiz-adv-x="786" 
d="M676 -4h-107l-368 541h-8v-354q0 -78 15 -103q13 -22 43 -33q12 -4 38 -7v-40h-248v40q21 1 38 7q27 9 42 33q16 28 16 103v251q0 113 -23 159q-22 41 -59 58q-13 5 -34 8v39h304l288 -427h8v244q0 77 -16 104q-13 23 -42 32q-14 5 -39 8v39h249v-39q-30 -6 -37 -8
q-28 -8 -44 -34q-16 -25 -16 -102v-519zM600 891q-30 -137 -115 -137q-20 0 -69 11.5t-68 11.5q-46 0 -61 -39l-36 10q13 54 40.5 93t71.5 39q24 0 72 -11t67 -11q28 0 42 8.5t21 32.5z" />
    <glyph glyph-name="Ograve" unicode="&#xd2;" horiz-adv-x="756" 
d="M378 713q153 0 251 -101t98 -264q0 -162 -98 -262.5t-251 -100.5q-152 0 -250 101t-98 262q0 163 98 264t250 101zM378 29q43 0 71 20q39 26 59.5 92.5t20.5 207.5q0 140 -20.5 206.5t-59.5 93.5q-28 20 -71 20t-72 -20q-38 -27 -59 -94t-21 -206q0 -140 21 -207t59 -93
q29 -20 72 -20zM524 788l-12 -33q-144 20 -187 28q-72 14 -72 67q0 28 18 45.5t44 17.5q16 0 32.5 -6.5t25.5 -12.5l35 -23z" />
    <glyph glyph-name="Oacute" unicode="&#xd3;" horiz-adv-x="756" 
d="M378 713q153 0 251 -101t98 -264q0 -162 -98 -262.5t-251 -100.5q-152 0 -250 101t-98 262q0 163 98 264t250 101zM378 29q43 0 71 20q39 26 59.5 92.5t20.5 207.5q0 140 -20.5 206.5t-59.5 93.5q-28 20 -71 20t-72 -20q-38 -27 -59 -94t-21 -206q0 -140 21 -207t59 -93
q29 -20 72 -20zM272 788l115 83q52 35 75 40q9 2 19 2q26 0 44 -17.5t18 -45.5q0 -53 -73 -67q-47 -9 -187 -28z" />
    <glyph glyph-name="Ocircumflex" unicode="&#xd4;" horiz-adv-x="756" 
d="M378 713q153 0 251 -101t98 -264q0 -162 -98 -262.5t-251 -100.5q-152 0 -250 101t-98 262q0 163 98 264t250 101zM378 29q43 0 71 20q39 26 59.5 92.5t20.5 207.5q0 140 -20.5 206.5t-59.5 93.5q-28 20 -71 20t-72 -20q-38 -27 -59 -94t-21 -206q0 -140 21 -207t59 -93
q29 -20 72 -20zM531 783l-22 -30l-133 57l-132 -57l-21 30l111 112h85z" />
    <glyph glyph-name="Otilde" unicode="&#xd5;" horiz-adv-x="756" 
d="M378 713q153 0 251 -101t98 -264q0 -162 -98 -262.5t-251 -100.5q-152 0 -250 101t-98 262q0 163 98 264t250 101zM378 29q43 0 71 20q39 26 59.5 92.5t20.5 207.5q0 140 -20.5 206.5t-59.5 93.5q-28 20 -71 20t-72 -20q-38 -27 -59 -94t-21 -206q0 -140 21 -207t59 -93
q29 -20 72 -20zM561 891q-30 -137 -115 -137q-20 0 -69 11.5t-68 11.5q-46 0 -61 -39l-36 10q13 54 40.5 93t71.5 39q24 0 72 -11t67 -11q28 0 42 8.5t21 32.5z" />
    <glyph glyph-name="Odieresis" unicode="&#xd6;" horiz-adv-x="756" 
d="M378 713q153 0 251 -101t98 -264q0 -162 -98 -262.5t-251 -100.5q-152 0 -250 101t-98 262q0 163 98 264t250 101zM378 29q43 0 71 20q39 26 59.5 92.5t20.5 207.5q0 140 -20.5 206.5t-59.5 93.5q-28 20 -71 20t-72 -20q-38 -27 -59 -94t-21 -206q0 -140 21 -207t59 -93
q29 -20 72 -20zM266 750q-31 0 -52 20.5t-21 52.5q0 33 21 53.5t52 20.5t52 -20.5t21 -53.5q0 -32 -21 -52.5t-52 -20.5zM482 750q-31 0 -52 20.5t-21 52.5q0 33 21 53.5t52 20.5t52 -20.5t21 -53.5q0 -32 -21 -52.5t-52 -20.5z" />
    <glyph glyph-name="multiply" unicode="&#xd7;" horiz-adv-x="477" 
d="M384 122l-145 145l-146 -145l-36 37l145 145l-145 146l36 36l146 -145l145 145l37 -37l-145 -145l145 -145z" />
    <glyph glyph-name="Oslash" unicode="&#xd8;" horiz-adv-x="756" 
d="M226 349q0 -90 10 -157l258 404q-17 34 -45 53q-28 20 -71 20t-72 -20q-38 -27 -59 -94t-21 -206zM378 29q43 0 71 20q39 26 59.5 92.5t20.5 207.5q0 118 -16 188l-261 -410q18 -52 54 -78q29 -20 72 -20zM378 -15q-104 0 -185 49l-60 -94l-41 25l62 97
q-124 103 -124 286q0 163 98 264t250 101q92 0 166 -38l55 86l41 -25l-55 -86q67 -48 104.5 -126t37.5 -176q0 -162 -98 -262.5t-251 -100.5z" />
    <glyph glyph-name="Ugrave" unicode="&#xd9;" horiz-adv-x="780" 
d="M671 241q0 -103 -35 -162q-53 -94 -240 -94q-202 0 -261 113q-29 56 -29 163v260q0 58 -8 80q-13 42 -50 52q-12 3 -35 5v40h372v-40q-22 -2 -35 -5q-37 -10 -51 -52q-8 -25 -8 -80v-298q0 -69 19 -108q21 -42 53.5 -59t83.5 -17q108 0 144 67q25 45 25 129v280
q0 75 -16 104q-12 22 -42 32q-16 5 -39 7v40h249v-40q-27 -3 -39 -7q-28 -10 -43 -33q-15 -25 -15 -103v-274zM551 788l-12 -33q-144 20 -187 28q-72 14 -72 67q0 28 18 45.5t44 17.5q16 0 32.5 -6.5t25.5 -12.5l35 -23z" />
    <glyph glyph-name="Uacute" unicode="&#xda;" horiz-adv-x="780" 
d="M671 241q0 -103 -35 -162q-53 -94 -240 -94q-202 0 -261 113q-29 56 -29 163v260q0 58 -8 80q-13 42 -50 52q-12 3 -35 5v40h372v-40q-22 -2 -35 -5q-37 -10 -51 -52q-8 -25 -8 -80v-298q0 -69 19 -108q21 -42 53.5 -59t83.5 -17q108 0 144 67q25 45 25 129v280
q0 75 -16 104q-12 22 -42 32q-16 5 -39 7v40h249v-40q-27 -3 -39 -7q-28 -10 -43 -33q-15 -25 -15 -103v-274zM327 788l115 83q52 35 75 40q9 2 19 2q26 0 44 -17.5t18 -45.5q0 -53 -73 -67q-47 -9 -187 -28z" />
    <glyph glyph-name="Ucircumflex" unicode="&#xdb;" horiz-adv-x="780" 
d="M671 241q0 -103 -35 -162q-53 -94 -240 -94q-202 0 -261 113q-29 56 -29 163v260q0 58 -8 80q-13 42 -50 52q-12 3 -35 5v40h372v-40q-22 -2 -35 -5q-37 -10 -51 -52q-8 -25 -8 -80v-298q0 -69 19 -108q21 -42 53.5 -59t83.5 -17q108 0 144 67q25 45 25 129v280
q0 75 -16 104q-12 22 -42 32q-16 5 -39 7v40h249v-40q-27 -3 -39 -7q-28 -10 -43 -33q-15 -25 -15 -103v-274zM577 783l-22 -30l-133 57l-132 -57l-21 30l111 112h85z" />
    <glyph glyph-name="Udieresis" unicode="&#xdc;" horiz-adv-x="780" 
d="M671 241q0 -103 -35 -162q-53 -94 -240 -94q-202 0 -261 113q-29 56 -29 163v260q0 58 -8 80q-13 42 -50 52q-12 3 -35 5v40h372v-40q-22 -2 -35 -5q-37 -10 -51 -52q-8 -25 -8 -80v-298q0 -69 19 -108q21 -42 53.5 -59t83.5 -17q108 0 144 67q25 45 25 129v280
q0 75 -16 104q-12 22 -42 32q-16 5 -39 7v40h249v-40q-27 -3 -39 -7q-28 -10 -43 -33q-15 -25 -15 -103v-274zM288 750q-31 0 -52 20.5t-21 52.5q0 33 21 53.5t52 20.5t52 -20.5t21 -53.5q0 -32 -21 -52.5t-52 -20.5zM504 750q-31 0 -52 20.5t-21 52.5q0 33 21 53.5t52 20.5
t52 -20.5t21 -53.5q0 -32 -21 -52.5t-52 -20.5z" />
    <glyph glyph-name="Yacute" unicode="&#xdd;" horiz-adv-x="683" 
d="M249 291l-144 274q-27 51 -49 69t-63 24v40h370v-40q-28 -2 -41 -7q-51 -20 -8 -104l94 -184h9l87 164q29 52 29 88q0 26 -28 36q-12 4 -40 7v40h226v-40q-44 -7 -71 -35t-58 -89l-128 -243v-102q0 -63 9 -92q7 -23 18.5 -33.5t31.5 -17.5q13 -4 38 -6v-40h-381v40
q26 2 39 6q20 7 31.5 17.5t18.5 33.5q10 27 10 92v102zM292 788l115 83q52 35 75 40q9 2 19 2q26 0 44 -17.5t18 -45.5q0 -53 -73 -67q-47 -9 -187 -28z" />
    <glyph glyph-name="Thorn" unicode="&#xde;" horiz-adv-x="655" 
d="M405 40v-40h-381v40q27 2 39 6q20 7 31.5 17.5t17.5 33.5q10 32 10 92v320q0 60 -10 92q-11 40 -49 51q-12 4 -39 6v40h381v-40q-25 -2 -39 -6q-37 -11 -49 -51q-7 -19 -8 -63h77q255 0 255 -178q0 -49 -21.5 -87.5t-57.5 -59.5q-73 -42 -220 -42h-34q1 -50 9 -74
q12 -38 49 -51q14 -4 39 -6zM308 452v-236h34q68 0 98 41q21 30 21 104q0 69 -24.5 100t-74.5 31h-19q-21 0 -27 -9q-8 -10 -8 -31z" />
    <glyph glyph-name="germandbls" unicode="&#xdf;" horiz-adv-x="746" 
d="M727 169q0 -81 -52.5 -131.5t-150.5 -50.5q-36 0 -67.5 16.5t-47.5 41.5h-10l-16 -42h-31l-6 187h33q56 -166 145 -166q67 0 67 58q0 29 -20 45.5t-85 49.5q-37 19 -56 30.5t-43.5 33t-35.5 50t-11 66.5q0 36 18 67.5t34.5 45.5t51.5 40q28 20 40.5 46t12.5 69
q0 96 -113 96q-120 0 -120 -137v-453q0 -38 8 -57q6 -20 22 -29q7 -4 32 -9v-36h-308v36q23 2 35 10q17 9 27 32q7 18 7 67v314h-68v52h68v35q0 112 103 168q77 45 195 45t188 -32t70 -98q0 -23 -14 -42.5t-29 -29t-44 -24.5t-40 -22q-28 -19 -39 -32.5t-11 -35.5
q0 -32 24 -51t100 -55q37 -18 56.5 -29t41 -30.5t30.5 -45.5t9 -63z" />
    <glyph glyph-name="agrave" unicode="&#xe0;" horiz-adv-x="569" 
d="M556 19q-47 -32 -119 -32q-59 0 -83 20q-26 22 -31 59h-11q-14 -32 -52 -55.5t-89 -23.5q-60 0 -102.5 33t-42.5 96q0 60 38 95q34 34 127 59q56 14 80 25.5t32 27.5l2 97q0 34 -11.5 49t-37.5 15t-47 -24q-5 -9 -20 -60q-13 -59 -73 -59q-31 0 -49.5 16.5t-18.5 42.5
q0 29 21 56q58 69 193 69q107 0 163 -28.5t56 -97.5l-2 -262q0 -67 10 -81q9 -12 29 -12q14 0 26 7zM303 278q-7 -7 -43 -27q-36 -21 -44 -33q-24 -31 -24 -78q0 -79 52 -79q43 0 59 37v180zM389 596l-18 -32q-155 53 -174 61q-60 25 -60 72q0 27 16.5 42t40.5 15
q16 0 33 -8.5t26.5 -16.5t31.5 -29z" />
    <glyph glyph-name="aacute" unicode="&#xe1;" horiz-adv-x="569" 
d="M556 19q-47 -32 -119 -32q-59 0 -83 20q-26 22 -31 59h-11q-14 -32 -52 -55.5t-89 -23.5q-60 0 -102.5 33t-42.5 96q0 60 38 95q34 34 127 59q56 14 80 25.5t32 27.5l2 97q0 34 -11.5 49t-37.5 15t-47 -24q-5 -9 -20 -60q-13 -59 -73 -59q-31 0 -49.5 16.5t-18.5 42.5
q0 29 21 56q58 69 193 69q107 0 163 -28.5t56 -97.5l-2 -262q0 -67 10 -81q9 -12 29 -12q14 0 26 7zM303 278q-7 -7 -43 -27q-36 -21 -44 -33q-24 -31 -24 -78q0 -79 52 -79q43 0 59 37v180zM172 596l104 104q22 21 31.5 29t26.5 16.5t33 8.5q24 0 41 -15.5t17 -41.5
q0 -47 -61 -72q-17 -7 -174 -61z" />
    <glyph glyph-name="acircumflex" unicode="&#xe2;" horiz-adv-x="569" 
d="M556 19q-47 -32 -119 -32q-59 0 -83 20q-26 22 -31 59h-11q-14 -32 -52 -55.5t-89 -23.5q-60 0 -102.5 33t-42.5 96q0 60 38 95q34 34 127 59q56 14 80 25.5t32 27.5l2 97q0 34 -11.5 49t-37.5 15t-47 -24q-5 -9 -20 -60q-13 -59 -73 -59q-31 0 -49.5 16.5t-18.5 42.5
q0 29 21 56q58 69 193 69q107 0 163 -28.5t56 -97.5l-2 -262q0 -67 10 -81q9 -12 29 -12q14 0 26 7zM303 278q-7 -7 -43 -27q-36 -21 -44 -33q-24 -31 -24 -78q0 -79 52 -79q43 0 59 37v180zM420 589l-32 -28l-130 85l-130 -85l-30 28l122 143h77z" />
    <glyph glyph-name="atilde" unicode="&#xe3;" horiz-adv-x="569" 
d="M556 19q-47 -32 -119 -32q-59 0 -83 20q-26 22 -31 59h-11q-14 -32 -52 -55.5t-89 -23.5q-60 0 -102.5 33t-42.5 96q0 60 38 95q34 34 127 59q56 14 80 25.5t32 27.5l2 97q0 34 -11.5 49t-37.5 15t-47 -24q-5 -9 -20 -60q-13 -59 -73 -59q-31 0 -49.5 16.5t-18.5 42.5
q0 29 21 56q58 69 193 69q107 0 163 -28.5t56 -97.5l-2 -262q0 -67 10 -81q9 -12 29 -12q14 0 26 7zM303 278q-7 -7 -43 -27q-36 -21 -44 -33q-24 -31 -24 -78q0 -79 52 -79q43 0 59 37v180zM447 722q-30 -137 -115 -137q-21 0 -69.5 11.5t-67.5 11.5q-46 0 -62 -39l-35 10
q13 54 40.5 93t71.5 39q24 0 68 -11t63 -11q58 0 70 41z" />
    <glyph glyph-name="adieresis" unicode="&#xe4;" horiz-adv-x="569" 
d="M556 19q-47 -32 -119 -32q-59 0 -83 20q-26 22 -31 59h-11q-14 -32 -52 -55.5t-89 -23.5q-60 0 -102.5 33t-42.5 96q0 60 38 95q34 34 127 59q56 14 80 25.5t32 27.5l2 97q0 34 -11.5 49t-37.5 15t-47 -24q-5 -9 -20 -60q-13 -59 -73 -59q-31 0 -49.5 16.5t-18.5 42.5
q0 29 21 56q58 69 193 69q107 0 163 -28.5t56 -97.5l-2 -262q0 -67 10 -81q9 -12 29 -12q14 0 26 7zM303 278q-7 -7 -43 -27q-36 -21 -44 -33q-24 -31 -24 -78q0 -79 52 -79q43 0 59 37v180zM165 586q-31 0 -51 19.5t-20 51.5q0 31 20.5 51t50.5 20t50 -20t20 -51
q0 -32 -20 -51.5t-50 -19.5zM374 586q-31 0 -51 19.5t-20 51.5q0 31 20.5 51t50.5 20t50.5 -20t20.5 -51q0 -32 -20.5 -51.5t-50.5 -19.5z" />
    <glyph glyph-name="aring" unicode="&#xe5;" horiz-adv-x="569" 
d="M556 19q-47 -32 -119 -32q-59 0 -83 20q-26 22 -31 59h-11q-14 -32 -52 -55.5t-89 -23.5q-60 0 -102.5 33t-42.5 96q0 60 38 95q34 34 127 59q56 14 80 25.5t32 27.5l2 97q0 34 -11.5 49t-37.5 15t-47 -24q-5 -9 -20 -60q-13 -59 -73 -59q-31 0 -49.5 16.5t-18.5 42.5
q0 29 21 56q58 69 193 69q107 0 163 -28.5t56 -97.5l-2 -262q0 -67 10 -81q9 -12 29 -12q14 0 26 7zM303 278q-7 -7 -43 -27q-36 -21 -44 -33q-24 -31 -24 -78q0 -79 52 -79q43 0 59 37v180zM368 660q0 -44 -29 -71.5t-72 -27.5t-72 27.5t-29 71.5t29 72t72 28t72 -28
t29 -72zM208 660q0 -29 16 -46.5t43 -17.5t43 17.5t16 46.5q0 30 -16 47t-43 17t-43 -17t-16 -47z" />
    <glyph glyph-name="ae" unicode="&#xe6;" horiz-adv-x="817" 
d="M567 -13q-92 0 -168 53q-33 22 -53 64h-7q-45 -116 -169 -116q-58 0 -101 33t-43 95q0 59 37 96q33 32 128 59q96 23 112 52q0 1 1 48t1 50q0 63 -49 63q-28 0 -47 -24q-7 -10 -20 -60q-14 -58 -73 -58q-31 0 -49.5 16.5t-18.5 42.5q0 31 20 55q58 69 194 69
q100 0 152 -54h9q51 54 135 54q109 0 168.5 -60t59.5 -149q0 -44 -3 -56h-300q4 -153 49 -193q30 -29 77 -29q108 0 150 117l32 -12q-46 -156 -224 -156zM625 337q0 99 -21 128q-15 20 -43 20q-30 0 -45 -21q-28 -40 -32 -164h109q32 0 32 37zM303 278q-8 -9 -44 -27
q-36 -21 -44 -33q-23 -29 -23 -77q0 -80 51 -80q44 0 60 50v167z" />
    <glyph glyph-name="ccedilla" unicode="&#xe7;" horiz-adv-x="531" 
d="M429 -121q0 -43 -38 -64.5t-96 -21.5q-64 0 -108 25l15 32q34 -19 66 -19q60 0 60 45q0 41 -36 41q-21 0 -34 -9l-36 19l26 63q-73 11 -117 46q-104 81 -104 220q0 67 26 120.5t68 84.5t90 47.5t98 16.5q118 0 168 -48q30 -31 30 -73q0 -66 -64 -66q-35 0 -52.5 22
t-27.5 67q-6 32 -19.5 45t-34.5 13q-37 0 -56 -26q-40 -51 -41 -203q0 -144 52 -187q30 -24 69 -24q46 0 77 18.5t44.5 41t27.5 59.5l33 -12q-47 -165 -223 -165h-2l-18 -40q24 10 55 10q45 0 73.5 -20t28.5 -58z" />
    <glyph glyph-name="egrave" unicode="&#xe8;" horiz-adv-x="553" 
d="M527 143q-46 -156 -227 -156q-97 0 -170 51q-103 71 -103 219q0 66 23.5 119t62.5 84.5t85 48t95 16.5q110 0 171.5 -60.5t61.5 -148.5q0 -40 -4 -56h-308q2 -150 48 -194q31 -28 80 -28q111 0 153 117zM248 462q-32 -35 -34 -162h119q31 0 31 37q0 95 -21 126
q-15 20 -47 20q-30 0 -48 -21zM412 596l-18 -32q-155 53 -174 61q-60 25 -60 72q0 27 16.5 42t40.5 15q16 0 33 -8.5t26.5 -16.5t31.5 -29z" />
    <glyph glyph-name="eacute" unicode="&#xe9;" horiz-adv-x="553" 
d="M527 143q-46 -156 -227 -156q-97 0 -170 51q-103 71 -103 219q0 66 23.5 119t62.5 84.5t85 48t95 16.5q110 0 171.5 -60.5t61.5 -148.5q0 -40 -4 -56h-308q2 -150 48 -194q31 -28 80 -28q111 0 153 117zM248 462q-32 -35 -34 -162h119q31 0 31 37q0 95 -21 126
q-15 20 -47 20q-30 0 -48 -21zM180 596l104 104q22 21 31.5 29t26.5 16.5t33 8.5q24 0 41 -15.5t17 -41.5q0 -47 -61 -72q-17 -7 -174 -61z" />
    <glyph glyph-name="ecircumflex" unicode="&#xea;" horiz-adv-x="553" 
d="M527 143q-46 -156 -227 -156q-97 0 -170 51q-103 71 -103 219q0 66 23.5 119t62.5 84.5t85 48t95 16.5q110 0 171.5 -60.5t61.5 -148.5q0 -40 -4 -56h-308q2 -150 48 -194q31 -28 80 -28q111 0 153 117zM248 462q-32 -35 -34 -162h119q31 0 31 37q0 95 -21 126
q-15 20 -47 20q-30 0 -48 -21zM457 589l-32 -28l-130 85l-130 -85l-30 28l122 143h77z" />
    <glyph glyph-name="edieresis" unicode="&#xeb;" horiz-adv-x="553" 
d="M527 143q-46 -156 -227 -156q-97 0 -170 51q-103 71 -103 219q0 66 23.5 119t62.5 84.5t85 48t95 16.5q110 0 171.5 -60.5t61.5 -148.5q0 -40 -4 -56h-308q2 -150 48 -194q31 -28 80 -28q111 0 153 117zM248 462q-32 -35 -34 -162h119q31 0 31 37q0 95 -21 126
q-15 20 -47 20q-30 0 -48 -21zM181 586q-31 0 -51 19.5t-20 51.5q0 31 20.5 51t50.5 20t50 -20t20 -51q0 -32 -20 -51.5t-50 -19.5zM390 586q-31 0 -51 19.5t-20 51.5q0 31 20.5 51t50.5 20t50.5 -20t20.5 -51q0 -32 -20.5 -51.5t-50.5 -19.5z" />
    <glyph glyph-name="igrave" unicode="&#xec;" horiz-adv-x="351" 
d="M265 419v-273q0 -48 8 -68q8 -22 28 -32q13 -8 34 -10v-36h-316v36q23 2 35 10q19 11 27 32q7 18 7 68v220q0 50 -7 68q-7 19 -24 28q-18 10 -39 13v36h241q9 0 9 -10q-3 -63 -3 -82zM282 596l-18 -32q-155 53 -174 61q-60 25 -60 72q0 27 16.5 42t40.5 15q16 0 33 -8.5
t26.5 -16.5t31.5 -29z" />
    <glyph glyph-name="iacute" unicode="&#xed;" horiz-adv-x="351" 
d="M265 419v-273q0 -48 8 -68q8 -22 28 -32q13 -8 34 -10v-36h-316v36q23 2 35 10q19 11 27 32q7 18 7 68v220q0 50 -7 68q-7 19 -24 28q-18 10 -39 13v36h241q9 0 9 -10q-3 -63 -3 -82zM30 596l104 104q22 21 31.5 29t26.5 16.5t33 8.5q24 0 41 -15.5t17 -41.5
q0 -47 -61 -72q-17 -7 -174 -61z" />
    <glyph glyph-name="icircumflex" unicode="&#xee;" horiz-adv-x="351" 
d="M265 419v-273q0 -48 8 -68q8 -22 28 -32q13 -8 34 -10v-36h-316v36q23 2 35 10q19 11 27 32q7 18 7 68v220q0 50 -7 68q-7 19 -24 28q-18 10 -39 13v36h241q9 0 9 -10q-3 -63 -3 -82zM319 589l-32 -28l-130 85l-130 -85l-30 28l122 143h77z" />
    <glyph glyph-name="idieresis" unicode="&#xef;" horiz-adv-x="351" 
d="M265 419v-273q0 -48 8 -68q8 -22 28 -32q13 -8 34 -10v-36h-316v36q23 2 35 10q19 11 27 32q7 18 7 68v220q0 50 -7 68q-7 19 -24 28q-18 10 -39 13v36h241q9 0 9 -10q-3 -63 -3 -82zM55 586q-31 0 -51 19.5t-20 51.5q0 31 20.5 51t50.5 20t50 -20t20 -51
q0 -32 -20 -51.5t-50 -19.5zM264 586q-31 0 -51 19.5t-20 51.5q0 31 20.5 51t50.5 20t50.5 -20t20.5 -51q0 -32 -20.5 -51.5t-50.5 -19.5z" />
    <glyph glyph-name="eth" unicode="&#xf0;" horiz-adv-x="608" 
d="M303 -13q-115 0 -194.5 73.5t-79.5 195.5q0 123 75 196t185 73q48 0 71 -20h7q-19 60 -52 108l-121 -56l-5 42l101 46q-50 59 -128 104l41 9q98 -38 161 -78l138 63l5 -42l-105 -48q177 -135 177 -359q0 -132 -81 -219.5t-195 -87.5zM393 259q1 94 -8 138t-29 66
q-19 20 -53 20q-32 0 -50 -19q-20 -22 -29 -67t-9 -141t8.5 -141t29.5 -66q18 -21 50 -21t52 20q38 44 38 211z" />
    <glyph glyph-name="ntilde" unicode="&#xf1;" horiz-adv-x="679" 
d="M593 146q0 -52 7 -68q9 -23 29 -32q17 -9 34 -10v-36h-303v36q13 1 30 7q11 6 15.5 14.5t7.5 26.5q4 20 4 62v229q0 36 -17 55q-14 13 -41 13q-43 0 -71 -40q-23 -34 -23 -87v-170q0 -41 3 -62q5 -29 26 -41q11 -5 27 -7v-36h-302v36q22 2 35 10q20 10 28 32q7 21 7 68
v220q0 48 -7 68q-9 19 -24 28q-18 10 -40 13v36h229q10 0 10 -10q0 -6 -1 -32t-1 -40h12q24 37 58 60q55 36 111 36q75 0 117 -42q40 -37 40 -105v-232zM512 729q-30 -137 -115 -137q-21 0 -69.5 11.5t-67.5 11.5q-46 0 -62 -39l-35 10q13 54 40.5 93t71.5 39q24 0 68 -11
t63 -11q58 0 70 41z" />
    <glyph glyph-name="ograve" unicode="&#xf2;" horiz-adv-x="604" 
d="M27 256q0 122 80 195.5t195 73.5t195.5 -73.5t80.5 -195.5t-80.5 -195.5t-195.5 -73.5t-195 73.5t-80 195.5zM213 256q0 -99 9.5 -144.5t31.5 -65.5q20 -18 48 -18q30 0 48 18q22 21 31.5 66.5t9.5 143.5q0 99 -9.5 144t-31.5 66q-17 17 -48 17t-48 -17
q-22 -21 -31.5 -66t-9.5 -144zM423 596l-18 -32q-155 53 -174 61q-60 25 -60 72q0 27 16.5 42t40.5 15q16 0 33 -8.5t26.5 -16.5t31.5 -29z" />
    <glyph glyph-name="oacute" unicode="&#xf3;" horiz-adv-x="604" 
d="M27 256q0 122 80 195.5t195 73.5t195.5 -73.5t80.5 -195.5t-80.5 -195.5t-195.5 -73.5t-195 73.5t-80 195.5zM213 256q0 -99 9.5 -144.5t31.5 -65.5q20 -18 48 -18q30 0 48 18q22 21 31.5 66.5t9.5 143.5q0 99 -9.5 144t-31.5 66q-17 17 -48 17t-48 -17
q-22 -21 -31.5 -66t-9.5 -144zM178 596l104 104q22 21 31.5 29t26.5 16.5t33 8.5q24 0 41 -15.5t17 -41.5q0 -47 -61 -72q-17 -7 -174 -61z" />
    <glyph glyph-name="ocircumflex" unicode="&#xf4;" horiz-adv-x="604" 
d="M27 256q0 122 80 195.5t195 73.5t195.5 -73.5t80.5 -195.5t-80.5 -195.5t-195.5 -73.5t-195 73.5t-80 195.5zM213 256q0 -99 9.5 -144.5t31.5 -65.5q20 -18 48 -18q30 0 48 18q22 21 31.5 66.5t9.5 143.5q0 99 -9.5 144t-31.5 66q-17 17 -48 17t-48 -17
q-22 -21 -31.5 -66t-9.5 -144zM462 589l-32 -28l-130 85l-130 -85l-30 28l122 143h77z" />
    <glyph glyph-name="otilde" unicode="&#xf5;" horiz-adv-x="604" 
d="M27 256q0 122 80 195.5t195 73.5t195.5 -73.5t80.5 -195.5t-80.5 -195.5t-195.5 -73.5t-195 73.5t-80 195.5zM213 256q0 -99 9.5 -144.5t31.5 -65.5q20 -18 48 -18q30 0 48 18q22 21 31.5 66.5t9.5 143.5q0 99 -9.5 144t-31.5 66q-17 17 -48 17t-48 -17
q-22 -21 -31.5 -66t-9.5 -144zM482 729q-30 -137 -115 -137q-21 0 -69.5 11.5t-67.5 11.5q-46 0 -62 -39l-35 10q13 54 40.5 93t71.5 39q24 0 68 -11t63 -11q58 0 70 41z" />
    <glyph glyph-name="odieresis" unicode="&#xf6;" horiz-adv-x="604" 
d="M27 256q0 122 80 195.5t195 73.5t195.5 -73.5t80.5 -195.5t-80.5 -195.5t-195.5 -73.5t-195 73.5t-80 195.5zM213 256q0 -99 9.5 -144.5t31.5 -65.5q20 -18 48 -18q30 0 48 18q22 21 31.5 66.5t9.5 143.5q0 99 -9.5 144t-31.5 66q-17 17 -48 17t-48 -17
q-22 -21 -31.5 -66t-9.5 -144zM186 586q-31 0 -51 19.5t-20 51.5q0 31 20.5 51t50.5 20t50 -20t20 -51q0 -32 -20 -51.5t-50 -19.5zM395 586q-31 0 -51 19.5t-20 51.5q0 31 20.5 51t50.5 20t50.5 -20t20.5 -51q0 -32 -20.5 -51.5t-50.5 -19.5z" />
    <glyph glyph-name="divide" unicode="&#xf7;" horiz-adv-x="477" 
d="M315 455q0 -30 -21 -51.5t-53 -21.5q-31 0 -52.5 21.5t-21.5 51.5q0 31 21.5 53t52.5 22q32 0 53 -22t21 -53zM440 278h-403v51h403v-51zM315 151q0 -31 -21 -52.5t-53 -21.5q-31 0 -52.5 22t-21.5 52q0 31 21.5 52.5t52.5 21.5q32 0 53 -21t21 -53z" />
    <glyph glyph-name="oslash" unicode="&#xf8;" horiz-adv-x="604" 
d="M213 256q0 -88 7 -131l149 315q-8 15 -19 26q-17 17 -48 17t-48 -17q-22 -21 -31.5 -66t-9.5 -144zM302 28q30 0 48 18q22 21 31.5 66.5t9.5 143.5q0 76 -6 119l-146 -311q6 -10 15 -18q20 -18 48 -18zM302 -13q-46 0 -93 14l-43 -92l-39 18l43 90q-66 33 -104.5 94.5
t-38.5 144.5q0 122 80 195.5t195 73.5q49 0 99 -16l44 93l39 -17l-44 -93q63 -33 100.5 -94t37.5 -142q0 -122 -80.5 -195.5t-195.5 -73.5z" />
    <glyph glyph-name="ugrave" unicode="&#xf9;" horiz-adv-x="677" 
d="M585 145q0 -45 9 -67q9 -23 27 -32q22 -9 36 -10v-36h-225q-11 0 -11 11v70h-10q-19 -39 -49 -61q-42 -32 -105 -32q-85 0 -125 37q-47 47 -47 128v214q0 48 -8 68q-9 21 -23 29q-13 7 -40 11v36h240q10 0 10 -11q-2 -42 -2 -82v-273q0 -50 13 -67q15 -23 47 -23
q35 0 61 38q16 22 22 56q4 24 4 57v161q0 51 -8 68q-9 22 -24 29q-13 7 -40 11v36h241q10 0 10 -11q-3 -32 -3 -82v-273zM427 596l-18 -32q-155 53 -174 61q-60 25 -60 72q0 27 16.5 42t40.5 15q16 0 33 -8.5t26.5 -16.5t31.5 -29z" />
    <glyph glyph-name="uacute" unicode="&#xfa;" horiz-adv-x="677" 
d="M585 145q0 -45 9 -67q9 -23 27 -32q22 -9 36 -10v-36h-225q-11 0 -11 11v70h-10q-19 -39 -49 -61q-42 -32 -105 -32q-85 0 -125 37q-47 47 -47 128v214q0 48 -8 68q-9 21 -23 29q-13 7 -40 11v36h240q10 0 10 -11q-2 -42 -2 -82v-273q0 -50 13 -67q15 -23 47 -23
q35 0 61 38q16 22 22 56q4 24 4 57v161q0 51 -8 68q-9 22 -24 29q-13 7 -40 11v36h241q10 0 10 -11q-3 -32 -3 -82v-273zM214 596l104 104q22 21 31.5 29t26.5 16.5t33 8.5q24 0 41 -15.5t17 -41.5q0 -47 -61 -72q-17 -7 -174 -61z" />
    <glyph glyph-name="ucircumflex" unicode="&#xfb;" horiz-adv-x="677" 
d="M585 145q0 -45 9 -67q9 -23 27 -32q22 -9 36 -10v-36h-225q-11 0 -11 11v70h-10q-19 -39 -49 -61q-42 -32 -105 -32q-85 0 -125 37q-47 47 -47 128v214q0 48 -8 68q-9 21 -23 29q-13 7 -40 11v36h240q10 0 10 -11q-2 -42 -2 -82v-273q0 -50 13 -67q15 -23 47 -23
q35 0 61 38q16 22 22 56q4 24 4 57v161q0 51 -8 68q-9 22 -24 29q-13 7 -40 11v36h241q10 0 10 -11q-3 -32 -3 -82v-273zM477 589l-32 -28l-130 85l-130 -85l-30 28l122 143h77z" />
    <glyph glyph-name="udieresis" unicode="&#xfc;" horiz-adv-x="677" 
d="M585 145q0 -45 9 -67q9 -23 27 -32q22 -9 36 -10v-36h-225q-11 0 -11 11v70h-10q-19 -39 -49 -61q-42 -32 -105 -32q-85 0 -125 37q-47 47 -47 128v214q0 48 -8 68q-9 21 -23 29q-13 7 -40 11v36h240q10 0 10 -11q-2 -42 -2 -82v-273q0 -50 13 -67q15 -23 47 -23
q35 0 61 38q16 22 22 56q4 24 4 57v161q0 51 -8 68q-9 22 -24 29q-13 7 -40 11v36h241q10 0 10 -11q-3 -32 -3 -82v-273zM204 586q-31 0 -51 19.5t-20 51.5q0 31 20.5 51t50.5 20t50 -20t20 -51q0 -32 -20 -51.5t-50 -19.5zM413 586q-31 0 -51 19.5t-20 51.5q0 31 20.5 51
t50.5 20t50.5 -20t20.5 -51q0 -32 -20.5 -51.5t-50.5 -19.5z" />
    <glyph glyph-name="yacute" unicode="&#xfd;" horiz-adv-x="571" 
d="M326 -23q-22 -57 -38 -83t-39 -49q-48 -48 -121 -48q-47 0 -76.5 22.5t-29.5 64.5q0 26 18.5 46.5t48.5 20.5q49 0 70 -51q11 -21 13 -24q8 -11 23 -11q25 0 48 47q15 32 15 52q0 14 -7 31l-149 361l-30 69q-16 29 -31 38q-15 10 -35 12v36h329v-36q-23 -2 -38 -8
q-21 -10 -21 -36q0 -24 17 -71l62 -168h10l64 166q19 49 19 73t-19 36q-13 6 -35 8v36h179v-36q-15 -1 -34 -11q-17 -11 -28 -27q-12 -17 -37 -84zM207 596l104 104q22 21 31.5 29t26.5 16.5t33 8.5q24 0 41 -15.5t17 -41.5q0 -47 -61 -72q-17 -7 -174 -61z" />
    <glyph glyph-name="thorn" unicode="&#xfe;" horiz-adv-x="650" 
d="M434 255q0 115 -22 163t-64 48q-39 0 -64 -39q-26 -38 -26 -101v-148q0 -70 22 -107q25 -39 64 -39q48 0 69 51t21 172zM337 -164v-36h-327v36q21 2 36 10q18 9 28 32q7 21 7 68v661q0 52 -7 72q-11 20 -24 28q-18 10 -40 13v36h239q10 0 10 -10v-283h9q41 61 135 61
q86 0 151.5 -67t65.5 -201q0 -129 -73.5 -199t-185.5 -70q-27 0 -53.5 10.5t-41.5 25.5h-7v-77q0 -48 8 -68q10 -23 28 -32q12 -8 42 -10z" />
    <glyph glyph-name="ydieresis" unicode="&#xff;" horiz-adv-x="571" 
d="M326 -23q-22 -57 -38 -83t-39 -49q-48 -48 -121 -48q-47 0 -76.5 22.5t-29.5 64.5q0 26 18.5 46.5t48.5 20.5q49 0 70 -51q11 -21 13 -24q8 -11 23 -11q25 0 48 47q15 32 15 52q0 14 -7 31l-149 361l-30 69q-16 29 -31 38q-15 10 -35 12v36h329v-36q-23 -2 -38 -8
q-21 -10 -21 -36q0 -24 17 -71l62 -168h10l64 166q19 49 19 73t-19 36q-13 6 -35 8v36h179v-36q-15 -1 -34 -11q-17 -11 -28 -27q-12 -17 -37 -84zM414 586q-31 0 -51 19.5t-20 51.5q0 31 20.5 51t50.5 20t50.5 -20t20.5 -51q0 -32 -20.5 -51.5t-50.5 -19.5zM205 586
q-31 0 -51 19.5t-20 51.5q0 31 20.5 51t50.5 20t50 -20t20 -51q0 -32 -20 -51.5t-50 -19.5z" />
    <glyph glyph-name="Amacron" unicode="&#x100;" horiz-adv-x="737" 
d="M286 485l-81 -235h172l-81 235h-10zM237 40v-40h-238v40q27 3 46 14q23 13 41 40q15 21 41 95l188 513h113l180 -517q22 -64 46 -97q15 -24 44 -38q21 -9 34 -10v-40h-385v40q27 2 40 7q19 6 28 15.5t9 30.5q0 20 -25 93l-7 19h-203l-8 -24q-20 -56 -20 -79t8.5 -34.5
t26.5 -19.5q14 -6 41 -8zM506 776h-273v71h273v-71z" />
    <glyph glyph-name="amacron" unicode="&#x101;" horiz-adv-x="569" 
d="M556 19q-47 -32 -119 -32q-59 0 -83 20q-26 22 -31 59h-11q-14 -32 -52 -55.5t-89 -23.5q-60 0 -102.5 33t-42.5 96q0 60 38 95q34 34 127 59q56 14 80 25.5t32 27.5l2 97q0 34 -11.5 49t-37.5 15t-47 -24q-5 -9 -20 -60q-13 -59 -73 -59q-31 0 -49.5 16.5t-18.5 42.5
q0 29 21 56q58 69 193 69q107 0 163 -28.5t56 -97.5l-2 -262q0 -67 10 -81q9 -12 29 -12q14 0 26 7zM303 278q-7 -7 -43 -27q-36 -21 -44 -33q-24 -31 -24 -78q0 -79 52 -79q43 0 59 37v180zM409 606h-266v70h266v-70z" />
    <glyph glyph-name="Abreve" unicode="&#x102;" horiz-adv-x="737" 
d="M286 485l-81 -235h172l-81 235h-10zM237 40v-40h-238v40q27 3 46 14q23 13 41 40q15 21 41 95l188 513h113l180 -517q22 -64 46 -97q15 -24 44 -38q21 -9 34 -10v-40h-385v40q27 2 40 7q19 6 28 15.5t9 30.5q0 20 -25 93l-7 19h-203l-8 -24q-20 -56 -20 -79t8.5 -34.5
t26.5 -19.5q14 -6 41 -8zM373 750q-58 0 -95.5 37.5t-45.5 106.5l41 11q30 -65 100 -65q38 0 61.5 15.5t38.5 49.5l41 -11q-8 -69 -45.5 -106.5t-95.5 -37.5z" />
    <glyph glyph-name="abreve" unicode="&#x103;" horiz-adv-x="569" 
d="M556 19q-47 -32 -119 -32q-59 0 -83 20q-26 22 -31 59h-11q-14 -32 -52 -55.5t-89 -23.5q-60 0 -102.5 33t-42.5 96q0 60 38 95q34 34 127 59q56 14 80 25.5t32 27.5l2 97q0 34 -11.5 49t-37.5 15t-47 -24q-5 -9 -20 -60q-13 -59 -73 -59q-31 0 -49.5 16.5t-18.5 42.5
q0 29 21 56q58 69 193 69q107 0 163 -28.5t56 -97.5l-2 -262q0 -67 10 -81q9 -12 29 -12q14 0 26 7zM303 278q-7 -7 -43 -27q-36 -21 -44 -33q-24 -31 -24 -78q0 -79 52 -79q43 0 59 37v180zM273 567q-58 0 -96 41.5t-43 109.5l41 11q16 -38 38 -54t60 -16q39 0 60.5 15.5
t37.5 54.5l41 -11q-5 -68 -43 -109.5t-96 -41.5z" />
    <glyph glyph-name="Aogonek" unicode="&#x104;" horiz-adv-x="737" 
d="M436 79l-44 126h-203l-8 -24q-20 -56 -20 -79t8.5 -34.5t26.5 -19.5q14 -6 41 -8v-40h-238v40q27 3 46 14q23 13 41 40q15 21 41 95l188 513h113l180 -517q22 -64 46 -97q15 -24 44 -38q21 -9 34 -10v-40h-171q-45 0 -72 -24q-31 -27 -31 -84q0 -60 81 -68v-40
q-94 -5 -151 18.5t-57 71.5q0 58 71 99q46 26 46 55q0 15 -12 51zM286 485l-81 -235h172l-81 235h-10z" />
    <glyph glyph-name="aogonek" unicode="&#x105;" horiz-adv-x="569" 
d="M524 -216q-94 -5 -151 18.5t-57 71.5q0 35 26 60t75 47v10q-47 4 -63 19q-27 22 -31 56h-11q-14 -32 -52 -55.5t-89 -23.5q-60 0 -102.5 33t-42.5 96q0 60 38 95q34 34 127 59q56 14 80 25.5t32 27.5l2 97q0 34 -11.5 49t-37.5 15t-47 -24q-5 -9 -20 -60q-13 -59 -73 -59
q-31 0 -49.5 16.5t-18.5 42.5q0 29 21 56q58 69 193 69q107 0 163 -28.5t56 -97.5l-2 -262q0 -67 10 -81q9 -12 29 -12q14 0 26 7l12 -32q-4 -3 -44 -22q-70 -34 -70 -106q0 -59 82 -67v-40zM303 278q-7 -7 -43 -27q-36 -21 -44 -33q-24 -31 -24 -78q0 -79 52 -79
q43 0 59 37v180z" />
    <glyph glyph-name="Cacute" unicode="&#x106;" horiz-adv-x="698" 
d="M396 669q-44 0 -76 -23q-93 -61 -93 -297q0 -86 15.5 -146t32 -83t40.5 -43q40 -34 107 -34q64 0 116.5 43.5t82.5 131.5l39 -12q-29 -101 -97 -161t-173 -60q-168 0 -263.5 101t-95.5 263q0 161 102.5 262.5t254.5 101.5q137 0 193 -77h6l27 59h33v-243h-40
q-22 87 -66 142q-30 39 -63 57t-82 18zM260 788l115 83q52 35 75 40q9 2 19 2q26 0 44 -17.5t18 -45.5q0 -53 -73 -67q-47 -9 -187 -28z" />
    <glyph glyph-name="cacute" unicode="&#x107;" horiz-adv-x="531" 
d="M309 485q-37 0 -56 -26q-40 -51 -41 -203q0 -144 52 -187q30 -24 69 -24q46 0 77 18.5t44.5 41t27.5 59.5l33 -12q-47 -165 -223 -165q-99 0 -161 49q-104 81 -104 220q0 67 26 120.5t68 84.5t90 47.5t98 16.5q118 0 168 -48q30 -31 30 -73q0 -66 -64 -66q-35 0 -52.5 22
t-27.5 67q-6 32 -19.5 45t-34.5 13zM205 596l104 104q22 21 31.5 29t26.5 16.5t33 8.5q24 0 41 -15.5t17 -41.5q0 -47 -61 -72q-17 -7 -174 -61z" />
    <glyph glyph-name="Ccircumflex" unicode="&#x108;" horiz-adv-x="698" 
d="M396 669q-44 0 -76 -23q-93 -61 -93 -297q0 -86 15.5 -146t32 -83t40.5 -43q40 -34 107 -34q64 0 116.5 43.5t82.5 131.5l39 -12q-29 -101 -97 -161t-173 -60q-168 0 -263.5 101t-95.5 263q0 161 102.5 262.5t254.5 101.5q137 0 193 -77h6l27 59h33v-243h-40
q-22 87 -66 142q-30 39 -63 57t-82 18zM538 783l-22 -30l-133 57l-132 -57l-21 30l111 112h85z" />
    <glyph glyph-name="ccircumflex" unicode="&#x109;" horiz-adv-x="531" 
d="M309 485q-37 0 -56 -26q-40 -51 -41 -203q0 -144 52 -187q30 -24 69 -24q46 0 77 18.5t44.5 41t27.5 59.5l33 -12q-47 -165 -223 -165q-99 0 -161 49q-104 81 -104 220q0 67 26 120.5t68 84.5t90 47.5t98 16.5q118 0 168 -48q30 -31 30 -73q0 -66 -64 -66q-35 0 -52.5 22
t-27.5 67q-6 32 -19.5 45t-34.5 13zM454 589l-32 -28l-130 85l-130 -85l-30 28l122 143h77z" />
    <glyph glyph-name="Cdotaccent" unicode="&#x10a;" horiz-adv-x="698" 
d="M396 669q-44 0 -76 -23q-93 -61 -93 -297q0 -86 15.5 -146t32 -83t40.5 -43q40 -34 107 -34q64 0 116.5 43.5t82.5 131.5l39 -12q-29 -101 -97 -161t-173 -60q-168 0 -263.5 101t-95.5 263q0 161 102.5 262.5t254.5 101.5q137 0 193 -77h6l27 59h33v-243h-40
q-22 87 -66 142q-30 39 -63 57t-82 18zM390 743q-41 0 -68.5 26.5t-27.5 64.5t27.5 65t68.5 27q40 0 67 -27t27 -65t-26.5 -64.5t-67.5 -26.5z" />
    <glyph glyph-name="cdotaccent" unicode="&#x10b;" horiz-adv-x="531" 
d="M309 485q-37 0 -56 -26q-40 -51 -41 -203q0 -144 52 -187q30 -24 69 -24q46 0 77 18.5t44.5 41t27.5 59.5l33 -12q-47 -165 -223 -165q-99 0 -161 49q-104 81 -104 220q0 67 26 120.5t68 84.5t90 47.5t98 16.5q118 0 168 -48q30 -31 30 -73q0 -66 -64 -66q-35 0 -52.5 22
t-27.5 67q-6 32 -19.5 45t-34.5 13zM298 573q-41 0 -67.5 26.5t-26.5 64.5t27 64.5t67 26.5q39 0 65.5 -26.5t26.5 -64.5t-26 -64.5t-66 -26.5z" />
    <glyph glyph-name="Ccaron" unicode="&#x10c;" horiz-adv-x="698" 
d="M396 669q-44 0 -76 -23q-93 -61 -93 -297q0 -86 15.5 -146t32 -83t40.5 -43q40 -34 107 -34q64 0 116.5 43.5t82.5 131.5l39 -12q-29 -101 -97 -161t-173 -60q-168 0 -263.5 101t-95.5 263q0 161 102.5 262.5t254.5 101.5q137 0 193 -77h6l27 59h33v-243h-40
q-22 87 -66 142q-30 39 -63 57t-82 18zM538 865l-112 -112h-85l-111 112l21 30l132 -57l133 57z" />
    <glyph glyph-name="ccaron" unicode="&#x10d;" horiz-adv-x="531" 
d="M309 485q-37 0 -56 -26q-40 -51 -41 -203q0 -144 52 -187q30 -24 69 -24q46 0 77 18.5t44.5 41t27.5 59.5l33 -12q-47 -165 -223 -165q-99 0 -161 49q-104 81 -104 220q0 67 26 120.5t68 84.5t90 47.5t98 16.5q118 0 168 -48q30 -31 30 -73q0 -66 -64 -66q-35 0 -52.5 22
t-27.5 67q-6 32 -19.5 45t-34.5 13zM456 706l-123 -144h-77l-122 144l30 27l130 -85l130 85z" />
    <glyph glyph-name="Dcaron" unicode="&#x10e;" horiz-adv-x="791" 
d="M24 698h355q119 0 205 -43q169 -86 169 -306q0 -213 -163 -303q-84 -46 -188 -46h-378v40q27 2 39 6q20 7 31.5 17.5t17.5 33.5q10 32 10 92v320q0 60 -10 92q-11 40 -49 51q-12 4 -39 6v40zM563 349q0 188 -69 263q-39 42 -116 42h-46q-15 0 -19 -5q-5 -4 -5 -16v-486
q0 -61 16 -81q16 -22 61 -22h11q62 0 105 48q62 73 62 257zM524 865l-112 -112h-85l-111 112l21 30l132 -57l133 57z" />
    <glyph glyph-name="dcaron" unicode="&#x10f;" horiz-adv-x="645" 
d="M383 142v220q0 58 -19 86q-18 28 -58 28q-44 0 -69.5 -57.5t-25.5 -162.5q0 -212 92 -212q34 0 57 30.5t23 67.5zM631 0h-223q-9 0 -10 7q-1 10 -1 24v35h-11q-17 -37 -55 -58t-90 -21q-90 0 -152 71.5t-62 197.5q0 122 73.5 195.5t171.5 73.5q74 0 104 -41h7v135
q0 44 -9 61q-9 20 -26 29q-14 9 -43 11v36h250q10 0 10 -10q-5 -105 -5 -110v-492q0 -43 8 -67q10 -22 28 -31q17 -9 35 -11v-35zM613 543l27 221h118l-106 -221h-39z" />
    <glyph glyph-name="Dcroat" unicode="&#x110;" horiz-adv-x="791" 
d="M23 327v45h99v137q0 60 -10 92q-11 40 -49 51q-12 4 -39 6v40h355q119 0 205 -43q169 -86 169 -306q0 -213 -163 -303q-84 -46 -188 -46h-378v40q27 2 39 6q20 7 31.5 17.5t17.5 33.5q10 32 10 92v138h-99zM563 349q0 188 -69 263q-39 42 -116 42h-46q-15 0 -19 -5
q-5 -4 -5 -16v-261h140v-45h-140v-180q0 -61 16 -81q16 -22 61 -22h11q62 0 105 48q62 73 62 257z" />
    <glyph glyph-name="dcroat" unicode="&#x111;" horiz-adv-x="645" 
d="M226 593v48h156q-1 26 -8 39q-9 20 -26 29q-14 9 -43 11v36h250q10 0 10 -10q-5 -100 -5 -105h78v-48h-78v-449q0 -43 8 -67q10 -22 28 -31q17 -9 35 -11v-35h-223q-9 0 -10 7q-1 10 -1 24v35h-11q-17 -37 -55 -58t-90 -21q-90 0 -152 71.5t-62 197.5q0 122 73.5 195.5
t171.5 73.5q74 0 104 -41h7v109h-157zM383 142v220q0 58 -19 86q-18 28 -58 28q-44 0 -69.5 -57.5t-25.5 -162.5q0 -212 92 -212q34 0 57 30.5t23 67.5z" />
    <glyph glyph-name="Emacron" unicode="&#x112;" horiz-adv-x="695" 
d="M669 248l-46 -248h-599v40q27 2 39 6q20 7 31.5 17.5t17.5 33.5q10 32 10 92v320q0 60 -10 92q-11 40 -49 51q-12 4 -39 6v40h588l37 -219h-39q-36 86 -85 131q-27 25 -59 34.5t-91 9.5h-35q-19 0 -26 -8t-7 -24v-240h26q73 0 95 28q28 34 34 93h40v-286h-40
q-7 59 -35 94q-21 27 -94 27h-26v-194q0 -57 17 -78q16 -22 60 -22h16q36 0 62.5 12.5t57.5 38.5q58 49 110 153h39zM497 776h-273v71h273v-71z" />
    <glyph glyph-name="emacron" unicode="&#x113;" horiz-adv-x="553" 
d="M527 143q-46 -156 -227 -156q-97 0 -170 51q-103 71 -103 219q0 66 23.5 119t62.5 84.5t85 48t95 16.5q110 0 171.5 -60.5t61.5 -148.5q0 -40 -4 -56h-308q2 -150 48 -194q31 -28 80 -28q111 0 153 117zM248 462q-32 -35 -34 -162h119q31 0 31 37q0 95 -21 126
q-15 20 -47 20q-30 0 -48 -21zM425 606h-266v70h266v-70z" />
    <glyph glyph-name="Ebreve" unicode="&#x114;" horiz-adv-x="695" 
d="M669 248l-46 -248h-599v40q27 2 39 6q20 7 31.5 17.5t17.5 33.5q10 32 10 92v320q0 60 -10 92q-11 40 -49 51q-12 4 -39 6v40h588l37 -219h-39q-36 86 -85 131q-27 25 -59 34.5t-91 9.5h-35q-19 0 -26 -8t-7 -24v-240h26q73 0 95 28q28 34 34 93h40v-286h-40
q-7 59 -35 94q-21 27 -94 27h-26v-194q0 -57 17 -78q16 -22 60 -22h16q36 0 62.5 12.5t57.5 38.5q58 49 110 153h39zM361 750q-58 0 -95.5 37.5t-45.5 106.5l41 11q30 -65 100 -65q38 0 61.5 15.5t38.5 49.5l41 -11q-8 -69 -45.5 -106.5t-95.5 -37.5z" />
    <glyph glyph-name="ebreve" unicode="&#x115;" horiz-adv-x="553" 
d="M527 143q-46 -156 -227 -156q-97 0 -170 51q-103 71 -103 219q0 66 23.5 119t62.5 84.5t85 48t95 16.5q110 0 171.5 -60.5t61.5 -148.5q0 -40 -4 -56h-308q2 -150 48 -194q31 -28 80 -28q111 0 153 117zM248 462q-32 -35 -34 -162h119q31 0 31 37q0 95 -21 126
q-15 20 -47 20q-30 0 -48 -21zM291 567q-58 0 -96 41.5t-43 109.5l41 11q16 -38 38 -54t60 -16q39 0 60.5 15.5t37.5 54.5l41 -11q-5 -68 -43 -109.5t-96 -41.5z" />
    <glyph glyph-name="Edotaccent" unicode="&#x116;" horiz-adv-x="695" 
d="M669 248l-46 -248h-599v40q27 2 39 6q20 7 31.5 17.5t17.5 33.5q10 32 10 92v320q0 60 -10 92q-11 40 -49 51q-12 4 -39 6v40h588l37 -219h-39q-36 86 -85 131q-27 25 -59 34.5t-91 9.5h-35q-19 0 -26 -8t-7 -24v-240h26q73 0 95 28q28 34 34 93h40v-286h-40
q-7 59 -35 94q-21 27 -94 27h-26v-194q0 -57 17 -78q16 -22 60 -22h16q36 0 62.5 12.5t57.5 38.5q58 49 110 153h39zM360 743q-41 0 -68.5 26.5t-27.5 64.5t27.5 65t68.5 27q40 0 67 -27t27 -65t-26.5 -64.5t-67.5 -26.5z" />
    <glyph glyph-name="edotaccent" unicode="&#x117;" horiz-adv-x="553" 
d="M527 143q-46 -156 -227 -156q-97 0 -170 51q-103 71 -103 219q0 66 23.5 119t62.5 84.5t85 48t95 16.5q110 0 171.5 -60.5t61.5 -148.5q0 -40 -4 -56h-308q2 -150 48 -194q31 -28 80 -28q111 0 153 117zM248 462q-32 -35 -34 -162h119q31 0 31 37q0 95 -21 126
q-15 20 -47 20q-30 0 -48 -21zM293 566q-41 0 -67.5 26.5t-26.5 64.5t27 64.5t67 26.5q39 0 65.5 -26.5t26.5 -64.5t-26 -64.5t-66 -26.5z" />
    <glyph glyph-name="Eogonek" unicode="&#x118;" horiz-adv-x="695" 
d="M499 0h-475v40q27 2 39 6q20 7 31.5 17.5t17.5 33.5q10 32 10 92v320q0 60 -10 92q-11 40 -49 51q-12 4 -39 6v40h588l37 -219h-39q-36 86 -85 131q-27 25 -59 34.5t-91 9.5h-35q-19 0 -26 -8t-7 -24v-240h26q73 0 95 28q28 34 34 93h40v-286h-40q-7 59 -35 94
q-21 27 -94 27h-26v-194q0 -57 17 -78q16 -22 60 -22h16q36 0 62.5 12.5t57.5 38.5q58 49 110 153h39l-46 -248h-71q-30 -30 -43.5 -53.5t-13.5 -55.5q0 -59 82 -67v-40q-95 -5 -152 18.5t-57 71.5q0 78 131 126z" />
    <glyph glyph-name="eogonek" unicode="&#x119;" horiz-adv-x="553" 
d="M449 -216q-94 -5 -151 18.5t-57 71.5q0 21 10 38.5t31.5 33.5t38.5 25.5t48 24.5q-30 -9 -69 -9q-97 0 -170 51q-103 71 -103 219q0 66 23.5 119t62.5 84.5t85 48t95 16.5q110 0 171.5 -60.5t61.5 -148.5q0 -40 -4 -56h-308v-22q5 -132 48 -172q31 -28 80 -28
q111 0 153 117l32 -12q-21 -72 -74 -116q-86 -67 -86 -135q0 -60 82 -68v-40zM248 462q-29 -34 -34 -162h119q31 0 31 37q0 95 -21 126q-15 20 -47 20q-30 0 -48 -21z" />
    <glyph glyph-name="Ecaron" unicode="&#x11a;" horiz-adv-x="695" 
d="M669 248l-46 -248h-599v40q27 2 39 6q20 7 31.5 17.5t17.5 33.5q10 32 10 92v320q0 60 -10 92q-11 40 -49 51q-12 4 -39 6v40h588l37 -219h-39q-36 86 -85 131q-27 25 -59 34.5t-91 9.5h-35q-19 0 -26 -8t-7 -24v-240h26q73 0 95 28q28 34 34 93h40v-286h-40
q-7 59 -35 94q-21 27 -94 27h-26v-194q0 -57 17 -78q16 -22 60 -22h16q36 0 62.5 12.5t57.5 38.5q58 49 110 153h39zM501 865l-112 -112h-85l-111 112l21 30l132 -57l133 57z" />
    <glyph glyph-name="ecaron" unicode="&#x11b;" horiz-adv-x="553" 
d="M527 143q-46 -156 -227 -156q-97 0 -170 51q-103 71 -103 219q0 66 23.5 119t62.5 84.5t85 48t95 16.5q110 0 171.5 -60.5t61.5 -148.5q0 -40 -4 -56h-308q2 -150 48 -194q31 -28 80 -28q111 0 153 117zM248 462q-32 -35 -34 -162h119q31 0 31 37q0 95 -21 126
q-15 20 -47 20q-30 0 -48 -21zM456 706l-123 -144h-77l-122 144l30 27l130 -85l130 85z" />
    <glyph glyph-name="Gcircumflex" unicode="&#x11c;" horiz-adv-x="766" 
d="M493 172q0 55 -10 76q-7 17 -15 24t-27 14q-12 5 -38 5v40h351v-40q-23 -2 -35 -5q-19 -5 -28.5 -13t-17.5 -25q-9 -18 -9 -90v-112l-22 -9t-36.5 -14t-42.5 -13q-95 -25 -165 -25q-159 0 -263.5 101.5t-104.5 262.5q0 160 111 262t265 102q73 0 119.5 -24.5t68.5 -53.5
h7l23 49h33v-252h-38q-22 109 -69 169q-30 38 -61 53t-84 15q-49 0 -87 -29q-41 -33 -65.5 -95t-24.5 -197q0 -138 23 -205.5t66 -92.5q35 -21 80 -21q59 0 82 29q14 21 14 74v40zM565 783l-22 -30l-133 57l-132 -57l-21 30l111 112h85z" />
    <glyph glyph-name="gcircumflex" unicode="&#x11d;" horiz-adv-x="618" 
d="M199 354q0 -130 66 -130q71 0 71 130q0 131 -70 131q-67 0 -67 -131zM571 -15q0 -94 -93.5 -141.5t-238.5 -47.5q-109 0 -168.5 25.5t-59.5 74.5q0 65 133 81v11q-53 9 -79 38t-26 71q0 41 29 69.5t71 37.5v11q-94 41 -94 139q0 86 64.5 128.5t158.5 42.5q113 0 170 -63
h10q28 67 111 67q36 0 56.5 -17t20.5 -50q0 -31 -15 -46.5t-39 -15.5q-30 0 -55 36q-14 25 -28 25q-8 0 -14 -8.5t-6 -22.5q0 -13 8 -43q4 -22 4 -33q0 -85 -65 -127t-159 -42q-23 0 -51 1.5t-33 1.5q-20 0 -35 -9.5t-15 -25.5q0 -34 57 -34q12 0 92 3.5t107 3.5
q97 0 139.5 -30.5t42.5 -110.5zM474 -78q0 31 -19 40t-74 9q-102 0 -163 -7q-103 -10 -103 -71q0 -29 35.5 -43.5t92.5 -14.5q105 0 168 22t63 65zM432 589l-32 -28l-130 85l-130 -85l-30 28l122 143h77z" />
    <glyph glyph-name="Gbreve" unicode="&#x11e;" horiz-adv-x="766" 
d="M493 172q0 55 -10 76q-7 17 -15 24t-27 14q-12 5 -38 5v40h351v-40q-23 -2 -35 -5q-19 -5 -28.5 -13t-17.5 -25q-9 -18 -9 -90v-112l-22 -9t-36.5 -14t-42.5 -13q-95 -25 -165 -25q-159 0 -263.5 101.5t-104.5 262.5q0 160 111 262t265 102q73 0 119.5 -24.5t68.5 -53.5
h7l23 49h33v-252h-38q-22 109 -69 169q-30 38 -61 53t-84 15q-49 0 -87 -29q-41 -33 -65.5 -95t-24.5 -197q0 -138 23 -205.5t66 -92.5q35 -21 80 -21q59 0 82 29q14 21 14 74v40zM408 750q-58 0 -95.5 37.5t-45.5 106.5l41 11q30 -65 100 -65q38 0 61.5 15.5t38.5 49.5
l41 -11q-8 -69 -45.5 -106.5t-95.5 -37.5z" />
    <glyph glyph-name="gbreve" unicode="&#x11f;" horiz-adv-x="618" 
d="M199 354q0 -130 66 -130q71 0 71 130q0 131 -70 131q-67 0 -67 -131zM571 -15q0 -94 -93.5 -141.5t-238.5 -47.5q-109 0 -168.5 25.5t-59.5 74.5q0 65 133 81v11q-53 9 -79 38t-26 71q0 41 29 69.5t71 37.5v11q-94 41 -94 139q0 86 64.5 128.5t158.5 42.5q113 0 170 -63
h10q28 67 111 67q36 0 56.5 -17t20.5 -50q0 -31 -15 -46.5t-39 -15.5q-30 0 -55 36q-14 25 -28 25q-8 0 -14 -8.5t-6 -22.5q0 -13 8 -43q4 -22 4 -33q0 -85 -65 -127t-159 -42q-23 0 -51 1.5t-33 1.5q-20 0 -35 -9.5t-15 -25.5q0 -34 57 -34q12 0 92 3.5t107 3.5
q97 0 139.5 -30.5t42.5 -110.5zM474 -78q0 31 -19 40t-74 9q-102 0 -163 -7q-103 -10 -103 -71q0 -29 35.5 -43.5t92.5 -14.5q105 0 168 22t63 65zM267 560q-58 0 -96 41.5t-43 109.5l41 11q16 -38 38 -54t60 -16q39 0 60.5 15.5t37.5 54.5l41 -11q-5 -68 -43 -109.5
t-96 -41.5z" />
    <glyph glyph-name="Gdotaccent" unicode="&#x120;" horiz-adv-x="766" 
d="M493 172q0 55 -10 76q-7 17 -15 24t-27 14q-12 5 -38 5v40h351v-40q-23 -2 -35 -5q-19 -5 -28.5 -13t-17.5 -25q-9 -18 -9 -90v-112l-22 -9t-36.5 -14t-42.5 -13q-95 -25 -165 -25q-159 0 -263.5 101.5t-104.5 262.5q0 160 111 262t265 102q73 0 119.5 -24.5t68.5 -53.5
h7l23 49h33v-252h-38q-22 109 -69 169q-30 38 -61 53t-84 15q-49 0 -87 -29q-41 -33 -65.5 -95t-24.5 -197q0 -138 23 -205.5t66 -92.5q35 -21 80 -21q59 0 82 29q14 21 14 74v40zM416 743q-41 0 -68.5 26.5t-27.5 64.5t27.5 65t68.5 27q40 0 67 -27t27 -65t-26.5 -64.5
t-67.5 -26.5z" />
    <glyph glyph-name="gdotaccent" unicode="&#x121;" horiz-adv-x="618" 
d="M199 354q0 -130 66 -130q71 0 71 130q0 131 -70 131q-67 0 -67 -131zM571 -15q0 -94 -93.5 -141.5t-238.5 -47.5q-109 0 -168.5 25.5t-59.5 74.5q0 65 133 81v11q-53 9 -79 38t-26 71q0 41 29 69.5t71 37.5v11q-94 41 -94 139q0 86 64.5 128.5t158.5 42.5q113 0 170 -63
h10q28 67 111 67q36 0 56.5 -17t20.5 -50q0 -31 -15 -46.5t-39 -15.5q-30 0 -55 36q-14 25 -28 25q-8 0 -14 -8.5t-6 -22.5q0 -13 8 -43q4 -22 4 -33q0 -85 -65 -127t-159 -42q-23 0 -51 1.5t-33 1.5q-20 0 -35 -9.5t-15 -25.5q0 -34 57 -34q12 0 92 3.5t107 3.5
q97 0 139.5 -30.5t42.5 -110.5zM474 -78q0 31 -19 40t-74 9q-102 0 -163 -7q-103 -10 -103 -71q0 -29 35.5 -43.5t92.5 -14.5q105 0 168 22t63 65zM274 566q-41 0 -67.5 26.5t-26.5 64.5t27 64.5t67 26.5q39 0 65.5 -26.5t26.5 -64.5t-26 -64.5t-66 -26.5z" />
    <glyph glyph-name="uni0122" unicode="&#x122;" horiz-adv-x="766" 
d="M493 172q0 55 -10 76q-7 17 -15 24t-27 14q-12 5 -38 5v40h351v-40q-23 -2 -35 -5q-19 -5 -28.5 -13t-17.5 -25q-9 -18 -9 -90v-112l-22 -9t-36.5 -14t-42.5 -13q-95 -25 -165 -25q-159 0 -263.5 101.5t-104.5 262.5q0 160 111 262t265 102q73 0 119.5 -24.5t68.5 -53.5
h7l23 49h33v-252h-38q-22 109 -69 169q-30 38 -61 53t-84 15q-49 0 -87 -29q-41 -33 -65.5 -95t-24.5 -197q0 -138 23 -205.5t66 -92.5q35 -21 80 -21q59 0 82 29q14 21 14 74v40zM475 -131q0 -116 -151 -165l-12 34q44 17 66.5 31t22.5 32q0 11 -13 15q-32 10 -48.5 26
t-16.5 44t19.5 48.5t51.5 20.5q38 0 59.5 -23t21.5 -63z" />
    <glyph glyph-name="uni0123" unicode="&#x123;" horiz-adv-x="618" 
d="M199 354q0 -130 66 -130q71 0 71 130q0 131 -70 131q-67 0 -67 -131zM571 -15q0 -94 -93.5 -141.5t-238.5 -47.5q-109 0 -168.5 25.5t-59.5 74.5q0 65 133 81v11q-53 9 -79 38t-26 71q0 41 29 69.5t71 37.5v11q-94 41 -94 139q0 86 64.5 128.5t158.5 42.5q113 0 170 -63
h10q28 67 111 67q36 0 56.5 -17t20.5 -50q0 -31 -15 -46.5t-39 -15.5q-30 0 -55 36q-14 25 -28 25q-8 0 -14 -8.5t-6 -22.5q0 -13 8 -43q4 -22 4 -33q0 -85 -65 -127t-159 -42q-23 0 -51 1.5t-33 1.5q-20 0 -35 -9.5t-15 -25.5q0 -34 57 -34q12 0 92 3.5t107 3.5
q97 0 139.5 -30.5t42.5 -110.5zM474 -78q0 31 -19 40t-74 9q-102 0 -163 -7q-103 -10 -103 -71q0 -29 35.5 -43.5t92.5 -14.5q105 0 168 22t63 65zM197 638q0 114 147 161l12 -33q-45 -18 -66 -31t-21 -31q0 -11 13 -15q33 -10 49.5 -25t16.5 -43q0 -29 -19.5 -49t-50.5 -20
q-38 0 -59.5 23.5t-21.5 62.5z" />
    <glyph glyph-name="Hcircumflex" unicode="&#x124;" horiz-adv-x="848" 
d="M397 40v-40h-373v40q27 2 39 6q20 7 31.5 17.5t17.5 33.5q10 32 10 92v320q0 60 -10 92q-11 40 -49 51q-14 4 -39 6v40h373v-40q-26 -2 -38 -7q-30 -13 -42 -48q-9 -29 -9 -88v-136h232v136q0 59 -9 88q-12 35 -43 48q-11 5 -37 7v40h373v-40q-26 -2 -39 -6
q-38 -11 -50 -51q-9 -29 -9 -92v-320q0 -63 9 -92q7 -23 18.5 -33.5t31.5 -17.5q13 -4 39 -6v-40h-373v40q23 2 37 7q17 7 26.5 18t16.5 30q9 29 9 88v151h-232v-151q0 -59 9 -88q13 -35 42 -48q16 -5 38 -7zM578 783l-22 -30l-133 57l-132 -57l-21 30l111 112h85z" />
    <glyph glyph-name="hcircumflex" unicode="&#x125;" horiz-adv-x="679" 
d="M321 36v-36h-302v36q23 2 35 10q18 10 28 32q7 21 7 68v466q0 48 -7 68q-7 15 -24 28q-19 11 -40 12v36h237q10 0 10 -10v-303h12q30 34 48 47q49 35 111 35q75 0 117 -42q40 -37 40 -105v-232q0 -52 7 -68q9 -22 29 -32q13 -8 34 -10v-36h-303v36q13 1 30 7
q11 6 15.5 14.5t7.5 26.5q4 20 4 62v229q0 37 -16 55q-14 13 -42 13q-43 0 -71 -40q-23 -34 -23 -87v-170q0 -41 3 -62q6 -31 26 -41q16 -6 27 -7zM472 809l-22 -30l-133 57l-132 -57l-21 30l111 112h85z" />
    <glyph glyph-name="Hbar" unicode="&#x126;" horiz-adv-x="850" 
d="M18 470v45h105q-1 55 -10 86q-11 40 -49 51q-14 4 -39 6v40h373v-40q-26 -2 -38 -7q-30 -13 -42 -48q-9 -29 -9 -88h232q0 59 -9 88q-12 35 -43 48q-11 5 -37 7v40h373v-40q-26 -2 -39 -6q-38 -11 -50 -51q-9 -27 -9 -86h105v-45h-105v-281q0 -63 9 -92q7 -23 18.5 -33.5
t31.5 -17.5q13 -4 39 -6v-40h-373v40q23 2 37 7q17 7 26.5 18t16.5 30q9 29 9 88v151h-232v-151q0 -59 9 -88q13 -35 42 -48q16 -5 38 -7v-40h-373v40q27 2 39 6q20 7 31.5 17.5t17.5 33.5q10 32 10 92v281h-105zM309 379h232v91h-232v-91z" />
    <glyph glyph-name="hbar" unicode="&#x127;" horiz-adv-x="679" 
d="M12 594v48h76q-2 25 -6 38q-7 15 -24 28q-19 11 -40 12v36h237q10 0 10 -10v-104h143v-48h-143v-151h12q30 34 48 47q49 35 111 35q75 0 117 -42q40 -37 40 -105v-232q0 -52 7 -68q9 -22 29 -32q13 -8 34 -10v-36h-303v36q13 1 30 7q11 6 15.5 14.5t7.5 26.5q4 20 4 62
v229q0 37 -16 55q-14 13 -42 13q-43 0 -71 -40q-23 -34 -23 -87v-170q0 -41 3 -62q6 -31 26 -41q16 -6 27 -7v-36h-302v36q23 2 35 10q18 10 28 32q7 21 7 68v448h-77z" />
    <glyph glyph-name="Itilde" unicode="&#x128;" horiz-adv-x="429" 
d="M308 509v-320q0 -63 9 -92q12 -38 49 -51q14 -4 39 -6v-40h-381v40q27 2 39 6q20 7 31.5 17.5t17.5 33.5q10 32 10 92v320q0 60 -10 92q-11 40 -49 51q-12 4 -39 6v40h381v-40q-25 -2 -39 -6q-37 -11 -49 -51q-9 -29 -9 -92zM397 891q-30 -137 -115 -137q-20 0 -69 11.5
t-68 11.5q-46 0 -61 -39l-36 10q13 54 40.5 93t71.5 39q24 0 72 -11t67 -11q28 0 42 8.5t21 32.5z" />
    <glyph glyph-name="itilde" unicode="&#x129;" horiz-adv-x="351" 
d="M265 419v-273q0 -48 8 -68q8 -22 28 -32q13 -8 34 -10v-36h-316v36q23 2 35 10q19 11 27 32q7 18 7 68v220q0 50 -7 68q-7 19 -24 28q-18 10 -39 13v36h241q9 0 9 -10q-3 -63 -3 -82zM332 722q-30 -137 -115 -137q-21 0 -69.5 11.5t-67.5 11.5q-46 0 -62 -39l-35 10
q13 54 40.5 93t71.5 39q24 0 68 -11t63 -11q58 0 70 41z" />
    <glyph glyph-name="Imacron" unicode="&#x12a;" horiz-adv-x="429" 
d="M308 509v-320q0 -63 9 -92q12 -38 49 -51q14 -4 39 -6v-40h-381v40q27 2 39 6q20 7 31.5 17.5t17.5 33.5q10 32 10 92v320q0 60 -10 92q-11 40 -49 51q-12 4 -39 6v40h381v-40q-25 -2 -39 -6q-37 -11 -49 -51q-9 -29 -9 -92zM353 776h-273v71h273v-71z" />
    <glyph glyph-name="imacron" unicode="&#x12b;" horiz-adv-x="351" 
d="M285 606h-266v70h266v-70zM265 419v-273q0 -48 8 -68q8 -22 28 -32q13 -8 34 -10v-36h-316v36q23 2 35 10q19 11 27 32q7 18 7 68v220q0 50 -7 68q-7 19 -24 28q-18 10 -39 13v36h241q9 0 9 -10q-3 -63 -3 -82z" />
    <glyph glyph-name="Ibreve" unicode="&#x12c;" horiz-adv-x="429" 
d="M308 509v-320q0 -63 9 -92q12 -38 49 -51q14 -4 39 -6v-40h-381v40q27 2 39 6q20 7 31.5 17.5t17.5 33.5q10 32 10 92v320q0 60 -10 92q-11 40 -49 51q-12 4 -39 6v40h381v-40q-25 -2 -39 -6q-37 -11 -49 -51q-9 -29 -9 -92zM215 750q-58 0 -95.5 37.5t-45.5 106.5l41 11
q30 -65 100 -65q38 0 61.5 15.5t38.5 49.5l41 -11q-8 -69 -45.5 -106.5t-95.5 -37.5z" />
    <glyph glyph-name="ibreve" unicode="&#x12d;" horiz-adv-x="351" 
d="M265 419v-273q0 -48 8 -68q8 -22 28 -32q13 -8 34 -10v-36h-316v36q23 2 35 10q19 11 27 32q7 18 7 68v220q0 50 -7 68q-7 19 -24 28q-18 10 -39 13v36h241q9 0 9 -10q-3 -63 -3 -82zM158 567q-58 0 -96 41.5t-43 109.5l41 11q16 -38 38 -54t60 -16q39 0 60.5 15.5
t37.5 54.5l41 -11q-5 -68 -43 -109.5t-96 -41.5z" />
    <glyph glyph-name="Iogonek" unicode="&#x12e;" horiz-adv-x="429" 
d="M258 0h-234v40q27 2 39 6q20 7 31.5 17.5t17.5 33.5q10 32 10 92v320q0 60 -10 92q-11 40 -49 51q-12 4 -39 6v40h381v-40q-25 -2 -39 -6q-37 -11 -49 -51q-9 -29 -9 -92v-320q0 -63 9 -92q12 -38 49 -51q14 -4 39 -6v-40h-95q-30 -30 -43.5 -53.5t-13.5 -55.5
q0 -59 82 -67v-40q-95 -5 -152 18.5t-57 71.5q0 78 132 126z" />
    <glyph glyph-name="iogonek" unicode="&#x12f;" horiz-adv-x="351" 
d="M178 571q-42 0 -69.5 27.5t-27.5 67.5t28 68t69 28t69 -28t28 -68t-27.5 -67.5t-69.5 -27.5zM231 0h-212v36q23 2 35 10q19 11 27 32q7 18 7 68v220q0 50 -7 68q-7 19 -24 28q-18 10 -39 13v36h241q9 0 9 -10q-3 -63 -3 -82v-273q0 -48 8 -68q8 -22 28 -32q13 -8 34 -10
v-36h-49q-56 -54 -56 -109q0 -59 82 -67v-40q-95 -5 -152 18.5t-57 71.5q0 79 128 126z" />
    <glyph glyph-name="Idotaccent" unicode="&#x130;" horiz-adv-x="429" 
d="M308 509v-320q0 -63 9 -92q12 -38 49 -51q14 -4 39 -6v-40h-381v40q27 2 39 6q20 7 31.5 17.5t17.5 33.5q10 32 10 92v320q0 60 -10 92q-11 40 -49 51q-12 4 -39 6v40h381v-40q-25 -2 -39 -6q-37 -11 -49 -51q-9 -29 -9 -92zM216 743q-41 0 -68.5 26.5t-27.5 64.5
t27.5 65t68.5 27q40 0 67 -27t27 -65t-26.5 -64.5t-67.5 -26.5z" />
    <glyph glyph-name="dotlessi" unicode="&#x131;" horiz-adv-x="351" 
d="M265 419v-273q0 -48 8 -68q8 -22 28 -32q13 -8 34 -10v-36h-316v36q23 2 35 10q19 11 27 32q7 18 7 68v220q0 50 -7 68q-7 19 -24 28q-18 10 -39 13v36h241q9 0 9 -10q-3 -63 -3 -82z" />
    <glyph glyph-name="IJ" unicode="&#x132;" horiz-adv-x="969" 
d="M308 509v-320q0 -63 9 -92q12 -38 49 -51q14 -4 39 -6v-40h-381v40q27 2 39 6q20 7 31.5 17.5t17.5 33.5q10 32 10 92v320q0 60 -10 92q-11 40 -49 51q-12 4 -39 6v40h381v-40q-25 -2 -39 -6q-37 -11 -49 -51q-9 -29 -9 -92zM676 509q0 63 -9 92q-7 23 -18.5 33.5
t-31.5 17.5q-13 4 -39 6v40h381v-40q-27 -2 -39 -6q-20 -7 -31.5 -17.5t-17.5 -33.5q-10 -27 -10 -92v-264q0 -142 -73 -206q-62 -55 -179 -55q-36 0 -75 13t-61 33q-52 45 -52 102q0 46 26.5 72.5t65.5 26.5q76 0 81 -76q2 -27 -4 -49q-12 -41 -10 -51q3 -26 35 -26
q36 0 51 35q10 25 10 108v337z" />
    <glyph glyph-name="ij" unicode="&#x133;" horiz-adv-x="641" 
d="M178 571q-42 0 -69.5 27.5t-27.5 67.5t28 68t69 28t69 -28t28 -68t-27.5 -67.5t-69.5 -27.5zM265 419v-273q0 -48 8 -68q8 -22 28 -32q13 -8 34 -10v-36h-316v36q23 2 35 10q19 11 27 32q7 18 7 68v220q0 50 -7 68q-7 19 -24 28q-18 10 -39 13v36h241q9 0 9 -10
q-3 -63 -3 -82zM494 571q-43 0 -70.5 27.5t-27.5 67.5t28 68t70 28q41 0 68.5 -28t27.5 -68t-27.5 -67.5t-68.5 -27.5zM404 -52v418q0 49 -8 68q-6 15 -23 28q-20 10 -39 13v36h241q8 0 8 -10q0 -8 -1 -34.5t-1 -47.5v-365q0 -80 -26.5 -127t-68.5 -81q-65 -50 -150 -50
q-69 0 -107 25q-43 30 -43 78q0 33 20.5 52.5t55.5 19.5q36 0 56.5 -17t20.5 -45q0 -14 -7 -35q-8 -14 -8 -22q0 -19 25 -19q27 0 43 32q12 25 12 83z" />
    <glyph glyph-name="Jcircumflex" unicode="&#x134;" horiz-adv-x="547" 
d="M254 509q0 63 -9 92q-7 23 -18.5 33.5t-31.5 17.5q-13 4 -39 6v40h381v-40q-27 -2 -39 -6q-20 -7 -31.5 -17.5t-17.5 -33.5q-10 -27 -10 -92v-264q0 -142 -73 -206q-62 -55 -179 -55q-36 0 -75 13t-61 33q-52 45 -52 102q0 46 26.5 72.5t65.5 26.5q76 0 81 -76
q2 -27 -4 -49q-12 -41 -10 -51q3 -26 35 -26q36 0 51 35q10 25 10 108v337zM502 783l-22 -30l-133 57l-132 -57l-21 30l111 112h85z" />
    <glyph glyph-name="jcircumflex" unicode="&#x135;" horiz-adv-x="325" 
d="M88 -52v418q0 49 -8 68q-6 15 -23 28q-20 10 -39 13v36h241q8 0 8 -10q0 -8 -1 -34.5t-1 -47.5v-365q0 -80 -26.5 -127t-68.5 -81q-65 -50 -150 -50q-69 0 -107 25q-43 30 -43 78q0 33 20.5 52.5t55.5 19.5q36 0 56.5 -17t20.5 -45q0 -14 -7 -35q-8 -14 -8 -22
q0 -19 25 -19q27 0 43 32q12 25 12 83zM319 589l-32 -28l-130 85l-130 -85l-30 28l122 143h77z" />
    <glyph glyph-name="uni0136" unicode="&#x136;" horiz-adv-x="787" 
d="M404 40v-40h-381v40q27 2 38 6q38 12 50 51q10 32 10 92v320q0 60 -10 92q-7 24 -18.5 34.5t-31.5 16.5q-11 4 -38 6v40h381v-40q-27 -2 -39 -6q-37 -11 -50 -51q-9 -29 -9 -92v-154l163 164l38 41t18.5 25.5t8.5 28.5q0 27 -26 37q-13 5 -40 7v40h264v-40
q-38 -5 -83 -31q-31 -19 -99 -92l-127 -125v-7q64 -4 102 -18.5t67 -41.5q57 -54 73 -159q7 -44 16.5 -70t16.5 -34t22 -19q23 -17 56 -21v-40h-259q-15 16 -29.5 57t-18.5 90l-4 47.5t-5 49.5t-7.5 35.5t-14.5 36.5q-18 34 -59 34q-28 0 -53 -27q-3 -2 -20 -19v-115
q0 -63 9 -92q13 -38 50 -51q12 -4 39 -6zM533 -128q0 -116 -151 -165l-12 34q44 17 66.5 31t22.5 32q0 11 -13 15q-65 19 -65 70q0 28 19.5 48.5t51.5 20.5q38 0 59.5 -23t21.5 -63z" />
    <glyph glyph-name="uni0137" unicode="&#x137;" horiz-adv-x="668" 
d="M334 35v-35h-313v35q18 2 33 10q21 15 28 33q7 20 7 67v467q0 48 -7 68q-6 15 -24 28q-16 10 -40 12v36h241q9 0 9 -11q-3 -60 -3 -84v-396l105 90q59 51 59 76q0 24 -22 35q-10 4 -44 9v36h254v-36q-36 -9 -68 -28q-25 -14 -88 -67l-76 -63q143 -15 163 -110
q20 -94 56 -143q16 -23 58 -28v-36h-224q-36 32 -60 170q-13 80 -52 97l-61 -51v-71q0 -49 9 -67q6 -19 26 -33q15 -8 34 -10zM454 -118q0 -116 -151 -165l-12 34q44 17 66.5 31t22.5 32q0 11 -13 15q-65 19 -65 70q0 28 19.5 48.5t51.5 20.5q38 0 59.5 -23t21.5 -63z" />
    <glyph glyph-name="Lacute" unicode="&#x139;" horiz-adv-x="673" 
d="M24 0v40q27 2 39 6q20 7 31.5 17.5t17.5 33.5q10 32 10 92v320q0 60 -10 92q-11 40 -49 51q-12 4 -39 6v40h381v-40q-26 -2 -39 -6q-19 -6 -30.5 -16.5t-19.5 -34.5q-9 -29 -9 -91v-366q0 -59 17 -78q16 -22 60 -22h20q38 0 62 11.5t51 38.5q63 63 104 158h40l-39 -252
h-598zM99 788l115 83q52 35 75 40q9 2 19 2q26 0 44 -17.5t18 -45.5q0 -53 -73 -67q-47 -9 -187 -28z" />
    <glyph glyph-name="lacute" unicode="&#x13a;" horiz-adv-x="352" 
d="M264 661v-515q0 -46 9 -68q9 -23 27 -32q13 -8 33 -10v-36h-313v36q19 2 34 10q18 9 27 32q7 21 7 68v466q0 48 -7 68q-6 15 -24 28q-16 10 -39 12v36h241q8 0 8 -11zM35 814l115 83q52 35 75 40q9 2 19 2q26 0 44 -17.5t18 -45.5q0 -53 -73 -67q-47 -9 -187 -28z" />
    <glyph glyph-name="uni013B" unicode="&#x13b;" horiz-adv-x="673" 
d="M24 0v40q27 2 39 6q20 7 31.5 17.5t17.5 33.5q10 32 10 92v320q0 60 -10 92q-11 40 -49 51q-12 4 -39 6v40h381v-40q-26 -2 -39 -6q-19 -6 -30.5 -16.5t-19.5 -34.5q-9 -29 -9 -91v-366q0 -59 17 -78q16 -22 60 -22h20q38 0 62 11.5t51 38.5q63 63 104 158h40l-39 -252
h-598zM415 -128q0 -116 -151 -165l-12 34q44 17 66.5 31t22.5 32q0 11 -13 15q-65 19 -65 70q0 28 19.5 48.5t51.5 20.5q38 0 59.5 -23t21.5 -63z" />
    <glyph glyph-name="uni013C" unicode="&#x13c;" horiz-adv-x="352" 
d="M264 661v-515q0 -46 9 -68q9 -23 27 -32q13 -8 33 -10v-36h-313v36q19 2 34 10q18 9 27 32q7 21 7 68v466q0 48 -7 68q-6 15 -24 28q-16 10 -39 12v36h241q8 0 8 -11zM256 -118q0 -116 -151 -165l-12 34q44 17 66.5 31t22.5 32q0 11 -13 15q-65 19 -65 70q0 28 19.5 48.5
t51.5 20.5q38 0 59.5 -23t21.5 -63z" />
    <glyph glyph-name="Lcaron" unicode="&#x13d;" horiz-adv-x="673" 
d="M24 0v40q27 2 39 6q20 7 31.5 17.5t17.5 33.5q10 32 10 92v320q0 60 -10 92q-11 40 -49 51q-12 4 -39 6v40h381v-40q-26 -2 -39 -6q-19 -6 -30.5 -16.5t-19.5 -34.5q-9 -29 -9 -91v-366q0 -59 17 -78q16 -22 60 -22h20q38 0 62 11.5t51 38.5q63 63 104 158h40l-39 -252
h-598zM460 497l27 221h118l-106 -221h-39z" />
    <glyph glyph-name="lcaron" unicode="&#x13e;" horiz-adv-x="352" 
d="M264 661v-515q0 -46 9 -68q9 -23 27 -32q13 -8 33 -10v-36h-313v36q19 2 34 10q18 9 27 32q7 21 7 68v466q0 48 -7 68q-6 15 -24 28q-16 10 -39 12v36h241q8 0 8 -11zM310 543l27 221h118l-106 -221h-39z" />
    <glyph glyph-name="Ldot" unicode="&#x13f;" horiz-adv-x="673" 
d="M598 385q0 -35 -24 -59t-61 -24q-36 0 -60 24t-24 59t24 59t60 24q37 0 61 -24t24 -59zM24 0v40q27 2 39 6q20 7 31.5 17.5t17.5 33.5q10 32 10 92v320q0 60 -10 92q-11 40 -49 51q-12 4 -39 6v40h381v-40q-26 -2 -39 -6q-19 -6 -30.5 -16.5t-19.5 -34.5q-9 -29 -9 -91
v-366q0 -59 17 -78q16 -22 60 -22h20q38 0 62 11.5t51 38.5q63 63 104 158h40l-39 -252h-598z" />
    <glyph glyph-name="ldot" unicode="&#x140;" horiz-adv-x="476" 
d="M264 661v-515q0 -46 9 -68q9 -23 27 -32q13 -8 33 -10v-36h-313v36q19 2 34 10q18 9 27 32q7 21 7 68v466q0 48 -7 68q-6 15 -24 28q-16 10 -39 12v36h241q8 0 8 -11zM397 260q-36 0 -60.5 24t-24.5 58t24.5 58.5t60.5 24.5t60 -24.5t24 -58.5t-24 -58t-60 -24z" />
    <glyph glyph-name="Lslash" unicode="&#x141;" horiz-adv-x="673" 
d="M21 231v53l101 41v184q0 60 -10 92q-11 40 -49 51q-12 4 -39 6v40h381v-40q-26 -2 -39 -6q-19 -6 -30.5 -16.5t-19.5 -34.5q-9 -29 -9 -91v-110l162 66v-53l-162 -66v-203q0 -59 17 -78q16 -22 60 -22h20q38 0 62 11.5t51 38.5q63 63 104 158h40l-39 -252h-598v40
q27 2 39 6q20 7 31.5 17.5t17.5 33.5q10 32 10 92v83z" />
    <glyph glyph-name="lslash" unicode="&#x142;" horiz-adv-x="352" 
d="M264 661v-214l75 37v-58l-75 -37v-243q0 -46 9 -68q9 -23 27 -32q13 -8 33 -10v-36h-313v36q19 2 34 10q18 9 27 32q7 21 7 68v157l-80 -39v58l80 39v251q0 48 -7 68q-6 15 -24 28q-16 10 -39 12v36h241q8 0 8 -11z" />
    <glyph glyph-name="Nacute" unicode="&#x143;" horiz-adv-x="786" 
d="M676 -4h-107l-368 541h-8v-354q0 -78 15 -103q13 -22 43 -33q12 -4 38 -7v-40h-248v40q21 1 38 7q27 9 42 33q16 28 16 103v251q0 113 -23 159q-22 41 -59 58q-13 5 -34 8v39h304l288 -427h8v244q0 77 -16 104q-13 23 -42 32q-14 5 -39 8v39h249v-39q-30 -6 -37 -8
q-28 -8 -44 -34q-16 -25 -16 -102v-519zM320 788l115 83q52 35 75 40q9 2 19 2q26 0 44 -17.5t18 -45.5q0 -53 -73 -67q-47 -9 -187 -28z" />
    <glyph glyph-name="nacute" unicode="&#x144;" horiz-adv-x="679" 
d="M593 146q0 -52 7 -68q9 -23 29 -32q17 -9 34 -10v-36h-303v36q13 1 30 7q11 6 15.5 14.5t7.5 26.5q4 20 4 62v229q0 36 -17 55q-14 13 -41 13q-43 0 -71 -40q-23 -34 -23 -87v-170q0 -41 3 -62q5 -29 26 -41q11 -5 27 -7v-36h-302v36q22 2 35 10q20 10 28 32q7 21 7 68
v220q0 48 -7 68q-9 19 -24 28q-18 10 -40 13v36h229q10 0 10 -10q0 -6 -1 -32t-1 -40h12q24 37 58 60q55 36 111 36q75 0 117 -42q40 -37 40 -105v-232zM246 596l104 104q22 21 31.5 29t26.5 16.5t33 8.5q24 0 41 -15.5t17 -41.5q0 -47 -61 -72q-17 -7 -174 -61z" />
    <glyph glyph-name="uni0145" unicode="&#x145;" horiz-adv-x="786" 
d="M676 -4h-107l-368 541h-8v-354q0 -78 15 -103q13 -22 43 -33q12 -4 38 -7v-40h-248v40q21 1 38 7q27 9 42 33q16 28 16 103v251q0 113 -23 159q-22 41 -59 58q-13 5 -34 8v39h304l288 -427h8v244q0 77 -16 104q-13 23 -42 32q-14 5 -39 8v39h249v-39q-30 -6 -37 -8
q-28 -8 -44 -34q-16 -25 -16 -102v-519zM469 -128q0 -116 -151 -165l-12 34q44 17 66.5 31t22.5 32q0 11 -13 15q-65 19 -65 70q0 28 19.5 48.5t51.5 20.5q38 0 59.5 -23t21.5 -63z" />
    <glyph glyph-name="uni0146" unicode="&#x146;" horiz-adv-x="679" 
d="M593 146q0 -52 7 -68q9 -23 29 -32q17 -9 34 -10v-36h-303v36q13 1 30 7q11 6 15.5 14.5t7.5 26.5q4 20 4 62v229q0 36 -17 55q-14 13 -41 13q-43 0 -71 -40q-23 -34 -23 -87v-170q0 -41 3 -62q5 -29 26 -41q11 -5 27 -7v-36h-302v36q22 2 35 10q20 10 28 32q7 21 7 68
v220q0 48 -7 68q-9 19 -24 28q-18 10 -40 13v36h229q10 0 10 -10q0 -6 -1 -32t-1 -40h12q24 37 58 60q55 36 111 36q75 0 117 -42q40 -37 40 -105v-232zM448 -111q0 -116 -151 -165l-12 34q44 17 66.5 31t22.5 32q0 11 -13 15q-32 10 -48.5 26t-16.5 44t19.5 48.5t51.5 20.5
q38 0 59.5 -23t21.5 -63z" />
    <glyph glyph-name="Ncaron" unicode="&#x147;" horiz-adv-x="786" 
d="M676 -4h-107l-368 541h-8v-354q0 -78 15 -103q13 -22 43 -33q12 -4 38 -7v-40h-248v40q21 1 38 7q27 9 42 33q16 28 16 103v251q0 113 -23 159q-22 41 -59 58q-13 5 -34 8v39h304l288 -427h8v244q0 77 -16 104q-13 23 -42 32q-14 5 -39 8v39h249v-39q-30 -6 -37 -8
q-28 -8 -44 -34q-16 -25 -16 -102v-519zM565 865l-112 -112h-85l-111 112l21 30l132 -57l133 57z" />
    <glyph glyph-name="ncaron" unicode="&#x148;" horiz-adv-x="679" 
d="M593 146q0 -52 7 -68q9 -23 29 -32q17 -9 34 -10v-36h-303v36q13 1 30 7q11 6 15.5 14.5t7.5 26.5q4 20 4 62v229q0 36 -17 55q-14 13 -41 13q-43 0 -71 -40q-23 -34 -23 -87v-170q0 -41 3 -62q5 -29 26 -41q11 -5 27 -7v-36h-302v36q22 2 35 10q20 10 28 32q7 21 7 68
v220q0 48 -7 68q-9 19 -24 28q-18 10 -40 13v36h229q10 0 10 -10q0 -6 -1 -32t-1 -40h12q24 37 58 60q55 36 111 36q75 0 117 -42q40 -37 40 -105v-232zM501 706l-123 -144h-77l-122 144l30 27l130 -85l130 85z" />
    <glyph glyph-name="napostrophe" unicode="&#x149;" horiz-adv-x="801" 
d="M716 146q0 -52 7 -68q9 -23 29 -32q17 -9 34 -10v-36h-303v36q13 1 30 7q11 6 15.5 14.5t7.5 26.5q4 20 4 62v229q0 36 -17 55q-14 13 -41 13q-43 0 -71 -40q-23 -34 -23 -87v-170q0 -41 3 -62q5 -29 26 -41q11 -5 27 -7v-36h-302v36q22 2 35 10q20 10 28 32q7 21 7 68
v220q0 48 -7 68q-9 19 -24 28q-18 10 -40 13v36h229q10 0 10 -10q0 -6 -1 -32t-1 -40h12q24 37 58 60q55 36 111 36q75 0 117 -42q40 -37 40 -105v-232zM160 658q0 -68 -50 -120.5t-126 -77.5l-12 31q44 17 74.5 41.5t30.5 45.5q0 14 -16 20q-36 10 -53.5 29t-17.5 51t21 54
t57 22q42 0 67 -26t25 -70z" />
    <glyph glyph-name="Eng" unicode="&#x14a;" horiz-adv-x="786" 
d="M487 -203q-86 0 -127 38q-48 42 -48 101q0 44 25.5 66t57.5 22q38 0 59 -21.5t23 -56.5q2 -29 -5 -53q-5 -21 -3 -29q3 -23 28 -23q47 0 80 33q42 42 42 114v12l-419 537h-9v-354q0 -78 15 -103q15 -23 44 -33q13 -4 37 -7v-40h-248v40q23 2 38 7q28 9 43 33
q16 30 16 103v251q0 111 -24 159q-20 40 -59 58q-12 5 -34 8v39h304l288 -385h8v202q0 77 -15 104q-12 22 -42 32q-16 5 -39 8v39h249v-39q-31 -6 -38 -8q-29 -9 -44 -34t-15 -102v-526q0 -85 -57 -142q-50 -50 -131 -50z" />
    <glyph glyph-name="eng" unicode="&#x14b;" horiz-adv-x="650" 
d="M417 -52v426q0 37 -17 56q-13 12 -41 12q-44 0 -71 -40q-23 -34 -23 -87v-169q0 -41 3 -62q5 -29 26 -41q11 -5 27 -7v-36h-302v36q22 2 35 10q20 10 28 32q7 21 7 68v220q0 48 -7 68q-9 19 -24 28q-18 10 -40 13v36h229q10 0 10 -10q0 -6 -1 -32.5t-1 -40.5h12
q24 37 58 60q55 36 111 36q76 0 117 -41q40 -39 40 -106v-323q0 -132 -94 -208q-65 -50 -150 -50q-69 0 -107 25q-43 30 -43 78q0 33 20.5 52.5t55.5 19.5q36 0 56.5 -17t20.5 -45q0 -14 -7 -35q-8 -14 -8 -22q0 -19 25 -19q27 0 43 32q12 25 12 83z" />
    <glyph glyph-name="Omacron" unicode="&#x14c;" horiz-adv-x="756" 
d="M378 713q153 0 251 -101t98 -264q0 -162 -98 -262.5t-251 -100.5q-152 0 -250 101t-98 262q0 163 98 264t250 101zM378 29q43 0 71 20q39 26 59.5 92.5t20.5 207.5q0 140 -20.5 206.5t-59.5 93.5q-28 20 -71 20t-72 -20q-38 -27 -59 -94t-21 -206q0 -140 21 -207t59 -93
q29 -20 72 -20zM516 776h-273v71h273v-71z" />
    <glyph glyph-name="omacron" unicode="&#x14d;" horiz-adv-x="604" 
d="M27 256q0 122 80 195.5t195 73.5t195.5 -73.5t80.5 -195.5t-80.5 -195.5t-195.5 -73.5t-195 73.5t-80 195.5zM213 256q0 -99 9.5 -144.5t31.5 -65.5q20 -18 48 -18q30 0 48 18q22 21 31.5 66.5t9.5 143.5q0 99 -9.5 144t-31.5 66q-17 17 -48 17t-48 -17
q-22 -21 -31.5 -66t-9.5 -144zM435 606h-266v70h266v-70z" />
    <glyph glyph-name="Obreve" unicode="&#x14e;" horiz-adv-x="756" 
d="M378 713q153 0 251 -101t98 -264q0 -162 -98 -262.5t-251 -100.5q-152 0 -250 101t-98 262q0 163 98 264t250 101zM378 29q43 0 71 20q39 26 59.5 92.5t20.5 207.5q0 140 -20.5 206.5t-59.5 93.5q-28 20 -71 20t-72 -20q-38 -27 -59 -94t-21 -206q0 -140 21 -207t59 -93
q29 -20 72 -20zM376 750q-58 0 -95.5 37.5t-45.5 106.5l41 11q30 -65 100 -65q38 0 61.5 15.5t38.5 49.5l41 -11q-8 -69 -45.5 -106.5t-95.5 -37.5z" />
    <glyph glyph-name="obreve" unicode="&#x14f;" horiz-adv-x="604" 
d="M27 256q0 122 80 195.5t195 73.5t195.5 -73.5t80.5 -195.5t-80.5 -195.5t-195.5 -73.5t-195 73.5t-80 195.5zM213 256q0 -99 9.5 -144.5t31.5 -65.5q20 -18 48 -18q30 0 48 18q22 21 31.5 66.5t9.5 143.5q0 99 -9.5 144t-31.5 66q-17 17 -48 17t-48 -17
q-22 -21 -31.5 -66t-9.5 -144zM298 567q-58 0 -96 41.5t-43 109.5l41 11q16 -38 38 -54t60 -16q39 0 60.5 15.5t37.5 54.5l41 -11q-5 -68 -43 -109.5t-96 -41.5z" />
    <glyph glyph-name="Ohungarumlaut" unicode="&#x150;" horiz-adv-x="756" 
d="M378 713q153 0 251 -101t98 -264q0 -162 -98 -262.5t-251 -100.5q-152 0 -250 101t-98 262q0 163 98 264t250 101zM378 29q43 0 71 20q39 26 59.5 92.5t20.5 207.5q0 140 -20.5 206.5t-59.5 93.5q-28 20 -71 20t-72 -20q-38 -27 -59 -94t-21 -206q0 -140 21 -207t59 -93
q29 -20 72 -20zM373 949q23 0 36 -13t13 -34q0 -23 -10 -38.5t-32 -35.5t-98 -80h-41l21.5 52.5l21.5 53l16 37.5q25 58 73 58zM553 949q23 0 36 -13t13 -34q0 -23 -10 -38.5t-32 -35.5t-98 -80h-41l21.5 52.5l21.5 53l16 37.5q25 58 73 58z" />
    <glyph glyph-name="ohungarumlaut" unicode="&#x151;" horiz-adv-x="604" 
d="M27 256q0 122 80 195.5t195 73.5t195.5 -73.5t80.5 -195.5t-80.5 -195.5t-195.5 -73.5t-195 73.5t-80 195.5zM213 256q0 -99 9.5 -144.5t31.5 -65.5q20 -18 48 -18q30 0 48 18q22 21 31.5 66.5t9.5 143.5q0 99 -9.5 144t-31.5 66q-17 17 -48 17t-48 -17
q-22 -21 -31.5 -66t-9.5 -144zM286 781q25 0 38.5 -14.5t13.5 -37.5q0 -15 -6.5 -29.5t-14 -23l-22.5 -24.5l-100 -102l-32 19q30 95 52 154q24 58 71 58zM472 781q25 0 38.5 -14.5t13.5 -37.5q0 -15 -6.5 -29.5t-14 -23l-22.5 -24.5l-101 -102l-32 19q37 110 53 154
q22 58 71 58z" />
    <glyph glyph-name="OE" unicode="&#x152;" horiz-adv-x="1048" 
d="M374 657q-46 0 -73 -23q-37 -31 -56 -92t-19 -193q0 -137 19.5 -198.5t59.5 -90.5q25 -19 69 -19q43 0 67.5 24t38.5 92t14 192q0 170 -25 239t-95 69zM1022 248l-42 -248h-606q-153 0 -248.5 92t-95.5 257t95.5 257t248.5 92h592l37 -219h-38q-34 84 -85 131
q-26 25 -56 34.5t-87 9.5h-35q-18 0 -25 -8t-7 -25v-239h27q70 0 92 28q28 36 34 93h38v-286h-38q-6 58 -34 94q-13 15 -32 21t-60 6h-27v-194q0 -58 16 -78q18 -22 59 -22h12q37 0 61 12t54 39q62 53 113 153h37z" />
    <glyph glyph-name="oe" unicode="&#x153;" horiz-adv-x="912" 
d="M887 143q-48 -156 -220 -156q-86 0 -155 60q-15 13 -24 25h-7q-69 -85 -178 -85q-115 0 -194 73.5t-79 195.5q0 123 79 196t194 73q110 0 179 -85h5q71 85 165 85q110 0 170.5 -60t60.5 -149q0 -40 -4 -56h-303q1 -152 46 -194q31 -28 79 -28q111 0 153 117zM607 462
q-27 -32 -31 -162h114q31 0 31 37q0 57 -3 83t-15 43q-17 20 -48 20q-29 0 -48 -21zM216 256q0 -100 8.5 -145t30.5 -65q19 -18 48 -18q30 0 48 18q22 21 30.5 66t8.5 144q0 100 -8.5 144.5t-30.5 65.5q-17 17 -48 17t-48 -17q-22 -21 -30.5 -65.5t-8.5 -144.5z" />
    <glyph glyph-name="Racute" unicode="&#x154;" horiz-adv-x="764" 
d="M367 654h-43q-12 0 -16 -4q-5 -7 -5 -15v-267h48q66 0 88 37q22 38 22 115q0 71 -23 102.5t-71 31.5zM400 40v-40h-376v40q22 2 35 5q38 10 50 52q9 29 9 80v344q0 51 -9 80q-11 42 -50 52q-13 3 -35 5v40h386q114 0 184 -43t70 -135q0 -96 -101 -141q-42 -17 -92 -25
v-13q62 -7 104 -30q69 -37 81 -117q16 -104 52 -138q16 -13 53 -16v-40h-248q-36 42 -43 129q-1 12 -4 40.5t-4.5 39.5t-4.5 29.5t-8 30.5t-13 22q-14 20 -33 26t-51 6h-49v-146q0 -55 8 -80q12 -42 50 -52q12 -3 39 -5zM213 788l115 83q52 35 75 40q9 2 19 2q26 0 44 -17.5
t18 -45.5q0 -53 -73 -67q-47 -9 -187 -28z" />
    <glyph glyph-name="racute" unicode="&#x155;" horiz-adv-x="503" 
d="M265 408q22 53 58 84q39 31 86 31q46 0 70 -23q27 -27 27 -75q0 -38 -23 -59t-54 -21q-32 0 -49 13.5t-28 43.5q-10 24 -27 24q-16 0 -34.5 -29.5t-23.5 -78.5q-3 -27 -3 -83v-90q0 -47 8 -67q10 -25 27 -32q16 -8 41 -10v-36h-322v36q20 2 35 10q18 10 28 32q6 18 6 67
v226q0 39 -2 55q-3 22 -20 34q-17 11 -46 15v36h229q10 0 10 -10l-4 -93h11zM150 596l104 104q22 21 31.5 29t26.5 16.5t33 8.5q24 0 41 -15.5t17 -41.5q0 -47 -61 -72q-17 -7 -174 -61z" />
    <glyph glyph-name="uni0156" unicode="&#x156;" horiz-adv-x="764" 
d="M367 654h-43q-12 0 -16 -4q-5 -7 -5 -15v-267h48q66 0 88 37q22 38 22 115q0 71 -23 102.5t-71 31.5zM400 40v-40h-376v40q22 2 35 5q38 10 50 52q9 29 9 80v344q0 51 -9 80q-11 42 -50 52q-13 3 -35 5v40h386q114 0 184 -43t70 -135q0 -96 -101 -141q-42 -17 -92 -25
v-13q62 -7 104 -30q69 -37 81 -117q16 -104 52 -138q16 -13 53 -16v-40h-248q-36 42 -43 129q-1 12 -4 40.5t-4.5 39.5t-4.5 29.5t-8 30.5t-13 22q-14 20 -33 26t-51 6h-49v-146q0 -55 8 -80q12 -42 50 -52q12 -3 39 -5zM514 -128q0 -116 -151 -165l-12 34q44 17 66.5 31
t22.5 32q0 11 -13 15q-65 19 -65 70q0 28 19.5 48.5t51.5 20.5q38 0 59.5 -23t21.5 -63z" />
    <glyph glyph-name="uni0157" unicode="&#x157;" horiz-adv-x="503" 
d="M265 408q22 53 58 84q39 31 86 31q46 0 70 -23q27 -27 27 -75q0 -38 -23 -59t-54 -21q-32 0 -49 13.5t-28 43.5q-10 24 -27 24q-16 0 -34.5 -29.5t-23.5 -78.5q-3 -27 -3 -83v-90q0 -47 8 -67q10 -25 27 -32q16 -8 41 -10v-36h-322v36q20 2 35 10q18 10 28 32q6 18 6 67
v226q0 39 -2 55q-3 22 -20 34q-17 11 -46 15v36h229q10 0 10 -10l-4 -93h11zM253 -118q0 -116 -151 -165l-12 34q44 17 66.5 31t22.5 32q0 11 -13 15q-65 19 -65 70q0 28 19.5 48.5t51.5 20.5q38 0 59.5 -23t21.5 -63z" />
    <glyph glyph-name="Rcaron" unicode="&#x158;" horiz-adv-x="764" 
d="M367 654h-43q-12 0 -16 -4q-5 -7 -5 -15v-267h48q66 0 88 37q22 38 22 115q0 71 -23 102.5t-71 31.5zM400 40v-40h-376v40q22 2 35 5q38 10 50 52q9 29 9 80v344q0 51 -9 80q-11 42 -50 52q-13 3 -35 5v40h386q114 0 184 -43t70 -135q0 -96 -101 -141q-42 -17 -92 -25
v-13q62 -7 104 -30q69 -37 81 -117q16 -104 52 -138q16 -13 53 -16v-40h-248q-36 42 -43 129q-1 12 -4 40.5t-4.5 39.5t-4.5 29.5t-8 30.5t-13 22q-14 20 -33 26t-51 6h-49v-146q0 -55 8 -80q12 -42 50 -52q12 -3 39 -5zM518 865l-112 -112h-85l-111 112l21 30l132 -57
l133 57z" />
    <glyph glyph-name="rcaron" unicode="&#x159;" horiz-adv-x="503" 
d="M265 408q22 53 58 84q39 31 86 31q46 0 70 -23q27 -27 27 -75q0 -38 -23 -59t-54 -21q-32 0 -49 13.5t-28 43.5q-10 24 -27 24q-16 0 -34.5 -29.5t-23.5 -78.5q-3 -27 -3 -83v-90q0 -47 8 -67q10 -25 27 -32q16 -8 41 -10v-36h-322v36q20 2 35 10q18 10 28 32q6 18 6 67
v226q0 39 -2 55q-3 22 -20 34q-17 11 -46 15v36h229q10 0 10 -10l-4 -93h11zM419 698l-123 -144h-77l-122 144l30 27l130 -85l130 85z" />
    <glyph glyph-name="Sacute" unicode="&#x15a;" horiz-adv-x="606" 
d="M574 216q0 -109 -75 -170t-189 -61q-55 0 -105.5 21t-76.5 52h-9l-37 -55h-36l-5 255h40q28 -95 89 -162.5t140 -67.5q112 0 112 91q0 44 -32.5 70.5t-123.5 64.5l-44 18.5t-41.5 20.5t-42 26.5t-35 32t-29.5 40.5t-17.5 50t-7.5 63q0 93 74 150.5t181 57.5q99 0 147 -59
h7l30 43h36l13 -230h-38q-19 67 -64 134q-46 70 -130 70q-52 0 -77 -23t-25 -60q0 -50 27.5 -73.5t97.5 -53.5l15 -6q106 -46 142 -71q89 -63 89 -168zM180 788l115 83q52 35 75 40q9 2 19 2q26 0 44 -17.5t18 -45.5q0 -53 -73 -67q-47 -9 -187 -28z" />
    <glyph glyph-name="sacute" unicode="&#x15b;" horiz-adv-x="486" 
d="M458 167q0 -81 -56.5 -130.5t-156.5 -49.5q-85 0 -140 59h-11l-24 -43h-31l-6 190h33q69 -169 180 -169q77 0 77 60q0 32 -26 50t-98 43q-31 11 -49 18.5t-42.5 23t-37.5 33t-22.5 45.5t-9.5 64q0 73 57 118.5t143 45.5q45 0 78.5 -15t49.5 -36h8l15 37h31l5 -155h-33
q-32 67 -67 98q-38 33 -87 33q-68 0 -68 -55q0 -30 23.5 -47t89.5 -40q44 -16 69 -27.5t53 -32t40.5 -49.5t12.5 -69zM121 596l104 104q22 21 31.5 29t26.5 16.5t33 8.5q24 0 41 -15.5t17 -41.5q0 -47 -61 -72q-17 -7 -174 -61z" />
    <glyph glyph-name="Scircumflex" unicode="&#x15c;" horiz-adv-x="606" 
d="M574 216q0 -109 -75 -170t-189 -61q-55 0 -105.5 21t-76.5 52h-9l-37 -55h-36l-5 255h40q28 -95 89 -162.5t140 -67.5q112 0 112 91q0 44 -32.5 70.5t-123.5 64.5l-44 18.5t-41.5 20.5t-42 26.5t-35 32t-29.5 40.5t-17.5 50t-7.5 63q0 93 74 150.5t181 57.5q99 0 147 -59
h7l30 43h36l13 -230h-38q-19 67 -64 134q-46 70 -130 70q-52 0 -77 -23t-25 -60q0 -50 27.5 -73.5t97.5 -53.5l15 -6q106 -46 142 -71q89 -63 89 -168zM455 783l-22 -30l-133 57l-132 -57l-21 30l111 112h85z" />
    <glyph glyph-name="scircumflex" unicode="&#x15d;" horiz-adv-x="486" 
d="M458 167q0 -81 -56.5 -130.5t-156.5 -49.5q-85 0 -140 59h-11l-24 -43h-31l-6 190h33q69 -169 180 -169q77 0 77 60q0 32 -26 50t-98 43q-31 11 -49 18.5t-42.5 23t-37.5 33t-22.5 45.5t-9.5 64q0 73 57 118.5t143 45.5q45 0 78.5 -15t49.5 -36h8l15 37h31l5 -155h-33
q-32 67 -67 98q-38 33 -87 33q-68 0 -68 -55q0 -30 23.5 -47t89.5 -40q44 -16 69 -27.5t53 -32t40.5 -49.5t12.5 -69zM391 589l-32 -28l-130 85l-130 -85l-30 28l122 143h77z" />
    <glyph glyph-name="uni015E" unicode="&#x15e;" horiz-adv-x="606" 
d="M424 -126q0 -43 -38 -64.5t-96 -21.5q-64 0 -108 25l15 32q34 -19 66 -19q60 0 60 45q0 41 -36 41q-21 0 -34 -9l-36 19l30 71q-81 17 -119 65h-9l-37 -55h-36l-5 255h40q28 -95 89 -162.5t140 -67.5q112 0 112 91q0 44 -32.5 70.5t-123.5 64.5l-44 18.5t-41.5 20.5
t-42 26.5t-35 32t-29.5 40.5t-17.5 50t-7.5 63q0 93 74 150.5t181 57.5q99 0 147 -59h7l30 43h36l13 -230h-38q-19 67 -64 134q-46 70 -130 70q-52 0 -77 -23t-25 -60q0 -50 27.5 -73.5t97.5 -53.5l15 -6q106 -46 142 -71q89 -63 89 -168q0 -109 -75 -170t-189 -61
q-4 0 -12 0.5t-11 0.5l-20 -44q24 10 55 10q45 0 73.5 -20t28.5 -58z" />
    <glyph glyph-name="uni015F" unicode="&#x15f;" horiz-adv-x="486" 
d="M372 -121q0 -43 -38 -64.5t-96 -21.5q-64 0 -108 25l15 32q34 -19 66 -19q60 0 60 45q0 41 -36 41q-21 0 -34 -9l-36 19l28 67q-52 13 -88 52h-11l-24 -43h-31l-6 190h33q69 -169 180 -169q77 0 77 60q0 32 -26 50t-98 43q-31 11 -49 18.5t-42.5 23t-37.5 33t-22.5 45.5
t-9.5 64q0 73 57 118.5t143 45.5q45 0 78.5 -15t49.5 -36h8l15 37h31l5 -155h-33q-32 67 -67 98q-38 33 -87 33q-68 0 -68 -55q0 -30 23.5 -47t89.5 -40q44 -16 69 -27.5t53 -32t40.5 -49.5t12.5 -69q0 -81 -56.5 -130.5t-156.5 -49.5h-12l-18 -40q24 10 55 10
q45 0 73.5 -20t28.5 -58z" />
    <glyph glyph-name="Scaron" unicode="&#x160;" horiz-adv-x="606" 
d="M574 216q0 -109 -75 -170t-189 -61q-55 0 -105.5 21t-76.5 52h-9l-37 -55h-36l-5 255h40q28 -95 89 -162.5t140 -67.5q112 0 112 91q0 44 -32.5 70.5t-123.5 64.5l-44 18.5t-41.5 20.5t-42 26.5t-35 32t-29.5 40.5t-17.5 50t-7.5 63q0 93 74 150.5t181 57.5q99 0 147 -59
h7l30 43h36l13 -230h-38q-19 67 -64 134q-46 70 -130 70q-52 0 -77 -23t-25 -60q0 -50 27.5 -73.5t97.5 -53.5l15 -6q106 -46 142 -71q89 -63 89 -168zM455 865l-112 -112h-85l-111 112l21 30l132 -57l133 57z" />
    <glyph glyph-name="scaron" unicode="&#x161;" horiz-adv-x="486" 
d="M458 167q0 -81 -56.5 -130.5t-156.5 -49.5q-85 0 -140 59h-11l-24 -43h-31l-6 190h33q69 -169 180 -169q77 0 77 60q0 32 -26 50t-98 43q-31 11 -49 18.5t-42.5 23t-37.5 33t-22.5 45.5t-9.5 64q0 73 57 118.5t143 45.5q45 0 78.5 -15t49.5 -36h8l15 37h31l5 -155h-33
q-32 67 -67 98q-38 33 -87 33q-68 0 -68 -55q0 -30 23.5 -47t89.5 -40q44 -16 69 -27.5t53 -32t40.5 -49.5t12.5 -69zM394 706l-123 -144h-77l-122 144l30 27l130 -85l130 85z" />
    <glyph glyph-name="Tcommaaccent" unicode="&#x162;" horiz-adv-x="730" 
d="M458 177q0 -58 7 -80q15 -43 51 -52q13 -3 35 -5v-40h-373v40q22 2 36 5q37 10 50 52q8 22 8 80v476h-15q-34 0 -59.5 -12t-55.5 -45q-38 -40 -82 -136h-38l21 238h644l21 -238h-38q-43 88 -85 136q-48 57 -112 57h-15v-476zM450 -128q0 -116 -151 -165l-12 34
q44 17 66.5 31t22.5 32q0 11 -13 15q-65 19 -65 70q0 28 19.5 48.5t51.5 20.5q38 0 59.5 -23t21.5 -63z" />
    <glyph glyph-name="tcommaaccent" unicode="&#x163;" horiz-adv-x="413" 
d="M381 89l26 -32q-57 -70 -170 -70q-77 0 -119 30q-41 29 -41 108v335h-68v42q78 17 126 63t73 126h46v-180h127v-51h-127v-334q0 -34 12 -50.5t44 -16.5q44 0 71 30zM306 -118q0 -116 -151 -165l-12 34q44 17 66.5 31t22.5 32q0 11 -13 15q-65 19 -65 70q0 28 19.5 48.5
t51.5 20.5q38 0 59.5 -23t21.5 -63z" />
    <glyph glyph-name="Tcaron" unicode="&#x164;" horiz-adv-x="730" 
d="M458 177q0 -58 7 -80q15 -43 51 -52q13 -3 35 -5v-40h-373v40q22 2 36 5q37 10 50 52q8 22 8 80v476h-15q-34 0 -59.5 -12t-55.5 -45q-38 -40 -82 -136h-38l21 238h644l21 -238h-38q-43 88 -85 136q-48 57 -112 57h-15v-476zM520 865l-112 -112h-85l-111 112l21 30
l132 -57l133 57z" />
    <glyph glyph-name="tcaron" unicode="&#x165;" horiz-adv-x="413" 
d="M381 89l26 -32q-57 -70 -170 -70q-77 0 -119 30q-41 29 -41 108v335h-68v42q78 17 126 63t73 126h46v-180h127v-51h-127v-334q0 -34 12 -50.5t44 -16.5q44 0 71 30zM292 539l27 221h118l-106 -221h-39z" />
    <glyph glyph-name="Tbar" unicode="&#x166;" horiz-adv-x="730" 
d="M458 177q0 -58 7 -80q15 -43 51 -52q13 -3 35 -5v-40h-373v40q22 2 36 5q37 10 50 52q8 22 8 80v210h-145v45h145v221h-15q-34 0 -59.5 -12t-55.5 -45q-38 -40 -82 -136h-38l21 238h644l21 -238h-38q-43 88 -85 136q-48 57 -112 57h-15v-221h145v-45h-145v-210z" />
    <glyph glyph-name="tbar" unicode="&#x167;" horiz-adv-x="413" 
d="M11 321v49h66v90h-68v42q78 17 126 63t73 126h46v-180h127v-51h-127v-90h126v-49h-126v-195q0 -34 12 -50.5t44 -16.5q44 0 71 30l26 -32q-57 -70 -170 -70q-77 0 -119 30q-41 29 -41 108v196h-66z" />
    <glyph glyph-name="Utilde" unicode="&#x168;" horiz-adv-x="780" 
d="M671 241q0 -103 -35 -162q-53 -94 -240 -94q-202 0 -261 113q-29 56 -29 163v260q0 58 -8 80q-13 42 -50 52q-12 3 -35 5v40h372v-40q-22 -2 -35 -5q-37 -10 -51 -52q-8 -25 -8 -80v-298q0 -69 19 -108q21 -42 53.5 -59t83.5 -17q108 0 144 67q25 45 25 129v280
q0 75 -16 104q-12 22 -42 32q-16 5 -39 7v40h249v-40q-27 -3 -39 -7q-28 -10 -43 -33q-15 -25 -15 -103v-274zM592 891q-30 -137 -115 -137q-20 0 -69 11.5t-68 11.5q-46 0 -61 -39l-36 10q13 54 40.5 93t71.5 39q24 0 72 -11t67 -11q28 0 42 8.5t21 32.5z" />
    <glyph glyph-name="utilde" unicode="&#x169;" horiz-adv-x="677" 
d="M585 145q0 -45 9 -67q9 -23 27 -32q22 -9 36 -10v-36h-225q-11 0 -11 11v70h-10q-19 -39 -49 -61q-42 -32 -105 -32q-85 0 -125 37q-47 47 -47 128v214q0 48 -8 68q-9 21 -23 29q-13 7 -40 11v36h240q10 0 10 -11q-2 -42 -2 -82v-273q0 -50 13 -67q15 -23 47 -23
q35 0 61 38q16 22 22 56q4 24 4 57v161q0 51 -8 68q-9 22 -24 29q-13 7 -40 11v36h241q10 0 10 -11q-3 -32 -3 -82v-273zM504 729q-30 -137 -115 -137q-21 0 -69.5 11.5t-67.5 11.5q-46 0 -62 -39l-35 10q13 54 40.5 93t71.5 39q24 0 68 -11t63 -11q58 0 70 41z" />
    <glyph glyph-name="Umacron" unicode="&#x16a;" horiz-adv-x="780" 
d="M671 241q0 -103 -35 -162q-53 -94 -240 -94q-202 0 -261 113q-29 56 -29 163v260q0 58 -8 80q-13 42 -50 52q-12 3 -35 5v40h372v-40q-22 -2 -35 -5q-37 -10 -51 -52q-8 -25 -8 -80v-298q0 -69 19 -108q21 -42 53.5 -59t83.5 -17q108 0 144 67q25 45 25 129v280
q0 75 -16 104q-12 22 -42 32q-16 5 -39 7v40h249v-40q-27 -3 -39 -7q-28 -10 -43 -33q-15 -25 -15 -103v-274zM564 776h-273v71h273v-71z" />
    <glyph glyph-name="umacron" unicode="&#x16b;" horiz-adv-x="677" 
d="M585 145q0 -45 9 -67q9 -23 27 -32q22 -9 36 -10v-36h-225q-11 0 -11 11v70h-10q-19 -39 -49 -61q-42 -32 -105 -32q-85 0 -125 37q-47 47 -47 128v214q0 48 -8 68q-9 21 -23 29q-13 7 -40 11v36h240q10 0 10 -11q-2 -42 -2 -82v-273q0 -50 13 -67q15 -23 47 -23
q35 0 61 38q16 22 22 56q4 24 4 57v161q0 51 -8 68q-9 22 -24 29q-13 7 -40 11v36h241q10 0 10 -11q-3 -32 -3 -82v-273zM460 606h-266v70h266v-70z" />
    <glyph glyph-name="Ubreve" unicode="&#x16c;" horiz-adv-x="780" 
d="M671 241q0 -103 -35 -162q-53 -94 -240 -94q-202 0 -261 113q-29 56 -29 163v260q0 58 -8 80q-13 42 -50 52q-12 3 -35 5v40h372v-40q-22 -2 -35 -5q-37 -10 -51 -52q-8 -25 -8 -80v-298q0 -69 19 -108q21 -42 53.5 -59t83.5 -17q108 0 144 67q25 45 25 129v280
q0 75 -16 104q-12 22 -42 32q-16 5 -39 7v40h249v-40q-27 -3 -39 -7q-28 -10 -43 -33q-15 -25 -15 -103v-274zM428 750q-58 0 -95.5 37.5t-45.5 106.5l41 11q30 -65 100 -65q38 0 61.5 15.5t38.5 49.5l41 -11q-8 -69 -45.5 -106.5t-95.5 -37.5z" />
    <glyph glyph-name="ubreve" unicode="&#x16d;" horiz-adv-x="677" 
d="M585 145q0 -45 9 -67q9 -23 27 -32q22 -9 36 -10v-36h-225q-11 0 -11 11v70h-10q-19 -39 -49 -61q-42 -32 -105 -32q-85 0 -125 37q-47 47 -47 128v214q0 48 -8 68q-9 21 -23 29q-13 7 -40 11v36h240q10 0 10 -11q-2 -42 -2 -82v-273q0 -50 13 -67q15 -23 47 -23
q35 0 61 38q16 22 22 56q4 24 4 57v161q0 51 -8 68q-9 22 -24 29q-13 7 -40 11v36h241q10 0 10 -11q-3 -32 -3 -82v-273zM317 567q-58 0 -96 41.5t-43 109.5l41 11q16 -38 38 -54t60 -16q39 0 60.5 15.5t37.5 54.5l41 -11q-5 -68 -43 -109.5t-96 -41.5z" />
    <glyph glyph-name="Uring" unicode="&#x16e;" horiz-adv-x="780" 
d="M671 241q0 -103 -35 -162q-53 -94 -240 -94q-202 0 -261 113q-29 56 -29 163v260q0 58 -8 80q-13 42 -50 52q-12 3 -35 5v40h372v-40q-22 -2 -35 -5q-37 -10 -51 -52q-8 -25 -8 -80v-298q0 -69 19 -108q21 -42 53.5 -59t83.5 -17q108 0 144 67q25 45 25 129v280
q0 75 -16 104q-12 22 -42 32q-16 5 -39 7v40h249v-40q-27 -3 -39 -7q-28 -10 -43 -33q-15 -25 -15 -103v-274zM559 808q0 -40 -28 -67t-69 -27q-40 0 -68 27t-28 67q0 41 28 68t68 27q41 0 69 -27t28 -68zM408 808q0 -26 15 -42.5t39 -16.5q25 0 40 16.5t15 42.5
q0 27 -15 43.5t-40 16.5q-24 0 -39 -16.5t-15 -43.5z" />
    <glyph glyph-name="uring" unicode="&#x16f;" horiz-adv-x="677" 
d="M585 145q0 -45 9 -67q9 -23 27 -32q22 -9 36 -10v-36h-225q-11 0 -11 11v70h-10q-19 -39 -49 -61q-42 -32 -105 -32q-85 0 -125 37q-47 47 -47 128v214q0 48 -8 68q-9 21 -23 29q-13 7 -40 11v36h240q10 0 10 -11q-2 -42 -2 -82v-273q0 -50 13 -67q15 -23 47 -23
q35 0 61 38q16 22 22 56q4 24 4 57v161q0 51 -8 68q-9 22 -24 29q-13 7 -40 11v36h241q10 0 10 -11q-3 -32 -3 -82v-273zM404 659q0 -44 -29 -71.5t-72 -27.5t-72 27.5t-29 71.5t29 72t72 28t72 -28t29 -72zM244 659q0 -29 16 -46.5t43 -17.5t43 17.5t16 46.5q0 30 -16 47
t-43 17t-43 -17t-16 -47z" />
    <glyph glyph-name="Uhungarumlaut" unicode="&#x170;" horiz-adv-x="780" 
d="M671 241q0 -103 -35 -162q-53 -94 -240 -94q-202 0 -261 113q-29 56 -29 163v260q0 58 -8 80q-13 42 -50 52q-12 3 -35 5v40h372v-40q-22 -2 -35 -5q-37 -10 -51 -52q-8 -25 -8 -80v-298q0 -69 19 -108q21 -42 53.5 -59t83.5 -17q108 0 144 67q25 45 25 129v280
q0 75 -16 104q-12 22 -42 32q-16 5 -39 7v40h249v-40q-27 -3 -39 -7q-28 -10 -43 -33q-15 -25 -15 -103v-274zM438 949q23 0 36 -13t13 -34q0 -23 -10 -38.5t-32 -35.5t-98 -80h-41l21.5 52.5l21.5 53l16 37.5q25 58 73 58zM618 949q23 0 36 -13t13 -34q0 -23 -10 -38.5
t-32 -35.5t-98 -80h-41l21.5 52.5l21.5 53l16 37.5q25 58 73 58z" />
    <glyph glyph-name="uhungarumlaut" unicode="&#x171;" horiz-adv-x="677" 
d="M585 145q0 -45 9 -67q9 -23 27 -32q22 -9 36 -10v-36h-225q-11 0 -11 11v70h-10q-19 -39 -49 -61q-42 -32 -105 -32q-85 0 -125 37q-47 47 -47 128v214q0 48 -8 68q-9 21 -23 29q-13 7 -40 11v36h240q10 0 10 -11q-2 -42 -2 -82v-273q0 -50 13 -67q15 -23 47 -23
q35 0 61 38q16 22 22 56q4 24 4 57v161q0 51 -8 68q-9 22 -24 29q-13 7 -40 11v36h241q10 0 10 -11q-3 -32 -3 -82v-273zM312 788q25 0 38.5 -14.5t13.5 -37.5q0 -15 -6.5 -29.5t-14 -23l-22.5 -24.5l-100 -102l-32 19q30 95 52 154q24 58 71 58zM498 788q25 0 38.5 -14.5
t13.5 -37.5q0 -15 -6.5 -29.5t-14 -23l-22.5 -24.5l-101 -102l-32 19q37 110 53 154q22 58 71 58z" />
    <glyph glyph-name="Uogonek" unicode="&#x172;" horiz-adv-x="780" 
d="M492 -216q-95 -5 -152 18.5t-57 71.5q0 33 38.5 59.5t101.5 53.5q-22 -2 -36 -2q-87 1 -155.5 29.5t-96.5 83.5q-29 56 -29 163v260q0 58 -8 80q-13 42 -50 52q-12 3 -35 5v40h372v-40q-22 -2 -35 -5q-37 -10 -51 -52q-8 -25 -8 -80v-298q0 -69 19 -108q21 -42 53.5 -59
t83.5 -17q108 0 144 67q25 45 25 129v280q0 75 -16 104q-12 22 -42 32q-16 5 -39 7v40h249v-40q-27 -3 -39 -7q-28 -10 -43 -33q-15 -25 -15 -103v-274q0 -103 -35 -162q-18 -31 -49.5 -50.5t-105.5 -41.5q-31 -10 -51 -35.5t-20 -60.5q0 -59 82 -67v-40z" />
    <glyph glyph-name="uogonek" unicode="&#x173;" horiz-adv-x="677" 
d="M543 0q-55 0 -89 -31t-34 -78q0 -59 82 -67v-40q-95 -5 -152 18.5t-57 71.5q0 73 128 120v87h-10q-19 -39 -49 -61q-42 -32 -105 -32q-85 0 -125 37q-47 47 -47 128v214q0 48 -8 68q-9 21 -23 29q-13 7 -40 11v36h240q10 0 10 -11q-2 -42 -2 -82v-273q0 -50 13 -67
q15 -23 47 -23q35 0 61 38q16 22 22 56q4 24 4 57v161q0 51 -8 68q-9 22 -24 29q-13 7 -40 11v36h241q10 0 10 -11q-3 -32 -3 -82v-273q0 -45 9 -67q9 -23 27 -32q22 -9 36 -10v-36h-114z" />
    <glyph glyph-name="Wcircumflex" unicode="&#x174;" horiz-adv-x="1128" 
d="M715 -4l-143 463h-9l-150 -463h-116l-163 522q-22 68 -43 94q-22 27 -45 38q-17 7 -38 9v39h379v-39q-18 -1 -37 -7q-31 -9 -31 -43q0 -18 20 -96l88 -280h10l104 321q-15 42 -27 62q-16 27 -42 36q-17 5 -35 7v39h377v-39q-25 -2 -43 -7q-34 -9 -34 -43q0 -29 20 -96
l86 -280h11l90 283q18 59 18 87q0 37 -32 48q-16 6 -47 8v39h243v-39q-26 -3 -48 -14q-23 -11 -40 -36q-15 -20 -41 -100l-167 -513h-115zM738 783l-22 -30l-133 57l-132 -57l-21 30l111 112h85z" />
    <glyph glyph-name="wcircumflex" unicode="&#x175;" horiz-adv-x="897" 
d="M567 -3l-104 324h-7l-117 -324h-109l-129 359q-18 51 -29 69q-17 28 -32 38q-14 10 -35 12v36h323v-36q-24 -2 -33 -9q-15 -12 -15 -35q0 -25 15 -70l55 -179h10l73 203l-16 41q-15 32 -27 40q-14 7 -28 9v36h310v-36q-21 -1 -35 -9q-17 -10 -17 -37q0 -22 13 -68
l50 -180h10l64 177q15 44 15 74q0 23 -18 34q-14 8 -32 9v36h174v-36q-17 -2 -33 -12q-15 -7 -27 -26q-9 -14 -34 -84l-125 -356h-110zM613 589l-32 -28l-130 85l-130 -85l-30 28l122 143h77z" />
    <glyph glyph-name="Ycircumflex" unicode="&#x176;" horiz-adv-x="683" 
d="M249 291l-144 274q-27 51 -49 69t-63 24v40h370v-40q-28 -2 -41 -7q-51 -20 -8 -104l94 -184h9l87 164q29 52 29 88q0 26 -28 36q-12 4 -40 7v40h226v-40q-44 -7 -71 -35t-58 -89l-128 -243v-102q0 -63 9 -92q7 -23 18.5 -33.5t31.5 -17.5q13 -4 38 -6v-40h-381v40
q26 2 39 6q20 7 31.5 17.5t18.5 33.5q10 27 10 92v102zM559 783l-22 -30l-133 57l-132 -57l-21 30l111 112h85z" />
    <glyph glyph-name="ycircumflex" unicode="&#x177;" horiz-adv-x="571" 
d="M326 -23q-22 -57 -38 -83t-39 -49q-48 -48 -121 -48q-47 0 -76.5 22.5t-29.5 64.5q0 26 18.5 46.5t48.5 20.5q49 0 70 -51q11 -21 13 -24q8 -11 23 -11q25 0 48 47q15 32 15 52q0 14 -7 31l-149 361l-30 69q-16 29 -31 38q-15 10 -35 12v36h329v-36q-23 -2 -38 -8
q-21 -10 -21 -36q0 -24 17 -71l62 -168h10l64 166q19 49 19 73t-19 36q-13 6 -35 8v36h179v-36q-15 -1 -34 -11q-17 -11 -28 -27q-12 -17 -37 -84zM472 589l-32 -28l-130 85l-130 -85l-30 28l122 143h77z" />
    <glyph glyph-name="Ydieresis" unicode="&#x178;" horiz-adv-x="683" 
d="M249 291l-144 274q-27 51 -49 69t-63 24v40h370v-40q-28 -2 -41 -7q-51 -20 -8 -104l94 -184h9l87 164q29 52 29 88q0 26 -28 36q-12 4 -40 7v40h226v-40q-44 -7 -71 -35t-58 -89l-128 -243v-102q0 -63 9 -92q7 -23 18.5 -33.5t31.5 -17.5q13 -4 38 -6v-40h-381v40
q26 2 39 6q20 7 31.5 17.5t18.5 33.5q10 27 10 92v102zM281 750q-31 0 -52 20.5t-21 52.5q0 33 21 53.5t52 20.5t52 -20.5t21 -53.5q0 -32 -21 -52.5t-52 -20.5zM497 750q-31 0 -52 20.5t-21 52.5q0 33 21 53.5t52 20.5t52 -20.5t21 -53.5q0 -32 -21 -52.5t-52 -20.5z" />
    <glyph glyph-name="Zacute" unicode="&#x179;" horiz-adv-x="670" 
d="M633 698v-26l-372 -628h63q58 0 93 10t66 37q67 56 122 161h42l-54 -252h-563v28l394 626h-80q-88 0 -137 -36q-28 -19 -58 -58t-52 -84h-40l31 222h545zM275 788l115 83q52 35 75 40q9 2 19 2q26 0 44 -17.5t18 -45.5q0 -53 -73 -67q-47 -9 -187 -28z" />
    <glyph glyph-name="zacute" unicode="&#x17a;" horiz-adv-x="537" 
d="M515 203l-30 -203h-465v24l273 444v4h-62q-47 0 -95 -44q-42 -44 -67 -109h-36l31 192h436v-28l-268 -443v-5h68q61 0 112 58q39 46 68 110h35zM179 596l104 104q22 21 31.5 29t26.5 16.5t33 8.5q24 0 41 -15.5t17 -41.5q0 -47 -61 -72q-17 -7 -174 -61z" />
    <glyph glyph-name="Zdotaccent" unicode="&#x17b;" horiz-adv-x="670" 
d="M633 698v-26l-372 -628h63q58 0 93 10t66 37q67 56 122 161h42l-54 -252h-563v28l394 626h-80q-88 0 -137 -36q-28 -19 -58 -58t-52 -84h-40l31 222h545zM370 743q-41 0 -68.5 26.5t-27.5 64.5t27.5 65t68.5 27q40 0 67 -27t27 -65t-26.5 -64.5t-67.5 -26.5z" />
    <glyph glyph-name="zdotaccent" unicode="&#x17c;" horiz-adv-x="537" 
d="M515 203l-30 -203h-465v24l273 444v4h-62q-47 0 -95 -44q-42 -44 -67 -109h-36l31 192h436v-28l-268 -443v-5h68q61 0 112 58q39 46 68 110h35zM292 566q-41 0 -67.5 26.5t-26.5 64.5t27 64.5t67 26.5q39 0 65.5 -26.5t26.5 -64.5t-26 -64.5t-66 -26.5z" />
    <glyph glyph-name="Zcaron" unicode="&#x17d;" horiz-adv-x="670" 
d="M633 698v-26l-372 -628h63q58 0 93 10t66 37q67 56 122 161h42l-54 -252h-563v28l394 626h-80q-88 0 -137 -36q-28 -19 -58 -58t-52 -84h-40l31 222h545zM517 868l-112 -112h-85l-111 112l21 30l132 -57l133 57z" />
    <glyph glyph-name="zcaron" unicode="&#x17e;" horiz-adv-x="537" 
d="M515 203l-30 -203h-465v24l273 444v4h-62q-47 0 -95 -44q-42 -44 -67 -109h-36l31 192h436v-28l-268 -443v-5h68q61 0 112 58q39 46 68 110h35zM443 698l-123 -144h-77l-122 144l30 27l130 -85l130 85z" />
    <glyph glyph-name="uni0192" unicode="&#x192;" horiz-adv-x="561" 
d="M42 -182q-71 0 -111 26.5t-40 70.5q0 32 19 49.5t47 17.5q31 0 47.5 -18t16.5 -47q0 -7 -2 -21t-1 -23q2 -20 23 -20q29 0 43 52q20 81 53 267t42 230h-92l10 45h93q30 112 105 178.5t160 66.5q69 0 109.5 -28t40.5 -78q0 -34 -20 -51t-53 -17q-34 0 -49.5 19t-14.5 45
q0 10 3.5 28t3.5 27q-1 19 -22 19q-20 0 -33 -28q-22 -45 -48 -181h107l-10 -45h-105q-41 -237 -76 -375q-25 -99 -89 -154t-157 -55z" />
    <glyph glyph-name="Aringacute" unicode="&#x1fa;" horiz-adv-x="737" 
d="M286 485l-81 -235h172l-81 235h-10zM237 40v-40h-238v40q27 3 46 14q23 13 41 40q15 21 41 95l188 513h113l180 -517q22 -64 46 -97q15 -24 44 -38q21 -9 34 -10v-40h-385v40q27 2 40 7q19 6 28 15.5t9 30.5q0 20 -25 93l-7 19h-203l-8 -24q-20 -56 -20 -79t8.5 -34.5
t26.5 -19.5q14 -6 41 -8zM479 832q0 -40 -28 -67t-69 -27q-40 0 -68 27t-28 67q0 41 28 68t68 27q41 0 69 -27t28 -68zM328 832q0 -26 15 -42.5t39 -16.5q25 0 40 16.5t15 42.5q0 27 -15 43.5t-40 16.5q-24 0 -39 -16.5t-15 -43.5zM253 989l115 83q52 35 75 40q9 2 19 2
q26 0 44 -17.5t18 -45.5q0 -53 -73 -67q-47 -9 -187 -28z" />
    <glyph glyph-name="aringacute" unicode="&#x1fb;" horiz-adv-x="569" 
d="M556 19q-47 -32 -119 -32q-59 0 -83 20q-26 22 -31 59h-11q-14 -32 -52 -55.5t-89 -23.5q-60 0 -102.5 33t-42.5 96q0 60 38 95q34 34 127 59q56 14 80 25.5t32 27.5l2 97q0 34 -11.5 49t-37.5 15t-47 -24q-5 -9 -20 -60q-13 -59 -73 -59q-31 0 -49.5 16.5t-18.5 42.5
q0 29 21 56q58 69 193 69q107 0 163 -28.5t56 -97.5l-2 -262q0 -67 10 -81q9 -12 29 -12q14 0 26 7zM303 278q-7 -7 -43 -27q-36 -21 -44 -33q-24 -31 -24 -78q0 -79 52 -79q43 0 59 37v180zM366 655q0 -44 -29 -71.5t-72 -27.5t-72 27.5t-29 71.5t29 72t72 28t72 -28
t29 -72zM206 655q0 -29 16 -46.5t43 -17.5t43 17.5t16 46.5q0 30 -16 47t-43 17t-43 -17t-16 -47zM137 807l115 83q52 35 75 40q9 2 19 2q26 0 44 -17.5t18 -45.5q0 -53 -73 -67q-47 -9 -187 -28z" />
    <glyph glyph-name="AEacute" unicode="&#x1fc;" horiz-adv-x="1005" 
d="M214 40v-40h-247v40q28 3 48 15q24 13 45 39q28 37 62 95l268 459l-13 4q-11 4 -38 6v40h582l38 -219h-39q-36 86 -85 131q-27 24 -59.5 34t-90.5 10h-30q-19 0 -26 -8t-7 -24v-240h26q73 0 95 28q28 34 34 93h40v-286h-40q-7 59 -35 94q-21 27 -94 27h-26v-194
q0 -59 17 -78q17 -22 60 -22h16q54 0 115 51q56 47 109 153h40l-46 -248h-594v40q27 2 38 6q38 12 50 51q10 32 10 92v71h-218l-48 -84q-31 -55 -31 -82q0 -35 35 -47q14 -5 39 -7zM437 626h-9l-183 -321h192v321zM549 788l115 83q52 35 75 40q9 2 19 2q26 0 44 -17.5
t18 -45.5q0 -53 -73 -67q-47 -9 -187 -28z" />
    <glyph glyph-name="aeacute" unicode="&#x1fd;" horiz-adv-x="817" 
d="M567 -13q-92 0 -168 53q-33 22 -53 64h-7q-45 -116 -169 -116q-58 0 -101 33t-43 95q0 59 37 96q33 32 128 59q96 23 112 52q0 1 1 48t1 50q0 63 -49 63q-28 0 -47 -24q-7 -10 -20 -60q-14 -58 -73 -58q-31 0 -49.5 16.5t-18.5 42.5q0 31 20 55q58 69 194 69
q100 0 152 -54h9q51 54 135 54q109 0 168.5 -60t59.5 -149q0 -44 -3 -56h-300q4 -153 49 -193q30 -29 77 -29q108 0 150 117l32 -12q-46 -156 -224 -156zM625 337q0 99 -21 128q-15 20 -43 20q-30 0 -45 -21q-28 -40 -32 -164h109q32 0 32 37zM303 278q-8 -9 -44 -27
q-36 -21 -44 -33q-23 -29 -23 -77q0 -80 51 -80q44 0 60 50v167zM327 596l104 104q22 21 31.5 29t26.5 16.5t33 8.5q24 0 41 -15.5t17 -41.5q0 -47 -61 -72q-17 -7 -174 -61z" />
    <glyph glyph-name="Oslashacute" unicode="&#x1fe;" horiz-adv-x="756" 
d="M226 349q0 -90 10 -157l258 404q-17 34 -45 53q-28 20 -71 20t-72 -20q-38 -27 -59 -94t-21 -206zM378 29q43 0 71 20q39 26 59.5 92.5t20.5 207.5q0 118 -16 188l-261 -410q18 -52 54 -78q29 -20 72 -20zM378 -15q-104 0 -185 49l-60 -94l-41 25l62 97
q-124 103 -124 286q0 163 98 264t250 101q92 0 166 -38l55 86l41 -25l-55 -86q67 -48 104.5 -126t37.5 -176q0 -162 -98 -262.5t-251 -100.5zM254 788l115 83q52 35 75 40q9 2 19 2q26 0 44 -17.5t18 -45.5q0 -53 -73 -67q-47 -9 -187 -28z" />
    <glyph glyph-name="oslashacute" unicode="&#x1ff;" horiz-adv-x="604" 
d="M213 256q0 -88 7 -131l149 315q-8 15 -19 26q-17 17 -48 17t-48 -17q-22 -21 -31.5 -66t-9.5 -144zM302 28q30 0 48 18q22 21 31.5 66.5t9.5 143.5q0 76 -6 119l-146 -311q6 -10 15 -18q20 -18 48 -18zM302 -13q-46 0 -93 14l-43 -92l-39 18l43 90q-66 33 -104.5 94.5
t-38.5 144.5q0 122 80 195.5t195 73.5q49 0 99 -16l44 93l39 -17l-44 -93q63 -33 100.5 -94t37.5 -142q0 -122 -80.5 -195.5t-195.5 -73.5zM198 596l104 104q22 21 31.5 29t26.5 16.5t33 8.5q24 0 41 -15.5t17 -41.5q0 -47 -61 -72q-17 -7 -174 -61z" />
    <glyph glyph-name="uni0218" unicode="&#x218;" horiz-adv-x="606" 
d="M574 216q0 -109 -75 -170t-189 -61q-55 0 -105.5 21t-76.5 52h-9l-37 -55h-36l-5 255h40q28 -95 89 -162.5t140 -67.5q112 0 112 91q0 44 -32.5 70.5t-123.5 64.5l-44 18.5t-41.5 20.5t-42 26.5t-35 32t-29.5 40.5t-17.5 50t-7.5 63q0 93 74 150.5t181 57.5q99 0 147 -59
h7l30 43h36l13 -230h-38q-19 67 -64 134q-46 70 -130 70q-52 0 -77 -23t-25 -60q0 -50 27.5 -73.5t97.5 -53.5l15 -6q106 -46 142 -71q89 -63 89 -168zM376 -128q0 -116 -151 -165l-12 34q44 17 66.5 31t22.5 32q0 11 -13 15q-65 19 -65 70q0 28 19.5 48.5t51.5 20.5
q38 0 59.5 -23t21.5 -63z" />
    <glyph glyph-name="uni0219" unicode="&#x219;" horiz-adv-x="486" 
d="M458 167q0 -81 -56.5 -130.5t-156.5 -49.5q-85 0 -140 59h-11l-24 -43h-31l-6 190h33q69 -169 180 -169q77 0 77 60q0 32 -26 50t-98 43q-31 11 -49 18.5t-42.5 23t-37.5 33t-22.5 45.5t-9.5 64q0 73 57 118.5t143 45.5q45 0 78.5 -15t49.5 -36h8l15 37h31l5 -155h-33
q-32 67 -67 98q-38 33 -87 33q-68 0 -68 -55q0 -30 23.5 -47t89.5 -40q44 -16 69 -27.5t53 -32t40.5 -49.5t12.5 -69zM333 -118q0 -116 -151 -165l-12 34q44 17 66.5 31t22.5 32q0 11 -13 15q-65 19 -65 70q0 28 19.5 48.5t51.5 20.5q38 0 59.5 -23t21.5 -63z" />
    <glyph glyph-name="uni021A" unicode="&#x21a;" horiz-adv-x="730" 
d="M458 177q0 -58 7 -80q15 -43 51 -52q13 -3 35 -5v-40h-373v40q22 2 36 5q37 10 50 52q8 22 8 80v476h-15q-34 0 -59.5 -12t-55.5 -45q-38 -40 -82 -136h-38l21 238h644l21 -238h-38q-43 88 -85 136q-48 57 -112 57h-15v-476zM450 -128q0 -116 -151 -165l-12 34
q44 17 66.5 31t22.5 32q0 11 -13 15q-65 19 -65 70q0 28 19.5 48.5t51.5 20.5q38 0 59.5 -23t21.5 -63z" />
    <glyph glyph-name="uni021B" unicode="&#x21b;" horiz-adv-x="413" 
d="M381 89l26 -32q-57 -70 -170 -70q-77 0 -119 30q-41 29 -41 108v335h-68v42q78 17 126 63t73 126h46v-180h127v-51h-127v-334q0 -34 12 -50.5t44 -16.5q44 0 71 30zM306 -118q0 -116 -151 -165l-12 34q44 17 66.5 31t22.5 32q0 11 -13 15q-65 19 -65 70q0 28 19.5 48.5
t51.5 20.5q38 0 59.5 -23t21.5 -63z" />
    <glyph glyph-name="uni0237" unicode="&#x237;" horiz-adv-x="325" 
d="M88 -52v418q0 49 -8 68q-6 15 -23 28q-20 10 -39 13v36h241q8 0 8 -10q0 -8 -1 -34.5t-1 -47.5v-365q0 -80 -26.5 -127t-68.5 -81q-65 -50 -150 -50q-69 0 -107 25q-43 30 -43 78q0 33 20.5 52.5t55.5 19.5q36 0 56.5 -17t20.5 -45q0 -14 -7 -35q-8 -14 -8 -22
q0 -19 25 -19q27 0 43 32q12 25 12 83z" />
    <glyph glyph-name="circumflex" unicode="&#x2c6;" 
d="M391 592l-32 -28l-130 85l-130 -85l-30 28l122 143h77z" />
    <glyph glyph-name="caron" unicode="&#x2c7;" 
d="M391 701l-123 -144h-77l-122 144l30 27l130 -85l130 85z" />
    <glyph glyph-name="breve" unicode="&#x2d8;" 
d="M230 560q-58 0 -96 41.5t-43 109.5l41 11q16 -38 38 -54t60 -16q39 0 60.5 15.5t37.5 54.5l41 -11q-5 -68 -43 -109.5t-96 -41.5z" />
    <glyph glyph-name="dotaccent" unicode="&#x2d9;" 
d="M231 571q-41 0 -67.5 26.5t-26.5 64.5t27 64.5t67 26.5q39 0 65.5 -26.5t26.5 -64.5t-26 -64.5t-66 -26.5z" />
    <glyph glyph-name="ring" unicode="&#x2da;" 
d="M331 660q0 -44 -29 -71.5t-72 -27.5t-72 27.5t-29 71.5t29 72t72 28t72 -28t29 -72zM171 660q0 -29 16 -46.5t43 -17.5t43 17.5t16 46.5q0 30 -16 47t-43 17t-43 -17t-16 -47z" />
    <glyph glyph-name="ogonek" unicode="&#x2db;" 
d="M334 -216q-94 -5 -151 18.5t-57 71.5q0 78 131 126h53q-31 -30 -44.5 -53.5t-13.5 -55.5q0 -59 82 -67v-40z" />
    <glyph glyph-name="tilde" unicode="&#x2dc;" 
d="M408 722q-30 -137 -115 -137q-21 0 -69.5 11.5t-67.5 11.5q-46 0 -62 -39l-35 10q13 54 40.5 93t71.5 39q24 0 68 -11t63 -11q58 0 70 41z" />
    <glyph glyph-name="hungarumlaut" unicode="&#x2dd;" 
d="M176 781q25 0 38.5 -14.5t13.5 -37.5q0 -15 -6.5 -29.5t-14 -23l-22.5 -24.5l-100 -102l-32 19q30 95 52 154q24 58 71 58zM362 781q25 0 38.5 -14.5t13.5 -37.5q0 -15 -6.5 -29.5t-14 -23l-22.5 -24.5l-101 -102l-32 19q37 110 53 154q22 58 71 58z" />
    <glyph glyph-name="Wgrave" unicode="&#x1e80;" horiz-adv-x="1128" 
d="M715 -4l-143 463h-9l-150 -463h-116l-163 522q-22 68 -43 94q-22 27 -45 38q-17 7 -38 9v39h379v-39q-18 -1 -37 -7q-31 -9 -31 -43q0 -18 20 -96l88 -280h10l104 321q-15 42 -27 62q-16 27 -42 36q-17 5 -35 7v39h377v-39q-25 -2 -43 -7q-34 -9 -34 -43q0 -29 20 -96
l86 -280h11l90 283q18 59 18 87q0 37 -32 48q-16 6 -47 8v39h243v-39q-26 -3 -48 -14q-23 -11 -40 -36q-15 -20 -41 -100l-167 -513h-115zM734 788l-12 -33q-144 20 -187 28q-72 14 -72 67q0 28 18 45.5t44 17.5q16 0 32.5 -6.5t25.5 -12.5l35 -23z" />
    <glyph glyph-name="wgrave" unicode="&#x1e81;" horiz-adv-x="897" 
d="M567 -3l-104 324h-7l-117 -324h-109l-129 359q-18 51 -29 69q-17 28 -32 38q-14 10 -35 12v36h323v-36q-24 -2 -33 -9q-15 -12 -15 -35q0 -25 15 -70l55 -179h10l73 203l-16 41q-15 32 -27 40q-14 7 -28 9v36h310v-36q-21 -1 -35 -9q-17 -10 -17 -37q0 -22 13 -68
l50 -180h10l64 177q15 44 15 74q0 23 -18 34q-14 8 -32 9v36h174v-36q-17 -2 -33 -12q-15 -7 -27 -26q-9 -14 -34 -84l-125 -356h-110zM601 596l-18 -32q-155 53 -174 61q-60 25 -60 72q0 27 16.5 42t40.5 15q16 0 33 -8.5t26.5 -16.5t31.5 -29z" />
    <glyph glyph-name="Wacute" unicode="&#x1e82;" horiz-adv-x="1128" 
d="M715 -4l-143 463h-9l-150 -463h-116l-163 522q-22 68 -43 94q-22 27 -45 38q-17 7 -38 9v39h379v-39q-18 -1 -37 -7q-31 -9 -31 -43q0 -18 20 -96l88 -280h10l104 321q-15 42 -27 62q-16 27 -42 36q-17 5 -35 7v39h377v-39q-25 -2 -43 -7q-34 -9 -34 -43q0 -29 20 -96
l86 -280h11l90 283q18 59 18 87q0 37 -32 48q-16 6 -47 8v39h243v-39q-26 -3 -48 -14q-23 -11 -40 -36q-15 -20 -41 -100l-167 -513h-115zM493 791l115 83q52 35 75 40q9 2 19 2q26 0 44 -17.5t18 -45.5q0 -53 -73 -67q-47 -9 -187 -28z" />
    <glyph glyph-name="wacute" unicode="&#x1e83;" horiz-adv-x="897" 
d="M567 -3l-104 324h-7l-117 -324h-109l-129 359q-18 51 -29 69q-17 28 -32 38q-14 10 -35 12v36h323v-36q-24 -2 -33 -9q-15 -12 -15 -35q0 -25 15 -70l55 -179h10l73 203l-16 41q-15 32 -27 40q-14 7 -28 9v36h310v-36q-21 -1 -35 -9q-17 -10 -17 -37q0 -22 13 -68
l50 -180h10l64 177q15 44 15 74q0 23 -18 34q-14 8 -32 9v36h174v-36q-17 -2 -33 -12q-15 -7 -27 -26q-9 -14 -34 -84l-125 -356h-110zM362 596l104 104q22 21 31.5 29t26.5 16.5t33 8.5q24 0 41 -15.5t17 -41.5q0 -47 -61 -72q-17 -7 -174 -61z" />
    <glyph glyph-name="Wdieresis" unicode="&#x1e84;" horiz-adv-x="1128" 
d="M715 -4l-143 463h-9l-150 -463h-116l-163 522q-22 68 -43 94q-22 27 -45 38q-17 7 -38 9v39h379v-39q-18 -1 -37 -7q-31 -9 -31 -43q0 -18 20 -96l88 -280h10l104 321q-15 42 -27 62q-16 27 -42 36q-17 5 -35 7v39h377v-39q-25 -2 -43 -7q-34 -9 -34 -43q0 -29 20 -96
l86 -280h11l90 283q18 59 18 87q0 37 -32 48q-16 6 -47 8v39h243v-39q-26 -3 -48 -14q-23 -11 -40 -36q-15 -20 -41 -100l-167 -513h-115zM458 750q-31 0 -52 20.5t-21 52.5q0 33 21 53.5t52 20.5t52 -20.5t21 -53.5q0 -32 -21 -52.5t-52 -20.5zM674 750q-31 0 -52 20.5
t-21 52.5q0 33 21 53.5t52 20.5t52 -20.5t21 -53.5q0 -32 -21 -52.5t-52 -20.5z" />
    <glyph glyph-name="wdieresis" unicode="&#x1e85;" horiz-adv-x="897" 
d="M567 -3l-104 324h-7l-117 -324h-109l-129 359q-18 51 -29 69q-17 28 -32 38q-14 10 -35 12v36h323v-36q-24 -2 -33 -9q-15 -12 -15 -35q0 -25 15 -70l55 -179h10l73 203l-16 41q-15 32 -27 40q-14 7 -28 9v36h310v-36q-21 -1 -35 -9q-17 -10 -17 -37q0 -22 13 -68
l50 -180h10l64 177q15 44 15 74q0 23 -18 34q-14 8 -32 9v36h174v-36q-17 -2 -33 -12q-15 -7 -27 -26q-9 -14 -34 -84l-125 -356h-110zM538 586q-31 0 -51 19.5t-20 51.5q0 31 20.5 51t50.5 20t50.5 -20t20.5 -51q0 -32 -20.5 -51.5t-50.5 -19.5zM329 586q-31 0 -51 19.5
t-20 51.5q0 31 20.5 51t50.5 20t50 -20t20 -51q0 -32 -20 -51.5t-50 -19.5z" />
    <glyph glyph-name="Ygrave" unicode="&#x1ef2;" horiz-adv-x="683" 
d="M249 291l-144 274q-27 51 -49 69t-63 24v40h370v-40q-28 -2 -41 -7q-51 -20 -8 -104l94 -184h9l87 164q29 52 29 88q0 26 -28 36q-12 4 -40 7v40h226v-40q-44 -7 -71 -35t-58 -89l-128 -243v-102q0 -63 9 -92q7 -23 18.5 -33.5t31.5 -17.5q13 -4 38 -6v-40h-381v40
q26 2 39 6q20 7 31.5 17.5t18.5 33.5q10 27 10 92v102zM518 788l-12 -33q-144 20 -187 28q-72 14 -72 67q0 28 18 45.5t44 17.5q16 0 32.5 -6.5t25.5 -12.5l35 -23z" />
    <glyph glyph-name="ygrave" unicode="&#x1ef3;" horiz-adv-x="571" 
d="M326 -23q-22 -57 -38 -83t-39 -49q-48 -48 -121 -48q-47 0 -76.5 22.5t-29.5 64.5q0 26 18.5 46.5t48.5 20.5q49 0 70 -51q11 -21 13 -24q8 -11 23 -11q25 0 48 47q15 32 15 52q0 14 -7 31l-149 361l-30 69q-16 29 -31 38q-15 10 -35 12v36h329v-36q-23 -2 -38 -8
q-21 -10 -21 -36q0 -24 17 -71l62 -168h10l64 166q19 49 19 73t-19 36q-13 6 -35 8v36h179v-36q-15 -1 -34 -11q-17 -11 -28 -27q-12 -17 -37 -84zM428 596l-18 -32q-155 53 -174 61q-60 25 -60 72q0 27 16.5 42t40.5 15q16 0 33 -8.5t26.5 -16.5t31.5 -29z" />
    <glyph glyph-name="uni2009" unicode="&#x2009;" horiz-adv-x="80" 
 />
    <glyph glyph-name="endash" unicode="&#x2013;" horiz-adv-x="500" 
d="M455 284h-410v66h410v-66z" />
    <glyph glyph-name="emdash" unicode="&#x2014;" horiz-adv-x="915" 
d="M870 284h-825v66h825v-66z" />
    <glyph glyph-name="quoteleft" unicode="&#x2018;" horiz-adv-x="275" 
d="M48 505q0 72 52.5 127t131.5 81l13 -32q-46 -19 -78.5 -45t-32.5 -47q0 -15 18 -21q74 -23 74 -84q0 -34 -22.5 -57.5t-58.5 -23.5q-45 0 -71 27.5t-26 74.5z" />
    <glyph glyph-name="quoteright" unicode="&#x2019;" horiz-adv-x="275" 
d="M239 612q0 -72 -52.5 -128t-132.5 -81l-13 32q46 19 78.5 45t32.5 47q0 15 -17 21q-75 22 -75 85q0 33 22.5 56.5t59.5 23.5q45 0 71 -27.5t26 -73.5z" />
    <glyph glyph-name="quotesinglbase" unicode="&#x201a;" horiz-adv-x="281" 
d="M230 51q0 -72 -52.5 -127t-131.5 -81l-13 32q46 19 78 45t32 47q0 15 -17 21q-74 22 -74 84q0 34 22.5 57.5t58.5 23.5q45 0 71 -27.5t26 -74.5z" />
    <glyph glyph-name="quotedblleft" unicode="&#x201c;" horiz-adv-x="498" 
d="M270 505q0 72 52.5 127.5t132.5 80.5l13 -32q-46 -19 -78.5 -45t-32.5 -47q0 -15 17 -21q75 -22 75 -84q0 -34 -22.5 -57.5t-59.5 -23.5q-45 0 -71 27.5t-26 74.5zM48 505q0 72 52.5 127t131.5 81l13 -32q-46 -19 -78.5 -45t-32.5 -47q0 -15 18 -21q74 -23 74 -84
q0 -34 -22.5 -57.5t-58.5 -23.5q-45 0 -71 27.5t-26 74.5z" />
    <glyph glyph-name="quotedblright" unicode="&#x201d;" horiz-adv-x="498" 
d="M461 612q0 -72 -52.5 -127.5t-131.5 -81.5l-13 32q46 19 78 45t32 47q0 16 -17 21q-74 22 -74 85q0 33 22.5 56.5t58.5 23.5q45 0 71 -27.5t26 -73.5zM239 612q0 -72 -52.5 -128t-132.5 -81l-13 32q46 19 78.5 45t32.5 47q0 15 -17 21q-75 22 -75 85q0 33 22.5 56.5
t59.5 23.5q45 0 71 -27.5t26 -73.5z" />
    <glyph glyph-name="quotedblbase" unicode="&#x201e;" horiz-adv-x="501" 
d="M450 51q0 -72 -53 -127.5t-132 -81.5l-13 32q46 19 78.5 45t32.5 47q0 15 -18 21q-37 11 -55.5 31t-18.5 54q0 33 22.5 56.5t58.5 23.5q45 0 71.5 -27.5t26.5 -73.5zM230 51q0 -72 -52.5 -127.5t-131.5 -81.5l-13 32q46 19 78 45t32 47q0 15 -17 21q-74 22 -74 85
q0 33 22.5 56.5t58.5 23.5q45 0 71 -27.5t26 -73.5z" />
    <glyph glyph-name="dagger" unicode="&#x2020;" horiz-adv-x="526" 
d="M289 -162h-52l-62 542l60 67q-54 -19 -109 -19q-39 0 -70 26.5t-31 71.5q0 28 16 46t45 18q27 0 41.5 -15t14.5 -37q0 -14 -8 -28q-11 -19 -11 -22q0 -12 22 -12q29 0 85 17q-2 28 -17.5 75.5t-15.5 81.5q0 26 18.5 44.5t47.5 18.5t48 -18.5t19 -44.5q0 -33 -16.5 -80.5
t-17.5 -76.5q56 -17 87 -17q22 0 22 12q0 3 -11 22q-8 14 -8 28q0 22 14.5 37t41.5 15q28 0 44.5 -18t16.5 -46q0 -45 -31 -71.5t-70 -26.5q-55 0 -109 19l58 -67z" />
    <glyph glyph-name="daggerdbl" unicode="&#x2021;" horiz-adv-x="530" 
d="M290 298h-51l-62 105l59 59q-54 -19 -109 -19q-39 0 -70 26.5t-31 71.5q0 28 16.5 46t44.5 18q27 0 41.5 -15t14.5 -37q0 -14 -8 -28q-11 -19 -11 -22q0 -12 22 -12q29 0 85 17q-2 23 -17.5 65t-15.5 77q0 26 19 44.5t47 18.5q29 0 48 -18.5t19 -44.5q0 -34 -16.5 -76
t-17.5 -66q57 -17 87 -17q22 0 22 12q0 3 -11 22q-8 14 -8 28q0 22 15 37t41 15q29 0 45 -18t16 -46q0 -45 -31 -71.5t-70 -26.5q-55 0 -109 19l58 -59zM290 253l62 -105l-58 -59q54 19 109 19q39 0 70 -26.5t31 -71.5q0 -28 -16 -46t-45 -18q-26 0 -41 15t-15 37q0 14 8 28
q11 19 11 22q0 12 -22 12q-30 0 -87 -17q1 -24 17.5 -66t16.5 -76q0 -26 -19 -44.5t-48 -18.5q-28 0 -47 19t-19 44q0 35 15.5 77t17.5 65q-56 17 -85 17q-22 0 -22 -12q0 -3 11 -22q8 -14 8 -28q0 -22 -14.5 -37t-41.5 -15q-28 0 -44.5 18t-16.5 46q0 45 31 71.5t70 26.5
q55 0 109 -19l-59 59l62 105h51z" />
    <glyph glyph-name="bullet" unicode="&#x2022;" horiz-adv-x="439" 
d="M220 463q56 0 96.5 -41t40.5 -97q0 -57 -40 -96.5t-97 -39.5t-98 39.5t-41 96.5q0 56 41.5 97t97.5 41z" />
    <glyph glyph-name="ellipsis" unicode="&#x2026;" horiz-adv-x="987" 
d="M171 -14q-42 0 -67.5 27t-25.5 66t25.5 66t67.5 27t67.5 -27t25.5 -66t-25.5 -66t-67.5 -27zM494 -14q-42 0 -68 27t-26 66t26 66t68 27t67.5 -27t25.5 -66t-25.5 -66t-67.5 -27zM816 -14q-42 0 -68 27t-26 66t26 66t68 27t67.5 -27t25.5 -66t-25.5 -66t-67.5 -27z" />
    <glyph glyph-name="perthousand" unicode="&#x2030;" horiz-adv-x="1208" 
d="M640 668l-416 -683l-40 25l415 683zM375 506q0 -84 -49.5 -134.5t-120.5 -50.5q-70 0 -119.5 51t-49.5 134q0 84 49.5 135t119.5 51q71 0 120.5 -51t49.5 -135zM205 664q-27 0 -39 -33.5t-12 -124.5t12 -124t39 -33t39.5 33t12.5 124t-12.5 124.5t-39.5 33.5zM1009 357
q70 0 119.5 -51t49.5 -135q0 -83 -49.5 -134t-119.5 -51q-71 0 -120.5 50.5t-49.5 134.5t49.5 135t120.5 51zM619 357q70 0 119.5 -51t49.5 -135q0 -83 -49.5 -134t-119.5 -51q-71 0 -120.5 50.5t-49.5 134.5t49.5 135t120.5 51zM1060 171q0 91 -12 124.5t-39 33.5
q-28 0 -40 -33t-12 -125t12 -124.5t40 -32.5q27 0 39 33t12 124zM670 171q0 91 -12 124.5t-39 33.5t-39.5 -33.5t-12.5 -124.5t12.5 -124t39.5 -33t39 33t12 124z" />
    <glyph glyph-name="guilsinglleft" unicode="&#x2039;" horiz-adv-x="249" 
d="M24 289l173 134l30 -28l-99 -127l100 -127l-31 -27l-173 134v41z" />
    <glyph glyph-name="guilsinglright" unicode="&#x203a;" horiz-adv-x="249" 
d="M225 289v-41l-173 -134l-31 27l99 127l-98 127l30 28z" />
    <glyph glyph-name="fraction" unicode="&#x2044;" horiz-adv-x="335" 
d="M431 700l-482 -731l-45 29l482 730z" />
    <glyph glyph-name="Euro" unicode="&#x20ac;" horiz-adv-x="651" 
d="M629 212q-11 -51 -27 -89t-43.5 -70.5t-70.5 -49.5t-101 -17q-108 0 -185 69.5t-99 194.5h-83v44h78q-2 30 -2 46q0 15 2 45h-78v44h85q25 113 102.5 188t202.5 75q98 0 155 -42t57 -108q0 -37 -21 -58t-54 -21q-36 0 -55 22t-19 57q0 7 4 31q4 17 4 30q0 28 -17.5 39
t-53.5 11q-108 0 -124 -224h162v-44h-164q-1 -15 -1 -47q0 -30 1 -44h120v-44h-118q9 -109 44.5 -157.5t101.5 -48.5q57 0 94 44t60 135z" />
    <glyph glyph-name="trademark" unicode="&#x2122;" horiz-adv-x="843" 
d="M347 756l10 -116h-28q-14 43 -31 65q-21 26 -42 25h-18v-183q0 -28 4 -40t19 -18q12 -4 28 -4v-29h-195v29q15 0 27 4q13 4 19 18q4 18 4 40v183h-17q-18 0 -40 -25q-21 -24 -34 -65h-28l10 116h312zM823 456h-190v29q15 2 22 4q21 7 25 15q4 18 4 44v161h-9l-71 -255
h-68l-71 255h-8v-160q0 -33 4 -45q5 -10 18 -15q7 -2 23 -4v-29h-123v29q16 2 23 4q13 4 18 15q5 15 5 46v112q0 31 -5 44q-7 13 -18 17q-12 4 -22 4v29h171l50 -175h4l49 175h169v-29q-13 0 -22 -3q-13 -5 -17 -16q-5 -12 -5 -51v-110q0 -32 5 -43q4 -10 18 -15q8 -3 21 -4
v-29z" />
    <glyph glyph-name="onethird" unicode="&#x2153;" horiz-adv-x="938" 
d="M715 700l-483 -731l-44 29l482 730zM313 263h-288v32q26 2 39 8q20 11 26 33q4 17 4 54v183q0 35 -2 47q-4 18 -22 27q-18 7 -47 9v32q72 4 130 17l30.5 8.5l33 9t16.5 3.5q14 0 14 -14q0 -3 -1 -36.5t-1 -48.5v-237q0 -37 4 -54q8 -23 26 -33q13 -6 38 -8v-32zM705 421
q-47 0 -47 -22q0 -2 9 -26q8 -16 8 -38t-14 -35t-40 -13t-41.5 16.5t-15.5 43.5q0 52 51 82t114 30q84 0 127.5 -25t43.5 -70q0 -76 -152 -115v-6q77 3 123.5 -23t46.5 -86q0 -65 -57 -104.5t-169 -39.5q-63 0 -106.5 28.5t-43.5 81.5q0 25 15.5 42.5t41.5 17.5q24 0 37 -13
t15 -33q1 -20 -5 -35q-8 -20 -8 -25q0 -28 44 -28q46 0 66.5 26.5t20.5 84.5q0 39 -12.5 57.5t-46.5 18.5q-25 0 -47 -13l-13 -9l-19 32l36 21q60 32 81.5 54t21.5 62q0 61 -65 61z" />
    <glyph glyph-name="twothirds" unicode="&#x2154;" horiz-adv-x="991" 
d="M361 263h-334l-7 40l97 87q39 37 53 51.5t33.5 42t25 54t5.5 64.5q0 79 -65 79q-44 0 -44 -28q0 -7 9 -27q11 -20 11 -40q0 -23 -16 -37.5t-44 -14.5q-29 0 -46.5 18.5t-17.5 46.5q0 40 31 69t72.5 41.5t84.5 12.5q84 0 131 -32t47 -89q0 -41 -20.5 -71t-65.5 -63
q-45 -36 -146 -91v-7h105q49 0 76 24q20 19 31 45h34q0 -1 -10 -44l-19.5 -84t-10.5 -47zM758 421q-47 0 -47 -22q0 -2 9 -26q8 -16 8 -38t-14 -35t-40 -13t-41.5 16.5t-15.5 43.5q0 52 51.5 82t113.5 30q85 0 128 -25t43 -70q0 -42 -38.5 -69t-113.5 -46v-6q77 3 123.5 -23
t46.5 -86q0 -65 -57 -104.5t-169 -39.5q-63 0 -106.5 28.5t-43.5 81.5q0 25 15.5 42.5t41.5 17.5q24 0 37.5 -13t14.5 -33q2 -18 -5 -35q0 -1 -4 -10t-4 -15q0 -28 45 -28t65.5 26.5t20.5 84.5q0 39 -12.5 57.5t-45.5 18.5q-24 0 -48 -13l-13 -9l-18 32l36 21
q60 33 81.5 54.5t21.5 61.5q0 61 -66 61zM768 700l-482 -731l-45 29l482 730z" />
    <glyph glyph-name="oneeighth" unicode="&#x215b;" horiz-adv-x="960" 
d="M738 -10q-78 0 -126 26.5t-48 77.5q0 57 91 84q-86 40 -86 132q0 70 51 109.5t131 39.5q73 0 117.5 -25.5t44.5 -74.5q0 -55 -74 -86q95 -40 95 -125q0 -75 -54.5 -116.5t-141.5 -41.5zM313 263h-287v32q26 2 39 8q20 12 25 33q5 16 5 54v183q0 35 -2 47q-4 18 -23 27
q-16 7 -47 9v32q73 4 131 17l30.5 8.5l32.5 9t16 3.5q15 0 15 -14q0 -3 -1 -36.5t-1 -48.5v-237q0 -37 4 -54q8 -23 26 -33q13 -6 37 -8v-32zM715 700l-483 -731l-44 29l482 730zM737 23q94 0 94 51q0 29 -25 43.5t-116 46.5q-47 -25 -47 -69q0 -72 94 -72zM793 290l10 -3
q30 28 30 73q0 65 -82 65q-79 0 -79 -51q0 -27 24.5 -44t96.5 -40z" />
    <glyph glyph-name="threeeighths" unicode="&#x215c;" horiz-adv-x="972" 
d="M751 -10q-79 0 -126.5 26.5t-47.5 77.5q0 30 25.5 51t64.5 33q-85 39 -85 132q0 69 50.5 109t130.5 40q73 0 118 -25.5t45 -74.5q0 -55 -74 -86q95 -40 95 -125q0 -75 -54.5 -116.5t-141.5 -41.5zM187 703q-47 0 -47 -22q0 -2 9 -26q8 -15 8 -38q0 -46 -54 -48
q-26 1 -41.5 17.5t-15.5 42.5q0 52 51.5 82t113.5 30q171 0 171 -95q0 -76 -152 -115v-6q77 4 123.5 -22.5t46.5 -86.5q0 -65 -57 -104.5t-169 -39.5q-63 0 -106.5 29t-43.5 82q0 25 15.5 42t41.5 17q24 0 37.5 -13t14.5 -33q2 -17 -5 -35q0 -1 -4 -10t-4 -15q0 -28 45 -28
t65.5 26.5t20.5 84.5q0 39 -12.5 58t-45.5 19q-22 0 -48 -14l-13 -8l-18 31l36 22q60 33 81.5 54t21.5 62q0 60 -66 60zM748 700l-483 -731l-44 29l482 730zM750 23q94 0 94 51q0 29 -25 43.5t-117 46.5q-46 -25 -46 -69q0 -72 94 -72zM806 290l10 -3q29 27 29 73
q0 35 -20 50t-62 15q-78 0 -78 -51q0 -27 24.5 -44t96.5 -40z" />
    <glyph glyph-name="fiveeighths" unicode="&#x215d;" horiz-adv-x="965" 
d="M744 -10q-79 0 -127 26.5t-48 77.5q0 57 91 84q-85 39 -85 132q0 69 50.5 109t130.5 40q73 0 118 -25.5t45 -74.5q0 -55 -74 -86q95 -40 95 -125q0 -75 -54.5 -116.5t-141.5 -41.5zM158 290q92 0 92 118q0 94 -74 94q-54 0 -82 -48l-31 12l58 251h29q42 -18 111 -18
q73 0 104 62l22 -5q-14 -78 -51.5 -122t-115.5 -44q-56 0 -90 6l-21 -84l5 -2q35 33 112 33q80 0 125.5 -34t45.5 -97q0 -78 -59 -117t-162 -39q-71 0 -118 28.5t-47 81.5q0 24 17 42t41 18q52 0 56 -44q4 -16 -6 -41q0 -1 -6 -12t-6 -17q0 -22 51 -22zM741 700l-483 -731
l-45 29l483 730zM743 23q93 0 93 51q0 29 -25 43.5t-116 46.5q-46 -25 -46 -69q0 -72 94 -72zM799 290l10 -3q29 27 29 73q0 35 -20 50t-62 15q-78 0 -78 -51q0 -27 24.5 -44t96.5 -40z" />
    <glyph glyph-name="seveneighths" unicode="&#x215e;" horiz-adv-x="907" 
d="M685 -10q-78 0 -126 26.5t-48 77.5q0 30 26 51t65 32q-86 41 -86 133q0 70 51 109.5t131 39.5q73 0 117.5 -25.5t44.5 -74.5q0 -55 -74 -86q95 -40 95 -125q0 -75 -54.5 -116.5t-141.5 -41.5zM389 702l-46 -83t-46 -85.5t-25 -58.5q-17 -51 -23 -131q-2 -40 -23 -64
t-58 -24q-33 0 -54 20.5t-21 55.5q0 52 62 120q32 34 143 143v4h-173q-28 0 -45 -12q-18 -13 -29 -43h-35l33 204h32q10 -31 40 -31h268v-15zM682 700l-482 -731l-45 29l482 730zM684 23q94 0 94 51q0 29 -25 43.5t-116 46.5q-47 -25 -47 -69q0 -72 94 -72zM740 290l10 -3
q30 28 30 73q0 65 -82 65q-79 0 -79 -51q0 -27 24.5 -44t96.5 -40z" />
    <glyph glyph-name="minus" unicode="&#x2212;" horiz-adv-x="477" 
d="M440 278h-403v51h403v-51z" />
    <glyph glyph-name="uni24C5" unicode="&#x24c5;" horiz-adv-x="982" 
d="M491 723q183 0 311.5 -125.5t128.5 -314.5t-128.5 -314t-311.5 -125t-311.5 125.5t-128.5 314.5t128.5 314t311.5 125zM491 685q-167 0 -279.5 -114t-112.5 -287q0 -174 112.5 -288t279.5 -114t279.5 114t112.5 287q0 174 -112.5 288t-279.5 114zM547 71v-39h-320v39
q23 1 34 7q13 6 19.5 13t10.5 25q6 26 6 61v216q0 33 -6 59q-4 17 -10.5 24t-20.5 13q-11 6 -33 7v39h314q214 0 214 -144q0 -39 -18.5 -70t-46.5 -48q-68 -38 -179 -38h-36v-58q0 -45 5 -61q5 -17 11 -25t19 -13q8 -3 37 -7zM475 461v-183h31q40 0 58 24q19 26 19 90
q0 54 -14.5 76t-51.5 22h-17q-10 0 -18 -6q-7 -9 -7 -23z" />
    <glyph glyph-name="zero.tab" unicode="&#xe44f;" horiz-adv-x="594" 
d="M39 339q0 159 72 256t186 97q115 0 186.5 -97t71.5 -256t-71.5 -256t-186.5 -97t-186.5 97t-71.5 256zM365 339q0 188 -11.5 250t-56.5 62q-43 0 -55.5 -63.5t-12.5 -248.5t12.5 -248.5t55.5 -63.5t55.5 63.5t12.5 248.5z" />
    <glyph glyph-name="one.tab" unicode="&#xe450;" horiz-adv-x="594" 
d="M494 0h-389v39q41 4 52 8q35 12 46 43q9 21 9 63v352q0 36 -4 70q-2 29 -27 40q-18 8 -79 13v39q91 3 183 10q69 8 96 8q10 0 10 -11q0 -6 -1 -41t-1 -50v-430q0 -41 8 -64q12 -29 45 -41q15 -5 52 -9v-39z" />
    <glyph glyph-name="two.tab" unicode="&#xe451;" horiz-adv-x="594" 
d="M247 649q-34 0 -54 -14.5t-20 -36.5q0 -5 2 -11t4.5 -11t7.5 -14t8 -15q11 -20 11 -42q0 -29 -22 -49.5t-60 -20.5t-60.5 25t-22.5 61q0 79 67.5 125t172.5 46q109 0 178 -45t69 -123q0 -45 -16 -84t-47 -73t-59 -57t-71 -52l-68 -48.5l-90 -62.5v-7h179q46 0 68.5 10.5
t46.5 34.5q28 29 52 75h42l-72 -260h-471l-11 28q70 70 84 83q244 242 244 425q0 65 -21.5 89t-70.5 24z" />
    <glyph glyph-name="three.tab" unicode="&#xe452;" horiz-adv-x="594" 
d="M294 692q114 0 163.5 -35.5t49.5 -102.5q0 -61 -54.5 -104t-155.5 -82l1 -8q115 14 187.5 -27.5t72.5 -131.5q0 -97 -78.5 -156.5t-218.5 -59.5q-99 0 -164.5 47t-65.5 109q0 39 22 63t56 24q35 0 54.5 -21t19.5 -56q0 -30 -18 -58q-8 -26 -5 -36q3 -14 28 -22t56 -8
q70 0 101 45t31 148q0 59 -21.5 82.5t-70.5 23.5q-33 0 -67 -18l-39 -22l-19 34l67 39q61 36 87.5 78.5t26.5 108.5q0 56 -18 78.5t-66 22.5q-30 0 -51.5 -10.5t-21.5 -26.5q0 -3 16 -35q12 -28 12 -51q0 -28 -19.5 -47t-54.5 -19t-55.5 23.5t-20.5 57.5q0 69 67 111t166 42
z" />
    <glyph glyph-name="four.tab" unicode="&#xe453;" horiz-adv-x="594" 
d="M68 250h186v280h-7zM512 39v-39h-346v39q26 4 38 9q33 13 43 42q7 18 7 63v53h-237v46l278 425h126q5 0 5 -6t-1 -51t-1 -65v-305h14q50 0 70 24q21 22 27 80h41v-252h-41q-7 59 -27 80q-20 24 -70 24h-14v-53q0 -45 7 -63q9 -29 43 -42q13 -5 38 -9z" />
    <glyph glyph-name="five.tab" unicode="&#xe454;" horiz-adv-x="594" 
d="M230 27q66 0 102.5 49t36.5 142q0 85 -27 119t-83 34q-37 0 -68 -21t-43 -54l-39 8l86 372h30q72 -29 146 -29q103 0 141 72l29 -8q-36 -208 -227 -208q-58 0 -115 10l-34 -137l3 -1q48 42 146 42q119 0 179.5 -52t60.5 -147q0 -112 -89 -172t-222 -60q-95 0 -154.5 43
t-59.5 103q0 38 20.5 61.5t52.5 23.5q38 0 54.5 -22.5t16.5 -54.5q0 -12 -9 -50q-4 -21 1 -36q6 -27 65 -27z" />
    <glyph glyph-name="six.tab" unicode="&#xe455;" horiz-adv-x="594" 
d="M558 566q0 -36 -18.5 -57t-53.5 -21q-34 0 -52 18.5t-18 49.5q0 14 6 34q6 30 6 34q0 12 -14 19.5t-36 7.5q-68 0 -108 -76t-49 -190h9q35 54 119 54q99 0 153 -54.5t54 -162.5q0 -107 -70 -171.5t-185 -64.5q-124 0 -193.5 83.5t-69.5 211.5q0 98 32 179t82.5 130
t109 75.5t115.5 26.5q94 0 137.5 -35.5t43.5 -90.5zM301 385q-36 0 -55 -38.5t-19 -139.5q0 -109 18 -144.5t56 -35.5t56.5 37t18.5 146q0 75 -9.5 114t-24 50t-41.5 11z" />
    <glyph glyph-name="seven.tab" unicode="&#xe456;" horiz-adv-x="602" 
d="M576 657q-126 -228 -154 -294q-54 -121 -66 -261q-12 -117 -94 -117q-40 0 -64 23t-24 65q0 24 8 50.5t29.5 61.5l29 46.5t34.5 49.5q29 42 99.5 128t96.5 122v3h-228q-56 0 -83 -13q-40 -19 -61 -72h-39l45 264h39q16 -37 66 -37h366v-19z" />
    <glyph glyph-name="eight.tab" unicode="&#xe457;" horiz-adv-x="594" 
d="M294 -14q-108 0 -176.5 41.5t-68.5 122.5q0 52 38 90.5t93 60.5q-120 62 -120 184q0 95 75 151t178 56q105 0 160.5 -39t55.5 -111q0 -42 -30.5 -78.5t-76.5 -59.5q135 -64 135 -185q0 -105 -70.5 -169t-192.5 -64zM199 564q0 -43 37.5 -70.5t140.5 -70.5q57 40 57 119
q0 108 -121 108q-50 0 -82 -22t-32 -64zM294 27q61 0 96 24.5t35 69.5q0 50 -31.5 74.5t-142.5 73.5q-22 10 -34 15q-67 -41 -67 -133q0 -72 38 -98t106 -26z" />
    <glyph glyph-name="nine.tab" unicode="&#xe458;" horiz-adv-x="594" 
d="M296 293q36 0 55.5 38.5t19.5 139.5q0 75 -10 116t-25 52.5t-40 11.5q-38 0 -56.5 -37t-18.5 -146q0 -75 9.5 -114t24 -50t41.5 -11zM39 112q0 36 19 57t53 21t52 -18.5t18 -49.5q0 -14 -6 -34q-6 -30 -6 -34q0 -12 14 -19.5t36 -7.5q46 0 81 38.5t53 96.5t23 131h-9
q-35 -54 -119 -54q-99 0 -153 54.5t-54 162.5q0 107 70 171.5t185 64.5q124 0 193.5 -83.5t69.5 -211.5q0 -98 -32 -179t-82.5 -130t-109 -75.5t-115.5 -26.5q-94 0 -137.5 35.5t-43.5 90.5z" />
    <glyph glyph-name="cent.tab" unicode="&#xe459;" horiz-adv-x="594" 
d="M549 152q-42 -146 -189 -163v-84h-43v82q-98 2 -158 49q-105 80 -105 220q0 62 23.5 113t62.5 83t84 50t93 22v96h43v-95q105 -4 151 -48q30 -31 30 -73q0 -66 -64 -66q-35 0 -52.5 22t-27.5 67q-9 47 -37 56v-438h7q46 0 77 18.5t44.5 41t27.5 59.5zM291 69
q11 -8 26 -15v428q-25 -6 -37 -23q-40 -51 -41 -203q0 -142 52 -187z" />
    <glyph glyph-name="dollar.tab" unicode="&#xe45a;" horiz-adv-x="594" 
d="M330 -113h-51v100q-97 4 -158.5 47t-61.5 103q0 32 18.5 53t48.5 21q71 0 71 -79q0 -10 -3.5 -25.5t-3.5 -18.5q0 -53 89 -60v223l-14 6q-45 20 -74.5 37.5t-60 45t-45 65t-14.5 86.5q0 84 63 140t154 61v83h51v-84q85 -7 139 -46.5t54 -92.5q0 -34 -17.5 -51t-45.5 -17
q-34 0 -52 20.5t-18 56.5q0 4 1 16.5t1 15.5q0 49 -62 56v-213q4 -1 12 -5q53 -25 83.5 -43t59.5 -44.5t41 -61.5t12 -83q0 -86 -62 -144.5t-155 -67.5v-100zM422 114q0 44 -18 65.5t-74 47.5v-198q43 6 67.5 28t24.5 57zM194 568q0 -38 23 -62t71 -46v190q-43 -4 -68.5 -26
t-25.5 -56z" />
    <glyph glyph-name="Euro.tab" unicode="&#xe45b;" horiz-adv-x="594" 
d="M575 211q-11 -49 -25 -85.5t-38 -70t-63 -51.5t-92 -18q-106 0 -174 69t-86 195h-74v44h70q-2 30 -2 46q0 14 2 44h-70v44h76q21 113 91 188.5t183 75.5q93 0 144 -41.5t51 -108.5q0 -36 -21 -57.5t-54 -21.5q-37 0 -56.5 21t-19.5 56q0 13 5 30q6 22 6 33q0 50 -55 50
q-82 0 -92 -225h117v-44h-119v-90h75v-44h-73q6 -112 33.5 -159t87.5 -47q93 0 129 178z" />
    <glyph glyph-name="K.alt" unicode="&#xe48a;" horiz-adv-x="803" 
d="M405 40v-40h-381v40q27 2 39 6q20 7 31.5 17.5t17.5 33.5q10 32 10 92v320q0 60 -10 92q-11 40 -49 51q-12 4 -39 6v40h381v-40q-25 -2 -39 -6q-37 -11 -49 -51q-9 -29 -9 -92v-162l182 172q52 56 60 75q5 10 5 20q0 27 -27 37q-13 5 -40 7v40h270v-40q-36 -5 -81 -31
q-39 -25 -105 -92l-85 -80l179 -274q33 -55 52 -77t48 -43q25 -18 54 -21v-40h-382v40q30 4 43 11.5t13 23.5t-42 82l-107 165l-37 -35v-98q0 -63 9 -92q12 -38 49 -51q14 -4 39 -6z" />
    <glyph glyph-name="k.alt" unicode="&#xe4ca;" horiz-adv-x="667" 
d="M334 35v-35h-313v35q20 2 33 10q19 11 28 33q7 20 7 67v467q0 48 -7 68q-6 15 -24 28q-16 10 -40 12v36h241q9 0 9 -11q-3 -60 -3 -84v-397l95 88q57 52 57 79q0 24 -22 35q-10 4 -44 9v36h257v-36q-40 -9 -75 -31q-27 -17 -88 -71l-33 -29l170 -259q28 -43 82 -49v-36
h-243l-139 229l-17 -15v-71q0 -47 9 -65q6 -19 26 -33q15 -8 34 -10z" />
    <glyph glyph-name="at.sc" unicode="&#xf60b;" horiz-adv-x="712" 
d="M466 121q-31 0 -51.5 16.5t-20.5 44.5q0 20 2 36h-7q-19 -35 -37 -55q-39 -42 -92 -42q-40 0 -67.5 26t-27.5 80q0 93 70.5 165.5t159.5 72.5q22 0 36.5 -11t16.5 -27h9l18 30h101l-24 -73l-25 -74q-33 -99 -33 -120q0 -22 19 -22q56 0 93.5 55t37.5 128q0 94 -63 143
t-177 49q-142 0 -226 -81.5t-84 -213.5q0 -224 256 -224q154 0 258 74l19 -32q-43 -32 -118 -55.5t-159 -23.5q-148 0 -239 68t-91 193q0 80 34 145t90 104.5t122.5 61t136.5 21.5q128 0 207.5 -62.5t79.5 -166.5q0 -97 -62.5 -163.5t-161.5 -66.5zM284 203q0 -33 23 -33
q21 0 45 39q18 27 37 70q36 83 36 116q0 35 -23 35q-28 0 -52 -41q-27 -44 -46.5 -101t-19.5 -85z" />
    <glyph glyph-name="braceleft.sc" unicode="&#xf60c;" horiz-adv-x="329" 
d="M35 302q31 0 50 12q19 11 26 21.5t7 36.5q0 9 -7 41.5t-7 48.5q0 69 58 103.5t152 34.5v-32q-36 -4 -55 -23t-19 -64q0 -14 4 -39t4 -35q0 -56 -32.5 -83t-108.5 -39v-4q76 -12 108.5 -39t32.5 -83q0 -10 -4 -34.5t-4 -38.5q0 -45 19 -64.5t55 -23.5v-32q-95 1 -152.5 35
t-57.5 104q0 16 7 47t7 40q0 26 -7.5 37.5t-25.5 21.5q-17 10 -50 12v39z" />
    <glyph glyph-name="braceright.sc" unicode="&#xf60d;" horiz-adv-x="329" 
d="M294 302v-39q-33 -2 -50 -12q-18 -10 -25 -21.5t-7 -37.5q0 -9 6.5 -40t6.5 -47q0 -70 -57.5 -104t-152.5 -35v32q36 4 55 23.5t19 64.5q0 14 -4 38.5t-4 34.5q0 56 32.5 83t108.5 39v4q-76 12 -108.5 39t-32.5 83q0 10 4 35t4 39q0 45 -19 64t-55 23v32q94 0 152 -34.5
t58 -103.5q0 -16 -6.5 -48.5t-6.5 -41.5q0 -26 7 -36.5t25 -21.5q19 -12 50 -12z" />
    <glyph glyph-name="bracketleft.sc" unicode="&#xf60e;" horiz-adv-x="341" 
d="M320 0h-240v567h240v-44h-101v-479h101v-44z" />
    <glyph glyph-name="bracketright.sc" unicode="&#xf60f;" horiz-adv-x="341" 
d="M261 567v-567h-240v44h101v479h-101v44h240z" />
    <glyph glyph-name="plus.sc" unicode="&#xf615;" horiz-adv-x="465" 
d="M421 253h-162v-164h-52v164h-164v52h164v164h52v-164h162v-52z" />
    <glyph glyph-name="minus.sc" unicode="&#xf616;" horiz-adv-x="465" 
d="M43 305h378v-52h-378v52z" />
    <glyph glyph-name="equal.sc" unicode="&#xf617;" horiz-adv-x="465" 
d="M407 331h-350v49h350v-49zM407 170h-350v49h350v-49z" />
    <glyph glyph-name="parenleft.sc" unicode="&#xf618;" horiz-adv-x="282" 
d="M187 283q0 -183 76 -282l-28 -30q-73 39 -132.5 123t-59.5 189t59.5 189t132.5 123l28 -30q-76 -99 -76 -282z" />
    <glyph glyph-name="parenright.sc" unicode="&#xf619;" horiz-adv-x="282" 
d="M239 283q0 -105 -59.5 -188.5t-133.5 -122.5l-27 30q76 97 76 281t-76 281l27 30q73 -39 133 -123t60 -188z" />
    <glyph glyph-name="quotedblleft.sc" unicode="&#xf61c;" horiz-adv-x="498" 
d="M270 397q0 72 52.5 127.5t132.5 80.5l13 -32q-46 -19 -78.5 -45t-32.5 -47q0 -15 17 -21q75 -22 75 -84q0 -34 -22.5 -57.5t-59.5 -23.5q-45 0 -71 27.5t-26 74.5zM48 397q0 72 52.5 127t131.5 81l13 -32q-46 -19 -78.5 -45t-32.5 -47q0 -15 18 -21q74 -23 74 -84
q0 -34 -22.5 -57.5t-58.5 -23.5q-45 0 -71 27.5t-26 74.5z" />
    <glyph glyph-name="quotedblright.sc" unicode="&#xf61d;" horiz-adv-x="498" 
d="M461 504q0 -72 -52.5 -127.5t-131.5 -81.5l-13 32q46 19 78 45t32 47q0 16 -17 21q-74 22 -74 85q0 33 22.5 56.5t58.5 23.5q45 0 71 -27.5t26 -73.5zM239 504q0 -72 -52.5 -128t-132.5 -81l-13 32q46 19 78.5 45t32.5 47q0 15 -17 21q-75 22 -75 85q0 33 22.5 56.5
t59.5 23.5q45 0 71 -27.5t26 -73.5z" />
    <glyph glyph-name="quoteleft.sc" unicode="&#xf61f;" horiz-adv-x="275" 
d="M48 397q0 72 52.5 127t131.5 81l13 -32q-46 -19 -78.5 -45t-32.5 -47q0 -15 18 -21q74 -23 74 -84q0 -34 -22.5 -57.5t-58.5 -23.5q-45 0 -71 27.5t-26 74.5z" />
    <glyph glyph-name="quoteright.sc" unicode="&#xf620;" horiz-adv-x="275" 
d="M239 504q0 -72 -52.5 -128t-132.5 -81l-13 32q46 19 78.5 45t32.5 47q0 15 -17 21q-75 22 -75 85q0 33 22.5 56.5t59.5 23.5q45 0 71 -27.5t26 -73.5z" />
    <glyph glyph-name="AEacute.sc" unicode="&#xf624;" horiz-adv-x="901" 
d="M393 509h-6l-144 -257h150v257zM228 36v-36h-226v36q24 3 40 13q15 8 43 36q23 26 51 74l207 366q-14 2 -49 6v36h533l33 -187h-39q-27 63 -72 108q-36 36 -107 36h-43q-13 0 -21 -7t-8 -24v-180h18q59 0 80 23q23 30 28 78h41v-242h-41q-5 47 -29 79q-19 22 -79 22h-18
v-143q0 -49 15 -67q18 -21 52 -21h23q49 0 92 41q51 50 90 128h39l-41 -211h-525v36q23 1 38 8q15 6 22 14.5t12 27.5q6 21 6 69v53h-175l-29 -52q-26 -46 -26 -73q0 -31 29 -40q13 -5 36 -7zM433 646l104 104q22 21 31.5 29t26.5 16.5t33 8.5q24 0 41 -15.5t17 -41.5
q0 -47 -61 -72q-17 -7 -174 -61z" />
    <glyph glyph-name="Oslashacute.sc" unicode="&#xf627;" horiz-adv-x="666" 
d="M220 283q0 -71 6 -118l193 320q-12 25 -31 37q-24 16 -55 16q-32 0 -55 -16q-29 -19 -43.5 -72t-14.5 -167zM333 29q31 0 55 16q29 20 43.5 72.5t14.5 165.5q0 82 -8 136l-197 -324q14 -35 37 -50q23 -16 55 -16zM333 -13q-73 0 -139 30l-48 -80l-42 26l48 79
q-121 85 -121 241q0 131 86.5 214t215.5 83q67 0 128 -25l45 75l43 -27l-44 -72q61 -39 95.5 -103.5t34.5 -144.5q0 -130 -86.5 -213t-215.5 -83zM216 646l104 104q22 21 31.5 29t26.5 16.5t33 8.5q24 0 41 -15.5t17 -41.5q0 -47 -61 -72q-17 -7 -174 -61z" />
    <glyph glyph-name="Ccircumflex.sc" unicode="&#xf628;" horiz-adv-x="597" 
d="M354 538q-40 0 -68 -23q-31 -26 -47 -77t-16 -155q0 -154 52 -206q37 -39 98 -39q53 0 98 38t67 110l35 -12q-54 -187 -227 -187q-144 0 -227.5 82.5t-83.5 213.5q0 130 91 213.5t220 83.5q112 0 161 -62h6l22 46h27v-209h-38q-20 76 -53 120q-50 63 -117 63zM495 629
l-32 -28l-130 85l-130 -85l-30 28l122 143h77z" />
    <glyph glyph-name="Cdotaccent.sc" unicode="&#xf629;" horiz-adv-x="597" 
d="M354 538q-40 0 -68 -23q-31 -26 -47 -77t-16 -155q0 -154 52 -206q37 -39 98 -39q53 0 98 38t67 110l35 -12q-54 -187 -227 -187q-144 0 -227.5 82.5t-83.5 213.5q0 130 91 213.5t220 83.5q112 0 161 -62h6l22 46h27v-209h-38q-20 76 -53 120q-50 63 -117 63zM337 611
q-39 0 -64 25t-25 61t25.5 61t63.5 25q37 0 62 -25t25 -61t-24.5 -61t-62.5 -25z" />
    <glyph glyph-name="Ebreve.sc" unicode="&#xf62a;" horiz-adv-x="607" 
d="M587 211l-41 -211h-525v36q23 1 38 8q15 6 22 14.5t12 27.5q6 21 6 69v257q0 41 -6 69q-5 20 -12 27.5t-23 14.5q-11 5 -37 8v36h512l33 -187h-39q-27 63 -72 108q-36 36 -107 36h-43q-14 0 -22 -8q-7 -8 -7 -23v-180h18q59 0 79 23q23 30 28 78h42v-242h-42
q-5 49 -28 79q-19 22 -79 22h-18v-143q0 -49 15 -67q18 -21 52 -21h23q48 0 91 41q53 51 91 128h39zM300 605q-58 0 -96 41.5t-43 109.5l41 11q16 -38 38 -54t60 -16q39 0 60.5 15.5t37.5 54.5l41 -11q-5 -68 -43 -109.5t-96 -41.5z" />
    <glyph glyph-name="Eng.sc" unicode="&#xf62b;" horiz-adv-x="668" 
d="M426 -214q-72 0 -119 35q-49 35 -49 93q0 40 24 65t58 25q39 0 59.5 -21t20.5 -54q0 -19 -11 -43q-11 -25 -11 -30q0 -26 39 -26q89 0 89 111v28l-357 452h-8v-269q0 -62 13 -82q13 -21 37 -28q15 -4 35 -6v-36h-217v36q18 2 35 7q24 8 34 26q13 21 13 83v214
q0 83 -17 117q-15 35 -46 47q-10 6 -33 8v29h266l238 -301h7v148q0 61 -13 84q-10 19 -34 27q-17 5 -34 6v36h213v-36q-22 -2 -33 -6q-22 -6 -36 -26q-13 -19 -13 -85v-466q0 -73 -39.5 -117.5t-110.5 -44.5z" />
    <glyph glyph-name="Gcircumflex.sc" unicode="&#xf62c;" horiz-adv-x="668" 
d="M427 142q0 43 -6 57q-8 23 -35 32q-16 5 -31 6v31h300v-31q-17 -1 -33 -6q-26 -8 -34 -30q-8 -18 -8 -59v-105q-37 -14 -97 -30q-77 -20 -140 -20q-140 0 -222.5 84.5t-82.5 211.5q0 129 95 213t220 84q121 0 172 -65h6l20 45h29v-208h-36q-23 82 -56 125
q-26 34 -52.5 48t-67.5 14t-68 -19q-35 -23 -54.5 -74.5t-19.5 -162.5q0 -177 52 -227q30 -27 78 -27q38 0 57 17q14 12 14 50v46zM508 629l-32 -28l-130 85l-130 -85l-30 28l122 143h77z" />
    <glyph glyph-name="Gdotaccent.sc" unicode="&#xf62d;" horiz-adv-x="668" 
d="M427 142q0 43 -6 57q-8 23 -35 32q-16 5 -31 6v31h300v-31q-17 -1 -33 -6q-26 -8 -34 -30q-8 -18 -8 -59v-105q-37 -14 -97 -30q-77 -20 -140 -20q-140 0 -222.5 84.5t-82.5 211.5q0 129 95 213t220 84q121 0 172 -65h6l20 45h29v-208h-36q-23 82 -56 125
q-26 34 -52.5 48t-67.5 14t-68 -19q-35 -23 -54.5 -74.5t-19.5 -162.5q0 -177 52 -227q30 -27 78 -27q38 0 57 17q14 12 14 50v46zM354 611q-39 0 -64 25t-25 61t25.5 61t63.5 25q37 0 62 -25t25 -61t-24.5 -61t-62.5 -25z" />
    <glyph glyph-name="Hbar.sc" unicode="&#xf62e;" horiz-adv-x="735" 
d="M349 36v-36h-328v36q23 1 38 8q26 9 34 43q6 28 6 68v230h-82v40h82q-1 27 -6 56q-5 20 -12 27.5t-23 14.5q-11 5 -37 8v36h327v-36q-16 -1 -33 -8q-25 -13 -34 -42q-5 -16 -5 -56h183q0 34 -5 56q-9 29 -34 42q-17 7 -33 8v36h327v-36q-26 -3 -38 -8q-15 -7 -22 -14.5
t-13 -27.5q-5 -20 -5 -56h75v-40h-75v-230q0 -45 5 -68q6 -20 13 -29t22 -14q15 -7 38 -8v-36h-328v36q18 1 33 8q27 13 34 43q6 21 6 61v125h-183v-125q0 -40 6 -61q7 -30 34 -43q15 -7 33 -8zM276 317h183v68h-183v-68z" />
    <glyph glyph-name="Hcircumflex.sc" unicode="&#xf62f;" horiz-adv-x="735" 
d="M349 36v-36h-328v36q23 1 38 8q26 9 34 43q6 28 6 68v257q0 41 -6 69q-5 20 -12 27.5t-23 14.5q-11 5 -37 8v36h327v-36q-16 -1 -33 -8q-25 -13 -34 -42q-5 -17 -5 -62v-102h183v102q0 45 -5 62q-9 29 -34 42q-17 7 -33 8v36h327v-36q-26 -3 -38 -8q-15 -7 -22 -14.5
t-13 -27.5q-5 -23 -5 -69v-257q0 -45 5 -68q6 -20 13 -29t22 -14q15 -7 38 -8v-36h-328v36q18 1 33 8q27 13 34 43q6 21 6 61v125h-183v-125q0 -40 6 -61q7 -30 34 -43q15 -7 33 -8zM524 629l-32 -28l-130 85l-130 -85l-30 28l122 143h77z" />
    <glyph glyph-name="Ibreve.sc" unicode="&#xf630;" horiz-adv-x="376" 
d="M276 412v-257q0 -41 6 -69q8 -33 34 -42q12 -5 38 -8v-36h-333v36q23 1 38 8q26 9 34 42q6 28 6 69v257q0 41 -6 69q-5 20 -12 27.5t-23 14.5q-11 5 -37 8v36h333v-36q-21 -3 -36 -8q-29 -13 -36 -42q-6 -28 -6 -69zM187 605q-58 0 -96 41.5t-43 109.5l41 11
q16 -38 38 -54t60 -16q39 0 60.5 15.5t37.5 54.5l41 -11q-5 -68 -43 -109.5t-96 -41.5z" />
    <glyph glyph-name="IJ.sc" unicode="&#xf631;" horiz-adv-x="866" 
d="M773 196q0 -103 -75 -165q-49 -45 -161 -45q-82 0 -128 36q-22 16 -37.5 42t-15.5 53q0 45 24.5 68t61.5 23q40 0 61.5 -21.5t23.5 -57.5q1 -11 -8 -46q-8 -22 -6 -35q3 -22 31 -22q29 0 41 29q10 24 10 85v272q0 48 -6 69q-5 20 -12 27.5t-22 14.5q-13 5 -38 8v36h334
v-36q-23 -3 -37 -8q-29 -13 -36 -42q-5 -23 -5 -69v-216zM276 412v-257q0 -41 6 -69q8 -33 34 -42q12 -5 38 -8v-36h-333v36q23 1 38 8q26 9 34 42q6 28 6 69v257q0 41 -6 69q-5 20 -12 27.5t-23 14.5q-11 5 -37 8v36h333v-36q-21 -3 -36 -8q-29 -13 -36 -42q-6 -28 -6 -69z
" />
    <glyph glyph-name="Itilde.sc" unicode="&#xf632;" horiz-adv-x="376" 
d="M276 412v-257q0 -41 6 -69q8 -33 34 -42q12 -5 38 -8v-36h-333v36q23 1 38 8q26 9 34 42q6 28 6 69v257q0 41 -6 69q-5 20 -12 27.5t-23 14.5q-11 5 -37 8v36h333v-36q-21 -3 -36 -8q-29 -13 -36 -42q-6 -28 -6 -69zM368 759q-30 -137 -115 -137q-21 0 -69.5 11.5
t-67.5 11.5q-46 0 -62 -39l-35 10q13 54 40.5 93t71.5 39q24 0 68 -11t63 -11q58 0 70 41z" />
    <glyph glyph-name="Jcircumflex.sc" unicode="&#xf633;" horiz-adv-x="519" 
d="M426 196q0 -103 -75 -165q-49 -45 -161 -45q-82 0 -128 36q-22 16 -37.5 42t-15.5 53q0 45 24.5 68t61.5 23q40 0 61.5 -21.5t23.5 -57.5q1 -11 -8 -46q-8 -22 -6 -35q3 -22 31 -22q29 0 41 29q10 24 10 85v272q0 48 -6 69q-5 20 -12 27.5t-22 14.5q-12 5 -38 8v36h334
v-36q-23 -3 -37 -8q-29 -13 -36 -42q-5 -23 -5 -69v-216zM498 629l-32 -28l-130 85l-130 -85l-30 28l122 143h77z" />
    <glyph glyph-name="Ldot.sc" unicode="&#xf634;" horiz-adv-x="581" 
d="M446 277q-37 0 -61.5 24.5t-24.5 59.5q0 34 24.5 58.5t61.5 24.5q36 0 60 -24.5t24 -58.5q0 -35 -23.5 -59.5t-60.5 -24.5zM21 0v36q26 3 37 8q15 6 22.5 14.5t12.5 27.5q6 28 6 69v258q0 40 -6 68q-5 20 -12 28.5t-22 14.5q-13 6 -38 7v36h338v-36q-36 -4 -43 -7
q-23 -10 -34 -43q-6 -17 -6 -69v-290q0 -43 13 -60q15 -20 45 -20h20q37 0 59 10t45 32q39 37 76 124h39l-34 -208h-518z" />
    <glyph glyph-name="Obreve.sc" unicode="&#xf635;" horiz-adv-x="666" 
d="M31 283q0 131 86.5 214t215.5 83t215.5 -83t86.5 -214q0 -130 -86.5 -213t-215.5 -83t-215.5 83t-86.5 213zM446 283q0 113 -14.5 166t-43.5 73q-24 16 -55 16q-32 0 -55 -16q-29 -19 -43.5 -72t-14.5 -167q0 -113 14.5 -166t43.5 -72q23 -16 55 -16q31 0 55 16
q29 20 43.5 72.5t14.5 165.5zM331 605q-58 0 -96 41.5t-43 109.5l41 11q16 -38 38 -54t60 -16q39 0 60.5 15.5t37.5 54.5l41 -11q-5 -68 -43 -109.5t-96 -41.5z" />
    <glyph glyph-name="Scircumflex.sc" unicode="&#xf636;" horiz-adv-x="513" 
d="M488 181q0 -91 -59 -142.5t-162 -51.5q-89 0 -140 58h-8l-35 -44h-35l-5 205h37q69 -177 183 -177q80 0 80 64q0 35 -26.5 57.5t-92.5 46.5q-40 15 -65.5 28.5t-55.5 37t-45.5 59t-15.5 82.5q0 79 57.5 127.5t150.5 48.5q85 0 127 -48h8l26 33h36l10 -182h-36
q-24 71 -66 113t-96 42q-81 0 -81 -63q0 -19 6.5 -32t27.5 -26t36 -20t55 -24q33 -13 46 -19t41 -20t40.5 -26.5t28 -31t22 -42.5t6.5 -53zM417 622l-32 -28l-130 85l-130 -85l-30 28l122 143h77z" />
    <glyph glyph-name="Tbar.sc" unicode="&#xf637;" horiz-adv-x="624" 
d="M223 156v130h-132v44h132v194h-13q-56 0 -98 -48q-38 -42 -64 -116h-39l17 208h573l17 -208h-40q-26 74 -63 116q-42 48 -98 48h-15v-194h132v-44h-132v-130q0 -41 6 -69q6 -20 13 -28.5t21 -13.5q12 -5 38 -8v-36h-333v36q23 1 38 8q26 9 34 42q6 21 6 69z" />
    <glyph glyph-name="Ubreve.sc" unicode="&#xf638;" horiz-adv-x="672" 
d="M529 196v218q0 61 -13 84q-10 19 -34 27q-17 5 -34 6v36h213v-36q-22 -2 -33 -6q-22 -6 -36 -26q-13 -19 -13 -85v-218q0 -79 -36 -134q-48 -75 -190 -75q-185 0 -236 94q-26 47 -26 133v198q0 48 -6 69q-5 20 -12 27.5t-22 14.5q-12 5 -38 8v36h333v-36q-21 -3 -36 -8
q-29 -13 -36 -42q-6 -28 -6 -69v-226q0 -65 19 -98q29 -53 106 -53q75 0 108 52q28 42 28 109zM368 605q-58 0 -96 41.5t-43 109.5l41 11q16 -38 38 -54t60 -16q39 0 60.5 15.5t37.5 54.5l41 -11q-5 -68 -43 -109.5t-96 -41.5z" />
    <glyph glyph-name="Utilde.sc" unicode="&#xf639;" horiz-adv-x="672" 
d="M529 196v218q0 61 -13 84q-10 19 -34 27q-17 5 -34 6v36h213v-36q-22 -2 -33 -6q-22 -6 -36 -26q-13 -19 -13 -85v-218q0 -79 -36 -134q-48 -75 -190 -75q-185 0 -236 94q-26 47 -26 133v198q0 48 -6 69q-5 20 -12 27.5t-22 14.5q-12 5 -38 8v36h333v-36q-21 -3 -36 -8
q-29 -13 -36 -42q-6 -28 -6 -69v-226q0 -65 19 -98q29 -53 106 -53q75 0 108 52q28 42 28 109zM556 767q-30 -137 -115 -137q-21 0 -69.5 11.5t-67.5 11.5q-46 0 -62 -39l-35 10q13 54 40.5 93t71.5 39q24 0 68 -11t63 -11q58 0 70 41z" />
    <glyph glyph-name="Wacute.sc" unicode="&#xf63a;" horiz-adv-x="940" 
d="M344 -1h-111l-126 413q-17 55 -34 80q-15 21 -34 31q-16 6 -32 8v36h339v-36q-19 -2 -31 -6q-28 -10 -28 -36q0 -21 14 -75l55 -206h8l88 257q-7 15 -15 28q-13 20 -32 30q-16 6 -32 8v36h339v-36q-21 -2 -32 -6q-15 -5 -22 -12.5t-7 -24.5q0 -18 14 -74l55 -206h7
l62 207q12 44 12 67q0 30 -24 41q-18 6 -36 8v36h203v-36q-25 -3 -41 -12q-22 -14 -35 -33q-15 -22 -31 -76l-129 -411h-111l-117 382h-7zM386 646l104 104q22 21 31.5 29t26.5 16.5t33 8.5q24 0 41 -15.5t17 -41.5q0 -47 -61 -72q-17 -7 -174 -61z" />
    <glyph glyph-name="Wcircumflex.sc" unicode="&#xf63b;" horiz-adv-x="940" 
d="M344 -1h-111l-126 413q-17 55 -34 80q-15 21 -34 31q-16 6 -32 8v36h339v-36q-19 -2 -31 -6q-28 -10 -28 -36q0 -21 14 -75l55 -206h8l88 257q-7 15 -15 28q-13 20 -32 30q-16 6 -32 8v36h339v-36q-21 -2 -32 -6q-15 -5 -22 -12.5t-7 -24.5q0 -18 14 -74l55 -206h7
l62 207q12 44 12 67q0 30 -24 41q-18 6 -36 8v36h203v-36q-25 -3 -41 -12q-22 -14 -35 -33q-15 -22 -31 -76l-129 -411h-111l-117 382h-7zM665 637l-32 -28l-130 85l-130 -85l-30 28l122 143h77z" />
    <glyph glyph-name="Wdieresis.sc" unicode="&#xf63c;" horiz-adv-x="940" 
d="M344 -1h-111l-126 413q-17 55 -34 80q-15 21 -34 31q-16 6 -32 8v36h339v-36q-19 -2 -31 -6q-28 -10 -28 -36q0 -21 14 -75l55 -206h8l88 257q-7 15 -15 28q-13 20 -32 30q-16 6 -32 8v36h339v-36q-21 -2 -32 -6q-15 -5 -22 -12.5t-7 -24.5q0 -18 14 -74l55 -206h7
l62 207q12 44 12 67q0 30 -24 41q-18 6 -36 8v36h203v-36q-25 -3 -41 -12q-22 -14 -35 -33q-15 -22 -31 -76l-129 -411h-111l-117 382h-7zM391 608q-31 0 -51 19.5t-20 51.5q0 31 20.5 51t50.5 20t50 -20t20 -51q0 -32 -20 -51.5t-50 -19.5zM600 608q-31 0 -51 19.5
t-20 51.5q0 31 20.5 51t50.5 20t50.5 -20t20.5 -51q0 -32 -20.5 -51.5t-50.5 -19.5z" />
    <glyph glyph-name="Wgrave.sc" unicode="&#xf63d;" horiz-adv-x="940" 
d="M344 -1h-111l-126 413q-17 55 -34 80q-15 21 -34 31q-16 6 -32 8v36h339v-36q-19 -2 -31 -6q-28 -10 -28 -36q0 -21 14 -75l55 -206h8l88 257q-7 15 -15 28q-13 20 -32 30q-16 6 -32 8v36h339v-36q-21 -2 -32 -6q-15 -5 -22 -12.5t-7 -24.5q0 -18 14 -74l55 -206h7
l62 207q12 44 12 67q0 30 -24 41q-18 6 -36 8v36h203v-36q-25 -3 -41 -12q-22 -14 -35 -33q-15 -22 -31 -76l-129 -411h-111l-117 382h-7zM615 646l-18 -32q-155 53 -174 61q-60 25 -60 72q0 27 16.5 42t40.5 15q16 0 33 -8.5t26.5 -16.5t31.5 -29z" />
    <glyph glyph-name="Ycircumflex.sc" unicode="&#xf63e;" horiz-adv-x="594" 
d="M207 236l-116 220q-22 39 -42 54.5t-50 20.5v36h331v-36q-24 -2 -36 -9q-14 -8 -16 -29t10 -50l68 -144h9l66 125q23 45 23 69q0 22 -22 31q-15 5 -38 7v36h201v-36q-37 -6 -60 -29t-51 -72l-100 -193v-82q0 -41 6 -69q8 -33 34 -42q11 -5 38 -8v-36h-333v36q21 1 38 8
q26 10 34 42q6 28 6 69v81zM486 629l-32 -28l-130 85l-130 -85l-30 28l122 143h77z" />
    <glyph glyph-name="Ygrave.sc" unicode="&#xf63f;" horiz-adv-x="594" 
d="M207 236l-116 220q-22 39 -42 54.5t-50 20.5v36h331v-36q-24 -2 -36 -9q-14 -8 -16 -29t10 -50l68 -144h9l66 125q23 45 23 69q0 22 -22 31q-15 5 -38 7v36h201v-36q-37 -6 -60 -29t-51 -72l-100 -193v-82q0 -41 6 -69q8 -33 34 -42q11 -5 38 -8v-36h-333v36q21 1 38 8
q26 10 34 42q6 28 6 69v81zM427 646l-18 -32q-155 53 -174 61q-60 25 -60 72q0 27 16.5 42t40.5 15q16 0 33 -8.5t26.5 -16.5t31.5 -29z" />
    <glyph glyph-name="Abreve.sc" unicode="&#xf640;" horiz-adv-x="637" 
d="M239 392l-64 -185h134l-63 185h-7zM201 36v-36h-204v36q25 4 40 13q19 10 34 33q13 17 35 75l154 415h119l147 -417q18 -51 39 -80q13 -19 36 -31q15 -6 35 -8v-36h-351v36q18 2 36 6q16 4 22 11.5t6 25.5q0 17 -22 74l-4 11h-163l-4 -12q-17 -53 -17 -67q0 -18 6.5 -26
t20.5 -14q16 -7 35 -9zM321 605q-58 0 -96 41.5t-43 109.5l41 11q16 -38 38 -54t60 -16q39 0 60.5 15.5t37.5 54.5l41 -11q-5 -68 -43 -109.5t-96 -41.5z" />
    <glyph glyph-name="Amacron.sc" unicode="&#xf641;" horiz-adv-x="637" 
d="M448 626h-266v70h266v-70zM239 392l-64 -185h134l-63 185h-7zM201 36v-36h-204v36q25 4 40 13q19 10 34 33q13 17 35 75l154 415h119l147 -417q18 -51 39 -80q13 -19 36 -31q15 -6 35 -8v-36h-351v36q18 2 36 6q16 4 22 11.5t6 25.5q0 17 -22 74l-4 11h-163l-4 -12
q-17 -53 -17 -67q0 -18 6.5 -26t20.5 -14q16 -7 35 -9z" />
    <glyph glyph-name="Aogonek.sc" unicode="&#xf642;" horiz-adv-x="637" 
d="M335 -11q19 12 22.5 38t-3.5 38l-31 99h-163l-4 -12q-17 -53 -17 -67q0 -18 6.5 -26t20.5 -14q16 -7 35 -9v-36h-204v36q25 4 40 13q18 11 37 37q11 17 32 71l154 415h119l147 -417q16 -49 38 -79q16 -21 37 -32q15 -6 35 -8v-36h-171q-25 0 -47.5 -9.5t-32.5 -20.5
q-26 -30 -26 -76q0 -62 82 -70v-40q-95 -5 -152 18.5t-57 71.5q0 28 27 55t76 60zM239 392l-64 -185h134l-63 185h-7z" />
    <glyph glyph-name="Cacute.sc" unicode="&#xf643;" horiz-adv-x="597" 
d="M354 538q-40 0 -68 -23q-31 -26 -47 -77t-16 -155q0 -154 52 -206q37 -39 98 -39q53 0 98 38t67 110l35 -12q-54 -187 -227 -187q-144 0 -227.5 82.5t-83.5 213.5q0 130 91 213.5t220 83.5q112 0 161 -62h6l22 46h27v-209h-38q-20 76 -53 120q-50 63 -117 63zM214 646
l104 104q22 21 31.5 29t26.5 16.5t33 8.5q24 0 41 -15.5t17 -41.5q0 -47 -61 -72q-17 -7 -174 -61z" />
    <glyph glyph-name="Ccaron.sc" unicode="&#xf644;" horiz-adv-x="597" 
d="M354 538q-40 0 -68 -23q-31 -26 -47 -77t-16 -155q0 -154 52 -206q37 -39 98 -39q53 0 98 38t67 110l35 -12q-54 -187 -227 -187q-144 0 -227.5 82.5t-83.5 213.5q0 130 91 213.5t220 83.5q112 0 161 -62h6l22 46h27v-209h-38q-20 76 -53 120q-50 63 -117 63zM505 746
l-123 -144h-77l-122 144l30 27l130 -85l130 85z" />
    <glyph glyph-name="Dcaron.sc" unicode="&#xf645;" horiz-adv-x="679" 
d="M20 0v36q23 1 38 8q26 9 34 42q6 21 6 69v257q0 48 -6 69q-5 20 -12 27.5t-22 14.5q-12 5 -38 8v36h309q113 0 183 -40q136 -74 136 -243t-138 -245q-72 -39 -151 -39h-339zM342 42h8q49 0 76 44q34 53 34 198q0 155 -44 207q-27 33 -88 33h-30q-11 0 -17 -5
q-6 -8 -6 -18v-373q0 -47 14 -66q14 -20 53 -20zM471 746l-123 -144h-77l-122 144l30 27l130 -85l130 85z" />
    <glyph glyph-name="Dcroat.sc" unicode="&#xf646;" horiz-adv-x="679" 
d="M20 0v36q23 1 38 8q26 9 34 42q6 21 6 69v115h-77v44h77v98q0 48 -6 69q-5 20 -12 27.5t-22 14.5q-12 5 -38 8v36h309q113 0 183 -40q136 -74 136 -243t-138 -245q-72 -39 -151 -39h-339zM342 42h8q49 0 76 44q34 53 34 198q0 155 -44 207q-27 33 -88 33h-30
q-11 0 -17 -5q-6 -8 -6 -18v-187h120v-44h-120v-142q0 -47 14 -66q14 -20 53 -20z" />
    <glyph glyph-name="Ecaron.sc" unicode="&#xf647;" horiz-adv-x="607" 
d="M587 211l-41 -211h-525v36q23 1 38 8q15 6 22 14.5t12 27.5q6 21 6 69v257q0 41 -6 69q-5 20 -12 27.5t-23 14.5q-11 5 -37 8v36h512l33 -187h-39q-27 63 -72 108q-36 36 -107 36h-43q-14 0 -22 -8q-7 -8 -7 -23v-180h18q59 0 79 23q23 30 28 78h42v-242h-42
q-5 49 -28 79q-19 22 -79 22h-18v-143q0 -49 15 -67q18 -21 52 -21h23q48 0 91 41q53 51 91 128h39zM472 746l-123 -144h-77l-122 144l30 27l130 -85l130 85z" />
    <glyph glyph-name="Edotaccent.sc" unicode="&#xf648;" horiz-adv-x="607" 
d="M587 211l-41 -211h-525v36q23 1 38 8q15 6 22 14.5t12 27.5q6 21 6 69v257q0 41 -6 69q-5 20 -12 27.5t-23 14.5q-11 5 -37 8v36h512l33 -187h-39q-27 63 -72 108q-36 36 -107 36h-43q-14 0 -22 -8q-7 -8 -7 -23v-180h18q59 0 79 23q23 30 28 78h42v-242h-42
q-5 49 -28 79q-19 22 -79 22h-18v-143q0 -49 15 -67q18 -21 52 -21h23q48 0 91 41q53 51 91 128h39zM296 611q-39 0 -64 25t-25 61t25.5 61t63.5 25q37 0 62 -25t25 -61t-24.5 -61t-62.5 -25z" />
    <glyph glyph-name="Emacron.sc" unicode="&#xf649;" horiz-adv-x="607" 
d="M587 211l-41 -211h-525v36q23 1 38 8q15 6 22 14.5t12 27.5q6 21 6 69v257q0 41 -6 69q-5 20 -12 27.5t-23 14.5q-11 5 -37 8v36h512l33 -187h-39q-27 63 -72 108q-36 36 -107 36h-43q-14 0 -22 -8q-7 -8 -7 -23v-180h18q59 0 79 23q23 30 28 78h42v-242h-42
q-5 49 -28 79q-19 22 -79 22h-18v-143q0 -49 15 -67q18 -21 52 -21h23q48 0 91 41q53 51 91 128h39zM433 626h-266v70h266v-70z" />
    <glyph glyph-name="Eogonek.sc" unicode="&#xf64a;" horiz-adv-x="607" 
d="M422 0h-401v36q23 1 38 8q15 6 22 14.5t12 27.5q6 21 6 69v257q0 41 -6 69q-5 20 -12 27.5t-23 14.5q-11 5 -37 8v36h512l33 -187h-39q-27 63 -72 108q-36 36 -107 36h-43q-14 0 -21 -6q-8 -8 -8 -25v-180h18q59 0 79 23q23 30 28 78h42v-242h-42q-5 49 -28 79
q-19 22 -79 22h-18v-143q0 -48 15 -67q16 -21 52 -21h23q48 0 91 41q53 51 91 128h39l-41 -211h-71q-31 -30 -44.5 -53.5t-13.5 -55.5q0 -59 82 -67v-40q-94 -5 -151 18.5t-57 71.5q0 78 131 126z" />
    <glyph glyph-name="Gbreve.sc" unicode="&#xf64b;" horiz-adv-x="668" 
d="M427 142q0 43 -6 57q-8 23 -35 32q-16 5 -31 6v31h300v-31q-17 -1 -33 -6q-26 -8 -34 -30q-8 -18 -8 -59v-105q-37 -14 -97 -30q-77 -20 -140 -20q-140 0 -222.5 84.5t-82.5 211.5q0 129 95 213t220 84q121 0 172 -65h6l20 45h29v-208h-36q-23 82 -56 125
q-26 34 -52.5 48t-67.5 14t-68 -19q-35 -23 -54.5 -74.5t-19.5 -162.5q0 -177 52 -227q30 -27 78 -27q38 0 57 17q14 12 14 50v46zM353 605q-58 0 -96 41.5t-43 109.5l41 11q16 -38 38 -54t60 -16q39 0 60.5 15.5t37.5 54.5l41 -11q-5 -68 -43 -109.5t-96 -41.5z" />
    <glyph glyph-name="Gcommaaccent.sc" unicode="&#xf64c;" horiz-adv-x="668" 
d="M427 142q0 43 -6 57q-8 23 -35 32q-16 5 -31 6v31h300v-31q-17 -1 -33 -6q-26 -8 -34 -30q-8 -18 -8 -59v-105q-37 -14 -97 -30q-77 -20 -140 -20q-140 0 -222.5 84.5t-82.5 211.5q0 129 95 213t220 84q121 0 172 -65h6l20 45h29v-208h-36q-23 82 -56 125
q-26 34 -52.5 48t-67.5 14t-68 -19q-35 -23 -54.5 -74.5t-19.5 -162.5q0 -177 52 -227q30 -27 78 -27q38 0 57 17q14 12 14 50v46zM429 -124q0 -116 -151 -165l-12 34q44 17 66.5 31t22.5 32q0 11 -13 15q-65 19 -65 70q0 28 19.5 48.5t51.5 20.5q38 0 59.5 -23t21.5 -63z
" />
    <glyph glyph-name="Imacron.sc" unicode="&#xf64d;" horiz-adv-x="376" 
d="M276 412v-257q0 -41 6 -69q8 -33 34 -42q12 -5 38 -8v-36h-333v36q23 1 38 8q26 9 34 42q6 28 6 69v257q0 41 -6 69q-5 20 -12 27.5t-23 14.5q-11 5 -37 8v36h333v-36q-21 -3 -36 -8q-29 -13 -36 -42q-6 -28 -6 -69zM319 626h-266v70h266v-70z" />
    <glyph glyph-name="Iogonek.sc" unicode="&#xf64e;" horiz-adv-x="376" 
d="M229 0h-208v36q23 1 38 8q26 9 34 42q6 28 6 69v257q0 41 -6 69q-5 20 -12 27.5t-23 14.5q-11 5 -37 8v36h333v-36q-21 -3 -36 -8q-29 -13 -36 -42q-6 -28 -6 -69v-257q0 -41 6 -69q8 -33 34 -42q12 -5 38 -8v-36h-72q-30 -30 -43.5 -53.5t-13.5 -55.5q0 -59 82 -67v-40
q-95 -5 -152 18.5t-57 71.5q0 78 131 126z" />
    <glyph glyph-name="Kcommaaccent.sc" unicode="&#xf64f;" horiz-adv-x="699" 
d="M354 36v-36h-333v36q23 1 38 8q26 9 34 42q6 28 6 69v257q0 41 -6 69q-5 20 -12 27.5t-23 14.5q-11 5 -37 8v36h333v-36q-21 -3 -36 -8q-29 -13 -36 -42q-6 -28 -6 -69v-120l129 124q46 49 51 64q3 8 3 15q0 20 -22 30q-13 4 -34 6v36h237v-36q-35 -3 -74 -26
q-25 -16 -85 -73l-106 -100v-6q117 -8 160 -48q46 -42 61 -124q7 -49 17.5 -68.5t27.5 -32.5q20 -14 52 -18v-35h-240q-31 31 -40 119q-1 10 -3 38.5t-3.5 38.5t-5.5 27.5t-10 29.5q-13 25 -47 25q-24 0 -53 -27l-15 -15v-81q0 -41 6 -69q8 -33 34 -42q12 -5 38 -8z
M479 -118q0 -116 -151 -165l-12 34q44 17 66.5 31t22.5 32q0 11 -13 15q-65 19 -65 70q0 28 19.5 48.5t51.5 20.5q38 0 59.5 -23t21.5 -63z" />
    <glyph glyph-name="Lacute.sc" unicode="&#xf650;" horiz-adv-x="581" 
d="M79 646l104 104q22 21 31.5 29t26.5 16.5t33 8.5q24 0 41 -15.5t17 -41.5q0 -47 -61 -72q-17 -7 -174 -61zM21 0v36q26 3 37 8q15 6 22.5 14.5t12.5 27.5q6 28 6 69v258q0 40 -6 68q-5 20 -12 28.5t-22 14.5q-13 6 -38 7v36h338v-36q-36 -4 -43 -7q-23 -10 -34 -43
q-6 -17 -6 -69v-290q0 -43 13 -60q15 -20 45 -20h20q37 0 59 10t45 32q39 37 76 124h39l-34 -208h-518z" />
    <glyph glyph-name="Lcaron.sc" unicode="&#xf651;" horiz-adv-x="581" 
d="M21 0v36q26 3 37 8q15 6 22.5 14.5t12.5 27.5q6 28 6 69v258q0 40 -6 68q-5 20 -12 28.5t-22 14.5q-13 6 -38 7v36h338v-36q-36 -4 -43 -7q-23 -10 -34 -43q-6 -17 -6 -69v-290q0 -43 13 -60q15 -20 45 -20h20q37 0 59 10t45 32q39 37 76 124h39l-34 -208h-518zM414 360
l27 221h118l-106 -221h-39z" />
    <glyph glyph-name="Lcommaaccent.sc" unicode="&#xf652;" horiz-adv-x="581" 
d="M21 0v36q26 3 37 8q15 6 22.5 14.5t12.5 27.5q6 28 6 69v258q0 40 -6 68q-5 20 -12 28.5t-22 14.5q-13 6 -38 7v36h338v-36q-36 -4 -43 -7q-23 -10 -34 -43q-6 -17 -6 -69v-290q0 -43 13 -60q15 -20 45 -20h20q37 0 59 10t45 32q39 37 76 124h39l-34 -208h-518zM387 -116
q0 -116 -151 -165l-12 34q44 17 66.5 31t22.5 32q0 11 -13 15q-65 19 -65 70q0 28 19.5 48.5t51.5 20.5q38 0 59.5 -23t21.5 -63z" />
    </font>
</defs>
</svg>
