<?xml version="1.0" standalone="no"?>
<!DOCTYPE svg PUBLIC "-//W3C//DTD SVG 1.1//EN" "http://www.w3.org/Graphics/SVG/1.1/DTD/svg11.dtd" >
<svg>
<metadata>
Created by FontForge 20090622 at Wed May 25 10:58:50 2016
 By deploy user
(c) 2000-2012 Typodermic Fonts Inc. See attached license agreement. If agreement is missing visit typodermicfonts.com for more info. This font is part of the Larabie Fonts collection from Typodermic Fonts.
</metadata>
<defs>
<font id="EngebrechtreRg-Bold" horiz-adv-x="421" >
  <font-face 
    font-family="Engebrechtre Rg"
    font-weight="700"
    font-stretch="normal"
    units-per-em="1000"
    panose-1="2 1 8 6 0 0 0 0 0 0"
    ascent="816"
    descent="-184"
    x-height="617"
    cap-height="823"
    bbox="-158 -184 1006 1016"
    underline-thickness="50"
    underline-position="-75"
    unicode-range="U+0017-U+25CA"
  />
<missing-glyph horiz-adv-x="542" 
d="M135 -82q-100 0 -100 86v788q0 88 100 88h270q101 0 101 -88v-788q0 -86 -101 -86h-270zM125 147q-23 0 -40.5 -17.5t-17.5 -42.5q0 -20 16.5 -38t42.5 -18q21 0 39 16t18 42q0 22 -16.5 40t-41.5 18zM155 617q23 53 54 81t74 28q19 0 41 -6t40.5 -18t31 -30.5
t12.5 -43.5q0 -28 -16 -55t-36 -44l-85.5 -71l-88.5 -70q-33 -27 -53 -59t-20 -68q0 -25 13 -48t43 -44l30 29q-22 12 -22 33q0 12 3 21t11.5 18.5t22.5 21l36 28.5l94.5 76.5t70 65t43.5 65t15 76.5q0 35 -14.5 65t-41 52t-63 34.5t-79.5 12.5q-57 0 -94.5 -33.5
t-62.5 -97.5z" />
    <glyph glyph-name="copyright" unicode="&#x28;C&#x29;" horiz-adv-x="827" 
d="M30 412q0 96 27.5 174t78 133t120.5 85t155 30q84 0 154.5 -30t121 -85t78.5 -133t28 -174t-28 -174t-79 -133t-121 -85t-154 -30t-154.5 30t-120.5 85t-78 133t-28 174zM423 648q-65 0 -65 -110v-252q0 -97 67 -97q65 0 74 96l39 -7q-11 -126 -123 -126q-136 0 -136 135
v251q0 149 136 149q76 0 112 -57l-41 -21q-21 39 -63 39zM94 412q0 -80 23 -145t65 -110.5t100.5 -70.5t128.5 -25t128 25t100 70.5t65.5 110.5t23.5 145q0 79 -23 144t-65 110.5t-100.5 70.5t-128.5 25t-128.5 -25t-100.5 -70.5t-65 -110.5t-23 -144z" />
    <glyph glyph-name="registered" unicode="&#x28;R&#x29;" horiz-adv-x="827" 
d="M30 412q0 96 27.5 174t78 133t120.5 85t155 30q84 0 154.5 -30t121 -85t78.5 -133t28 -174t-28 -174t-79 -133t-121 -85t-154 -30t-154.5 30t-120.5 85t-78 133t-28 174zM94 412q0 -80 23 -145t65 -110.5t100.5 -70.5t128.5 -25t128 25t100 70.5t65.5 110.5t23.5 145
q0 79 -23 144t-65 110.5t-100.5 70.5t-128.5 25t-128.5 -25t-100.5 -70.5t-65 -110.5t-23 -144zM362 640v-197h38q78 0 78 99q0 50 -20 74t-58 24h-38zM477 314q0 91 -77 91h-38v-244h-80v517h103q85 0 127.5 -30.5t42.5 -103.5q0 -48 -20 -76t-63 -43q39 -11 61.5 -39.5
t22.5 -75.5v-149h-79v153z" />
    <glyph glyph-name="uni2117" unicode="&#x28;P&#x29;" horiz-adv-x="827" 
d="M30 412q0 96 27.5 174t78 133t120.5 85t155 30q84 0 154.5 -30t121 -85t78.5 -133t28 -174t-28 -174t-79 -133t-121 -85t-154 -30t-154.5 30t-120.5 85t-78 133t-28 174zM364 640v-197h38q78 0 78 99q0 50 -20 74t-58 24h-38zM364 405v-244h-80v517h113q160 0 160 -134
q0 -139 -155 -139h-38zM94 412q0 -80 23 -145t65 -110.5t100.5 -70.5t128.5 -25t128 25t100 70.5t65.5 110.5t23.5 145q0 79 -23 144t-65 110.5t-100.5 70.5t-128.5 25t-128.5 -25t-100.5 -70.5t-65 -110.5t-23 -144z" />
    <glyph glyph-name=".notdef" horiz-adv-x="542" 
d="M135 -82q-100 0 -100 86v788q0 88 100 88h270q101 0 101 -88v-788q0 -86 -101 -86h-270zM125 147q-23 0 -40.5 -17.5t-17.5 -42.5q0 -20 16.5 -38t42.5 -18q21 0 39 16t18 42q0 22 -16.5 40t-41.5 18zM155 617q23 53 54 81t74 28q19 0 41 -6t40.5 -18t31 -30.5
t12.5 -43.5q0 -28 -16 -55t-36 -44l-85.5 -71l-88.5 -70q-33 -27 -53 -59t-20 -68q0 -25 13 -48t43 -44l30 29q-22 12 -22 33q0 12 3 21t11.5 18.5t22.5 21l36 28.5l94.5 76.5t70 65t43.5 65t15 76.5q0 35 -14.5 65t-41 52t-63 34.5t-79.5 12.5q-57 0 -94.5 -33.5
t-62.5 -97.5z" />
    <glyph glyph-name="uni0017" horiz-adv-x="322" 
 />
    <glyph glyph-name="space" unicode=" " horiz-adv-x="271" 
 />
    <glyph glyph-name="exclam" unicode="!" horiz-adv-x="221" 
d="M27 772q0 26 24.5 44t60.5 18t60.5 -18t24.5 -44l-2 -23.5t-5 -62.5l-7 -89.5l-8.5 -103l-8.5 -103.5t-8 -92l-6.5 -68t-3.5 -31h-73q-1 4 -3.5 31l-6 68l-7.5 92l-8.5 103.5l-8.5 103l-7 89.5t-5 62.5zM25 68q0 33 22 55.5t56 22.5q33 0 55.5 -22.5t22.5 -55.5
q0 -34 -22.5 -56t-55.5 -22q-34 0 -56 22t-22 56z" />
    <glyph glyph-name="quotedbl" unicode="&#x22;" horiz-adv-x="342" 
d="M14 591zM14 765q0 29 19.5 49t51.5 20t52 -20t20 -49q0 -16 -6 -37l-13 -44t-13 -47t-6 -46h-68q-3 27 -9 51.5t-12 46.5l-11 41t-5 35zM185 765q0 29 19.5 49t51.5 20t52 -20t20 -49q0 -16 -6 -37l-13 -44t-13 -47t-6 -46h-68q-3 27 -9 51.5t-12 46.5l-11 41t-5 35z" />
    <glyph glyph-name="numbersign" unicode="#" horiz-adv-x="480" 
d="M193 351h68l26 98h-68zM242 535h68l43 160h76l-44 -160h82l-22 -86h-83l-26 -98h82l-23 -87h-83l-42 -158h-75l42 158h-68l-42 -158h-75l42 158h-82l23 87h83l25 98h-81l22 86h83l43 160h76z" />
    <glyph glyph-name="dollar" unicode="$" horiz-adv-x="380" 
d="M172 73q-71 5 -107.5 41t-44.5 106l65 12q8 -50 29 -69t58 -22v192l-45 48.5t-43 50.5q-27 32 -37.5 65.5t-10.5 71.5q0 65 34 107.5t102 51.5v95h55v-93q115 -12 128 -148l-59 -11q-7 47 -23.5 67.5t-45.5 25.5v-196l37.5 -41.5l36.5 -41.5q16 -20 28 -37t19.5 -35.5
t11 -40t3.5 -49.5q0 -27 -8.5 -52t-26 -45t-43 -33.5t-58.5 -18.5v-74h-55v73zM172 662q-23 -6 -33 -20.5t-10 -31.5q0 -8 1.5 -16t6 -17.5t13 -22t22.5 -28.5v136zM271 198q0 26 -15 42t-29 35v-131q44 12 44 54z" />
    <glyph glyph-name="percent" unicode="%" horiz-adv-x="760" 
d="M49 0zM183 781q-22 0 -30.5 -11.5t-8.5 -37.5v-250q0 -28 9.5 -40t29.5 -12q21 0 30.5 12t9.5 41v249q0 27 -9.5 38t-30.5 11zM183 372q-134 0 -134 121v216q0 131 134 131t134 -121v-215q0 -132 -134 -132zM200 0h-81l444 823h81zM577 393q-22 0 -30.5 -11.5t-8.5 -37.5
v-250q0 -28 9.5 -40t29.5 -12q21 0 30.5 12t9.5 41v249q0 27 -9.5 38t-30.5 11zM577 -16q-134 0 -134 121v216q0 131 134 131t134 -121v-215q0 -132 -134 -132z" />
    <glyph glyph-name="ampersand" unicode="&#x26;" horiz-adv-x="566" 
d="M291 204q-2 8 -2 14.5v13.5q0 45 26 78.5t77 70.5l35 25t28 23t19 26t8 35l71 -19q-4 -24 -10.5 -42t-16.5 -33.5t-24.5 -29.5t-35.5 -29q20 -28 31 -60.5t11 -64.5q0 -45 -16.5 -85.5t-45.5 -70.5t-70.5 -48t-90.5 -18q-119 0 -187 63.5t-68 178.5q0 82 25 139t65 92
q-29 32 -46 74t-17 90q0 100 55 153.5t151 53.5q125 0 170 -103l-78 -38q-12 23 -33.5 38t-57.5 15q-35 0 -55 -30t-20 -99q0 -32 3.5 -57.5t9.5 -45.5q49 18 101 18q46 0 72 -19.5t26 -54.5q0 -14 -6 -27.5t-18 -24.5t-30 -18t-42 -7q-56 0 -105 23q-20 -58 -20 -164
q0 -89 30 -127.5t87 -38.5q25 0 48 8.5t40.5 25.5t28 44t10.5 65q0 32 -3.5 47t-15.5 30q-20 -14 -33.5 -31.5t-13.5 -42.5q0 -10 3 -22zM303 437q31 0 31 21q0 11 -6.5 19t-25.5 8q-41 0 -68 -24q25 -24 69 -24z" />
    <glyph glyph-name="quotesingle" unicode="'" horiz-adv-x="171" 
d="M14 765q0 29 19.5 49t51.5 20t52 -20t20 -49q0 -16 -6 -37l-13 -44t-13 -47t-6 -46h-68q-3 27 -9 51.5t-12 46.5l-11 41t-5 35z" />
    <glyph glyph-name="parenleft" unicode="(" horiz-adv-x="347" 
d="M343 919v-74h-51q-54 0 -83.5 -47t-29.5 -141v-514q0 -79 28.5 -121t84.5 -42h51v-77h-12q-265 0 -265 212v572q0 232 255 232h22z" />
    <glyph glyph-name="parenright" unicode=")" horiz-adv-x="347" 
d="M26 919q255 0 255 -232v-572q0 -212 -265 -212h-12v77h51q56 0 84.5 42t28.5 121v514q0 94 -29.5 141t-83.5 47h-51v74h22z" />
    <glyph glyph-name="asterisk" unicode="*" horiz-adv-x="634" 
d="M328 495l82 212l83 -43l-124 -190l190 124l43 -83l-212 -93h226l-14 -93l-219 59l176 -142l-66 -66l-142 176l59 -219l-104 -15v227l-82 -212l-83 43l123 189l-189 -123l-43 83l212 93h-227l15 93l219 -59l-176 142l66 66l142 -176l-59 219l104 14v-226z" />
    <glyph glyph-name="plus" unicode="+" horiz-adv-x="397" 
d="M151 606h93v-136h138v-94h-138v-137h-93v137h-137v94h137v136z" />
    <glyph glyph-name="comma" unicode="," horiz-adv-x="189" 
d="M22 73q0 31 21 52t52 21t52.5 -21t21.5 -52q0 -57 -30 -94.5t-77 -57.5l-23 38q17 6 37.5 18t30.5 26q-6 -1 -10.5 -1.5t-7.5 -0.5q-31 0 -49 22t-18 50z" />
    <glyph glyph-name="hyphen" unicode="-" horiz-adv-x="235" 
d="M13 465h208v-91h-208v91z" />
    <glyph glyph-name="period" unicode="." horiz-adv-x="207" 
d="M25 68q0 33 22 55.5t56 22.5q33 0 55.5 -22.5t22.5 -55.5q0 -34 -22.5 -56t-55.5 -22q-34 0 -56 22t-22 56z" />
    <glyph glyph-name="slash" unicode="/" horiz-adv-x="285" 
d="M96 -103h-94l188 1029h93z" />
    <glyph glyph-name="zero" unicode="0" horiz-adv-x="573" 
d="M285 747q-46 0 -63.5 -23.5t-17.5 -77.5v-464q0 -57 20.5 -82.5t63.5 -25.5t62.5 25.5t19.5 84.5v461q0 57 -19.5 79.5t-65.5 22.5zM287 -10q-238 0 -238 212v400q0 232 237 232q238 0 238 -212v-401q0 -231 -237 -231z" />
    <glyph glyph-name="one" unicode="1" horiz-adv-x="290" 
d="M25 823h205v-823h-154v734h-51v89z" />
    <glyph glyph-name="two" unicode="2" horiz-adv-x="480" 
d="M264 554q17 40 23 65.5t6 54.5q0 38 -21 57t-59 19q-17 0 -30.5 -5t-24 -18t-18 -35t-13.5 -56l-89 8q19 190 183 190q54 0 93 -14t64.5 -39t37.5 -60t12 -76q0 -28 -8 -57.5t-28 -75.5l-190 -428h215v-84h-394z" />
    <glyph glyph-name="three" unicode="3" horiz-adv-x="531" 
d="M342 240q0 106 -20 164q-49 -23 -105 -23q-24 0 -42 7t-30 18t-18 24.5t-6 27.5q0 35 26 54.5t72 19.5q51 0 101 -18q6 20 9.5 45.5t3.5 57.5q0 69 -20 99t-55 30q-36 0 -57.5 -15t-33.5 -38l-78 38q45 103 170 103q96 0 151 -53.5t55 -153.5q0 -48 -17 -90t-46 -74
q40 -35 65 -92t25 -139q0 -115 -68 -178.5t-187 -63.5q-42 0 -79.5 12.5t-67 37t-49.5 59.5t-27 80l86 17q15 -62 46 -92t93 -30q57 0 80 38.5t23 127.5zM219 437q44 0 69 24q-27 24 -68 24q-19 0 -25.5 -8t-6.5 -19q0 -21 31 -21z" />
    <glyph glyph-name="four" unicode="4" horiz-adv-x="509" 
d="M17 171l314 652h90v-612h66v-85h-66v-126h-154v126h-250v45zM267 211v320l-156 -320h156z" />
    <glyph glyph-name="five" unicode="5" horiz-adv-x="536" 
d="M346 262q0 61 -5.5 101t-17.5 63t-31.5 32.5t-47.5 9.5q-44 0 -67 -13t-37 -30l-84 5l29 393h352v-86h-209l-17 -216q10 8 33.5 15t66.5 7q39 0 72.5 -16.5t58.5 -50t39 -84.5t14 -121q0 -77 -18.5 -130t-51.5 -87t-79 -49t-101 -15q-104 0 -157.5 49t-68.5 140l72 16
q7 -36 20.5 -59.5t30 -37t36 -19t39.5 -5.5q31 0 55.5 8t40.5 29t24.5 57.5t8.5 93.5z" />
    <glyph glyph-name="six" unicode="6" horiz-adv-x="558" 
d="M200 422q-8 -32 -11 -68.5t-3 -93.5q0 -101 21.5 -144t69.5 -43t71 46t23 127q0 61 -4.5 102t-16 66t-30.5 35.5t-49 10.5t-45 -10.5t-26 -27.5zM37 289q0 77 19 154.5t55 148t88 130t118 101.5h102q-24 -20 -54.5 -53.5t-60.5 -75.5t-55 -89t-37 -93q15 16 34.5 26
t57.5 10q50 0 90 -19.5t68.5 -56t43.5 -89.5t15 -119q0 -68 -18 -119t-50.5 -86t-78 -52.5t-99.5 -17.5q-62 0 -107 21.5t-74 61t-43 95t-14 122.5z" />
    <glyph glyph-name="seven" unicode="7" horiz-adv-x="477" 
d="M16 823h434v-31l-235 -792h-166l236 737h-269v86z" />
    <glyph glyph-name="eight" unicode="8" horiz-adv-x="564" 
d="M281 500q21 0 35.5 6t23.5 21t13 41t4 66q0 54 -16.5 82.5t-60.5 28.5t-58.5 -29t-14.5 -82q0 -39 4 -65t12.5 -41.5t22.5 -21.5t35 -6zM281 420q-21 0 -38 -8t-28.5 -29t-17.5 -56.5t-6 -90.5q0 -72 21.5 -117.5t71.5 -45.5q49 0 69 46t20 122q0 53 -6.5 87.5t-18.5 55
t-29 28.5t-38 8zM190 462q-53 22 -83 66t-30 110q0 97 53 146.5t152 49.5t151.5 -50.5t52.5 -146.5q0 -39 -10.5 -68t-27 -50.5t-36.5 -35.5t-38 -21q69 -31 109 -84t40 -137q0 -251 -241 -251q-121 0 -181 62t-60 180q0 85 37.5 141t111.5 89z" />
    <glyph glyph-name="nine" unicode="9" horiz-adv-x="558" 
d="M358 401q8 32 11 68.5t3 93.5q0 101 -21.5 144t-69.5 43t-71 -46t-23 -127q0 -61 4.5 -102t16 -66t30.5 -35.5t49 -10.5t45 10.5t26 27.5zM521 534q0 -77 -19 -154.5t-55 -148t-88 -130t-118 -101.5h-102q24 19 54.5 53t60.5 76t55 89t37 93q-15 -16 -34.5 -26t-57.5 -10
q-50 0 -90 19.5t-68.5 56t-43.5 89.5t-15 119q0 67 18 118.5t50.5 86.5t78 52.5t99.5 17.5q62 0 107 -21.5t74 -61t43 -95t14 -122.5z" />
    <glyph glyph-name="colon" unicode=":" horiz-adv-x="224" 
d="M34 68q0 33 22 55.5t56 22.5q33 0 55.5 -22.5t22.5 -55.5q0 -34 -22.5 -56t-55.5 -22q-34 0 -56 22t-22 56zM34 418q0 33 22 55.5t56 22.5q33 0 55.5 -22.5t22.5 -55.5q0 -34 -22.5 -56t-55.5 -22q-34 0 -56 22t-22 56z" />
    <glyph glyph-name="semicolon" unicode=";" horiz-adv-x="222" 
d="M33 418q0 33 22 55.5t56 22.5q33 0 55.5 -22.5t22.5 -55.5q0 -34 -22.5 -56t-55.5 -22q-34 0 -56 22t-22 56zM39 73q0 31 21 52t52 21t52.5 -21t21.5 -52q0 -57 -30 -94.5t-77 -57.5l-23 38q17 6 37.5 18t30.5 26q-6 -1 -10.5 -1.5t-7.5 -0.5q-31 0 -49 22t-18 50z" />
    <glyph glyph-name="less" unicode="&#x3c;" horiz-adv-x="397" 
d="M14 457l368 171v-96l-249 -109l249 -109v-96l-368 173v66z" />
    <glyph glyph-name="equal" unicode="=" horiz-adv-x="397" 
d="M382 573v-94h-368v94h368zM382 367v-94h-368v94h368z" />
    <glyph glyph-name="greater" unicode="&#x3e;" horiz-adv-x="397" 
d="M382 391l-368 -173v96l249 109l-249 109v96l368 -171v-66z" />
    <glyph glyph-name="question" unicode="?" 
d="M9 648q11 92 58 139t145 47q43 0 79 -11.5t62 -34t40.5 -55.5t14.5 -76q0 -33 -6.5 -58.5t-26.5 -58.5q-11 -17 -27 -39l-35 -46l-37.5 -48l-33.5 -45q-22 -31 -29 -47t-7 -34q0 -16 6 -26t23 -16l-37 -55q-54 11 -84.5 45.5t-30.5 83.5q0 29 6.5 51t23.5 49
q10 16 29.5 41l41 52l41.5 52.5l31 40.5q17 23 26 40.5t9 43.5q0 30 -19.5 49t-59.5 19q-26 0 -45 -5.5t-32 -19t-21.5 -37t-14.5 -60.5zM105 68q0 33 22 55.5t56 22.5q33 0 55.5 -22.5t22.5 -55.5q0 -34 -22.5 -56t-55.5 -22q-34 0 -56 22t-22 56z" />
    <glyph glyph-name="at" unicode="@" horiz-adv-x="623" 
d="M342 328q0 62 -8 84.5t-25 22.5q-9 0 -16.5 -6t-12 -24t-7 -50.5t-2.5 -84.5q0 -74 6.5 -103t22.5 -29q8 0 15.5 9.5t13.5 31.5t9.5 58.5t3.5 90.5zM418 183q0 -28 11 -41t30 -13q15 0 28.5 11t23 35.5t15.5 64.5t6 97q0 67 -10.5 120.5t-33 91t-58.5 57.5t-87 20
q-65 0 -112 -23t-77 -68t-44 -111t-14 -151q0 -71 13.5 -130t42 -101t71 -65t101.5 -23q40 0 71 6.5t56 18.5t46.5 28t42.5 35l43 -53q-21 -22 -47.5 -41t-58.5 -32.5t-71 -21t-87 -7.5q-72 0 -127 31t-92.5 84t-56.5 123t-19 149q0 89 21 164t61.5 130t100.5 85.5t137 30.5
q63 0 110 -26.5t78.5 -72.5t47.5 -109t16 -136q0 -53 -7 -100.5t-23.5 -83.5t-43.5 -57t-67 -21q-38 0 -61.5 22.5t-31.5 68.5q-13 -42 -31.5 -66.5t-47.5 -24.5q-26 0 -44 16t-29 42.5t-15.5 61t-4.5 71.5q0 57 10 97t26 64.5t34.5 35.5t36.5 11q23 0 36.5 -12.5
t19.5 -32.5v39h65v-288z" />
    <glyph glyph-name="A" unicode="A" horiz-adv-x="493" 
d="M220 823h62l199 -823h-164l-35 151h-148l-36 -151h-86zM154 236h108l-53 231z" />
    <glyph glyph-name="B" unicode="B" horiz-adv-x="522" 
d="M210 84h32q30 0 50.5 7.5t32.5 25.5t17.5 48.5t5.5 76.5q0 60 -6.5 96.5t-20 57t-33.5 27.5t-46 7h-32v-346zM210 514h23q18 0 31 5.5t21 19.5t12 39t4 63q0 56 -16 76t-52 20h-23v-223zM228 823q110 0 160.5 -42t50.5 -133q0 -42 -6 -71t-19.5 -49.5t-34 -34
t-49.5 -23.5q80 -11 126.5 -68.5t46.5 -168.5q0 -118 -67.5 -175.5t-191.5 -57.5h-188v823h172z" />
    <glyph glyph-name="C" unicode="C" horiz-adv-x="482" 
d="M295 747q-48 0 -69.5 -29t-21.5 -72v-447q0 -69 26.5 -97t77.5 -28q37 0 61.5 31t34.5 85l57 -11q-19 -189 -194 -189q-218 0 -218 212v400q0 116 55 174t172 58q71 0 109 -31.5t54 -86.5l-62 -29q-9 25 -26.5 42.5t-55.5 17.5z" />
    <glyph glyph-name="D" unicode="D" horiz-adv-x="538" 
d="M210 84h22q27 0 46 7t32 24t19 45.5t6 71.5v382q0 67 -24 95t-79 28h-22v-653zM223 823q266 0 266 -212v-379q0 -232 -255 -232h-178v823h167z" />
    <glyph glyph-name="E" unicode="E" 
d="M56 0v823h340v-86h-186v-272h126v-87h-126v-294h186v-84h-340z" />
    <glyph glyph-name="F" unicode="F" horiz-adv-x="409" 
d="M56 0v823h340v-86h-186v-272h126v-87h-126v-378h-154z" />
    <glyph glyph-name="G" unicode="G" horiz-adv-x="509" 
d="M275 463h183v-463h-53l-37 38q-12 -22 -39 -35t-72 -13q-103 0 -155.5 48.5t-52.5 147.5v416q0 116 55 174t173 58q63 0 104.5 -30.5t57.5 -87.5l-62 -28q-14 30 -31 44.5t-49 14.5q-44 0 -68.5 -28t-24.5 -79v-486q0 -42 18 -61t50 -19q28 0 40 14.5t16 36.5v251h-53v87
z" />
    <glyph glyph-name="H" unicode="H" horiz-adv-x="544" 
d="M56 823h154v-358h125v358h154v-823h-154v378h-125v-378h-154v823z" />
    <glyph glyph-name="I" unicode="I" horiz-adv-x="265" 
d="M56 823h154v-823h-154v823z" />
    <glyph glyph-name="J" unicode="J" horiz-adv-x="487" 
d="M277 823h154v-621q0 -212 -217 -212q-175 0 -194 189l61 11q6 -34 15 -56t23.5 -35.5t33.5 -19t45 -5.5q19 0 34 5.5t25 20t15 38.5t5 61v624z" />
    <glyph glyph-name="K" unicode="K" horiz-adv-x="497" 
d="M227 409l-17 -31v-378h-154v823h154v-295l149 295h103l-150 -264l177 -559h-165z" />
    <glyph glyph-name="L" unicode="L" horiz-adv-x="409" 
d="M56 823h154v-739h186v-84h-340v823z" />
    <glyph glyph-name="M" unicode="M" horiz-adv-x="632" 
d="M50 823h110l153 -505l140 505h123v-823h-144v450l-106 -450h-86l-110 399v-399h-80v823z" />
    <glyph glyph-name="N" unicode="N" horiz-adv-x="528" 
d="M135 476v-476h-88v823h91l258 -487v487h85v-823h-74z" />
    <glyph glyph-name="O" unicode="O" horiz-adv-x="532" 
d="M266 834q217 0 217 -212v-411q0 -109 -53.5 -165t-162.5 -56q-218 0 -218 212v410q0 109 54 165.5t163 56.5zM268 74q35 0 47.5 18.5t12.5 74.5v485q0 30 -4 49t-12 29.5t-20 14.5t-28 4t-27.5 -4t-18.5 -14.5t-10.5 -29.5t-3.5 -49v-485q0 -56 14.5 -74.5t49.5 -18.5z
" />
    <glyph glyph-name="P" unicode="P" horiz-adv-x="508" 
d="M210 463h32q53 0 73.5 35t20.5 113q0 69 -20.5 97.5t-73.5 28.5h-32v-274zM210 0h-154v823h159q138 0 205 -47.5t67 -161.5q0 -116 -60 -176t-185 -60h-32v-378z" />
    <glyph glyph-name="Q" unicode="Q" horiz-adv-x="532" 
d="M266 834q217 0 217 -212v-411q0 -166 -125 -208q17 -26 39 -49.5t49 -44.5l-53 -53q-72 57 -115 134h-11q-218 0 -218 212v410q0 109 54 165.5t163 56.5zM298 162q3 -20 8 -38.5t11 -37.5q11 10 15.5 29.5t4.5 51.5v485q0 30 -4.5 49t-13.5 29.5t-23 14.5t-32 4
q-19 0 -32 -4t-21.5 -14.5t-12 -29.5t-3.5 -49v-485q0 -47 10.5 -66.5t36.5 -24.5q-10 34 -15 71z" />
    <glyph glyph-name="R" unicode="R" horiz-adv-x="522" 
d="M210 463h32q53 0 74 33.5t21 114.5q0 37 -5 61.5t-16.5 38.5t-29.5 20t-44 6h-32v-274zM335 268q0 32 -4 53.5t-14.5 34t-28.5 17.5t-46 5h-32v-378h-154v823h183q121 0 184.5 -48.5t63.5 -160.5q0 -44 -9.5 -76.5t-28.5 -55.5t-49 -38t-70 -25q76 -11 117.5 -54.5
t41.5 -131.5v-233h-154v268z" />
    <glyph glyph-name="S" unicode="S" horiz-adv-x="485" 
d="M256 834q164 0 183 -190l-72 -15q-5 36 -14.5 59.5t-24 37.5t-34 19.5t-44.5 5.5q-45 0 -66.5 -21.5t-21.5 -49.5q0 -23 6 -41.5t26 -42.5q9 -12 29.5 -34l46 -50l52.5 -59.5l51 -61.5q20 -26 34.5 -48t23.5 -45.5t13.5 -51t4.5 -64.5q0 -38 -13 -73t-39.5 -61.5
t-65.5 -42t-91 -15.5q-99 0 -150 46.5t-61 142.5l80 15q6 -35 16.5 -57.5t26 -36t36.5 -18.5t48 -5q52 0 76 19t24 55q0 20 -8.5 40t-32.5 46l-33.5 36.5l-47.5 52.5l-54 61.5t-52 63.5q-33 42 -46 84t-13 91q0 93 52 150.5t155 57.5z" />
    <glyph glyph-name="T" unicode="T" horiz-adv-x="405" 
d="M12 823h381v-89h-111v-734h-154v734h-116v89z" />
    <glyph glyph-name="U" unicode="U" horiz-adv-x="536" 
d="M269 -10q-110 0 -164 51t-54 146v636h155v-664q0 -48 15.5 -66.5t50.5 -18.5t50 18.5t15 66.5v664h148v-636q0 -90 -54 -143.5t-162 -53.5z" />
    <glyph glyph-name="V" unicode="V" horiz-adv-x="493" 
d="M273 0h-62l-199 823h164l108 -467l111 467h86z" />
    <glyph glyph-name="W" unicode="W" horiz-adv-x="831" 
d="M637 0h-100l-122 538l-127 -538h-101l-175 823h168l99 -523l126 523h99l124 -523l106 523h84z" />
    <glyph glyph-name="X" unicode="X" horiz-adv-x="470" 
d="M303 465l154 -465h-163l-92 269l-95 -269h-93l146 391l-147 432h172l77 -235l84 235h91z" />
    <glyph glyph-name="Y" unicode="Y" horiz-adv-x="527" 
d="M293 439l136 384h90l-181 -497v-326h-154v306l-176 517h158z" />
    <glyph glyph-name="Z" unicode="Z" horiz-adv-x="470" 
d="M19 823h433v-49l-254 -690h254v-84h-433v44l258 690h-258v89z" />
    <glyph glyph-name="bracketleft" unicode="[" horiz-adv-x="310" 
d="M89 895h213v-79h-100v-814h100v-74h-213v967z" />
    <glyph glyph-name="backslash" unicode="\" horiz-adv-x="285" 
d="M2 926h94l187 -1029h-93z" />
    <glyph glyph-name="bracketright" unicode="]" horiz-adv-x="310" 
d="M221 -72h-213v74h100v814h-100v79h213v-967z" />
    <glyph glyph-name="asciicircum" unicode="^" horiz-adv-x="297" 
d="M182 823l100 -224h-78l-56 139l-56 -139h-78l103 224h65z" />
    <glyph glyph-name="underscore" unicode="_" horiz-adv-x="410" 
d="M-3 -42h415v-89h-415v89z" />
    <glyph glyph-name="grave" unicode="`" horiz-adv-x="296" 
d="M98 787h122l71 -151h-89z" />
    <glyph glyph-name="a" unicode="a" horiz-adv-x="378" 
d="M169 617h46l150 -617h-123l-27 113h-111l-27 -113h-65zM119 177h81l-40 173z" />
    <glyph glyph-name="b" unicode="b" horiz-adv-x="412" 
d="M172 63h24q22 0 37.5 5.5t25 19t13.5 36.5t4 58q0 45 -5 72.5t-15 42.5t-25 20.5t-35 5.5h-24v-260zM172 386h17q14 0 24 4t16 14.5t9 29t3 47.5q0 42 -12 57t-40 15h-17v-167zM186 617q83 0 121 -31.5t38 -99.5q0 -32 -5 -53.5t-15 -36.5t-25.5 -25t-37.5 -18
q61 -9 96 -51.5t35 -126.5q0 -88 -51 -131.5t-144 -43.5h-142v617h130z" />
    <glyph glyph-name="c" unicode="c" horiz-adv-x="380" 
d="M234 563q-36 0 -52 -23t-16 -55v-336q0 -52 20 -73.5t58 -21.5q28 0 46 24t26 65l43 -9q-15 -144 -146 -144q-83 0 -123.5 41t-40.5 121v300q0 87 41.5 132t129.5 45q54 0 82.5 -25t40.5 -67l-47 -22q-7 19 -20 33.5t-42 14.5z" />
    <glyph glyph-name="d" unicode="d" horiz-adv-x="431" 
d="M172 63h17q20 0 34.5 5t24 18t14 34.5t4.5 53.5v287q0 50 -17.5 71t-59.5 21h-17v-490zM182 617q200 0 200 -159v-284q0 -174 -192 -174h-134v617h126z" />
    <glyph glyph-name="e" unicode="e" horiz-adv-x="337" 
d="M56 0v617h256v-64h-140v-204h95v-65h-95v-221h140v-63h-256z" />
    <glyph glyph-name="f" unicode="f" horiz-adv-x="324" 
d="M56 0v617h256v-64h-140v-204h95v-65h-95v-284h-116z" />
    <glyph glyph-name="g" unicode="g" horiz-adv-x="405" 
d="M219 347h138v-347h-40l-28 29q-9 -17 -29.5 -28t-53.5 -11q-157 0 -157 150v312q0 87 41.5 131.5t130.5 44.5q48 0 79 -24t43 -67l-47 -21q-11 23 -23.5 34.5t-36.5 11.5q-33 0 -51.5 -22t-18.5 -60v-364q0 -32 13.5 -47t37.5 -15q21 0 30 11.5t12 28.5v188h-40v65z" />
    <glyph glyph-name="h" unicode="h" horiz-adv-x="437" 
d="M56 617h116v-268h94v268h116v-617h-116v284h-94v-284h-116v617z" />
    <glyph glyph-name="i" unicode="i" horiz-adv-x="228" 
d="M56 617h116v-617h-116v617z" />
    <glyph glyph-name="j" unicode="j" horiz-adv-x="386" 
d="M214 617h116v-465q0 -80 -41 -121t-123 -41q-131 0 -146 144l46 9q8 -51 29 -70t59 -19q29 0 44.5 19.5t15.5 75.5v468z" />
    <glyph glyph-name="k" unicode="k" horiz-adv-x="390" 
d="M185 306l-13 -22v-284h-116v617h116v-221l112 221h78l-113 -197l133 -420h-124z" />
    <glyph glyph-name="l" unicode="l" horiz-adv-x="324" 
d="M56 617h116v-554h140v-63h-256v617z" />
    <glyph glyph-name="m" unicode="m" horiz-adv-x="501" 
d="M50 617h82l112 -381l109 381h93v-617h-109v338l-80 -338h-64l-83 299v-299h-60v617z" />
    <glyph glyph-name="n" unicode="n" 
d="M114 357v-357h-67v617h69l194 -365v365h64v-617h-56z" />
    <glyph glyph-name="o" unicode="o" horiz-adv-x="425" 
d="M212 628q82 0 123 -41t41 -120v-309q0 -81 -41 -124.5t-122 -43.5q-83 0 -123.5 41t-40.5 121v307q0 81 40.5 125t122.5 44zM214 54q26 0 35.5 14.5t9.5 56.5v364q0 45 -12 60t-36 15q-25 0 -35 -15t-10 -60v-364q0 -42 10.5 -56.5t37.5 -14.5z" />
    <glyph glyph-name="p" unicode="p" horiz-adv-x="402" 
d="M172 347h24q40 0 55.5 26.5t15.5 84.5q0 52 -15.5 73.5t-55.5 21.5h-24v-206zM172 0h-116v617h120q104 0 154.5 -35t50.5 -121q0 -88 -45.5 -132.5t-139.5 -44.5h-24v-284z" />
    <glyph glyph-name="q" unicode="q" horiz-adv-x="425" 
d="M212 628q82 0 123 -41t41 -120v-309q0 -124 -93 -158q26 -38 65 -68l-40 -40q-54 41 -85 98h-10q-83 0 -123.5 41t-40.5 121v307q0 81 40.5 125t122.5 44zM236 122q5 -32 15 -58q15 14 15 61v364q0 45 -13.5 60t-41.5 15q-29 0 -40.5 -15t-11.5 -60v-364q0 -35 7.5 -50.5
t27.5 -19.5q-4 14 -6.5 27.5t-4.5 27.5z" />
    <glyph glyph-name="r" unicode="r" horiz-adv-x="415" 
d="M172 347h24q40 0 56 25t16 86q0 56 -16 75.5t-56 19.5h-24v-206zM266 201q0 24 -3 40t-10.5 25.5t-21.5 13.5t-35 4h-24v-284h-116v617h138q91 0 139 -36t48 -120q0 -67 -28.5 -99.5t-90.5 -47.5q58 -8 89 -40.5t31 -98.5v-175h-116v201z" />
    <glyph glyph-name="s" unicode="s" horiz-adv-x="379" 
d="M200 628q123 0 138 -145l-55 -11q-8 54 -29 73.5t-59 19.5q-34 0 -50 -17t-16 -38q0 -17 5 -31t19 -32q7 -9 22.5 -25.5l34.5 -37.5l39.5 -44.5t38.5 -46.5q15 -19 26 -35.5t17.5 -34t10 -38.5t3.5 -48q0 -29 -10 -55.5t-29.5 -47t-49 -32.5t-68.5 -12q-75 0 -113 36
t-46 108l60 12q9 -53 31.5 -71.5t64.5 -18.5q39 0 57 15t18 42q0 15 -6.5 30t-24.5 35q-9 9 -25 27l-35.5 39.5l-41 46t-39.5 47.5q-25 32 -34.5 63.5t-9.5 68.5q0 70 39 114t117 44z" />
    <glyph glyph-name="t" unicode="t" horiz-adv-x="312" 
d="M12 617h287v-66h-84v-551h-116v551h-87v66z" />
    <glyph glyph-name="u" unicode="u" horiz-adv-x="429" 
d="M216 -10q-83 0 -124 39.5t-41 110.5v477h117v-498q0 -36 12 -50.5t38 -14.5t37.5 14.5t11.5 50.5v498h111v-477q0 -68 -40.5 -109t-121.5 -41z" />
    <glyph glyph-name="v" unicode="v" horiz-adv-x="378" 
d="M209 0h-47l-150 617h124l81 -350l83 350h65z" />
    <glyph glyph-name="w" unicode="w" horiz-adv-x="632" 
d="M483 0h-76l-92 404l-95 -404h-76l-132 617h127l74 -392l95 392h75l93 -392l80 392h63z" />
    <glyph glyph-name="x" unicode="x" horiz-adv-x="360" 
d="M231 349l116 -349h-123l-69 202l-71 -202h-70l109 293l-110 324h129l58 -176l64 176h68z" />
    <glyph glyph-name="y" unicode="y" horiz-adv-x="401" 
d="M223 329l102 288h68l-136 -372v-245h-116v230l-133 387h119z" />
    <glyph glyph-name="z" unicode="z" horiz-adv-x="363" 
d="M19 617h326v-36l-191 -518h191v-63h-326v33l195 518h-195v66z" />
    <glyph glyph-name="braceleft" unicode="{" horiz-adv-x="339" 
d="M299 -97q-111 0 -170 44.5t-59 131.5q0 28 4 55t8.5 53.5t8.5 52.5t4 53q0 30 -7 47t-18.5 25t-25 10t-25.5 2v68q12 0 25.5 2t25 10.5t18.5 25t7 46.5q0 27 -4 53t-8.5 52.5t-8.5 53.5t-4 55q0 87 59 131.5t170 44.5h22v-74h-51q-28 0 -46 -4t-28 -16t-14 -32.5
t-4 -53.5q0 -18 3.5 -41.5t8 -47t8 -46t3.5 -39.5q0 -35 -9.5 -61t-23.5 -44t-29.5 -30t-28.5 -19q12 -7 28 -18.5t30 -30t23.5 -44.5t9.5 -61q0 -17 -3.5 -39t-8 -46t-8 -47t-3.5 -42q0 -33 4 -53.5t14 -32t28 -15.5t46 -4h51v-75h-22z" />
    <glyph glyph-name="bar" unicode="|" horiz-adv-x="135" 
d="M19 844h98v-865h-98v865z" />
    <glyph glyph-name="braceright" unicode="}" horiz-adv-x="339" 
d="M19 -97v75h51q28 0 46 4t28 15.5t14 32t4 53.5q0 19 -3.5 42t-8 47t-8 46t-3.5 39q0 35 9.5 61t23.5 44.5t30 30t28 18.5q-13 7 -28.5 19t-29.5 30t-23.5 44t-9.5 61q0 17 3.5 39.5t8 46t8 47t3.5 41.5q0 33 -4 53.5t-14 32.5t-28 16t-46 4h-51v74h22q111 0 170 -44.5
t59 -131.5q0 -28 -4 -55t-8.5 -53.5t-8.5 -52.5t-4 -53q0 -30 7 -46.5t18.5 -25t25 -10.5t25.5 -2v-68q-12 0 -25.5 -2t-25 -10t-18.5 -25t-7 -47q0 -27 4 -53t8.5 -52.5t8.5 -53.5t4 -55q0 -87 -59 -131.5t-170 -44.5h-22z" />
    <glyph glyph-name="asciitilde" unicode="~" horiz-adv-x="405" 
d="M387 448q-8 -19 -19 -36.5t-24.5 -31t-30 -21.5t-35.5 -8q-22 0 -43 8.5t-41 18.5l-38.5 18.5t-34.5 8.5q-22 0 -31.5 -10t-18.5 -37l-52 40q17 40 44.5 68.5t66.5 28.5q21 0 42 -8.5t41 -18.5l38 -18.5t35 -8.5q23 0 33 10.5t17 36.5z" />
    <glyph glyph-name="nonbreakingspace" unicode="&#xa0;" horiz-adv-x="322" 
 />
    <glyph glyph-name="exclamdown" unicode="&#xa1;" horiz-adv-x="221" 
d="M195 -122q0 -26 -24.5 -44t-60.5 -18t-60.5 18t-24.5 44l2 23.5t5 62.5l7 89.5l8.5 103l8.5 103.5t8 92l6.5 68t3.5 31h73q1 -4 3.5 -31l6 -68l7.5 -92l8.5 -103.5l8.5 -103l7 -89.5t5 -62.5zM197 582q0 -33 -22 -55.5t-56 -22.5q-33 0 -55.5 22.5t-22.5 55.5
q0 34 22.5 56t55.5 22q34 0 56 -22t22 -56z" />
    <glyph glyph-name="cent" unicode="&#xa2;" horiz-adv-x="403" 
d="M194 111q-156 9 -156 165v244q0 83 37.5 127.5t118.5 51.5v124h55v-124q45 -5 71 -29t37 -62l-51 -22q-7 20 -21.5 33t-45.5 13q-39 0 -56.5 -22.5t-17.5 -55.5v-281q0 -54 21.5 -75t63.5 -21q30 0 50 24t28 66l47 -9q-15 -129 -126 -146v-112h-55v111z" />
    <glyph glyph-name="sterling" unicode="&#xa3;" horiz-adv-x="614" 
d="M104 490h48v143q0 99 48.5 150t157.5 51q87 0 133.5 -38t48.5 -134l-89 -8q0 47 -14 71t-52 24q-45 0 -62 -23.5t-17 -77.5v-158h155v-85h-155v-138q0 -45 -6 -85t-20 -74q27 -16 55.5 -27.5t62.5 -11.5q49 0 84.5 15t60.5 48l46 -56q-29 -40 -74.5 -63t-116.5 -23
q-51 0 -88.5 16t-68.5 37q-48 -53 -130 -53q-45 0 -66 25t-21 67q0 54 25.5 75t64.5 21q22 0 38 -4v231h-48v85zM113 118q-16 0 -22 -9t-6 -25q0 -17 7.5 -23.5t19.5 -6.5q14 0 22.5 9.5t13.5 44.5q-9 5 -17.5 7.5t-17.5 2.5z" />
    <glyph glyph-name="currency" unicode="&#xa4;" horiz-adv-x="595" 
d="M423 180q-28 -19 -59 -29.5t-66 -10.5t-66.5 10.5t-58.5 29.5l-69 -74l-62 61l73 70q-17 26 -27.5 57.5t-10.5 66.5q0 36 10 67.5t28 58.5l-72 69l61 59l68 -72q26 19 58 30t68 11q35 0 66.5 -11t59.5 -30l67 72l60 -59l-71 -68q19 -27 29.5 -59t10.5 -68
q0 -35 -10.5 -67t-29.5 -58l72 -69l-60 -61zM434 361q0 28 -10.5 53t-29 44t-43.5 29.5t-53 10.5t-53 -10.5t-43.5 -29.5t-29 -44t-10.5 -53t10.5 -52.5t29 -42.5t43.5 -28.5t53 -10.5t53 10.5t43.5 28.5t29 42.5t10.5 52.5z" />
    <glyph glyph-name="yen" unicode="&#xa5;" horiz-adv-x="555" 
d="M202 173v48h-119v89h118l-193 513h162l136 -377l152 377h89l-200 -513h123v-89h-123v-48h123v-90h-123v-83h-145v83h-119v90h119z" />
    <glyph glyph-name="brokenbar" unicode="&#xa6;" horiz-adv-x="349" 
d="M125 310h98v-331h-98v331zM223 523h-98v321h98v-321z" />
    <glyph glyph-name="section" unicode="&#xa7;" horiz-adv-x="405" 
d="M237 834q123 0 138 -143l-55 -11q-8 54 -29 72.5t-59 18.5q-34 0 -50 -16t-16 -37q0 -17 5 -31.5t19 -31.5q7 -9 22.5 -25.5l34.5 -37.5l39.5 -44.5t38.5 -46.5q15 -19 26 -35.5t17.5 -34t10 -38.5t3.5 -48q0 -49 -27.5 -88t-83.5 -52q18 -19 30.5 -36.5t21 -37t12 -42.5
t3.5 -52t-10 -55t-29.5 -46t-49 -32t-68.5 -12q-75 0 -113 35t-46 107l60 12q4 -26 12 -43t20 -27t27.5 -14t36.5 -4q39 0 57 14t18 41q0 15 -6.5 30t-24.5 35q-9 9 -25 27l-35.5 39.5l-41 46t-39.5 47.5q-25 32 -34.5 63.5t-9.5 68.5q0 58 27 98t81 53q-20 25 -32.5 46
t-19.5 39.5t-9.5 36t-2.5 35.5q0 70 39 113t117 43zM266 386l-29 31l-42 46q-39 0 -56 -16t-17 -37q0 -12 2 -22t11.5 -24.5t29 -37.5t54.5 -60q42 0 60 14t18 41q0 15 -6.5 30t-24.5 35z" />
    <glyph glyph-name="dieresis" unicode="&#xa8;" horiz-adv-x="424" 
d="M238 733q0 29 19.5 48.5t48.5 19.5t49 -19.5t20 -48.5t-20 -48.5t-49 -19.5t-48.5 19.5t-19.5 48.5zM49 733q0 29 19.5 48.5t48.5 19.5t49 -19.5t20 -48.5t-20 -48.5t-49 -19.5t-48.5 19.5t-19.5 48.5z" />
    <glyph glyph-name="ordfeminine" unicode="&#xaa;" horiz-adv-x="238" 
d="M102 734h35l84 -344h-79l-14 61h-52l-14 -61h-47zM87 497h30l-15 61z" />
    <glyph glyph-name="guillemotleft" unicode="&#xab;" horiz-adv-x="486" 
d="M17 185zM17 456l207 185v-94l-153 -134l153 -136v-92l-207 186v85zM260 456l207 185v-94l-153 -134l153 -136v-92l-207 186v85z" />
    <glyph glyph-name="logicalnot" unicode="&#xac;" horiz-adv-x="397" 
d="M382 470v-334h-94v240h-274v94h368z" />
    <glyph glyph-name="macron" unicode="&#xaf;" horiz-adv-x="387" 
d="M49 774h289v-90h-289v90z" />
    <glyph glyph-name="degree" unicode="&#xb0;" horiz-adv-x="298" 
d="M77 689q0 -37 17.5 -63t54.5 -26q38 0 54.5 26t16.5 63q0 36 -16.5 62.5t-54.5 26.5q-37 0 -54.5 -26.5t-17.5 -62.5zM14 687q0 66 36.5 106.5t97.5 40.5q62 0 98.5 -40.5t36.5 -106.5t-36.5 -105.5t-98.5 -39.5q-61 0 -97.5 39.5t-36.5 105.5z" />
    <glyph glyph-name="plusminus" unicode="&#xb1;" horiz-adv-x="397" 
d="M14 0zM151 606h93v-136h138v-94h-138v-137h-93v137h-137v94h137v136zM382 94v-94h-368v94h368z" />
    <glyph glyph-name="twosuperior" unicode="&#xb2;" horiz-adv-x="294" 
d="M20 378zM153 685q9 21 12 34t3 29q0 35 -37 35q-17 0 -26 -12.5t-15 -49.5l-60 4q12 115 106 115q61 0 89 -30.5t28 -77.5q0 -15 -4.5 -31.5t-15.5 -41.5l-99 -224h113v-57h-227z" />
    <glyph glyph-name="threesuperior" unicode="&#xb3;" horiz-adv-x="322" 
d="M17 372zM195 513q0 51 -9 81q-14 -6 -26 -8t-27 -2q-29 0 -43 15t-14 32q0 23 15.5 34.5t42.5 11.5q25 0 51 -8q5 22 5 47q0 35 -9 49.5t-25 14.5q-18 0 -29.5 -8.5t-17.5 -21.5l-52 25q27 65 99 65q54 0 85.5 -30.5t31.5 -87.5q0 -50 -32 -88q20 -20 33.5 -51t13.5 -74
q0 -65 -38.5 -101t-105.5 -36q-48 0 -83.5 29.5t-43.5 83.5l58 12q8 -35 24 -51t46 -16q28 0 39 19t11 64zM134 625q18 0 28 7q-13 8 -27 8q-12 0 -12 -9q0 -6 11 -6z" />
    <glyph glyph-name="acute" unicode="&#xb4;" horiz-adv-x="296" 
d="M87 636h-89l71 151h122z" />
    <glyph glyph-name="paragraph" unicode="&#xb6;" horiz-adv-x="560" 
d="M427 759h-95v-829h-80v474h-33q-98 0 -145.5 53t-47.5 165q0 109 52.5 155t162.5 46h266v-893h-80v829zM252 759h-33q-21 0 -36.5 -5t-26.5 -20t-16.5 -42.5t-5.5 -72.5t5.5 -74.5t16.5 -47t26.5 -24.5t36.5 -7h33v293z" />
    <glyph glyph-name="periodcentered" unicode="&#xb7;" horiz-adv-x="207" 
d="M25 317zM25 395q0 33 22 55.5t56 22.5q33 0 55.5 -22.5t22.5 -55.5q0 -34 -22.5 -56t-55.5 -22q-34 0 -56 22t-22 56z" />
    <glyph glyph-name="cedilla" unicode="&#xb8;" horiz-adv-x="228" 
d="M49 -75q0 25 18.5 41.5t46.5 16.5q27 0 46 -16.5t19 -41.5q0 -38 -20 -65t-52 -44l-24 27q12 5 23.5 12t17.5 15q-5 -1 -9 -1.5t-7 -0.5q-27 0 -43 17.5t-16 39.5z" />
    <glyph glyph-name="onesuperior" unicode="&#xb9;" horiz-adv-x="189" 
d="M24 378zM24 834h122v-456h-95v396h-27v60z" />
    <glyph glyph-name="ordmasculine" unicode="&#xba;" horiz-adv-x="264" 
d="M131 739q94 0 94 -91v-167q0 -95 -94 -95t-94 92v165q0 96 94 96zM132 432q11 0 14.5 6t3.5 26v196q0 20 -4.5 26.5t-15.5 6.5t-15 -6.5t-4 -26.5v-196q0 -20 4.5 -26t16.5 -6z" />
    <glyph glyph-name="guillemotright" unicode="&#xbb;" horiz-adv-x="486" 
d="M17 185zM224 371l-207 -186v92l153 136l-153 134v94l207 -185v-85zM467 371l-207 -186v92l153 136l-153 134v94l207 -185v-85z" />
    <glyph glyph-name="onequarter" unicode="&#xbc;" horiz-adv-x="690" 
d="M49 0zM62 834h122v-456h-95v396h-27v60zM130 0h-81l444 823h81zM375 89l172 357h59v-330h35v-58h-35v-68h-95v68h-136v31zM511 116v140l-70 -140h70z" />
    <glyph glyph-name="onehalf" unicode="&#xbd;" horiz-adv-x="678" 
d="M49 0zM62 834h122v-456h-95v396h-27v60zM130 0h-81l444 823h81zM529 297q9 21 12 34t3 29q0 35 -37 35q-17 0 -26 -12.5t-15 -49.5l-60 4q12 115 106 115q61 0 89 -30.5t28 -77.5q0 -15 -4.5 -31.5t-15.5 -41.5l-99 -224h113v-57h-227z" />
    <glyph glyph-name="threequarters" unicode="&#xbe;" horiz-adv-x="797" 
d="M49 0zM227 513q0 51 -9 81q-14 -6 -26 -8t-27 -2q-29 0 -43 15t-14 32q0 23 15.5 34.5t42.5 11.5q25 0 51 -8q5 22 5 47q0 35 -9 49.5t-25 14.5q-18 0 -29.5 -8.5t-17.5 -21.5l-52 25q27 65 99 65q54 0 85.5 -30.5t31.5 -87.5q0 -50 -32 -88q20 -20 33.5 -51t13.5 -74
q0 -65 -38.5 -101t-105.5 -36q-48 0 -83.5 29.5t-43.5 83.5l58 12q8 -35 24 -51t46 -16q28 0 39 19t11 64zM166 625q18 0 28 7q-13 8 -27 8q-12 0 -12 -9q0 -6 11 -6zM237 0h-81l444 823h81zM482 89l172 357h59v-330h35v-58h-35v-68h-95v68h-136v31zM618 116v140l-70 -140
h70z" />
    <glyph glyph-name="questiondown" unicode="&#xbf;" 
d="M409 2q-11 -92 -58 -139t-145 -47q-43 0 -79 11.5t-62 34t-40.5 55.5t-14.5 76q0 33 6.5 58.5t26.5 58.5q10 17 26.5 39l35.5 46l37.5 48l33.5 45q22 31 29 47t7 34q0 16 -6 26t-23 16l37 55q54 -11 84.5 -45.5t30.5 -83.5q0 -29 -6.5 -51t-23.5 -49q-10 -16 -29.5 -41
l-41 -52l-41.5 -52.5l-31 -40.5q-17 -23 -26 -40.5t-9 -43.5q0 -30 19.5 -49t59.5 -19q26 0 45 5.5t32 19t21.5 37t14.5 60.5zM313 582q0 -33 -22 -55.5t-56 -22.5q-33 0 -55.5 22.5t-22.5 55.5q0 34 22.5 56t55.5 22q34 0 56 -22t22 -56z" />
    <glyph glyph-name="Agrave" unicode="&#xc0;" horiz-adv-x="493" 
d="M12 0zM220 823h62l199 -823h-164l-35 151h-148l-36 -151h-86zM154 236h108l-53 231zM150 993h122l71 -151h-89z" />
    <glyph glyph-name="Aacute" unicode="&#xc1;" horiz-adv-x="493" 
d="M12 0zM220 823h62l199 -823h-164l-35 151h-148l-36 -151h-86zM154 236h108l-53 231zM239 842h-89l71 151h122z" />
    <glyph glyph-name="Acircumflex" unicode="&#xc2;" horiz-adv-x="493" 
d="M12 0zM220 823h62l199 -823h-164l-35 151h-148l-36 -151h-86zM154 236h108l-53 231zM403 861h-91l-65 103l-66 -103h-91l105 155h104z" />
    <glyph glyph-name="Atilde" unicode="&#xc3;" horiz-adv-x="493" 
d="M12 0zM220 823h62l199 -823h-164l-35 151h-148l-36 -151h-86zM154 236h108l-53 231zM188 1001q16 0 31 -6t30 -13t30 -13t32 -6q18 0 27.5 6.5t16.5 25.5l56 -47q-13 -33 -38.5 -53t-67.5 -20q-17 0 -31.5 6t-29.5 13t-30 13t-32 6q-18 0 -27.5 -6.5t-16.5 -25.5l-56 47
q13 33 38.5 53t67.5 20z" />
    <glyph glyph-name="Adieresis" unicode="&#xc4;" horiz-adv-x="493" 
d="M12 0zM220 823h62l199 -823h-164l-35 151h-148l-36 -151h-86zM154 236h108l-53 231zM272 939q0 29 19.5 48.5t48.5 19.5t49 -19.5t20 -48.5t-20 -48.5t-49 -19.5t-48.5 19.5t-19.5 48.5zM83 939q0 29 19.5 48.5t48.5 19.5t49 -19.5t20 -48.5t-20 -48.5t-49 -19.5
t-48.5 19.5t-19.5 48.5z" />
    <glyph glyph-name="Aring" unicode="&#xc5;" horiz-adv-x="493" 
d="M12 0zM220 823h62l199 -823h-164l-35 151h-148l-36 -151h-86zM154 236h108l-53 231zM210 933q0 -18 9 -31t28 -13t27 13t8 31q0 17 -8 30t-27 13t-28 -13t-9 -30zM164 933q0 37 22 60t60 23q37 0 59.5 -23t22.5 -60q0 -38 -22.5 -61t-59.5 -23q-38 0 -60 23t-22 61z" />
    <glyph glyph-name="AE" unicode="&#xc6;" horiz-adv-x="670" 
d="M437 378l46 -314h162v-64h-319l-20 151h-171l-37 -151h-86l207 823h426v-86h-259l39 -272h160v-87h-148zM155 236h140l-49 371z" />
    <glyph glyph-name="Ccedilla" unicode="&#xc7;" horiz-adv-x="482" 
d="M49 0zM295 747q-48 0 -69.5 -29t-21.5 -72v-447q0 -69 26.5 -97t77.5 -28q37 0 61.5 31t34.5 85l57 -11q-19 -189 -194 -189q-218 0 -218 212v400q0 116 55 174t172 58q71 0 109 -31.5t54 -86.5l-62 -29q-9 25 -26.5 42.5t-55.5 17.5zM189 -75q0 25 18.5 41.5t46.5 16.5
q27 0 46 -16.5t19 -41.5q0 -38 -20 -65t-52 -44l-24 27q12 5 23.5 12t17.5 15q-5 -1 -9 -1.5t-7 -0.5q-27 0 -43 17.5t-16 39.5z" />
    <glyph glyph-name="Egrave" unicode="&#xc8;" 
d="M56 0zM56 0v823h340v-86h-186v-272h126v-87h-126v-294h186v-84h-340zM128 993h122l71 -151h-89z" />
    <glyph glyph-name="Eacute" unicode="&#xc9;" 
d="M56 0zM56 0v823h340v-86h-186v-272h126v-87h-126v-294h186v-84h-340zM223 842h-89l71 151h122z" />
    <glyph glyph-name="Ecircumflex" unicode="&#xca;" 
d="M56 0zM56 0v823h340v-86h-186v-272h126v-87h-126v-294h186v-84h-340zM385 861h-91l-65 103l-66 -103h-91l105 155h104z" />
    <glyph glyph-name="Edieresis" unicode="&#xcb;" 
d="M56 0zM56 0v823h340v-86h-186v-272h126v-87h-126v-294h186v-84h-340zM251 939q0 29 19.5 48.5t48.5 19.5t49 -19.5t20 -48.5t-20 -48.5t-49 -19.5t-48.5 19.5t-19.5 48.5zM62 939q0 29 19.5 48.5t48.5 19.5t49 -19.5t20 -48.5t-20 -48.5t-49 -19.5t-48.5 19.5t-19.5 48.5
z" />
    <glyph glyph-name="Igrave" unicode="&#xcc;" horiz-adv-x="265" 
d="M37 0zM56 823h154v-823h-154v823zM37 993h122l71 -151h-89z" />
    <glyph glyph-name="Iacute" unicode="&#xcd;" horiz-adv-x="265" 
d="M36 0zM56 823h154v-823h-154v823zM125 842h-89l71 151h122z" />
    <glyph glyph-name="Icircumflex" unicode="&#xce;" horiz-adv-x="265" 
d="M0 0zM56 823h154v-823h-154v823zM290 861h-91l-65 103l-66 -103h-91l105 155h104z" />
    <glyph glyph-name="Idieresis" unicode="&#xcf;" horiz-adv-x="265" 
d="M0 0zM56 823h154v-823h-154v823zM160 939q0 29 19.5 48.5t48.5 19.5t49 -19.5t20 -48.5t-20 -48.5t-49 -19.5t-48.5 19.5t-19.5 48.5zM-29 939q0 29 19.5 48.5t48.5 19.5t49 -19.5t20 -48.5t-20 -48.5t-49 -19.5t-48.5 19.5t-19.5 48.5z" />
    <glyph glyph-name="Eth" unicode="&#xd0;" horiz-adv-x="538" 
d="M0 465h56v358h167q266 0 266 -212v-379q0 -232 -255 -232h-178v378h-56v87zM210 465h79v-87h-79v-294h22q27 0 46 7t32 24t19 45.5t6 71.5v382q0 67 -24 95t-79 28h-22v-272z" />
    <glyph glyph-name="Ntilde" unicode="&#xd1;" horiz-adv-x="528" 
d="M47 0zM135 476v-476h-88v823h91l258 -487v487h85v-823h-74zM205 1001q16 0 31 -6t30 -13t30 -13t32 -6q18 0 27.5 6.5t16.5 25.5l56 -47q-13 -33 -38.5 -53t-67.5 -20q-17 0 -31.5 6t-29.5 13t-30 13t-32 6q-18 0 -27.5 -6.5t-16.5 -25.5l-56 47q13 33 38.5 53t67.5 20z
" />
    <glyph glyph-name="Ograve" unicode="&#xd2;" horiz-adv-x="532" 
d="M49 0zM266 834q217 0 217 -212v-411q0 -109 -53.5 -165t-162.5 -56q-218 0 -218 212v410q0 109 54 165.5t163 56.5zM268 74q35 0 47.5 18.5t12.5 74.5v485q0 30 -4 49t-12 29.5t-20 14.5t-28 4t-27.5 -4t-18.5 -14.5t-10.5 -29.5t-3.5 -49v-485q0 -56 14.5 -74.5
t49.5 -18.5zM169 993h122l71 -151h-89z" />
    <glyph glyph-name="Oacute" unicode="&#xd3;" horiz-adv-x="532" 
d="M49 0zM266 834q217 0 217 -212v-411q0 -109 -53.5 -165t-162.5 -56q-218 0 -218 212v410q0 109 54 165.5t163 56.5zM268 74q35 0 47.5 18.5t12.5 74.5v485q0 30 -4 49t-12 29.5t-20 14.5t-28 4t-27.5 -4t-18.5 -14.5t-10.5 -29.5t-3.5 -49v-485q0 -56 14.5 -74.5
t49.5 -18.5zM258 842h-89l71 151h122z" />
    <glyph glyph-name="Ocircumflex" unicode="&#xd4;" horiz-adv-x="532" 
d="M49 0zM266 834q217 0 217 -212v-411q0 -109 -53.5 -165t-162.5 -56q-218 0 -218 212v410q0 109 54 165.5t163 56.5zM268 74q35 0 47.5 18.5t12.5 74.5v485q0 30 -4 49t-12 29.5t-20 14.5t-28 4t-27.5 -4t-18.5 -14.5t-10.5 -29.5t-3.5 -49v-485q0 -56 14.5 -74.5
t49.5 -18.5zM422 861h-91l-65 103l-66 -103h-91l105 155h104z" />
    <glyph glyph-name="Otilde" unicode="&#xd5;" horiz-adv-x="532" 
d="M49 0zM266 834q217 0 217 -212v-411q0 -109 -53.5 -165t-162.5 -56q-218 0 -218 212v410q0 109 54 165.5t163 56.5zM268 74q35 0 47.5 18.5t12.5 74.5v485q0 30 -4 49t-12 29.5t-20 14.5t-28 4t-27.5 -4t-18.5 -14.5t-10.5 -29.5t-3.5 -49v-485q0 -56 14.5 -74.5
t49.5 -18.5zM207 1001q16 0 31 -6t30 -13t30 -13t32 -6q18 0 27.5 6.5t16.5 25.5l56 -47q-13 -33 -38.5 -53t-67.5 -20q-17 0 -31.5 6t-29.5 13t-30 13t-32 6q-18 0 -27.5 -6.5t-16.5 -25.5l-56 47q13 33 38.5 53t67.5 20z" />
    <glyph glyph-name="Odieresis" unicode="&#xd6;" horiz-adv-x="532" 
d="M49 0zM266 834q217 0 217 -212v-411q0 -109 -53.5 -165t-162.5 -56q-218 0 -218 212v410q0 109 54 165.5t163 56.5zM268 74q35 0 47.5 18.5t12.5 74.5v485q0 30 -4 49t-12 29.5t-20 14.5t-28 4t-27.5 -4t-18.5 -14.5t-10.5 -29.5t-3.5 -49v-485q0 -56 14.5 -74.5
t49.5 -18.5zM292 939q0 29 19.5 48.5t48.5 19.5t49 -19.5t20 -48.5t-20 -48.5t-49 -19.5t-48.5 19.5t-19.5 48.5zM103 939q0 29 19.5 48.5t48.5 19.5t49 -19.5t20 -48.5t-20 -48.5t-49 -19.5t-48.5 19.5t-19.5 48.5z" />
    <glyph glyph-name="multiply" unicode="&#xd7;" horiz-adv-x="425" 
d="M309 585l66 -65l-97 -97l98 -97l-66 -67l-98 98l-97 -97l-66 66l97 97l-97 97l67 66l97 -97z" />
    <glyph glyph-name="Oslash" unicode="&#xd8;" horiz-adv-x="532" 
d="M266 834q69 0 118 -23l25 64h74l-43 -108q43 -54 43 -145v-411q0 -109 -53.5 -165t-162.5 -56q-75 0 -123 24l-21 -52h-74l39 98q-39 52 -39 142v410q0 109 54 165.5t163 56.5zM268 74q35 0 47.5 18.5t12.5 74.5v314l-124 -314q0 -56 14.5 -74.5t49.5 -18.5zM204 355
l123 314q-2 49 -18 64.5t-45 15.5q-16 0 -27.5 -4t-18.5 -14.5t-10.5 -29.5t-3.5 -49v-297z" />
    <glyph glyph-name="Ugrave" unicode="&#xd9;" horiz-adv-x="536" 
d="M51 0zM269 -10q-110 0 -164 51t-54 146v636h155v-664q0 -48 15.5 -66.5t50.5 -18.5t50 18.5t15 66.5v664h148v-636q0 -90 -54 -143.5t-162 -53.5zM171 993h122l71 -151h-89z" />
    <glyph glyph-name="Uacute" unicode="&#xda;" horiz-adv-x="536" 
d="M51 0zM269 -10q-110 0 -164 51t-54 146v636h155v-664q0 -48 15.5 -66.5t50.5 -18.5t50 18.5t15 66.5v664h148v-636q0 -90 -54 -143.5t-162 -53.5zM260 842h-89l71 151h122z" />
    <glyph glyph-name="Ucircumflex" unicode="&#xdb;" horiz-adv-x="536" 
d="M51 0zM269 -10q-110 0 -164 51t-54 146v636h155v-664q0 -48 15.5 -66.5t50.5 -18.5t50 18.5t15 66.5v664h148v-636q0 -90 -54 -143.5t-162 -53.5zM424 861h-91l-65 103l-66 -103h-91l105 155h104z" />
    <glyph glyph-name="Udieresis" unicode="&#xdc;" horiz-adv-x="536" 
d="M51 0zM269 -10q-110 0 -164 51t-54 146v636h155v-664q0 -48 15.5 -66.5t50.5 -18.5t50 18.5t15 66.5v664h148v-636q0 -90 -54 -143.5t-162 -53.5zM294 939q0 29 19.5 48.5t48.5 19.5t49 -19.5t20 -48.5t-20 -48.5t-49 -19.5t-48.5 19.5t-19.5 48.5zM105 939
q0 29 19.5 48.5t48.5 19.5t49 -19.5t20 -48.5t-20 -48.5t-49 -19.5t-48.5 19.5t-19.5 48.5z" />
    <glyph glyph-name="Yacute" unicode="&#xdd;" horiz-adv-x="527" 
d="M8 0zM293 439l136 384h90l-181 -497v-326h-154v306l-176 517h158zM266 842h-89l71 151h122z" />
    <glyph glyph-name="Thorn" unicode="&#xde;" horiz-adv-x="508" 
d="M210 606v-395h54q30 0 43.5 17t13.5 46v256q0 40 -13.5 58t-43.5 18h-54zM56 823h154v-131h69q98 0 147 -51t49 -132v-185q0 -89 -47.5 -143t-142.5 -54h-75v-127h-154v823z" />
    <glyph glyph-name="germandbls" unicode="&#xdf;" horiz-adv-x="758" 
d="M29 0zM200 628q123 0 138 -145l-55 -11q-8 54 -29 73.5t-59 19.5q-34 0 -50 -17t-16 -38q0 -17 5 -31t19 -32q7 -9 22.5 -25.5l34.5 -37.5l39.5 -44.5t38.5 -46.5q15 -19 26 -35.5t17.5 -34t10 -38.5t3.5 -48q0 -29 -10 -55.5t-29.5 -47t-49 -32.5t-68.5 -12
q-75 0 -113 36t-46 108l60 12q9 -53 31.5 -71.5t64.5 -18.5q39 0 57 15t18 42q0 15 -6.5 30t-24.5 35q-9 9 -25 27l-35.5 39.5l-41 46t-39.5 47.5q-25 32 -34.5 63.5t-9.5 68.5q0 70 39 114t117 44zM579 628q123 0 138 -145l-55 -11q-8 54 -29 73.5t-59 19.5q-34 0 -50 -17
t-16 -38q0 -17 5 -31t19 -32q7 -9 22.5 -25.5l34.5 -37.5l39.5 -44.5t38.5 -46.5q15 -19 26 -35.5t17.5 -34t10 -38.5t3.5 -48q0 -29 -10 -55.5t-29.5 -47t-49 -32.5t-68.5 -12q-75 0 -113 36t-46 108l60 12q9 -53 31.5 -71.5t64.5 -18.5q39 0 57 15t18 42q0 15 -6.5 30
t-24.5 35q-9 9 -25 27l-35.5 39.5l-41 46t-39.5 47.5q-25 32 -34.5 63.5t-9.5 68.5q0 70 39 114t117 44z" />
    <glyph glyph-name="agrave" unicode="&#xe0;" horiz-adv-x="378" 
d="M12 0zM169 617h46l150 -617h-123l-27 113h-111l-27 -113h-65zM119 177h81l-40 173zM94 787h122l71 -151h-89z" />
    <glyph glyph-name="aacute" unicode="&#xe1;" horiz-adv-x="378" 
d="M12 0zM169 617h46l150 -617h-123l-27 113h-111l-27 -113h-65zM119 177h81l-40 173zM181 636h-89l71 151h122z" />
    <glyph glyph-name="acircumflex" unicode="&#xe2;" horiz-adv-x="378" 
d="M12 0zM169 617h46l150 -617h-123l-27 113h-111l-27 -113h-65zM119 177h81l-40 173zM347 655h-91l-65 103l-66 -103h-91l105 155h104z" />
    <glyph glyph-name="atilde" unicode="&#xe3;" horiz-adv-x="378" 
d="M12 0zM169 617h46l150 -617h-123l-27 113h-111l-27 -113h-65zM119 177h81l-40 173zM132 795q16 0 31 -6t30 -13t30 -13t32 -6q18 0 27.5 6.5t16.5 25.5l56 -47q-13 -33 -38.5 -53t-67.5 -20q-17 0 -31.5 6t-29.5 13t-30 13t-32 6q-18 0 -27.5 -6.5t-16.5 -25.5l-56 47
q13 33 38.5 53t67.5 20z" />
    <glyph glyph-name="adieresis" unicode="&#xe4;" horiz-adv-x="378" 
d="M12 0zM169 617h46l150 -617h-123l-27 113h-111l-27 -113h-65zM119 177h81l-40 173zM216 733q0 29 19.5 48.5t48.5 19.5t49 -19.5t20 -48.5t-20 -48.5t-49 -19.5t-48.5 19.5t-19.5 48.5zM27 733q0 29 19.5 48.5t48.5 19.5t49 -19.5t20 -48.5t-20 -48.5t-49 -19.5
t-48.5 19.5t-19.5 48.5z" />
    <glyph glyph-name="aring" unicode="&#xe5;" horiz-adv-x="378" 
d="M12 0zM169 617h46l150 -617h-123l-27 113h-111l-27 -113h-65zM119 177h81l-40 173zM153 727q0 -18 9 -31t28 -13t27 13t8 31q0 17 -8 30t-27 13t-28 -13t-9 -30zM107 727q0 37 22 60t60 23q37 0 59.5 -23t22.5 -60q0 -38 -22.5 -61t-59.5 -23q-38 0 -60 23t-22 61z" />
    <glyph glyph-name="ae" unicode="&#xe6;" horiz-adv-x="514" 
d="M332 284l35 -236h122v-48h-241l-15 113h-128l-28 -113h-65l156 617h321v-64h-195l29 -204h121v-65h-112zM120 177h105l-37 278z" />
    <glyph glyph-name="ccedilla" unicode="&#xe7;" horiz-adv-x="380" 
d="M49 0zM234 563q-36 0 -52 -23t-16 -55v-336q0 -52 20 -73.5t58 -21.5q28 0 46 24t26 65l43 -9q-15 -144 -146 -144q-83 0 -123.5 41t-40.5 121v300q0 87 41.5 132t129.5 45q54 0 82.5 -25t40.5 -67l-47 -22q-7 19 -20 33.5t-42 14.5zM137 -75q0 25 18.5 41.5t46.5 16.5
q27 0 46 -16.5t19 -41.5q0 -38 -20 -65t-52 -44l-24 27q12 5 23.5 12t17.5 15q-5 -1 -9 -1.5t-7 -0.5q-27 0 -43 17.5t-16 39.5z" />
    <glyph glyph-name="egrave" unicode="&#xe8;" horiz-adv-x="337" 
d="M56 0zM56 0v617h256v-64h-140v-204h95v-65h-95v-221h140v-63h-256zM91 787h122l71 -151h-89z" />
    <glyph glyph-name="eacute" unicode="&#xe9;" horiz-adv-x="337" 
d="M56 0zM56 0v617h256v-64h-140v-204h95v-65h-95v-221h140v-63h-256zM179 636h-89l71 151h122z" />
    <glyph glyph-name="ecircumflex" unicode="&#xea;" horiz-adv-x="337" 
d="M31 0zM56 0v617h256v-64h-140v-204h95v-65h-95v-221h140v-63h-256zM344 655h-91l-65 103l-66 -103h-91l105 155h104z" />
    <glyph glyph-name="edieresis" unicode="&#xeb;" horiz-adv-x="337" 
d="M25 0zM56 0v617h256v-64h-140v-204h95v-65h-95v-221h140v-63h-256zM214 733q0 29 19.5 48.5t48.5 19.5t49 -19.5t20 -48.5t-20 -48.5t-49 -19.5t-48.5 19.5t-19.5 48.5zM25 733q0 29 19.5 48.5t48.5 19.5t49 -19.5t20 -48.5t-20 -48.5t-49 -19.5t-48.5 19.5t-19.5 48.5z
" />
    <glyph glyph-name="igrave" unicode="&#xec;" horiz-adv-x="254" 
d="M45 0zM82 617h116v-617h-116v617zM45 787h122l71 -151h-89z" />
    <glyph glyph-name="iacute" unicode="&#xed;" horiz-adv-x="256" 
d="M17 0zM56 617h116v-617h-116v617zM106 636h-89l71 151h122z" />
    <glyph glyph-name="icircumflex" unicode="&#xee;" horiz-adv-x="284" 
d="M0 0zM84 617h116v-617h-116v617zM300 655h-91l-65 103l-66 -103h-91l105 155h104z" />
    <glyph glyph-name="idieresis" unicode="&#xef;" horiz-adv-x="279" 
d="M0 0zM82 617h116v-617h-116v617zM167 733q0 29 19.5 48.5t48.5 19.5t49 -19.5t20 -48.5t-20 -48.5t-49 -19.5t-48.5 19.5t-19.5 48.5zM-22 733q0 29 19.5 48.5t48.5 19.5t49 -19.5t20 -48.5t-20 -48.5t-49 -19.5t-48.5 19.5t-19.5 48.5z" />
    <glyph glyph-name="eth" unicode="&#xf0;" horiz-adv-x="417" 
d="M0 349h42v268h126q200 0 200 -159v-284q0 -174 -192 -174h-134v284h-42v65zM158 349h60v-65h-60v-221h17q20 0 34.5 5t24 18t14 34.5t4.5 53.5v287q0 50 -17.5 71t-59.5 21h-17v-204z" />
    <glyph glyph-name="ntilde" unicode="&#xf1;" 
d="M47 0zM114 357v-357h-67v617h69l194 -365v365h64v-617h-56zM153 795q16 0 31 -6t30 -13t30 -13t32 -6q18 0 27.5 6.5t16.5 25.5l56 -47q-13 -33 -38.5 -53t-67.5 -20q-17 0 -31.5 6t-29.5 13t-30 13t-32 6q-18 0 -27.5 -6.5t-16.5 -25.5l-56 47q13 33 38.5 53t67.5 20z
" />
    <glyph glyph-name="ograve" unicode="&#xf2;" horiz-adv-x="425" 
d="M49 0zM212 628q82 0 123 -41t41 -120v-309q0 -81 -41 -124.5t-122 -43.5q-83 0 -123.5 41t-40.5 121v307q0 81 40.5 125t122.5 44zM214 54q26 0 35.5 14.5t9.5 56.5v364q0 45 -12 60t-36 15q-25 0 -35 -15t-10 -60v-364q0 -42 10.5 -56.5t37.5 -14.5zM116 787h122
l71 -151h-89z" />
    <glyph glyph-name="oacute" unicode="&#xf3;" horiz-adv-x="425" 
d="M49 0zM212 628q82 0 123 -41t41 -120v-309q0 -81 -41 -124.5t-122 -43.5q-83 0 -123.5 41t-40.5 121v307q0 81 40.5 125t122.5 44zM214 54q26 0 35.5 14.5t9.5 56.5v364q0 45 -12 60t-36 15q-25 0 -35 -15t-10 -60v-364q0 -42 10.5 -56.5t37.5 -14.5zM205 636h-89l71 151
h122z" />
    <glyph glyph-name="ocircumflex" unicode="&#xf4;" horiz-adv-x="425" 
d="M49 0zM212 628q82 0 123 -41t41 -120v-309q0 -81 -41 -124.5t-122 -43.5q-83 0 -123.5 41t-40.5 121v307q0 81 40.5 125t122.5 44zM214 54q26 0 35.5 14.5t9.5 56.5v364q0 45 -12 60t-36 15q-25 0 -35 -15t-10 -60v-364q0 -42 10.5 -56.5t37.5 -14.5zM369 655h-91
l-65 103l-66 -103h-91l105 155h104z" />
    <glyph glyph-name="otilde" unicode="&#xf5;" horiz-adv-x="425" 
d="M49 0zM212 628q82 0 123 -41t41 -120v-309q0 -81 -41 -124.5t-122 -43.5q-83 0 -123.5 41t-40.5 121v307q0 81 40.5 125t122.5 44zM214 54q26 0 35.5 14.5t9.5 56.5v364q0 45 -12 60t-36 15q-25 0 -35 -15t-10 -60v-364q0 -42 10.5 -56.5t37.5 -14.5zM155 795q16 0 31 -6
t30 -13t30 -13t32 -6q18 0 27.5 6.5t16.5 25.5l56 -47q-13 -33 -38.5 -53t-67.5 -20q-17 0 -31.5 6t-29.5 13t-30 13t-32 6q-18 0 -27.5 -6.5t-16.5 -25.5l-56 47q13 33 38.5 53t67.5 20z" />
    <glyph glyph-name="odieresis" unicode="&#xf6;" horiz-adv-x="425" 
d="M49 0zM212 628q82 0 123 -41t41 -120v-309q0 -81 -41 -124.5t-122 -43.5q-83 0 -123.5 41t-40.5 121v307q0 81 40.5 125t122.5 44zM214 54q26 0 35.5 14.5t9.5 56.5v364q0 45 -12 60t-36 15q-25 0 -35 -15t-10 -60v-364q0 -42 10.5 -56.5t37.5 -14.5zM238 733
q0 29 19.5 48.5t48.5 19.5t49 -19.5t20 -48.5t-20 -48.5t-49 -19.5t-48.5 19.5t-19.5 48.5zM49 733q0 29 19.5 48.5t48.5 19.5t49 -19.5t20 -48.5t-20 -48.5t-49 -19.5t-48.5 19.5t-19.5 48.5z" />
    <glyph glyph-name="divide" unicode="&#xf7;" horiz-adv-x="397" 
d="M14 140zM382 470v-94h-368v94h368zM120 628q0 33 22 55.5t56 22.5q33 0 55.5 -22.5t22.5 -55.5q0 -34 -22.5 -56t-55.5 -22q-34 0 -56 22t-22 56zM120 218q0 33 22 55.5t56 22.5q33 0 55.5 -22.5t22.5 -55.5q0 -34 -22.5 -56t-55.5 -22q-34 0 -56 22t-22 56z" />
    <glyph glyph-name="oslash" unicode="&#xf8;" horiz-adv-x="425" 
d="M212 628q42 0 74 -12l15 43h74l-30 -84q31 -40 31 -108v-309q0 -81 -41 -124.5t-122 -43.5q-41 0 -76 11l-14 -39h-74l29 82q-29 38 -29 108v307q0 81 40.5 125t122.5 44zM214 54q26 0 35.5 14.5t9.5 56.5v212l-90 -249q4 -20 14.5 -27t30.5 -7zM166 286l89 245
q-5 19 -16 26t-28 7q-25 0 -35 -15t-10 -60v-203z" />
    <glyph glyph-name="ugrave" unicode="&#xf9;" horiz-adv-x="429" 
d="M51 0zM216 -10q-83 0 -124 39.5t-41 110.5v477h117v-498q0 -36 12 -50.5t38 -14.5t37.5 14.5t11.5 50.5v498h111v-477q0 -68 -40.5 -109t-121.5 -41zM118 787h122l71 -151h-89z" />
    <glyph glyph-name="uacute" unicode="&#xfa;" horiz-adv-x="429" 
d="M51 0zM216 -10q-83 0 -124 39.5t-41 110.5v477h117v-498q0 -36 12 -50.5t38 -14.5t37.5 14.5t11.5 50.5v498h111v-477q0 -68 -40.5 -109t-121.5 -41zM207 636h-89l71 151h122z" />
    <glyph glyph-name="ucircumflex" unicode="&#xfb;" horiz-adv-x="429" 
d="M51 0zM216 -10q-83 0 -124 39.5t-41 110.5v477h117v-498q0 -36 12 -50.5t38 -14.5t37.5 14.5t11.5 50.5v498h111v-477q0 -68 -40.5 -109t-121.5 -41zM371 655h-91l-65 103l-66 -103h-91l105 155h104z" />
    <glyph glyph-name="udieresis" unicode="&#xfc;" horiz-adv-x="429" 
d="M51 0zM216 -10q-83 0 -124 39.5t-41 110.5v477h117v-498q0 -36 12 -50.5t38 -14.5t37.5 14.5t11.5 50.5v498h111v-477q0 -68 -40.5 -109t-121.5 -41zM240 733q0 29 19.5 48.5t48.5 19.5t49 -19.5t20 -48.5t-20 -48.5t-49 -19.5t-48.5 19.5t-19.5 48.5zM51 733
q0 29 19.5 48.5t48.5 19.5t49 -19.5t20 -48.5t-20 -48.5t-49 -19.5t-48.5 19.5t-19.5 48.5z" />
    <glyph glyph-name="yacute" unicode="&#xfd;" horiz-adv-x="401" 
d="M8 0zM223 329l102 288h68l-136 -372v-245h-116v230l-133 387h119zM203 636h-89l71 151h122z" />
    <glyph glyph-name="thorn" unicode="&#xfe;" horiz-adv-x="410" 
d="M172 455v-297h41q23 0 33 13t10 35v192q0 57 -43 57h-41zM56 617h116v-98h52q74 0 111 -38t37 -99v-139q0 -66 -36 -107t-107 -41h-57v-95h-116v617z" />
    <glyph glyph-name="ydieresis" unicode="&#xff;" horiz-adv-x="401" 
d="M8 0zM223 329l102 288h68l-136 -372v-245h-116v230l-133 387h119zM238 733q0 29 19.5 48.5t48.5 19.5t49 -19.5t20 -48.5t-20 -48.5t-49 -19.5t-48.5 19.5t-19.5 48.5zM49 733q0 29 19.5 48.5t48.5 19.5t49 -19.5t20 -48.5t-20 -48.5t-49 -19.5t-48.5 19.5t-19.5 48.5z
" />
    <glyph glyph-name="Amacron" unicode="&#x100;" horiz-adv-x="493" 
d="M12 0zM220 823h62l199 -823h-164l-35 151h-148l-36 -151h-86zM154 236h108l-53 231zM102 980h289v-90h-289v90z" />
    <glyph glyph-name="amacron" unicode="&#x101;" horiz-adv-x="378" 
d="M12 0zM169 617h46l150 -617h-123l-27 113h-111l-27 -113h-65zM119 177h81l-40 173zM46 774h289v-90h-289v90z" />
    <glyph glyph-name="Abreve" unicode="&#x102;" horiz-adv-x="493" 
d="M12 0zM220 823h62l199 -823h-164l-35 151h-148l-36 -151h-86zM154 236h108l-53 231zM246 861q-67 0 -103.5 42.5t-36.5 112.5h66q8 -47 28 -62.5t48 -15.5t48.5 15.5t28.5 62.5h62q0 -70 -36.5 -112.5t-104.5 -42.5z" />
    <glyph glyph-name="abreve" unicode="&#x103;" horiz-adv-x="378" 
d="M12 0zM169 617h46l150 -617h-123l-27 113h-111l-27 -113h-65zM119 177h81l-40 173zM189 655q-67 0 -103.5 42.5t-36.5 112.5h66q8 -47 28 -62.5t48 -15.5t48.5 15.5t28.5 62.5h62q0 -70 -36.5 -112.5t-104.5 -42.5z" />
    <glyph glyph-name="Aogonek" unicode="&#x104;" horiz-adv-x="493" 
d="M251 -108q0 20 15.5 41.5t57.5 39.5l-42 178h-148l-36 -151h-86l208 823h62l199 -823q-48 -10 -74 -21t-39 -21.5t-15.5 -19t-2.5 -13.5q0 -25 32 -25q21 0 35.5 8t23.5 20l49 -47q-35 -65 -123 -65q-52 0 -84 19.5t-32 56.5zM154 236h108l-53 231z" />
    <glyph glyph-name="aogonek" unicode="&#x105;" horiz-adv-x="378" 
d="M135 -108q0 25 23 50t87 44l-30 127h-111l-27 -113h-65l157 617h46l150 -617q-48 -10 -74 -21t-39 -21.5t-15.5 -19t-2.5 -13.5q0 -25 32 -25q21 0 35.5 8t23.5 20l49 -47q-35 -65 -123 -65q-52 0 -84 19.5t-32 56.5zM119 177h81l-40 173z" />
    <glyph glyph-name="Cacute" unicode="&#x106;" horiz-adv-x="482" 
d="M49 0zM295 747q-48 0 -69.5 -29t-21.5 -72v-447q0 -69 26.5 -97t77.5 -28q37 0 61.5 31t34.5 85l57 -11q-19 -189 -194 -189q-218 0 -218 212v400q0 116 55 174t172 58q71 0 109 -31.5t54 -86.5l-62 -29q-9 25 -26.5 42.5t-55.5 17.5zM263 842h-89l71 151h122z" />
    <glyph glyph-name="cacute" unicode="&#x107;" horiz-adv-x="380" 
d="M49 0zM234 563q-36 0 -52 -23t-16 -55v-336q0 -52 20 -73.5t58 -21.5q28 0 46 24t26 65l43 -9q-15 -144 -146 -144q-83 0 -123.5 41t-40.5 121v300q0 87 41.5 132t129.5 45q54 0 82.5 -25t40.5 -67l-47 -22q-7 19 -20 33.5t-42 14.5zM202 636h-89l71 151h122z" />
    <glyph glyph-name="Cdotaccent" unicode="&#x10a;" horiz-adv-x="482" 
d="M49 0zM295 747q-48 0 -69.5 -29t-21.5 -72v-447q0 -69 26.5 -97t77.5 -28q37 0 61.5 31t34.5 85l57 -11q-19 -189 -194 -189q-218 0 -218 212v400q0 116 55 174t172 58q71 0 109 -31.5t54 -86.5l-62 -29q-9 25 -26.5 42.5t-55.5 17.5zM202 939q0 29 19.5 48.5t48.5 19.5
t49 -19.5t20 -48.5t-20 -48.5t-49 -19.5t-48.5 19.5t-19.5 48.5z" />
    <glyph glyph-name="cdotaccent" unicode="&#x10b;" horiz-adv-x="380" 
d="M49 0zM234 563q-36 0 -52 -23t-16 -55v-336q0 -52 20 -73.5t58 -21.5q28 0 46 24t26 65l43 -9q-15 -144 -146 -144q-83 0 -123.5 41t-40.5 121v300q0 87 41.5 132t129.5 45q54 0 82.5 -25t40.5 -67l-47 -22q-7 19 -20 33.5t-42 14.5zM141 733q0 29 19.5 48.5t48.5 19.5
t49 -19.5t20 -48.5t-20 -48.5t-49 -19.5t-48.5 19.5t-19.5 48.5z" />
    <glyph glyph-name="Ccaron" unicode="&#x10c;" horiz-adv-x="482" 
d="M49 0zM295 747q-48 0 -69.5 -29t-21.5 -72v-447q0 -69 26.5 -97t77.5 -28q37 0 61.5 31t34.5 85l57 -11q-19 -189 -194 -189q-218 0 -218 212v400q0 116 55 174t172 58q71 0 109 -31.5t54 -86.5l-62 -29q-9 25 -26.5 42.5t-55.5 17.5zM104 1016h91l65 -103l66 103h91
l-105 -155h-104z" />
    <glyph glyph-name="ccaron" unicode="&#x10d;" horiz-adv-x="380" 
d="M49 0zM234 563q-36 0 -52 -23t-16 -55v-336q0 -52 20 -73.5t58 -21.5q28 0 46 24t26 65l43 -9q-15 -144 -146 -144q-83 0 -123.5 41t-40.5 121v300q0 87 41.5 132t129.5 45q54 0 82.5 -25t40.5 -67l-47 -22q-7 19 -20 33.5t-42 14.5zM54 810h91l65 -103l66 103h91
l-105 -155h-104z" />
    <glyph glyph-name="Dcaron" unicode="&#x10e;" horiz-adv-x="538" 
d="M56 0zM210 84h22q27 0 46 7t32 24t19 45.5t6 71.5v382q0 67 -24 95t-79 28h-22v-653zM223 823q266 0 266 -212v-379q0 -232 -255 -232h-178v823h167zM92 1016h91l65 -103l66 103h91l-105 -155h-104z" />
    <glyph glyph-name="dcaron" unicode="&#x10f;" horiz-adv-x="431" 
d="M45 0zM172 63h17q20 0 34.5 5t24 18t14 34.5t4.5 53.5v287q0 50 -17.5 71t-59.5 21h-17v-490zM182 617q200 0 200 -159v-284q0 -174 -192 -174h-134v617h126zM45 810h91l65 -103l66 103h91l-105 -155h-104z" />
    <glyph glyph-name="Dcroat" unicode="&#x110;" horiz-adv-x="538" 
d="M0 0zM0 465h56v358h167q266 0 266 -212v-379q0 -232 -255 -232h-178v378h-56v87zM210 465h79v-87h-79v-294h22q27 0 46 7t32 24t19 45.5t6 71.5v382q0 67 -24 95t-79 28h-22v-272z" />
    <glyph glyph-name="dcroat" unicode="&#x111;" horiz-adv-x="417" 
d="M0 0zM0 349h42v268h126q200 0 200 -159v-284q0 -174 -192 -174h-134v284h-42v65zM158 349h60v-65h-60v-221h17q20 0 34.5 5t24 18t14 34.5t4.5 53.5v287q0 50 -17.5 71t-59.5 21h-17v-204z" />
    <glyph glyph-name="Emacron" unicode="&#x112;" 
d="M56 0zM56 0v823h340v-86h-186v-272h126v-87h-126v-294h186v-84h-340zM83 980h289v-90h-289v90z" />
    <glyph glyph-name="emacron" unicode="&#x113;" horiz-adv-x="337" 
d="M42 0zM56 0v617h256v-64h-140v-204h95v-65h-95v-221h140v-63h-256zM42 774h289v-90h-289v90z" />
    <glyph glyph-name="Ebreve" unicode="&#x114;" 
d="M56 0zM56 0v823h340v-86h-186v-272h126v-87h-126v-294h186v-84h-340zM228 861q-67 0 -103.5 42.5t-36.5 112.5h66q8 -47 28 -62.5t48 -15.5t48.5 15.5t28.5 62.5h62q0 -70 -36.5 -112.5t-104.5 -42.5z" />
    <glyph glyph-name="ebreve" unicode="&#x115;" horiz-adv-x="337" 
d="M43 0zM56 0v617h256v-64h-140v-204h95v-65h-95v-221h140v-63h-256zM183 655q-67 0 -103.5 42.5t-36.5 112.5h66q8 -47 28 -62.5t48 -15.5t48.5 15.5t28.5 62.5h62q0 -70 -36.5 -112.5t-104.5 -42.5z" />
    <glyph glyph-name="Edotaccent" unicode="&#x116;" 
d="M56 0zM56 0v823h340v-86h-186v-272h126v-87h-126v-294h186v-84h-340zM156 939q0 29 19.5 48.5t48.5 19.5t49 -19.5t20 -48.5t-20 -48.5t-49 -19.5t-48.5 19.5t-19.5 48.5z" />
    <glyph glyph-name="edotaccent" unicode="&#x117;" horiz-adv-x="337" 
d="M56 0zM56 0v617h256v-64h-140v-204h95v-65h-95v-221h140v-63h-256zM112 733q0 29 19.5 48.5t48.5 19.5t49 -19.5t20 -48.5t-20 -48.5t-49 -19.5t-48.5 19.5t-19.5 48.5z" />
    <glyph glyph-name="Eogonek" unicode="&#x118;" 
d="M166 -108q0 15 8 30t27.5 29.5t52.5 27t83 21.5h-281v823h340v-86h-186v-272h126v-87h-126v-294h186v-84q-48 -10 -74 -21t-39 -21.5t-15.5 -19t-2.5 -13.5q0 -25 32 -25q21 0 35.5 8t23.5 20l49 -47q-35 -65 -123 -65q-52 0 -84 19.5t-32 56.5z" />
    <glyph glyph-name="eogonek" unicode="&#x119;" horiz-adv-x="337" 
d="M82 -108q0 15 8 30t27.5 29.5t52.5 27t83 21.5h-197v617h256v-64h-140v-204h95v-65h-95v-221h140v-63q-48 -10 -74 -21t-39 -21.5t-15.5 -19t-2.5 -13.5q0 -25 32 -25q21 0 35.5 8t23.5 20l49 -47q-35 -65 -123 -65q-52 0 -84 19.5t-32 56.5z" />
    <glyph glyph-name="Ecaron" unicode="&#x11a;" 
d="M56 0zM56 0v823h340v-86h-186v-272h126v-87h-126v-294h186v-84h-340zM71 1016h91l65 -103l66 103h91l-105 -155h-104z" />
    <glyph glyph-name="ecaron" unicode="&#x11b;" horiz-adv-x="337" 
d="M24 0zM56 0v617h256v-64h-140v-204h95v-65h-95v-221h140v-63h-256zM24 810h91l65 -103l66 103h91l-105 -155h-104z" />
    <glyph glyph-name="Gbreve" unicode="&#x11e;" horiz-adv-x="509" 
d="M49 0zM275 463h183v-463h-53l-37 38q-12 -22 -39 -35t-72 -13q-103 0 -155.5 48.5t-52.5 147.5v416q0 116 55 174t173 58q63 0 104.5 -30.5t57.5 -87.5l-62 -28q-14 30 -31 44.5t-49 14.5q-44 0 -68.5 -28t-24.5 -79v-486q0 -42 18 -61t50 -19q28 0 40 14.5t16 36.5v251
h-53v87zM270 861q-67 0 -103.5 42.5t-36.5 112.5h66q8 -47 28 -62.5t48 -15.5t48.5 15.5t28.5 62.5h62q0 -70 -36.5 -112.5t-104.5 -42.5z" />
    <glyph glyph-name="gbreve" unicode="&#x11f;" horiz-adv-x="405" 
d="M49 0zM219 347h138v-347h-40l-28 29q-9 -17 -29.5 -28t-53.5 -11q-157 0 -157 150v312q0 87 41.5 131.5t130.5 44.5q48 0 79 -24t43 -67l-47 -21q-11 23 -23.5 34.5t-36.5 11.5q-33 0 -51.5 -22t-18.5 -60v-364q0 -32 13.5 -47t37.5 -15q21 0 30 11.5t12 28.5v188h-40v65
zM214 655q-67 0 -103.5 42.5t-36.5 112.5h66q8 -47 28 -62.5t48 -15.5t48.5 15.5t28.5 62.5h62q0 -70 -36.5 -112.5t-104.5 -42.5z" />
    <glyph glyph-name="Gdotaccent" unicode="&#x120;" horiz-adv-x="509" 
d="M49 0zM275 463h183v-463h-53l-37 38q-12 -22 -39 -35t-72 -13q-103 0 -155.5 48.5t-52.5 147.5v416q0 116 55 174t173 58q63 0 104.5 -30.5t57.5 -87.5l-62 -28q-14 30 -31 44.5t-49 14.5q-44 0 -68.5 -28t-24.5 -79v-486q0 -42 18 -61t50 -19q28 0 40 14.5t16 36.5v251
h-53v87zM200 939q0 29 19.5 48.5t48.5 19.5t49 -19.5t20 -48.5t-20 -48.5t-49 -19.5t-48.5 19.5t-19.5 48.5z" />
    <glyph glyph-name="gdotaccent" unicode="&#x121;" horiz-adv-x="405" 
d="M49 0zM219 347h138v-347h-40l-28 29q-9 -17 -29.5 -28t-53.5 -11q-157 0 -157 150v312q0 87 41.5 131.5t130.5 44.5q48 0 79 -24t43 -67l-47 -21q-11 23 -23.5 34.5t-36.5 11.5q-33 0 -51.5 -22t-18.5 -60v-364q0 -32 13.5 -47t37.5 -15q21 0 30 11.5t12 28.5v188h-40v65
zM146 733q0 29 19.5 48.5t48.5 19.5t49 -19.5t20 -48.5t-20 -48.5t-49 -19.5t-48.5 19.5t-19.5 48.5z" />
    <glyph glyph-name="Gcommaaccent" unicode="&#x122;" horiz-adv-x="509" 
d="M49 0zM275 463h183v-463h-53l-37 38q-12 -22 -39 -35t-72 -13q-103 0 -155.5 48.5t-52.5 147.5v416q0 116 55 174t173 58q63 0 104.5 -30.5t57.5 -87.5l-62 -28q-14 30 -31 44.5t-49 14.5q-44 0 -68.5 -28t-24.5 -79v-486q0 -42 18 -61t50 -19q28 0 40 14.5t16 36.5v251
h-53v87zM189 -75q0 25 18.5 41.5t46.5 16.5q27 0 46 -16.5t19 -41.5q0 -38 -20 -65t-52 -44l-24 27q12 5 23.5 12t17.5 15q-5 -1 -9 -1.5t-7 -0.5q-27 0 -43 17.5t-16 39.5z" />
    <glyph glyph-name="gcommaaccent" unicode="&#x123;" horiz-adv-x="405" 
d="M49 0zM219 347h138v-347h-40l-28 29q-9 -17 -29.5 -28t-53.5 -11q-157 0 -157 150v312q0 87 41.5 131.5t130.5 44.5q48 0 79 -24t43 -67l-47 -21q-11 23 -23.5 34.5t-36.5 11.5q-33 0 -51.5 -22t-18.5 -60v-364q0 -32 13.5 -47t37.5 -15q21 0 30 11.5t12 28.5v188h-40v65
zM137 -75q0 25 18.5 41.5t46.5 16.5q27 0 46 -16.5t19 -41.5q0 -38 -20 -65t-52 -44l-24 27q12 5 23.5 12t17.5 15q-5 -1 -9 -1.5t-7 -0.5q-27 0 -43 17.5t-16 39.5z" />
    <glyph glyph-name="Hbar" unicode="&#x126;" horiz-adv-x="544" 
d="M56 823h154v-130h125v130h154v-823h-154v378h-125v-378h-154v823zM335 465v138h-125v-138h125z" />
    <glyph glyph-name="hbar" unicode="&#x127;" horiz-adv-x="437" 
d="M56 617h116v-104h94v104h116v-617h-116v284h-94v-284h-116v617zM266 349v101h-94v-101h94z" />
    <glyph glyph-name="uni012A" unicode="&#x12a;" horiz-adv-x="265" 
d="M0 0zM56 823h154v-823h-154v823zM-11 980h289v-90h-289v90z" />
    <glyph glyph-name="imacron" unicode="&#x12b;" horiz-adv-x="269" 
d="M0 0zM76 617h116v-617h-116v617zM-9 774h289v-90h-289v90z" />
    <glyph glyph-name="Ibreve" unicode="&#x12c;" horiz-adv-x="265" 
d="M0 0zM56 823h154v-823h-154v823zM133 861q-67 0 -103.5 42.5t-36.5 112.5h66q8 -47 28 -62.5t48 -15.5t48.5 15.5t28.5 62.5h62q0 -70 -36.5 -112.5t-104.5 -42.5z" />
    <glyph glyph-name="ibreve" unicode="&#x12d;" horiz-adv-x="275" 
d="M0 0zM79 617h116v-617h-116v617zM138 655q-67 0 -103.5 42.5t-36.5 112.5h66q8 -47 28 -62.5t48 -15.5t48.5 15.5t28.5 62.5h62q0 -70 -36.5 -112.5t-104.5 -42.5z" />
    <glyph glyph-name="Iogonek" unicode="&#x12e;" horiz-adv-x="265" 
d="M-20 -108q0 21 16.5 42.5t59.5 39.5v849h154v-823q-48 -10 -74 -21t-39 -21.5t-15.5 -19t-2.5 -13.5q0 -25 32 -25q21 0 35.5 8t23.5 20l49 -47q-35 -65 -123 -65q-52 0 -84 19.5t-32 56.5z" />
    <glyph glyph-name="iogonek" unicode="&#x12f;" horiz-adv-x="228" 
d="M-58 -108q0 25 24 50.5t90 44.5v630h116v-617q-48 -10 -74 -21t-39 -21.5t-15.5 -19t-2.5 -13.5q0 -25 32 -25q21 0 35.5 8t23.5 20l49 -47q-35 -65 -123 -65q-52 0 -84 19.5t-32 56.5z" />
    <glyph glyph-name="Idotaccent" unicode="&#x130;" horiz-adv-x="265" 
d="M56 0zM56 823h154v-823h-154v823zM64 939q0 29 19.5 48.5t48.5 19.5t49 -19.5t20 -48.5t-20 -48.5t-49 -19.5t-48.5 19.5t-19.5 48.5z" />
    <glyph glyph-name="dotlessi" unicode="&#x131;" horiz-adv-x="228" 
d="M56 0zM56 617h116v-617h-116v617z" />
    <glyph glyph-name="IJ" unicode="&#x132;" horiz-adv-x="752" 
d="M56 0zM56 823h154v-823h-154v823zM542 823h154v-621q0 -212 -217 -212q-175 0 -194 189l61 11q6 -34 15 -56t23.5 -35.5t33.5 -19t45 -5.5q19 0 34 5.5t25 20t15 38.5t5 61v624z" />
    <glyph glyph-name="ij" unicode="&#x133;" horiz-adv-x="614" 
d="M56 0zM56 617h116v-617h-116v617zM442 617h116v-465q0 -80 -41 -121t-123 -41q-131 0 -146 144l46 9q8 -51 29 -70t59 -19q29 0 44.5 19.5t15.5 75.5v468z" />
    <glyph glyph-name="Kcommaaccent" unicode="&#x136;" horiz-adv-x="497" 
d="M56 0zM227 409l-17 -31v-378h-154v823h154v-295l149 295h103l-150 -264l177 -559h-165zM197 -75q0 25 18.5 41.5t46.5 16.5q27 0 46 -16.5t19 -41.5q0 -38 -20 -65t-52 -44l-24 27q12 5 23.5 12t17.5 15q-5 -1 -9 -1.5t-7 -0.5q-27 0 -43 17.5t-16 39.5z" />
    <glyph glyph-name="kcommaaccent" unicode="&#x137;" horiz-adv-x="390" 
d="M56 0zM185 306l-13 -22v-284h-116v617h116v-221l112 221h78l-113 -197l133 -420h-124zM147 -75q0 25 18.5 41.5t46.5 16.5q27 0 46 -16.5t19 -41.5q0 -38 -20 -65t-52 -44l-24 27q12 5 23.5 12t17.5 15q-5 -1 -9 -1.5t-7 -0.5q-27 0 -43 17.5t-16 39.5z" />
    <glyph glyph-name="Lacute" unicode="&#x139;" horiz-adv-x="409" 
d="M56 0zM56 823h154v-739h186v-84h-340v823zM177 842h-89l71 151h122z" />
    <glyph glyph-name="lacute" unicode="&#x13a;" horiz-adv-x="324" 
d="M55 0zM56 617h116v-554h140v-63h-256v617zM144 636h-89l71 151h122z" />
    <glyph glyph-name="Lcommaaccent" unicode="&#x13b;" horiz-adv-x="409" 
d="M56 0zM56 823h154v-739h186v-84h-340v823zM155 -75q0 25 18.5 41.5t46.5 16.5q27 0 46 -16.5t19 -41.5q0 -38 -20 -65t-52 -44l-24 27q12 5 23.5 12t17.5 15q-5 -1 -9 -1.5t-7 -0.5q-27 0 -43 17.5t-16 39.5z" />
    <glyph glyph-name="lcommaaccent" unicode="&#x13c;" horiz-adv-x="324" 
d="M56 0zM56 617h116v-554h140v-63h-256v617zM114 -75q0 25 18.5 41.5t46.5 16.5q27 0 46 -16.5t19 -41.5q0 -38 -20 -65t-52 -44l-24 27q12 5 23.5 12t17.5 15q-5 -1 -9 -1.5t-7 -0.5q-27 0 -43 17.5t-16 39.5z" />
    <glyph glyph-name="Lcaron" unicode="&#x13d;" horiz-adv-x="409" 
d="M56 0zM56 823h154v-739h186v-84h-340v823zM266 776q0 25 18.5 41.5t46.5 16.5q27 0 46 -16.5t19 -41.5q0 -38 -20 -65t-52 -44l-24 27q12 5 23.5 12t17.5 15q-5 -1 -9 -1.5t-7 -0.5q-27 0 -43 17.5t-16 39.5z" />
    <glyph glyph-name="lcaron" unicode="&#x13e;" horiz-adv-x="324" 
d="M56 0zM56 617h116v-554h140v-63h-256v617zM203 570q0 25 18.5 41.5t46.5 16.5q27 0 46 -16.5t19 -41.5q0 -38 -20 -65t-52 -44l-24 27q12 5 23.5 12t17.5 15q-5 -1 -9 -1.5t-7 -0.5q-27 0 -43 17.5t-16 39.5z" />
    <glyph glyph-name="Ldot" unicode="&#x13f;" horiz-adv-x="409" 
d="M56 0zM56 823h154v-739h186v-84h-340v823zM233 439q0 29 19.5 48.5t48.5 19.5t49 -19.5t20 -48.5t-20 -48.5t-49 -19.5t-48.5 19.5t-19.5 48.5z" />
    <glyph glyph-name="ldot" unicode="&#x140;" horiz-adv-x="324" 
d="M56 0zM56 617h116v-554h140v-63h-256v617zM193 329q0 29 19.5 48.5t48.5 19.5t49 -19.5t20 -48.5t-20 -48.5t-49 -19.5t-48.5 19.5t-19.5 48.5z" />
    <glyph glyph-name="Lslash" unicode="&#x141;" horiz-adv-x="409" 
d="M0 570l56 25v228h154v-160l75 33v-94l-75 -34v-484h186v-84h-340v500l-56 -25v95z" />
    <glyph glyph-name="lslash" unicode="&#x142;" horiz-adv-x="310" 
d="M0 428l42 18v171h116v-120l57 25v-70l-57 -26v-363h140v-63h-256v375l-42 -19v72z" />
    <glyph glyph-name="Nacute" unicode="&#x143;" horiz-adv-x="528" 
d="M47 0zM135 476v-476h-88v823h91l258 -487v487h85v-823h-74zM256 842h-89l71 151h122z" />
    <glyph glyph-name="nacute" unicode="&#x144;" 
d="M47 0zM114 357v-357h-67v617h69l194 -365v365h64v-617h-56zM203 636h-89l71 151h122z" />
    <glyph glyph-name="Ncommaaccent" unicode="&#x145;" horiz-adv-x="528" 
d="M47 0zM135 476v-476h-88v823h91l258 -487v487h85v-823h-74zM199 -75q0 25 18.5 41.5t46.5 16.5q27 0 46 -16.5t19 -41.5q0 -38 -20 -65t-52 -44l-24 27q12 5 23.5 12t17.5 15q-5 -1 -9 -1.5t-7 -0.5q-27 0 -43 17.5t-16 39.5z" />
    <glyph glyph-name="ncommaaccent" unicode="&#x146;" 
d="M47 0zM114 357v-357h-67v617h69l194 -365v365h64v-617h-56zM145 -75q0 25 18.5 41.5t46.5 16.5q27 0 46 -16.5t19 -41.5q0 -38 -20 -65t-52 -44l-24 27q12 5 23.5 12t17.5 15q-5 -1 -9 -1.5t-7 -0.5q-27 0 -43 17.5t-16 39.5z" />
    <glyph glyph-name="Ncaron" unicode="&#x147;" horiz-adv-x="528" 
d="M47 0zM135 476v-476h-88v823h91l258 -487v487h85v-823h-74zM107 1016h91l65 -103l66 103h91l-105 -155h-104z" />
    <glyph glyph-name="ncaron" unicode="&#x148;" 
d="M47 0zM114 357v-357h-67v617h69l194 -365v365h64v-617h-56zM54 810h91l65 -103l66 103h91l-105 -155h-104z" />
    <glyph glyph-name="Eng" unicode="&#x14a;" horiz-adv-x="528" 
d="M481 28q0 -212 -217 -212q-106 0 -155 70l58 52q20 -22 47 -30t55 -8q22 0 44.5 5.5t40.5 19t29.5 36.5t12.5 58l-261 457v-476h-88v823h91l258 -487v487h85v-795z" />
    <glyph glyph-name="eng" unicode="&#x14b;" 
d="M310 14l-196 343v-357h-67v617h69l194 -365v365h64v-641q0 -160 -164 -160q-131 0 -146 142l46 9q11 -51 38 -69t67 -18q42 0 68.5 21t26.5 72v41z" />
    <glyph glyph-name="Omacron" unicode="&#x14c;" horiz-adv-x="532" 
d="M49 0zM266 834q217 0 217 -212v-411q0 -109 -53.5 -165t-162.5 -56q-218 0 -218 212v410q0 109 54 165.5t163 56.5zM268 74q35 0 47.5 18.5t12.5 74.5v485q0 30 -4 49t-12 29.5t-20 14.5t-28 4t-27.5 -4t-18.5 -14.5t-10.5 -29.5t-3.5 -49v-485q0 -56 14.5 -74.5
t49.5 -18.5zM121 980h289v-90h-289v90z" />
    <glyph glyph-name="omacron" unicode="&#x14d;" horiz-adv-x="425" 
d="M49 0zM212 628q82 0 123 -41t41 -120v-309q0 -81 -41 -124.5t-122 -43.5q-83 0 -123.5 41t-40.5 121v307q0 81 40.5 125t122.5 44zM214 54q26 0 35.5 14.5t9.5 56.5v364q0 45 -12 60t-36 15q-25 0 -35 -15t-10 -60v-364q0 -42 10.5 -56.5t37.5 -14.5zM68 774h289v-90
h-289v90z" />
    <glyph glyph-name="Obreve" unicode="&#x14e;" horiz-adv-x="532" 
d="M49 0zM266 834q217 0 217 -212v-411q0 -109 -53.5 -165t-162.5 -56q-218 0 -218 212v410q0 109 54 165.5t163 56.5zM268 74q35 0 47.5 18.5t12.5 74.5v485q0 30 -4 49t-12 29.5t-20 14.5t-28 4t-27.5 -4t-18.5 -14.5t-10.5 -29.5t-3.5 -49v-485q0 -56 14.5 -74.5
t49.5 -18.5zM265 861q-67 0 -103.5 42.5t-36.5 112.5h66q8 -47 28 -62.5t48 -15.5t48.5 15.5t28.5 62.5h62q0 -70 -36.5 -112.5t-104.5 -42.5z" />
    <glyph glyph-name="obreve" unicode="&#x14f;" horiz-adv-x="425" 
d="M49 0zM212 628q82 0 123 -41t41 -120v-309q0 -81 -41 -124.5t-122 -43.5q-83 0 -123.5 41t-40.5 121v307q0 81 40.5 125t122.5 44zM214 54q26 0 35.5 14.5t9.5 56.5v364q0 45 -12 60t-36 15q-25 0 -35 -15t-10 -60v-364q0 -42 10.5 -56.5t37.5 -14.5zM212 655
q-67 0 -103.5 42.5t-36.5 112.5h66q8 -47 28 -62.5t48 -15.5t48.5 15.5t28.5 62.5h62q0 -70 -36.5 -112.5t-104.5 -42.5z" />
    <glyph glyph-name="Ohungarumlaut" unicode="&#x150;" horiz-adv-x="532" 
d="M49 0zM266 834q217 0 217 -212v-411q0 -109 -53.5 -165t-162.5 -56q-218 0 -218 212v410q0 109 54 165.5t163 56.5zM268 74q35 0 47.5 18.5t12.5 74.5v485q0 30 -4 49t-12 29.5t-20 14.5t-28 4t-27.5 -4t-18.5 -14.5t-10.5 -29.5t-3.5 -49v-485q0 -56 14.5 -74.5
t49.5 -18.5zM338 842h-89l71 151h122zM178 842h-89l71 151h122z" />
    <glyph glyph-name="ohungarumlaut" unicode="&#x151;" horiz-adv-x="425" 
d="M36 0zM212 628q82 0 123 -41t41 -120v-309q0 -81 -41 -124.5t-122 -43.5q-83 0 -123.5 41t-40.5 121v307q0 81 40.5 125t122.5 44zM214 54q26 0 35.5 14.5t9.5 56.5v364q0 45 -12 60t-36 15q-25 0 -35 -15t-10 -60v-364q0 -42 10.5 -56.5t37.5 -14.5zM285 636h-89l71 151
h122zM125 636h-89l71 151h122z" />
    <glyph glyph-name="OE" unicode="&#x152;" horiz-adv-x="694" 
d="M348 0q-18 -5 -38 -7.5t-43 -2.5q-218 0 -218 212v410q0 109 54 165.5t163 56.5q48 0 87 -11h316v-86h-186v-272h126v-87h-126v-294h186v-84h-321zM268 74q35 0 47.5 18.5t12.5 74.5v485q0 30 -4 49t-12 29.5t-20 14.5t-28 4t-27.5 -4t-18.5 -14.5t-10.5 -29.5t-3.5 -49
v-485q0 -56 14.5 -74.5t49.5 -18.5z" />
    <glyph glyph-name="oe" unicode="&#x153;" horiz-adv-x="541" 
d="M274 0q-14 -4 -29 -7t-32 -3q-83 0 -123.5 41t-40.5 121v307q0 81 40.5 125t122.5 44q18 0 35 -3t31 -8h238v-64h-140v-204h95v-65h-95v-221h140v-63h-242zM214 54q26 0 35.5 14.5t9.5 56.5v364q0 45 -12 60t-36 15q-25 0 -35 -15t-10 -60v-364q0 -42 10.5 -56.5
t37.5 -14.5z" />
    <glyph glyph-name="Racute" unicode="&#x154;" horiz-adv-x="522" 
d="M56 0zM210 463h32q53 0 74 33.5t21 114.5q0 37 -5 61.5t-16.5 38.5t-29.5 20t-44 6h-32v-274zM335 268q0 32 -4 53.5t-14.5 34t-28.5 17.5t-46 5h-32v-378h-154v823h183q121 0 184.5 -48.5t63.5 -160.5q0 -44 -9.5 -76.5t-28.5 -55.5t-49 -38t-70 -25q76 -11 117.5 -54.5
t41.5 -131.5v-233h-154v268zM243 842h-89l71 151h122z" />
    <glyph glyph-name="racute" unicode="&#x155;" horiz-adv-x="415" 
d="M56 0zM172 347h24q40 0 56 25t16 86q0 56 -16 75.5t-56 19.5h-24v-206zM266 201q0 24 -3 40t-10.5 25.5t-21.5 13.5t-35 4h-24v-284h-116v617h138q91 0 139 -36t48 -120q0 -67 -28.5 -99.5t-90.5 -47.5q58 -8 89 -40.5t31 -98.5v-175h-116v201zM190 636h-89l71 151h122z
" />
    <glyph glyph-name="Rcommaaccent" unicode="&#x156;" horiz-adv-x="522" 
d="M56 0zM210 463h32q53 0 74 33.5t21 114.5q0 37 -5 61.5t-16.5 38.5t-29.5 20t-44 6h-32v-274zM335 268q0 32 -4 53.5t-14.5 34t-28.5 17.5t-46 5h-32v-378h-154v823h183q121 0 184.5 -48.5t63.5 -160.5q0 -44 -9.5 -76.5t-28.5 -55.5t-49 -38t-70 -25q76 -11 117.5 -54.5
t41.5 -131.5v-233h-154v268zM203 -75q0 25 18.5 41.5t46.5 16.5q27 0 46 -16.5t19 -41.5q0 -38 -20 -65t-52 -44l-24 27q12 5 23.5 12t17.5 15q-5 -1 -9 -1.5t-7 -0.5q-27 0 -43 17.5t-16 39.5z" />
    <glyph glyph-name="rcommaaccent" unicode="&#x157;" horiz-adv-x="415" 
d="M56 0zM172 347h24q40 0 56 25t16 86q0 56 -16 75.5t-56 19.5h-24v-206zM266 201q0 24 -3 40t-10.5 25.5t-21.5 13.5t-35 4h-24v-284h-116v617h138q91 0 139 -36t48 -120q0 -67 -28.5 -99.5t-90.5 -47.5q58 -8 89 -40.5t31 -98.5v-175h-116v201zM154 -75q0 25 18.5 41.5
t46.5 16.5q27 0 46 -16.5t19 -41.5q0 -38 -20 -65t-52 -44l-24 27q12 5 23.5 12t17.5 15q-5 -1 -9 -1.5t-7 -0.5q-27 0 -43 17.5t-16 39.5z" />
    <glyph glyph-name="Rcaron" unicode="&#x158;" horiz-adv-x="522" 
d="M56 0zM210 463h32q53 0 74 33.5t21 114.5q0 37 -5 61.5t-16.5 38.5t-29.5 20t-44 6h-32v-274zM335 268q0 32 -4 53.5t-14.5 34t-28.5 17.5t-46 5h-32v-378h-154v823h183q121 0 184.5 -48.5t63.5 -160.5q0 -44 -9.5 -76.5t-28.5 -55.5t-49 -38t-70 -25q76 -11 117.5 -54.5
t41.5 -131.5v-233h-154v268zM94 1016h91l65 -103l66 103h91l-105 -155h-104z" />
    <glyph glyph-name="rcaron" unicode="&#x159;" horiz-adv-x="415" 
d="M42 0zM172 347h24q40 0 56 25t16 86q0 56 -16 75.5t-56 19.5h-24v-206zM266 201q0 24 -3 40t-10.5 25.5t-21.5 13.5t-35 4h-24v-284h-116v617h138q91 0 139 -36t48 -120q0 -67 -28.5 -99.5t-90.5 -47.5q58 -8 89 -40.5t31 -98.5v-175h-116v201zM42 810h91l65 -103l66 103
h91l-105 -155h-104z" />
    <glyph glyph-name="Sacute" unicode="&#x15a;" horiz-adv-x="485" 
d="M29 0zM256 834q164 0 183 -190l-72 -15q-5 36 -14.5 59.5t-24 37.5t-34 19.5t-44.5 5.5q-45 0 -66.5 -21.5t-21.5 -49.5q0 -23 6 -41.5t26 -42.5q9 -12 29.5 -34l46 -50l52.5 -59.5l51 -61.5q20 -26 34.5 -48t23.5 -45.5t13.5 -51t4.5 -64.5q0 -38 -13 -73t-39.5 -61.5
t-65.5 -42t-91 -15.5q-99 0 -150 46.5t-61 142.5l80 15q6 -35 16.5 -57.5t26 -36t36.5 -18.5t48 -5q52 0 76 19t24 55q0 20 -8.5 40t-32.5 46l-33.5 36.5l-47.5 52.5l-54 61.5t-52 63.5q-33 42 -46 84t-13 91q0 93 52 150.5t155 57.5zM249 842h-89l71 151h122z" />
    <glyph glyph-name="sacute" unicode="&#x15b;" horiz-adv-x="379" 
d="M29 0zM200 628q123 0 138 -145l-55 -11q-8 54 -29 73.5t-59 19.5q-34 0 -50 -17t-16 -38q0 -17 5 -31t19 -32q7 -9 22.5 -25.5l34.5 -37.5l39.5 -44.5t38.5 -46.5q15 -19 26 -35.5t17.5 -34t10 -38.5t3.5 -48q0 -29 -10 -55.5t-29.5 -47t-49 -32.5t-68.5 -12
q-75 0 -113 36t-46 108l60 12q9 -53 31.5 -71.5t64.5 -18.5q39 0 57 15t18 42q0 15 -6.5 30t-24.5 35q-9 9 -25 27l-35.5 39.5l-41 46t-39.5 47.5q-25 32 -34.5 63.5t-9.5 68.5q0 70 39 114t117 44zM192 636h-89l71 151h122z" />
    <glyph glyph-name="Scedilla" unicode="&#x15e;" horiz-adv-x="485" 
d="M29 0zM256 834q164 0 183 -190l-72 -15q-5 36 -14.5 59.5t-24 37.5t-34 19.5t-44.5 5.5q-45 0 -66.5 -21.5t-21.5 -49.5q0 -23 6 -41.5t26 -42.5q9 -12 29.5 -34l46 -50l52.5 -59.5l51 -61.5q20 -26 34.5 -48t23.5 -45.5t13.5 -51t4.5 -64.5q0 -38 -13 -73t-39.5 -61.5
t-65.5 -42t-91 -15.5q-99 0 -150 46.5t-61 142.5l80 15q6 -35 16.5 -57.5t26 -36t36.5 -18.5t48 -5q52 0 76 19t24 55q0 20 -8.5 40t-32.5 46l-33.5 36.5l-47.5 52.5l-54 61.5t-52 63.5q-33 42 -46 84t-13 91q0 93 52 150.5t155 57.5zM177 -75q0 25 18.5 41.5t46.5 16.5
q27 0 46 -16.5t19 -41.5q0 -38 -20 -65t-52 -44l-24 27q12 5 23.5 12t17.5 15q-5 -1 -9 -1.5t-7 -0.5q-27 0 -43 17.5t-16 39.5z" />
    <glyph glyph-name="scedilla" unicode="&#x15f;" horiz-adv-x="379" 
d="M29 0zM200 628q123 0 138 -145l-55 -11q-8 54 -29 73.5t-59 19.5q-34 0 -50 -17t-16 -38q0 -17 5 -31t19 -32q7 -9 22.5 -25.5l34.5 -37.5l39.5 -44.5t38.5 -46.5q15 -19 26 -35.5t17.5 -34t10 -38.5t3.5 -48q0 -29 -10 -55.5t-29.5 -47t-49 -32.5t-68.5 -12
q-75 0 -113 36t-46 108l60 12q9 -53 31.5 -71.5t64.5 -18.5q39 0 57 15t18 42q0 15 -6.5 30t-24.5 35q-9 9 -25 27l-35.5 39.5l-41 46t-39.5 47.5q-25 32 -34.5 63.5t-9.5 68.5q0 70 39 114t117 44zM124 -75q0 25 18.5 41.5t46.5 16.5q27 0 46 -16.5t19 -41.5q0 -38 -20 -65
t-52 -44l-24 27q12 5 23.5 12t17.5 15q-5 -1 -9 -1.5t-7 -0.5q-27 0 -43 17.5t-16 39.5z" />
    <glyph glyph-name="Scaron" unicode="&#x160;" horiz-adv-x="485" 
d="M29 0zM256 834q164 0 183 -190l-72 -15q-5 36 -14.5 59.5t-24 37.5t-34 19.5t-44.5 5.5q-45 0 -66.5 -21.5t-21.5 -49.5q0 -23 6 -41.5t26 -42.5q9 -12 29.5 -34l46 -50l52.5 -59.5l51 -61.5q20 -26 34.5 -48t23.5 -45.5t13.5 -51t4.5 -64.5q0 -38 -13 -73t-39.5 -61.5
t-65.5 -42t-91 -15.5q-99 0 -150 46.5t-61 142.5l80 15q6 -35 16.5 -57.5t26 -36t36.5 -18.5t48 -5q52 0 76 19t24 55q0 20 -8.5 40t-32.5 46l-33.5 36.5l-47.5 52.5l-54 61.5t-52 63.5q-33 42 -46 84t-13 91q0 93 52 150.5t155 57.5zM96 1016h91l65 -103l66 103h91
l-105 -155h-104z" />
    <glyph glyph-name="scaron" unicode="&#x161;" horiz-adv-x="379" 
d="M29 0zM200 628q123 0 138 -145l-55 -11q-8 54 -29 73.5t-59 19.5q-34 0 -50 -17t-16 -38q0 -17 5 -31t19 -32q7 -9 22.5 -25.5l34.5 -37.5l39.5 -44.5t38.5 -46.5q15 -19 26 -35.5t17.5 -34t10 -38.5t3.5 -48q0 -29 -10 -55.5t-29.5 -47t-49 -32.5t-68.5 -12
q-75 0 -113 36t-46 108l60 12q9 -53 31.5 -71.5t64.5 -18.5q39 0 57 15t18 42q0 15 -6.5 30t-24.5 35q-9 9 -25 27l-35.5 39.5l-41 46t-39.5 47.5q-25 32 -34.5 63.5t-9.5 68.5q0 70 39 114t117 44zM44 810h91l65 -103l66 103h91l-105 -155h-104z" />
    <glyph glyph-name="Tcedilla" unicode="&#x162;" horiz-adv-x="405" 
d="M12 0zM12 823h381v-89h-111v-734h-154v734h-116v89zM137 -75q0 25 18.5 41.5t46.5 16.5q27 0 46 -16.5t19 -41.5q0 -38 -20 -65t-52 -44l-24 27q12 5 23.5 12t17.5 15q-5 -1 -9 -1.5t-7 -0.5q-27 0 -43 17.5t-16 39.5z" />
    <glyph glyph-name="tcedilla" unicode="&#x163;" horiz-adv-x="312" 
d="M12 0zM12 617h287v-66h-84v-551h-116v551h-87v66zM91 -75q0 25 18.5 41.5t46.5 16.5q27 0 46 -16.5t19 -41.5q0 -38 -20 -65t-52 -44l-24 27q12 5 23.5 12t17.5 15q-5 -1 -9 -1.5t-7 -0.5q-27 0 -43 17.5t-16 39.5z" />
    <glyph glyph-name="Tcaron" unicode="&#x164;" horiz-adv-x="405" 
d="M12 0zM12 823h381v-89h-111v-734h-154v734h-116v89zM47 1016h91l65 -103l66 103h91l-105 -155h-104z" />
    <glyph glyph-name="tcaron" unicode="&#x165;" horiz-adv-x="312" 
d="M1 0zM12 617h287v-66h-84v-551h-116v551h-87v66zM1 810h91l65 -103l66 103h91l-105 -155h-104z" />
    <glyph glyph-name="Tbar" unicode="&#x166;" horiz-adv-x="405" 
d="M58 631h70v103h-116v89h381v-89h-111v-103h64v-91h-64v-540h-154v540h-70v91z" />
    <glyph glyph-name="tbar" unicode="&#x167;" horiz-adv-x="312" 
d="M42 455h57v96h-87v66h287v-66h-84v-96h55v-71h-55v-384h-116v384h-57v71z" />
    <glyph glyph-name="Utilde" unicode="&#x168;" horiz-adv-x="536" 
d="M51 0zM269 -10q-110 0 -164 51t-54 146v636h155v-664q0 -48 15.5 -66.5t50.5 -18.5t50 18.5t15 66.5v664h148v-636q0 -90 -54 -143.5t-162 -53.5zM209 1001q16 0 31 -6t30 -13t30 -13t32 -6q18 0 27.5 6.5t16.5 25.5l56 -47q-13 -33 -38.5 -53t-67.5 -20q-17 0 -31.5 6
t-29.5 13t-30 13t-32 6q-18 0 -27.5 -6.5t-16.5 -25.5l-56 47q13 33 38.5 53t67.5 20z" />
    <glyph glyph-name="utilde" unicode="&#x169;" horiz-adv-x="429" 
d="M50 0zM216 -10q-83 0 -124 39.5t-41 110.5v477h117v-498q0 -36 12 -50.5t38 -14.5t37.5 14.5t11.5 50.5v498h111v-477q0 -68 -40.5 -109t-121.5 -41zM156 795q16 0 31 -6t30 -13t30 -13t32 -6q18 0 27.5 6.5t16.5 25.5l56 -47q-13 -33 -38.5 -53t-67.5 -20q-17 0 -31.5 6
t-29.5 13t-30 13t-32 6q-18 0 -27.5 -6.5t-16.5 -25.5l-56 47q13 33 38.5 53t67.5 20z" />
    <glyph glyph-name="Umacron" unicode="&#x16a;" horiz-adv-x="536" 
d="M51 0zM269 -10q-110 0 -164 51t-54 146v636h155v-664q0 -48 15.5 -66.5t50.5 -18.5t50 18.5t15 66.5v664h148v-636q0 -90 -54 -143.5t-162 -53.5zM123 980h289v-90h-289v90z" />
    <glyph glyph-name="umacron" unicode="&#x16b;" horiz-adv-x="429" 
d="M51 0zM216 -10q-83 0 -124 39.5t-41 110.5v477h117v-498q0 -36 12 -50.5t38 -14.5t37.5 14.5t11.5 50.5v498h111v-477q0 -68 -40.5 -109t-121.5 -41zM70 774h289v-90h-289v90z" />
    <glyph glyph-name="Ubreve" unicode="&#x16c;" horiz-adv-x="536" 
d="M51 0zM269 -10q-110 0 -164 51t-54 146v636h155v-664q0 -48 15.5 -66.5t50.5 -18.5t50 18.5t15 66.5v664h148v-636q0 -90 -54 -143.5t-162 -53.5zM267 861q-67 0 -103.5 42.5t-36.5 112.5h66q8 -47 28 -62.5t48 -15.5t48.5 15.5t28.5 62.5h62q0 -70 -36.5 -112.5
t-104.5 -42.5z" />
    <glyph glyph-name="ubreve" unicode="&#x16d;" horiz-adv-x="429" 
d="M51 0zM216 -10q-83 0 -124 39.5t-41 110.5v477h117v-498q0 -36 12 -50.5t38 -14.5t37.5 14.5t11.5 50.5v498h111v-477q0 -68 -40.5 -109t-121.5 -41zM214 655q-67 0 -103.5 42.5t-36.5 112.5h66q8 -47 28 -62.5t48 -15.5t48.5 15.5t28.5 62.5h62q0 -70 -36.5 -112.5
t-104.5 -42.5z" />
    <glyph glyph-name="Uring" unicode="&#x16e;" horiz-adv-x="536" 
d="M51 0zM269 -10q-110 0 -164 51t-54 146v636h155v-664q0 -48 15.5 -66.5t50.5 -18.5t50 18.5t15 66.5v664h148v-636q0 -90 -54 -143.5t-162 -53.5zM232 933q0 -18 9 -31t28 -13t27 13t8 31q0 17 -8 30t-27 13t-28 -13t-9 -30zM186 933q0 37 22 60t60 23q37 0 59.5 -23
t22.5 -60q0 -38 -22.5 -61t-59.5 -23q-38 0 -60 23t-22 61z" />
    <glyph glyph-name="uring" unicode="&#x16f;" horiz-adv-x="429" 
d="M51 0zM216 -10q-83 0 -124 39.5t-41 110.5v477h117v-498q0 -36 12 -50.5t38 -14.5t37.5 14.5t11.5 50.5v498h111v-477q0 -68 -40.5 -109t-121.5 -41zM178 727q0 -18 9 -31t28 -13t27 13t8 31q0 17 -8 30t-27 13t-28 -13t-9 -30zM132 727q0 37 22 60t60 23q37 0 59.5 -23
t22.5 -60q0 -38 -22.5 -61t-59.5 -23q-38 0 -60 23t-22 61z" />
    <glyph glyph-name="Uhungarumlaut" unicode="&#x170;" horiz-adv-x="536" 
d="M51 0zM269 -10q-110 0 -164 51t-54 146v636h155v-664q0 -48 15.5 -66.5t50.5 -18.5t50 18.5t15 66.5v664h148v-636q0 -90 -54 -143.5t-162 -53.5zM340 842h-89l71 151h122zM180 842h-89l71 151h122z" />
    <glyph glyph-name="uhungarumlaut" unicode="&#x171;" horiz-adv-x="429" 
d="M38 0zM216 -10q-83 0 -124 39.5t-41 110.5v477h117v-498q0 -36 12 -50.5t38 -14.5t37.5 14.5t11.5 50.5v498h111v-477q0 -68 -40.5 -109t-121.5 -41zM287 636h-89l71 151h122zM127 636h-89l71 151h122z" />
    <glyph glyph-name="Uogonek" unicode="&#x172;" horiz-adv-x="536" 
d="M147 -108q0 24 23.5 51t84.5 47q-103 4 -153.5 54.5t-50.5 142.5v636h155v-664q0 -48 15.5 -66.5t50.5 -18.5t50 18.5t15 66.5v664h148v-636q0 -70 -32.5 -117.5t-96.5 -68.5l-30.5 -10.5t-36 -16t-30.5 -22t-13 -27.5q0 -25 32 -25q21 0 35.5 8t23.5 20l49 -47
q-35 -65 -123 -65q-52 0 -84 19.5t-32 56.5z" />
    <glyph glyph-name="uogonek" unicode="&#x173;" horiz-adv-x="429" 
d="M89 -108q0 12 5 25t16.5 26.5t31 26t49.5 23.5q-71 5 -105.5 43t-34.5 104v477h117v-498q0 -36 12 -49.5t38 -13.5t37.5 13.5t11.5 49.5v498h111v-477q0 -54 -26.5 -90t-78.5 -51q-31 -9 -48 -20t-25.5 -21.5t-10 -19.5t-1.5 -13q0 -25 32 -25q21 0 35.5 8t23.5 20
l49 -47q-35 -65 -123 -65q-52 0 -84 19.5t-32 56.5z" />
    <glyph glyph-name="Wcircumflex" unicode="&#x174;" horiz-adv-x="831" 
d="M12 0zM637 0h-100l-122 538l-127 -538h-101l-175 823h168l99 -523l126 523h99l124 -523l106 523h84zM612 861h-91l-65 103l-66 -103h-91l105 155h104z" />
    <glyph glyph-name="wcircumflex" unicode="&#x175;" horiz-adv-x="632" 
d="M12 0zM483 0h-76l-92 404l-95 -404h-76l-132 617h127l74 -392l95 392h75l93 -392l80 392h63zM502 655h-91l-65 103l-66 -103h-91l105 155h104z" />
    <glyph glyph-name="Ycircumflex" unicode="&#x176;" horiz-adv-x="527" 
d="M8 0zM293 439l136 384h90l-181 -497v-326h-154v306l-176 517h158zM430 861h-91l-65 103l-66 -103h-91l105 155h104z" />
    <glyph glyph-name="ycircumflex" unicode="&#x177;" horiz-adv-x="401" 
d="M8 0zM223 329l102 288h68l-136 -372v-245h-116v230l-133 387h119zM367 655h-91l-65 103l-66 -103h-91l105 155h104z" />
    <glyph glyph-name="Ydieresis" unicode="&#x178;" horiz-adv-x="527" 
d="M8 0zM293 439l136 384h90l-181 -497v-326h-154v306l-176 517h158zM299 939q0 29 19.5 48.5t48.5 19.5t49 -19.5t20 -48.5t-20 -48.5t-49 -19.5t-48.5 19.5t-19.5 48.5zM110 939q0 29 19.5 48.5t48.5 19.5t49 -19.5t20 -48.5t-20 -48.5t-49 -19.5t-48.5 19.5t-19.5 48.5z
" />
    <glyph glyph-name="Zacute" unicode="&#x179;" horiz-adv-x="470" 
d="M19 0zM19 823h433v-49l-254 -690h254v-84h-433v44l258 690h-258v89zM237 842h-89l71 151h122z" />
    <glyph glyph-name="zacute" unicode="&#x17a;" horiz-adv-x="363" 
d="M19 0zM19 617h326v-36l-191 -518h191v-63h-326v33l195 518h-195v66zM184 636h-89l71 151h122z" />
    <glyph glyph-name="Zdotaccent" unicode="&#x17b;" horiz-adv-x="470" 
d="M19 0zM19 823h433v-49l-254 -690h254v-84h-433v44l258 690h-258v89zM178 939q0 29 19.5 48.5t48.5 19.5t49 -19.5t20 -48.5t-20 -48.5t-49 -19.5t-48.5 19.5t-19.5 48.5z" />
    <glyph glyph-name="zdotaccent" unicode="&#x17c;" horiz-adv-x="363" 
d="M19 0zM19 617h326v-36l-191 -518h191v-63h-326v33l195 518h-195v66zM117 733q0 29 19.5 48.5t48.5 19.5t49 -19.5t20 -48.5t-20 -48.5t-49 -19.5t-48.5 19.5t-19.5 48.5z" />
    <glyph glyph-name="Zcaron" unicode="&#x17d;" horiz-adv-x="470" 
d="M19 0zM19 823h433v-49l-254 -690h254v-84h-433v44l258 690h-258v89zM90 1016h91l65 -103l66 103h91l-105 -155h-104z" />
    <glyph glyph-name="zcaron" unicode="&#x17e;" horiz-adv-x="363" 
d="M19 0zM19 617h326v-36l-191 -518h191v-63h-326v33l195 518h-195v66zM32 810h91l65 -103l66 103h91l-105 -155h-104z" />
    <glyph glyph-name="florin" unicode="&#x192;" horiz-adv-x="393" 
d="M275 529l-49 -471q-4 -36 -12.5 -61.5t-25.5 -42t-44 -24t-67 -7.5h-68v95h44q24 0 33.5 9t12.5 35l52 467h-65v81h74l3 23q5 40 16 66t29 41t43.5 20.5t60.5 5.5h67v-90h-33q-35 0 -46.5 -12t-13.5 -34l-2 -20h73v-81h-82z" />
    <glyph glyph-name="Scommaaccent" unicode="&#x218;" horiz-adv-x="485" 
d="M29 0zM256 834q164 0 183 -190l-72 -15q-5 36 -14.5 59.5t-24 37.5t-34 19.5t-44.5 5.5q-45 0 -66.5 -21.5t-21.5 -49.5q0 -23 6 -41.5t26 -42.5q9 -12 29.5 -34l46 -50l52.5 -59.5l51 -61.5q20 -26 34.5 -48t23.5 -45.5t13.5 -51t4.5 -64.5q0 -38 -13 -73t-39.5 -61.5
t-65.5 -42t-91 -15.5q-99 0 -150 46.5t-61 142.5l80 15q6 -35 16.5 -57.5t26 -36t36.5 -18.5t48 -5q52 0 76 19t24 55q0 20 -8.5 40t-32.5 46l-33.5 36.5l-47.5 52.5l-54 61.5t-52 63.5q-33 42 -46 84t-13 91q0 93 52 150.5t155 57.5zM177 -75q0 25 18.5 41.5t46.5 16.5
q27 0 46 -16.5t19 -41.5q0 -38 -20 -65t-52 -44l-24 27q12 5 23.5 12t17.5 15q-5 -1 -9 -1.5t-7 -0.5q-27 0 -43 17.5t-16 39.5z" />
    <glyph glyph-name="scommaaccent" unicode="&#x219;" horiz-adv-x="379" 
d="M29 0zM200 628q123 0 138 -145l-55 -11q-8 54 -29 73.5t-59 19.5q-34 0 -50 -17t-16 -38q0 -17 5 -31t19 -32q7 -9 22.5 -25.5l34.5 -37.5l39.5 -44.5t38.5 -46.5q15 -19 26 -35.5t17.5 -34t10 -38.5t3.5 -48q0 -29 -10 -55.5t-29.5 -47t-49 -32.5t-68.5 -12
q-75 0 -113 36t-46 108l60 12q9 -53 31.5 -71.5t64.5 -18.5q39 0 57 15t18 42q0 15 -6.5 30t-24.5 35q-9 9 -25 27l-35.5 39.5l-41 46t-39.5 47.5q-25 32 -34.5 63.5t-9.5 68.5q0 70 39 114t117 44zM124 -75q0 25 18.5 41.5t46.5 16.5q27 0 46 -16.5t19 -41.5q0 -38 -20 -65
t-52 -44l-24 27q12 5 23.5 12t17.5 15q-5 -1 -9 -1.5t-7 -0.5q-27 0 -43 17.5t-16 39.5z" />
    <glyph glyph-name="uni021A" unicode="&#x21a;" horiz-adv-x="405" 
d="M12 0zM12 823h381v-89h-111v-734h-154v734h-116v89zM137 -75q0 25 18.5 41.5t46.5 16.5q27 0 46 -16.5t19 -41.5q0 -38 -20 -65t-52 -44l-24 27q12 5 23.5 12t17.5 15q-5 -1 -9 -1.5t-7 -0.5q-27 0 -43 17.5t-16 39.5z" />
    <glyph glyph-name="uni021B" unicode="&#x21b;" horiz-adv-x="312" 
d="M12 0zM12 617h287v-66h-84v-551h-116v551h-87v66zM91 -75q0 25 18.5 41.5t46.5 16.5q27 0 46 -16.5t19 -41.5q0 -38 -20 -65t-52 -44l-24 27q12 5 23.5 12t17.5 15q-5 -1 -9 -1.5t-7 -0.5q-27 0 -43 17.5t-16 39.5z" />
    <glyph glyph-name="circumflex" unicode="&#x2c6;" horiz-adv-x="412" 
d="M362 655h-91l-65 103l-66 -103h-91l105 155h104z" />
    <glyph glyph-name="caron" unicode="&#x2c7;" horiz-adv-x="412" 
d="M49 810h91l65 -103l66 103h91l-105 -155h-104z" />
    <glyph glyph-name="breve" unicode="&#x2d8;" horiz-adv-x="379" 
d="M189 655q-67 0 -103.5 42.5t-36.5 112.5h66q8 -47 28 -62.5t48 -15.5t48.5 15.5t28.5 62.5h62q0 -70 -36.5 -112.5t-104.5 -42.5z" />
    <glyph glyph-name="dotaccent" unicode="&#x2d9;" horiz-adv-x="235" 
d="M49 733q0 29 19.5 48.5t48.5 19.5t49 -19.5t20 -48.5t-20 -48.5t-49 -19.5t-48.5 19.5t-19.5 48.5z" />
    <glyph glyph-name="ring" unicode="&#x2da;" horiz-adv-x="262" 
d="M95 727q0 -18 9 -31t28 -13t27 13t8 31q0 17 -8 30t-27 13t-28 -13t-9 -30zM49 727q0 37 22 60t60 23q37 0 59.5 -23t22.5 -60q0 -38 -22.5 -61t-59.5 -23q-38 0 -60 23t-22 61z" />
    <glyph glyph-name="ogonek" unicode="&#x2db;" horiz-adv-x="338" 
d="M49 -108q0 15 8 30t27.5 29.5t52.5 27t83 21.5h59q-48 -10 -74 -21t-39 -21.5t-15.5 -19t-2.5 -13.5q0 -25 32 -25q21 0 35.5 8t23.5 20l49 -47q-35 -65 -123 -65q-52 0 -84 19.5t-32 56.5z" />
    <glyph glyph-name="tilde" unicode="&#x2dc;" horiz-adv-x="428" 
d="M155 795q16 0 31 -6t30 -13t30 -13t32 -6q18 0 27.5 6.5t16.5 25.5l56 -47q-13 -33 -38.5 -53t-67.5 -20q-17 0 -31.5 6t-29.5 13t-30 13t-32 6q-18 0 -27.5 -6.5t-16.5 -25.5l-56 47q13 33 38.5 53t67.5 20z" />
    <glyph glyph-name="hungarumlaut" unicode="&#x2dd;" horiz-adv-x="452" 
d="M247 636h-89l71 151h122zM87 636h-89l71 151h122z" />
    <glyph glyph-name="Delta" unicode="&#x394;" horiz-adv-x="493" 
d="M200 823h102l179 -823h-469zM120 130h225l-107 512z" />
    <glyph glyph-name="Omega" unicode="&#x3a9;" horiz-adv-x="532" 
d="M298 0v143q12 25 18 65t8.5 91t3 110.5t0.5 125.5q0 70 -3.5 112.5t-11 65t-19 29.5t-27.5 7t-28 -7t-19.5 -29.5t-11 -65t-3.5 -112.5q0 -66 1.5 -125.5t5 -110.5t9.5 -91t16 -65v-143h-177v132h118q-24 22 -47.5 56.5t-41.5 81.5t-29 107t-11 133q0 69 5 128
t26.5 102.5t65 68.5t121.5 25t121.5 -25t64.5 -68.5t26 -102.5t5 -128q0 -73 -11.5 -133t-29.5 -107t-41 -81.5t-47 -56.5h118v-132h-175z" />
    <glyph glyph-name="mu" unicode="&#x3bc;" horiz-adv-x="445" 
d="M177 145q0 -42 12.5 -59t34.5 -17q23 0 36 17t13 59v472h121v-471q0 -78 -41 -117t-116 -39q-23 0 -37 2.5t-23 5.5v-106h-126v725h126v-472z" />
    <glyph glyph-name="pi" unicode="&#x3c0;" horiz-adv-x="488" 
d="M477 2q-14 -5 -37.5 -8.5t-61.5 -3.5q-67 0 -92.5 33t-25.5 94v420h-112v-537h-104v617h324v-473q0 -42 14.5 -58t48.5 -16q12 0 23.5 2t22.5 8v-78z" />
    <glyph glyph-name="Wgrave" unicode="&#x1e80;" horiz-adv-x="831" 
d="M12 0zM637 0h-100l-122 538l-127 -538h-101l-175 823h168l99 -523l126 523h99l124 -523l106 523h84zM359 993h122l71 -151h-89z" />
    <glyph glyph-name="wgrave" unicode="&#x1e81;" horiz-adv-x="632" 
d="M12 0zM483 0h-76l-92 404l-95 -404h-76l-132 617h127l74 -392l95 392h75l93 -392l80 392h63zM249 787h122l71 -151h-89z" />
    <glyph glyph-name="Wacute" unicode="&#x1e82;" horiz-adv-x="831" 
d="M12 0zM637 0h-100l-122 538l-127 -538h-101l-175 823h168l99 -523l126 523h99l124 -523l106 523h84zM448 842h-89l71 151h122z" />
    <glyph glyph-name="wacute" unicode="&#x1e83;" horiz-adv-x="632" 
d="M12 0zM483 0h-76l-92 404l-95 -404h-76l-132 617h127l74 -392l95 392h75l93 -392l80 392h63zM338 636h-89l71 151h122z" />
    <glyph glyph-name="Wdieresis" unicode="&#x1e84;" horiz-adv-x="831" 
d="M12 0zM637 0h-100l-122 538l-127 -538h-101l-175 823h168l99 -523l126 523h99l124 -523l106 523h84zM481 939q0 29 19.5 48.5t48.5 19.5t49 -19.5t20 -48.5t-20 -48.5t-49 -19.5t-48.5 19.5t-19.5 48.5zM292 939q0 29 19.5 48.5t48.5 19.5t49 -19.5t20 -48.5t-20 -48.5
t-49 -19.5t-48.5 19.5t-19.5 48.5z" />
    <glyph glyph-name="wdieresis" unicode="&#x1e85;" horiz-adv-x="632" 
d="M12 0zM483 0h-76l-92 404l-95 -404h-76l-132 617h127l74 -392l95 392h75l93 -392l80 392h63zM372 733q0 29 19.5 48.5t48.5 19.5t49 -19.5t20 -48.5t-20 -48.5t-49 -19.5t-48.5 19.5t-19.5 48.5zM183 733q0 29 19.5 48.5t48.5 19.5t49 -19.5t20 -48.5t-20 -48.5
t-49 -19.5t-48.5 19.5t-19.5 48.5z" />
    <glyph glyph-name="Ygrave" unicode="&#x1ef2;" horiz-adv-x="527" 
d="M8 0zM293 439l136 384h90l-181 -497v-326h-154v306l-176 517h158zM177 993h122l71 -151h-89z" />
    <glyph glyph-name="ygrave" unicode="&#x1ef3;" horiz-adv-x="401" 
d="M8 0zM223 329l102 288h68l-136 -372v-245h-116v230l-133 387h119zM114 787h122l71 -151h-89z" />
    <glyph glyph-name="endash" unicode="&#x2013;" horiz-adv-x="430" 
d="M13 465h404v-91h-404v91z" />
    <glyph glyph-name="emdash" unicode="&#x2014;" horiz-adv-x="626" 
d="M13 465h599v-91h-599v91z" />
    <glyph glyph-name="quoteleft" unicode="&#x2018;" horiz-adv-x="170" 
d="M150 704q0 -31 -21 -52t-52 -21t-52.5 21t-21.5 52q0 57 30 94.5t77 57.5l23 -38q-17 -6 -37.5 -18t-30.5 -26q6 1 10.5 1.5t7.5 0.5q31 0 49 -22t18 -50z" />
    <glyph glyph-name="quoteright" unicode="&#x2019;" horiz-adv-x="176" 
d="M15 761q0 31 21 52t52 21t52.5 -21t21.5 -52q0 -57 -30 -94.5t-77 -57.5l-23 38q17 6 37.5 18t30.5 26q-6 -1 -10.5 -1.5t-7.5 -0.5q-31 0 -49 22t-18 50z" />
    <glyph glyph-name="quotesinglbase" unicode="&#x201a;" horiz-adv-x="198" 
d="M25 73q0 31 21 52t52 21t52.5 -21t21.5 -52q0 -57 -30 -94.5t-77 -57.5l-23 38q17 6 37.5 18t30.5 26q-6 -1 -10.5 -1.5t-7.5 -0.5q-31 0 -49 22t-18 50z" />
    <glyph glyph-name="quotedblleft" unicode="&#x201c;" horiz-adv-x="340" 
d="M3 631zM150 704q0 -31 -21 -52t-52 -21t-52.5 21t-21.5 52q0 57 30 94.5t77 57.5l23 -38q-17 -6 -37.5 -18t-30.5 -26q6 1 10.5 1.5t7.5 0.5q31 0 49 -22t18 -50zM320 704q0 -31 -21 -52t-52 -21t-52.5 21t-21.5 52q0 57 30 94.5t77 57.5l23 -38q-17 -6 -37.5 -18
t-30.5 -26q6 1 10.5 1.5t7.5 0.5q31 0 49 -22t18 -50z" />
    <glyph glyph-name="quotedblright" unicode="&#x201d;" horiz-adv-x="352" 
d="M15 609zM15 761q0 31 21 52t52 21t52.5 -21t21.5 -52q0 -57 -30 -94.5t-77 -57.5l-23 38q17 6 37.5 18t30.5 26q-6 -1 -10.5 -1.5t-7.5 -0.5q-31 0 -49 22t-18 50zM191 761q0 31 21 52t52 21t52.5 -21t21.5 -52q0 -57 -30 -94.5t-77 -57.5l-23 38q17 6 37.5 18t30.5 26
q-6 -1 -10.5 -1.5t-7.5 -0.5q-31 0 -49 22t-18 50z" />
    <glyph glyph-name="quotedblbase" unicode="&#x201e;" horiz-adv-x="396" 
d="M25 0zM25 73q0 31 21 52t52 21t52.5 -21t21.5 -52q0 -57 -30 -94.5t-77 -57.5l-23 38q17 6 37.5 18t30.5 26q-6 -1 -10.5 -1.5t-7.5 -0.5q-31 0 -49 22t-18 50zM223 73q0 31 21 52t52 21t52.5 -21t21.5 -52q0 -57 -30 -94.5t-77 -57.5l-23 38q17 6 37.5 18t30.5 26
q-6 -1 -10.5 -1.5t-7.5 -0.5q-31 0 -49 22t-18 50z" />
    <glyph glyph-name="dagger" unicode="&#x2020;" horiz-adv-x="397" 
d="M151 823h93v-136h138v-94h-138v-593h-93v593h-137v94h137v136z" />
    <glyph glyph-name="daggerdbl" unicode="&#x2021;" horiz-adv-x="397" 
d="M151 136h-137v94h137v363h-137v94h137v136h93v-136h138v-94h-138v-363h138v-94h-138v-136h-93v136z" />
    <glyph glyph-name="bullet" unicode="&#x2022;" horiz-adv-x="409" 
d="M50 401q0 32 12 60t33 49t49 33.5t60 12.5t60 -12.5t49 -33.5t33 -49t12 -60t-12 -60t-33 -48.5t-49 -32.5t-60 -12t-60 12t-49 32.5t-33 48.5t-12 60z" />
    <glyph glyph-name="ellipsis" unicode="&#x2026;" horiz-adv-x="849" 
d="M32 0zM32 68q0 33 22 55.5t56 22.5q33 0 55.5 -22.5t22.5 -55.5q0 -34 -22.5 -56t-55.5 -22q-34 0 -56 22t-22 56zM346 68q0 33 22 55.5t56 22.5q33 0 55.5 -22.5t22.5 -55.5q0 -34 -22.5 -56t-55.5 -22q-34 0 -56 22t-22 56zM660 68q0 33 22 55.5t56 22.5
q33 0 55.5 -22.5t22.5 -55.5q0 -34 -22.5 -56t-55.5 -22q-34 0 -56 22t-22 56z" />
    <glyph glyph-name="perthousand" unicode="&#x2030;" horiz-adv-x="1055" 
d="M49 0zM183 781q-22 0 -30.5 -11.5t-8.5 -37.5v-250q0 -28 9.5 -40t29.5 -12q21 0 30.5 12t9.5 41v249q0 27 -9.5 38t-30.5 11zM183 372q-134 0 -134 121v216q0 131 134 131t134 -121v-215q0 -132 -134 -132zM190 0h-81l444 823h81zM557 393q-22 0 -30.5 -11.5t-8.5 -37.5
v-250q0 -28 9.5 -40t29.5 -12q21 0 30.5 12t9.5 41v249q0 27 -9.5 38t-30.5 11zM557 -16q-134 0 -134 121v216q0 131 134 131t134 -121v-215q0 -132 -134 -132zM872 393q-22 0 -30.5 -11.5t-8.5 -37.5v-250q0 -28 9.5 -40t29.5 -12q21 0 30.5 12t9.5 41v249q0 27 -9.5 38
t-30.5 11zM872 -16q-134 0 -134 121v216q0 131 134 131t134 -121v-215q0 -132 -134 -132z" />
    <glyph glyph-name="guilsinglleft" unicode="&#x2039;" horiz-adv-x="243" 
d="M17 456l207 185v-94l-153 -134l153 -136v-92l-207 186v85z" />
    <glyph glyph-name="guilsinglright" unicode="&#x203a;" horiz-adv-x="243" 
d="M224 371l-207 -186v92l153 136l-153 134v94l207 -185v-85z" />
    <glyph glyph-name="fraction" unicode="&#x2044;" horiz-adv-x="209" 
d="M-77 0h-81l444 823h81z" />
    <glyph glyph-name="zerosuperior" unicode="&#x2070;" horiz-adv-x="345" 
d="M37 372zM171 781q-22 0 -30.5 -11.5t-8.5 -37.5v-250q0 -28 9.5 -40t29.5 -12q21 0 30.5 12t9.5 41v249q0 27 -9.5 38t-30.5 11zM171 372q-134 0 -134 121v216q0 131 134 131t134 -121v-215q0 -132 -134 -132z" />
    <glyph glyph-name="foursuperior" unicode="&#x2074;" horiz-adv-x="310" 
d="M19 378zM19 477l172 357h59v-330h35v-58h-35v-68h-95v68h-136v31zM155 504v140l-70 -140h70z" />
    <glyph glyph-name="fivesuperior" unicode="&#x2075;" horiz-adv-x="325" 
d="M19 372zM197 525q0 63 -11 84t-38 21q-22 0 -33.5 -7t-19.5 -15l-54 2l16 224h201v-59h-114l-7 -99q8 3 19 5t28 2q45 0 75 -37.5t30 -115.5q0 -43 -10 -73t-28.5 -49t-44.5 -27.5t-57 -8.5q-60 0 -90.5 29.5t-39.5 83.5l51 11q8 -40 26 -53t37 -13q16 0 28 4t20 14.5
t12 29t4 47.5z" />
    <glyph glyph-name="sixsuperior" unicode="&#x2076;" horiz-adv-x="337" 
d="M30 372zM30 540q0 42 10.5 84.5t31 81t49.5 71.5t65 57h73q-14 -12 -31 -29.5t-33.5 -38.5t-30.5 -44.5t-22 -45.5q7 3 16.5 6t21.5 3q57 0 90.5 -42t33.5 -117q0 -76 -38.5 -115t-100.5 -39q-70 0 -102.5 46.5t-32.5 121.5zM163 626q-25 0 -33 -22.5t-8 -79.5
q0 -52 10.5 -73.5t33.5 -21.5t34 23t11 64q0 62 -10 86t-38 24z" />
    <glyph glyph-name="sevensuperior" unicode="&#x2077;" horiz-adv-x="292" 
d="M19 378zM19 834h246v-24l-128 -432h-103l128 397h-143v59z" />
    <glyph glyph-name="eightsuperior" unicode="&#x2078;" horiz-adv-x="340" 
d="M33 372zM169 660q19 0 26.5 13t7.5 53q0 26 -7.5 40t-27.5 14t-27 -14t-7 -40q0 -39 7.5 -52.5t27.5 -13.5zM169 605q-21 0 -32.5 -19t-11.5 -75q0 -36 10.5 -59t34.5 -23q23 0 32.5 23.5t9.5 61.5q0 54 -11.5 72.5t-31.5 18.5zM33 509q0 86 73 123q-26 14 -40 38t-14 58
q0 55 30 83.5t87 28.5q56 0 85.5 -29t29.5 -84q0 -39 -16 -61.5t-36 -33.5q32 -17 52.5 -46.5t20.5 -71.5q0 -142 -136 -142q-69 0 -102.5 35t-33.5 102z" />
    <glyph glyph-name="ninesuperior" unicode="&#x2079;" horiz-adv-x="337" 
d="M30 378zM304 672q0 -42 -10.5 -84.5t-31 -81t-49.5 -71.5t-65 -57h-75q15 12 32.5 29t34 37.5t30 43.5t21.5 46q-14 -8 -37 -8q-57 0 -90.5 42t-33.5 117q0 76 38.5 115.5t100.5 39.5q70 0 102.5 -46.5t32.5 -121.5zM171 586q26 0 33.5 22.5t7.5 79.5q0 51 -10.5 73
t-32.5 22q-24 0 -35 -23t-11 -65q0 -62 9.5 -85.5t38.5 -23.5z" />
    <glyph glyph-name="zeroinferior" unicode="&#x2080;" horiz-adv-x="345" 
d="M171 393q-22 0 -30.5 -11.5t-8.5 -37.5v-250q0 -28 9.5 -40t29.5 -12q21 0 30.5 12t9.5 41v249q0 27 -9.5 38t-30.5 11zM171 -16q-134 0 -134 121v216q0 131 134 131t134 -121v-215q0 -132 -134 -132z" />
    <glyph glyph-name="oneinferior" unicode="&#x2081;" horiz-adv-x="189" 
d="M24 446h122v-456h-95v396h-27v60z" />
    <glyph glyph-name="twoinferior" unicode="&#x2082;" horiz-adv-x="294" 
d="M153 297q9 21 12 34t3 29q0 35 -37 35q-17 0 -26 -12.5t-15 -49.5l-60 4q12 115 106 115q61 0 89 -30.5t28 -77.5q0 -15 -4.5 -31.5t-15.5 -41.5l-99 -224h113v-57h-227z" />
    <glyph glyph-name="threeinferior" unicode="&#x2083;" horiz-adv-x="322" 
d="M195 125q0 51 -9 81q-14 -6 -26 -8t-27 -2q-29 0 -43 15t-14 32q0 23 15.5 34.5t42.5 11.5q25 0 51 -8q5 22 5 47q0 35 -9 49.5t-25 14.5q-18 0 -29.5 -8.5t-17.5 -21.5l-52 25q27 65 99 65q54 0 85.5 -30.5t31.5 -87.5q0 -50 -32 -88q20 -20 33.5 -51t13.5 -74
q0 -65 -38.5 -101t-105.5 -36q-48 0 -83.5 29.5t-43.5 83.5l58 12q8 -35 24 -51t46 -16q28 0 39 19t11 64zM134 237q18 0 28 7q-13 8 -27 8q-12 0 -12 -9q0 -6 11 -6z" />
    <glyph glyph-name="fourinferior" unicode="&#x2084;" horiz-adv-x="310" 
d="M19 89l172 357h59v-330h35v-58h-35v-68h-95v68h-136v31zM155 116v140l-70 -140h70z" />
    <glyph glyph-name="fiveinferior" unicode="&#x2085;" horiz-adv-x="325" 
d="M197 137q0 63 -11 84t-38 21q-22 0 -33.5 -7t-19.5 -15l-54 2l16 224h201v-59h-114l-7 -99q8 3 19 5t28 2q45 0 75 -37.5t30 -115.5q0 -43 -10 -73t-28.5 -49t-44.5 -27.5t-57 -8.5q-60 0 -90.5 29.5t-39.5 83.5l51 11q8 -40 26 -53t37 -13q16 0 28 4t20 14.5t12 29
t4 47.5z" />
    <glyph glyph-name="sixinferior" unicode="&#x2086;" horiz-adv-x="337" 
d="M30 152q0 42 10.5 84.5t31 81t49.5 71.5t65 57h73q-14 -12 -31 -29.5t-33.5 -38.5t-30.5 -44.5t-22 -45.5q7 3 16.5 6t21.5 3q57 0 90.5 -42t33.5 -117q0 -76 -38.5 -115t-100.5 -39q-70 0 -102.5 46.5t-32.5 121.5zM163 238q-25 0 -33 -22.5t-8 -79.5q0 -52 10.5 -73.5
t33.5 -21.5t34 23t11 64q0 62 -10 86t-38 24z" />
    <glyph glyph-name="seveninferior" unicode="&#x2087;" horiz-adv-x="292" 
d="M19 446h246v-24l-128 -432h-103l128 397h-143v59z" />
    <glyph glyph-name="eightinferior" unicode="&#x2088;" horiz-adv-x="340" 
d="M169 272q19 0 26.5 13t7.5 53q0 26 -7.5 40t-27.5 14t-27 -14t-7 -40q0 -39 7.5 -52.5t27.5 -13.5zM169 217q-21 0 -32.5 -19t-11.5 -75q0 -36 10.5 -59t34.5 -23q23 0 32.5 23.5t9.5 61.5q0 54 -11.5 72.5t-31.5 18.5zM33 121q0 86 73 123q-26 14 -40 38t-14 58
q0 55 30 83.5t87 28.5q56 0 85.5 -29t29.5 -84q0 -39 -16 -61.5t-36 -33.5q32 -17 52.5 -46.5t20.5 -71.5q0 -142 -136 -142q-69 0 -102.5 35t-33.5 102z" />
    <glyph glyph-name="nineinferior" unicode="&#x2089;" horiz-adv-x="337" 
d="M304 284q0 -42 -10.5 -84.5t-31 -81t-49.5 -71.5t-65 -57h-75q15 12 32.5 29t34 37.5t30 43.5t21.5 46q-14 -8 -37 -8q-57 0 -90.5 42t-33.5 117q0 76 38.5 115.5t100.5 39.5q70 0 102.5 -46.5t32.5 -121.5zM171 198q26 0 33.5 22.5t7.5 79.5q0 51 -10.5 73t-32.5 22
q-24 0 -35 -23t-11 -65q0 -62 9.5 -85.5t38.5 -23.5z" />
    <glyph glyph-name="Euro" unicode="&#x20ac;" horiz-adv-x="486" 
d="M25 547h32v50q0 116 53.5 176.5t162.5 60.5q123 0 174 -81l-63 -47q-16 19 -35.5 30t-48.5 11q-48 0 -68.5 -23t-20.5 -82v-95h193l-39 -87h-154v-77h121l-38 -87h-83v-98q0 -32 4 -55.5t15 -38.5t30 -22.5t49 -7.5q42 0 69 27t35 92l55 -9q-10 -95 -58 -144.5
t-136 -49.5q-109 0 -163 55.5t-54 161.5v89h-51l19 87h32v77h-51z" />
    <glyph glyph-name="uni20B9" unicode="&#x20b9;" horiz-adv-x="502" 
d="M33 823h448v-86h-105q8 -10 15.5 -28.5t10.5 -40.5h79v-86h-78q-4 -72 -36.5 -109t-98.5 -54q66 -14 102.5 -60t36.5 -126v-233h-155v242q0 39 -2 65t-11 42t-27.5 22.5t-51.5 6.5h-69v85h69q51 0 72.5 31t21.5 88h-221v86h219q-2 13 -5 25.5t-11 22.5t-22 15.5t-36 5.5
h-145v86z" />
    <glyph glyph-name="trademark" unicode="&#x2122;" horiz-adv-x="723" 
d="M29 823h259v-43h-76v-360h-105v360h-78v43zM318 823h74l111 -237l88 237h84v-403h-98v221l-72 -221h-58l-75 195v-195h-54v403z" />
    <glyph glyph-name="onethird" unicode="&#x2153;" horiz-adv-x="713" 
d="M49 0zM62 834h122v-456h-95v396h-27v60zM130 0h-81l444 823h81zM571 125q0 51 -9 81q-14 -6 -26 -8t-27 -2q-29 0 -43 15t-14 32q0 23 15.5 34.5t42.5 11.5q25 0 51 -8q5 22 5 47q0 35 -9 49.5t-25 14.5q-18 0 -29.5 -8.5t-17.5 -21.5l-52 25q27 65 99 65
q54 0 85.5 -30.5t31.5 -87.5q0 -50 -32 -88q20 -20 33.5 -51t13.5 -74q0 -65 -38.5 -101t-105.5 -36q-48 0 -83.5 29.5t-43.5 83.5l58 12q8 -35 24 -51t46 -16q28 0 39 19t11 64zM510 237q18 0 28 7q-13 8 -27 8q-12 0 -12 -9q0 -6 11 -6z" />
    <glyph glyph-name="twothirds" unicode="&#x2154;" horiz-adv-x="809" 
d="M49 0zM182 685q9 21 12 34t3 29q0 35 -37 35q-17 0 -26 -12.5t-15 -49.5l-60 4q12 115 106 115q61 0 89 -30.5t28 -77.5q0 -15 -4.5 -31.5t-15.5 -41.5l-99 -224h113v-57h-227zM226 0h-81l444 823h81zM667 125q0 51 -9 81q-14 -6 -26 -8t-27 -2q-29 0 -43 15t-14 32
q0 23 15.5 34.5t42.5 11.5q25 0 51 -8q5 22 5 47q0 35 -9 49.5t-25 14.5q-18 0 -29.5 -8.5t-17.5 -21.5l-52 25q27 65 99 65q54 0 85.5 -30.5t31.5 -87.5q0 -50 -32 -88q20 -20 33.5 -51t13.5 -74q0 -65 -38.5 -101t-105.5 -36q-48 0 -83.5 29.5t-43.5 83.5l58 12
q8 -35 24 -51t46 -16q28 0 39 19t11 64zM606 237q18 0 28 7q-13 8 -27 8q-12 0 -12 -9q0 -6 11 -6z" />
    <glyph glyph-name="oneeighth" unicode="&#x215b;" horiz-adv-x="730" 
d="M49 0zM62 834h122v-456h-95v396h-27v60zM130 0h-81l444 823h81zM545 272q19 0 26.5 13t7.5 53q0 26 -7.5 40t-27.5 14t-27 -14t-7 -40q0 -39 7.5 -52.5t27.5 -13.5zM545 217q-21 0 -32.5 -19t-11.5 -75q0 -36 10.5 -59t34.5 -23q23 0 32.5 23.5t9.5 61.5q0 54 -11.5 72.5
t-31.5 18.5zM409 121q0 86 73 123q-26 14 -40 38t-14 58q0 55 30 83.5t87 28.5q56 0 85.5 -29t29.5 -84q0 -39 -16 -61.5t-36 -33.5q32 -17 52.5 -46.5t20.5 -71.5q0 -142 -136 -142q-69 0 -102.5 35t-33.5 102z" />
    <glyph glyph-name="threeeighths" unicode="&#x215c;" horiz-adv-x="837" 
d="M49 0zM227 513q0 51 -9 81q-14 -6 -26 -8t-27 -2q-29 0 -43 15t-14 32q0 23 15.5 34.5t42.5 11.5q25 0 51 -8q5 22 5 47q0 35 -9 49.5t-25 14.5q-18 0 -29.5 -8.5t-17.5 -21.5l-52 25q27 65 99 65q54 0 85.5 -30.5t31.5 -87.5q0 -50 -32 -88q20 -20 33.5 -51t13.5 -74
q0 -65 -38.5 -101t-105.5 -36q-48 0 -83.5 29.5t-43.5 83.5l58 12q8 -35 24 -51t46 -16q28 0 39 19t11 64zM166 625q18 0 28 7q-13 8 -27 8q-12 0 -12 -9q0 -6 11 -6zM237 0h-81l444 823h81zM652 272q19 0 26.5 13t7.5 53q0 26 -7.5 40t-27.5 14t-27 -14t-7 -40
q0 -39 7.5 -52.5t27.5 -13.5zM652 217q-21 0 -32.5 -19t-11.5 -75q0 -36 10.5 -59t34.5 -23q23 0 32.5 23.5t9.5 61.5q0 54 -11.5 72.5t-31.5 18.5zM516 121q0 86 73 123q-26 14 -40 38t-14 58q0 55 30 83.5t87 28.5q56 0 85.5 -29t29.5 -84q0 -39 -16 -61.5t-36 -33.5
q32 -17 52.5 -46.5t20.5 -71.5q0 -142 -136 -142q-69 0 -102.5 35t-33.5 102z" />
    <glyph glyph-name="fiveeighths" unicode="&#x215d;" horiz-adv-x="838" 
d="M49 0zM227 525q0 63 -11 84t-38 21q-22 0 -33.5 -7t-19.5 -15l-54 2l16 224h201v-59h-114l-7 -99q8 3 19 5t28 2q45 0 75 -37.5t30 -115.5q0 -43 -10 -73t-28.5 -49t-44.5 -27.5t-57 -8.5q-60 0 -90.5 29.5t-39.5 83.5l51 11q8 -40 26 -53t37 -13q16 0 28 4t20 14.5
t12 29t4 47.5zM238 0h-81l444 823h81zM653 272q19 0 26.5 13t7.5 53q0 26 -7.5 40t-27.5 14t-27 -14t-7 -40q0 -39 7.5 -52.5t27.5 -13.5zM653 217q-21 0 -32.5 -19t-11.5 -75q0 -36 10.5 -59t34.5 -23q23 0 32.5 23.5t9.5 61.5q0 54 -11.5 72.5t-31.5 18.5zM517 121
q0 86 73 123q-26 14 -40 38t-14 58q0 55 30 83.5t87 28.5q56 0 85.5 -29t29.5 -84q0 -39 -16 -61.5t-36 -33.5q32 -17 52.5 -46.5t20.5 -71.5q0 -142 -136 -142q-69 0 -102.5 35t-33.5 102z" />
    <glyph glyph-name="seveneighths" unicode="&#x215e;" horiz-adv-x="785" 
d="M49 0zM49 834h246v-24l-128 -432h-103l128 397h-143v59zM185 0h-81l444 823h81zM600 272q19 0 26.5 13t7.5 53q0 26 -7.5 40t-27.5 14t-27 -14t-7 -40q0 -39 7.5 -52.5t27.5 -13.5zM600 217q-21 0 -32.5 -19t-11.5 -75q0 -36 10.5 -59t34.5 -23q23 0 32.5 23.5t9.5 61.5
q0 54 -11.5 72.5t-31.5 18.5zM464 121q0 86 73 123q-26 14 -40 38t-14 58q0 55 30 83.5t87 28.5q56 0 85.5 -29t29.5 -84q0 -39 -16 -61.5t-36 -33.5q32 -17 52.5 -46.5t20.5 -71.5q0 -142 -136 -142q-69 0 -102.5 35t-33.5 102z" />
    <glyph glyph-name="partialdiff" unicode="&#x2202;" horiz-adv-x="417" 
d="M162 740q15 9 34 13.5t35 4.5q36 0 61.5 -15t42.5 -39.5t27 -56t15.5 -65t7 -67t1.5 -60.5q0 -43 -3.5 -94t-12 -102.5t-24 -100t-40 -85.5t-59 -59.5t-80.5 -22.5q-36 0 -62 16.5t-43 44.5t-25 66t-8 81q0 51 11.5 96.5t33.5 80t55 54.5t77 20q22 0 43 -9t37 -24
q0 45 -2.5 84.5t-9.5 69.5t-20 47.5t-34 17.5q-11 0 -24.5 -5t-33.5 -16v125zM178 113q21 0 36.5 14t26 38t17.5 55.5t12 66.5q-8 28 -24 44t-36 16q-41 0 -60.5 -38t-19.5 -101q0 -43 11.5 -69t36.5 -26z" />
    <glyph glyph-name="product" unicode="&#x220f;" horiz-adv-x="427" 
d="M301 -108v854h-178v-854h-76v931h331v-931h-77z" />
    <glyph glyph-name="summation" unicode="&#x2211;" horiz-adv-x="434" 
d="M30 -81v80l175 370l-175 374v80h371v-115h-227l153 -339l-153 -336h227v-114h-371z" />
    <glyph glyph-name="minus" unicode="&#x2212;" horiz-adv-x="397" 
d="M382 470v-94h-368v94h368z" />
    <glyph glyph-name="radical" unicode="&#x221a;" horiz-adv-x="500" 
d="M180 0l-81 311h-88v85h164l56 -224l139 651h130l-197 -823h-123z" />
    <glyph glyph-name="infinity" unicode="&#x221e;" horiz-adv-x="727" 
d="M203 607q61 0 100.5 -20.5t59.5 -55.5q21 34 60 55t100 21q36 0 68.5 -9.5t57.5 -32t39.5 -59t14.5 -89.5t-14.5 -89.5t-39.5 -58.5t-57.5 -31.5t-68.5 -9.5q-62 0 -101.5 20t-59.5 55q-20 -35 -59 -55t-100 -20q-36 0 -68.5 9.5t-57 31.5t-39 58.5t-14.5 89.5t14.5 89.5
t39 59t57 32t68.5 9.5zM406 417q0 -45 27 -75.5t81 -30.5q51 0 77.5 24t26.5 82q0 59 -26.5 83t-77.5 24q-54 0 -81 -30.5t-27 -76.5zM321 417q0 46 -28 76.5t-81 30.5q-51 0 -78 -24t-27 -83q0 -58 27 -82t78 -24q53 0 81 30.5t28 75.5z" />
    <glyph glyph-name="integral" unicode="&#x222b;" horiz-adv-x="253" 
d="M14 -25q7 -5 13 -6t14 -1q41 0 41 41v729q0 52 31 74t84 22q34 0 48 -12l-5 -72q-10 7 -27 7q-40 0 -40 -41v-728q0 -26 -10.5 -44t-27 -29.5t-37 -17t-39.5 -5.5q-32 0 -51 11z" />
    <glyph glyph-name="approxequal" unicode="&#x2248;" horiz-adv-x="405" 
d="M19 222zM387 319q-8 -19 -19 -36.5t-24.5 -31t-30 -21.5t-35.5 -8q-22 0 -43 8.5t-41 18.5l-38.5 18.5t-34.5 8.5q-22 0 -31.5 -10t-18.5 -37l-52 40q17 40 44.5 68.5t66.5 28.5q21 0 42 -8.5t41 -18.5l38 -18.5t35 -8.5q23 0 33 10.5t17 36.5zM387 578q-8 -19 -19 -36.5
t-24.5 -31t-30 -21.5t-35.5 -8q-22 0 -43 8.5t-41 18.5l-38.5 18.5t-34.5 8.5q-22 0 -31.5 -10t-18.5 -37l-52 40q17 40 44.5 68.5t66.5 28.5q21 0 42 -8.5t41 -18.5l38 -18.5t35 -8.5q23 0 33 10.5t17 36.5z" />
    <glyph glyph-name="notequal" unicode="&#x2260;" horiz-adv-x="397" 
d="M138 367l62 112h-186v94h238l138 250h71l-138 -250h59v-94h-111l-62 -112h173v-94h-225l-150 -273h-71l150 273h-72v94h124z" />
    <glyph glyph-name="lessequal" unicode="&#x2264;" horiz-adv-x="397" 
d="M14 1zM14 457l368 171v-96l-249 -109l249 -109v-96l-368 173v66zM382 95v-94h-368v94h368z" />
    <glyph glyph-name="greaterequal" unicode="&#x2265;" horiz-adv-x="397" 
d="M14 1zM382 391l-368 -173v96l249 109l-249 109v96l368 -171v-66zM382 95v-94h-368v94h368z" />
    <glyph glyph-name="lozenge" unicode="&#x25ca;" horiz-adv-x="435" 
d="M196 64l-174 349l174 348h45l172 -348l-172 -349h-45zM217 169l115 244l-115 243l-115 -243z" />
    <glyph glyph-name=".null" horiz-adv-x="0" 
 />
    <glyph glyph-name="nonmarkingreturn" horiz-adv-x="271" 
 />
    <glyph glyph-name=".ttfautohint" horiz-adv-x="271" 
d="M0 0z" />
    </font>
</defs>
</svg>
